<?xml version="1.0" encoding="utf-8" standalone="no"?>
<!DOCTYPE svg PUBLIC "-//W3C//DTD SVG 1.1//EN"
  "http://www.w3.org/Graphics/SVG/1.1/DTD/svg11.dtd">
<svg xmlns:xlink="http://www.w3.org/1999/xlink" width="1144.505312pt" height="568.398125pt" viewBox="0 0 1144.505312 568.398125" xmlns="http://www.w3.org/2000/svg" version="1.1">
 <metadata>
  <rdf:RDF xmlns:dc="http://purl.org/dc/elements/1.1/" xmlns:cc="http://creativecommons.org/ns#" xmlns:rdf="http://www.w3.org/1999/02/22-rdf-syntax-ns#">
   <cc:Work>
    <dc:type rdf:resource="http://purl.org/dc/dcmitype/StillImage"/>
    <dc:date>2025-04-22T07:54:41.996771</dc:date>
    <dc:format>image/svg+xml</dc:format>
    <dc:creator>
     <cc:Agent>
      <dc:title>Matplotlib v3.10.1, https://matplotlib.org/</dc:title>
     </cc:Agent>
    </dc:creator>
   </cc:Work>
  </rdf:RDF>
 </metadata>
 <defs>
  <style type="text/css">*{stroke-linejoin: round; stroke-linecap: butt}</style>
 </defs>
 <g id="figure_1">
  <g id="patch_1">
   <path d="M 0 568.398125 
L 1144.505312 568.398125 
L 1144.505312 0 
L 0 0 
z
" style="fill: #ffffff"/>
  </g>
  <g id="axes_1">
   <g id="patch_2">
    <path d="M 55.345313 118.363143 
L 1137.305313 118.363143 
L 1137.305313 7.2 
L 55.345313 7.2 
z
" style="fill: #ffffff"/>
   </g>
   <g id="matplotlib.axis_1">
    <g id="xtick_1">
     <g id="line2d_1">
      <defs>
       <path id="m185db12430" d="M 0 0 
L 0 3.5 
" style="stroke: #000000; stroke-width: 0.8"/>
      </defs>
      <g>
       <use xlink:href="#m185db12430" x="104.525313" y="118.363143" style="stroke: #000000; stroke-width: 0.8"/>
      </g>
     </g>
     <g id="text_1">
      <!-- 0 -->
      <g transform="translate(101.344063 132.96158) scale(0.1 -0.1)">
       <defs>
        <path id="DejaVuSans-30" d="M 2034 4250 
Q 1547 4250 1301 3770 
Q 1056 3291 1056 2328 
Q 1056 1369 1301 889 
Q 1547 409 2034 409 
Q 2525 409 2770 889 
Q 3016 1369 3016 2328 
Q 3016 3291 2770 3770 
Q 2525 4250 2034 4250 
z
M 2034 4750 
Q 2819 4750 3233 4129 
Q 3647 3509 3647 2328 
Q 3647 1150 3233 529 
Q 2819 -91 2034 -91 
Q 1250 -91 836 529 
Q 422 1150 422 2328 
Q 422 3509 836 4129 
Q 1250 4750 2034 4750 
z
" transform="scale(0.015625)"/>
       </defs>
       <use xlink:href="#DejaVuSans-30"/>
      </g>
     </g>
    </g>
    <g id="xtick_2">
     <g id="line2d_2">
      <g>
       <use xlink:href="#m185db12430" x="294.592945" y="118.363143" style="stroke: #000000; stroke-width: 0.8"/>
      </g>
     </g>
     <g id="text_2">
      <!-- 200 -->
      <g transform="translate(285.049195 132.96158) scale(0.1 -0.1)">
       <defs>
        <path id="DejaVuSans-32" d="M 1228 531 
L 3431 531 
L 3431 0 
L 469 0 
L 469 531 
Q 828 903 1448 1529 
Q 2069 2156 2228 2338 
Q 2531 2678 2651 2914 
Q 2772 3150 2772 3378 
Q 2772 3750 2511 3984 
Q 2250 4219 1831 4219 
Q 1534 4219 1204 4116 
Q 875 4013 500 3803 
L 500 4441 
Q 881 4594 1212 4672 
Q 1544 4750 1819 4750 
Q 2544 4750 2975 4387 
Q 3406 4025 3406 3419 
Q 3406 3131 3298 2873 
Q 3191 2616 2906 2266 
Q 2828 2175 2409 1742 
Q 1991 1309 1228 531 
z
" transform="scale(0.015625)"/>
       </defs>
       <use xlink:href="#DejaVuSans-32"/>
       <use xlink:href="#DejaVuSans-30" transform="translate(63.623047 0)"/>
       <use xlink:href="#DejaVuSans-30" transform="translate(127.246094 0)"/>
      </g>
     </g>
    </g>
    <g id="xtick_3">
     <g id="line2d_3">
      <g>
       <use xlink:href="#m185db12430" x="484.660578" y="118.363143" style="stroke: #000000; stroke-width: 0.8"/>
      </g>
     </g>
     <g id="text_3">
      <!-- 400 -->
      <g transform="translate(475.116828 132.96158) scale(0.1 -0.1)">
       <defs>
        <path id="DejaVuSans-34" d="M 2419 4116 
L 825 1625 
L 2419 1625 
L 2419 4116 
z
M 2253 4666 
L 3047 4666 
L 3047 1625 
L 3713 1625 
L 3713 1100 
L 3047 1100 
L 3047 0 
L 2419 0 
L 2419 1100 
L 313 1100 
L 313 1709 
L 2253 4666 
z
" transform="scale(0.015625)"/>
       </defs>
       <use xlink:href="#DejaVuSans-34"/>
       <use xlink:href="#DejaVuSans-30" transform="translate(63.623047 0)"/>
       <use xlink:href="#DejaVuSans-30" transform="translate(127.246094 0)"/>
      </g>
     </g>
    </g>
    <g id="xtick_4">
     <g id="line2d_4">
      <g>
       <use xlink:href="#m185db12430" x="674.728211" y="118.363143" style="stroke: #000000; stroke-width: 0.8"/>
      </g>
     </g>
     <g id="text_4">
      <!-- 600 -->
      <g transform="translate(665.184461 132.96158) scale(0.1 -0.1)">
       <defs>
        <path id="DejaVuSans-36" d="M 2113 2584 
Q 1688 2584 1439 2293 
Q 1191 2003 1191 1497 
Q 1191 994 1439 701 
Q 1688 409 2113 409 
Q 2538 409 2786 701 
Q 3034 994 3034 1497 
Q 3034 2003 2786 2293 
Q 2538 2584 2113 2584 
z
M 3366 4563 
L 3366 3988 
Q 3128 4100 2886 4159 
Q 2644 4219 2406 4219 
Q 1781 4219 1451 3797 
Q 1122 3375 1075 2522 
Q 1259 2794 1537 2939 
Q 1816 3084 2150 3084 
Q 2853 3084 3261 2657 
Q 3669 2231 3669 1497 
Q 3669 778 3244 343 
Q 2819 -91 2113 -91 
Q 1303 -91 875 529 
Q 447 1150 447 2328 
Q 447 3434 972 4092 
Q 1497 4750 2381 4750 
Q 2619 4750 2861 4703 
Q 3103 4656 3366 4563 
z
" transform="scale(0.015625)"/>
       </defs>
       <use xlink:href="#DejaVuSans-36"/>
       <use xlink:href="#DejaVuSans-30" transform="translate(63.623047 0)"/>
       <use xlink:href="#DejaVuSans-30" transform="translate(127.246094 0)"/>
      </g>
     </g>
    </g>
    <g id="xtick_5">
     <g id="line2d_5">
      <g>
       <use xlink:href="#m185db12430" x="864.795844" y="118.363143" style="stroke: #000000; stroke-width: 0.8"/>
      </g>
     </g>
     <g id="text_5">
      <!-- 800 -->
      <g transform="translate(855.252094 132.96158) scale(0.1 -0.1)">
       <defs>
        <path id="DejaVuSans-38" d="M 2034 2216 
Q 1584 2216 1326 1975 
Q 1069 1734 1069 1313 
Q 1069 891 1326 650 
Q 1584 409 2034 409 
Q 2484 409 2743 651 
Q 3003 894 3003 1313 
Q 3003 1734 2745 1975 
Q 2488 2216 2034 2216 
z
M 1403 2484 
Q 997 2584 770 2862 
Q 544 3141 544 3541 
Q 544 4100 942 4425 
Q 1341 4750 2034 4750 
Q 2731 4750 3128 4425 
Q 3525 4100 3525 3541 
Q 3525 3141 3298 2862 
Q 3072 2584 2669 2484 
Q 3125 2378 3379 2068 
Q 3634 1759 3634 1313 
Q 3634 634 3220 271 
Q 2806 -91 2034 -91 
Q 1263 -91 848 271 
Q 434 634 434 1313 
Q 434 1759 690 2068 
Q 947 2378 1403 2484 
z
M 1172 3481 
Q 1172 3119 1398 2916 
Q 1625 2713 2034 2713 
Q 2441 2713 2670 2916 
Q 2900 3119 2900 3481 
Q 2900 3844 2670 4047 
Q 2441 4250 2034 4250 
Q 1625 4250 1398 4047 
Q 1172 3844 1172 3481 
z
" transform="scale(0.015625)"/>
       </defs>
       <use xlink:href="#DejaVuSans-38"/>
       <use xlink:href="#DejaVuSans-30" transform="translate(63.623047 0)"/>
       <use xlink:href="#DejaVuSans-30" transform="translate(127.246094 0)"/>
      </g>
     </g>
    </g>
    <g id="xtick_6">
     <g id="line2d_6">
      <g>
       <use xlink:href="#m185db12430" x="1054.863477" y="118.363143" style="stroke: #000000; stroke-width: 0.8"/>
      </g>
     </g>
     <g id="text_6">
      <!-- 1000 -->
      <g transform="translate(1042.138477 132.96158) scale(0.1 -0.1)">
       <defs>
        <path id="DejaVuSans-31" d="M 794 531 
L 1825 531 
L 1825 4091 
L 703 3866 
L 703 4441 
L 1819 4666 
L 2450 4666 
L 2450 531 
L 3481 531 
L 3481 0 
L 794 0 
L 794 531 
z
" transform="scale(0.015625)"/>
       </defs>
       <use xlink:href="#DejaVuSans-31"/>
       <use xlink:href="#DejaVuSans-30" transform="translate(63.623047 0)"/>
       <use xlink:href="#DejaVuSans-30" transform="translate(127.246094 0)"/>
       <use xlink:href="#DejaVuSans-30" transform="translate(190.869141 0)"/>
      </g>
     </g>
    </g>
   </g>
   <g id="matplotlib.axis_2">
    <g id="ytick_1">
     <g id="line2d_7">
      <defs>
       <path id="m43874f7050" d="M 0 0 
L -3.5 0 
" style="stroke: #000000; stroke-width: 0.8"/>
      </defs>
      <g>
       <use xlink:href="#m43874f7050" x="55.345313" y="116.342655" style="stroke: #000000; stroke-width: 0.8"/>
      </g>
     </g>
     <g id="text_7">
      <!-- 0 -->
      <g transform="translate(41.982813 120.141874) scale(0.1 -0.1)">
       <use xlink:href="#DejaVuSans-30"/>
      </g>
     </g>
    </g>
    <g id="ytick_2">
     <g id="line2d_8">
      <g>
       <use xlink:href="#m43874f7050" x="55.345313" y="79.055873" style="stroke: #000000; stroke-width: 0.8"/>
      </g>
     </g>
     <g id="text_8">
      <!-- 200 -->
      <g transform="translate(29.257813 82.855092) scale(0.1 -0.1)">
       <use xlink:href="#DejaVuSans-32"/>
       <use xlink:href="#DejaVuSans-30" transform="translate(63.623047 0)"/>
       <use xlink:href="#DejaVuSans-30" transform="translate(127.246094 0)"/>
      </g>
     </g>
    </g>
    <g id="ytick_3">
     <g id="line2d_9">
      <g>
       <use xlink:href="#m43874f7050" x="55.345313" y="41.769092" style="stroke: #000000; stroke-width: 0.8"/>
      </g>
     </g>
     <g id="text_9">
      <!-- 400 -->
      <g transform="translate(29.257813 45.568311) scale(0.1 -0.1)">
       <use xlink:href="#DejaVuSans-34"/>
       <use xlink:href="#DejaVuSans-30" transform="translate(63.623047 0)"/>
       <use xlink:href="#DejaVuSans-30" transform="translate(127.246094 0)"/>
      </g>
     </g>
    </g>
    <g id="text_10">
     <!-- Original Data -->
     <g transform="translate(23.178125 95.87454) rotate(-90) scale(0.1 -0.1)">
      <defs>
       <path id="DejaVuSans-4f" d="M 2522 4238 
Q 1834 4238 1429 3725 
Q 1025 3213 1025 2328 
Q 1025 1447 1429 934 
Q 1834 422 2522 422 
Q 3209 422 3611 934 
Q 4013 1447 4013 2328 
Q 4013 3213 3611 3725 
Q 3209 4238 2522 4238 
z
M 2522 4750 
Q 3503 4750 4090 4092 
Q 4678 3434 4678 2328 
Q 4678 1225 4090 567 
Q 3503 -91 2522 -91 
Q 1538 -91 948 565 
Q 359 1222 359 2328 
Q 359 3434 948 4092 
Q 1538 4750 2522 4750 
z
" transform="scale(0.015625)"/>
       <path id="DejaVuSans-72" d="M 2631 2963 
Q 2534 3019 2420 3045 
Q 2306 3072 2169 3072 
Q 1681 3072 1420 2755 
Q 1159 2438 1159 1844 
L 1159 0 
L 581 0 
L 581 3500 
L 1159 3500 
L 1159 2956 
Q 1341 3275 1631 3429 
Q 1922 3584 2338 3584 
Q 2397 3584 2469 3576 
Q 2541 3569 2628 3553 
L 2631 2963 
z
" transform="scale(0.015625)"/>
       <path id="DejaVuSans-69" d="M 603 3500 
L 1178 3500 
L 1178 0 
L 603 0 
L 603 3500 
z
M 603 4863 
L 1178 4863 
L 1178 4134 
L 603 4134 
L 603 4863 
z
" transform="scale(0.015625)"/>
       <path id="DejaVuSans-67" d="M 2906 1791 
Q 2906 2416 2648 2759 
Q 2391 3103 1925 3103 
Q 1463 3103 1205 2759 
Q 947 2416 947 1791 
Q 947 1169 1205 825 
Q 1463 481 1925 481 
Q 2391 481 2648 825 
Q 2906 1169 2906 1791 
z
M 3481 434 
Q 3481 -459 3084 -895 
Q 2688 -1331 1869 -1331 
Q 1566 -1331 1297 -1286 
Q 1028 -1241 775 -1147 
L 775 -588 
Q 1028 -725 1275 -790 
Q 1522 -856 1778 -856 
Q 2344 -856 2625 -561 
Q 2906 -266 2906 331 
L 2906 616 
Q 2728 306 2450 153 
Q 2172 0 1784 0 
Q 1141 0 747 490 
Q 353 981 353 1791 
Q 353 2603 747 3093 
Q 1141 3584 1784 3584 
Q 2172 3584 2450 3431 
Q 2728 3278 2906 2969 
L 2906 3500 
L 3481 3500 
L 3481 434 
z
" transform="scale(0.015625)"/>
       <path id="DejaVuSans-6e" d="M 3513 2113 
L 3513 0 
L 2938 0 
L 2938 2094 
Q 2938 2591 2744 2837 
Q 2550 3084 2163 3084 
Q 1697 3084 1428 2787 
Q 1159 2491 1159 1978 
L 1159 0 
L 581 0 
L 581 3500 
L 1159 3500 
L 1159 2956 
Q 1366 3272 1645 3428 
Q 1925 3584 2291 3584 
Q 2894 3584 3203 3211 
Q 3513 2838 3513 2113 
z
" transform="scale(0.015625)"/>
       <path id="DejaVuSans-61" d="M 2194 1759 
Q 1497 1759 1228 1600 
Q 959 1441 959 1056 
Q 959 750 1161 570 
Q 1363 391 1709 391 
Q 2188 391 2477 730 
Q 2766 1069 2766 1631 
L 2766 1759 
L 2194 1759 
z
M 3341 1997 
L 3341 0 
L 2766 0 
L 2766 531 
Q 2569 213 2275 61 
Q 1981 -91 1556 -91 
Q 1019 -91 701 211 
Q 384 513 384 1019 
Q 384 1609 779 1909 
Q 1175 2209 1959 2209 
L 2766 2209 
L 2766 2266 
Q 2766 2663 2505 2880 
Q 2244 3097 1772 3097 
Q 1472 3097 1187 3025 
Q 903 2953 641 2809 
L 641 3341 
Q 956 3463 1253 3523 
Q 1550 3584 1831 3584 
Q 2591 3584 2966 3190 
Q 3341 2797 3341 1997 
z
" transform="scale(0.015625)"/>
       <path id="DejaVuSans-6c" d="M 603 4863 
L 1178 4863 
L 1178 0 
L 603 0 
L 603 4863 
z
" transform="scale(0.015625)"/>
       <path id="DejaVuSans-20" transform="scale(0.015625)"/>
       <path id="DejaVuSans-44" d="M 1259 4147 
L 1259 519 
L 2022 519 
Q 2988 519 3436 956 
Q 3884 1394 3884 2338 
Q 3884 3275 3436 3711 
Q 2988 4147 2022 4147 
L 1259 4147 
z
M 628 4666 
L 1925 4666 
Q 3281 4666 3915 4102 
Q 4550 3538 4550 2338 
Q 4550 1131 3912 565 
Q 3275 0 1925 0 
L 628 0 
L 628 4666 
z
" transform="scale(0.015625)"/>
       <path id="DejaVuSans-74" d="M 1172 4494 
L 1172 3500 
L 2356 3500 
L 2356 3053 
L 1172 3053 
L 1172 1153 
Q 1172 725 1289 603 
Q 1406 481 1766 481 
L 2356 481 
L 2356 0 
L 1766 0 
Q 1100 0 847 248 
Q 594 497 594 1153 
L 594 3053 
L 172 3053 
L 172 3500 
L 594 3500 
L 594 4494 
L 1172 4494 
z
" transform="scale(0.015625)"/>
      </defs>
      <use xlink:href="#DejaVuSans-4f"/>
      <use xlink:href="#DejaVuSans-72" transform="translate(78.710938 0)"/>
      <use xlink:href="#DejaVuSans-69" transform="translate(119.824219 0)"/>
      <use xlink:href="#DejaVuSans-67" transform="translate(147.607422 0)"/>
      <use xlink:href="#DejaVuSans-69" transform="translate(211.083984 0)"/>
      <use xlink:href="#DejaVuSans-6e" transform="translate(238.867188 0)"/>
      <use xlink:href="#DejaVuSans-61" transform="translate(302.246094 0)"/>
      <use xlink:href="#DejaVuSans-6c" transform="translate(363.525391 0)"/>
      <use xlink:href="#DejaVuSans-20" transform="translate(391.308594 0)"/>
      <use xlink:href="#DejaVuSans-44" transform="translate(423.095703 0)"/>
      <use xlink:href="#DejaVuSans-61" transform="translate(500.097656 0)"/>
      <use xlink:href="#DejaVuSans-74" transform="translate(561.376953 0)"/>
      <use xlink:href="#DejaVuSans-61" transform="translate(600.585938 0)"/>
     </g>
    </g>
   </g>
   <g id="line2d_10">
    <path d="M 104.525313 104.601195 
L 106.425989 104.632464 
L 108.326665 104.744072 
L 114.028694 104.443932 
L 115.92937 104.628125 
L 117.830047 105.15256 
L 119.730723 106.113286 
L 121.631399 107.304451 
L 122.581738 107.692909 
L 123.532076 107.81982 
L 124.482414 107.593279 
L 128.283767 107.147147 
L 130.184443 106.789026 
L 131.134781 106.886822 
L 132.085119 107.303384 
L 133.035457 107.183253 
L 133.985796 106.536288 
L 134.936134 105.676805 
L 135.886472 104.4349 
L 136.83681 104.173652 
L 137.787148 104.580374 
L 141.588501 105.343553 
L 143.489177 105.491933 
L 145.389854 105.629526 
L 146.340192 104.12823 
L 147.29053 100.961987 
L 148.240868 98.464597 
L 149.191206 94.538105 
L 150.141544 92.656666 
L 151.091883 92.117129 
L 152.042221 90.845737 
L 152.992559 89.082188 
L 153.942897 87.962713 
L 154.893235 87.392367 
L 155.843573 87.268547 
L 156.793912 87.856546 
L 157.74425 88.258075 
L 158.694588 88.498806 
L 160.595264 89.495388 
L 161.545602 89.778225 
L 162.495941 89.79527 
L 163.446279 89.432703 
L 164.396617 88.574516 
L 165.346955 81.594132 
L 166.297293 82.997484 
L 167.247631 82.138484 
L 168.19797 82.597627 
L 169.148308 81.990677 
L 170.098646 79.79285 
L 171.048984 74.147294 
L 171.999322 72.855059 
L 172.94966 71.829655 
L 173.899998 72.489265 
L 174.850337 72.974951 
L 175.800675 73.113933 
L 176.751013 74.030321 
L 178.651689 76.417539 
L 179.602027 77.561288 
L 180.552366 78.111411 
L 181.502704 78.206216 
L 182.453042 78.890239 
L 183.40338 80.187074 
L 184.353718 80.976992 
L 185.304056 81.457795 
L 187.204733 82.80706 
L 188.155071 82.733143 
L 189.105409 83.027467 
L 190.055747 85.523413 
L 191.006085 83.879275 
L 191.956424 84.377629 
L 192.906762 84.622418 
L 193.8571 84.404479 
L 194.807438 83.822055 
L 195.757776 82.945028 
L 196.708114 81.667654 
L 197.658453 82.164313 
L 198.608791 80.737604 
L 199.559129 80.978514 
L 200.509467 81.710742 
L 201.459805 82.106201 
L 204.31082 82.440415 
L 206.211496 82.364565 
L 207.161834 82.540462 
L 208.112172 83.006373 
L 209.062511 83.256732 
L 212.863863 82.192456 
L 214.76454 82.231362 
L 215.714878 82.362013 
L 218.565892 81.124461 
L 220.466569 80.825923 
L 221.416907 80.864929 
L 222.367245 81.118866 
L 223.317583 81.620617 
L 224.267921 81.26102 
L 225.218259 79.974464 
L 226.168598 79.300037 
L 227.118936 79.048874 
L 228.069274 77.877968 
L 229.96995 73.8939 
L 230.920288 68.904206 
L 231.870627 62.829701 
L 232.820965 60.986662 
L 233.771303 50.261648 
L 234.721641 33.662092 
L 235.671979 27.435277 
L 236.622317 29.720923 
L 237.572655 29.525964 
L 238.522994 26.927187 
L 239.473332 28.89192 
L 240.42367 26.607433 
L 241.374008 27.982304 
L 242.324346 30.416527 
L 243.274684 28.264548 
L 244.225023 30.52613 
L 245.175361 35.329326 
L 246.125699 39.114671 
L 247.076037 41.659652 
L 248.026375 40.797915 
L 248.976713 36.066624 
L 249.927052 36.52842 
L 250.87739 24.004931 
L 251.827728 18.197397 
L 252.778066 16.646097 
L 253.728404 13.388569 
L 254.678742 12.908544 
L 255.629081 12.25287 
L 256.579419 14.201865 
L 257.529757 18.211947 
L 258.480095 19.9841 
L 259.430433 22.324894 
L 260.380771 23.08763 
L 261.33111 22.213357 
L 262.281448 25.815334 
L 263.231786 32.56121 
L 264.182124 30.474103 
L 265.132462 32.194603 
L 266.0828 27.951364 
L 267.033139 27.791839 
L 267.983477 28.315301 
L 268.933815 31.151885 
L 269.884153 31.157518 
L 270.834491 32.947142 
L 272.735168 34.301667 
L 273.685506 28.906385 
L 274.635844 30.180088 
L 276.53652 35.421212 
L 277.486858 36.615438 
L 278.437197 36.969091 
L 279.387535 37.180274 
L 280.337873 37.62392 
L 281.288211 38.818112 
L 282.238549 41.72035 
L 283.188887 42.111251 
L 284.139226 47.870226 
L 286.99024 59.911337 
L 287.940578 54.6017 
L 288.890916 54.057235 
L 289.841255 54.520961 
L 290.791593 54.214574 
L 291.741931 56.187247 
L 292.692269 55.6183 
L 293.642607 53.078351 
L 294.592945 47.358017 
L 295.543284 43.417973 
L 296.493622 43.133075 
L 297.44396 42.221203 
L 298.394298 45.662148 
L 299.344636 46.64931 
L 300.294974 47.800507 
L 301.245313 48.395393 
L 302.195651 48.630134 
L 303.145989 48.379903 
L 304.096327 47.997012 
L 305.046665 47.892741 
L 305.997003 48.530778 
L 307.89768 51.3106 
L 308.848018 52.506001 
L 309.798356 53.485901 
L 311.699032 54.532513 
L 312.64937 55.159799 
L 313.599709 55.402762 
L 314.550047 54.74776 
L 315.500385 52.258284 
L 316.450723 53.349263 
L 318.351399 56.108529 
L 319.301738 57.150942 
L 321.202414 58.489785 
L 322.152752 58.229708 
L 323.10309 56.250187 
L 324.053428 55.979869 
L 325.003767 56.386871 
L 325.954105 57.100384 
L 326.904443 57.458398 
L 327.854781 57.052384 
L 328.805119 56.923718 
L 329.755457 56.678396 
L 330.705796 56.831826 
L 331.656134 57.629046 
L 332.606472 57.88269 
L 333.55681 57.763748 
L 334.507148 57.27229 
L 335.457486 56.182339 
L 336.407825 56.320894 
L 338.308501 61.418363 
L 339.258839 64.231352 
L 340.209177 66.683079 
L 341.159515 66.694511 
L 342.109854 67.919571 
L 343.060192 69.458562 
L 344.01053 70.141662 
L 345.911206 72.086007 
L 346.861544 73.303534 
L 347.811883 73.983788 
L 349.712559 74.221212 
L 351.613235 73.947101 
L 352.563573 73.910258 
L 353.513912 72.435019 
L 354.46425 69.468165 
L 355.414588 71.934276 
L 356.364926 72.465309 
L 357.315264 71.453773 
L 358.265602 71.272419 
L 359.215941 70.05265 
L 360.166279 68.573022 
L 361.116617 65.386776 
L 362.066955 65.2838 
L 363.017293 65.914604 
L 363.967631 68.146043 
L 364.91797 67.56886 
L 365.868308 63.671275 
L 366.818646 58.506002 
L 367.768984 56.550639 
L 368.719322 33.765528 
L 369.66966 43.697961 
L 370.619998 46.410303 
L 371.570337 49.9835 
L 372.520675 50.985245 
L 373.471013 50.418582 
L 374.421351 56.913548 
L 376.322027 58.146002 
L 377.272366 56.264848 
L 378.222704 55.89052 
L 379.173042 60.112456 
L 380.12338 63.215834 
L 381.073718 62.113314 
L 382.024056 59.978906 
L 382.974395 59.281954 
L 383.924733 58.034758 
L 384.875071 59.15131 
L 385.825409 60.773603 
L 386.775747 60.563983 
L 387.726085 61.052889 
L 388.676424 60.779985 
L 390.5771 60.448315 
L 391.527438 59.930623 
L 392.477776 59.757198 
L 393.428114 60.1338 
L 394.378453 61.376374 
L 395.328791 62.285819 
L 396.279129 63.008193 
L 397.229467 63.431402 
L 398.179805 63.305113 
L 399.130143 64.009969 
L 400.080482 64.20791 
L 401.981158 65.350651 
L 402.931496 66.328214 
L 403.881834 68.96907 
L 404.832172 70.319123 
L 407.683187 71.929999 
L 408.633525 72.832696 
L 409.583863 74.393042 
L 411.48454 78.221195 
L 412.434878 79.146547 
L 413.385216 78.708725 
L 414.335554 78.424332 
L 415.285892 77.932964 
L 416.23623 78.037618 
L 417.186569 79.027064 
L 418.136907 80.617783 
L 420.037583 84.420452 
L 420.987921 82.335069 
L 422.888598 79.891496 
L 423.838936 79.644084 
L 424.789274 80.695893 
L 425.739612 81.065397 
L 426.68995 80.962128 
L 427.640288 80.608573 
L 428.590627 79.93487 
L 429.540965 79.819274 
L 430.491303 80.415257 
L 431.441641 80.472982 
L 432.391979 80.189322 
L 433.342317 77.900284 
L 434.292655 78.022369 
L 435.242994 77.76298 
L 436.193332 78.673052 
L 437.14367 79.963362 
L 439.044346 83.559055 
L 439.994684 84.966519 
L 440.945023 85.775134 
L 441.895361 85.681402 
L 442.845699 85.336178 
L 443.796037 84.803021 
L 444.746375 83.406302 
L 445.696713 81.278279 
L 446.647052 79.851318 
L 447.59739 74.599829 
L 448.547728 71.777068 
L 449.498066 72.318377 
L 450.448404 73.571045 
L 451.398742 76.479695 
L 452.349081 77.296407 
L 453.299419 75.472467 
L 454.249757 76.131428 
L 455.200095 78.478996 
L 456.150433 78.657223 
L 457.100771 77.229116 
L 459.001448 75.54884 
L 459.951786 72.993255 
L 460.902124 72.427308 
L 461.852462 71.515201 
L 462.8028 69.834409 
L 463.753139 69.320784 
L 464.703477 69.447526 
L 465.653815 69.792812 
L 466.604153 70.536797 
L 467.554491 70.815729 
L 468.504829 70.500798 
L 469.455168 71.049565 
L 471.355844 69.844549 
L 474.206858 65.632152 
L 475.157197 64.665952 
L 478.008211 63.851543 
L 478.958549 63.444139 
L 479.908887 62.704196 
L 481.809564 64.482063 
L 482.759902 63.302976 
L 483.71024 67.23906 
L 484.660578 66.55603 
L 485.610916 66.809743 
L 486.561255 67.442969 
L 487.511593 68.292891 
L 488.461931 68.782217 
L 489.412269 68.857768 
L 490.362607 69.691988 
L 491.312945 71.205666 
L 493.213622 73.542769 
L 494.16396 73.807431 
L 495.114298 72.974102 
L 496.064636 72.81808 
L 497.014974 73.180813 
L 497.965312 73.773598 
L 498.915651 74.963244 
L 499.865989 75.913066 
L 501.766665 77.393145 
L 502.717003 77.942467 
L 503.667341 78.039869 
L 504.61768 77.228679 
L 505.568018 76.037767 
L 506.518356 74.178344 
L 507.468694 73.2775 
L 508.419032 73.465473 
L 509.36937 73.231627 
L 510.319709 74.785979 
L 511.270047 75.172485 
L 513.170723 74.754871 
L 514.121061 74.953905 
L 515.071399 75.610444 
L 516.021738 76.625934 
L 516.972076 78.068517 
L 517.922414 79.926621 
L 518.872752 81.503992 
L 519.82309 82.244119 
L 520.773428 82.061009 
L 521.723767 80.944498 
L 522.674105 80.314582 
L 523.624443 80.261888 
L 524.574781 79.708059 
L 525.525119 80.484957 
L 526.475457 80.588445 
L 527.425796 80.558772 
L 533.127825 81.513278 
L 535.978839 82.242174 
L 536.929177 82.504097 
L 537.879515 82.6371 
L 538.829854 82.618566 
L 539.780192 82.370936 
L 541.680868 81.373717 
L 543.581544 80.623472 
L 544.531883 80.43784 
L 545.482221 80.442548 
L 549.283573 81.509751 
L 554.035264 83.426659 
L 554.985602 84.287782 
L 555.935941 85.76479 
L 557.836617 88.048353 
L 558.786955 88.134516 
L 559.737293 86.977043 
L 560.687631 86.228016 
L 561.63797 85.703192 
L 562.588308 85.70114 
L 563.538646 86.598514 
L 564.488984 87.066773 
L 566.38966 87.468893 
L 568.290337 87.5425 
L 571.141351 87.977642 
L 572.091689 87.988627 
L 573.042027 87.856904 
L 573.992366 87.979754 
L 575.893042 88.81938 
L 576.84338 89.479114 
L 577.793718 90.556488 
L 578.744056 92.085077 
L 579.694395 93.087542 
L 580.644733 93.550416 
L 581.595071 93.510436 
L 582.545409 92.804325 
L 583.495747 92.533187 
L 584.446085 92.731446 
L 587.2971 92.269244 
L 592.048791 92.440748 
L 593.949467 92.197565 
L 596.800482 91.583694 
L 598.701158 91.649449 
L 600.601834 92.100675 
L 601.552172 92.470291 
L 602.502511 92.426561 
L 603.452849 91.916144 
L 604.403187 91.667666 
L 605.353525 91.582346 
L 606.303863 91.645808 
L 608.20454 92.291903 
L 609.154878 92.551837 
L 610.105216 92.632604 
L 611.055554 92.445462 
L 612.005892 92.491472 
L 616.757583 93.592733 
L 618.658259 93.916664 
L 619.608598 94.611724 
L 622.459612 98.438641 
L 623.40995 99.07468 
L 626.260965 98.344404 
L 627.211303 97.733207 
L 631.012655 94.787823 
L 631.962994 94.70344 
L 632.913332 94.798544 
L 634.814008 95.564639 
L 636.714684 96.137499 
L 641.466375 96.809106 
L 642.416713 96.506776 
L 643.367052 95.845797 
L 644.31739 95.694768 
L 645.267728 96.055666 
L 649.069081 97.020024 
L 650.019419 97.089092 
L 651.920095 97.03779 
L 654.77111 97.522911 
L 657.622124 97.964199 
L 660.473139 98.175802 
L 663.324153 98.564016 
L 664.274491 98.694585 
L 665.224829 98.694328 
L 669.026182 98.10889 
L 670.926858 98.38945 
L 672.827535 98.941693 
L 675.678549 99.315088 
L 682.330916 99.445183 
L 685.181931 99.612859 
L 687.082607 99.52667 
L 692.784636 99.063807 
L 696.585989 99.306572 
L 697.536327 99.520975 
L 700.387341 100.766015 
L 701.33768 101.020007 
L 705.139032 101.182423 
L 707.039709 101.388394 
L 713.692076 102.633531 
L 715.592752 102.724458 
L 718.443767 102.599681 
L 728.897486 101.827333 
L 729.847825 101.884782 
L 730.798163 102.116933 
L 732.698839 102.247644 
L 733.649177 102.068985 
L 734.599515 101.615699 
L 735.549854 101.40178 
L 737.45053 101.323101 
L 739.351206 101.245228 
L 742.202221 101.496225 
L 745.053235 101.81792 
L 746.003573 101.790984 
L 746.953912 101.902634 
L 748.854588 102.322845 
L 751.705602 102.723151 
L 752.655941 101.293246 
L 753.606279 101.446082 
L 754.556617 101.189768 
L 758.35797 103.071568 
L 759.308308 103.219147 
L 760.258646 103.200279 
L 761.208984 102.897722 
L 762.159322 102.726249 
L 765.960675 102.607531 
L 767.861351 102.797423 
L 772.613042 102.965514 
L 774.513718 103.42919 
L 776.414395 103.846879 
L 777.364733 103.82777 
L 778.315071 103.547229 
L 779.265409 103.475634 
L 781.166085 103.597698 
L 784.967438 103.631849 
L 786.868114 104.313052 
L 790.669467 106.132809 
L 792.570143 106.693307 
L 794.47082 106.833343 
L 798.272172 106.746623 
L 802.073525 106.385245 
L 803.974201 106.221242 
L 810.626569 106.491796 
L 816.328598 106.774545 
L 831.534008 106.681417 
L 834.385023 106.705877 
L 839.136713 106.619956 
L 842.938066 106.634186 
L 848.640095 106.877245 
L 850.540771 107.082699 
L 851.49111 107.581733 
L 853.391786 109.325995 
L 854.342124 110.116237 
L 855.292462 110.541468 
L 857.193139 110.344303 
L 858.143477 110.069291 
L 859.093815 110.044033 
L 860.994491 110.605849 
L 862.895168 111.053865 
L 868.597197 111.031428 
L 873.348887 110.82894 
L 880.001255 110.805762 
L 885.703284 110.944197 
L 887.60396 111.097407 
L 890.454974 111.615301 
L 893.305989 112.197516 
L 896.157003 112.472021 
L 903.759709 112.747197 
L 906.610723 112.537157 
L 914.213428 111.773643 
L 918.965119 111.460739 
L 924.667148 110.894911 
L 925.617486 110.926329 
L 927.518163 111.192345 
L 931.319515 111.488605 
L 933.220192 111.284088 
L 937.021544 111.264438 
L 942.723573 111.063465 
L 945.574588 110.812783 
L 948.425602 110.458518 
L 950.326279 110.580441 
L 951.276617 110.517945 
L 952.226955 110.2757 
L 953.177293 109.789382 
L 955.07797 109.219561 
L 956.978646 108.936557 
L 958.879322 108.946776 
L 965.531689 109.393665 
L 970.28338 110.047965 
L 972.184056 110.104704 
L 974.084733 109.921918 
L 978.836424 109.209909 
L 980.7371 109.282334 
L 982.637776 109.628659 
L 987.389467 110.789549 
L 989.290143 110.928612 
L 1007.346569 111.130861 
L 1011.147921 110.816124 
L 1015.899612 110.947514 
L 1024.452655 111.480445 
L 1028.254008 111.31553 
L 1038.707728 111.179376 
L 1040.608404 111.423506 
L 1043.459419 112.132719 
L 1045.360095 112.532797 
L 1047.260771 112.695902 
L 1054.863477 112.560558 
L 1058.664829 112.668302 
L 1065.317197 113.044494 
L 1082.423284 113.304526 
L 1084.32396 113.153147 
L 1088.125313 112.590957 
L 1088.125313 112.590957 
" clip-path="url(#p098ed13de5)" style="fill: none; stroke: #0070c0; stroke-width: 1.5; stroke-linecap: square"/>
   </g>
   <g id="patch_3">
    <path d="M 55.345313 118.363143 
L 55.345313 7.2 
" style="fill: none; stroke: #000000; stroke-width: 0.8; stroke-linejoin: miter; stroke-linecap: square"/>
   </g>
   <g id="patch_4">
    <path d="M 1137.305313 118.363143 
L 1137.305313 7.2 
" style="fill: none; stroke: #000000; stroke-width: 0.8; stroke-linejoin: miter; stroke-linecap: square"/>
   </g>
   <g id="patch_5">
    <path d="M 55.345313 118.363143 
L 1137.305312 118.363143 
" style="fill: none; stroke: #000000; stroke-width: 0.8; stroke-linejoin: miter; stroke-linecap: square"/>
   </g>
   <g id="patch_6">
    <path d="M 55.345313 7.2 
L 1137.305312 7.2 
" style="fill: none; stroke: #000000; stroke-width: 0.8; stroke-linejoin: miter; stroke-linecap: square"/>
   </g>
  </g>
  <g id="axes_2">
   <g id="patch_7">
    <path d="M 55.345313 260.415429 
L 1137.305313 260.415429 
L 1137.305313 149.252286 
L 55.345313 149.252286 
z
" style="fill: #ffffff"/>
   </g>
   <g id="matplotlib.axis_3">
    <g id="xtick_7">
     <g id="line2d_11">
      <g>
       <use xlink:href="#m185db12430" x="104.525313" y="260.415429" style="stroke: #000000; stroke-width: 0.8"/>
      </g>
     </g>
     <g id="text_11">
      <!-- 0 -->
      <g transform="translate(101.344063 275.013866) scale(0.1 -0.1)">
       <use xlink:href="#DejaVuSans-30"/>
      </g>
     </g>
    </g>
    <g id="xtick_8">
     <g id="line2d_12">
      <g>
       <use xlink:href="#m185db12430" x="294.592945" y="260.415429" style="stroke: #000000; stroke-width: 0.8"/>
      </g>
     </g>
     <g id="text_12">
      <!-- 200 -->
      <g transform="translate(285.049195 275.013866) scale(0.1 -0.1)">
       <use xlink:href="#DejaVuSans-32"/>
       <use xlink:href="#DejaVuSans-30" transform="translate(63.623047 0)"/>
       <use xlink:href="#DejaVuSans-30" transform="translate(127.246094 0)"/>
      </g>
     </g>
    </g>
    <g id="xtick_9">
     <g id="line2d_13">
      <g>
       <use xlink:href="#m185db12430" x="484.660578" y="260.415429" style="stroke: #000000; stroke-width: 0.8"/>
      </g>
     </g>
     <g id="text_13">
      <!-- 400 -->
      <g transform="translate(475.116828 275.013866) scale(0.1 -0.1)">
       <use xlink:href="#DejaVuSans-34"/>
       <use xlink:href="#DejaVuSans-30" transform="translate(63.623047 0)"/>
       <use xlink:href="#DejaVuSans-30" transform="translate(127.246094 0)"/>
      </g>
     </g>
    </g>
    <g id="xtick_10">
     <g id="line2d_14">
      <g>
       <use xlink:href="#m185db12430" x="674.728211" y="260.415429" style="stroke: #000000; stroke-width: 0.8"/>
      </g>
     </g>
     <g id="text_14">
      <!-- 600 -->
      <g transform="translate(665.184461 275.013866) scale(0.1 -0.1)">
       <use xlink:href="#DejaVuSans-36"/>
       <use xlink:href="#DejaVuSans-30" transform="translate(63.623047 0)"/>
       <use xlink:href="#DejaVuSans-30" transform="translate(127.246094 0)"/>
      </g>
     </g>
    </g>
    <g id="xtick_11">
     <g id="line2d_15">
      <g>
       <use xlink:href="#m185db12430" x="864.795844" y="260.415429" style="stroke: #000000; stroke-width: 0.8"/>
      </g>
     </g>
     <g id="text_15">
      <!-- 800 -->
      <g transform="translate(855.252094 275.013866) scale(0.1 -0.1)">
       <use xlink:href="#DejaVuSans-38"/>
       <use xlink:href="#DejaVuSans-30" transform="translate(63.623047 0)"/>
       <use xlink:href="#DejaVuSans-30" transform="translate(127.246094 0)"/>
      </g>
     </g>
    </g>
    <g id="xtick_12">
     <g id="line2d_16">
      <g>
       <use xlink:href="#m185db12430" x="1054.863477" y="260.415429" style="stroke: #000000; stroke-width: 0.8"/>
      </g>
     </g>
     <g id="text_16">
      <!-- 1000 -->
      <g transform="translate(1042.138477 275.013866) scale(0.1 -0.1)">
       <use xlink:href="#DejaVuSans-31"/>
       <use xlink:href="#DejaVuSans-30" transform="translate(63.623047 0)"/>
       <use xlink:href="#DejaVuSans-30" transform="translate(127.246094 0)"/>
       <use xlink:href="#DejaVuSans-30" transform="translate(190.869141 0)"/>
      </g>
     </g>
    </g>
   </g>
   <g id="matplotlib.axis_4">
    <g id="ytick_4">
     <g id="line2d_17">
      <g>
       <use xlink:href="#m43874f7050" x="55.345313" y="236.692512" style="stroke: #000000; stroke-width: 0.8"/>
      </g>
     </g>
     <g id="text_17">
      <!-- −50 -->
      <g transform="translate(27.240625 240.491731) scale(0.1 -0.1)">
       <defs>
        <path id="DejaVuSans-2212" d="M 678 2272 
L 4684 2272 
L 4684 1741 
L 678 1741 
L 678 2272 
z
" transform="scale(0.015625)"/>
        <path id="DejaVuSans-35" d="M 691 4666 
L 3169 4666 
L 3169 4134 
L 1269 4134 
L 1269 2991 
Q 1406 3038 1543 3061 
Q 1681 3084 1819 3084 
Q 2600 3084 3056 2656 
Q 3513 2228 3513 1497 
Q 3513 744 3044 326 
Q 2575 -91 1722 -91 
Q 1428 -91 1123 -41 
Q 819 9 494 109 
L 494 744 
Q 775 591 1075 516 
Q 1375 441 1709 441 
Q 2250 441 2565 725 
Q 2881 1009 2881 1497 
Q 2881 1984 2565 2268 
Q 2250 2553 1709 2553 
Q 1456 2553 1204 2497 
Q 953 2441 691 2322 
L 691 4666 
z
" transform="scale(0.015625)"/>
       </defs>
       <use xlink:href="#DejaVuSans-2212"/>
       <use xlink:href="#DejaVuSans-35" transform="translate(83.789062 0)"/>
       <use xlink:href="#DejaVuSans-30" transform="translate(147.412109 0)"/>
      </g>
     </g>
    </g>
    <g id="ytick_5">
     <g id="line2d_18">
      <g>
       <use xlink:href="#m43874f7050" x="55.345313" y="210.825346" style="stroke: #000000; stroke-width: 0.8"/>
      </g>
     </g>
     <g id="text_18">
      <!-- 0 -->
      <g transform="translate(41.982813 214.624565) scale(0.1 -0.1)">
       <use xlink:href="#DejaVuSans-30"/>
      </g>
     </g>
    </g>
    <g id="ytick_6">
     <g id="line2d_19">
      <g>
       <use xlink:href="#m43874f7050" x="55.345313" y="184.95818" style="stroke: #000000; stroke-width: 0.8"/>
      </g>
     </g>
     <g id="text_19">
      <!-- 50 -->
      <g transform="translate(35.620313 188.757399) scale(0.1 -0.1)">
       <use xlink:href="#DejaVuSans-35"/>
       <use xlink:href="#DejaVuSans-30" transform="translate(63.623047 0)"/>
      </g>
     </g>
    </g>
    <g id="ytick_7">
     <g id="line2d_20">
      <g>
       <use xlink:href="#m43874f7050" x="55.345313" y="159.091014" style="stroke: #000000; stroke-width: 0.8"/>
      </g>
     </g>
     <g id="text_20">
      <!-- 100 -->
      <g transform="translate(29.257813 162.890233) scale(0.1 -0.1)">
       <use xlink:href="#DejaVuSans-31"/>
       <use xlink:href="#DejaVuSans-30" transform="translate(63.623047 0)"/>
       <use xlink:href="#DejaVuSans-30" transform="translate(127.246094 0)"/>
      </g>
     </g>
    </g>
    <g id="text_21">
     <!-- co-imf0 -->
     <g transform="translate(21.160938 223.740888) rotate(-90) scale(0.1 -0.1)">
      <defs>
       <path id="DejaVuSans-63" d="M 3122 3366 
L 3122 2828 
Q 2878 2963 2633 3030 
Q 2388 3097 2138 3097 
Q 1578 3097 1268 2742 
Q 959 2388 959 1747 
Q 959 1106 1268 751 
Q 1578 397 2138 397 
Q 2388 397 2633 464 
Q 2878 531 3122 666 
L 3122 134 
Q 2881 22 2623 -34 
Q 2366 -91 2075 -91 
Q 1284 -91 818 406 
Q 353 903 353 1747 
Q 353 2603 823 3093 
Q 1294 3584 2113 3584 
Q 2378 3584 2631 3529 
Q 2884 3475 3122 3366 
z
" transform="scale(0.015625)"/>
       <path id="DejaVuSans-6f" d="M 1959 3097 
Q 1497 3097 1228 2736 
Q 959 2375 959 1747 
Q 959 1119 1226 758 
Q 1494 397 1959 397 
Q 2419 397 2687 759 
Q 2956 1122 2956 1747 
Q 2956 2369 2687 2733 
Q 2419 3097 1959 3097 
z
M 1959 3584 
Q 2709 3584 3137 3096 
Q 3566 2609 3566 1747 
Q 3566 888 3137 398 
Q 2709 -91 1959 -91 
Q 1206 -91 779 398 
Q 353 888 353 1747 
Q 353 2609 779 3096 
Q 1206 3584 1959 3584 
z
" transform="scale(0.015625)"/>
       <path id="DejaVuSans-2d" d="M 313 2009 
L 1997 2009 
L 1997 1497 
L 313 1497 
L 313 2009 
z
" transform="scale(0.015625)"/>
       <path id="DejaVuSans-6d" d="M 3328 2828 
Q 3544 3216 3844 3400 
Q 4144 3584 4550 3584 
Q 5097 3584 5394 3201 
Q 5691 2819 5691 2113 
L 5691 0 
L 5113 0 
L 5113 2094 
Q 5113 2597 4934 2840 
Q 4756 3084 4391 3084 
Q 3944 3084 3684 2787 
Q 3425 2491 3425 1978 
L 3425 0 
L 2847 0 
L 2847 2094 
Q 2847 2600 2669 2842 
Q 2491 3084 2119 3084 
Q 1678 3084 1418 2786 
Q 1159 2488 1159 1978 
L 1159 0 
L 581 0 
L 581 3500 
L 1159 3500 
L 1159 2956 
Q 1356 3278 1631 3431 
Q 1906 3584 2284 3584 
Q 2666 3584 2933 3390 
Q 3200 3197 3328 2828 
z
" transform="scale(0.015625)"/>
       <path id="DejaVuSans-66" d="M 2375 4863 
L 2375 4384 
L 1825 4384 
Q 1516 4384 1395 4259 
Q 1275 4134 1275 3809 
L 1275 3500 
L 2222 3500 
L 2222 3053 
L 1275 3053 
L 1275 0 
L 697 0 
L 697 3053 
L 147 3053 
L 147 3500 
L 697 3500 
L 697 3744 
Q 697 4328 969 4595 
Q 1241 4863 1831 4863 
L 2375 4863 
z
" transform="scale(0.015625)"/>
      </defs>
      <use xlink:href="#DejaVuSans-63"/>
      <use xlink:href="#DejaVuSans-6f" transform="translate(54.980469 0)"/>
      <use xlink:href="#DejaVuSans-2d" transform="translate(118.037109 0)"/>
      <use xlink:href="#DejaVuSans-69" transform="translate(154.121094 0)"/>
      <use xlink:href="#DejaVuSans-6d" transform="translate(181.904297 0)"/>
      <use xlink:href="#DejaVuSans-66" transform="translate(279.316406 0)"/>
      <use xlink:href="#DejaVuSans-30" transform="translate(314.521484 0)"/>
     </g>
    </g>
   </g>
   <g id="line2d_21">
    <path d="M 104.525313 210.780117 
L 106.425989 211.253608 
L 107.376327 211.614173 
L 108.326665 211.736039 
L 110.227341 211.352723 
L 114.979032 209.654115 
L 115.92937 209.577476 
L 116.879709 209.699861 
L 117.830047 210.066245 
L 118.780385 210.722296 
L 119.730723 211.668024 
L 120.681061 212.944666 
L 121.631399 213.870615 
L 122.581738 214.401334 
L 123.532076 214.21887 
L 124.482414 213.07564 
L 125.432752 212.351399 
L 126.38309 211.955652 
L 127.333428 211.140176 
L 128.283767 210.1523 
L 130.184443 208.682162 
L 131.134781 208.84569 
L 132.085119 209.995617 
L 133.035457 209.771606 
L 133.985796 208.211779 
L 134.936134 206.201639 
L 135.886472 203.281303 
L 136.83681 203.246505 
L 137.787148 205.241762 
L 138.737486 206.851478 
L 139.687825 208.714428 
L 140.638163 210.905056 
L 141.588501 212.740162 
L 143.489177 217.043463 
L 145.389854 222.079335 
L 146.340192 220.483475 
L 147.29053 214.40841 
L 148.240868 210.308336 
L 149.191206 202.344393 
L 150.141544 200.138411 
L 151.091883 201.720746 
L 152.042221 201.318348 
L 152.992559 199.577889 
L 153.942897 199.627331 
L 154.893235 201.184052 
L 155.843573 203.936969 
L 156.793912 208.600748 
L 157.74425 212.66044 
L 158.694588 216.164444 
L 160.595264 224.186973 
L 161.545602 227.372188 
L 162.495941 229.656522 
L 163.446279 230.726875 
L 164.396617 230.25435 
L 165.346955 212.62388 
L 166.297293 218.084654 
L 167.247631 217.090186 
L 168.19797 219.572581 
L 169.148308 218.911904 
L 170.098646 213.648084 
L 171.048984 198.624662 
L 171.999322 195.485849 
L 172.94966 192.886411 
L 173.899998 194.760581 
L 174.850337 195.943707 
L 175.800675 195.958633 
L 176.751013 197.94955 
L 177.701351 200.69903 
L 179.602027 205.231969 
L 180.552366 205.723319 
L 181.502704 204.895777 
L 182.453042 205.671611 
L 183.40338 208.142054 
L 184.353718 209.227957 
L 185.304056 209.503598 
L 186.254395 210.35059 
L 187.204733 211.378445 
L 188.155071 210.414797 
L 189.105409 210.625386 
L 190.055747 217.123074 
L 191.006085 212.338099 
L 191.956424 213.721111 
L 192.906762 214.628704 
L 193.8571 214.432102 
L 194.807438 213.368435 
L 195.757776 211.579465 
L 196.708114 208.73291 
L 197.658453 210.81232 
L 198.608791 207.514017 
L 199.559129 208.751027 
L 200.509467 211.213094 
L 201.459805 212.559692 
L 202.410143 212.970924 
L 203.360482 213.249177 
L 204.31082 212.770419 
L 205.261158 211.917792 
L 206.211496 210.608372 
L 207.161834 209.754065 
L 208.112172 209.564704 
L 209.062511 208.741647 
L 210.012849 206.466764 
L 211.913525 202.506371 
L 212.863863 201.218435 
L 213.814201 200.965034 
L 214.76454 201.151579 
L 215.714878 202.106099 
L 216.665216 202.017484 
L 217.615554 202.302237 
L 218.565892 203.293154 
L 219.51623 205.339016 
L 220.466569 208.04626 
L 221.416907 211.731884 
L 222.367245 216.552262 
L 223.317583 222.609844 
L 224.267921 226.793414 
L 225.218259 228.899643 
L 226.168598 233.160378 
L 227.118936 239.026529 
L 228.069274 242.725954 
L 229.019612 244.735892 
L 229.96995 246.448008 
L 230.920288 240.265183 
L 231.870627 231.143073 
L 232.820965 233.754619 
L 233.771303 211.62532 
L 234.721641 173.018564 
L 235.671979 162.936581 
L 236.622317 176.134199 
L 237.572655 182.027088 
L 238.522994 180.753065 
L 239.473332 191.650728 
L 240.42367 190.275192 
L 241.374008 198.605592 
L 242.324346 209.43949 
L 243.274684 207.140195 
L 244.225023 216.701448 
L 245.175361 232.950725 
L 246.125699 246.033167 
L 247.076037 255.362558 
L 248.026375 254.955611 
L 248.976713 243.549232 
L 249.927052 246.310219 
L 250.87739 212.80106 
L 251.827728 197.710289 
L 252.778066 194.223138 
L 253.728404 185.808567 
L 254.678742 184.922742 
L 255.629081 183.384423 
L 256.579419 188.913997 
L 257.529757 199.997606 
L 258.480095 204.673021 
L 259.430433 210.714506 
L 260.380771 212.134294 
L 261.33111 208.748794 
L 262.281448 217.496112 
L 263.231786 234.65572 
L 264.182124 226.977286 
L 265.132462 229.539343 
L 266.0828 215.276581 
L 267.033139 212.11097 
L 267.983477 210.662728 
L 268.933815 215.49857 
L 269.884153 212.362591 
L 270.834491 214.089465 
L 272.735168 211.168823 
L 273.685506 192.800387 
L 274.635844 192.926898 
L 275.586182 197.143581 
L 276.53652 200.694731 
L 277.486858 200.682465 
L 278.437197 198.405747 
L 279.387535 195.82568 
L 280.337873 194.003375 
L 281.288211 194.399827 
L 282.238549 199.693862 
L 283.188887 198.198734 
L 284.139226 211.801547 
L 285.089564 220.423383 
L 286.99024 239.511662 
L 287.940578 223.427894 
L 288.890916 220.876124 
L 289.841255 221.449309 
L 290.791593 220.168018 
L 291.741931 225.457545 
L 292.692269 223.884414 
L 293.642607 216.994492 
L 294.592945 201.380102 
L 295.543284 190.76296 
L 296.493622 190.298131 
L 297.44396 188.056823 
L 298.394298 197.82223 
L 299.344636 200.689551 
L 300.294974 203.931118 
L 301.245313 205.536142 
L 302.195651 206.054759 
L 303.145989 205.132501 
L 304.096327 203.750794 
L 305.046665 203.047481 
L 305.997003 204.30609 
L 306.947341 207.794576 
L 307.89768 210.696151 
L 308.848018 213.197653 
L 309.798356 214.996706 
L 310.748694 215.254635 
L 312.64937 216.236379 
L 313.599709 215.599865 
L 314.550047 212.433199 
L 315.500385 204.188018 
L 316.450723 205.92383 
L 318.351399 211.272275 
L 319.301738 213.189767 
L 321.202414 215.422156 
L 322.152752 214.227464 
L 323.10309 208.434811 
L 324.053428 207.560637 
L 325.003767 208.725892 
L 325.954105 210.898624 
L 326.904443 212.189739 
L 327.854781 211.401186 
L 328.805119 211.329759 
L 329.755457 210.809907 
L 330.705796 211.192754 
L 331.656134 213.100988 
L 332.606472 213.201079 
L 333.55681 211.909359 
L 334.507148 209.188046 
L 335.457486 204.363505 
L 336.407825 202.528006 
L 338.308501 211.175337 
L 339.258839 215.83184 
L 340.209177 219.30936 
L 341.159515 215.899949 
L 342.109854 215.805952 
L 343.060192 216.594996 
L 344.01053 215.083664 
L 344.960868 214.460818 
L 345.911206 214.133222 
L 346.861544 214.688184 
L 347.811883 214.057304 
L 350.662897 209.126901 
L 351.613235 207.967158 
L 352.563573 207.569378 
L 353.513912 203.718972 
L 354.46425 196.293487 
L 355.414588 204.540179 
L 356.364926 208.037585 
L 357.315264 207.86969 
L 358.265602 210.604905 
L 359.215941 210.962665 
L 360.166279 211.013052 
L 361.116617 206.630259 
L 362.066955 211.015479 
L 363.017293 217.546888 
L 363.967631 228.532498 
L 364.91797 231.657915 
L 365.868308 225.407523 
L 366.818646 215.396476 
L 367.768984 213.960425 
L 368.719322 154.305156 
L 369.66966 184.934366 
L 370.619998 194.940936 
L 371.570337 206.679378 
L 372.520675 210.664879 
L 373.471013 209.723924 
L 374.421351 227.86899 
L 375.371689 229.252095 
L 376.322027 230.190234 
L 377.272366 223.863007 
L 378.222704 221.411377 
L 379.173042 231.464564 
L 380.12338 238.196691 
L 381.073718 233.091834 
L 382.024056 225.002549 
L 382.974395 220.826673 
L 383.924733 215.094429 
L 384.875071 215.937578 
L 385.825409 218.200322 
L 386.775747 215.40459 
L 387.726085 214.561053 
L 389.626762 209.025974 
L 390.5771 206.38197 
L 391.527438 202.802781 
L 392.477776 200.188375 
L 393.428114 199.107952 
L 394.378453 200.436471 
L 395.328791 200.844715 
L 396.279129 200.736214 
L 397.229467 199.798264 
L 398.179805 197.334443 
L 399.130143 197.173689 
L 400.080482 195.601179 
L 401.03082 194.995341 
L 401.981158 194.525187 
L 402.931496 195.126314 
L 403.881834 200.357906 
L 404.832172 202.038489 
L 405.782511 201.580283 
L 406.732849 201.450791 
L 407.683187 200.576326 
L 408.633525 201.223745 
L 409.583863 203.771698 
L 410.534201 207.197383 
L 411.48454 211.094981 
L 412.434878 212.163861 
L 413.385216 209.56311 
L 414.335554 207.510591 
L 415.285892 205.015582 
L 416.23623 204.315694 
L 417.186569 206.221628 
L 418.136907 209.956073 
L 420.037583 219.6657 
L 420.987921 213.733155 
L 421.938259 210.129999 
L 422.888598 207.146186 
L 423.838936 206.762823 
L 424.789274 210.099536 
L 425.739612 211.628483 
L 426.68995 211.896739 
L 427.640288 211.451432 
L 428.590627 210.052132 
L 429.540965 210.090734 
L 430.491303 211.982888 
L 431.441641 212.27387 
L 432.391979 211.506434 
L 433.342317 205.078917 
L 434.292655 205.245257 
L 435.242994 204.278724 
L 436.193332 206.501384 
L 437.14367 209.764823 
L 439.044346 219.167194 
L 439.994684 222.881338 
L 440.945023 225.037549 
L 441.895361 224.824759 
L 442.845699 224.071841 
L 443.796037 222.960413 
L 444.746375 219.595771 
L 445.696713 214.346374 
L 446.647052 211.170987 
L 447.59739 197.505208 
L 448.547728 190.691752 
L 449.498066 193.317216 
L 450.448404 198.01137 
L 451.398742 207.386458 
L 452.349081 211.033524 
L 453.299419 207.420906 
L 454.249757 210.757716 
L 455.200095 218.830962 
L 456.150433 220.92763 
L 457.100771 218.601418 
L 459.001448 217.259781 
L 459.951786 211.829716 
L 460.902124 211.905503 
L 461.852462 210.993033 
L 462.8028 207.907782 
L 463.753139 208.00955 
L 464.703477 209.824383 
L 465.653815 212.169433 
L 466.604153 215.5325 
L 467.554491 217.506244 
L 468.504829 217.721212 
L 469.455168 220.223578 
L 470.405506 219.546088 
L 471.355844 218.493453 
L 473.25652 212.067874 
L 474.206858 208.391376 
L 475.157197 206.0203 
L 476.107535 205.457046 
L 477.057873 204.621455 
L 478.008211 204.050649 
L 478.958549 202.805638 
L 479.908887 200.535245 
L 481.809564 204.749789 
L 482.759902 200.988196 
L 483.71024 211.341778 
L 484.660578 208.805161 
L 485.610916 208.801686 
L 486.561255 209.791188 
L 487.511593 211.328165 
L 488.461931 211.816754 
L 489.412269 211.115701 
L 490.362607 212.485409 
L 491.312945 215.712406 
L 492.263284 218.108786 
L 493.213622 220.184941 
L 494.16396 219.894145 
L 495.114298 216.552408 
L 496.064636 215.091859 
L 497.014974 215.078957 
L 497.965312 215.718764 
L 498.915651 218.035356 
L 499.865989 219.712853 
L 501.766665 221.992939 
L 502.717003 222.640662 
L 503.667341 222.045496 
L 504.61768 218.937078 
L 505.568018 214.780329 
L 506.518356 208.768014 
L 507.468694 205.412738 
L 508.419032 205.071414 
L 509.36937 203.548155 
L 510.319709 206.971688 
L 511.270047 207.136477 
L 513.170723 204.105711 
L 514.121061 203.700893 
L 515.071399 204.561121 
L 516.021738 206.415152 
L 516.972076 209.457965 
L 517.922414 213.662127 
L 518.872752 217.09963 
L 519.82309 218.231033 
L 520.773428 216.828933 
L 521.723767 212.871459 
L 522.674105 210.315898 
L 523.624443 209.422451 
L 524.574781 207.208627 
L 525.525119 208.767802 
L 526.475457 208.549221 
L 527.425796 208.061134 
L 528.376134 208.144922 
L 531.227148 209.020191 
L 533.127825 209.99389 
L 534.078163 210.666487 
L 536.929177 213.206075 
L 537.879515 213.725052 
L 538.829854 213.819513 
L 539.780192 213.263422 
L 541.680868 210.667744 
L 543.581544 208.540295 
L 544.531883 207.8876 
L 545.482221 207.669331 
L 546.432559 208.030665 
L 550.233912 208.943447 
L 552.134588 209.554277 
L 553.084926 209.609644 
L 554.035264 209.374931 
L 554.985602 210.76054 
L 555.935941 213.872461 
L 556.886279 216.29529 
L 557.836617 218.374963 
L 558.786955 217.797208 
L 559.737293 213.847899 
L 560.687631 211.096391 
L 561.63797 209.031963 
L 562.588308 208.465538 
L 563.538646 210.439233 
L 564.488984 211.247538 
L 566.38966 211.392113 
L 567.339998 210.82632 
L 568.290337 210.479441 
L 569.240675 210.292186 
L 571.141351 209.399774 
L 572.091689 208.503662 
L 573.042027 207.136947 
L 573.992366 206.425157 
L 574.942704 206.359972 
L 575.893042 206.561975 
L 576.84338 207.301695 
L 577.793718 209.241988 
L 578.744056 212.498474 
L 579.694395 214.384993 
L 580.644733 214.889528 
L 581.595071 214.132548 
L 582.545409 211.675343 
L 583.495747 210.555683 
L 584.446085 210.869307 
L 585.396424 210.336541 
L 586.346762 209.609966 
L 587.2971 209.526936 
L 589.197776 210.21079 
L 590.148114 210.737891 
L 591.098453 211.115781 
L 592.999129 211.299766 
L 593.949467 211.119296 
L 594.899805 210.771898 
L 595.850143 210.229467 
L 596.800482 210.00667 
L 597.75082 210.150083 
L 598.701158 210.42917 
L 599.651496 210.989959 
L 600.601834 211.7589 
L 601.552172 212.74913 
L 602.502511 212.538306 
L 603.452849 210.973586 
L 604.403187 210.080474 
L 605.353525 209.581591 
L 606.303863 209.442308 
L 607.254201 210.062463 
L 608.20454 210.447178 
L 609.154878 210.699608 
L 610.105216 210.407028 
L 611.055554 209.324883 
L 612.005892 208.848027 
L 612.95623 208.869437 
L 614.856907 208.527717 
L 617.707921 208.28593 
L 618.658259 207.930565 
L 619.608598 209.165275 
L 622.459612 217.874603 
L 623.40995 219.087061 
L 626.260965 215.732134 
L 627.211303 213.697755 
L 630.062317 206.19895 
L 631.012655 204.613405 
L 631.962994 204.240613 
L 632.913332 204.393739 
L 634.814008 206.366036 
L 636.714684 207.866211 
L 637.665023 208.256525 
L 639.565699 209.34224 
L 640.516037 209.597187 
L 641.466375 209.574145 
L 642.416713 208.693348 
L 643.367052 206.809976 
L 644.31739 206.336667 
L 645.267728 207.277873 
L 646.218066 207.880163 
L 648.118742 209.30869 
L 649.069081 209.662028 
L 650.019419 209.767993 
L 650.969757 209.455681 
L 651.920095 209.437837 
L 653.820771 209.988347 
L 655.721448 210.828551 
L 658.572462 211.478272 
L 659.5228 211.538908 
L 660.473139 211.487164 
L 661.423477 211.597811 
L 663.324153 212.091098 
L 664.274491 212.27964 
L 665.224829 212.096558 
L 667.125506 210.821202 
L 668.075844 210.060823 
L 669.026182 209.655988 
L 669.97652 209.717449 
L 670.926858 209.986158 
L 671.877197 210.625879 
L 672.827535 211.056445 
L 674.728211 211.412965 
L 675.678549 211.412042 
L 676.628887 211.224707 
L 677.579226 210.824339 
L 678.529564 210.63137 
L 682.330916 210.863273 
L 684.231593 211.272501 
L 685.181931 211.410996 
L 686.132269 211.436955 
L 688.032945 211.135237 
L 691.834298 210.198 
L 692.784636 210.079556 
L 693.734974 210.086366 
L 694.685313 210.252427 
L 695.635651 210.162384 
L 696.585989 209.807513 
L 697.536327 210.007492 
L 699.437003 211.344368 
L 700.387341 212.006057 
L 701.33768 212.170862 
L 703.238356 211.304187 
L 705.139032 210.436531 
L 706.08937 210.158086 
L 707.039709 210.028641 
L 708.940385 210.30916 
L 710.841061 210.840273 
L 713.692076 211.327043 
L 715.592752 211.33494 
L 717.493428 211.074541 
L 722.245119 210.35231 
L 724.145796 210.323507 
L 726.046472 210.454908 
L 728.897486 210.267473 
L 729.847825 210.618612 
L 730.798163 211.449616 
L 731.748501 211.937925 
L 732.698839 212.154468 
L 733.649177 211.80731 
L 734.599515 210.678324 
L 735.549854 210.194632 
L 736.500192 210.300031 
L 738.400868 209.950011 
L 739.351206 209.965915 
L 741.251883 210.296864 
L 744.102897 211.12568 
L 745.053235 211.197821 
L 746.003573 211.014258 
L 746.953912 211.207924 
L 747.90425 211.758102 
L 749.804926 212.418083 
L 750.755264 212.677706 
L 751.705602 212.817912 
L 752.655941 208.695757 
L 753.606279 208.957408 
L 754.556617 208.075305 
L 757.407631 211.617876 
L 758.35797 212.539246 
L 759.308308 212.752768 
L 760.258646 212.507156 
L 761.208984 211.479777 
L 762.159322 210.825202 
L 765.010337 209.921707 
L 765.960675 209.910637 
L 766.911013 210.13724 
L 767.861351 210.242115 
L 771.662704 210.248411 
L 772.613042 210.47015 
L 773.56338 210.911228 
L 774.513718 211.63802 
L 775.464056 212.186213 
L 776.414395 212.566814 
L 777.364733 212.338773 
L 778.315071 211.335673 
L 779.265409 210.868716 
L 780.215747 210.854642 
L 782.116424 210.125856 
L 783.066762 209.628361 
L 784.0171 208.949848 
L 784.967438 208.756247 
L 785.917776 209.072703 
L 786.868114 209.519098 
L 789.719129 211.690141 
L 790.669467 212.296141 
L 791.619805 212.706958 
L 792.570143 212.870316 
L 794.47082 212.481433 
L 797.321834 211.61607 
L 801.123187 210.377213 
L 803.023863 209.722134 
L 803.974201 209.59101 
L 806.825216 209.966375 
L 815.378259 211.099333 
L 817.278936 211.021308 
L 819.179612 210.835869 
L 822.030627 210.888818 
L 824.881641 210.920869 
L 827.732655 210.677864 
L 829.633332 210.724851 
L 833.434684 210.923864 
L 839.136713 210.872545 
L 841.987728 210.932099 
L 842.938066 211.054696 
L 843.888404 211.058988 
L 845.789081 210.748477 
L 849.590433 209.325639 
L 850.540771 208.869977 
L 851.49111 209.448064 
L 852.441448 211.16609 
L 854.342124 213.921851 
L 855.292462 214.270899 
L 857.193139 212.204237 
L 858.143477 210.772622 
L 859.093815 210.088214 
L 860.044153 210.432817 
L 860.994491 210.60017 
L 861.944829 210.926375 
L 862.895168 211.024231 
L 865.746182 210.184522 
L 866.69652 209.971932 
L 868.597197 209.751388 
L 870.497873 209.399197 
L 872.398549 209.215187 
L 874.299226 209.202183 
L 880.951593 209.471436 
L 884.752945 209.379439 
L 886.653622 209.317916 
L 888.554298 209.5458 
L 890.454974 210.115974 
L 893.305989 211.014985 
L 895.206665 211.189885 
L 899.958356 211.30582 
L 903.759709 211.726879 
L 905.660385 211.630443 
L 912.312752 210.954425 
L 915.163767 211.122759 
L 917.064443 211.231243 
L 918.965119 211.102113 
L 921.816134 210.640528 
L 924.667148 210.019933 
L 925.617486 210.100691 
L 926.567825 210.501221 
L 930.369177 211.469261 
L 931.319515 211.389319 
L 932.269854 210.941301 
L 933.220192 210.765365 
L 935.120868 210.775067 
L 946.524926 210.637502 
L 947.475264 210.46295 
L 948.425602 210.695454 
L 949.375941 211.369401 
L 950.326279 211.767113 
L 951.276617 211.966743 
L 952.226955 211.665591 
L 953.177293 210.677178 
L 954.127631 210.068017 
L 956.028308 209.502978 
L 956.978646 209.517083 
L 957.928984 209.64677 
L 961.730337 210.733515 
L 963.631013 210.986759 
L 965.531689 211.4562 
L 969.333042 212.719433 
L 970.28338 212.895459 
L 971.233718 212.95523 
L 972.184056 212.863369 
L 973.134395 212.605699 
L 975.035071 211.591553 
L 976.935747 210.314511 
L 978.836424 209.474135 
L 979.786762 209.290391 
L 980.7371 209.265771 
L 981.687438 209.438774 
L 982.637776 209.735804 
L 986.439129 211.369948 
L 987.389467 211.566527 
L 988.339805 211.599087 
L 992.141158 210.816172 
L 1000.694201 210.692435 
L 1002.594878 210.772337 
L 1007.346569 211.107333 
L 1011.147921 210.427612 
L 1016.84995 210.652209 
L 1019.700965 211.053752 
L 1022.551979 211.345134 
L 1024.452655 211.157246 
L 1026.353332 210.869724 
L 1029.204346 210.825485 
L 1033.956037 210.961809 
L 1035.856713 210.643667 
L 1038.707728 210.031586 
L 1039.658066 210.004374 
L 1041.558742 210.409726 
L 1043.459419 211.158216 
L 1045.360095 211.646479 
L 1046.310433 211.679416 
L 1047.260771 211.577371 
L 1050.111786 210.834715 
L 1052.012462 210.501358 
L 1053.913139 210.353401 
L 1056.764153 210.301598 
L 1059.615168 210.569667 
L 1062.466182 210.914793 
L 1066.267535 211.038498 
L 1071.019226 210.627774 
L 1072.919902 210.687149 
L 1076.721255 210.822453 
L 1079.572269 210.943277 
L 1081.472945 211.236628 
L 1083.373622 211.307346 
L 1085.274298 210.971222 
L 1088.125313 210.18582 
L 1088.125313 210.18582 
" clip-path="url(#p76b7a02229)" style="fill: none; stroke: #f27f19; stroke-width: 1.5; stroke-linecap: square"/>
   </g>
   <g id="patch_8">
    <path d="M 55.345313 260.415429 
L 55.345313 149.252286 
" style="fill: none; stroke: #000000; stroke-width: 0.8; stroke-linejoin: miter; stroke-linecap: square"/>
   </g>
   <g id="patch_9">
    <path d="M 1137.305313 260.415429 
L 1137.305313 149.252286 
" style="fill: none; stroke: #000000; stroke-width: 0.8; stroke-linejoin: miter; stroke-linecap: square"/>
   </g>
   <g id="patch_10">
    <path d="M 55.345313 260.415429 
L 1137.305312 260.415429 
" style="fill: none; stroke: #000000; stroke-width: 0.8; stroke-linejoin: miter; stroke-linecap: square"/>
   </g>
   <g id="patch_11">
    <path d="M 55.345313 149.252286 
L 1137.305312 149.252286 
" style="fill: none; stroke: #000000; stroke-width: 0.8; stroke-linejoin: miter; stroke-linecap: square"/>
   </g>
  </g>
  <g id="axes_3">
   <g id="patch_12">
    <path d="M 55.345313 402.467714 
L 1137.305313 402.467714 
L 1137.305313 291.304571 
L 55.345313 291.304571 
z
" style="fill: #ffffff"/>
   </g>
   <g id="matplotlib.axis_5">
    <g id="xtick_13">
     <g id="line2d_22">
      <g>
       <use xlink:href="#m185db12430" x="104.525313" y="402.467714" style="stroke: #000000; stroke-width: 0.8"/>
      </g>
     </g>
     <g id="text_22">
      <!-- 0 -->
      <g transform="translate(101.344063 417.066152) scale(0.1 -0.1)">
       <use xlink:href="#DejaVuSans-30"/>
      </g>
     </g>
    </g>
    <g id="xtick_14">
     <g id="line2d_23">
      <g>
       <use xlink:href="#m185db12430" x="294.592945" y="402.467714" style="stroke: #000000; stroke-width: 0.8"/>
      </g>
     </g>
     <g id="text_23">
      <!-- 200 -->
      <g transform="translate(285.049195 417.066152) scale(0.1 -0.1)">
       <use xlink:href="#DejaVuSans-32"/>
       <use xlink:href="#DejaVuSans-30" transform="translate(63.623047 0)"/>
       <use xlink:href="#DejaVuSans-30" transform="translate(127.246094 0)"/>
      </g>
     </g>
    </g>
    <g id="xtick_15">
     <g id="line2d_24">
      <g>
       <use xlink:href="#m185db12430" x="484.660578" y="402.467714" style="stroke: #000000; stroke-width: 0.8"/>
      </g>
     </g>
     <g id="text_24">
      <!-- 400 -->
      <g transform="translate(475.116828 417.066152) scale(0.1 -0.1)">
       <use xlink:href="#DejaVuSans-34"/>
       <use xlink:href="#DejaVuSans-30" transform="translate(63.623047 0)"/>
       <use xlink:href="#DejaVuSans-30" transform="translate(127.246094 0)"/>
      </g>
     </g>
    </g>
    <g id="xtick_16">
     <g id="line2d_25">
      <g>
       <use xlink:href="#m185db12430" x="674.728211" y="402.467714" style="stroke: #000000; stroke-width: 0.8"/>
      </g>
     </g>
     <g id="text_25">
      <!-- 600 -->
      <g transform="translate(665.184461 417.066152) scale(0.1 -0.1)">
       <use xlink:href="#DejaVuSans-36"/>
       <use xlink:href="#DejaVuSans-30" transform="translate(63.623047 0)"/>
       <use xlink:href="#DejaVuSans-30" transform="translate(127.246094 0)"/>
      </g>
     </g>
    </g>
    <g id="xtick_17">
     <g id="line2d_26">
      <g>
       <use xlink:href="#m185db12430" x="864.795844" y="402.467714" style="stroke: #000000; stroke-width: 0.8"/>
      </g>
     </g>
     <g id="text_26">
      <!-- 800 -->
      <g transform="translate(855.252094 417.066152) scale(0.1 -0.1)">
       <use xlink:href="#DejaVuSans-38"/>
       <use xlink:href="#DejaVuSans-30" transform="translate(63.623047 0)"/>
       <use xlink:href="#DejaVuSans-30" transform="translate(127.246094 0)"/>
      </g>
     </g>
    </g>
    <g id="xtick_18">
     <g id="line2d_27">
      <g>
       <use xlink:href="#m185db12430" x="1054.863477" y="402.467714" style="stroke: #000000; stroke-width: 0.8"/>
      </g>
     </g>
     <g id="text_27">
      <!-- 1000 -->
      <g transform="translate(1042.138477 417.066152) scale(0.1 -0.1)">
       <use xlink:href="#DejaVuSans-31"/>
       <use xlink:href="#DejaVuSans-30" transform="translate(63.623047 0)"/>
       <use xlink:href="#DejaVuSans-30" transform="translate(127.246094 0)"/>
       <use xlink:href="#DejaVuSans-30" transform="translate(190.869141 0)"/>
      </g>
     </g>
    </g>
   </g>
   <g id="matplotlib.axis_6">
    <g id="ytick_8">
     <g id="line2d_28">
      <g>
       <use xlink:href="#m43874f7050" x="55.345313" y="395.214076" style="stroke: #000000; stroke-width: 0.8"/>
      </g>
     </g>
     <g id="text_28">
      <!-- −100 -->
      <g transform="translate(20.878125 399.013294) scale(0.1 -0.1)">
       <use xlink:href="#DejaVuSans-2212"/>
       <use xlink:href="#DejaVuSans-31" transform="translate(83.789062 0)"/>
       <use xlink:href="#DejaVuSans-30" transform="translate(147.412109 0)"/>
       <use xlink:href="#DejaVuSans-30" transform="translate(211.035156 0)"/>
      </g>
     </g>
    </g>
    <g id="ytick_9">
     <g id="line2d_29">
      <g>
       <use xlink:href="#m43874f7050" x="55.345313" y="354.218905" style="stroke: #000000; stroke-width: 0.8"/>
      </g>
     </g>
     <g id="text_29">
      <!-- 0 -->
      <g transform="translate(41.982813 358.018123) scale(0.1 -0.1)">
       <use xlink:href="#DejaVuSans-30"/>
      </g>
     </g>
    </g>
    <g id="ytick_10">
     <g id="line2d_30">
      <g>
       <use xlink:href="#m43874f7050" x="55.345313" y="313.223734" style="stroke: #000000; stroke-width: 0.8"/>
      </g>
     </g>
     <g id="text_30">
      <!-- 100 -->
      <g transform="translate(29.257813 317.022952) scale(0.1 -0.1)">
       <use xlink:href="#DejaVuSans-31"/>
       <use xlink:href="#DejaVuSans-30" transform="translate(63.623047 0)"/>
       <use xlink:href="#DejaVuSans-30" transform="translate(127.246094 0)"/>
      </g>
     </g>
    </g>
    <g id="text_31">
     <!-- co-imf1 -->
     <g transform="translate(14.798438 365.793174) rotate(-90) scale(0.1 -0.1)">
      <use xlink:href="#DejaVuSans-63"/>
      <use xlink:href="#DejaVuSans-6f" transform="translate(54.980469 0)"/>
      <use xlink:href="#DejaVuSans-2d" transform="translate(118.037109 0)"/>
      <use xlink:href="#DejaVuSans-69" transform="translate(154.121094 0)"/>
      <use xlink:href="#DejaVuSans-6d" transform="translate(181.904297 0)"/>
      <use xlink:href="#DejaVuSans-66" transform="translate(279.316406 0)"/>
      <use xlink:href="#DejaVuSans-31" transform="translate(314.521484 0)"/>
     </g>
    </g>
   </g>
   <g id="line2d_31">
    <path d="M 104.525313 353.702976 
L 106.425989 353.310742 
L 108.326665 353.150187 
L 110.227341 353.258278 
L 112.128018 353.634888 
L 114.028694 354.265743 
L 115.92937 355.128613 
L 118.780385 356.757828 
L 122.581738 359.303582 
L 127.333428 362.546852 
L 130.184443 364.185849 
L 132.085119 365.008616 
L 133.985796 365.526626 
L 135.886472 365.662529 
L 136.83681 365.562308 
L 137.787148 365.336754 
L 138.737486 364.979468 
L 139.687825 364.480871 
L 140.638163 363.844098 
L 141.588501 363.062168 
L 143.489177 361.059173 
L 145.389854 358.509054 
L 147.29053 355.518791 
L 150.141544 350.4619 
L 156.793912 338.119689 
L 158.694588 335.068429 
L 160.595264 332.487673 
L 162.495941 330.45266 
L 163.446279 329.647537 
L 164.396617 328.988768 
L 165.346955 328.477623 
L 166.297293 328.117176 
L 167.247631 327.9107 
L 168.19797 327.860896 
L 169.148308 327.970652 
L 170.098646 328.242866 
L 171.048984 328.680418 
L 171.999322 329.28575 
L 172.94966 330.063053 
L 173.899998 331.013099 
L 174.850337 332.140672 
L 176.751013 334.902707 
L 178.651689 338.21793 
L 181.502704 343.858635 
L 187.204733 355.488926 
L 189.105409 358.848611 
L 191.006085 361.667599 
L 191.956424 362.827276 
L 193.8571 364.65663 
L 195.757776 366.057579 
L 198.608791 367.971856 
L 200.509467 369.554544 
L 201.459805 370.54564 
L 202.410143 371.713997 
L 203.360482 373.080397 
L 204.31082 374.68087 
L 206.211496 378.603614 
L 209.062511 385.599845 
L 210.963187 390.162774 
L 211.913525 392.182167 
L 212.863863 393.930203 
L 213.814201 395.341954 
L 214.76454 396.403047 
L 215.714878 397.09466 
L 216.665216 397.414844 
L 217.615554 397.346729 
L 218.565892 396.884246 
L 219.51623 396.016895 
L 220.466569 394.732834 
L 221.416907 393.023748 
L 222.367245 390.880845 
L 223.317583 388.294848 
L 224.267921 385.291789 
L 226.168598 378.114367 
L 228.069274 369.550411 
L 230.920288 354.906092 
L 234.721641 334.724413 
L 236.622317 325.526508 
L 238.522994 317.606017 
L 240.42367 311.182464 
L 242.324346 306.136364 
L 243.274684 304.084596 
L 244.225023 302.322935 
L 245.175361 300.833531 
L 246.125699 299.598195 
L 247.076037 298.591768 
L 248.026375 297.791488 
L 248.976713 297.180118 
L 249.927052 296.742605 
L 250.87739 296.473459 
L 251.827728 296.357442 
L 252.778066 296.385581 
L 253.728404 296.546028 
L 255.629081 297.218034 
L 257.529757 298.318851 
L 258.480095 299.058308 
L 259.430433 299.942872 
L 260.380771 300.996695 
L 261.33111 302.235408 
L 262.281448 303.679255 
L 263.231786 305.346502 
L 265.132462 309.38572 
L 267.033139 314.21232 
L 269.884153 322.288597 
L 279.387535 350.152398 
L 281.288211 354.943958 
L 283.188887 359.158991 
L 285.089564 362.660403 
L 286.039902 364.100646 
L 286.99024 365.31045 
L 287.940578 366.272603 
L 288.890916 366.972716 
L 289.841255 367.396495 
L 290.791593 367.57965 
L 291.741931 367.550952 
L 292.692269 367.355329 
L 294.592945 366.594605 
L 299.344636 364.242919 
L 301.245313 363.60477 
L 303.145989 363.198885 
L 305.046665 363.035678 
L 306.947341 363.131202 
L 308.848018 363.498994 
L 310.748694 364.15382 
L 312.64937 365.103532 
L 316.450723 367.302325 
L 318.351399 368.077419 
L 319.301738 368.309455 
L 320.252076 368.411733 
L 321.202414 368.377103 
L 322.152752 368.185745 
L 323.10309 367.849006 
L 324.053428 367.365448 
L 325.954105 365.99842 
L 329.755457 362.687756 
L 330.705796 362.093057 
L 331.656134 361.699591 
L 332.606472 361.53825 
L 333.55681 361.655371 
L 334.507148 362.081309 
L 335.457486 362.853218 
L 336.407825 363.953557 
L 337.358163 365.348787 
L 339.258839 368.805673 
L 342.109854 374.906166 
L 344.960868 380.902247 
L 346.861544 384.201346 
L 347.811883 385.507025 
L 348.762221 386.523808 
L 349.712559 387.212032 
L 350.662897 387.538167 
L 351.613235 387.48835 
L 352.563573 387.032162 
L 353.513912 386.149842 
L 354.46425 384.821712 
L 355.414588 383.022814 
L 356.364926 380.734153 
L 357.315264 377.960224 
L 358.265602 374.713937 
L 360.166279 367.10397 
L 363.017293 354.083465 
L 365.868308 340.967772 
L 367.768984 333.107426 
L 369.66966 326.599354 
L 370.619998 324.021635 
L 371.570337 321.972264 
L 372.520675 320.420191 
L 373.471013 319.331638 
L 374.421351 318.65573 
L 375.371689 318.358549 
L 376.322027 318.394918 
L 377.272366 318.720231 
L 378.222704 319.297094 
L 379.173042 320.081049 
L 381.073718 322.15284 
L 383.924733 325.960271 
L 409.583863 361.208815 
L 411.48454 363.342188 
L 413.385216 365.175864 
L 415.285892 366.649703 
L 417.186569 367.703641 
L 418.136907 368.054311 
L 419.087245 368.276911 
L 420.037583 368.365974 
L 420.987921 368.31322 
L 421.938259 368.136086 
L 423.838936 367.452725 
L 425.739612 366.442143 
L 428.590627 364.829394 
L 430.491303 364.13377 
L 432.391979 363.814623 
L 434.292655 363.832623 
L 436.193332 364.11 
L 439.044346 364.615926 
L 440.945023 364.724772 
L 441.895361 364.637185 
L 442.845699 364.428429 
L 444.746375 363.650034 
L 446.647052 362.440564 
L 448.547728 360.857837 
L 450.448404 358.95693 
L 452.349081 356.79362 
L 455.200095 353.175924 
L 460.902124 345.315272 
L 463.753139 341.560585 
L 465.653815 339.295491 
L 467.554491 337.308097 
L 469.455168 335.658951 
L 471.355844 334.366483 
L 473.25652 333.422616 
L 475.157197 332.81948 
L 477.057873 332.549708 
L 478.958549 332.606159 
L 480.859226 332.974445 
L 482.759902 333.621085 
L 484.660578 334.503979 
L 486.561255 335.583223 
L 489.412269 337.483685 
L 493.213622 340.335761 
L 498.915651 344.667609 
L 501.766665 346.58381 
L 507.468694 350.0078 
L 512.220385 352.911188 
L 520.773428 358.327689 
L 522.674105 359.328274 
L 524.574781 360.126843 
L 526.475457 360.660887 
L 528.376134 360.879571 
L 530.27681 360.805537 
L 532.177486 360.505116 
L 535.028501 359.762413 
L 542.631206 357.462292 
L 544.531883 357.197664 
L 546.432559 357.223924 
L 548.333235 357.590793 
L 550.233912 358.305356 
L 552.134588 359.28325 
L 557.836617 362.508857 
L 559.737293 363.272192 
L 561.63797 363.813891 
L 564.488984 364.33728 
L 567.339998 364.794782 
L 569.240675 365.305194 
L 571.141351 366.087231 
L 573.042027 367.115333 
L 579.694395 371.099146 
L 581.595071 371.715621 
L 583.495747 371.885181 
L 585.396424 371.65204 
L 587.2971 371.081719 
L 589.197776 370.248469 
L 595.850143 366.96871 
L 598.701158 365.854247 
L 601.552172 365.028751 
L 603.452849 364.68871 
L 605.353525 364.529105 
L 607.254201 364.542365 
L 609.154878 364.717854 
L 612.005892 365.26028 
L 614.856907 366.065789 
L 621.509274 368.081852 
L 623.40995 368.472767 
L 625.310627 368.699108 
L 627.211303 368.754319 
L 630.062317 368.566601 
L 632.913332 368.12951 
L 636.714684 367.303837 
L 645.267728 365.336135 
L 651.920095 364.069123 
L 658.572462 363.04306 
L 664.274491 362.370602 
L 669.026182 362.008334 
L 679.479902 361.371983 
L 682.330916 360.871427 
L 686.132269 359.89664 
L 690.88396 358.651945 
L 692.784636 358.323722 
L 694.685313 358.178648 
L 696.585989 358.252446 
L 698.486665 358.516795 
L 701.33768 359.141638 
L 707.039709 360.471896 
L 709.890723 360.823181 
L 712.741738 360.890061 
L 715.592752 360.669442 
L 718.443767 360.178782 
L 721.294781 359.473919 
L 726.046472 358.005946 
L 734.599515 355.227122 
L 737.45053 354.522826 
L 740.301544 354.002567 
L 744.102897 353.560668 
L 749.804926 353.193109 
L 755.506955 353.056793 
L 765.960675 353.027094 
L 769.762027 352.74169 
L 775.464056 352.220613 
L 778.315071 352.259996 
L 780.215747 352.471568 
L 783.066762 353.058962 
L 785.917776 353.930334 
L 791.619805 355.853221 
L 793.520482 356.308305 
L 795.421158 356.59153 
L 797.321834 356.706773 
L 800.172849 356.621011 
L 803.974201 356.191213 
L 813.477583 354.906983 
L 822.030627 353.86195 
L 829.633332 352.713963 
L 835.335361 351.982541 
L 843.888404 350.620729 
L 845.789081 350.718172 
L 847.689757 351.156384 
L 849.590433 351.909269 
L 852.441448 353.439339 
L 856.2428 355.583839 
L 858.143477 356.450446 
L 860.044153 357.133366 
L 861.944829 357.63565 
L 863.845506 357.962349 
L 865.746182 358.124479 
L 868.597197 358.097191 
L 871.448211 357.825316 
L 881.901931 356.461807 
L 884.752945 356.432229 
L 887.60396 356.611883 
L 898.05768 357.622126 
L 900.908694 357.556887 
L 903.759709 357.278451 
L 907.561061 356.646592 
L 920.865796 354.059289 
L 923.71681 353.818185 
L 927.518163 353.784279 
L 935.120868 353.867622 
L 938.922221 353.665136 
L 942.723573 353.274652 
L 945.574588 352.772488 
L 948.425602 352.025753 
L 956.028308 349.814435 
L 958.879322 349.31824 
L 961.730337 349.094268 
L 964.581351 349.082791 
L 968.382704 349.28474 
L 975.985409 349.964133 
L 979.786762 350.504611 
L 983.588114 351.29343 
L 991.19082 353.009737 
L 994.041834 353.409235 
L 996.892849 353.585636 
L 1000.694201 353.602972 
L 1006.39623 353.360281 
L 1012.098259 353.114687 
L 1014.949274 353.197432 
L 1025.402994 353.855213 
L 1029.204346 353.652753 
L 1033.005699 353.418817 
L 1035.856713 353.493756 
L 1038.707728 353.873494 
L 1041.558742 354.513191 
L 1046.310433 355.669905 
L 1049.161448 356.126428 
L 1052.012462 356.358634 
L 1059.615168 356.576548 
L 1068.168211 356.991933 
L 1075.770916 357.381977 
L 1079.572269 357.384054 
L 1083.373622 357.129592 
L 1088.125313 356.606648 
L 1088.125313 356.606648 
" clip-path="url(#p67ec72d071)" style="fill: none; stroke: #f27f19; stroke-width: 1.5; stroke-linecap: square"/>
   </g>
   <g id="patch_13">
    <path d="M 55.345313 402.467714 
L 55.345313 291.304571 
" style="fill: none; stroke: #000000; stroke-width: 0.8; stroke-linejoin: miter; stroke-linecap: square"/>
   </g>
   <g id="patch_14">
    <path d="M 1137.305313 402.467714 
L 1137.305313 291.304571 
" style="fill: none; stroke: #000000; stroke-width: 0.8; stroke-linejoin: miter; stroke-linecap: square"/>
   </g>
   <g id="patch_15">
    <path d="M 55.345313 402.467714 
L 1137.305312 402.467714 
" style="fill: none; stroke: #000000; stroke-width: 0.8; stroke-linejoin: miter; stroke-linecap: square"/>
   </g>
   <g id="patch_16">
    <path d="M 55.345313 291.304571 
L 1137.305312 291.304571 
" style="fill: none; stroke: #000000; stroke-width: 0.8; stroke-linejoin: miter; stroke-linecap: square"/>
   </g>
  </g>
  <g id="axes_4">
   <g id="patch_17">
    <path d="M 55.345313 544.52 
L 1137.305313 544.52 
L 1137.305313 433.356857 
L 55.345313 433.356857 
z
" style="fill: #ffffff"/>
   </g>
   <g id="matplotlib.axis_7">
    <g id="xtick_19">
     <g id="line2d_32">
      <g>
       <use xlink:href="#m185db12430" x="104.525313" y="544.52" style="stroke: #000000; stroke-width: 0.8"/>
      </g>
     </g>
     <g id="text_32">
      <!-- 0 -->
      <g transform="translate(101.344063 559.118437) scale(0.1 -0.1)">
       <use xlink:href="#DejaVuSans-30"/>
      </g>
     </g>
    </g>
    <g id="xtick_20">
     <g id="line2d_33">
      <g>
       <use xlink:href="#m185db12430" x="294.592945" y="544.52" style="stroke: #000000; stroke-width: 0.8"/>
      </g>
     </g>
     <g id="text_33">
      <!-- 200 -->
      <g transform="translate(285.049195 559.118437) scale(0.1 -0.1)">
       <use xlink:href="#DejaVuSans-32"/>
       <use xlink:href="#DejaVuSans-30" transform="translate(63.623047 0)"/>
       <use xlink:href="#DejaVuSans-30" transform="translate(127.246094 0)"/>
      </g>
     </g>
    </g>
    <g id="xtick_21">
     <g id="line2d_34">
      <g>
       <use xlink:href="#m185db12430" x="484.660578" y="544.52" style="stroke: #000000; stroke-width: 0.8"/>
      </g>
     </g>
     <g id="text_34">
      <!-- 400 -->
      <g transform="translate(475.116828 559.118437) scale(0.1 -0.1)">
       <use xlink:href="#DejaVuSans-34"/>
       <use xlink:href="#DejaVuSans-30" transform="translate(63.623047 0)"/>
       <use xlink:href="#DejaVuSans-30" transform="translate(127.246094 0)"/>
      </g>
     </g>
    </g>
    <g id="xtick_22">
     <g id="line2d_35">
      <g>
       <use xlink:href="#m185db12430" x="674.728211" y="544.52" style="stroke: #000000; stroke-width: 0.8"/>
      </g>
     </g>
     <g id="text_35">
      <!-- 600 -->
      <g transform="translate(665.184461 559.118437) scale(0.1 -0.1)">
       <use xlink:href="#DejaVuSans-36"/>
       <use xlink:href="#DejaVuSans-30" transform="translate(63.623047 0)"/>
       <use xlink:href="#DejaVuSans-30" transform="translate(127.246094 0)"/>
      </g>
     </g>
    </g>
    <g id="xtick_23">
     <g id="line2d_36">
      <g>
       <use xlink:href="#m185db12430" x="864.795844" y="544.52" style="stroke: #000000; stroke-width: 0.8"/>
      </g>
     </g>
     <g id="text_36">
      <!-- 800 -->
      <g transform="translate(855.252094 559.118437) scale(0.1 -0.1)">
       <use xlink:href="#DejaVuSans-38"/>
       <use xlink:href="#DejaVuSans-30" transform="translate(63.623047 0)"/>
       <use xlink:href="#DejaVuSans-30" transform="translate(127.246094 0)"/>
      </g>
     </g>
    </g>
    <g id="xtick_24">
     <g id="line2d_37">
      <g>
       <use xlink:href="#m185db12430" x="1054.863477" y="544.52" style="stroke: #000000; stroke-width: 0.8"/>
      </g>
     </g>
     <g id="text_37">
      <!-- 1000 -->
      <g transform="translate(1042.138477 559.118437) scale(0.1 -0.1)">
       <use xlink:href="#DejaVuSans-31"/>
       <use xlink:href="#DejaVuSans-30" transform="translate(63.623047 0)"/>
       <use xlink:href="#DejaVuSans-30" transform="translate(127.246094 0)"/>
       <use xlink:href="#DejaVuSans-30" transform="translate(190.869141 0)"/>
      </g>
     </g>
    </g>
   </g>
   <g id="matplotlib.axis_8">
    <g id="ytick_11">
     <g id="line2d_38">
      <g>
       <use xlink:href="#m43874f7050" x="55.345313" y="518.34372" style="stroke: #000000; stroke-width: 0.8"/>
      </g>
     </g>
     <g id="text_38">
      <!-- 100 -->
      <g transform="translate(29.257813 522.142939) scale(0.1 -0.1)">
       <use xlink:href="#DejaVuSans-31"/>
       <use xlink:href="#DejaVuSans-30" transform="translate(63.623047 0)"/>
       <use xlink:href="#DejaVuSans-30" transform="translate(127.246094 0)"/>
      </g>
     </g>
    </g>
    <g id="ytick_12">
     <g id="line2d_39">
      <g>
       <use xlink:href="#m43874f7050" x="55.345313" y="490.380192" style="stroke: #000000; stroke-width: 0.8"/>
      </g>
     </g>
     <g id="text_39">
      <!-- 200 -->
      <g transform="translate(29.257813 494.179411) scale(0.1 -0.1)">
       <use xlink:href="#DejaVuSans-32"/>
       <use xlink:href="#DejaVuSans-30" transform="translate(63.623047 0)"/>
       <use xlink:href="#DejaVuSans-30" transform="translate(127.246094 0)"/>
      </g>
     </g>
    </g>
    <g id="ytick_13">
     <g id="line2d_40">
      <g>
       <use xlink:href="#m43874f7050" x="55.345313" y="462.416664" style="stroke: #000000; stroke-width: 0.8"/>
      </g>
     </g>
     <g id="text_40">
      <!-- 300 -->
      <g transform="translate(29.257813 466.215882) scale(0.1 -0.1)">
       <defs>
        <path id="DejaVuSans-33" d="M 2597 2516 
Q 3050 2419 3304 2112 
Q 3559 1806 3559 1356 
Q 3559 666 3084 287 
Q 2609 -91 1734 -91 
Q 1441 -91 1130 -33 
Q 819 25 488 141 
L 488 750 
Q 750 597 1062 519 
Q 1375 441 1716 441 
Q 2309 441 2620 675 
Q 2931 909 2931 1356 
Q 2931 1769 2642 2001 
Q 2353 2234 1838 2234 
L 1294 2234 
L 1294 2753 
L 1863 2753 
Q 2328 2753 2575 2939 
Q 2822 3125 2822 3475 
Q 2822 3834 2567 4026 
Q 2313 4219 1838 4219 
Q 1578 4219 1281 4162 
Q 984 4106 628 3988 
L 628 4550 
Q 988 4650 1302 4700 
Q 1616 4750 1894 4750 
Q 2613 4750 3031 4423 
Q 3450 4097 3450 3541 
Q 3450 3153 3228 2886 
Q 3006 2619 2597 2516 
z
" transform="scale(0.015625)"/>
       </defs>
       <use xlink:href="#DejaVuSans-33"/>
       <use xlink:href="#DejaVuSans-30" transform="translate(63.623047 0)"/>
       <use xlink:href="#DejaVuSans-30" transform="translate(127.246094 0)"/>
      </g>
     </g>
    </g>
    <g id="ytick_14">
     <g id="line2d_41">
      <g>
       <use xlink:href="#m43874f7050" x="55.345313" y="434.453135" style="stroke: #000000; stroke-width: 0.8"/>
      </g>
     </g>
     <g id="text_41">
      <!-- 400 -->
      <g transform="translate(29.257813 438.252354) scale(0.1 -0.1)">
       <use xlink:href="#DejaVuSans-34"/>
       <use xlink:href="#DejaVuSans-30" transform="translate(63.623047 0)"/>
       <use xlink:href="#DejaVuSans-30" transform="translate(127.246094 0)"/>
      </g>
     </g>
    </g>
    <g id="text_42">
     <!-- co-imf2 -->
     <g transform="translate(23.178125 507.84546) rotate(-90) scale(0.1 -0.1)">
      <use xlink:href="#DejaVuSans-63"/>
      <use xlink:href="#DejaVuSans-6f" transform="translate(54.980469 0)"/>
      <use xlink:href="#DejaVuSans-2d" transform="translate(118.037109 0)"/>
      <use xlink:href="#DejaVuSans-69" transform="translate(154.121094 0)"/>
      <use xlink:href="#DejaVuSans-6d" transform="translate(181.904297 0)"/>
      <use xlink:href="#DejaVuSans-66" transform="translate(279.316406 0)"/>
      <use xlink:href="#DejaVuSans-32" transform="translate(314.521484 0)"/>
     </g>
    </g>
   </g>
   <g id="line2d_42">
    <path d="M 104.525313 529.072412 
L 109.277003 529.139286 
L 114.028694 528.942408 
L 118.780385 528.484486 
L 123.532076 527.76836 
L 128.283767 526.796873 
L 133.035457 525.572865 
L 137.787148 524.099178 
L 142.538839 522.378654 
L 147.29053 520.414133 
L 152.042221 518.208457 
L 156.793912 515.764467 
L 161.545602 513.085005 
L 166.297293 510.172914 
L 171.048984 507.032719 
L 176.751013 502.977849 
L 182.453042 498.636569 
L 189.105409 493.28733 
L 198.608791 485.311361 
L 218.565892 468.451433 
L 226.168598 462.374332 
L 231.870627 458.073332 
L 237.572655 454.05788 
L 242.324346 450.972269 
L 247.076037 448.159905 
L 250.87739 446.129646 
L 254.678742 444.313513 
L 258.480095 442.728947 
L 262.281448 441.392122 
L 266.0828 440.312647 
L 269.884153 439.485972 
L 273.685506 438.900914 
L 277.486858 438.546233 
L 281.288211 438.41069 
L 285.089564 438.483045 
L 288.890916 438.75206 
L 292.692269 439.206494 
L 297.44396 440.018162 
L 302.195651 441.080035 
L 306.947341 442.370161 
L 311.699032 443.86659 
L 317.401061 445.903714 
L 323.10309 448.168371 
L 329.755457 451.047438 
L 337.358163 454.57653 
L 348.762221 460.154528 
L 363.967631 467.576524 
L 371.570337 471.011049 
L 377.272366 473.362691 
L 382.974395 475.487283 
L 388.676424 477.375446 
L 394.378453 479.033927 
L 400.080482 480.475524 
L 405.782511 481.713058 
L 412.434878 482.916037 
L 419.087245 483.879068 
L 425.739612 484.62251 
L 433.342317 485.229395 
L 440.945023 485.61028 
L 450.448404 485.847749 
L 464.703477 485.937078 
L 480.859226 486.076395 
L 490.362607 486.383707 
L 499.865989 486.923525 
L 509.36937 487.67844 
L 519.82309 488.73324 
L 531.227148 490.121456 
L 543.581544 491.865766 
L 556.886279 493.974369 
L 573.042027 496.777781 
L 594.899805 500.828013 
L 643.367052 509.874187 
L 664.274491 513.490125 
L 683.281255 516.551662 
L 701.33768 519.239395 
L 719.394105 521.706533 
L 737.45053 523.948427 
L 754.556617 525.855675 
L 772.613042 527.649331 
L 799.222511 530.028145 
L 834.385023 533.233021 
L 865.746182 536.046419 
L 880.951593 537.177964 
L 894.256327 537.939747 
L 907.561061 538.469685 
L 922.766472 538.837447 
L 939.872559 539.021151 
L 963.631013 539.030449 
L 1013.998936 538.99351 
L 1046.310433 539.308442 
L 1072.919902 539.467096 
L 1088.125313 539.396972 
L 1088.125313 539.396972 
" clip-path="url(#p74da82e3fd)" style="fill: none; stroke: #f27f19; stroke-width: 1.5; stroke-linecap: square"/>
   </g>
   <g id="patch_18">
    <path d="M 55.345313 544.52 
L 55.345313 433.356857 
" style="fill: none; stroke: #000000; stroke-width: 0.8; stroke-linejoin: miter; stroke-linecap: square"/>
   </g>
   <g id="patch_19">
    <path d="M 1137.305313 544.52 
L 1137.305313 433.356857 
" style="fill: none; stroke: #000000; stroke-width: 0.8; stroke-linejoin: miter; stroke-linecap: square"/>
   </g>
   <g id="patch_20">
    <path d="M 55.345313 544.52 
L 1137.305312 544.52 
" style="fill: none; stroke: #000000; stroke-width: 0.8; stroke-linejoin: miter; stroke-linecap: square"/>
   </g>
   <g id="patch_21">
    <path d="M 55.345313 433.356857 
L 1137.305312 433.356857 
" style="fill: none; stroke: #000000; stroke-width: 0.8; stroke-linejoin: miter; stroke-linecap: square"/>
   </g>
  </g>
 </g>
 <defs>
  <clipPath id="p098ed13de5">
   <rect x="55.345313" y="7.2" width="1081.96" height="111.163143"/>
  </clipPath>
  <clipPath id="p76b7a02229">
   <rect x="55.345313" y="149.252286" width="1081.96" height="111.163143"/>
  </clipPath>
  <clipPath id="p67ec72d071">
   <rect x="55.345313" y="291.304571" width="1081.96" height="111.163143"/>
  </clipPath>
  <clipPath id="p74da82e3fd">
   <rect x="55.345313" y="433.356857" width="1081.96" height="111.163143"/>
  </clipPath>
 </defs>
</svg>
