<?xml version="1.0" encoding="utf-8" standalone="no"?>
<!DOCTYPE svg PUBLIC "-//W3C//DTD SVG 1.1//EN"
  "http://www.w3.org/Graphics/SVG/1.1/DTD/svg11.dtd">
<svg xmlns:xlink="http://www.w3.org/1999/xlink" width="1144.595312pt" height="568.398125pt" viewBox="0 0 1144.595312 568.398125" xmlns="http://www.w3.org/2000/svg" version="1.1">
 <metadata>
  <rdf:RDF xmlns:dc="http://purl.org/dc/elements/1.1/" xmlns:cc="http://creativecommons.org/ns#" xmlns:rdf="http://www.w3.org/1999/02/22-rdf-syntax-ns#">
   <cc:Work>
    <dc:type rdf:resource="http://purl.org/dc/dcmitype/StillImage"/>
    <dc:date>2025-07-24T02:45:39.132939</dc:date>
    <dc:format>image/svg+xml</dc:format>
    <dc:creator>
     <cc:Agent>
      <dc:title>Matplotlib v3.10.1, https://matplotlib.org/</dc:title>
     </cc:Agent>
    </dc:creator>
   </cc:Work>
  </rdf:RDF>
 </metadata>
 <defs>
  <style type="text/css">*{stroke-linejoin: round; stroke-linecap: butt}</style>
 </defs>
 <g id="figure_1">
  <g id="patch_1">
   <path d="M 0 568.398125 
L 1144.595312 568.398125 
L 1144.595312 0 
L 0 0 
z
" style="fill: #ffffff"/>
  </g>
  <g id="axes_1">
   <g id="patch_2">
    <path d="M 55.345313 120.53909 
L 1137.395313 120.53909 
L 1137.395313 7.2 
L 55.345313 7.2 
z
" style="fill: #ffffff"/>
   </g>
   <g id="matplotlib.axis_1">
    <g id="xtick_1">
     <g id="line2d_1">
      <defs>
       <path id="m22ec4fd148" d="M 0 0 
L 0 3.5 
" style="stroke: #000000; stroke-width: 0.8"/>
      </defs>
      <g>
       <use xlink:href="#m22ec4fd148" x="104.529403" y="120.53909" style="stroke: #000000; stroke-width: 0.8"/>
      </g>
     </g>
     <g id="text_1">
      <!-- 0 -->
      <g transform="translate(101.348153 135.137528) scale(0.1 -0.1)">
       <defs>
        <path id="DejaVuSans-30" d="M 2034 4250 
Q 1547 4250 1301 3770 
Q 1056 3291 1056 2328 
Q 1056 1369 1301 889 
Q 1547 409 2034 409 
Q 2525 409 2770 889 
Q 3016 1369 3016 2328 
Q 3016 3291 2770 3770 
Q 2525 4250 2034 4250 
z
M 2034 4750 
Q 2819 4750 3233 4129 
Q 3647 3509 3647 2328 
Q 3647 1150 3233 529 
Q 2819 -91 2034 -91 
Q 1250 -91 836 529 
Q 422 1150 422 2328 
Q 422 3509 836 4129 
Q 1250 4750 2034 4750 
z
" transform="scale(0.015625)"/>
       </defs>
       <use xlink:href="#DejaVuSans-30"/>
      </g>
     </g>
    </g>
    <g id="xtick_2">
     <g id="line2d_2">
      <g>
       <use xlink:href="#m22ec4fd148" x="230.804348" y="120.53909" style="stroke: #000000; stroke-width: 0.8"/>
      </g>
     </g>
     <g id="text_2">
      <!-- 100 -->
      <g transform="translate(221.260598 135.137528) scale(0.1 -0.1)">
       <defs>
        <path id="DejaVuSans-31" d="M 794 531 
L 1825 531 
L 1825 4091 
L 703 3866 
L 703 4441 
L 1819 4666 
L 2450 4666 
L 2450 531 
L 3481 531 
L 3481 0 
L 794 0 
L 794 531 
z
" transform="scale(0.015625)"/>
       </defs>
       <use xlink:href="#DejaVuSans-31"/>
       <use xlink:href="#DejaVuSans-30" transform="translate(63.623047 0)"/>
       <use xlink:href="#DejaVuSans-30" transform="translate(127.246094 0)"/>
      </g>
     </g>
    </g>
    <g id="xtick_3">
     <g id="line2d_3">
      <g>
       <use xlink:href="#m22ec4fd148" x="357.079293" y="120.53909" style="stroke: #000000; stroke-width: 0.8"/>
      </g>
     </g>
     <g id="text_3">
      <!-- 200 -->
      <g transform="translate(347.535543 135.137528) scale(0.1 -0.1)">
       <defs>
        <path id="DejaVuSans-32" d="M 1228 531 
L 3431 531 
L 3431 0 
L 469 0 
L 469 531 
Q 828 903 1448 1529 
Q 2069 2156 2228 2338 
Q 2531 2678 2651 2914 
Q 2772 3150 2772 3378 
Q 2772 3750 2511 3984 
Q 2250 4219 1831 4219 
Q 1534 4219 1204 4116 
Q 875 4013 500 3803 
L 500 4441 
Q 881 4594 1212 4672 
Q 1544 4750 1819 4750 
Q 2544 4750 2975 4387 
Q 3406 4025 3406 3419 
Q 3406 3131 3298 2873 
Q 3191 2616 2906 2266 
Q 2828 2175 2409 1742 
Q 1991 1309 1228 531 
z
" transform="scale(0.015625)"/>
       </defs>
       <use xlink:href="#DejaVuSans-32"/>
       <use xlink:href="#DejaVuSans-30" transform="translate(63.623047 0)"/>
       <use xlink:href="#DejaVuSans-30" transform="translate(127.246094 0)"/>
      </g>
     </g>
    </g>
    <g id="xtick_4">
     <g id="line2d_4">
      <g>
       <use xlink:href="#m22ec4fd148" x="483.354237" y="120.53909" style="stroke: #000000; stroke-width: 0.8"/>
      </g>
     </g>
     <g id="text_4">
      <!-- 300 -->
      <g transform="translate(473.810487 135.137528) scale(0.1 -0.1)">
       <defs>
        <path id="DejaVuSans-33" d="M 2597 2516 
Q 3050 2419 3304 2112 
Q 3559 1806 3559 1356 
Q 3559 666 3084 287 
Q 2609 -91 1734 -91 
Q 1441 -91 1130 -33 
Q 819 25 488 141 
L 488 750 
Q 750 597 1062 519 
Q 1375 441 1716 441 
Q 2309 441 2620 675 
Q 2931 909 2931 1356 
Q 2931 1769 2642 2001 
Q 2353 2234 1838 2234 
L 1294 2234 
L 1294 2753 
L 1863 2753 
Q 2328 2753 2575 2939 
Q 2822 3125 2822 3475 
Q 2822 3834 2567 4026 
Q 2313 4219 1838 4219 
Q 1578 4219 1281 4162 
Q 984 4106 628 3988 
L 628 4550 
Q 988 4650 1302 4700 
Q 1616 4750 1894 4750 
Q 2613 4750 3031 4423 
Q 3450 4097 3450 3541 
Q 3450 3153 3228 2886 
Q 3006 2619 2597 2516 
z
" transform="scale(0.015625)"/>
       </defs>
       <use xlink:href="#DejaVuSans-33"/>
       <use xlink:href="#DejaVuSans-30" transform="translate(63.623047 0)"/>
       <use xlink:href="#DejaVuSans-30" transform="translate(127.246094 0)"/>
      </g>
     </g>
    </g>
    <g id="xtick_5">
     <g id="line2d_5">
      <g>
       <use xlink:href="#m22ec4fd148" x="609.629182" y="120.53909" style="stroke: #000000; stroke-width: 0.8"/>
      </g>
     </g>
     <g id="text_5">
      <!-- 400 -->
      <g transform="translate(600.085432 135.137528) scale(0.1 -0.1)">
       <defs>
        <path id="DejaVuSans-34" d="M 2419 4116 
L 825 1625 
L 2419 1625 
L 2419 4116 
z
M 2253 4666 
L 3047 4666 
L 3047 1625 
L 3713 1625 
L 3713 1100 
L 3047 1100 
L 3047 0 
L 2419 0 
L 2419 1100 
L 313 1100 
L 313 1709 
L 2253 4666 
z
" transform="scale(0.015625)"/>
       </defs>
       <use xlink:href="#DejaVuSans-34"/>
       <use xlink:href="#DejaVuSans-30" transform="translate(63.623047 0)"/>
       <use xlink:href="#DejaVuSans-30" transform="translate(127.246094 0)"/>
      </g>
     </g>
    </g>
    <g id="xtick_6">
     <g id="line2d_6">
      <g>
       <use xlink:href="#m22ec4fd148" x="735.904126" y="120.53909" style="stroke: #000000; stroke-width: 0.8"/>
      </g>
     </g>
     <g id="text_6">
      <!-- 500 -->
      <g transform="translate(726.360376 135.137528) scale(0.1 -0.1)">
       <defs>
        <path id="DejaVuSans-35" d="M 691 4666 
L 3169 4666 
L 3169 4134 
L 1269 4134 
L 1269 2991 
Q 1406 3038 1543 3061 
Q 1681 3084 1819 3084 
Q 2600 3084 3056 2656 
Q 3513 2228 3513 1497 
Q 3513 744 3044 326 
Q 2575 -91 1722 -91 
Q 1428 -91 1123 -41 
Q 819 9 494 109 
L 494 744 
Q 775 591 1075 516 
Q 1375 441 1709 441 
Q 2250 441 2565 725 
Q 2881 1009 2881 1497 
Q 2881 1984 2565 2268 
Q 2250 2553 1709 2553 
Q 1456 2553 1204 2497 
Q 953 2441 691 2322 
L 691 4666 
z
" transform="scale(0.015625)"/>
       </defs>
       <use xlink:href="#DejaVuSans-35"/>
       <use xlink:href="#DejaVuSans-30" transform="translate(63.623047 0)"/>
       <use xlink:href="#DejaVuSans-30" transform="translate(127.246094 0)"/>
      </g>
     </g>
    </g>
    <g id="xtick_7">
     <g id="line2d_7">
      <g>
       <use xlink:href="#m22ec4fd148" x="862.179071" y="120.53909" style="stroke: #000000; stroke-width: 0.8"/>
      </g>
     </g>
     <g id="text_7">
      <!-- 600 -->
      <g transform="translate(852.635321 135.137528) scale(0.1 -0.1)">
       <defs>
        <path id="DejaVuSans-36" d="M 2113 2584 
Q 1688 2584 1439 2293 
Q 1191 2003 1191 1497 
Q 1191 994 1439 701 
Q 1688 409 2113 409 
Q 2538 409 2786 701 
Q 3034 994 3034 1497 
Q 3034 2003 2786 2293 
Q 2538 2584 2113 2584 
z
M 3366 4563 
L 3366 3988 
Q 3128 4100 2886 4159 
Q 2644 4219 2406 4219 
Q 1781 4219 1451 3797 
Q 1122 3375 1075 2522 
Q 1259 2794 1537 2939 
Q 1816 3084 2150 3084 
Q 2853 3084 3261 2657 
Q 3669 2231 3669 1497 
Q 3669 778 3244 343 
Q 2819 -91 2113 -91 
Q 1303 -91 875 529 
Q 447 1150 447 2328 
Q 447 3434 972 4092 
Q 1497 4750 2381 4750 
Q 2619 4750 2861 4703 
Q 3103 4656 3366 4563 
z
" transform="scale(0.015625)"/>
       </defs>
       <use xlink:href="#DejaVuSans-36"/>
       <use xlink:href="#DejaVuSans-30" transform="translate(63.623047 0)"/>
       <use xlink:href="#DejaVuSans-30" transform="translate(127.246094 0)"/>
      </g>
     </g>
    </g>
    <g id="xtick_8">
     <g id="line2d_8">
      <g>
       <use xlink:href="#m22ec4fd148" x="988.454015" y="120.53909" style="stroke: #000000; stroke-width: 0.8"/>
      </g>
     </g>
     <g id="text_8">
      <!-- 700 -->
      <g transform="translate(978.910265 135.137528) scale(0.1 -0.1)">
       <defs>
        <path id="DejaVuSans-37" d="M 525 4666 
L 3525 4666 
L 3525 4397 
L 1831 0 
L 1172 0 
L 2766 4134 
L 525 4134 
L 525 4666 
z
" transform="scale(0.015625)"/>
       </defs>
       <use xlink:href="#DejaVuSans-37"/>
       <use xlink:href="#DejaVuSans-30" transform="translate(63.623047 0)"/>
       <use xlink:href="#DejaVuSans-30" transform="translate(127.246094 0)"/>
      </g>
     </g>
    </g>
    <g id="xtick_9">
     <g id="line2d_9">
      <g>
       <use xlink:href="#m22ec4fd148" x="1114.72896" y="120.53909" style="stroke: #000000; stroke-width: 0.8"/>
      </g>
     </g>
     <g id="text_9">
      <!-- 800 -->
      <g transform="translate(1105.18521 135.137528) scale(0.1 -0.1)">
       <defs>
        <path id="DejaVuSans-38" d="M 2034 2216 
Q 1584 2216 1326 1975 
Q 1069 1734 1069 1313 
Q 1069 891 1326 650 
Q 1584 409 2034 409 
Q 2484 409 2743 651 
Q 3003 894 3003 1313 
Q 3003 1734 2745 1975 
Q 2488 2216 2034 2216 
z
M 1403 2484 
Q 997 2584 770 2862 
Q 544 3141 544 3541 
Q 544 4100 942 4425 
Q 1341 4750 2034 4750 
Q 2731 4750 3128 4425 
Q 3525 4100 3525 3541 
Q 3525 3141 3298 2862 
Q 3072 2584 2669 2484 
Q 3125 2378 3379 2068 
Q 3634 1759 3634 1313 
Q 3634 634 3220 271 
Q 2806 -91 2034 -91 
Q 1263 -91 848 271 
Q 434 634 434 1313 
Q 434 1759 690 2068 
Q 947 2378 1403 2484 
z
M 1172 3481 
Q 1172 3119 1398 2916 
Q 1625 2713 2034 2713 
Q 2441 2713 2670 2916 
Q 2900 3119 2900 3481 
Q 2900 3844 2670 4047 
Q 2441 4250 2034 4250 
Q 1625 4250 1398 4047 
Q 1172 3844 1172 3481 
z
" transform="scale(0.015625)"/>
       </defs>
       <use xlink:href="#DejaVuSans-38"/>
       <use xlink:href="#DejaVuSans-30" transform="translate(63.623047 0)"/>
       <use xlink:href="#DejaVuSans-30" transform="translate(127.246094 0)"/>
      </g>
     </g>
    </g>
   </g>
   <g id="matplotlib.axis_2">
    <g id="ytick_1">
     <g id="line2d_10">
      <defs>
       <path id="m4f2e85cf85" d="M 0 0 
L -3.5 0 
" style="stroke: #000000; stroke-width: 0.8"/>
      </defs>
      <g>
       <use xlink:href="#m4f2e85cf85" x="55.345313" y="81.625809" style="stroke: #000000; stroke-width: 0.8"/>
      </g>
     </g>
     <g id="text_10">
      <!-- 1000 -->
      <g transform="translate(22.895313 85.425028) scale(0.1 -0.1)">
       <use xlink:href="#DejaVuSans-31"/>
       <use xlink:href="#DejaVuSans-30" transform="translate(63.623047 0)"/>
       <use xlink:href="#DejaVuSans-30" transform="translate(127.246094 0)"/>
       <use xlink:href="#DejaVuSans-30" transform="translate(190.869141 0)"/>
      </g>
     </g>
    </g>
    <g id="ytick_2">
     <g id="line2d_11">
      <g>
       <use xlink:href="#m4f2e85cf85" x="55.345313" y="42.30016" style="stroke: #000000; stroke-width: 0.8"/>
      </g>
     </g>
     <g id="text_11">
      <!-- 2000 -->
      <g transform="translate(22.895313 46.099378) scale(0.1 -0.1)">
       <use xlink:href="#DejaVuSans-32"/>
       <use xlink:href="#DejaVuSans-30" transform="translate(63.623047 0)"/>
       <use xlink:href="#DejaVuSans-30" transform="translate(127.246094 0)"/>
       <use xlink:href="#DejaVuSans-30" transform="translate(190.869141 0)"/>
      </g>
     </g>
    </g>
    <g id="text_12">
     <!-- Original Data -->
     <g transform="translate(16.815625 96.962514) rotate(-90) scale(0.1 -0.1)">
      <defs>
       <path id="DejaVuSans-4f" d="M 2522 4238 
Q 1834 4238 1429 3725 
Q 1025 3213 1025 2328 
Q 1025 1447 1429 934 
Q 1834 422 2522 422 
Q 3209 422 3611 934 
Q 4013 1447 4013 2328 
Q 4013 3213 3611 3725 
Q 3209 4238 2522 4238 
z
M 2522 4750 
Q 3503 4750 4090 4092 
Q 4678 3434 4678 2328 
Q 4678 1225 4090 567 
Q 3503 -91 2522 -91 
Q 1538 -91 948 565 
Q 359 1222 359 2328 
Q 359 3434 948 4092 
Q 1538 4750 2522 4750 
z
" transform="scale(0.015625)"/>
       <path id="DejaVuSans-72" d="M 2631 2963 
Q 2534 3019 2420 3045 
Q 2306 3072 2169 3072 
Q 1681 3072 1420 2755 
Q 1159 2438 1159 1844 
L 1159 0 
L 581 0 
L 581 3500 
L 1159 3500 
L 1159 2956 
Q 1341 3275 1631 3429 
Q 1922 3584 2338 3584 
Q 2397 3584 2469 3576 
Q 2541 3569 2628 3553 
L 2631 2963 
z
" transform="scale(0.015625)"/>
       <path id="DejaVuSans-69" d="M 603 3500 
L 1178 3500 
L 1178 0 
L 603 0 
L 603 3500 
z
M 603 4863 
L 1178 4863 
L 1178 4134 
L 603 4134 
L 603 4863 
z
" transform="scale(0.015625)"/>
       <path id="DejaVuSans-67" d="M 2906 1791 
Q 2906 2416 2648 2759 
Q 2391 3103 1925 3103 
Q 1463 3103 1205 2759 
Q 947 2416 947 1791 
Q 947 1169 1205 825 
Q 1463 481 1925 481 
Q 2391 481 2648 825 
Q 2906 1169 2906 1791 
z
M 3481 434 
Q 3481 -459 3084 -895 
Q 2688 -1331 1869 -1331 
Q 1566 -1331 1297 -1286 
Q 1028 -1241 775 -1147 
L 775 -588 
Q 1028 -725 1275 -790 
Q 1522 -856 1778 -856 
Q 2344 -856 2625 -561 
Q 2906 -266 2906 331 
L 2906 616 
Q 2728 306 2450 153 
Q 2172 0 1784 0 
Q 1141 0 747 490 
Q 353 981 353 1791 
Q 353 2603 747 3093 
Q 1141 3584 1784 3584 
Q 2172 3584 2450 3431 
Q 2728 3278 2906 2969 
L 2906 3500 
L 3481 3500 
L 3481 434 
z
" transform="scale(0.015625)"/>
       <path id="DejaVuSans-6e" d="M 3513 2113 
L 3513 0 
L 2938 0 
L 2938 2094 
Q 2938 2591 2744 2837 
Q 2550 3084 2163 3084 
Q 1697 3084 1428 2787 
Q 1159 2491 1159 1978 
L 1159 0 
L 581 0 
L 581 3500 
L 1159 3500 
L 1159 2956 
Q 1366 3272 1645 3428 
Q 1925 3584 2291 3584 
Q 2894 3584 3203 3211 
Q 3513 2838 3513 2113 
z
" transform="scale(0.015625)"/>
       <path id="DejaVuSans-61" d="M 2194 1759 
Q 1497 1759 1228 1600 
Q 959 1441 959 1056 
Q 959 750 1161 570 
Q 1363 391 1709 391 
Q 2188 391 2477 730 
Q 2766 1069 2766 1631 
L 2766 1759 
L 2194 1759 
z
M 3341 1997 
L 3341 0 
L 2766 0 
L 2766 531 
Q 2569 213 2275 61 
Q 1981 -91 1556 -91 
Q 1019 -91 701 211 
Q 384 513 384 1019 
Q 384 1609 779 1909 
Q 1175 2209 1959 2209 
L 2766 2209 
L 2766 2266 
Q 2766 2663 2505 2880 
Q 2244 3097 1772 3097 
Q 1472 3097 1187 3025 
Q 903 2953 641 2809 
L 641 3341 
Q 956 3463 1253 3523 
Q 1550 3584 1831 3584 
Q 2591 3584 2966 3190 
Q 3341 2797 3341 1997 
z
" transform="scale(0.015625)"/>
       <path id="DejaVuSans-6c" d="M 603 4863 
L 1178 4863 
L 1178 0 
L 603 0 
L 603 4863 
z
" transform="scale(0.015625)"/>
       <path id="DejaVuSans-20" transform="scale(0.015625)"/>
       <path id="DejaVuSans-44" d="M 1259 4147 
L 1259 519 
L 2022 519 
Q 2988 519 3436 956 
Q 3884 1394 3884 2338 
Q 3884 3275 3436 3711 
Q 2988 4147 2022 4147 
L 1259 4147 
z
M 628 4666 
L 1925 4666 
Q 3281 4666 3915 4102 
Q 4550 3538 4550 2338 
Q 4550 1131 3912 565 
Q 3275 0 1925 0 
L 628 0 
L 628 4666 
z
" transform="scale(0.015625)"/>
       <path id="DejaVuSans-74" d="M 1172 4494 
L 1172 3500 
L 2356 3500 
L 2356 3053 
L 1172 3053 
L 1172 1153 
Q 1172 725 1289 603 
Q 1406 481 1766 481 
L 2356 481 
L 2356 0 
L 1766 0 
Q 1100 0 847 248 
Q 594 497 594 1153 
L 594 3053 
L 172 3053 
L 172 3500 
L 594 3500 
L 594 4494 
L 1172 4494 
z
" transform="scale(0.015625)"/>
      </defs>
      <use xlink:href="#DejaVuSans-4f"/>
      <use xlink:href="#DejaVuSans-72" transform="translate(78.710938 0)"/>
      <use xlink:href="#DejaVuSans-69" transform="translate(119.824219 0)"/>
      <use xlink:href="#DejaVuSans-67" transform="translate(147.607422 0)"/>
      <use xlink:href="#DejaVuSans-69" transform="translate(211.083984 0)"/>
      <use xlink:href="#DejaVuSans-6e" transform="translate(238.867188 0)"/>
      <use xlink:href="#DejaVuSans-61" transform="translate(302.246094 0)"/>
      <use xlink:href="#DejaVuSans-6c" transform="translate(363.525391 0)"/>
      <use xlink:href="#DejaVuSans-20" transform="translate(391.308594 0)"/>
      <use xlink:href="#DejaVuSans-44" transform="translate(423.095703 0)"/>
      <use xlink:href="#DejaVuSans-61" transform="translate(500.097656 0)"/>
      <use xlink:href="#DejaVuSans-74" transform="translate(561.376953 0)"/>
      <use xlink:href="#DejaVuSans-61" transform="translate(600.585938 0)"/>
     </g>
    </g>
   </g>
   <g id="line2d_12">
    <path d="M 104.529403 115.387314 
L 105.792153 113.916303 
L 107.054902 112.00805 
L 109.580401 106.850228 
L 110.843151 104.149642 
L 114.631399 95.388978 
L 115.894148 93.165221 
L 117.156898 92.23513 
L 118.419647 92.878826 
L 119.682397 91.486099 
L 120.945146 88.079252 
L 122.207896 85.806803 
L 123.470645 84.004925 
L 124.733395 82.925165 
L 125.996144 83.099739 
L 127.258893 82.30799 
L 128.521643 80.664965 
L 129.784392 78.604851 
L 131.047142 76.041374 
L 132.309891 75.204395 
L 133.572641 74.677016 
L 134.83539 74.759099 
L 136.09814 75.109616 
L 137.360889 76.086078 
L 138.623638 77.549791 
L 139.886388 78.467831 
L 141.149137 78.739455 
L 142.411887 78.610986 
L 143.674636 77.753963 
L 144.937386 77.363207 
L 146.200135 77.438889 
L 148.725634 77.249713 
L 149.988383 77.380548 
L 151.251133 77.681692 
L 152.513882 76.427432 
L 153.776632 73.47617 
L 155.039381 70.037021 
L 156.302131 61.947458 
L 157.56488 58.349483 
L 158.82763 58.142995 
L 160.090379 58.290224 
L 161.353128 59.775965 
L 162.615878 60.62973 
L 165.141377 60.078081 
L 166.404126 59.262284 
L 167.666876 57.809571 
L 168.929625 55.656067 
L 170.192375 53.844971 
L 171.455124 52.402235 
L 173.980623 48.83374 
L 175.243372 47.444165 
L 176.506122 46.475711 
L 177.768871 44.153468 
L 179.031621 43.550734 
L 180.29437 41.22985 
L 181.55712 38.110544 
L 182.819869 36.166139 
L 187.870867 26.985954 
L 189.133616 20.673524 
L 190.396366 23.050427 
L 191.659115 23.647505 
L 192.921865 19.194493 
L 194.184614 16.847229 
L 195.447363 13.778677 
L 196.710113 12.351777 
L 197.972862 15.377983 
L 199.235612 24.022554 
L 200.498361 29.017483 
L 201.761111 30.970782 
L 203.02386 29.600763 
L 204.28661 22.676834 
L 205.549359 21.893906 
L 206.812109 27.13246 
L 208.074858 29.359996 
L 209.337607 30.759187 
L 210.600357 31.928471 
L 211.863106 31.633057 
L 213.125856 31.801322 
L 214.388605 32.197342 
L 215.651355 33.286513 
L 216.914104 31.349972 
L 218.176854 32.250097 
L 219.439603 31.605603 
L 220.702352 32.138132 
L 221.965102 31.411345 
L 223.227851 32.231451 
L 224.490601 34.008156 
L 225.75335 40.144962 
L 227.0161 41.030603 
L 228.278849 40.281662 
L 229.541599 37.55498 
L 230.804348 35.48539 
L 232.067097 34.05418 
L 233.329847 37.374544 
L 234.592596 45.212495 
L 235.855346 47.775369 
L 237.118095 50.974804 
L 238.380845 51.679633 
L 240.906344 53.894972 
L 242.169093 55.725021 
L 243.431842 56.410084 
L 244.694592 56.2753 
L 245.957341 56.649052 
L 247.220091 57.293917 
L 248.48284 58.125191 
L 249.74559 59.386626 
L 251.008339 60.043741 
L 252.271089 60.094374 
L 253.533838 59.864629 
L 254.796587 59.107623 
L 256.059337 57.999605 
L 257.322086 56.509236 
L 258.584836 56.655994 
L 259.847585 58.669695 
L 261.110335 59.778453 
L 262.373084 60.400253 
L 264.898583 62.51608 
L 266.161332 61.741315 
L 267.424082 58.97357 
L 268.686831 57.212157 
L 269.949581 56.139733 
L 271.21233 55.864417 
L 272.47508 56.209422 
L 273.737829 56.057856 
L 275.000579 55.209682 
L 276.263328 55.020776 
L 277.526077 55.161822 
L 278.788827 55.792854 
L 280.051576 57.113965 
L 281.314326 58.15528 
L 282.577075 58.96154 
L 283.839825 59.55092 
L 285.102574 59.688835 
L 286.365324 58.964867 
L 287.628073 57.205397 
L 290.153572 54.311635 
L 291.416321 53.763503 
L 292.679071 54.40768 
L 293.94182 55.378912 
L 295.20457 56.971147 
L 296.467319 58.189875 
L 297.730069 58.874328 
L 298.992818 59.269306 
L 300.255567 59.042682 
L 301.518317 59.109572 
L 302.781066 59.436333 
L 304.043816 59.175774 
L 305.306565 58.465856 
L 306.569315 58.32157 
L 307.832064 58.691139 
L 310.357563 58.815822 
L 311.620312 58.539846 
L 312.883062 57.827973 
L 314.145811 56.61631 
L 316.67131 52.835873 
L 317.93406 50.776095 
L 319.196809 50.577858 
L 320.459559 52.568442 
L 321.722308 53.915698 
L 322.985058 55.068767 
L 324.247807 54.862261 
L 325.510556 53.192665 
L 326.773306 53.063707 
L 328.036055 54.418616 
L 329.298805 54.674655 
L 331.824304 54.068766 
L 335.612552 52.031557 
L 336.875301 51.732411 
L 338.138051 51.961809 
L 339.4008 52.414348 
L 341.926299 54.153556 
L 343.189049 55.099823 
L 345.714548 57.337813 
L 346.977297 57.318332 
L 348.240046 55.983543 
L 349.502796 55.12398 
L 350.765545 54.491686 
L 352.028295 54.625188 
L 353.291044 55.9344 
L 354.553794 56.594182 
L 357.079293 56.984142 
L 358.342042 56.835795 
L 359.604791 56.88654 
L 360.867541 57.136248 
L 362.13029 56.449607 
L 363.39304 54.846013 
L 364.655789 53.812297 
L 365.918539 53.193834 
L 368.444038 51.566059 
L 369.706787 51.362473 
L 370.969536 51.767621 
L 372.232286 51.192914 
L 373.495035 49.651117 
L 374.757785 49.391449 
L 377.283284 50.973624 
L 378.546033 52.086649 
L 379.808783 52.714958 
L 381.071532 52.673039 
L 382.334281 53.838305 
L 383.597031 56.083118 
L 384.85978 57.571229 
L 386.12253 58.559357 
L 387.385279 59.051235 
L 388.648029 58.672291 
L 389.910778 58.69336 
L 391.173528 59.045125 
L 392.436277 59.027032 
L 401.275523 57.944891 
L 402.538273 58.015883 
L 405.063771 58.427299 
L 407.58927 58.51723 
L 412.640268 58.102514 
L 413.903018 58.268263 
L 415.165767 58.218681 
L 416.428516 57.97837 
L 417.691266 58.584771 
L 420.216765 61.538448 
L 421.479514 63.262512 
L 422.742264 64.542595 
L 424.005013 65.195993 
L 425.267763 64.541126 
L 426.530512 62.222544 
L 427.793262 60.554354 
L 430.31876 58.132185 
L 432.844259 56.565268 
L 434.107009 55.952982 
L 435.369758 56.168564 
L 436.632508 57.247524 
L 437.895257 58.475713 
L 439.158007 59.996536 
L 440.420756 60.750909 
L 441.683505 60.512754 
L 442.946255 61.249618 
L 444.209004 62.744356 
L 446.734503 64.733726 
L 447.997253 65.448569 
L 449.260002 65.768552 
L 450.522752 65.841156 
L 453.04825 65.394067 
L 454.311 65.337857 
L 455.573749 65.505218 
L 456.836499 66.03923 
L 458.099248 66.76487 
L 459.361998 67.776076 
L 460.624747 68.467643 
L 461.887497 68.788297 
L 466.938494 70.97938 
L 469.463993 72.279726 
L 470.726743 73.112233 
L 473.252242 75.184417 
L 477.04049 78.537545 
L 478.303239 79.430918 
L 479.565989 80.081141 
L 480.828738 80.448269 
L 482.091488 80.455771 
L 483.354237 80.189344 
L 485.879736 78.953261 
L 487.142485 78.267752 
L 488.405235 77.356894 
L 489.667984 76.28478 
L 490.930734 75.535743 
L 492.193483 75.144599 
L 493.456233 74.921992 
L 494.718982 75.007206 
L 495.981732 75.52482 
L 497.244481 76.515539 
L 498.50723 77.325574 
L 502.295479 79.262107 
L 503.558228 79.673014 
L 509.871975 80.588436 
L 511.134725 81.045461 
L 513.660224 82.485488 
L 516.185723 84.15439 
L 522.49947 87.616911 
L 527.550468 89.745596 
L 532.601465 91.654013 
L 533.864215 91.898239 
L 536.389714 91.765135 
L 537.652463 91.579222 
L 538.915213 91.234169 
L 540.177962 90.75767 
L 541.440712 90.464973 
L 543.966211 90.356353 
L 547.754459 90.689697 
L 549.017208 90.68015 
L 551.542707 90.225867 
L 552.805457 89.796415 
L 554.068206 89.014507 
L 555.330956 87.84568 
L 557.856454 85.975776 
L 560.381953 84.088914 
L 561.644703 83.327579 
L 562.907452 82.750813 
L 564.170202 82.327295 
L 565.432951 82.108317 
L 566.695701 82.059469 
L 569.221199 82.445513 
L 575.534947 84.118192 
L 578.060446 84.631201 
L 581.848694 85.182447 
L 585.636942 86.122657 
L 586.899692 85.874986 
L 588.162441 85.007962 
L 590.68794 83.566504 
L 591.950689 83.314878 
L 593.213439 83.709814 
L 594.476188 83.412084 
L 595.738938 82.508609 
L 597.001687 81.433457 
L 598.264437 79.913557 
L 599.527186 78.682868 
L 600.789936 77.787051 
L 602.052685 77.119786 
L 603.315434 76.889658 
L 604.578184 76.504784 
L 605.840933 75.995455 
L 608.366432 75.366052 
L 609.629182 74.404502 
L 610.891931 72.712943 
L 612.154681 71.613653 
L 613.41743 71.000957 
L 614.680179 70.519079 
L 615.942929 70.439821 
L 617.205678 70.111029 
L 620.993927 68.337936 
L 622.256676 67.939081 
L 623.519426 67.816084 
L 624.782175 67.236439 
L 626.044924 66.232966 
L 628.570423 64.729937 
L 629.833173 64.581505 
L 631.095922 65.150877 
L 632.358672 66.411709 
L 633.621421 68.548827 
L 634.884171 70.194232 
L 636.14692 71.312429 
L 639.935168 75.097433 
L 641.197918 76.694867 
L 642.460667 77.340001 
L 643.723417 77.018528 
L 644.986166 76.309574 
L 646.248916 74.929718 
L 647.511665 74.467348 
L 648.774414 75.08624 
L 650.037164 74.776577 
L 651.299913 73.857772 
L 652.562663 73.582785 
L 653.825412 73.706063 
L 655.088162 74.457939 
L 656.350911 76.088782 
L 657.613661 76.803983 
L 658.87641 76.615559 
L 660.13916 77.240634 
L 661.401909 78.370515 
L 663.927408 79.999606 
L 665.190157 80.029201 
L 666.452907 79.124788 
L 667.715656 77.934756 
L 668.978406 76.238925 
L 670.241155 75.347306 
L 671.503905 75.442942 
L 672.766654 75.788213 
L 674.029403 76.769215 
L 675.292153 77.366569 
L 676.554902 77.496904 
L 677.817652 77.423792 
L 679.080401 76.858404 
L 680.343151 76.608639 
L 685.394148 76.745418 
L 686.656898 76.394593 
L 687.919647 75.830328 
L 690.445146 74.152108 
L 691.707896 73.45213 
L 692.970645 72.999132 
L 694.233395 72.918715 
L 696.758893 72.476428 
L 698.021643 72.156582 
L 701.809891 70.777436 
L 703.072641 70.580279 
L 704.33539 70.686631 
L 705.59814 70.285775 
L 706.860889 69.393239 
L 708.123638 68.810063 
L 709.386388 68.402953 
L 710.649137 68.557808 
L 711.911887 69.463329 
L 713.174636 70.119958 
L 714.437386 70.634731 
L 715.700135 70.618905 
L 716.962885 69.821919 
L 718.225634 69.416594 
L 719.488383 69.276628 
L 720.751133 69.526377 
L 722.013882 70.424429 
L 723.276632 71.016538 
L 725.802131 71.634427 
L 727.06488 71.577149 
L 728.32763 71.741646 
L 732.115878 72.726421 
L 733.378627 72.829441 
L 735.904126 72.404887 
L 737.166876 71.97798 
L 738.429625 71.386456 
L 740.955124 69.829924 
L 744.743372 67.37586 
L 746.006122 66.812264 
L 751.05712 65.687029 
L 752.319869 65.450664 
L 753.582618 65.63082 
L 754.845368 66.250629 
L 757.370867 67.143216 
L 758.633616 67.329382 
L 759.896366 67.150089 
L 761.159115 66.661065 
L 764.947363 63.853578 
L 766.210113 63.344084 
L 767.472862 63.437702 
L 768.735612 64.398439 
L 769.998361 66.260873 
L 771.261111 66.758547 
L 772.52386 65.747407 
L 773.78661 66.47377 
L 775.049359 68.553342 
L 776.312109 69.867397 
L 777.574858 70.860587 
L 778.837607 71.52457 
L 780.100357 71.49961 
L 783.888605 71.874269 
L 785.151355 71.752504 
L 786.414104 71.814068 
L 788.939603 72.249398 
L 790.202352 72.404688 
L 791.465102 72.428715 
L 792.727851 72.271691 
L 793.990601 71.760024 
L 796.5161 69.938962 
L 797.778849 69.115338 
L 799.041599 68.536776 
L 800.304348 68.348523 
L 801.567097 68.513323 
L 804.092596 69.677312 
L 807.880845 71.479231 
L 809.143594 71.853553 
L 810.406344 71.998109 
L 811.669093 71.888555 
L 812.931842 71.461358 
L 814.194592 71.457993 
L 815.457341 71.912612 
L 816.720091 71.933203 
L 817.98284 71.652591 
L 820.508339 71.654546 
L 823.033838 71.934434 
L 824.296587 71.54273 
L 829.347585 67.527764 
L 830.610335 66.886483 
L 831.873084 67.054639 
L 833.135834 68.224437 
L 835.661332 70.109969 
L 836.924082 70.854884 
L 839.449581 71.408646 
L 840.71233 71.429511 
L 843.237829 71.134598 
L 847.026077 70.514932 
L 848.288827 70.47486 
L 849.551576 70.649027 
L 852.077075 71.457846 
L 853.339825 71.740481 
L 854.602574 71.745585 
L 855.865324 71.364311 
L 859.653572 69.848761 
L 860.916321 69.830786 
L 862.179071 70.014207 
L 864.70457 70.667513 
L 867.230069 70.853578 
L 869.755567 70.814789 
L 876.069315 71.202422 
L 883.645811 71.350926 
L 884.908561 71.659426 
L 886.17131 72.275016 
L 888.696809 73.186224 
L 889.959559 73.258774 
L 891.222308 72.869954 
L 893.747807 72.562425 
L 895.010556 72.538927 
L 897.536055 72.807447 
L 900.061554 72.947973 
L 902.587053 73.260912 
L 905.112552 73.385988 
L 912.689049 72.976031 
L 919.002796 73.254354 
L 921.528295 73.092759 
L 924.053794 72.59772 
L 930.367541 71.000077 
L 931.63029 70.478368 
L 932.89304 69.738495 
L 939.206787 64.821602 
L 940.469536 64.362565 
L 941.732286 64.356244 
L 942.995035 64.621613 
L 945.520534 65.960891 
L 946.783284 66.743118 
L 948.046033 67.344651 
L 950.571532 67.852368 
L 955.62253 67.69162 
L 958.148029 67.490428 
L 960.673528 67.449233 
L 961.936277 67.355961 
L 963.199026 67.513908 
L 969.512774 69.481074 
L 970.775523 69.641416 
L 973.301022 69.641083 
L 975.826521 69.881861 
L 977.08927 70.152685 
L 978.35202 70.611668 
L 983.403018 73.286796 
L 984.665767 73.38415 
L 985.928516 73.369881 
L 987.191266 73.127197 
L 988.454015 73.199392 
L 992.242264 74.43071 
L 993.505013 74.246779 
L 994.767763 73.345594 
L 996.030512 72.789706 
L 997.293262 72.445173 
L 999.81876 71.57742 
L 1001.08151 71.916023 
L 1003.607009 74.093377 
L 1004.869758 75.127975 
L 1006.132508 76.485547 
L 1007.395257 78.017522 
L 1008.658007 78.719588 
L 1009.920756 78.497588 
L 1012.446255 78.374094 
L 1014.971754 77.745066 
L 1016.234503 77.620204 
L 1017.497253 77.770538 
L 1018.760002 78.473051 
L 1020.022752 79.872008 
L 1021.285501 80.846529 
L 1022.54825 81.444182 
L 1023.811 81.875317 
L 1025.073749 81.880784 
L 1032.650246 82.611987 
L 1036.438494 82.855259 
L 1037.701244 83.1528 
L 1038.963993 83.660295 
L 1041.489492 85.322082 
L 1045.27774 88.320958 
L 1046.54049 89.164565 
L 1047.803239 89.824704 
L 1049.065989 90.269284 
L 1050.328738 90.436962 
L 1051.591488 90.454654 
L 1056.642485 89.820041 
L 1057.905235 89.766237 
L 1059.167984 90.000148 
L 1060.430734 90.580493 
L 1061.693483 90.915385 
L 1062.956233 91.038055 
L 1065.481732 91.632487 
L 1068.00723 92.526672 
L 1069.26998 91.873112 
L 1070.532729 90.062968 
L 1071.795479 89.074603 
L 1073.058228 88.757894 
L 1074.320978 88.274348 
L 1075.583727 88.006818 
L 1076.846477 87.889885 
L 1079.371975 87.86209 
L 1084.422973 87.53092 
L 1088.211222 87.546934 
L 1088.211222 87.546934 
" clip-path="url(#pc2679dc258)" style="fill: none; stroke: #0070c0; stroke-width: 1.5; stroke-linecap: square"/>
   </g>
   <g id="patch_3">
    <path d="M 55.345313 120.53909 
L 55.345313 7.2 
" style="fill: none; stroke: #000000; stroke-width: 0.8; stroke-linejoin: miter; stroke-linecap: square"/>
   </g>
   <g id="patch_4">
    <path d="M 1137.395313 120.53909 
L 1137.395313 7.2 
" style="fill: none; stroke: #000000; stroke-width: 0.8; stroke-linejoin: miter; stroke-linecap: square"/>
   </g>
   <g id="patch_5">
    <path d="M 55.345313 120.53909 
L 1137.395312 120.53909 
" style="fill: none; stroke: #000000; stroke-width: 0.8; stroke-linejoin: miter; stroke-linecap: square"/>
   </g>
   <g id="patch_6">
    <path d="M 55.345313 7.2 
L 1137.395312 7.2 
" style="fill: none; stroke: #000000; stroke-width: 0.8; stroke-linejoin: miter; stroke-linecap: square"/>
   </g>
  </g>
  <g id="axes_2">
   <g id="patch_7">
    <path d="M 55.345313 261.86606 
L 1137.395313 261.86606 
L 1137.395313 148.52697 
L 55.345313 148.52697 
z
" style="fill: #ffffff"/>
   </g>
   <g id="matplotlib.axis_3">
    <g id="xtick_10">
     <g id="line2d_13">
      <g>
       <use xlink:href="#m22ec4fd148" x="104.529403" y="261.86606" style="stroke: #000000; stroke-width: 0.8"/>
      </g>
     </g>
     <g id="text_13">
      <!-- 0 -->
      <g transform="translate(101.348153 276.464498) scale(0.1 -0.1)">
       <use xlink:href="#DejaVuSans-30"/>
      </g>
     </g>
    </g>
    <g id="xtick_11">
     <g id="line2d_14">
      <g>
       <use xlink:href="#m22ec4fd148" x="230.804348" y="261.86606" style="stroke: #000000; stroke-width: 0.8"/>
      </g>
     </g>
     <g id="text_14">
      <!-- 100 -->
      <g transform="translate(221.260598 276.464498) scale(0.1 -0.1)">
       <use xlink:href="#DejaVuSans-31"/>
       <use xlink:href="#DejaVuSans-30" transform="translate(63.623047 0)"/>
       <use xlink:href="#DejaVuSans-30" transform="translate(127.246094 0)"/>
      </g>
     </g>
    </g>
    <g id="xtick_12">
     <g id="line2d_15">
      <g>
       <use xlink:href="#m22ec4fd148" x="357.079293" y="261.86606" style="stroke: #000000; stroke-width: 0.8"/>
      </g>
     </g>
     <g id="text_15">
      <!-- 200 -->
      <g transform="translate(347.535543 276.464498) scale(0.1 -0.1)">
       <use xlink:href="#DejaVuSans-32"/>
       <use xlink:href="#DejaVuSans-30" transform="translate(63.623047 0)"/>
       <use xlink:href="#DejaVuSans-30" transform="translate(127.246094 0)"/>
      </g>
     </g>
    </g>
    <g id="xtick_13">
     <g id="line2d_16">
      <g>
       <use xlink:href="#m22ec4fd148" x="483.354237" y="261.86606" style="stroke: #000000; stroke-width: 0.8"/>
      </g>
     </g>
     <g id="text_16">
      <!-- 300 -->
      <g transform="translate(473.810487 276.464498) scale(0.1 -0.1)">
       <use xlink:href="#DejaVuSans-33"/>
       <use xlink:href="#DejaVuSans-30" transform="translate(63.623047 0)"/>
       <use xlink:href="#DejaVuSans-30" transform="translate(127.246094 0)"/>
      </g>
     </g>
    </g>
    <g id="xtick_14">
     <g id="line2d_17">
      <g>
       <use xlink:href="#m22ec4fd148" x="609.629182" y="261.86606" style="stroke: #000000; stroke-width: 0.8"/>
      </g>
     </g>
     <g id="text_17">
      <!-- 400 -->
      <g transform="translate(600.085432 276.464498) scale(0.1 -0.1)">
       <use xlink:href="#DejaVuSans-34"/>
       <use xlink:href="#DejaVuSans-30" transform="translate(63.623047 0)"/>
       <use xlink:href="#DejaVuSans-30" transform="translate(127.246094 0)"/>
      </g>
     </g>
    </g>
    <g id="xtick_15">
     <g id="line2d_18">
      <g>
       <use xlink:href="#m22ec4fd148" x="735.904126" y="261.86606" style="stroke: #000000; stroke-width: 0.8"/>
      </g>
     </g>
     <g id="text_18">
      <!-- 500 -->
      <g transform="translate(726.360376 276.464498) scale(0.1 -0.1)">
       <use xlink:href="#DejaVuSans-35"/>
       <use xlink:href="#DejaVuSans-30" transform="translate(63.623047 0)"/>
       <use xlink:href="#DejaVuSans-30" transform="translate(127.246094 0)"/>
      </g>
     </g>
    </g>
    <g id="xtick_16">
     <g id="line2d_19">
      <g>
       <use xlink:href="#m22ec4fd148" x="862.179071" y="261.86606" style="stroke: #000000; stroke-width: 0.8"/>
      </g>
     </g>
     <g id="text_19">
      <!-- 600 -->
      <g transform="translate(852.635321 276.464498) scale(0.1 -0.1)">
       <use xlink:href="#DejaVuSans-36"/>
       <use xlink:href="#DejaVuSans-30" transform="translate(63.623047 0)"/>
       <use xlink:href="#DejaVuSans-30" transform="translate(127.246094 0)"/>
      </g>
     </g>
    </g>
    <g id="xtick_17">
     <g id="line2d_20">
      <g>
       <use xlink:href="#m22ec4fd148" x="988.454015" y="261.86606" style="stroke: #000000; stroke-width: 0.8"/>
      </g>
     </g>
     <g id="text_20">
      <!-- 700 -->
      <g transform="translate(978.910265 276.464498) scale(0.1 -0.1)">
       <use xlink:href="#DejaVuSans-37"/>
       <use xlink:href="#DejaVuSans-30" transform="translate(63.623047 0)"/>
       <use xlink:href="#DejaVuSans-30" transform="translate(127.246094 0)"/>
      </g>
     </g>
    </g>
    <g id="xtick_18">
     <g id="line2d_21">
      <g>
       <use xlink:href="#m22ec4fd148" x="1114.72896" y="261.86606" style="stroke: #000000; stroke-width: 0.8"/>
      </g>
     </g>
     <g id="text_21">
      <!-- 800 -->
      <g transform="translate(1105.18521 276.464498) scale(0.1 -0.1)">
       <use xlink:href="#DejaVuSans-38"/>
       <use xlink:href="#DejaVuSans-30" transform="translate(63.623047 0)"/>
       <use xlink:href="#DejaVuSans-30" transform="translate(127.246094 0)"/>
      </g>
     </g>
    </g>
   </g>
   <g id="matplotlib.axis_4">
    <g id="ytick_3">
     <g id="line2d_22">
      <g>
       <use xlink:href="#m4f2e85cf85" x="55.345313" y="260.198349" style="stroke: #000000; stroke-width: 0.8"/>
      </g>
     </g>
     <g id="text_22">
      <!-- −400 -->
      <g transform="translate(20.878125 263.997568) scale(0.1 -0.1)">
       <defs>
        <path id="DejaVuSans-2212" d="M 678 2272 
L 4684 2272 
L 4684 1741 
L 678 1741 
L 678 2272 
z
" transform="scale(0.015625)"/>
       </defs>
       <use xlink:href="#DejaVuSans-2212"/>
       <use xlink:href="#DejaVuSans-34" transform="translate(83.789062 0)"/>
       <use xlink:href="#DejaVuSans-30" transform="translate(147.412109 0)"/>
       <use xlink:href="#DejaVuSans-30" transform="translate(211.035156 0)"/>
      </g>
     </g>
    </g>
    <g id="ytick_4">
     <g id="line2d_23">
      <g>
       <use xlink:href="#m4f2e85cf85" x="55.345313" y="228.447098" style="stroke: #000000; stroke-width: 0.8"/>
      </g>
     </g>
     <g id="text_23">
      <!-- −200 -->
      <g transform="translate(20.878125 232.246317) scale(0.1 -0.1)">
       <use xlink:href="#DejaVuSans-2212"/>
       <use xlink:href="#DejaVuSans-32" transform="translate(83.789062 0)"/>
       <use xlink:href="#DejaVuSans-30" transform="translate(147.412109 0)"/>
       <use xlink:href="#DejaVuSans-30" transform="translate(211.035156 0)"/>
      </g>
     </g>
    </g>
    <g id="ytick_5">
     <g id="line2d_24">
      <g>
       <use xlink:href="#m4f2e85cf85" x="55.345313" y="196.695847" style="stroke: #000000; stroke-width: 0.8"/>
      </g>
     </g>
     <g id="text_24">
      <!-- 0 -->
      <g transform="translate(41.982813 200.495065) scale(0.1 -0.1)">
       <use xlink:href="#DejaVuSans-30"/>
      </g>
     </g>
    </g>
    <g id="ytick_6">
     <g id="line2d_25">
      <g>
       <use xlink:href="#m4f2e85cf85" x="55.345313" y="164.944595" style="stroke: #000000; stroke-width: 0.8"/>
      </g>
     </g>
     <g id="text_25">
      <!-- 200 -->
      <g transform="translate(29.257813 168.743814) scale(0.1 -0.1)">
       <use xlink:href="#DejaVuSans-32"/>
       <use xlink:href="#DejaVuSans-30" transform="translate(63.623047 0)"/>
       <use xlink:href="#DejaVuSans-30" transform="translate(127.246094 0)"/>
      </g>
     </g>
    </g>
    <g id="text_26">
     <!-- co-imf0 -->
     <g transform="translate(14.798438 224.103546) rotate(-90) scale(0.1 -0.1)">
      <defs>
       <path id="DejaVuSans-63" d="M 3122 3366 
L 3122 2828 
Q 2878 2963 2633 3030 
Q 2388 3097 2138 3097 
Q 1578 3097 1268 2742 
Q 959 2388 959 1747 
Q 959 1106 1268 751 
Q 1578 397 2138 397 
Q 2388 397 2633 464 
Q 2878 531 3122 666 
L 3122 134 
Q 2881 22 2623 -34 
Q 2366 -91 2075 -91 
Q 1284 -91 818 406 
Q 353 903 353 1747 
Q 353 2603 823 3093 
Q 1294 3584 2113 3584 
Q 2378 3584 2631 3529 
Q 2884 3475 3122 3366 
z
" transform="scale(0.015625)"/>
       <path id="DejaVuSans-6f" d="M 1959 3097 
Q 1497 3097 1228 2736 
Q 959 2375 959 1747 
Q 959 1119 1226 758 
Q 1494 397 1959 397 
Q 2419 397 2687 759 
Q 2956 1122 2956 1747 
Q 2956 2369 2687 2733 
Q 2419 3097 1959 3097 
z
M 1959 3584 
Q 2709 3584 3137 3096 
Q 3566 2609 3566 1747 
Q 3566 888 3137 398 
Q 2709 -91 1959 -91 
Q 1206 -91 779 398 
Q 353 888 353 1747 
Q 353 2609 779 3096 
Q 1206 3584 1959 3584 
z
" transform="scale(0.015625)"/>
       <path id="DejaVuSans-2d" d="M 313 2009 
L 1997 2009 
L 1997 1497 
L 313 1497 
L 313 2009 
z
" transform="scale(0.015625)"/>
       <path id="DejaVuSans-6d" d="M 3328 2828 
Q 3544 3216 3844 3400 
Q 4144 3584 4550 3584 
Q 5097 3584 5394 3201 
Q 5691 2819 5691 2113 
L 5691 0 
L 5113 0 
L 5113 2094 
Q 5113 2597 4934 2840 
Q 4756 3084 4391 3084 
Q 3944 3084 3684 2787 
Q 3425 2491 3425 1978 
L 3425 0 
L 2847 0 
L 2847 2094 
Q 2847 2600 2669 2842 
Q 2491 3084 2119 3084 
Q 1678 3084 1418 2786 
Q 1159 2488 1159 1978 
L 1159 0 
L 581 0 
L 581 3500 
L 1159 3500 
L 1159 2956 
Q 1356 3278 1631 3431 
Q 1906 3584 2284 3584 
Q 2666 3584 2933 3390 
Q 3200 3197 3328 2828 
z
" transform="scale(0.015625)"/>
       <path id="DejaVuSans-66" d="M 2375 4863 
L 2375 4384 
L 1825 4384 
Q 1516 4384 1395 4259 
Q 1275 4134 1275 3809 
L 1275 3500 
L 2222 3500 
L 2222 3053 
L 1275 3053 
L 1275 0 
L 697 0 
L 697 3053 
L 147 3053 
L 147 3500 
L 697 3500 
L 697 3744 
Q 697 4328 969 4595 
Q 1241 4863 1831 4863 
L 2375 4863 
z
" transform="scale(0.015625)"/>
      </defs>
      <use xlink:href="#DejaVuSans-63"/>
      <use xlink:href="#DejaVuSans-6f" transform="translate(54.980469 0)"/>
      <use xlink:href="#DejaVuSans-2d" transform="translate(118.037109 0)"/>
      <use xlink:href="#DejaVuSans-69" transform="translate(154.121094 0)"/>
      <use xlink:href="#DejaVuSans-6d" transform="translate(181.904297 0)"/>
      <use xlink:href="#DejaVuSans-66" transform="translate(279.316406 0)"/>
      <use xlink:href="#DejaVuSans-30" transform="translate(314.521484 0)"/>
     </g>
    </g>
   </g>
   <g id="line2d_26">
    <path d="M 104.529403 256.714283 
L 105.792153 252.335193 
L 107.054902 246.388371 
L 109.580401 229.598586 
L 110.843151 220.966487 
L 113.36865 201.481537 
L 114.631399 193.302441 
L 115.894148 187.165695 
L 117.156898 186.374195 
L 118.419647 192.050601 
L 119.682397 189.612439 
L 120.945146 179.141562 
L 122.207896 173.340243 
L 123.470645 169.520454 
L 124.733395 168.689495 
L 125.996144 172.98772 
L 127.258893 173.44227 
L 128.521643 170.509406 
L 129.784392 165.933613 
L 131.047142 159.358421 
L 132.309891 159.778193 
L 133.572641 161.464809 
L 134.83539 165.635183 
L 136.09814 170.906119 
L 137.360889 178.72143 
L 138.623638 188.518983 
L 139.886388 196.125329 
L 141.149137 201.131987 
L 142.411887 204.530634 
L 143.674636 204.99288 
L 144.937386 207.340994 
L 146.200135 211.573324 
L 148.725634 218.668671 
L 149.988383 223.130547 
L 151.251133 228.283372 
L 152.513882 227.167848 
L 153.776632 219.213674 
L 155.039381 209.307362 
L 156.302131 180.648294 
L 157.56488 170.145512 
L 158.82763 173.361754 
L 160.090379 178.04293 
L 161.353128 188.168779 
L 162.615878 195.828745 
L 163.878627 198.834088 
L 165.141377 202.388808 
L 166.404126 203.742545 
L 167.666876 202.739935 
L 168.929625 199.156633 
L 170.192375 197.23783 
L 171.455124 197.122406 
L 172.717873 196.087122 
L 173.980623 195.272729 
L 175.243372 196.561665 
L 176.506122 199.908506 
L 177.768871 198.039177 
L 179.031621 203.285106 
L 180.29437 201.680448 
L 181.55712 196.852704 
L 182.819869 196.674267 
L 185.345368 193.14467 
L 186.608117 189.633408 
L 187.870867 187.58689 
L 189.133616 167.96897 
L 190.396366 182.797706 
L 191.659115 189.719561 
L 192.921865 175.44787 
L 194.184614 168.786259 
L 195.447363 158.337801 
L 196.710113 153.678747 
L 197.972862 166.246701 
L 199.235612 200.806054 
L 200.498361 220.02682 
L 201.761111 226.435307 
L 203.02386 218.969503 
L 204.28661 188.700241 
L 205.549359 182.914207 
L 206.812109 201.204155 
L 208.074858 207.181036 
L 209.337607 209.73131 
L 210.600357 211.346918 
L 211.863106 207.11817 
L 213.125856 204.899943 
L 214.388605 203.808948 
L 215.651355 205.700007 
L 216.914104 195.554769 
L 218.176854 197.009001 
L 219.439603 192.365831 
L 220.702352 192.58059 
L 221.965102 187.770833 
L 223.227851 189.089946 
L 224.490601 193.987235 
L 225.75335 216.01547 
L 227.0161 216.219587 
L 228.278849 209.206888 
L 229.541599 193.606288 
L 230.804348 180.099319 
L 232.067097 168.629888 
L 233.329847 175.882604 
L 234.592596 201.029414 
L 235.855346 204.700239 
L 237.118095 210.892339 
L 238.380845 207.124614 
L 239.643594 205.540214 
L 240.906344 203.735586 
L 242.169093 205.642157 
L 243.431842 203.417295 
L 244.694592 198.379793 
L 245.957341 195.868514 
L 247.220091 194.930718 
L 248.48284 195.207706 
L 249.74559 197.67865 
L 251.008339 198.158786 
L 252.271089 196.6313 
L 253.533838 194.404365 
L 254.796587 190.473274 
L 256.059337 185.542105 
L 257.322086 179.476789 
L 258.584836 180.414025 
L 259.847585 189.266316 
L 261.110335 194.772987 
L 262.373084 198.573484 
L 264.898583 210.192858 
L 266.161332 208.740425 
L 267.424082 199.259029 
L 268.686831 193.827829 
L 269.949581 191.112691 
L 271.21233 191.512888 
L 272.47508 194.269989 
L 273.737829 194.839894 
L 275.000579 192.373034 
L 276.263328 192.350602 
L 277.526077 193.43595 
L 278.788827 196.29333 
L 280.051576 201.728467 
L 281.314326 205.83648 
L 282.577075 208.799959 
L 283.839825 210.705232 
L 285.102574 210.606147 
L 286.365324 206.897315 
L 287.628073 198.906506 
L 290.153572 185.343952 
L 291.416321 182.221144 
L 292.679071 183.989399 
L 293.94182 187.178736 
L 295.20457 193.00493 
L 296.467319 197.452043 
L 297.730069 199.895959 
L 298.992818 201.335979 
L 300.255567 200.44752 
L 301.518317 200.940207 
L 302.781066 202.692253 
L 304.043816 202.289717 
L 305.306565 200.292231 
L 306.569315 200.761924 
L 307.832064 203.472076 
L 309.094814 205.228838 
L 310.357563 206.740285 
L 311.620312 207.107003 
L 312.883062 205.733196 
L 314.145811 202.324502 
L 316.67131 189.838642 
L 317.93406 182.748289 
L 319.196809 183.022319 
L 320.459559 191.951511 
L 321.722308 198.114246 
L 322.985058 203.307541 
L 324.247807 202.834941 
L 325.510556 196.274511 
L 326.773306 195.752521 
L 328.036055 201.040703 
L 329.298805 201.751431 
L 331.824304 198.351922 
L 335.612552 188.483111 
L 336.875301 186.803136 
L 338.138051 187.338949 
L 339.4008 188.841891 
L 340.66355 191.976572 
L 343.189049 199.149854 
L 345.714548 208.157327 
L 346.977297 208.157078 
L 348.240046 202.904632 
L 349.502796 199.626639 
L 350.765545 197.319096 
L 352.028295 198.153869 
L 353.291044 203.783193 
L 354.553794 206.837453 
L 357.079293 209.313993 
L 358.342042 209.211456 
L 359.604791 209.914012 
L 360.867541 211.413001 
L 362.13029 209.108197 
L 363.39304 203.063586 
L 364.655789 199.262699 
L 365.918539 197.066078 
L 368.444038 190.816724 
L 369.706787 189.984723 
L 370.969536 191.475421 
L 372.232286 188.858485 
L 373.495035 182.169901 
L 374.757785 180.480943 
L 376.020534 182.943932 
L 377.283284 185.061667 
L 378.546033 188.436068 
L 379.808783 189.750313 
L 381.071532 188.275107 
L 382.334281 191.618357 
L 383.597031 199.289753 
L 384.85978 203.90131 
L 386.12253 206.515192 
L 387.385279 207.172537 
L 388.648029 204.386744 
L 389.910778 203.306797 
L 391.173528 203.675241 
L 392.436277 202.654615 
L 393.699026 201.183136 
L 398.750024 196.179822 
L 400.012774 195.335149 
L 401.275523 194.98905 
L 402.538273 195.284847 
L 403.801022 196.39678 
L 405.063771 197.144023 
L 406.326521 197.547311 
L 407.58927 197.607476 
L 410.114769 196.325681 
L 411.377519 195.427011 
L 412.640268 194.972308 
L 413.903018 195.10478 
L 415.165767 194.259189 
L 416.428516 192.534626 
L 417.691266 194.141851 
L 420.216765 204.160135 
L 421.479514 210.081449 
L 422.742264 214.169648 
L 424.005013 215.700008 
L 425.267763 211.923027 
L 426.530512 201.415481 
L 427.793262 193.507387 
L 430.31876 181.315647 
L 432.844259 172.465655 
L 434.107009 168.684968 
L 435.369758 168.212433 
L 436.632508 171.189247 
L 437.895257 174.729812 
L 439.158007 179.410864 
L 440.420756 180.952965 
L 441.683505 178.440964 
L 442.946255 179.817159 
L 444.209004 184.202263 
L 445.471754 186.804656 
L 446.734503 188.817231 
L 447.997253 189.942934 
L 449.260002 189.445912 
L 450.522752 187.930576 
L 451.785501 185.010937 
L 453.04825 182.470136 
L 454.311 180.407404 
L 455.573749 179.249597 
L 456.836499 179.580081 
L 458.099248 180.698059 
L 459.361998 182.988507 
L 460.624747 184.013992 
L 461.887497 183.573286 
L 463.150246 183.988374 
L 464.412995 184.716929 
L 466.938494 185.904762 
L 468.201244 186.888464 
L 469.463993 188.234087 
L 470.726743 190.239007 
L 471.989492 193.02698 
L 473.252242 196.130335 
L 477.04049 206.635451 
L 478.303239 209.43628 
L 479.565989 211.368276 
L 480.828738 212.268463 
L 482.091488 211.832072 
L 483.354237 210.373192 
L 485.879736 204.837575 
L 487.142485 201.872303 
L 488.405235 198.023078 
L 489.667984 193.532941 
L 490.930734 190.341129 
L 492.193483 188.571395 
L 493.456233 187.443318 
L 494.718982 187.502738 
L 495.981732 189.232344 
L 497.244481 192.779732 
L 498.50723 195.477732 
L 501.032729 199.237909 
L 502.295479 200.645806 
L 503.558228 201.038453 
L 504.820978 200.272009 
L 506.083727 199.22936 
L 508.609226 196.386602 
L 509.871975 195.335044 
L 511.134725 194.774946 
L 512.397474 194.987458 
L 513.660224 195.389568 
L 514.922973 196.140493 
L 516.185723 196.608608 
L 517.448472 196.668966 
L 519.973971 197.274745 
L 521.23672 197.252601 
L 523.762219 196.687981 
L 526.287718 196.418638 
L 528.813217 196.553562 
L 530.075967 196.698247 
L 531.338716 197.262952 
L 532.601465 198.273616 
L 533.864215 198.387345 
L 537.652463 196.082859 
L 538.915213 194.851747 
L 540.177962 193.321534 
L 541.440712 192.743249 
L 542.703461 193.221975 
L 543.966211 194.08153 
L 546.491709 197.386362 
L 547.754459 199.186703 
L 549.017208 200.576796 
L 550.279958 201.326697 
L 551.542707 201.709818 
L 552.805457 201.482622 
L 554.068206 199.849291 
L 555.330956 196.655193 
L 556.593705 194.122693 
L 557.856454 192.157736 
L 560.381953 187.55917 
L 561.644703 185.971288 
L 562.907452 185.10652 
L 564.170202 184.834704 
L 565.432951 185.358349 
L 566.695701 186.545693 
L 567.95845 188.464684 
L 569.221199 190.802293 
L 574.272197 201.565747 
L 576.797696 206.5193 
L 579.323195 210.859084 
L 580.585944 212.720222 
L 581.848694 215.014751 
L 584.374193 220.401816 
L 585.636942 223.015159 
L 586.899692 223.477046 
L 588.162441 221.474422 
L 590.68794 218.7675 
L 591.950689 219.358285 
L 593.213439 222.590572 
L 594.476188 223.044203 
L 595.738938 221.066463 
L 597.001687 218.401696 
L 598.264437 213.940861 
L 599.527186 210.639947 
L 600.789936 208.676371 
L 602.052685 207.61399 
L 603.315434 208.287934 
L 604.578184 208.301863 
L 605.840933 207.771143 
L 607.103683 207.862242 
L 608.366432 208.126703 
L 609.629182 205.602127 
L 610.891931 200.060596 
L 612.154681 196.833178 
L 613.41743 195.486339 
L 614.680179 194.576891 
L 615.942929 195.195161 
L 617.205678 194.701535 
L 619.731177 191.437152 
L 620.993927 189.348267 
L 622.256676 188.083875 
L 623.519426 187.794599 
L 624.782175 185.515473 
L 626.044924 181.37277 
L 628.570423 174.632416 
L 629.833173 173.445541 
L 631.095922 174.983326 
L 632.358672 179.169266 
L 633.621421 186.751144 
L 634.884171 192.233098 
L 636.14692 195.483647 
L 637.409669 199.304152 
L 638.672419 202.559744 
L 639.935168 206.526411 
L 641.197918 211.468632 
L 642.460667 212.546808 
L 643.723417 209.719644 
L 644.986166 205.336351 
L 646.248916 198.268704 
L 647.511665 194.946467 
L 648.774414 196.045608 
L 650.037164 193.469275 
L 651.299913 188.522738 
L 652.562663 186.2845 
L 653.825412 185.779759 
L 655.088162 187.940563 
L 656.350911 193.792644 
L 657.613661 196.073287 
L 658.87641 194.836758 
L 660.13916 196.993122 
L 661.401909 201.292874 
L 663.927408 207.612453 
L 665.190157 207.716695 
L 666.452907 204.112091 
L 667.715656 199.418906 
L 668.978406 192.739597 
L 670.241155 189.368289 
L 671.503905 190.039886 
L 672.766654 191.776789 
L 674.029403 196.136608 
L 675.292153 199.0013 
L 676.554902 200.033233 
L 677.817652 200.294232 
L 679.080401 198.616598 
L 680.343151 198.26014 
L 682.86865 199.98528 
L 684.131399 201.376937 
L 685.394148 201.877491 
L 686.656898 201.339649 
L 687.919647 199.970582 
L 689.182397 197.325501 
L 690.445146 195.0888 
L 691.707896 193.231564 
L 692.970645 192.375603 
L 694.233395 193.020838 
L 695.496144 193.193109 
L 696.758893 193.147567 
L 698.021643 192.782043 
L 700.547142 190.753191 
L 701.809891 189.785296 
L 703.072641 189.754383 
L 704.33539 190.891053 
L 705.59814 189.915431 
L 706.860889 186.88316 
L 708.123638 185.021322 
L 709.386388 183.783653 
L 710.649137 184.73763 
L 711.911887 188.641559 
L 713.174636 191.481426 
L 714.437386 193.691467 
L 715.700135 193.716817 
L 716.962885 190.553097 
L 718.225634 188.94752 
L 719.488383 188.399361 
L 720.751133 189.417945 
L 722.013882 193.056626 
L 723.276632 195.475941 
L 724.539381 197.001402 
L 725.802131 198.111908 
L 727.06488 198.012983 
L 728.32763 198.86326 
L 729.590379 200.581233 
L 730.853128 202.096086 
L 732.115878 203.820571 
L 733.378627 204.73746 
L 734.641377 204.67309 
L 735.904126 204.328776 
L 737.166876 203.411073 
L 738.429625 201.920619 
L 740.955124 197.709754 
L 743.480623 193.346798 
L 744.743372 191.551778 
L 746.006122 190.685232 
L 748.531621 191.257327 
L 749.79437 191.728288 
L 752.319869 193.059304 
L 753.582618 195.336444 
L 754.845368 199.29069 
L 756.108117 202.536878 
L 757.370867 205.310804 
L 758.633616 206.956059 
L 759.896366 206.872808 
L 761.159115 205.280678 
L 762.421865 201.686739 
L 763.684614 197.720684 
L 764.947363 193.303189 
L 766.210113 190.373129 
L 767.472862 189.519672 
L 768.735612 191.799952 
L 769.998361 197.368605 
L 771.261111 197.131146 
L 772.52386 190.563538 
L 773.78661 190.866978 
L 775.049359 196.555378 
L 776.312109 199.16665 
L 777.574858 200.572032 
L 778.837607 200.816114 
L 780.100357 198.526745 
L 781.363106 197.273592 
L 782.625856 196.740096 
L 785.151355 194.532723 
L 786.414104 194.662627 
L 791.465102 200.004617 
L 792.727851 200.48898 
L 793.990601 199.568538 
L 796.5161 194.400724 
L 797.778849 192.03831 
L 799.041599 190.534441 
L 800.304348 190.433948 
L 801.567097 191.565536 
L 806.618095 201.732437 
L 807.880845 203.706004 
L 809.143594 205.014627 
L 810.406344 205.379538 
L 811.669093 204.731593 
L 812.931842 202.841305 
L 814.194592 202.712545 
L 815.457341 204.491386 
L 816.720091 204.553767 
L 817.98284 203.442703 
L 819.24559 203.274657 
L 820.508339 203.566495 
L 821.771089 203.990142 
L 823.033838 204.855427 
L 824.296587 203.350399 
L 829.347585 187.244269 
L 830.610335 184.587573 
L 831.873084 185.14995 
L 833.135834 189.701223 
L 835.661332 196.80456 
L 836.924082 199.472739 
L 838.186831 200.353734 
L 839.449581 200.850492 
L 840.71233 200.409615 
L 841.97508 199.448262 
L 845.763328 195.096075 
L 847.026077 194.05917 
L 848.288827 193.653177 
L 849.551576 194.263075 
L 850.814326 196.160558 
L 853.339825 199.261724 
L 854.602574 199.73073 
L 855.865324 198.748868 
L 857.128073 197.251689 
L 858.390822 195.304419 
L 859.653572 194.226035 
L 860.916321 194.431576 
L 862.179071 195.256324 
L 863.44182 196.655283 
L 864.70457 197.557707 
L 865.967319 197.660202 
L 867.230069 197.529377 
L 868.492818 196.846115 
L 869.755567 196.501254 
L 873.543816 196.694381 
L 876.069315 196.877409 
L 877.332064 196.760836 
L 879.857563 196.086927 
L 881.120312 195.795743 
L 883.645811 194.820877 
L 884.908561 195.410282 
L 886.17131 197.231494 
L 887.43406 198.588353 
L 888.696809 199.712863 
L 889.959559 199.517204 
L 891.222308 197.550321 
L 892.485058 196.376558 
L 893.747807 195.707896 
L 895.010556 195.382796 
L 896.273306 195.919517 
L 897.536055 196.076637 
L 898.798805 195.963357 
L 900.061554 196.269042 
L 901.324304 196.802258 
L 902.587053 197.133797 
L 903.849803 197.30885 
L 905.112552 197.198401 
L 908.9008 195.674628 
L 910.16355 195.303985 
L 911.426299 195.185549 
L 912.689049 195.418366 
L 915.214548 196.913573 
L 916.477297 197.861707 
L 920.265545 201.152017 
L 921.528295 201.885022 
L 922.791044 202.428209 
L 925.316543 202.953229 
L 927.842042 203.639386 
L 929.104791 204.149517 
L 930.367541 204.174175 
L 931.63029 203.704179 
L 932.89304 202.315613 
L 935.418539 197.081235 
L 937.944038 191.296553 
L 939.206787 189.06127 
L 940.469536 188.069788 
L 941.732286 188.695699 
L 942.995035 190.213716 
L 945.520534 195.938772 
L 946.783284 199.005917 
L 948.046033 201.204419 
L 949.308783 202.103399 
L 950.571532 202.441635 
L 954.35978 200.344185 
L 955.62253 199.223743 
L 956.885279 197.929404 
L 958.148029 196.885981 
L 959.410778 196.158336 
L 961.936277 194.064763 
L 963.199026 193.978463 
L 968.250024 197.771242 
L 969.512774 198.13607 
L 970.775523 197.879446 
L 972.038273 196.752273 
L 973.301022 195.866043 
L 974.563771 195.139972 
L 975.826521 194.611358 
L 977.08927 194.538541 
L 978.35202 195.205501 
L 980.877519 198.524768 
L 982.140268 200.508583 
L 983.403018 201.289382 
L 984.665767 200.571333 
L 985.928516 199.451828 
L 987.191266 197.471206 
L 988.454015 196.813458 
L 989.716765 197.735693 
L 990.979514 198.356924 
L 992.242264 199.222156 
L 993.505013 197.688418 
L 994.767763 193.278267 
L 996.030512 190.27237 
L 997.293262 188.122136 
L 999.81876 183.078989 
L 1001.08151 183.658001 
L 1002.344259 187.513289 
L 1004.869758 194.148037 
L 1006.132508 198.762494 
L 1007.395257 204.058726 
L 1008.658007 205.977916 
L 1009.920756 204.138456 
L 1011.183505 203.008242 
L 1012.446255 201.662372 
L 1013.709004 199.448941 
L 1014.971754 197.010088 
L 1016.234503 195.393873 
L 1017.497253 194.848847 
L 1018.760002 196.491194 
L 1020.022752 200.901328 
L 1021.285501 203.552378 
L 1022.54825 204.634202 
L 1023.811 204.994325 
L 1025.073749 203.584114 
L 1026.336499 202.627494 
L 1027.599248 202.001971 
L 1028.861998 200.798077 
L 1032.650246 196.712259 
L 1033.912995 195.106229 
L 1035.175745 193.289063 
L 1036.438494 191.978054 
L 1037.701244 191.197706 
L 1038.963993 191.250678 
L 1040.226743 192.385223 
L 1041.489492 193.95934 
L 1044.014991 198.253182 
L 1045.27774 200.170637 
L 1046.54049 201.674856 
L 1047.803239 202.484402 
L 1049.065989 202.482988 
L 1050.328738 201.431938 
L 1051.591488 199.877209 
L 1054.116987 195.607863 
L 1055.379736 193.766566 
L 1056.642485 192.174159 
L 1057.905235 191.112697 
L 1059.167984 191.419356 
L 1060.430734 193.34921 
L 1061.693483 194.510916 
L 1062.956233 195.051808 
L 1064.218982 196.449407 
L 1065.481732 198.280224 
L 1066.744481 200.649774 
L 1068.00723 203.748958 
L 1069.26998 202.39561 
L 1070.532729 196.552473 
L 1071.795479 194.127463 
L 1073.058228 194.467268 
L 1074.320978 194.117795 
L 1075.583727 194.566435 
L 1076.846477 195.488802 
L 1078.109226 196.700076 
L 1079.371975 197.546632 
L 1080.634725 197.833136 
L 1081.897474 198.00519 
L 1084.422973 197.665386 
L 1085.685723 197.599277 
L 1088.211222 197.170789 
L 1088.211222 197.170789 
" clip-path="url(#pff59a5c73a)" style="fill: none; stroke: #f27f19; stroke-width: 1.5; stroke-linecap: square"/>
   </g>
   <g id="patch_8">
    <path d="M 55.345313 261.86606 
L 55.345313 148.52697 
" style="fill: none; stroke: #000000; stroke-width: 0.8; stroke-linejoin: miter; stroke-linecap: square"/>
   </g>
   <g id="patch_9">
    <path d="M 1137.395313 261.86606 
L 1137.395313 148.52697 
" style="fill: none; stroke: #000000; stroke-width: 0.8; stroke-linejoin: miter; stroke-linecap: square"/>
   </g>
   <g id="patch_10">
    <path d="M 55.345313 261.86606 
L 1137.395312 261.86606 
" style="fill: none; stroke: #000000; stroke-width: 0.8; stroke-linejoin: miter; stroke-linecap: square"/>
   </g>
   <g id="patch_11">
    <path d="M 55.345313 148.52697 
L 1137.395312 148.52697 
" style="fill: none; stroke: #000000; stroke-width: 0.8; stroke-linejoin: miter; stroke-linecap: square"/>
   </g>
  </g>
  <g id="axes_3">
   <g id="patch_12">
    <path d="M 55.345313 403.19303 
L 1137.395313 403.19303 
L 1137.395313 289.85394 
L 55.345313 289.85394 
z
" style="fill: #ffffff"/>
   </g>
   <g id="matplotlib.axis_5">
    <g id="xtick_19">
     <g id="line2d_27">
      <g>
       <use xlink:href="#m22ec4fd148" x="104.529403" y="403.19303" style="stroke: #000000; stroke-width: 0.8"/>
      </g>
     </g>
     <g id="text_27">
      <!-- 0 -->
      <g transform="translate(101.348153 417.791468) scale(0.1 -0.1)">
       <use xlink:href="#DejaVuSans-30"/>
      </g>
     </g>
    </g>
    <g id="xtick_20">
     <g id="line2d_28">
      <g>
       <use xlink:href="#m22ec4fd148" x="230.804348" y="403.19303" style="stroke: #000000; stroke-width: 0.8"/>
      </g>
     </g>
     <g id="text_28">
      <!-- 100 -->
      <g transform="translate(221.260598 417.791468) scale(0.1 -0.1)">
       <use xlink:href="#DejaVuSans-31"/>
       <use xlink:href="#DejaVuSans-30" transform="translate(63.623047 0)"/>
       <use xlink:href="#DejaVuSans-30" transform="translate(127.246094 0)"/>
      </g>
     </g>
    </g>
    <g id="xtick_21">
     <g id="line2d_29">
      <g>
       <use xlink:href="#m22ec4fd148" x="357.079293" y="403.19303" style="stroke: #000000; stroke-width: 0.8"/>
      </g>
     </g>
     <g id="text_29">
      <!-- 200 -->
      <g transform="translate(347.535543 417.791468) scale(0.1 -0.1)">
       <use xlink:href="#DejaVuSans-32"/>
       <use xlink:href="#DejaVuSans-30" transform="translate(63.623047 0)"/>
       <use xlink:href="#DejaVuSans-30" transform="translate(127.246094 0)"/>
      </g>
     </g>
    </g>
    <g id="xtick_22">
     <g id="line2d_30">
      <g>
       <use xlink:href="#m22ec4fd148" x="483.354237" y="403.19303" style="stroke: #000000; stroke-width: 0.8"/>
      </g>
     </g>
     <g id="text_30">
      <!-- 300 -->
      <g transform="translate(473.810487 417.791468) scale(0.1 -0.1)">
       <use xlink:href="#DejaVuSans-33"/>
       <use xlink:href="#DejaVuSans-30" transform="translate(63.623047 0)"/>
       <use xlink:href="#DejaVuSans-30" transform="translate(127.246094 0)"/>
      </g>
     </g>
    </g>
    <g id="xtick_23">
     <g id="line2d_31">
      <g>
       <use xlink:href="#m22ec4fd148" x="609.629182" y="403.19303" style="stroke: #000000; stroke-width: 0.8"/>
      </g>
     </g>
     <g id="text_31">
      <!-- 400 -->
      <g transform="translate(600.085432 417.791468) scale(0.1 -0.1)">
       <use xlink:href="#DejaVuSans-34"/>
       <use xlink:href="#DejaVuSans-30" transform="translate(63.623047 0)"/>
       <use xlink:href="#DejaVuSans-30" transform="translate(127.246094 0)"/>
      </g>
     </g>
    </g>
    <g id="xtick_24">
     <g id="line2d_32">
      <g>
       <use xlink:href="#m22ec4fd148" x="735.904126" y="403.19303" style="stroke: #000000; stroke-width: 0.8"/>
      </g>
     </g>
     <g id="text_32">
      <!-- 500 -->
      <g transform="translate(726.360376 417.791468) scale(0.1 -0.1)">
       <use xlink:href="#DejaVuSans-35"/>
       <use xlink:href="#DejaVuSans-30" transform="translate(63.623047 0)"/>
       <use xlink:href="#DejaVuSans-30" transform="translate(127.246094 0)"/>
      </g>
     </g>
    </g>
    <g id="xtick_25">
     <g id="line2d_33">
      <g>
       <use xlink:href="#m22ec4fd148" x="862.179071" y="403.19303" style="stroke: #000000; stroke-width: 0.8"/>
      </g>
     </g>
     <g id="text_33">
      <!-- 600 -->
      <g transform="translate(852.635321 417.791468) scale(0.1 -0.1)">
       <use xlink:href="#DejaVuSans-36"/>
       <use xlink:href="#DejaVuSans-30" transform="translate(63.623047 0)"/>
       <use xlink:href="#DejaVuSans-30" transform="translate(127.246094 0)"/>
      </g>
     </g>
    </g>
    <g id="xtick_26">
     <g id="line2d_34">
      <g>
       <use xlink:href="#m22ec4fd148" x="988.454015" y="403.19303" style="stroke: #000000; stroke-width: 0.8"/>
      </g>
     </g>
     <g id="text_34">
      <!-- 700 -->
      <g transform="translate(978.910265 417.791468) scale(0.1 -0.1)">
       <use xlink:href="#DejaVuSans-37"/>
       <use xlink:href="#DejaVuSans-30" transform="translate(63.623047 0)"/>
       <use xlink:href="#DejaVuSans-30" transform="translate(127.246094 0)"/>
      </g>
     </g>
    </g>
    <g id="xtick_27">
     <g id="line2d_35">
      <g>
       <use xlink:href="#m22ec4fd148" x="1114.72896" y="403.19303" style="stroke: #000000; stroke-width: 0.8"/>
      </g>
     </g>
     <g id="text_35">
      <!-- 800 -->
      <g transform="translate(1105.18521 417.791468) scale(0.1 -0.1)">
       <use xlink:href="#DejaVuSans-38"/>
       <use xlink:href="#DejaVuSans-30" transform="translate(63.623047 0)"/>
       <use xlink:href="#DejaVuSans-30" transform="translate(127.246094 0)"/>
      </g>
     </g>
    </g>
   </g>
   <g id="matplotlib.axis_6">
    <g id="ytick_7">
     <g id="line2d_36">
      <g>
       <use xlink:href="#m4f2e85cf85" x="55.345313" y="378.387134" style="stroke: #000000; stroke-width: 0.8"/>
      </g>
     </g>
     <g id="text_36">
      <!-- −500 -->
      <g transform="translate(20.878125 382.186353) scale(0.1 -0.1)">
       <use xlink:href="#DejaVuSans-2212"/>
       <use xlink:href="#DejaVuSans-35" transform="translate(83.789062 0)"/>
       <use xlink:href="#DejaVuSans-30" transform="translate(147.412109 0)"/>
       <use xlink:href="#DejaVuSans-30" transform="translate(211.035156 0)"/>
      </g>
     </g>
    </g>
    <g id="ytick_8">
     <g id="line2d_37">
      <g>
       <use xlink:href="#m4f2e85cf85" x="55.345313" y="352.342965" style="stroke: #000000; stroke-width: 0.8"/>
      </g>
     </g>
     <g id="text_37">
      <!-- 0 -->
      <g transform="translate(41.982813 356.142184) scale(0.1 -0.1)">
       <use xlink:href="#DejaVuSans-30"/>
      </g>
     </g>
    </g>
    <g id="ytick_9">
     <g id="line2d_38">
      <g>
       <use xlink:href="#m4f2e85cf85" x="55.345313" y="326.298797" style="stroke: #000000; stroke-width: 0.8"/>
      </g>
     </g>
     <g id="text_38">
      <!-- 500 -->
      <g transform="translate(29.257813 330.098016) scale(0.1 -0.1)">
       <use xlink:href="#DejaVuSans-35"/>
       <use xlink:href="#DejaVuSans-30" transform="translate(63.623047 0)"/>
       <use xlink:href="#DejaVuSans-30" transform="translate(127.246094 0)"/>
      </g>
     </g>
    </g>
    <g id="ytick_10">
     <g id="line2d_39">
      <g>
       <use xlink:href="#m4f2e85cf85" x="55.345313" y="300.254628" style="stroke: #000000; stroke-width: 0.8"/>
      </g>
     </g>
     <g id="text_39">
      <!-- 1000 -->
      <g transform="translate(22.895313 304.053847) scale(0.1 -0.1)">
       <use xlink:href="#DejaVuSans-31"/>
       <use xlink:href="#DejaVuSans-30" transform="translate(63.623047 0)"/>
       <use xlink:href="#DejaVuSans-30" transform="translate(127.246094 0)"/>
       <use xlink:href="#DejaVuSans-30" transform="translate(190.869141 0)"/>
      </g>
     </g>
    </g>
    <g id="text_40">
     <!-- co-imf1 -->
     <g transform="translate(14.798438 365.430516) rotate(-90) scale(0.1 -0.1)">
      <use xlink:href="#DejaVuSans-63"/>
      <use xlink:href="#DejaVuSans-6f" transform="translate(54.980469 0)"/>
      <use xlink:href="#DejaVuSans-2d" transform="translate(118.037109 0)"/>
      <use xlink:href="#DejaVuSans-69" transform="translate(154.121094 0)"/>
      <use xlink:href="#DejaVuSans-6d" transform="translate(181.904297 0)"/>
      <use xlink:href="#DejaVuSans-66" transform="translate(279.316406 0)"/>
      <use xlink:href="#DejaVuSans-31" transform="translate(314.521484 0)"/>
     </g>
    </g>
   </g>
   <g id="line2d_40">
    <path d="M 104.529403 398.041253 
L 107.054902 396.963193 
L 109.580401 395.649314 
L 112.1059 394.117882 
L 114.631399 392.392869 
L 118.419647 389.488176 
L 122.207896 386.267296 
L 127.258893 381.606193 
L 133.572641 375.431749 
L 143.674636 365.218743 
L 158.82763 349.582657 
L 163.878627 344.067281 
L 166.404126 341.064552 
L 168.929625 337.779755 
L 171.455124 334.123483 
L 173.980623 329.988863 
L 176.506122 325.328637 
L 181.55712 315.216354 
L 185.345368 307.84439 
L 187.870867 303.472057 
L 189.133616 301.537007 
L 190.396366 299.809012 
L 191.659115 298.317574 
L 192.921865 297.090488 
L 194.184614 296.155394 
L 195.447363 295.507133 
L 196.710113 295.133517 
L 197.972862 295.005717 
L 199.235612 295.103955 
L 200.498361 295.400461 
L 201.761111 295.871681 
L 203.02386 296.492958 
L 205.549359 298.086688 
L 209.337607 300.986164 
L 213.125856 303.905041 
L 215.651355 305.577238 
L 218.176854 307.022395 
L 224.490601 310.253494 
L 225.75335 311.135764 
L 227.0161 312.222928 
L 228.278849 313.512593 
L 229.541599 315.00009 
L 232.067097 318.518093 
L 234.592596 322.626309 
L 239.643594 331.193432 
L 242.169093 334.906994 
L 244.694592 337.972934 
L 247.220091 340.406867 
L 248.48284 341.393137 
L 249.74559 342.22903 
L 251.008339 342.917366 
L 252.271089 343.460798 
L 253.533838 343.86205 
L 254.796587 344.123758 
L 256.059337 344.248363 
L 257.322086 344.238343 
L 258.584836 344.098902 
L 261.110335 343.469968 
L 263.635834 342.508074 
L 272.47508 338.652544 
L 275.000579 337.89105 
L 277.526077 337.418188 
L 280.051576 337.221353 
L 282.577075 337.28566 
L 285.102574 337.592724 
L 288.890822 338.351564 
L 292.679071 339.134283 
L 295.20457 339.504505 
L 297.730069 339.696395 
L 300.255567 339.669651 
L 302.781066 339.385031 
L 305.306565 338.816797 
L 307.832064 338.000924 
L 311.620312 336.500214 
L 316.67131 334.465091 
L 319.196809 333.636942 
L 321.722308 333.032013 
L 324.247807 332.66205 
L 326.773306 332.52821 
L 329.298805 332.617899 
L 334.349803 333.143335 
L 338.138051 333.484744 
L 341.926299 333.613462 
L 345.714548 333.541205 
L 350.765545 333.170287 
L 355.816543 332.53139 
L 365.918539 331.058599 
L 369.706787 330.836904 
L 372.232286 330.902229 
L 374.757785 331.185226 
L 377.283284 331.698395 
L 381.071532 332.775848 
L 389.910778 335.541244 
L 393.699026 336.350333 
L 396.224525 336.701105 
L 398.750024 336.895021 
L 401.275523 336.927068 
L 411.377519 336.700098 
L 413.903018 336.934573 
L 417.691266 337.557046 
L 422.742264 338.728803 
L 430.31876 340.799139 
L 436.632508 342.772398 
L 441.683505 344.579261 
L 446.734503 346.629969 
L 454.311 349.99227 
L 463.150246 353.861361 
L 468.201244 355.811191 
L 471.989492 357.05652 
L 475.77774 358.059335 
L 479.565989 358.768164 
L 483.354237 359.158462 
L 488.405235 359.357173 
L 494.718982 359.576779 
L 498.50723 359.963018 
L 501.032729 360.440048 
L 503.558228 361.16214 
L 506.083727 362.16488 
L 508.609226 363.427772 
L 511.134725 364.917489 
L 514.922973 367.467075 
L 522.49947 372.769727 
L 525.024969 374.328563 
L 527.550468 375.677404 
L 530.075967 376.769884 
L 532.601465 377.564986 
L 535.126964 378.026975 
L 537.652463 378.142341 
L 540.177962 377.941683 
L 542.703461 377.464611 
L 545.22896 376.756107 
L 549.017208 375.408554 
L 569.221199 367.681959 
L 586.899692 361.573509 
L 593.213439 359.039973 
L 605.840933 353.797175 
L 609.629182 352.441624 
L 613.41743 351.295224 
L 617.205678 350.419204 
L 619.731177 350.01566 
L 622.256676 349.777652 
L 624.782175 349.72318 
L 627.307674 349.870584 
L 629.833173 350.236627 
L 632.358672 350.819087 
L 636.14692 352.013436 
L 641.197918 353.975294 
L 648.774414 357.026183 
L 652.562663 358.30016 
L 655.088162 358.958477 
L 657.613661 359.440546 
L 661.401909 359.868307 
L 665.190157 360.023958 
L 668.978406 359.984758 
L 672.766654 359.771504 
L 677.817652 359.234595 
L 682.86865 358.441459 
L 687.919647 357.414608 
L 703.072641 354.089453 
L 706.860889 353.527652 
L 710.649137 353.192912 
L 715.700135 353.066224 
L 729.590379 353.01987 
L 733.378627 352.67736 
L 737.166876 352.04523 
L 740.955124 351.12958 
L 744.743372 349.956763 
L 748.531621 348.55594 
L 754.845368 346.070664 
L 757.370867 345.3113 
L 759.896366 344.840497 
L 762.421865 344.71595 
L 764.947363 344.988299 
L 766.210113 345.289569 
L 767.472862 345.708036 
L 769.998361 346.900102 
L 772.52386 348.479314 
L 778.837607 352.827338 
L 781.363106 354.180627 
L 782.625856 354.677102 
L 783.888605 355.036266 
L 785.151355 355.240203 
L 786.414104 355.287617 
L 788.939603 354.995681 
L 791.465102 354.378007 
L 797.778849 352.627272 
L 800.304348 352.143635 
L 802.829847 351.902172 
L 805.355346 351.857443 
L 810.406344 352.071251 
L 815.457341 352.231622 
L 821.771089 352.128616 
L 830.610335 351.977116 
L 835.661332 352.168633 
L 839.449581 352.499734 
L 848.288827 353.450571 
L 850.814326 353.40311 
L 853.339825 353.169098 
L 857.128073 352.550009 
L 859.653572 352.150508 
L 862.179071 351.960066 
L 864.70457 351.9957 
L 874.806565 352.533549 
L 878.594814 352.650463 
L 882.383062 352.987133 
L 889.959559 353.881161 
L 893.747807 354.050304 
L 906.375301 354.160114 
L 910.16355 354.078413 
L 912.689049 353.825944 
L 915.214548 353.36994 
L 917.740046 352.719782 
L 920.265545 351.89164 
L 924.053794 350.37461 
L 929.104791 348.039884 
L 935.418539 345.119149 
L 937.944038 344.145053 
L 940.469536 343.380955 
L 942.995035 342.881737 
L 945.520534 342.637457 
L 948.046033 342.602015 
L 951.834281 342.83552 
L 956.885279 343.461507 
L 972.038273 345.694363 
L 977.08927 346.857707 
L 985.928516 349.002991 
L 990.979514 349.929753 
L 1011.183505 353.175658 
L 1016.234503 354.295067 
L 1021.285501 355.628574 
L 1026.336499 357.218377 
L 1030.124747 358.60754 
L 1033.912995 360.189642 
L 1040.226743 363.119519 
L 1047.803239 366.601903 
L 1051.591488 368.129025 
L 1054.116987 368.97018 
L 1056.642485 369.6074 
L 1059.167984 369.993197 
L 1061.693483 370.093342 
L 1064.218982 369.88858 
L 1066.744481 369.357635 
L 1069.26998 368.4982 
L 1073.058228 366.844756 
L 1076.846477 365.238232 
L 1079.371975 364.449032 
L 1081.897474 363.992218 
L 1084.422973 363.826407 
L 1088.211222 363.909411 
L 1088.211222 363.909411 
" clip-path="url(#pf1c0aa3e90)" style="fill: none; stroke: #f27f19; stroke-width: 1.5; stroke-linecap: square"/>
   </g>
   <g id="patch_13">
    <path d="M 55.345313 403.19303 
L 55.345313 289.85394 
" style="fill: none; stroke: #000000; stroke-width: 0.8; stroke-linejoin: miter; stroke-linecap: square"/>
   </g>
   <g id="patch_14">
    <path d="M 1137.395313 403.19303 
L 1137.395313 289.85394 
" style="fill: none; stroke: #000000; stroke-width: 0.8; stroke-linejoin: miter; stroke-linecap: square"/>
   </g>
   <g id="patch_15">
    <path d="M 55.345313 403.19303 
L 1137.395312 403.19303 
" style="fill: none; stroke: #000000; stroke-width: 0.8; stroke-linejoin: miter; stroke-linecap: square"/>
   </g>
   <g id="patch_16">
    <path d="M 55.345313 289.85394 
L 1137.395312 289.85394 
" style="fill: none; stroke: #000000; stroke-width: 0.8; stroke-linejoin: miter; stroke-linecap: square"/>
   </g>
  </g>
  <g id="axes_4">
   <g id="patch_17">
    <path d="M 55.345313 544.52 
L 1137.395313 544.52 
L 1137.395313 431.18091 
L 55.345313 431.18091 
z
" style="fill: #ffffff"/>
   </g>
   <g id="matplotlib.axis_7">
    <g id="xtick_28">
     <g id="line2d_41">
      <g>
       <use xlink:href="#m22ec4fd148" x="104.529403" y="544.52" style="stroke: #000000; stroke-width: 0.8"/>
      </g>
     </g>
     <g id="text_41">
      <!-- 0 -->
      <g transform="translate(101.348153 559.118437) scale(0.1 -0.1)">
       <use xlink:href="#DejaVuSans-30"/>
      </g>
     </g>
    </g>
    <g id="xtick_29">
     <g id="line2d_42">
      <g>
       <use xlink:href="#m22ec4fd148" x="230.804348" y="544.52" style="stroke: #000000; stroke-width: 0.8"/>
      </g>
     </g>
     <g id="text_42">
      <!-- 100 -->
      <g transform="translate(221.260598 559.118437) scale(0.1 -0.1)">
       <use xlink:href="#DejaVuSans-31"/>
       <use xlink:href="#DejaVuSans-30" transform="translate(63.623047 0)"/>
       <use xlink:href="#DejaVuSans-30" transform="translate(127.246094 0)"/>
      </g>
     </g>
    </g>
    <g id="xtick_30">
     <g id="line2d_43">
      <g>
       <use xlink:href="#m22ec4fd148" x="357.079293" y="544.52" style="stroke: #000000; stroke-width: 0.8"/>
      </g>
     </g>
     <g id="text_43">
      <!-- 200 -->
      <g transform="translate(347.535543 559.118437) scale(0.1 -0.1)">
       <use xlink:href="#DejaVuSans-32"/>
       <use xlink:href="#DejaVuSans-30" transform="translate(63.623047 0)"/>
       <use xlink:href="#DejaVuSans-30" transform="translate(127.246094 0)"/>
      </g>
     </g>
    </g>
    <g id="xtick_31">
     <g id="line2d_44">
      <g>
       <use xlink:href="#m22ec4fd148" x="483.354237" y="544.52" style="stroke: #000000; stroke-width: 0.8"/>
      </g>
     </g>
     <g id="text_44">
      <!-- 300 -->
      <g transform="translate(473.810487 559.118437) scale(0.1 -0.1)">
       <use xlink:href="#DejaVuSans-33"/>
       <use xlink:href="#DejaVuSans-30" transform="translate(63.623047 0)"/>
       <use xlink:href="#DejaVuSans-30" transform="translate(127.246094 0)"/>
      </g>
     </g>
    </g>
    <g id="xtick_32">
     <g id="line2d_45">
      <g>
       <use xlink:href="#m22ec4fd148" x="609.629182" y="544.52" style="stroke: #000000; stroke-width: 0.8"/>
      </g>
     </g>
     <g id="text_45">
      <!-- 400 -->
      <g transform="translate(600.085432 559.118437) scale(0.1 -0.1)">
       <use xlink:href="#DejaVuSans-34"/>
       <use xlink:href="#DejaVuSans-30" transform="translate(63.623047 0)"/>
       <use xlink:href="#DejaVuSans-30" transform="translate(127.246094 0)"/>
      </g>
     </g>
    </g>
    <g id="xtick_33">
     <g id="line2d_46">
      <g>
       <use xlink:href="#m22ec4fd148" x="735.904126" y="544.52" style="stroke: #000000; stroke-width: 0.8"/>
      </g>
     </g>
     <g id="text_46">
      <!-- 500 -->
      <g transform="translate(726.360376 559.118437) scale(0.1 -0.1)">
       <use xlink:href="#DejaVuSans-35"/>
       <use xlink:href="#DejaVuSans-30" transform="translate(63.623047 0)"/>
       <use xlink:href="#DejaVuSans-30" transform="translate(127.246094 0)"/>
      </g>
     </g>
    </g>
    <g id="xtick_34">
     <g id="line2d_47">
      <g>
       <use xlink:href="#m22ec4fd148" x="862.179071" y="544.52" style="stroke: #000000; stroke-width: 0.8"/>
      </g>
     </g>
     <g id="text_47">
      <!-- 600 -->
      <g transform="translate(852.635321 559.118437) scale(0.1 -0.1)">
       <use xlink:href="#DejaVuSans-36"/>
       <use xlink:href="#DejaVuSans-30" transform="translate(63.623047 0)"/>
       <use xlink:href="#DejaVuSans-30" transform="translate(127.246094 0)"/>
      </g>
     </g>
    </g>
    <g id="xtick_35">
     <g id="line2d_48">
      <g>
       <use xlink:href="#m22ec4fd148" x="988.454015" y="544.52" style="stroke: #000000; stroke-width: 0.8"/>
      </g>
     </g>
     <g id="text_48">
      <!-- 700 -->
      <g transform="translate(978.910265 559.118437) scale(0.1 -0.1)">
       <use xlink:href="#DejaVuSans-37"/>
       <use xlink:href="#DejaVuSans-30" transform="translate(63.623047 0)"/>
       <use xlink:href="#DejaVuSans-30" transform="translate(127.246094 0)"/>
      </g>
     </g>
    </g>
    <g id="xtick_36">
     <g id="line2d_49">
      <g>
       <use xlink:href="#m22ec4fd148" x="1114.72896" y="544.52" style="stroke: #000000; stroke-width: 0.8"/>
      </g>
     </g>
     <g id="text_49">
      <!-- 800 -->
      <g transform="translate(1105.18521 559.118437) scale(0.1 -0.1)">
       <use xlink:href="#DejaVuSans-38"/>
       <use xlink:href="#DejaVuSans-30" transform="translate(63.623047 0)"/>
       <use xlink:href="#DejaVuSans-30" transform="translate(127.246094 0)"/>
      </g>
     </g>
    </g>
   </g>
   <g id="matplotlib.axis_8">
    <g id="ytick_11">
     <g id="line2d_50">
      <g>
       <use xlink:href="#m4f2e85cf85" x="55.345313" y="531.24147" style="stroke: #000000; stroke-width: 0.8"/>
      </g>
     </g>
     <g id="text_50">
      <!-- 1100 -->
      <g transform="translate(22.895313 535.040688) scale(0.1 -0.1)">
       <use xlink:href="#DejaVuSans-31"/>
       <use xlink:href="#DejaVuSans-31" transform="translate(63.623047 0)"/>
       <use xlink:href="#DejaVuSans-30" transform="translate(127.246094 0)"/>
       <use xlink:href="#DejaVuSans-30" transform="translate(190.869141 0)"/>
      </g>
     </g>
    </g>
    <g id="ytick_12">
     <g id="line2d_51">
      <g>
       <use xlink:href="#m4f2e85cf85" x="55.345313" y="499.397345" style="stroke: #000000; stroke-width: 0.8"/>
      </g>
     </g>
     <g id="text_51">
      <!-- 1200 -->
      <g transform="translate(22.895313 503.196564) scale(0.1 -0.1)">
       <use xlink:href="#DejaVuSans-31"/>
       <use xlink:href="#DejaVuSans-32" transform="translate(63.623047 0)"/>
       <use xlink:href="#DejaVuSans-30" transform="translate(127.246094 0)"/>
       <use xlink:href="#DejaVuSans-30" transform="translate(190.869141 0)"/>
      </g>
     </g>
    </g>
    <g id="ytick_13">
     <g id="line2d_52">
      <g>
       <use xlink:href="#m4f2e85cf85" x="55.345313" y="467.55322" style="stroke: #000000; stroke-width: 0.8"/>
      </g>
     </g>
     <g id="text_52">
      <!-- 1300 -->
      <g transform="translate(22.895313 471.352439) scale(0.1 -0.1)">
       <use xlink:href="#DejaVuSans-31"/>
       <use xlink:href="#DejaVuSans-33" transform="translate(63.623047 0)"/>
       <use xlink:href="#DejaVuSans-30" transform="translate(127.246094 0)"/>
       <use xlink:href="#DejaVuSans-30" transform="translate(190.869141 0)"/>
      </g>
     </g>
    </g>
    <g id="ytick_14">
     <g id="line2d_53">
      <g>
       <use xlink:href="#m4f2e85cf85" x="55.345313" y="435.709095" style="stroke: #000000; stroke-width: 0.8"/>
      </g>
     </g>
     <g id="text_53">
      <!-- 1400 -->
      <g transform="translate(22.895313 439.508314) scale(0.1 -0.1)">
       <use xlink:href="#DejaVuSans-31"/>
       <use xlink:href="#DejaVuSans-34" transform="translate(63.623047 0)"/>
       <use xlink:href="#DejaVuSans-30" transform="translate(127.246094 0)"/>
       <use xlink:href="#DejaVuSans-30" transform="translate(190.869141 0)"/>
      </g>
     </g>
    </g>
    <g id="text_54">
     <!-- co-imf2 -->
     <g transform="translate(16.815625 506.757486) rotate(-90) scale(0.1 -0.1)">
      <use xlink:href="#DejaVuSans-63"/>
      <use xlink:href="#DejaVuSans-6f" transform="translate(54.980469 0)"/>
      <use xlink:href="#DejaVuSans-2d" transform="translate(118.037109 0)"/>
      <use xlink:href="#DejaVuSans-69" transform="translate(154.121094 0)"/>
      <use xlink:href="#DejaVuSans-6d" transform="translate(181.904297 0)"/>
      <use xlink:href="#DejaVuSans-66" transform="translate(279.316406 0)"/>
      <use xlink:href="#DejaVuSans-32" transform="translate(314.521484 0)"/>
     </g>
    </g>
   </g>
   <g id="line2d_54">
    <path d="M 104.529403 436.707161 
L 120.945146 436.407007 
L 137.360889 436.337715 
L 152.513882 436.487385 
L 167.666876 436.850298 
L 182.819869 437.434389 
L 197.972862 438.247592 
L 213.125856 439.297843 
L 227.0161 440.475591 
L 240.906344 441.865304 
L 254.796587 443.473096 
L 268.686831 445.302093 
L 283.839825 447.528065 
L 300.255567 450.170508 
L 319.196809 453.459421 
L 341.926299 457.650236 
L 379.808783 464.910571 
L 411.377519 470.87424 
L 432.844259 474.705401 
L 450.522752 477.639537 
L 466.938494 480.131584 
L 482.091488 482.192436 
L 495.981732 483.84783 
L 508.609226 485.134586 
L 521.23672 486.191975 
L 532.601465 486.930234 
L 543.966211 487.450525 
L 555.330956 487.738194 
L 566.695701 487.789619 
L 578.060446 487.618125 
L 590.68794 487.190898 
L 603.315434 486.541826 
L 617.205678 485.605311 
L 632.358672 484.360624 
L 650.037164 482.677711 
L 672.766654 480.268028 
L 734.641377 473.557774 
L 752.319869 471.936254 
L 767.472862 470.763434 
L 780.100357 469.998757 
L 791.465102 469.533611 
L 801.567097 469.339502 
L 810.406344 469.367797 
L 819.24559 469.605652 
L 828.084836 470.076575 
L 835.661332 470.683268 
L 843.237829 471.48382 
L 852.077075 472.654083 
L 860.916321 474.067392 
L 869.755567 475.711764 
L 878.594814 477.575112 
L 888.696809 479.954994 
L 898.798805 482.579932 
L 908.9008 485.423367 
L 920.265545 488.846148 
L 932.89304 492.877127 
L 948.046033 497.950896 
L 970.775523 505.834213 
L 1001.08151 516.321856 
L 1016.234503 521.327449 
L 1028.861998 525.278468 
L 1040.226743 528.611294 
L 1050.328738 531.36046 
L 1060.430734 533.87753 
L 1069.26998 535.865951 
L 1078.109226 537.633758 
L 1086.948472 539.168288 
L 1088.211222 539.368223 
L 1088.211222 539.368223 
" clip-path="url(#p6ebae32f5a)" style="fill: none; stroke: #f27f19; stroke-width: 1.5; stroke-linecap: square"/>
   </g>
   <g id="patch_18">
    <path d="M 55.345313 544.52 
L 55.345313 431.18091 
" style="fill: none; stroke: #000000; stroke-width: 0.8; stroke-linejoin: miter; stroke-linecap: square"/>
   </g>
   <g id="patch_19">
    <path d="M 1137.395313 544.52 
L 1137.395313 431.18091 
" style="fill: none; stroke: #000000; stroke-width: 0.8; stroke-linejoin: miter; stroke-linecap: square"/>
   </g>
   <g id="patch_20">
    <path d="M 55.345313 544.52 
L 1137.395312 544.52 
" style="fill: none; stroke: #000000; stroke-width: 0.8; stroke-linejoin: miter; stroke-linecap: square"/>
   </g>
   <g id="patch_21">
    <path d="M 55.345313 431.18091 
L 1137.395312 431.18091 
" style="fill: none; stroke: #000000; stroke-width: 0.8; stroke-linejoin: miter; stroke-linecap: square"/>
   </g>
  </g>
 </g>
 <defs>
  <clipPath id="pc2679dc258">
   <rect x="55.345313" y="7.2" width="1082.05" height="113.33909"/>
  </clipPath>
  <clipPath id="pff59a5c73a">
   <rect x="55.345313" y="148.52697" width="1082.05" height="113.33909"/>
  </clipPath>
  <clipPath id="pf1c0aa3e90">
   <rect x="55.345313" y="289.85394" width="1082.05" height="113.33909"/>
  </clipPath>
  <clipPath id="p6ebae32f5a">
   <rect x="55.345313" y="431.18091" width="1082.05" height="113.33909"/>
  </clipPath>
 </defs>
</svg>
