<?xml version="1.0" encoding="utf-8" standalone="no"?>
<!DOCTYPE svg PUBLIC "-//W3C//DTD SVG 1.1//EN"
  "http://www.w3.org/Graphics/SVG/1.1/DTD/svg11.dtd">
<svg xmlns:xlink="http://www.w3.org/1999/xlink" width="1144.505312pt" height="568.398125pt" viewBox="0 0 1144.505312 568.398125" xmlns="http://www.w3.org/2000/svg" version="1.1">
 <metadata>
  <rdf:RDF xmlns:dc="http://purl.org/dc/elements/1.1/" xmlns:cc="http://creativecommons.org/ns#" xmlns:rdf="http://www.w3.org/1999/02/22-rdf-syntax-ns#">
   <cc:Work>
    <dc:type rdf:resource="http://purl.org/dc/dcmitype/StillImage"/>
    <dc:date>2025-04-22T10:01:29.631270</dc:date>
    <dc:format>image/svg+xml</dc:format>
    <dc:creator>
     <cc:Agent>
      <dc:title>Matplotlib v3.10.1, https://matplotlib.org/</dc:title>
     </cc:Agent>
    </dc:creator>
   </cc:Work>
  </rdf:RDF>
 </metadata>
 <defs>
  <style type="text/css">*{stroke-linejoin: round; stroke-linecap: butt}</style>
 </defs>
 <g id="figure_1">
  <g id="patch_1">
   <path d="M 0 568.398125 
L 1144.505312 568.398125 
L 1144.505312 0 
L 0 0 
z
" style="fill: #ffffff"/>
  </g>
  <g id="axes_1">
   <g id="patch_2">
    <path d="M 55.345313 119.453988 
L 1137.305313 119.453988 
L 1137.305313 7.2 
L 55.345313 7.2 
z
" style="fill: #ffffff"/>
   </g>
   <g id="matplotlib.axis_1">
    <g id="xtick_1">
     <g id="line2d_1">
      <defs>
       <path id="medcd549c7c" d="M 0 0 
L 0 3.5 
" style="stroke: #000000; stroke-width: 0.8"/>
      </defs>
      <g>
       <use xlink:href="#medcd549c7c" x="104.525313" y="119.453988" style="stroke: #000000; stroke-width: 0.8"/>
      </g>
     </g>
     <g id="text_1">
      <!-- 0 -->
      <g transform="translate(101.344063 134.052426) scale(0.1 -0.1)">
       <defs>
        <path id="DejaVuSans-30" d="M 2034 4250 
Q 1547 4250 1301 3770 
Q 1056 3291 1056 2328 
Q 1056 1369 1301 889 
Q 1547 409 2034 409 
Q 2525 409 2770 889 
Q 3016 1369 3016 2328 
Q 3016 3291 2770 3770 
Q 2525 4250 2034 4250 
z
M 2034 4750 
Q 2819 4750 3233 4129 
Q 3647 3509 3647 2328 
Q 3647 1150 3233 529 
Q 2819 -91 2034 -91 
Q 1250 -91 836 529 
Q 422 1150 422 2328 
Q 422 3509 836 4129 
Q 1250 4750 2034 4750 
z
" transform="scale(0.015625)"/>
       </defs>
       <use xlink:href="#DejaVuSans-30"/>
      </g>
     </g>
    </g>
    <g id="xtick_2">
     <g id="line2d_2">
      <g>
       <use xlink:href="#medcd549c7c" x="294.409482" y="119.453988" style="stroke: #000000; stroke-width: 0.8"/>
      </g>
     </g>
     <g id="text_2">
      <!-- 200 -->
      <g transform="translate(284.865732 134.052426) scale(0.1 -0.1)">
       <defs>
        <path id="DejaVuSans-32" d="M 1228 531 
L 3431 531 
L 3431 0 
L 469 0 
L 469 531 
Q 828 903 1448 1529 
Q 2069 2156 2228 2338 
Q 2531 2678 2651 2914 
Q 2772 3150 2772 3378 
Q 2772 3750 2511 3984 
Q 2250 4219 1831 4219 
Q 1534 4219 1204 4116 
Q 875 4013 500 3803 
L 500 4441 
Q 881 4594 1212 4672 
Q 1544 4750 1819 4750 
Q 2544 4750 2975 4387 
Q 3406 4025 3406 3419 
Q 3406 3131 3298 2873 
Q 3191 2616 2906 2266 
Q 2828 2175 2409 1742 
Q 1991 1309 1228 531 
z
" transform="scale(0.015625)"/>
       </defs>
       <use xlink:href="#DejaVuSans-32"/>
       <use xlink:href="#DejaVuSans-30" transform="translate(63.623047 0)"/>
       <use xlink:href="#DejaVuSans-30" transform="translate(127.246094 0)"/>
      </g>
     </g>
    </g>
    <g id="xtick_3">
     <g id="line2d_3">
      <g>
       <use xlink:href="#medcd549c7c" x="484.293652" y="119.453988" style="stroke: #000000; stroke-width: 0.8"/>
      </g>
     </g>
     <g id="text_3">
      <!-- 400 -->
      <g transform="translate(474.749902 134.052426) scale(0.1 -0.1)">
       <defs>
        <path id="DejaVuSans-34" d="M 2419 4116 
L 825 1625 
L 2419 1625 
L 2419 4116 
z
M 2253 4666 
L 3047 4666 
L 3047 1625 
L 3713 1625 
L 3713 1100 
L 3047 1100 
L 3047 0 
L 2419 0 
L 2419 1100 
L 313 1100 
L 313 1709 
L 2253 4666 
z
" transform="scale(0.015625)"/>
       </defs>
       <use xlink:href="#DejaVuSans-34"/>
       <use xlink:href="#DejaVuSans-30" transform="translate(63.623047 0)"/>
       <use xlink:href="#DejaVuSans-30" transform="translate(127.246094 0)"/>
      </g>
     </g>
    </g>
    <g id="xtick_4">
     <g id="line2d_4">
      <g>
       <use xlink:href="#medcd549c7c" x="674.177822" y="119.453988" style="stroke: #000000; stroke-width: 0.8"/>
      </g>
     </g>
     <g id="text_4">
      <!-- 600 -->
      <g transform="translate(664.634072 134.052426) scale(0.1 -0.1)">
       <defs>
        <path id="DejaVuSans-36" d="M 2113 2584 
Q 1688 2584 1439 2293 
Q 1191 2003 1191 1497 
Q 1191 994 1439 701 
Q 1688 409 2113 409 
Q 2538 409 2786 701 
Q 3034 994 3034 1497 
Q 3034 2003 2786 2293 
Q 2538 2584 2113 2584 
z
M 3366 4563 
L 3366 3988 
Q 3128 4100 2886 4159 
Q 2644 4219 2406 4219 
Q 1781 4219 1451 3797 
Q 1122 3375 1075 2522 
Q 1259 2794 1537 2939 
Q 1816 3084 2150 3084 
Q 2853 3084 3261 2657 
Q 3669 2231 3669 1497 
Q 3669 778 3244 343 
Q 2819 -91 2113 -91 
Q 1303 -91 875 529 
Q 447 1150 447 2328 
Q 447 3434 972 4092 
Q 1497 4750 2381 4750 
Q 2619 4750 2861 4703 
Q 3103 4656 3366 4563 
z
" transform="scale(0.015625)"/>
       </defs>
       <use xlink:href="#DejaVuSans-36"/>
       <use xlink:href="#DejaVuSans-30" transform="translate(63.623047 0)"/>
       <use xlink:href="#DejaVuSans-30" transform="translate(127.246094 0)"/>
      </g>
     </g>
    </g>
    <g id="xtick_5">
     <g id="line2d_5">
      <g>
       <use xlink:href="#medcd549c7c" x="864.061992" y="119.453988" style="stroke: #000000; stroke-width: 0.8"/>
      </g>
     </g>
     <g id="text_5">
      <!-- 800 -->
      <g transform="translate(854.518242 134.052426) scale(0.1 -0.1)">
       <defs>
        <path id="DejaVuSans-38" d="M 2034 2216 
Q 1584 2216 1326 1975 
Q 1069 1734 1069 1313 
Q 1069 891 1326 650 
Q 1584 409 2034 409 
Q 2484 409 2743 651 
Q 3003 894 3003 1313 
Q 3003 1734 2745 1975 
Q 2488 2216 2034 2216 
z
M 1403 2484 
Q 997 2584 770 2862 
Q 544 3141 544 3541 
Q 544 4100 942 4425 
Q 1341 4750 2034 4750 
Q 2731 4750 3128 4425 
Q 3525 4100 3525 3541 
Q 3525 3141 3298 2862 
Q 3072 2584 2669 2484 
Q 3125 2378 3379 2068 
Q 3634 1759 3634 1313 
Q 3634 634 3220 271 
Q 2806 -91 2034 -91 
Q 1263 -91 848 271 
Q 434 634 434 1313 
Q 434 1759 690 2068 
Q 947 2378 1403 2484 
z
M 1172 3481 
Q 1172 3119 1398 2916 
Q 1625 2713 2034 2713 
Q 2441 2713 2670 2916 
Q 2900 3119 2900 3481 
Q 2900 3844 2670 4047 
Q 2441 4250 2034 4250 
Q 1625 4250 1398 4047 
Q 1172 3844 1172 3481 
z
" transform="scale(0.015625)"/>
       </defs>
       <use xlink:href="#DejaVuSans-38"/>
       <use xlink:href="#DejaVuSans-30" transform="translate(63.623047 0)"/>
       <use xlink:href="#DejaVuSans-30" transform="translate(127.246094 0)"/>
      </g>
     </g>
    </g>
    <g id="xtick_6">
     <g id="line2d_6">
      <g>
       <use xlink:href="#medcd549c7c" x="1053.946162" y="119.453988" style="stroke: #000000; stroke-width: 0.8"/>
      </g>
     </g>
     <g id="text_6">
      <!-- 1000 -->
      <g transform="translate(1041.221162 134.052426) scale(0.1 -0.1)">
       <defs>
        <path id="DejaVuSans-31" d="M 794 531 
L 1825 531 
L 1825 4091 
L 703 3866 
L 703 4441 
L 1819 4666 
L 2450 4666 
L 2450 531 
L 3481 531 
L 3481 0 
L 794 0 
L 794 531 
z
" transform="scale(0.015625)"/>
       </defs>
       <use xlink:href="#DejaVuSans-31"/>
       <use xlink:href="#DejaVuSans-30" transform="translate(63.623047 0)"/>
       <use xlink:href="#DejaVuSans-30" transform="translate(127.246094 0)"/>
       <use xlink:href="#DejaVuSans-30" transform="translate(190.869141 0)"/>
      </g>
     </g>
    </g>
   </g>
   <g id="matplotlib.axis_2">
    <g id="ytick_1">
     <g id="line2d_7">
      <defs>
       <path id="md66d78fbb6" d="M 0 0 
L -3.5 0 
" style="stroke: #000000; stroke-width: 0.8"/>
      </defs>
      <g>
       <use xlink:href="#md66d78fbb6" x="55.345313" y="87.219814" style="stroke: #000000; stroke-width: 0.8"/>
      </g>
     </g>
     <g id="text_7">
      <!-- 200 -->
      <g transform="translate(29.257813 91.019032) scale(0.1 -0.1)">
       <use xlink:href="#DejaVuSans-32"/>
       <use xlink:href="#DejaVuSans-30" transform="translate(63.623047 0)"/>
       <use xlink:href="#DejaVuSans-30" transform="translate(127.246094 0)"/>
      </g>
     </g>
    </g>
    <g id="ytick_2">
     <g id="line2d_8">
      <g>
       <use xlink:href="#md66d78fbb6" x="55.345313" y="51.338869" style="stroke: #000000; stroke-width: 0.8"/>
      </g>
     </g>
     <g id="text_8">
      <!-- 400 -->
      <g transform="translate(29.257813 55.138088) scale(0.1 -0.1)">
       <use xlink:href="#DejaVuSans-34"/>
       <use xlink:href="#DejaVuSans-30" transform="translate(63.623047 0)"/>
       <use xlink:href="#DejaVuSans-30" transform="translate(127.246094 0)"/>
      </g>
     </g>
    </g>
    <g id="ytick_3">
     <g id="line2d_9">
      <g>
       <use xlink:href="#md66d78fbb6" x="55.345313" y="15.457925" style="stroke: #000000; stroke-width: 0.8"/>
      </g>
     </g>
     <g id="text_9">
      <!-- 600 -->
      <g transform="translate(29.257813 19.257143) scale(0.1 -0.1)">
       <use xlink:href="#DejaVuSans-36"/>
       <use xlink:href="#DejaVuSans-30" transform="translate(63.623047 0)"/>
       <use xlink:href="#DejaVuSans-30" transform="translate(127.246094 0)"/>
      </g>
     </g>
    </g>
    <g id="text_10">
     <!-- Original Data -->
     <g transform="translate(23.178125 96.419963) rotate(-90) scale(0.1 -0.1)">
      <defs>
       <path id="DejaVuSans-4f" d="M 2522 4238 
Q 1834 4238 1429 3725 
Q 1025 3213 1025 2328 
Q 1025 1447 1429 934 
Q 1834 422 2522 422 
Q 3209 422 3611 934 
Q 4013 1447 4013 2328 
Q 4013 3213 3611 3725 
Q 3209 4238 2522 4238 
z
M 2522 4750 
Q 3503 4750 4090 4092 
Q 4678 3434 4678 2328 
Q 4678 1225 4090 567 
Q 3503 -91 2522 -91 
Q 1538 -91 948 565 
Q 359 1222 359 2328 
Q 359 3434 948 4092 
Q 1538 4750 2522 4750 
z
" transform="scale(0.015625)"/>
       <path id="DejaVuSans-72" d="M 2631 2963 
Q 2534 3019 2420 3045 
Q 2306 3072 2169 3072 
Q 1681 3072 1420 2755 
Q 1159 2438 1159 1844 
L 1159 0 
L 581 0 
L 581 3500 
L 1159 3500 
L 1159 2956 
Q 1341 3275 1631 3429 
Q 1922 3584 2338 3584 
Q 2397 3584 2469 3576 
Q 2541 3569 2628 3553 
L 2631 2963 
z
" transform="scale(0.015625)"/>
       <path id="DejaVuSans-69" d="M 603 3500 
L 1178 3500 
L 1178 0 
L 603 0 
L 603 3500 
z
M 603 4863 
L 1178 4863 
L 1178 4134 
L 603 4134 
L 603 4863 
z
" transform="scale(0.015625)"/>
       <path id="DejaVuSans-67" d="M 2906 1791 
Q 2906 2416 2648 2759 
Q 2391 3103 1925 3103 
Q 1463 3103 1205 2759 
Q 947 2416 947 1791 
Q 947 1169 1205 825 
Q 1463 481 1925 481 
Q 2391 481 2648 825 
Q 2906 1169 2906 1791 
z
M 3481 434 
Q 3481 -459 3084 -895 
Q 2688 -1331 1869 -1331 
Q 1566 -1331 1297 -1286 
Q 1028 -1241 775 -1147 
L 775 -588 
Q 1028 -725 1275 -790 
Q 1522 -856 1778 -856 
Q 2344 -856 2625 -561 
Q 2906 -266 2906 331 
L 2906 616 
Q 2728 306 2450 153 
Q 2172 0 1784 0 
Q 1141 0 747 490 
Q 353 981 353 1791 
Q 353 2603 747 3093 
Q 1141 3584 1784 3584 
Q 2172 3584 2450 3431 
Q 2728 3278 2906 2969 
L 2906 3500 
L 3481 3500 
L 3481 434 
z
" transform="scale(0.015625)"/>
       <path id="DejaVuSans-6e" d="M 3513 2113 
L 3513 0 
L 2938 0 
L 2938 2094 
Q 2938 2591 2744 2837 
Q 2550 3084 2163 3084 
Q 1697 3084 1428 2787 
Q 1159 2491 1159 1978 
L 1159 0 
L 581 0 
L 581 3500 
L 1159 3500 
L 1159 2956 
Q 1366 3272 1645 3428 
Q 1925 3584 2291 3584 
Q 2894 3584 3203 3211 
Q 3513 2838 3513 2113 
z
" transform="scale(0.015625)"/>
       <path id="DejaVuSans-61" d="M 2194 1759 
Q 1497 1759 1228 1600 
Q 959 1441 959 1056 
Q 959 750 1161 570 
Q 1363 391 1709 391 
Q 2188 391 2477 730 
Q 2766 1069 2766 1631 
L 2766 1759 
L 2194 1759 
z
M 3341 1997 
L 3341 0 
L 2766 0 
L 2766 531 
Q 2569 213 2275 61 
Q 1981 -91 1556 -91 
Q 1019 -91 701 211 
Q 384 513 384 1019 
Q 384 1609 779 1909 
Q 1175 2209 1959 2209 
L 2766 2209 
L 2766 2266 
Q 2766 2663 2505 2880 
Q 2244 3097 1772 3097 
Q 1472 3097 1187 3025 
Q 903 2953 641 2809 
L 641 3341 
Q 956 3463 1253 3523 
Q 1550 3584 1831 3584 
Q 2591 3584 2966 3190 
Q 3341 2797 3341 1997 
z
" transform="scale(0.015625)"/>
       <path id="DejaVuSans-6c" d="M 603 4863 
L 1178 4863 
L 1178 0 
L 603 0 
L 603 4863 
z
" transform="scale(0.015625)"/>
       <path id="DejaVuSans-20" transform="scale(0.015625)"/>
       <path id="DejaVuSans-44" d="M 1259 4147 
L 1259 519 
L 2022 519 
Q 2988 519 3436 956 
Q 3884 1394 3884 2338 
Q 3884 3275 3436 3711 
Q 2988 4147 2022 4147 
L 1259 4147 
z
M 628 4666 
L 1925 4666 
Q 3281 4666 3915 4102 
Q 4550 3538 4550 2338 
Q 4550 1131 3912 565 
Q 3275 0 1925 0 
L 628 0 
L 628 4666 
z
" transform="scale(0.015625)"/>
       <path id="DejaVuSans-74" d="M 1172 4494 
L 1172 3500 
L 2356 3500 
L 2356 3053 
L 1172 3053 
L 1172 1153 
Q 1172 725 1289 603 
Q 1406 481 1766 481 
L 2356 481 
L 2356 0 
L 1766 0 
Q 1100 0 847 248 
Q 594 497 594 1153 
L 594 3053 
L 172 3053 
L 172 3500 
L 594 3500 
L 594 4494 
L 1172 4494 
z
" transform="scale(0.015625)"/>
      </defs>
      <use xlink:href="#DejaVuSans-4f"/>
      <use xlink:href="#DejaVuSans-72" transform="translate(78.710938 0)"/>
      <use xlink:href="#DejaVuSans-69" transform="translate(119.824219 0)"/>
      <use xlink:href="#DejaVuSans-67" transform="translate(147.607422 0)"/>
      <use xlink:href="#DejaVuSans-69" transform="translate(211.083984 0)"/>
      <use xlink:href="#DejaVuSans-6e" transform="translate(238.867188 0)"/>
      <use xlink:href="#DejaVuSans-61" transform="translate(302.246094 0)"/>
      <use xlink:href="#DejaVuSans-6c" transform="translate(363.525391 0)"/>
      <use xlink:href="#DejaVuSans-20" transform="translate(391.308594 0)"/>
      <use xlink:href="#DejaVuSans-44" transform="translate(423.095703 0)"/>
      <use xlink:href="#DejaVuSans-61" transform="translate(500.097656 0)"/>
      <use xlink:href="#DejaVuSans-74" transform="translate(561.376953 0)"/>
      <use xlink:href="#DejaVuSans-61" transform="translate(600.585938 0)"/>
     </g>
    </g>
   </g>
   <g id="line2d_10">
    <path d="M 104.525313 114.085382 
L 114.968942 114.110477 
L 128.260834 114.267998 
L 130.159675 114.351534 
L 131.109096 114.19845 
L 133.007938 113.539239 
L 133.957359 113.322523 
L 134.90678 111.824859 
L 135.856201 111.935647 
L 136.805621 111.854521 
L 137.755042 112.6796 
L 138.704463 112.436171 
L 139.653884 111.090876 
L 140.603305 110.477945 
L 141.552726 110.265727 
L 142.502146 110.260342 
L 143.451567 109.266877 
L 144.400988 105.582339 
L 145.350409 101.152233 
L 146.29983 99.921847 
L 147.249251 102.871712 
L 148.198672 104.352488 
L 149.148092 105.203244 
L 151.046934 106.597039 
L 151.996355 106.286298 
L 152.945776 105.598037 
L 153.895197 105.737064 
L 154.844618 106.871517 
L 155.794038 107.328495 
L 156.743459 107.400367 
L 163.389405 109.188671 
L 164.338826 108.938644 
L 165.288247 109.093628 
L 166.237668 107.047337 
L 167.187089 106.458843 
L 168.136509 106.433047 
L 169.08593 106.142283 
L 172.883614 107.177222 
L 174.782455 107.430776 
L 176.681297 107.811781 
L 179.52956 108.069321 
L 180.47898 108.004075 
L 182.377822 107.52844 
L 184.276664 106.842663 
L 185.226085 106.448358 
L 186.175506 106.327707 
L 189.023768 107.02505 
L 190.92261 107.916458 
L 191.872031 107.563505 
L 192.821451 106.269364 
L 193.770872 103.823959 
L 194.720293 99.888004 
L 195.669714 98.913165 
L 196.619135 94.857168 
L 197.568556 92.490251 
L 199.467397 86.618918 
L 200.416818 78.823767 
L 201.366239 68.848298 
L 202.31566 56.070638 
L 203.265081 56.435054 
L 204.214502 50.25238 
L 205.163923 50.734414 
L 206.113343 52.265185 
L 207.062764 56.37927 
L 208.012185 63.048998 
L 208.961606 68.186422 
L 209.911027 71.029723 
L 210.860448 65.831474 
L 212.759289 61.522657 
L 213.70871 65.536119 
L 214.658131 67.669707 
L 215.607552 69.289397 
L 216.556973 71.753271 
L 217.506394 72.751008 
L 219.405235 73.596952 
L 220.354656 73.084862 
L 222.253498 71.10994 
L 223.202919 70.405725 
L 224.15234 70.500358 
L 225.10176 71.701631 
L 227.000602 73.516102 
L 227.950023 74.034892 
L 228.899444 73.91054 
L 229.848865 73.596322 
L 230.798285 72.902422 
L 231.747706 62.931465 
L 232.697127 60.666674 
L 233.646548 59.090025 
L 234.595969 55.927398 
L 235.54539 56.250116 
L 236.494811 57.133493 
L 237.444231 57.673044 
L 238.393652 57.426714 
L 239.343073 43.993467 
L 240.292494 36.861265 
L 241.241915 31.540122 
L 242.191336 28.001627 
L 243.140757 12.302454 
L 244.090177 20.81084 
L 245.039598 26.434099 
L 245.989019 33.688852 
L 246.93844 42.733156 
L 247.887861 50.222683 
L 248.837282 54.690553 
L 249.786702 54.32704 
L 250.736123 49.710496 
L 251.685544 46.865948 
L 252.634965 39.174941 
L 253.584386 39.025467 
L 254.533807 43.737157 
L 255.483228 43.641407 
L 256.432648 42.38975 
L 257.382069 43.44576 
L 258.33149 44.807383 
L 259.280911 48.822994 
L 260.230332 53.906155 
L 261.179753 53.296542 
L 262.129174 55.78404 
L 263.078594 60.840693 
L 264.028015 62.148433 
L 264.977436 60.933617 
L 265.926857 61.220052 
L 266.876278 62.349364 
L 267.825699 62.947918 
L 270.673961 65.220754 
L 271.623382 66.209311 
L 272.572803 67.405075 
L 273.522224 69.097252 
L 274.471645 71.322277 
L 275.421065 73.159943 
L 276.370486 74.618472 
L 277.319907 73.63528 
L 278.269328 75.252972 
L 280.16817 74.583211 
L 281.11759 75.265288 
L 282.067011 75.602477 
L 283.016432 74.648705 
L 283.965853 74.933773 
L 284.915274 75.674577 
L 285.864695 77.583208 
L 286.814116 81.014272 
L 287.763536 80.330545 
L 288.712957 78.772886 
L 289.662378 76.119158 
L 290.611799 76.479919 
L 292.510641 78.054551 
L 293.460062 78.51696 
L 294.409482 79.602825 
L 295.358903 80.960838 
L 296.308324 81.862094 
L 297.257745 82.190414 
L 298.207166 83.047541 
L 299.156587 84.259827 
L 300.106007 84.670348 
L 301.055428 83.785252 
L 302.004849 84.001514 
L 302.95427 79.626614 
L 303.903691 81.419606 
L 304.853112 82.560281 
L 305.802533 83.489532 
L 306.751953 83.051781 
L 307.701374 82.826669 
L 309.600216 83.003183 
L 314.34732 85.581149 
L 315.296741 86.445503 
L 316.246162 87.598592 
L 317.195583 88.542075 
L 318.145004 89.2996 
L 319.094424 89.48774 
L 320.043845 88.94115 
L 320.993266 88.258324 
L 321.942687 87.332217 
L 322.892108 85.093097 
L 323.841529 85.570462 
L 324.79095 80.209485 
L 325.74037 80.554683 
L 326.689791 81.083258 
L 328.588633 83.583807 
L 329.538054 84.693144 
L 331.436896 87.484882 
L 332.386316 88.411816 
L 333.335737 88.765956 
L 334.285158 88.9577 
L 336.184 88.755252 
L 338.082841 88.954116 
L 339.032262 89.278585 
L 339.981683 89.725686 
L 340.931104 90.34618 
L 341.880525 91.106136 
L 343.779367 92.790228 
L 344.728787 93.395265 
L 346.627629 95.036008 
L 347.57705 94.544059 
L 348.526471 94.387271 
L 349.475892 94.068974 
L 351.374733 94.098838 
L 352.324154 94.273554 
L 353.273575 94.322897 
L 354.222996 94.245767 
L 355.172417 94.74652 
L 356.121838 95.822937 
L 357.071258 96.1853 
L 358.020679 95.897279 
L 358.9701 94.367265 
L 359.919521 91.208503 
L 360.868942 92.389724 
L 361.818363 90.223567 
L 362.767784 88.876496 
L 363.717204 86.091602 
L 364.666625 85.103382 
L 365.616046 85.773634 
L 366.565467 86.720113 
L 367.514888 88.525951 
L 368.464309 87.300561 
L 369.413729 85.608738 
L 370.36315 84.786717 
L 371.312571 78.174396 
L 373.211413 81.10453 
L 375.110255 86.003182 
L 376.059675 88.0634 
L 377.958517 89.909162 
L 378.907938 90.708082 
L 379.857359 89.43329 
L 380.80678 90.550774 
L 381.756201 90.420083 
L 383.655042 90.903586 
L 385.553884 92.184867 
L 386.503305 92.188467 
L 387.452726 91.740494 
L 389.351567 90.460639 
L 390.300988 90.082375 
L 391.250409 89.945034 
L 393.149251 90.395927 
L 394.098672 90.540374 
L 395.048092 90.413497 
L 395.997513 89.88882 
L 396.946934 88.901398 
L 397.896355 89.743912 
L 398.845776 89.988435 
L 399.795197 90.662552 
L 400.744618 91.100446 
L 401.694038 91.24381 
L 402.643459 91.699683 
L 405.491722 93.647404 
L 406.441143 94.053483 
L 410.238826 94.498088 
L 412.137668 95.374535 
L 413.087089 95.931387 
L 414.036509 96.323317 
L 415.935351 96.804843 
L 416.884772 97.132674 
L 417.834193 97.755115 
L 418.783614 98.745888 
L 419.733035 99.142745 
L 420.682455 98.958729 
L 421.631876 98.459983 
L 422.581297 97.414594 
L 423.530718 97.193431 
L 424.480139 97.880647 
L 425.42956 98.000134 
L 426.37898 97.822139 
L 427.328401 97.259986 
L 428.277822 96.391011 
L 429.227243 96.036447 
L 430.176664 96.313032 
L 432.075506 96.344839 
L 433.974347 96.783025 
L 438.721451 98.112263 
L 440.620293 98.45076 
L 444.417977 99.321052 
L 446.316818 99.778406 
L 447.266239 100.150531 
L 448.21566 100.858388 
L 449.165081 101.960542 
L 450.114502 102.81462 
L 451.063923 103.455056 
L 452.013343 103.636171 
L 453.912185 102.640633 
L 454.861606 101.924082 
L 455.811027 100.294326 
L 456.760448 100.520779 
L 457.709868 100.296663 
L 458.659289 100.753849 
L 459.60871 100.862891 
L 462.456973 100.233101 
L 463.406394 100.202078 
L 464.355814 100.445026 
L 465.305235 100.313901 
L 467.204077 99.517925 
L 469.102919 98.926906 
L 471.00176 98.731518 
L 472.900602 98.943818 
L 476.698285 99.554271 
L 479.546548 99.679944 
L 482.394811 100.072681 
L 486.192494 100.639092 
L 488.091336 100.596534 
L 493.787861 99.597595 
L 495.686702 99.703692 
L 497.585544 100.088766 
L 500.433807 101.144241 
L 503.282069 102.198363 
L 505.180911 102.581309 
L 508.029174 102.884559 
L 509.928015 103.386019 
L 510.877436 103.357603 
L 511.826857 102.984571 
L 513.725699 102.536352 
L 514.675119 102.605819 
L 515.62454 103.054944 
L 516.573961 103.30252 
L 517.523382 103.410324 
L 519.422224 104.042234 
L 521.321065 104.657385 
L 522.270486 104.73367 
L 525.118749 104.122964 
L 527.01759 103.556988 
L 527.967011 103.497473 
L 529.865853 103.836105 
L 530.815274 103.932989 
L 531.764695 104.284416 
L 532.714116 104.8534 
L 533.663536 105.040892 
L 534.612957 104.846662 
L 535.562378 104.334464 
L 536.511799 103.340854 
L 537.46122 100.350151 
L 538.410641 100.657699 
L 539.360062 100.217855 
L 540.309482 100.735846 
L 541.258903 101.032957 
L 544.107166 101.127377 
L 545.056587 100.779877 
L 546.006007 100.30128 
L 546.955428 99.956358 
L 547.904849 99.817792 
L 548.85427 99.871673 
L 549.803691 100.158165 
L 550.753112 100.702008 
L 551.702533 101.528093 
L 552.651953 102.128845 
L 557.399058 103.785653 
L 559.297899 104.131273 
L 562.146162 104.404713 
L 565.943845 104.568959 
L 569.741529 104.546182 
L 571.64037 104.41374 
L 573.539212 104.51686 
L 575.438054 105.023878 
L 577.336896 105.870622 
L 578.286316 106.392523 
L 579.235737 106.745055 
L 581.134579 106.975513 
L 591.578208 106.384634 
L 594.426471 106.456992 
L 595.375892 106.421574 
L 596.325312 106.149603 
L 597.274733 105.606905 
L 598.224154 105.232468 
L 599.173575 104.996383 
L 600.122996 105.075696 
L 601.072417 105.593241 
L 602.021838 105.741278 
L 602.971258 105.555049 
L 604.8701 105.796136 
L 607.718363 106.213857 
L 608.667784 106.167316 
L 609.617204 105.946803 
L 610.566625 105.497101 
L 611.516046 105.256591 
L 613.414888 105.116728 
L 616.26315 104.937814 
L 618.161992 105.190448 
L 619.111413 105.497584 
L 624.807938 108.18538 
L 625.757359 108.390847 
L 626.70678 108.433717 
L 630.504463 107.846625 
L 632.403305 107.750742 
L 635.251567 108.138053 
L 639.049251 108.84288 
L 640.948092 109.029813 
L 656.138826 109.102375 
L 658.987089 109.060547 
L 665.633035 109.372593 
L 667.531876 109.174315 
L 669.430718 108.715112 
L 671.32956 108.228932 
L 672.27898 108.126668 
L 675.127243 108.413969 
L 678.924926 108.724906 
L 680.823768 108.753089 
L 683.672031 108.55016 
L 686.520293 108.092248 
L 689.368556 107.612173 
L 691.267397 107.546899 
L 695.065081 108.067351 
L 696.014502 108.144708 
L 698.862764 108.77299 
L 706.458131 108.644014 
L 708.356973 108.822117 
L 712.154656 108.774145 
L 714.053498 109.050998 
L 715.002919 109.090054 
L 715.95234 108.818563 
L 716.90176 108.166918 
L 718.800602 107.27085 
L 719.750023 107.214738 
L 720.699444 107.641474 
L 722.598285 107.993671 
L 724.497127 108.147471 
L 727.34539 108.23621 
L 729.244231 108.237645 
L 733.991336 108.694405 
L 737.789019 109.097355 
L 744.434965 109.829742 
L 748.232648 109.86879 
L 749.182069 109.891524 
L 750.13149 110.072475 
L 752.030332 110.892594 
L 752.979753 111.52056 
L 753.929174 111.725022 
L 754.878594 111.456439 
L 756.777436 111.309189 
L 757.726857 111.385419 
L 758.676278 111.703872 
L 759.625699 111.849205 
L 762.473961 111.98812 
L 765.322224 112.007777 
L 767.221065 111.903533 
L 771.018749 112.058068 
L 771.96817 111.983679 
L 772.91759 112.132304 
L 773.867011 112.503337 
L 774.816432 112.590647 
L 775.765853 112.425531 
L 776.715274 111.955364 
L 777.664695 111.318344 
L 778.614116 111.052007 
L 779.563536 111.277163 
L 786.209482 111.754695 
L 789.057745 111.753206 
L 793.804849 112.157435 
L 796.653112 112.066169 
L 803.299058 111.999587 
L 810.894424 111.842249 
L 813.742687 112.07294 
L 822.287475 113.198276 
L 825.135737 113.646077 
L 827.034579 113.741017 
L 839.37705 113.698548 
L 843.174733 113.973694 
L 846.022996 113.931843 
L 848.871258 113.604343 
L 849.820679 113.448268 
L 850.7701 113.149481 
L 851.719521 113.405754 
L 852.668942 113.502229 
L 855.517204 114.067884 
L 857.416046 114.19989 
L 875.455042 114.102178 
L 879.252726 113.897278 
L 887.797513 114.132013 
L 901.089405 114.154727 
L 905.836509 114.172808 
L 908.684772 113.983657 
L 909.634193 113.738381 
L 910.583614 113.30126 
L 911.533035 113.227939 
L 912.482455 113.519172 
L 914.381297 113.696319 
L 915.330718 113.565424 
L 916.280139 113.144734 
L 917.22956 113.062689 
L 918.17898 113.296031 
L 924.824926 113.617401 
L 932.420293 113.554819 
L 934.319135 113.405724 
L 935.268556 113.398792 
L 936.217977 113.021581 
L 937.167397 112.2537 
L 938.116818 111.146304 
L 939.066239 109.575731 
L 940.01566 108.738197 
L 940.965081 108.699725 
L 941.914502 108.519671 
L 942.863923 108.468999 
L 944.762764 108.583815 
L 945.712185 108.818016 
L 947.611027 109.504008 
L 948.560448 109.760457 
L 949.509868 109.883796 
L 950.459289 109.809725 
L 951.40871 109.610551 
L 952.358131 109.235565 
L 953.307552 109.043329 
L 955.206394 109.13163 
L 957.105235 109.491965 
L 959.953498 109.7037 
L 962.80176 109.846731 
L 965.650023 110.367103 
L 970.397127 111.469596 
L 972.295969 111.430061 
L 974.194811 111.193504 
L 976.093652 111.112628 
L 979.891336 110.623733 
L 982.739598 110.706938 
L 985.587861 110.816434 
L 988.436123 110.803327 
L 990.334965 111.00159 
L 992.233807 111.488233 
L 995.082069 112.227687 
L 996.980911 112.501576 
L 999.829174 112.516734 
L 1004.576278 112.352138 
L 1008.373961 112.481661 
L 1012.171645 112.567747 
L 1015.969328 112.995227 
L 1017.86817 113.31845 
L 1019.767011 113.45652 
L 1029.26122 113.318773 
L 1033.058903 113.361906 
L 1037.806007 113.007232 
L 1041.603691 113.302173 
L 1046.350795 113.805311 
L 1048.249637 114.052876 
L 1050.148479 114.059429 
L 1052.04732 113.833825 
L 1053.946162 113.781615 
L 1060.592108 114.157379 
L 1088.125313 114.140526 
L 1088.125313 114.140526 
" clip-path="url(#p509b240990)" style="fill: none; stroke: #0070c0; stroke-width: 1.5; stroke-linecap: square"/>
   </g>
   <g id="patch_3">
    <path d="M 55.345313 119.453988 
L 55.345313 7.2 
" style="fill: none; stroke: #000000; stroke-width: 0.8; stroke-linejoin: miter; stroke-linecap: square"/>
   </g>
   <g id="patch_4">
    <path d="M 1137.305313 119.453988 
L 1137.305313 7.2 
" style="fill: none; stroke: #000000; stroke-width: 0.8; stroke-linejoin: miter; stroke-linecap: square"/>
   </g>
   <g id="patch_5">
    <path d="M 55.345313 119.453988 
L 1137.305312 119.453988 
" style="fill: none; stroke: #000000; stroke-width: 0.8; stroke-linejoin: miter; stroke-linecap: square"/>
   </g>
   <g id="patch_6">
    <path d="M 55.345313 7.2 
L 1137.305312 7.2 
" style="fill: none; stroke: #000000; stroke-width: 0.8; stroke-linejoin: miter; stroke-linecap: square"/>
   </g>
  </g>
  <g id="axes_2">
   <g id="patch_7">
    <path d="M 55.345313 261.142659 
L 1137.305313 261.142659 
L 1137.305313 148.888671 
L 55.345313 148.888671 
z
" style="fill: #ffffff"/>
   </g>
   <g id="matplotlib.axis_3">
    <g id="xtick_7">
     <g id="line2d_11">
      <g>
       <use xlink:href="#medcd549c7c" x="104.525313" y="261.142659" style="stroke: #000000; stroke-width: 0.8"/>
      </g>
     </g>
     <g id="text_11">
      <!-- 0 -->
      <g transform="translate(101.344063 275.741096) scale(0.1 -0.1)">
       <use xlink:href="#DejaVuSans-30"/>
      </g>
     </g>
    </g>
    <g id="xtick_8">
     <g id="line2d_12">
      <g>
       <use xlink:href="#medcd549c7c" x="294.409482" y="261.142659" style="stroke: #000000; stroke-width: 0.8"/>
      </g>
     </g>
     <g id="text_12">
      <!-- 200 -->
      <g transform="translate(284.865732 275.741096) scale(0.1 -0.1)">
       <use xlink:href="#DejaVuSans-32"/>
       <use xlink:href="#DejaVuSans-30" transform="translate(63.623047 0)"/>
       <use xlink:href="#DejaVuSans-30" transform="translate(127.246094 0)"/>
      </g>
     </g>
    </g>
    <g id="xtick_9">
     <g id="line2d_13">
      <g>
       <use xlink:href="#medcd549c7c" x="484.293652" y="261.142659" style="stroke: #000000; stroke-width: 0.8"/>
      </g>
     </g>
     <g id="text_13">
      <!-- 400 -->
      <g transform="translate(474.749902 275.741096) scale(0.1 -0.1)">
       <use xlink:href="#DejaVuSans-34"/>
       <use xlink:href="#DejaVuSans-30" transform="translate(63.623047 0)"/>
       <use xlink:href="#DejaVuSans-30" transform="translate(127.246094 0)"/>
      </g>
     </g>
    </g>
    <g id="xtick_10">
     <g id="line2d_14">
      <g>
       <use xlink:href="#medcd549c7c" x="674.177822" y="261.142659" style="stroke: #000000; stroke-width: 0.8"/>
      </g>
     </g>
     <g id="text_14">
      <!-- 600 -->
      <g transform="translate(664.634072 275.741096) scale(0.1 -0.1)">
       <use xlink:href="#DejaVuSans-36"/>
       <use xlink:href="#DejaVuSans-30" transform="translate(63.623047 0)"/>
       <use xlink:href="#DejaVuSans-30" transform="translate(127.246094 0)"/>
      </g>
     </g>
    </g>
    <g id="xtick_11">
     <g id="line2d_15">
      <g>
       <use xlink:href="#medcd549c7c" x="864.061992" y="261.142659" style="stroke: #000000; stroke-width: 0.8"/>
      </g>
     </g>
     <g id="text_15">
      <!-- 800 -->
      <g transform="translate(854.518242 275.741096) scale(0.1 -0.1)">
       <use xlink:href="#DejaVuSans-38"/>
       <use xlink:href="#DejaVuSans-30" transform="translate(63.623047 0)"/>
       <use xlink:href="#DejaVuSans-30" transform="translate(127.246094 0)"/>
      </g>
     </g>
    </g>
    <g id="xtick_12">
     <g id="line2d_16">
      <g>
       <use xlink:href="#medcd549c7c" x="1053.946162" y="261.142659" style="stroke: #000000; stroke-width: 0.8"/>
      </g>
     </g>
     <g id="text_16">
      <!-- 1000 -->
      <g transform="translate(1041.221162 275.741096) scale(0.1 -0.1)">
       <use xlink:href="#DejaVuSans-31"/>
       <use xlink:href="#DejaVuSans-30" transform="translate(63.623047 0)"/>
       <use xlink:href="#DejaVuSans-30" transform="translate(127.246094 0)"/>
       <use xlink:href="#DejaVuSans-30" transform="translate(190.869141 0)"/>
      </g>
     </g>
    </g>
   </g>
   <g id="matplotlib.axis_4">
    <g id="ytick_4">
     <g id="line2d_17">
      <g>
       <use xlink:href="#md66d78fbb6" x="55.345313" y="254.01951" style="stroke: #000000; stroke-width: 0.8"/>
      </g>
     </g>
     <g id="text_17">
      <!-- −100 -->
      <g transform="translate(20.878125 257.818729) scale(0.1 -0.1)">
       <defs>
        <path id="DejaVuSans-2212" d="M 678 2272 
L 4684 2272 
L 4684 1741 
L 678 1741 
L 678 2272 
z
" transform="scale(0.015625)"/>
       </defs>
       <use xlink:href="#DejaVuSans-2212"/>
       <use xlink:href="#DejaVuSans-31" transform="translate(83.789062 0)"/>
       <use xlink:href="#DejaVuSans-30" transform="translate(147.412109 0)"/>
       <use xlink:href="#DejaVuSans-30" transform="translate(211.035156 0)"/>
      </g>
     </g>
    </g>
    <g id="ytick_5">
     <g id="line2d_18">
      <g>
       <use xlink:href="#md66d78fbb6" x="55.345313" y="215.139141" style="stroke: #000000; stroke-width: 0.8"/>
      </g>
     </g>
     <g id="text_18">
      <!-- 0 -->
      <g transform="translate(41.982813 218.938359) scale(0.1 -0.1)">
       <use xlink:href="#DejaVuSans-30"/>
      </g>
     </g>
    </g>
    <g id="ytick_6">
     <g id="line2d_19">
      <g>
       <use xlink:href="#md66d78fbb6" x="55.345313" y="176.258771" style="stroke: #000000; stroke-width: 0.8"/>
      </g>
     </g>
     <g id="text_19">
      <!-- 100 -->
      <g transform="translate(29.257813 180.05799) scale(0.1 -0.1)">
       <use xlink:href="#DejaVuSans-31"/>
       <use xlink:href="#DejaVuSans-30" transform="translate(63.623047 0)"/>
       <use xlink:href="#DejaVuSans-30" transform="translate(127.246094 0)"/>
      </g>
     </g>
    </g>
    <g id="text_20">
     <!-- co-imf0 -->
     <g transform="translate(14.798438 223.922696) rotate(-90) scale(0.1 -0.1)">
      <defs>
       <path id="DejaVuSans-63" d="M 3122 3366 
L 3122 2828 
Q 2878 2963 2633 3030 
Q 2388 3097 2138 3097 
Q 1578 3097 1268 2742 
Q 959 2388 959 1747 
Q 959 1106 1268 751 
Q 1578 397 2138 397 
Q 2388 397 2633 464 
Q 2878 531 3122 666 
L 3122 134 
Q 2881 22 2623 -34 
Q 2366 -91 2075 -91 
Q 1284 -91 818 406 
Q 353 903 353 1747 
Q 353 2603 823 3093 
Q 1294 3584 2113 3584 
Q 2378 3584 2631 3529 
Q 2884 3475 3122 3366 
z
" transform="scale(0.015625)"/>
       <path id="DejaVuSans-6f" d="M 1959 3097 
Q 1497 3097 1228 2736 
Q 959 2375 959 1747 
Q 959 1119 1226 758 
Q 1494 397 1959 397 
Q 2419 397 2687 759 
Q 2956 1122 2956 1747 
Q 2956 2369 2687 2733 
Q 2419 3097 1959 3097 
z
M 1959 3584 
Q 2709 3584 3137 3096 
Q 3566 2609 3566 1747 
Q 3566 888 3137 398 
Q 2709 -91 1959 -91 
Q 1206 -91 779 398 
Q 353 888 353 1747 
Q 353 2609 779 3096 
Q 1206 3584 1959 3584 
z
" transform="scale(0.015625)"/>
       <path id="DejaVuSans-2d" d="M 313 2009 
L 1997 2009 
L 1997 1497 
L 313 1497 
L 313 2009 
z
" transform="scale(0.015625)"/>
       <path id="DejaVuSans-6d" d="M 3328 2828 
Q 3544 3216 3844 3400 
Q 4144 3584 4550 3584 
Q 5097 3584 5394 3201 
Q 5691 2819 5691 2113 
L 5691 0 
L 5113 0 
L 5113 2094 
Q 5113 2597 4934 2840 
Q 4756 3084 4391 3084 
Q 3944 3084 3684 2787 
Q 3425 2491 3425 1978 
L 3425 0 
L 2847 0 
L 2847 2094 
Q 2847 2600 2669 2842 
Q 2491 3084 2119 3084 
Q 1678 3084 1418 2786 
Q 1159 2488 1159 1978 
L 1159 0 
L 581 0 
L 581 3500 
L 1159 3500 
L 1159 2956 
Q 1356 3278 1631 3431 
Q 1906 3584 2284 3584 
Q 2666 3584 2933 3390 
Q 3200 3197 3328 2828 
z
" transform="scale(0.015625)"/>
       <path id="DejaVuSans-66" d="M 2375 4863 
L 2375 4384 
L 1825 4384 
Q 1516 4384 1395 4259 
Q 1275 4134 1275 3809 
L 1275 3500 
L 2222 3500 
L 2222 3053 
L 1275 3053 
L 1275 0 
L 697 0 
L 697 3053 
L 147 3053 
L 147 3500 
L 697 3500 
L 697 3744 
Q 697 4328 969 4595 
Q 1241 4863 1831 4863 
L 2375 4863 
z
" transform="scale(0.015625)"/>
      </defs>
      <use xlink:href="#DejaVuSans-63"/>
      <use xlink:href="#DejaVuSans-6f" transform="translate(54.980469 0)"/>
      <use xlink:href="#DejaVuSans-2d" transform="translate(118.037109 0)"/>
      <use xlink:href="#DejaVuSans-69" transform="translate(154.121094 0)"/>
      <use xlink:href="#DejaVuSans-6d" transform="translate(181.904297 0)"/>
      <use xlink:href="#DejaVuSans-66" transform="translate(279.316406 0)"/>
      <use xlink:href="#DejaVuSans-30" transform="translate(314.521484 0)"/>
     </g>
    </g>
   </g>
   <g id="line2d_20">
    <path d="M 104.525313 215.13945 
L 109.272417 215.119715 
L 115.918363 215.213389 
L 119.716046 215.476072 
L 122.564309 215.783534 
L 129.210255 216.282163 
L 130.159675 216.224344 
L 131.109096 215.767268 
L 132.058517 214.858724 
L 133.007938 214.269073 
L 133.957359 213.969697 
L 134.90678 211.108518 
L 136.805621 212.742225 
L 137.755042 215.733339 
L 138.704463 216.670031 
L 139.653884 215.466187 
L 140.603305 216.045197 
L 141.552726 217.664034 
L 142.502146 219.797568 
L 143.451567 219.772018 
L 144.400988 213.778097 
L 145.350409 205.941285 
L 146.29983 204.702648 
L 147.249251 212.09154 
L 148.198672 215.878963 
L 149.148092 217.906926 
L 151.046934 220.355829 
L 151.996355 219.018368 
L 152.945776 216.675507 
L 153.895197 215.997817 
L 154.844618 217.399687 
L 155.794038 217.324276 
L 156.743459 216.459544 
L 157.69288 216.076332 
L 158.642301 215.955777 
L 160.541143 215.218413 
L 161.490563 215.043042 
L 162.439984 215.069221 
L 163.389405 214.727978 
L 164.338826 213.589982 
L 165.288247 213.41582 
L 166.237668 208.562239 
L 167.187089 206.986968 
L 168.136509 206.765085 
L 169.08593 206.122728 
L 170.984772 207.705835 
L 172.883614 210.018824 
L 173.833035 210.999557 
L 174.782455 212.369738 
L 182.377822 225.316562 
L 185.226085 229.62113 
L 186.175506 231.733225 
L 188.074347 237.536129 
L 189.973189 244.160111 
L 190.92261 247.801828 
L 191.872031 249.643191 
L 192.821451 249.448226 
L 193.770872 246.755728 
L 194.720293 240.820787 
L 195.669714 241.286427 
L 196.619135 235.049809 
L 197.568556 232.442517 
L 199.467397 224.641228 
L 200.416818 210.134691 
L 201.366239 190.844164 
L 202.31566 165.415063 
L 203.265081 168.394958 
L 204.214502 157.106259 
L 205.163923 160.175898 
L 206.113343 165.425352 
L 207.062764 176.193884 
L 208.012185 192.416665 
L 208.961606 205.254561 
L 209.911027 213.058819 
L 210.860448 203.385612 
L 211.809868 200.440072 
L 212.759289 197.114239 
L 213.70871 207.304521 
L 214.658131 213.406695 
L 215.607552 218.39008 
L 216.556973 225.202886 
L 217.506394 228.847158 
L 219.405235 233.715044 
L 220.354656 234.174109 
L 221.304077 233.479478 
L 222.253498 233.179566 
L 223.202919 233.387557 
L 224.15234 235.39973 
L 226.051181 243.902388 
L 227.000602 247.880721 
L 227.950023 251.193458 
L 228.899444 253.23147 
L 229.848865 254.981389 
L 230.798285 256.040205 
L 231.747706 237.07995 
L 232.697127 234.890664 
L 233.646548 234.213706 
L 234.595969 230.094111 
L 235.54539 233.483386 
L 236.494811 238.009485 
L 237.444231 241.676944 
L 238.393652 243.492725 
L 239.343073 216.54502 
L 240.292494 203.032738 
L 241.241915 193.193722 
L 242.191336 186.931278 
L 243.140757 153.991125 
L 244.090177 173.155819 
L 245.039598 185.719417 
L 245.989019 201.465311 
L 246.93844 220.760852 
L 247.887861 236.366811 
L 248.837282 245.113669 
L 249.786702 243.099575 
L 250.736123 231.584383 
L 251.685544 223.641622 
L 252.634965 204.939054 
L 253.584386 202.3369 
L 254.533807 210.042439 
L 255.483228 207.115019 
L 256.432648 201.514726 
L 257.382069 200.776658 
L 258.33149 200.632259 
L 259.280911 206.211078 
L 260.230332 214.147248 
L 261.179753 209.841285 
L 262.129174 212.412696 
L 263.078594 220.77597 
L 264.028015 221.277909 
L 264.977436 216.59001 
L 265.926857 215.336222 
L 266.876278 216.011643 
L 267.825699 215.531109 
L 268.775119 215.262703 
L 271.623382 214.175307 
L 272.572803 214.150264 
L 273.522224 215.084092 
L 274.471645 217.139855 
L 275.421065 218.438773 
L 276.370486 219.087932 
L 277.319907 214.708291 
L 278.269328 216.272803 
L 280.16817 211.788699 
L 281.11759 212.156383 
L 282.067011 212.029773 
L 283.016432 209.334953 
L 283.965853 209.533916 
L 284.915274 210.855596 
L 285.864695 214.787768 
L 286.814116 222.018032 
L 287.763536 220.267763 
L 288.712957 216.551298 
L 289.662378 210.362944 
L 290.611799 210.620482 
L 292.510641 212.664307 
L 293.460062 212.811358 
L 294.409482 214.219715 
L 295.358903 216.145061 
L 296.308324 217.052179 
L 297.257745 216.710511 
L 298.207166 217.545903 
L 299.156587 219.211328 
L 300.106007 219.209999 
L 301.055428 216.491584 
L 302.004849 216.238837 
L 302.95427 206.129607 
L 303.903691 209.47493 
L 304.853112 211.499916 
L 305.802533 213.155778 
L 306.751953 211.942266 
L 307.701374 211.257321 
L 309.600216 211.43381 
L 311.499058 213.435313 
L 313.397899 215.747748 
L 314.34732 217.035938 
L 315.296741 218.91635 
L 316.246162 221.400189 
L 317.195583 223.393771 
L 318.145004 224.937289 
L 319.094424 225.190215 
L 320.043845 223.782438 
L 320.993266 222.02198 
L 321.942687 219.66814 
L 322.892108 214.418354 
L 323.841529 215.004222 
L 324.79095 202.892502 
L 325.74037 203.10613 
L 326.689791 203.681285 
L 327.639212 205.955061 
L 330.487475 211.891202 
L 331.436896 214.335336 
L 332.386316 215.665993 
L 333.335737 215.757668 
L 334.285158 215.501341 
L 335.234579 214.539275 
L 336.184 213.755859 
L 337.133421 213.282451 
L 338.082841 212.971266 
L 339.032262 213.113834 
L 339.981683 213.560782 
L 340.931104 214.427556 
L 341.880525 215.646155 
L 342.829946 217.246899 
L 343.779367 218.60949 
L 344.728787 219.673593 
L 345.678208 221.165921 
L 346.627629 222.954121 
L 347.57705 221.870976 
L 348.526471 221.600892 
L 349.475892 221.075265 
L 351.374733 221.765605 
L 352.324154 222.615817 
L 353.273575 223.297322 
L 354.222996 223.811613 
L 355.172417 225.670645 
L 356.121838 228.8693 
L 357.071258 230.593837 
L 358.020679 230.976242 
L 358.9701 228.71705 
L 359.919521 222.96763 
L 360.868942 226.645221 
L 361.818363 223.076893 
L 362.767784 221.254375 
L 363.717204 216.269661 
L 364.666625 215.101512 
L 365.616046 217.426406 
L 366.565467 220.221643 
L 367.514888 224.724995 
L 368.464309 222.479136 
L 369.413729 219.016339 
L 370.36315 217.203832 
L 371.312571 202.583825 
L 372.261992 205.303144 
L 373.211413 207.508005 
L 375.110255 215.717746 
L 376.059675 218.719193 
L 377.009096 219.25516 
L 377.958517 219.484738 
L 378.907938 219.536286 
L 379.857359 215.118567 
L 380.80678 215.973416 
L 381.756201 214.321971 
L 382.705621 213.748244 
L 383.655042 213.51386 
L 384.604463 214.534847 
L 385.553884 215.737054 
L 386.503305 215.898719 
L 387.452726 215.307434 
L 388.402146 214.422525 
L 389.351567 213.751581 
L 390.300988 213.633354 
L 391.250409 214.013618 
L 392.19983 215.194112 
L 393.149251 216.086865 
L 394.098672 216.75234 
L 395.048092 216.672089 
L 395.997513 215.53568 
L 396.946934 213.211582 
L 397.896355 214.656902 
L 398.845776 214.657475 
L 399.795197 215.452597 
L 400.744618 215.632779 
L 401.694038 215.094309 
L 402.643459 215.165742 
L 405.491722 216.450895 
L 406.441143 216.343346 
L 409.289405 214.036886 
L 410.238826 213.592163 
L 412.137668 213.864225 
L 413.087089 214.332817 
L 414.036509 214.50117 
L 414.98593 214.296679 
L 415.935351 214.383719 
L 416.884772 214.634616 
L 417.834193 215.617609 
L 418.783614 217.501546 
L 419.733035 218.199365 
L 420.682455 217.746193 
L 421.631876 216.689557 
L 422.581297 214.527702 
L 423.530718 214.208835 
L 424.480139 215.905579 
L 425.42956 216.404282 
L 426.37898 216.277197 
L 427.328401 215.321244 
L 428.277822 213.690193 
L 429.227243 213.154323 
L 430.176664 213.952863 
L 431.126085 214.171665 
L 432.075506 214.254197 
L 433.974347 215.125847 
L 435.873189 215.953693 
L 436.82261 216.181349 
L 437.772031 216.185582 
L 438.721451 216.009255 
L 445.367397 213.173237 
L 446.316818 213.004222 
L 447.266239 213.118244 
L 448.21566 214.041527 
L 449.165081 215.916302 
L 450.114502 217.36262 
L 451.063923 218.468788 
L 452.013343 218.709766 
L 453.912185 216.64791 
L 454.861606 215.311863 
L 455.811027 212.078415 
L 456.760448 212.938196 
L 457.709868 212.870744 
L 458.659289 214.311737 
L 459.60871 215.019635 
L 460.558131 215.019009 
L 461.507552 215.175442 
L 462.456973 215.074804 
L 463.406394 215.458825 
L 464.355814 216.41179 
L 465.305235 216.522507 
L 466.254656 215.88297 
L 469.102919 214.653972 
L 470.05234 214.483175 
L 471.00176 214.453735 
L 475.748865 215.48802 
L 476.698285 215.460261 
L 478.597127 215.030231 
L 480.495969 214.832053 
L 483.344231 215.217505 
L 486.192494 215.821388 
L 487.141915 215.844301 
L 488.091336 215.696402 
L 492.83844 213.810216 
L 493.787861 213.642836 
L 495.686702 213.758391 
L 496.636123 213.973557 
L 497.585544 214.332782 
L 499.484386 215.383613 
L 501.383228 216.550477 
L 502.332648 217.043431 
L 503.282069 217.384206 
L 504.23149 217.519999 
L 505.180911 217.506799 
L 508.029174 216.961773 
L 508.978594 216.958085 
L 509.928015 217.177435 
L 510.877436 216.668308 
L 511.826857 215.408293 
L 513.725699 213.525288 
L 514.675119 213.228234 
L 515.62454 213.765452 
L 516.573961 213.883014 
L 517.523382 213.719814 
L 518.472803 213.949167 
L 521.321065 215.135188 
L 522.270486 215.073689 
L 527.01759 212.218455 
L 527.967011 212.235663 
L 529.865853 213.5153 
L 530.815274 214.136635 
L 531.764695 215.399093 
L 532.714116 217.227263 
L 533.663536 218.297557 
L 534.612957 218.608125 
L 535.562378 218.261623 
L 536.511799 216.892515 
L 537.46122 211.195805 
L 538.410641 212.628924 
L 539.360062 212.400358 
L 540.309482 214.186407 
L 541.258903 215.412051 
L 543.157745 216.565196 
L 544.107166 216.660948 
L 545.056587 215.985675 
L 546.006007 214.892187 
L 546.955428 213.983509 
L 547.904849 213.422299 
L 548.85427 213.196653 
L 549.803691 213.406534 
L 550.753112 214.117055 
L 551.702533 215.396072 
L 552.651953 216.155672 
L 553.601374 216.345455 
L 555.500216 216.930517 
L 557.399058 217.023152 
L 559.297899 216.877194 
L 563.095583 216.221424 
L 567.842687 215.189461 
L 569.741529 214.604796 
L 571.64037 213.814144 
L 572.589791 213.554949 
L 573.539212 213.468092 
L 574.488633 213.613978 
L 575.438054 213.910111 
L 576.387475 214.405664 
L 577.336896 215.04755 
L 578.286316 215.837968 
L 579.235737 216.278521 
L 580.185158 216.30652 
L 581.134579 216.214766 
L 583.033421 215.532623 
L 584.932262 215.057026 
L 586.831104 214.84369 
L 587.780525 214.624346 
L 589.679367 214.538006 
L 590.628787 214.72286 
L 592.527629 215.497693 
L 594.426471 216.114998 
L 595.375892 216.273786 
L 596.325312 215.898135 
L 597.274733 214.900775 
L 598.224154 214.242946 
L 599.173575 213.854975 
L 600.122996 214.127264 
L 601.072417 215.326102 
L 602.021838 215.702725 
L 602.971258 215.335397 
L 603.920679 215.498756 
L 606.768942 216.617476 
L 607.718363 216.784891 
L 608.667784 216.671084 
L 609.617204 216.166544 
L 610.566625 215.151909 
L 611.516046 214.570865 
L 612.465467 214.419823 
L 616.26315 213.154146 
L 617.212571 213.049669 
L 618.161992 213.139787 
L 619.111413 213.47009 
L 623.858517 216.623619 
L 624.807938 216.980926 
L 625.757359 217.075085 
L 626.70678 216.844124 
L 628.605621 215.63478 
L 630.504463 214.580798 
L 631.453884 214.207075 
L 632.403305 214.015435 
L 634.302146 214.198995 
L 636.200988 214.744791 
L 638.09983 215.349238 
L 640.948092 215.566695 
L 641.897513 215.431843 
L 642.846934 215.137042 
L 643.796355 215.0173 
L 647.594038 215.158738 
L 652.341143 215.155696 
L 655.189405 215.156911 
L 657.088247 214.898588 
L 658.987089 214.904146 
L 666.582455 215.888702 
L 668.481297 215.379354 
L 671.32956 214.116964 
L 672.27898 214.010349 
L 674.177822 214.5446 
L 676.076664 215.255018 
L 677.975506 215.685398 
L 678.924926 215.970794 
L 680.823768 216.201958 
L 682.72261 216.145642 
L 684.621451 215.860143 
L 686.520293 215.278559 
L 689.368556 214.385447 
L 690.317977 214.216235 
L 691.267397 214.252157 
L 693.166239 214.765178 
L 695.065081 215.126784 
L 696.014502 215.176045 
L 696.963923 215.453075 
L 697.913343 215.950661 
L 698.862764 216.055594 
L 704.559289 214.570513 
L 705.50871 214.395873 
L 706.458131 214.428822 
L 708.356973 214.824146 
L 711.205235 214.966645 
L 712.154656 215.272429 
L 713.104077 215.894474 
L 715.002919 216.709732 
L 715.95234 216.388349 
L 716.90176 215.231123 
L 717.851181 214.381066 
L 718.800602 213.70703 
L 719.750023 213.718394 
L 720.699444 214.706381 
L 721.648865 215.209082 
L 723.547706 215.626797 
L 727.34539 215.247219 
L 728.294811 214.997686 
L 729.244231 214.912626 
L 733.041915 215.225752 
L 734.940757 215.142067 
L 742.536123 215.213448 
L 743.485544 215.34349 
L 744.434965 215.318041 
L 749.182069 214.386436 
L 750.13149 214.433555 
L 751.080911 214.809571 
L 752.030332 215.425628 
L 752.979753 216.386588 
L 753.929174 216.445071 
L 754.878594 215.508837 
L 755.828015 214.976358 
L 756.777436 214.593612 
L 757.726857 214.523782 
L 758.676278 215.027146 
L 759.625699 215.193526 
L 760.575119 215.111807 
L 763.423382 215.192132 
L 765.322224 214.978586 
L 766.271645 214.698196 
L 767.221065 214.56798 
L 769.119907 214.629024 
L 771.018749 214.759374 
L 771.96817 214.635895 
L 772.91759 215.033692 
L 773.867011 215.956693 
L 774.816432 216.302748 
L 775.765853 216.143321 
L 776.715274 215.335692 
L 777.664695 214.177249 
L 778.614116 213.799388 
L 779.563536 214.451395 
L 783.36122 215.572494 
L 784.310641 215.640103 
L 786.209482 215.32743 
L 788.108324 214.915067 
L 789.057745 214.849851 
L 790.007166 214.906783 
L 791.906007 215.278585 
L 793.804849 215.289369 
L 795.703691 215.053113 
L 797.602533 215.046949 
L 799.501374 215.193141 
L 808.046162 215.139141 
L 812.793266 215.07977 
L 815.641529 215.189035 
L 819.439212 215.107067 
L 822.287475 215.001546 
L 824.186316 215.216857 
L 826.085158 215.295142 
L 831.781683 215.050949 
L 833.680525 215.168464 
L 836.528787 214.963128 
L 838.427629 214.89963 
L 840.326471 215.141118 
L 843.174733 215.524333 
L 846.022996 215.614254 
L 847.921838 215.361052 
L 849.820679 214.831294 
L 850.7701 214.177662 
L 851.719521 214.672457 
L 852.668942 214.785013 
L 854.567784 215.406327 
L 856.466625 215.62953 
L 858.365467 215.393894 
L 860.264309 215.069328 
L 871.657359 215.178173 
L 875.455042 215.275277 
L 878.303305 214.976293 
L 880.202146 214.987878 
L 884.949251 215.223189 
L 886.848092 215.103716 
L 896.342301 215.151554 
L 902.988247 215.13871 
L 908.684772 215.363387 
L 909.634193 215.038127 
L 910.583614 214.304482 
L 911.533035 214.353861 
L 912.482455 215.179268 
L 913.431876 215.620218 
L 914.381297 215.886411 
L 915.330718 215.717028 
L 916.280139 214.87871 
L 917.22956 214.726791 
L 918.17898 215.204109 
L 919.128401 215.24789 
L 921.027243 215.013577 
L 922.926085 214.718572 
L 927.673189 213.755548 
L 928.62261 213.88131 
L 930.521451 214.630045 
L 931.470872 214.957179 
L 933.369714 215.963537 
L 934.319135 216.687082 
L 935.268556 217.614746 
L 936.217977 217.791973 
L 937.167397 217.159587 
L 938.116818 215.778813 
L 939.066239 213.355343 
L 940.01566 212.446722 
L 940.965081 213.162813 
L 942.863923 213.801094 
L 943.813343 214.258921 
L 944.762764 214.539948 
L 945.712185 215.101578 
L 946.661606 215.861164 
L 947.611027 216.421355 
L 948.560448 216.810414 
L 949.509868 216.885312 
L 950.459289 216.532094 
L 951.40871 215.909634 
L 952.358131 214.930439 
L 953.307552 214.38224 
L 954.256973 214.335578 
L 955.206394 214.462681 
L 957.105235 215.260645 
L 959.004077 215.56774 
L 960.902919 215.35774 
L 962.80176 214.993327 
L 965.650023 214.915377 
L 967.548865 215.13898 
L 970.397127 215.537745 
L 972.295969 215.214479 
L 973.24539 214.896619 
L 974.194811 214.790018 
L 975.144231 214.926617 
L 977.043073 214.851143 
L 979.891336 214.721974 
L 984.63844 215.673075 
L 985.587861 215.627853 
L 989.385544 214.760574 
L 990.334965 214.677305 
L 991.284386 214.726661 
L 994.132648 215.309933 
L 996.03149 215.512847 
L 997.930332 215.373122 
L 1002.677436 214.81905 
L 1004.576278 214.945052 
L 1006.475119 215.282442 
L 1008.373961 215.398852 
L 1015.019907 214.944596 
L 1016.918749 215.142769 
L 1018.81759 215.248885 
L 1030.210641 215.141431 
L 1033.058903 215.367781 
L 1034.957745 215.183896 
L 1036.856587 214.903451 
L 1038.755428 215.004147 
L 1040.65427 215.186258 
L 1044.451953 215.049368 
L 1046.350795 215.192439 
L 1048.249637 215.476372 
L 1049.199058 215.500362 
L 1050.148479 215.385913 
L 1052.04732 214.890674 
L 1053.946162 214.775931 
L 1057.743845 215.229651 
L 1060.592108 215.328411 
L 1066.288633 215.137198 
L 1088.125313 215.139141 
L 1088.125313 215.139141 
" clip-path="url(#p7fb45cf0d2)" style="fill: none; stroke: #f27f19; stroke-width: 1.5; stroke-linecap: square"/>
   </g>
   <g id="patch_8">
    <path d="M 55.345313 261.142659 
L 55.345313 148.888671 
" style="fill: none; stroke: #000000; stroke-width: 0.8; stroke-linejoin: miter; stroke-linecap: square"/>
   </g>
   <g id="patch_9">
    <path d="M 1137.305313 261.142659 
L 1137.305313 148.888671 
" style="fill: none; stroke: #000000; stroke-width: 0.8; stroke-linejoin: miter; stroke-linecap: square"/>
   </g>
   <g id="patch_10">
    <path d="M 55.345313 261.142659 
L 1137.305312 261.142659 
" style="fill: none; stroke: #000000; stroke-width: 0.8; stroke-linejoin: miter; stroke-linecap: square"/>
   </g>
   <g id="patch_11">
    <path d="M 55.345313 148.888671 
L 1137.305312 148.888671 
" style="fill: none; stroke: #000000; stroke-width: 0.8; stroke-linejoin: miter; stroke-linecap: square"/>
   </g>
  </g>
  <g id="axes_3">
   <g id="patch_12">
    <path d="M 55.345313 402.831329 
L 1137.305313 402.831329 
L 1137.305313 290.577341 
L 55.345313 290.577341 
z
" style="fill: #ffffff"/>
   </g>
   <g id="matplotlib.axis_5">
    <g id="xtick_13">
     <g id="line2d_21">
      <g>
       <use xlink:href="#medcd549c7c" x="104.525313" y="402.831329" style="stroke: #000000; stroke-width: 0.8"/>
      </g>
     </g>
     <g id="text_21">
      <!-- 0 -->
      <g transform="translate(101.344063 417.429767) scale(0.1 -0.1)">
       <use xlink:href="#DejaVuSans-30"/>
      </g>
     </g>
    </g>
    <g id="xtick_14">
     <g id="line2d_22">
      <g>
       <use xlink:href="#medcd549c7c" x="294.409482" y="402.831329" style="stroke: #000000; stroke-width: 0.8"/>
      </g>
     </g>
     <g id="text_22">
      <!-- 200 -->
      <g transform="translate(284.865732 417.429767) scale(0.1 -0.1)">
       <use xlink:href="#DejaVuSans-32"/>
       <use xlink:href="#DejaVuSans-30" transform="translate(63.623047 0)"/>
       <use xlink:href="#DejaVuSans-30" transform="translate(127.246094 0)"/>
      </g>
     </g>
    </g>
    <g id="xtick_15">
     <g id="line2d_23">
      <g>
       <use xlink:href="#medcd549c7c" x="484.293652" y="402.831329" style="stroke: #000000; stroke-width: 0.8"/>
      </g>
     </g>
     <g id="text_23">
      <!-- 400 -->
      <g transform="translate(474.749902 417.429767) scale(0.1 -0.1)">
       <use xlink:href="#DejaVuSans-34"/>
       <use xlink:href="#DejaVuSans-30" transform="translate(63.623047 0)"/>
       <use xlink:href="#DejaVuSans-30" transform="translate(127.246094 0)"/>
      </g>
     </g>
    </g>
    <g id="xtick_16">
     <g id="line2d_24">
      <g>
       <use xlink:href="#medcd549c7c" x="674.177822" y="402.831329" style="stroke: #000000; stroke-width: 0.8"/>
      </g>
     </g>
     <g id="text_24">
      <!-- 600 -->
      <g transform="translate(664.634072 417.429767) scale(0.1 -0.1)">
       <use xlink:href="#DejaVuSans-36"/>
       <use xlink:href="#DejaVuSans-30" transform="translate(63.623047 0)"/>
       <use xlink:href="#DejaVuSans-30" transform="translate(127.246094 0)"/>
      </g>
     </g>
    </g>
    <g id="xtick_17">
     <g id="line2d_25">
      <g>
       <use xlink:href="#medcd549c7c" x="864.061992" y="402.831329" style="stroke: #000000; stroke-width: 0.8"/>
      </g>
     </g>
     <g id="text_25">
      <!-- 800 -->
      <g transform="translate(854.518242 417.429767) scale(0.1 -0.1)">
       <use xlink:href="#DejaVuSans-38"/>
       <use xlink:href="#DejaVuSans-30" transform="translate(63.623047 0)"/>
       <use xlink:href="#DejaVuSans-30" transform="translate(127.246094 0)"/>
      </g>
     </g>
    </g>
    <g id="xtick_18">
     <g id="line2d_26">
      <g>
       <use xlink:href="#medcd549c7c" x="1053.946162" y="402.831329" style="stroke: #000000; stroke-width: 0.8"/>
      </g>
     </g>
     <g id="text_26">
      <!-- 1000 -->
      <g transform="translate(1041.221162 417.429767) scale(0.1 -0.1)">
       <use xlink:href="#DejaVuSans-31"/>
       <use xlink:href="#DejaVuSans-30" transform="translate(63.623047 0)"/>
       <use xlink:href="#DejaVuSans-30" transform="translate(127.246094 0)"/>
       <use xlink:href="#DejaVuSans-30" transform="translate(190.869141 0)"/>
      </g>
     </g>
    </g>
   </g>
   <g id="matplotlib.axis_6">
    <g id="ytick_7">
     <g id="line2d_27">
      <g>
       <use xlink:href="#md66d78fbb6" x="55.345313" y="391.702257" style="stroke: #000000; stroke-width: 0.8"/>
      </g>
     </g>
     <g id="text_27">
      <!-- −100 -->
      <g transform="translate(20.878125 395.501476) scale(0.1 -0.1)">
       <use xlink:href="#DejaVuSans-2212"/>
       <use xlink:href="#DejaVuSans-31" transform="translate(83.789062 0)"/>
       <use xlink:href="#DejaVuSans-30" transform="translate(147.412109 0)"/>
       <use xlink:href="#DejaVuSans-30" transform="translate(211.035156 0)"/>
      </g>
     </g>
    </g>
    <g id="ytick_8">
     <g id="line2d_28">
      <g>
       <use xlink:href="#md66d78fbb6" x="55.345313" y="358.927416" style="stroke: #000000; stroke-width: 0.8"/>
      </g>
     </g>
     <g id="text_28">
      <!-- 0 -->
      <g transform="translate(41.982813 362.726634) scale(0.1 -0.1)">
       <use xlink:href="#DejaVuSans-30"/>
      </g>
     </g>
    </g>
    <g id="ytick_9">
     <g id="line2d_29">
      <g>
       <use xlink:href="#md66d78fbb6" x="55.345313" y="326.152574" style="stroke: #000000; stroke-width: 0.8"/>
      </g>
     </g>
     <g id="text_29">
      <!-- 100 -->
      <g transform="translate(29.257813 329.951793) scale(0.1 -0.1)">
       <use xlink:href="#DejaVuSans-31"/>
       <use xlink:href="#DejaVuSans-30" transform="translate(63.623047 0)"/>
       <use xlink:href="#DejaVuSans-30" transform="translate(127.246094 0)"/>
      </g>
     </g>
    </g>
    <g id="ytick_10">
     <g id="line2d_30">
      <g>
       <use xlink:href="#md66d78fbb6" x="55.345313" y="293.377733" style="stroke: #000000; stroke-width: 0.8"/>
      </g>
     </g>
     <g id="text_30">
      <!-- 200 -->
      <g transform="translate(29.257813 297.176952) scale(0.1 -0.1)">
       <use xlink:href="#DejaVuSans-32"/>
       <use xlink:href="#DejaVuSans-30" transform="translate(63.623047 0)"/>
       <use xlink:href="#DejaVuSans-30" transform="translate(127.246094 0)"/>
      </g>
     </g>
    </g>
    <g id="text_31">
     <!-- co-imf1 -->
     <g transform="translate(14.798438 365.611367) rotate(-90) scale(0.1 -0.1)">
      <use xlink:href="#DejaVuSans-63"/>
      <use xlink:href="#DejaVuSans-6f" transform="translate(54.980469 0)"/>
      <use xlink:href="#DejaVuSans-2d" transform="translate(118.037109 0)"/>
      <use xlink:href="#DejaVuSans-69" transform="translate(154.121094 0)"/>
      <use xlink:href="#DejaVuSans-6d" transform="translate(181.904297 0)"/>
      <use xlink:href="#DejaVuSans-66" transform="translate(279.316406 0)"/>
      <use xlink:href="#DejaVuSans-31" transform="translate(314.521484 0)"/>
     </g>
    </g>
   </g>
   <g id="line2d_31">
    <path d="M 104.525313 386.093115 
L 111.171258 386.707673 
L 121.614888 388.018956 
L 124.46315 388.389592 
L 126.361992 388.784299 
L 128.260834 389.33451 
L 133.007938 390.957028 
L 133.957359 391.083025 
L 134.90678 391.03366 
L 135.856201 390.764625 
L 136.805621 390.275581 
L 137.755042 389.551373 
L 138.704463 388.611776 
L 140.603305 386.164547 
L 144.400988 380.392185 
L 145.350409 379.230654 
L 146.29983 378.35652 
L 147.249251 377.8503 
L 148.198672 377.699934 
L 149.148092 377.885428 
L 150.097513 378.347327 
L 151.046934 379.059481 
L 151.996355 379.970359 
L 153.895197 382.225058 
L 157.69288 387.145706 
L 160.541143 390.409731 
L 163.389405 393.324908 
L 165.288247 395.029126 
L 167.187089 396.413794 
L 168.136509 396.945459 
L 169.08593 397.348945 
L 170.035351 397.608468 
L 170.984772 397.728875 
L 171.934193 397.700904 
L 172.883614 397.540371 
L 173.833035 397.244257 
L 174.782455 396.820219 
L 176.681297 395.602122 
L 178.580139 393.919289 
L 180.47898 391.806462 
L 182.377822 389.297847 
L 184.276664 386.440637 
L 187.124926 381.648796 
L 190.92261 374.652841 
L 198.517977 360.452582 
L 201.366239 355.565613 
L 204.214502 351.156645 
L 206.113343 348.557235 
L 208.012185 346.230053 
L 210.860448 343.131512 
L 214.658131 339.414874 
L 219.405235 334.754573 
L 222.253498 331.590479 
L 224.15234 329.201182 
L 226.051181 326.517478 
L 227.950023 323.477935 
L 229.848865 320.019298 
L 232.697127 314.096822 
L 236.494811 305.948648 
L 238.393652 302.293255 
L 240.292494 299.234939 
L 241.241915 298.000929 
L 242.191336 297.002072 
L 243.140757 296.269091 
L 244.090177 295.830851 
L 245.039598 295.679795 
L 245.989019 295.820132 
L 246.93844 296.230962 
L 247.887861 296.905091 
L 248.837282 297.834542 
L 249.786702 299.00233 
L 250.736123 300.403035 
L 252.634965 303.852944 
L 254.533807 308.09569 
L 256.432648 313.007367 
L 262.129174 328.692444 
L 264.028015 332.930184 
L 265.926857 336.301892 
L 268.775119 340.906931 
L 270.673961 344.417463 
L 272.572803 348.614218 
L 276.370486 357.504082 
L 277.319907 359.35339 
L 278.269328 360.937484 
L 279.218749 362.278351 
L 280.16817 363.371306 
L 281.11759 364.237276 
L 282.067011 364.883969 
L 283.016432 365.331294 
L 283.965853 365.596599 
L 285.864695 365.814948 
L 287.763536 365.998327 
L 289.662378 366.414876 
L 291.56122 367.125489 
L 293.460062 368.184348 
L 296.308324 370.250838 
L 299.156587 372.290904 
L 301.055428 373.342005 
L 302.95427 374.082902 
L 304.853112 374.496787 
L 306.751953 374.581489 
L 308.650795 374.393807 
L 310.549637 374.005852 
L 314.34732 372.932334 
L 317.195583 372.153661 
L 319.094424 371.788525 
L 320.993266 371.614156 
L 322.892108 371.621664 
L 325.74037 371.899324 
L 328.588633 372.407059 
L 337.133421 374.164947 
L 339.981683 374.434008 
L 341.880525 374.422159 
L 343.779367 374.216041 
L 345.678208 373.780365 
L 347.57705 373.079756 
L 349.475892 372.078932 
L 351.374733 370.744154 
L 353.273575 369.052443 
L 355.172417 367.014703 
L 357.071258 364.682192 
L 359.919521 360.805612 
L 363.717204 355.498643 
L 365.616046 353.148276 
L 367.514888 351.236683 
L 368.464309 350.500634 
L 369.413729 349.940494 
L 370.36315 349.580536 
L 371.312571 349.44121 
L 372.261992 349.537993 
L 373.211413 349.883746 
L 374.160834 350.432898 
L 376.059675 352.0283 
L 378.907938 355.081895 
L 380.80678 357.089013 
L 381.756201 357.89337 
L 382.705621 358.472078 
L 383.655042 358.771229 
L 384.604463 358.79087 
L 385.553884 358.566958 
L 386.503305 358.107853 
L 387.452726 357.462588 
L 389.351567 355.797667 
L 392.19983 353.204572 
L 394.098672 351.888863 
L 395.048092 351.431733 
L 395.997513 351.142136 
L 396.946934 351.01228 
L 397.896355 351.051892 
L 398.845776 351.220821 
L 400.744618 351.887173 
L 402.643459 352.847936 
L 412.137668 358.244794 
L 414.036509 359.002228 
L 415.935351 359.55621 
L 417.834193 359.841474 
L 419.733035 359.803445 
L 421.631876 359.445901 
L 423.530718 358.853902 
L 427.328401 357.339263 
L 430.176664 356.273469 
L 432.075506 355.76749 
L 433.974347 355.535893 
L 435.873189 355.642663 
L 437.772031 356.135804 
L 439.670872 357.022997 
L 442.519135 358.805843 
L 445.367397 360.625843 
L 447.266239 361.640947 
L 449.165081 362.386485 
L 451.063923 362.773058 
L 452.013343 362.808535 
L 453.912185 362.550628 
L 455.811027 361.948196 
L 458.659289 360.669597 
L 464.355814 357.918614 
L 467.204077 356.838743 
L 469.102919 356.328969 
L 471.00176 356.032602 
L 472.900602 355.963868 
L 474.799444 356.096353 
L 477.647706 356.591721 
L 481.44539 357.304157 
L 484.293652 357.606222 
L 487.141915 357.658775 
L 491.889019 357.396847 
L 494.737282 357.332403 
L 497.585544 357.517113 
L 500.433807 357.955587 
L 503.282069 358.604866 
L 507.079753 359.729205 
L 512.776278 361.741796 
L 517.523382 363.360726 
L 520.371645 364.089389 
L 522.270486 364.417145 
L 524.169328 364.580696 
L 526.06817 364.539929 
L 527.967011 364.256146 
L 529.865853 363.690191 
L 531.764695 362.811626 
L 533.663536 361.637062 
L 537.46122 358.817058 
L 540.309482 356.813649 
L 542.208324 355.790185 
L 543.157745 355.425208 
L 545.056587 355.04872 
L 546.955428 355.094805 
L 548.85427 355.462967 
L 550.753112 356.060433 
L 554.550795 357.601716 
L 557.399058 358.717519 
L 560.24732 359.56839 
L 563.095583 360.169953 
L 566.893266 360.730325 
L 573.539212 361.634561 
L 582.084 363.193511 
L 583.982841 363.281287 
L 585.881683 363.208271 
L 587.780525 362.958384 
L 589.679367 362.515043 
L 592.527629 361.588315 
L 596.325312 360.376662 
L 599.173575 359.712984 
L 602.971258 359.114193 
L 608.667784 358.553745 
L 612.465467 358.365921 
L 615.313729 358.456133 
L 618.161992 358.845078 
L 621.010255 359.499945 
L 626.70678 360.87467 
L 629.555042 361.286507 
L 633.352726 361.572353 
L 646.644618 362.050818 
L 650.442301 361.821463 
L 665.633035 360.545904 
L 687.469714 357.513472 
L 691.267397 357.245672 
L 694.11566 357.236174 
L 697.913343 357.482552 
L 706.458131 358.34491 
L 708.356973 358.241423 
L 711.205235 357.796898 
L 714.053498 357.081018 
L 717.851181 356.025096 
L 719.750023 355.65548 
L 721.648865 355.495715 
L 724.497127 355.570673 
L 734.940757 356.501086 
L 738.73844 357.114926 
L 741.586702 357.537568 
L 748.232648 358.202374 
L 751.080911 358.915819 
L 755.828015 360.21183 
L 758.676278 360.634662 
L 761.52454 360.763821 
L 770.069328 360.834445 
L 772.91759 360.562133 
L 775.765853 359.986312 
L 779.563536 359.076422 
L 781.462378 358.801396 
L 783.36122 358.688193 
L 786.209482 358.784754 
L 790.956587 359.072077 
L 794.75427 359.019617 
L 799.501374 358.698215 
L 804.248479 358.147952 
L 808.995583 357.615567 
L 811.843845 357.561224 
L 814.692108 357.804357 
L 817.54037 358.299017 
L 824.186316 359.598637 
L 826.085158 359.758562 
L 828.933421 359.684184 
L 835.579367 359.192544 
L 841.275892 359.114999 
L 845.073575 358.816646 
L 849.820679 358.295335 
L 851.719521 358.268355 
L 854.567784 358.478155 
L 859.314888 358.924171 
L 862.16315 358.981608 
L 872.60678 358.665119 
L 879.252726 358.506068 
L 883.050409 358.766854 
L 887.797513 359.040475 
L 895.39288 359.356797 
L 904.887089 360.041822 
L 907.735351 359.913489 
L 915.330718 359.281723 
L 917.22956 359.353286 
L 919.128401 359.609792 
L 921.027243 360.079592 
L 926.723768 361.890694 
L 927.673189 362.023317 
L 928.62261 362.043167 
L 930.521451 361.72203 
L 932.420293 360.945828 
L 934.319135 359.763513 
L 937.167397 357.494864 
L 940.01566 355.274559 
L 941.914502 354.196121 
L 942.863923 353.86403 
L 943.813343 353.665092 
L 945.712185 353.620682 
L 947.611027 353.900013 
L 954.256973 355.293359 
L 959.953498 355.831675 
L 961.85234 356.33566 
L 964.700602 357.402538 
L 968.498285 358.938615 
L 970.397127 359.493646 
L 972.295969 359.76432 
L 974.194811 359.755537 
L 977.043073 359.41511 
L 981.790177 358.682485 
L 983.689019 358.560886 
L 985.587861 358.65908 
L 987.486702 359.009358 
L 990.334965 359.879088 
L 995.082069 361.525271 
L 996.980911 362.002528 
L 998.879753 362.281303 
L 1001.728015 362.374014 
L 1009.323382 362.135331 
L 1011.222224 362.35082 
L 1014.070486 362.904176 
L 1017.86817 363.719355 
L 1019.767011 363.948759 
L 1022.615274 363.948398 
L 1034.957745 363.318333 
L 1037.806007 363.1548 
L 1039.704849 363.238198 
L 1042.553112 363.634503 
L 1046.350795 364.268633 
L 1049.199058 364.491599 
L 1052.996741 364.46655 
L 1057.743845 364.49355 
L 1065.339212 364.616539 
L 1075.782841 364.490103 
L 1088.125313 364.406243 
L 1088.125313 364.406243 
" clip-path="url(#p8c89a8d728)" style="fill: none; stroke: #f27f19; stroke-width: 1.5; stroke-linecap: square"/>
   </g>
   <g id="patch_13">
    <path d="M 55.345313 402.831329 
L 55.345313 290.577341 
" style="fill: none; stroke: #000000; stroke-width: 0.8; stroke-linejoin: miter; stroke-linecap: square"/>
   </g>
   <g id="patch_14">
    <path d="M 1137.305313 402.831329 
L 1137.305313 290.577341 
" style="fill: none; stroke: #000000; stroke-width: 0.8; stroke-linejoin: miter; stroke-linecap: square"/>
   </g>
   <g id="patch_15">
    <path d="M 55.345313 402.831329 
L 1137.305312 402.831329 
" style="fill: none; stroke: #000000; stroke-width: 0.8; stroke-linejoin: miter; stroke-linecap: square"/>
   </g>
   <g id="patch_16">
    <path d="M 55.345313 290.577341 
L 1137.305312 290.577341 
" style="fill: none; stroke: #000000; stroke-width: 0.8; stroke-linejoin: miter; stroke-linecap: square"/>
   </g>
  </g>
  <g id="axes_4">
   <g id="patch_17">
    <path d="M 55.345313 544.52 
L 1137.305313 544.52 
L 1137.305313 432.266012 
L 55.345313 432.266012 
z
" style="fill: #ffffff"/>
   </g>
   <g id="matplotlib.axis_7">
    <g id="xtick_19">
     <g id="line2d_32">
      <g>
       <use xlink:href="#medcd549c7c" x="104.525313" y="544.52" style="stroke: #000000; stroke-width: 0.8"/>
      </g>
     </g>
     <g id="text_32">
      <!-- 0 -->
      <g transform="translate(101.344063 559.118437) scale(0.1 -0.1)">
       <use xlink:href="#DejaVuSans-30"/>
      </g>
     </g>
    </g>
    <g id="xtick_20">
     <g id="line2d_33">
      <g>
       <use xlink:href="#medcd549c7c" x="294.409482" y="544.52" style="stroke: #000000; stroke-width: 0.8"/>
      </g>
     </g>
     <g id="text_33">
      <!-- 200 -->
      <g transform="translate(284.865732 559.118437) scale(0.1 -0.1)">
       <use xlink:href="#DejaVuSans-32"/>
       <use xlink:href="#DejaVuSans-30" transform="translate(63.623047 0)"/>
       <use xlink:href="#DejaVuSans-30" transform="translate(127.246094 0)"/>
      </g>
     </g>
    </g>
    <g id="xtick_21">
     <g id="line2d_34">
      <g>
       <use xlink:href="#medcd549c7c" x="484.293652" y="544.52" style="stroke: #000000; stroke-width: 0.8"/>
      </g>
     </g>
     <g id="text_34">
      <!-- 400 -->
      <g transform="translate(474.749902 559.118437) scale(0.1 -0.1)">
       <use xlink:href="#DejaVuSans-34"/>
       <use xlink:href="#DejaVuSans-30" transform="translate(63.623047 0)"/>
       <use xlink:href="#DejaVuSans-30" transform="translate(127.246094 0)"/>
      </g>
     </g>
    </g>
    <g id="xtick_22">
     <g id="line2d_35">
      <g>
       <use xlink:href="#medcd549c7c" x="674.177822" y="544.52" style="stroke: #000000; stroke-width: 0.8"/>
      </g>
     </g>
     <g id="text_35">
      <!-- 600 -->
      <g transform="translate(664.634072 559.118437) scale(0.1 -0.1)">
       <use xlink:href="#DejaVuSans-36"/>
       <use xlink:href="#DejaVuSans-30" transform="translate(63.623047 0)"/>
       <use xlink:href="#DejaVuSans-30" transform="translate(127.246094 0)"/>
      </g>
     </g>
    </g>
    <g id="xtick_23">
     <g id="line2d_36">
      <g>
       <use xlink:href="#medcd549c7c" x="864.061992" y="544.52" style="stroke: #000000; stroke-width: 0.8"/>
      </g>
     </g>
     <g id="text_36">
      <!-- 800 -->
      <g transform="translate(854.518242 559.118437) scale(0.1 -0.1)">
       <use xlink:href="#DejaVuSans-38"/>
       <use xlink:href="#DejaVuSans-30" transform="translate(63.623047 0)"/>
       <use xlink:href="#DejaVuSans-30" transform="translate(127.246094 0)"/>
      </g>
     </g>
    </g>
    <g id="xtick_24">
     <g id="line2d_37">
      <g>
       <use xlink:href="#medcd549c7c" x="1053.946162" y="544.52" style="stroke: #000000; stroke-width: 0.8"/>
      </g>
     </g>
     <g id="text_37">
      <!-- 1000 -->
      <g transform="translate(1041.221162 559.118437) scale(0.1 -0.1)">
       <use xlink:href="#DejaVuSans-31"/>
       <use xlink:href="#DejaVuSans-30" transform="translate(63.623047 0)"/>
       <use xlink:href="#DejaVuSans-30" transform="translate(127.246094 0)"/>
       <use xlink:href="#DejaVuSans-30" transform="translate(190.869141 0)"/>
      </g>
     </g>
    </g>
   </g>
   <g id="matplotlib.axis_8">
    <g id="ytick_11">
     <g id="line2d_38">
      <g>
       <use xlink:href="#md66d78fbb6" x="55.345313" y="539.117881" style="stroke: #000000; stroke-width: 0.8"/>
      </g>
     </g>
     <g id="text_38">
      <!-- 50 -->
      <g transform="translate(35.620313 542.9171) scale(0.1 -0.1)">
       <defs>
        <path id="DejaVuSans-35" d="M 691 4666 
L 3169 4666 
L 3169 4134 
L 1269 4134 
L 1269 2991 
Q 1406 3038 1543 3061 
Q 1681 3084 1819 3084 
Q 2600 3084 3056 2656 
Q 3513 2228 3513 1497 
Q 3513 744 3044 326 
Q 2575 -91 1722 -91 
Q 1428 -91 1123 -41 
Q 819 9 494 109 
L 494 744 
Q 775 591 1075 516 
Q 1375 441 1709 441 
Q 2250 441 2565 725 
Q 2881 1009 2881 1497 
Q 2881 1984 2565 2268 
Q 2250 2553 1709 2553 
Q 1456 2553 1204 2497 
Q 953 2441 691 2322 
L 691 4666 
z
" transform="scale(0.015625)"/>
       </defs>
       <use xlink:href="#DejaVuSans-35"/>
       <use xlink:href="#DejaVuSans-30" transform="translate(63.623047 0)"/>
      </g>
     </g>
    </g>
    <g id="ytick_12">
     <g id="line2d_39">
      <g>
       <use xlink:href="#md66d78fbb6" x="55.345313" y="516.659736" style="stroke: #000000; stroke-width: 0.8"/>
      </g>
     </g>
     <g id="text_39">
      <!-- 100 -->
      <g transform="translate(29.257813 520.458955) scale(0.1 -0.1)">
       <use xlink:href="#DejaVuSans-31"/>
       <use xlink:href="#DejaVuSans-30" transform="translate(63.623047 0)"/>
       <use xlink:href="#DejaVuSans-30" transform="translate(127.246094 0)"/>
      </g>
     </g>
    </g>
    <g id="ytick_13">
     <g id="line2d_40">
      <g>
       <use xlink:href="#md66d78fbb6" x="55.345313" y="494.20159" style="stroke: #000000; stroke-width: 0.8"/>
      </g>
     </g>
     <g id="text_40">
      <!-- 150 -->
      <g transform="translate(29.257813 498.000809) scale(0.1 -0.1)">
       <use xlink:href="#DejaVuSans-31"/>
       <use xlink:href="#DejaVuSans-35" transform="translate(63.623047 0)"/>
       <use xlink:href="#DejaVuSans-30" transform="translate(127.246094 0)"/>
      </g>
     </g>
    </g>
    <g id="ytick_14">
     <g id="line2d_41">
      <g>
       <use xlink:href="#md66d78fbb6" x="55.345313" y="471.743445" style="stroke: #000000; stroke-width: 0.8"/>
      </g>
     </g>
     <g id="text_41">
      <!-- 200 -->
      <g transform="translate(29.257813 475.542664) scale(0.1 -0.1)">
       <use xlink:href="#DejaVuSans-32"/>
       <use xlink:href="#DejaVuSans-30" transform="translate(63.623047 0)"/>
       <use xlink:href="#DejaVuSans-30" transform="translate(127.246094 0)"/>
      </g>
     </g>
    </g>
    <g id="ytick_15">
     <g id="line2d_42">
      <g>
       <use xlink:href="#md66d78fbb6" x="55.345313" y="449.2853" style="stroke: #000000; stroke-width: 0.8"/>
      </g>
     </g>
     <g id="text_42">
      <!-- 250 -->
      <g transform="translate(29.257813 453.084519) scale(0.1 -0.1)">
       <use xlink:href="#DejaVuSans-32"/>
       <use xlink:href="#DejaVuSans-35" transform="translate(63.623047 0)"/>
       <use xlink:href="#DejaVuSans-30" transform="translate(127.246094 0)"/>
      </g>
     </g>
    </g>
    <g id="text_43">
     <!-- co-imf2 -->
     <g transform="translate(23.178125 507.300037) rotate(-90) scale(0.1 -0.1)">
      <use xlink:href="#DejaVuSans-63"/>
      <use xlink:href="#DejaVuSans-6f" transform="translate(54.980469 0)"/>
      <use xlink:href="#DejaVuSans-2d" transform="translate(118.037109 0)"/>
      <use xlink:href="#DejaVuSans-69" transform="translate(154.121094 0)"/>
      <use xlink:href="#DejaVuSans-6d" transform="translate(181.904297 0)"/>
      <use xlink:href="#DejaVuSans-66" transform="translate(279.316406 0)"/>
      <use xlink:href="#DejaVuSans-32" transform="translate(314.521484 0)"/>
     </g>
    </g>
   </g>
   <g id="line2d_43">
    <path d="M 104.525313 501.77527 
L 109.272417 501.222226 
L 114.019521 500.402627 
L 118.766625 499.327341 
L 123.513729 498.01434 
L 128.260834 496.481744 
L 133.957359 494.37828 
L 139.653884 492.016007 
L 145.350409 489.42624 
L 151.996355 486.159093 
L 159.591722 482.162027 
L 169.08593 476.879649 
L 184.276664 468.1085 
L 197.568556 460.517244 
L 206.113343 455.873361 
L 213.70871 452.00252 
L 220.354656 448.874884 
L 226.051181 446.426289 
L 231.747706 444.225119 
L 236.494811 442.602407 
L 241.241915 441.191164 
L 245.989019 440.003763 
L 250.736123 439.040517 
L 255.483228 438.298401 
L 260.230332 437.774379 
L 264.977436 437.465413 
L 269.72454 437.368466 
L 274.471645 437.480501 
L 279.218749 437.798481 
L 283.965853 438.319368 
L 288.712957 439.040126 
L 293.460062 439.957718 
L 298.207166 441.069105 
L 303.903691 442.654306 
L 309.600216 444.508952 
L 315.296741 446.627795 
L 320.993266 449.005587 
L 326.689791 451.635216 
L 332.386316 454.493603 
L 339.032262 458.06308 
L 347.57705 462.908651 
L 373.211413 477.64276 
L 380.80678 481.638584 
L 387.452726 484.874607 
L 394.098672 487.839246 
L 400.744618 490.537141 
L 407.390563 492.97755 
L 414.036509 495.169729 
L 420.682455 497.122934 
L 427.328401 498.846423 
L 433.974347 500.349452 
L 440.620293 501.641329 
L 448.21566 502.873572 
L 455.811027 503.87323 
L 464.355814 504.766765 
L 473.850023 505.531485 
L 485.243073 506.224467 
L 528.916432 508.62006 
L 541.258903 509.667817 
L 554.550795 511.013878 
L 568.792108 512.675315 
L 587.780525 515.128486 
L 626.70678 520.216906 
L 640.948092 521.82148 
L 655.189405 523.207291 
L 671.32956 524.540195 
L 693.166239 526.093878 
L 738.73844 529.303039 
L 768.170486 531.600817 
L 793.804849 533.829592 
L 841.275892 538.041082 
L 852.668942 538.800005 
L 862.16315 539.231186 
L 870.707938 539.410014 
L 878.303305 539.359853 
L 885.898672 539.090576 
L 894.443459 538.557752 
L 903.937668 537.74123 
L 916.280139 536.443899 
L 952.358131 532.495763 
L 962.80176 531.674716 
L 973.24539 531.077211 
L 984.63844 530.649881 
L 996.980911 530.411869 
L 1011.222224 530.371315 
L 1028.311799 530.561643 
L 1056.794424 531.152579 
L 1081.479367 531.578563 
L 1088.125313 531.634467 
L 1088.125313 531.634467 
" clip-path="url(#p429b0395d7)" style="fill: none; stroke: #f27f19; stroke-width: 1.5; stroke-linecap: square"/>
   </g>
   <g id="patch_18">
    <path d="M 55.345313 544.52 
L 55.345313 432.266012 
" style="fill: none; stroke: #000000; stroke-width: 0.8; stroke-linejoin: miter; stroke-linecap: square"/>
   </g>
   <g id="patch_19">
    <path d="M 1137.305313 544.52 
L 1137.305313 432.266012 
" style="fill: none; stroke: #000000; stroke-width: 0.8; stroke-linejoin: miter; stroke-linecap: square"/>
   </g>
   <g id="patch_20">
    <path d="M 55.345313 544.52 
L 1137.305312 544.52 
" style="fill: none; stroke: #000000; stroke-width: 0.8; stroke-linejoin: miter; stroke-linecap: square"/>
   </g>
   <g id="patch_21">
    <path d="M 55.345313 432.266012 
L 1137.305312 432.266012 
" style="fill: none; stroke: #000000; stroke-width: 0.8; stroke-linejoin: miter; stroke-linecap: square"/>
   </g>
  </g>
 </g>
 <defs>
  <clipPath id="p509b240990">
   <rect x="55.345313" y="7.2" width="1081.96" height="112.253988"/>
  </clipPath>
  <clipPath id="p7fb45cf0d2">
   <rect x="55.345313" y="148.888671" width="1081.96" height="112.253988"/>
  </clipPath>
  <clipPath id="p8c89a8d728">
   <rect x="55.345313" y="290.577341" width="1081.96" height="112.253988"/>
  </clipPath>
  <clipPath id="p429b0395d7">
   <rect x="55.345313" y="432.266012" width="1081.96" height="112.253988"/>
  </clipPath>
 </defs>
</svg>
