<?xml version="1.0" encoding="utf-8" standalone="no"?>
<!DOCTYPE svg PUBLIC "-//W3C//DTD SVG 1.1//EN"
  "http://www.w3.org/Graphics/SVG/1.1/DTD/svg11.dtd">
<svg xmlns:xlink="http://www.w3.org/1999/xlink" width="1144.532813pt" height="567.935833pt" viewBox="0 0 1144.532813 567.935833" xmlns="http://www.w3.org/2000/svg" version="1.1">
 <metadata>
  <rdf:RDF xmlns:dc="http://purl.org/dc/elements/1.1/" xmlns:cc="http://creativecommons.org/ns#" xmlns:rdf="http://www.w3.org/1999/02/22-rdf-syntax-ns#">
   <cc:Work>
    <dc:type rdf:resource="http://purl.org/dc/dcmitype/StillImage"/>
    <dc:date>2025-04-22T09:41:38.589330</dc:date>
    <dc:format>image/svg+xml</dc:format>
    <dc:creator>
     <cc:Agent>
      <dc:title>Matplotlib v3.10.1, https://matplotlib.org/</dc:title>
     </cc:Agent>
    </dc:creator>
   </cc:Work>
  </rdf:RDF>
 </metadata>
 <defs>
  <style type="text/css">*{stroke-linejoin: round; stroke-linecap: butt}</style>
 </defs>
 <g id="figure_1">
  <g id="patch_1">
   <path d="M 0 567.935833 
L 1144.532813 567.935833 
L 1144.532813 0 
L 0 0 
z
" style="fill: #ffffff"/>
  </g>
  <g id="axes_1">
   <g id="patch_2">
    <path d="M 48.982813 119.34313 
L 1137.332813 119.34313 
L 1137.332813 8.659912 
L 48.982813 8.659912 
z
" style="fill: #ffffff"/>
   </g>
   <g id="matplotlib.axis_1">
    <g id="xtick_1">
     <g id="line2d_1">
      <defs>
       <path id="mc2d2e355a0" d="M 0 0 
L 0 3.5 
" style="stroke: #000000; stroke-width: 0.8"/>
      </defs>
      <g>
       <use xlink:href="#mc2d2e355a0" x="98.453267" y="119.34313" style="stroke: #000000; stroke-width: 0.8"/>
      </g>
     </g>
     <g id="text_1">
      <!-- 0 -->
      <g transform="translate(95.272017 133.941568) scale(0.1 -0.1)">
       <defs>
        <path id="DejaVuSans-30" d="M 2034 4250 
Q 1547 4250 1301 3770 
Q 1056 3291 1056 2328 
Q 1056 1369 1301 889 
Q 1547 409 2034 409 
Q 2525 409 2770 889 
Q 3016 1369 3016 2328 
Q 3016 3291 2770 3770 
Q 2525 4250 2034 4250 
z
M 2034 4750 
Q 2819 4750 3233 4129 
Q 3647 3509 3647 2328 
Q 3647 1150 3233 529 
Q 2819 -91 2034 -91 
Q 1250 -91 836 529 
Q 422 1150 422 2328 
Q 422 3509 836 4129 
Q 1250 4750 2034 4750 
z
" transform="scale(0.015625)"/>
       </defs>
       <use xlink:href="#DejaVuSans-30"/>
      </g>
     </g>
    </g>
    <g id="xtick_2">
     <g id="line2d_2">
      <g>
       <use xlink:href="#mc2d2e355a0" x="289.64343" y="119.34313" style="stroke: #000000; stroke-width: 0.8"/>
      </g>
     </g>
     <g id="text_2">
      <!-- 200 -->
      <g transform="translate(280.09968 133.941568) scale(0.1 -0.1)">
       <defs>
        <path id="DejaVuSans-32" d="M 1228 531 
L 3431 531 
L 3431 0 
L 469 0 
L 469 531 
Q 828 903 1448 1529 
Q 2069 2156 2228 2338 
Q 2531 2678 2651 2914 
Q 2772 3150 2772 3378 
Q 2772 3750 2511 3984 
Q 2250 4219 1831 4219 
Q 1534 4219 1204 4116 
Q 875 4013 500 3803 
L 500 4441 
Q 881 4594 1212 4672 
Q 1544 4750 1819 4750 
Q 2544 4750 2975 4387 
Q 3406 4025 3406 3419 
Q 3406 3131 3298 2873 
Q 3191 2616 2906 2266 
Q 2828 2175 2409 1742 
Q 1991 1309 1228 531 
z
" transform="scale(0.015625)"/>
       </defs>
       <use xlink:href="#DejaVuSans-32"/>
       <use xlink:href="#DejaVuSans-30" transform="translate(63.623047 0)"/>
       <use xlink:href="#DejaVuSans-30" transform="translate(127.246094 0)"/>
      </g>
     </g>
    </g>
    <g id="xtick_3">
     <g id="line2d_3">
      <g>
       <use xlink:href="#mc2d2e355a0" x="480.833592" y="119.34313" style="stroke: #000000; stroke-width: 0.8"/>
      </g>
     </g>
     <g id="text_3">
      <!-- 400 -->
      <g transform="translate(471.289842 133.941568) scale(0.1 -0.1)">
       <defs>
        <path id="DejaVuSans-34" d="M 2419 4116 
L 825 1625 
L 2419 1625 
L 2419 4116 
z
M 2253 4666 
L 3047 4666 
L 3047 1625 
L 3713 1625 
L 3713 1100 
L 3047 1100 
L 3047 0 
L 2419 0 
L 2419 1100 
L 313 1100 
L 313 1709 
L 2253 4666 
z
" transform="scale(0.015625)"/>
       </defs>
       <use xlink:href="#DejaVuSans-34"/>
       <use xlink:href="#DejaVuSans-30" transform="translate(63.623047 0)"/>
       <use xlink:href="#DejaVuSans-30" transform="translate(127.246094 0)"/>
      </g>
     </g>
    </g>
    <g id="xtick_4">
     <g id="line2d_4">
      <g>
       <use xlink:href="#mc2d2e355a0" x="672.023755" y="119.34313" style="stroke: #000000; stroke-width: 0.8"/>
      </g>
     </g>
     <g id="text_4">
      <!-- 600 -->
      <g transform="translate(662.480005 133.941568) scale(0.1 -0.1)">
       <defs>
        <path id="DejaVuSans-36" d="M 2113 2584 
Q 1688 2584 1439 2293 
Q 1191 2003 1191 1497 
Q 1191 994 1439 701 
Q 1688 409 2113 409 
Q 2538 409 2786 701 
Q 3034 994 3034 1497 
Q 3034 2003 2786 2293 
Q 2538 2584 2113 2584 
z
M 3366 4563 
L 3366 3988 
Q 3128 4100 2886 4159 
Q 2644 4219 2406 4219 
Q 1781 4219 1451 3797 
Q 1122 3375 1075 2522 
Q 1259 2794 1537 2939 
Q 1816 3084 2150 3084 
Q 2853 3084 3261 2657 
Q 3669 2231 3669 1497 
Q 3669 778 3244 343 
Q 2819 -91 2113 -91 
Q 1303 -91 875 529 
Q 447 1150 447 2328 
Q 447 3434 972 4092 
Q 1497 4750 2381 4750 
Q 2619 4750 2861 4703 
Q 3103 4656 3366 4563 
z
" transform="scale(0.015625)"/>
       </defs>
       <use xlink:href="#DejaVuSans-36"/>
       <use xlink:href="#DejaVuSans-30" transform="translate(63.623047 0)"/>
       <use xlink:href="#DejaVuSans-30" transform="translate(127.246094 0)"/>
      </g>
     </g>
    </g>
    <g id="xtick_5">
     <g id="line2d_5">
      <g>
       <use xlink:href="#mc2d2e355a0" x="863.213917" y="119.34313" style="stroke: #000000; stroke-width: 0.8"/>
      </g>
     </g>
     <g id="text_5">
      <!-- 800 -->
      <g transform="translate(853.670167 133.941568) scale(0.1 -0.1)">
       <defs>
        <path id="DejaVuSans-38" d="M 2034 2216 
Q 1584 2216 1326 1975 
Q 1069 1734 1069 1313 
Q 1069 891 1326 650 
Q 1584 409 2034 409 
Q 2484 409 2743 651 
Q 3003 894 3003 1313 
Q 3003 1734 2745 1975 
Q 2488 2216 2034 2216 
z
M 1403 2484 
Q 997 2584 770 2862 
Q 544 3141 544 3541 
Q 544 4100 942 4425 
Q 1341 4750 2034 4750 
Q 2731 4750 3128 4425 
Q 3525 4100 3525 3541 
Q 3525 3141 3298 2862 
Q 3072 2584 2669 2484 
Q 3125 2378 3379 2068 
Q 3634 1759 3634 1313 
Q 3634 634 3220 271 
Q 2806 -91 2034 -91 
Q 1263 -91 848 271 
Q 434 634 434 1313 
Q 434 1759 690 2068 
Q 947 2378 1403 2484 
z
M 1172 3481 
Q 1172 3119 1398 2916 
Q 1625 2713 2034 2713 
Q 2441 2713 2670 2916 
Q 2900 3119 2900 3481 
Q 2900 3844 2670 4047 
Q 2441 4250 2034 4250 
Q 1625 4250 1398 4047 
Q 1172 3844 1172 3481 
z
" transform="scale(0.015625)"/>
       </defs>
       <use xlink:href="#DejaVuSans-38"/>
       <use xlink:href="#DejaVuSans-30" transform="translate(63.623047 0)"/>
       <use xlink:href="#DejaVuSans-30" transform="translate(127.246094 0)"/>
      </g>
     </g>
    </g>
    <g id="xtick_6">
     <g id="line2d_6">
      <g>
       <use xlink:href="#mc2d2e355a0" x="1054.40408" y="119.34313" style="stroke: #000000; stroke-width: 0.8"/>
      </g>
     </g>
     <g id="text_6">
      <!-- 1000 -->
      <g transform="translate(1041.67908 133.941568) scale(0.1 -0.1)">
       <defs>
        <path id="DejaVuSans-31" d="M 794 531 
L 1825 531 
L 1825 4091 
L 703 3866 
L 703 4441 
L 1819 4666 
L 2450 4666 
L 2450 531 
L 3481 531 
L 3481 0 
L 794 0 
L 794 531 
z
" transform="scale(0.015625)"/>
       </defs>
       <use xlink:href="#DejaVuSans-31"/>
       <use xlink:href="#DejaVuSans-30" transform="translate(63.623047 0)"/>
       <use xlink:href="#DejaVuSans-30" transform="translate(127.246094 0)"/>
       <use xlink:href="#DejaVuSans-30" transform="translate(190.869141 0)"/>
      </g>
     </g>
    </g>
   </g>
   <g id="matplotlib.axis_2">
    <g id="ytick_1">
     <g id="line2d_7">
      <defs>
       <path id="m818d8e8e47" d="M 0 0 
L -3.5 0 
" style="stroke: #000000; stroke-width: 0.8"/>
      </defs>
      <g>
       <use xlink:href="#m818d8e8e47" x="48.982813" y="91.702462" style="stroke: #000000; stroke-width: 0.8"/>
      </g>
     </g>
     <g id="text_7">
      <!-- 50 -->
      <g transform="translate(29.257813 95.50168) scale(0.1 -0.1)">
       <defs>
        <path id="DejaVuSans-35" d="M 691 4666 
L 3169 4666 
L 3169 4134 
L 1269 4134 
L 1269 2991 
Q 1406 3038 1543 3061 
Q 1681 3084 1819 3084 
Q 2600 3084 3056 2656 
Q 3513 2228 3513 1497 
Q 3513 744 3044 326 
Q 2575 -91 1722 -91 
Q 1428 -91 1123 -41 
Q 819 9 494 109 
L 494 744 
Q 775 591 1075 516 
Q 1375 441 1709 441 
Q 2250 441 2565 725 
Q 2881 1009 2881 1497 
Q 2881 1984 2565 2268 
Q 2250 2553 1709 2553 
Q 1456 2553 1204 2497 
Q 953 2441 691 2322 
L 691 4666 
z
" transform="scale(0.015625)"/>
       </defs>
       <use xlink:href="#DejaVuSans-35"/>
       <use xlink:href="#DejaVuSans-30" transform="translate(63.623047 0)"/>
      </g>
     </g>
    </g>
    <g id="ytick_2">
     <g id="line2d_8">
      <g>
       <use xlink:href="#m818d8e8e47" x="48.982813" y="51.35084" style="stroke: #000000; stroke-width: 0.8"/>
      </g>
     </g>
     <g id="text_8">
      <!-- 100 -->
      <g transform="translate(22.895313 55.150059) scale(0.1 -0.1)">
       <use xlink:href="#DejaVuSans-31"/>
       <use xlink:href="#DejaVuSans-30" transform="translate(63.623047 0)"/>
       <use xlink:href="#DejaVuSans-30" transform="translate(127.246094 0)"/>
      </g>
     </g>
    </g>
    <g id="ytick_3">
     <g id="line2d_9">
      <g>
       <use xlink:href="#m818d8e8e47" x="48.982813" y="10.999219" style="stroke: #000000; stroke-width: 0.8"/>
      </g>
     </g>
     <g id="text_9">
      <!-- 150 -->
      <g transform="translate(22.895313 14.798437) scale(0.1 -0.1)">
       <use xlink:href="#DejaVuSans-31"/>
       <use xlink:href="#DejaVuSans-35" transform="translate(63.623047 0)"/>
       <use xlink:href="#DejaVuSans-30" transform="translate(127.246094 0)"/>
      </g>
     </g>
    </g>
    <g id="text_10">
     <!-- Original Data -->
     <g transform="translate(16.815625 97.09449) rotate(-90) scale(0.1 -0.1)">
      <defs>
       <path id="DejaVuSans-4f" d="M 2522 4238 
Q 1834 4238 1429 3725 
Q 1025 3213 1025 2328 
Q 1025 1447 1429 934 
Q 1834 422 2522 422 
Q 3209 422 3611 934 
Q 4013 1447 4013 2328 
Q 4013 3213 3611 3725 
Q 3209 4238 2522 4238 
z
M 2522 4750 
Q 3503 4750 4090 4092 
Q 4678 3434 4678 2328 
Q 4678 1225 4090 567 
Q 3503 -91 2522 -91 
Q 1538 -91 948 565 
Q 359 1222 359 2328 
Q 359 3434 948 4092 
Q 1538 4750 2522 4750 
z
" transform="scale(0.015625)"/>
       <path id="DejaVuSans-72" d="M 2631 2963 
Q 2534 3019 2420 3045 
Q 2306 3072 2169 3072 
Q 1681 3072 1420 2755 
Q 1159 2438 1159 1844 
L 1159 0 
L 581 0 
L 581 3500 
L 1159 3500 
L 1159 2956 
Q 1341 3275 1631 3429 
Q 1922 3584 2338 3584 
Q 2397 3584 2469 3576 
Q 2541 3569 2628 3553 
L 2631 2963 
z
" transform="scale(0.015625)"/>
       <path id="DejaVuSans-69" d="M 603 3500 
L 1178 3500 
L 1178 0 
L 603 0 
L 603 3500 
z
M 603 4863 
L 1178 4863 
L 1178 4134 
L 603 4134 
L 603 4863 
z
" transform="scale(0.015625)"/>
       <path id="DejaVuSans-67" d="M 2906 1791 
Q 2906 2416 2648 2759 
Q 2391 3103 1925 3103 
Q 1463 3103 1205 2759 
Q 947 2416 947 1791 
Q 947 1169 1205 825 
Q 1463 481 1925 481 
Q 2391 481 2648 825 
Q 2906 1169 2906 1791 
z
M 3481 434 
Q 3481 -459 3084 -895 
Q 2688 -1331 1869 -1331 
Q 1566 -1331 1297 -1286 
Q 1028 -1241 775 -1147 
L 775 -588 
Q 1028 -725 1275 -790 
Q 1522 -856 1778 -856 
Q 2344 -856 2625 -561 
Q 2906 -266 2906 331 
L 2906 616 
Q 2728 306 2450 153 
Q 2172 0 1784 0 
Q 1141 0 747 490 
Q 353 981 353 1791 
Q 353 2603 747 3093 
Q 1141 3584 1784 3584 
Q 2172 3584 2450 3431 
Q 2728 3278 2906 2969 
L 2906 3500 
L 3481 3500 
L 3481 434 
z
" transform="scale(0.015625)"/>
       <path id="DejaVuSans-6e" d="M 3513 2113 
L 3513 0 
L 2938 0 
L 2938 2094 
Q 2938 2591 2744 2837 
Q 2550 3084 2163 3084 
Q 1697 3084 1428 2787 
Q 1159 2491 1159 1978 
L 1159 0 
L 581 0 
L 581 3500 
L 1159 3500 
L 1159 2956 
Q 1366 3272 1645 3428 
Q 1925 3584 2291 3584 
Q 2894 3584 3203 3211 
Q 3513 2838 3513 2113 
z
" transform="scale(0.015625)"/>
       <path id="DejaVuSans-61" d="M 2194 1759 
Q 1497 1759 1228 1600 
Q 959 1441 959 1056 
Q 959 750 1161 570 
Q 1363 391 1709 391 
Q 2188 391 2477 730 
Q 2766 1069 2766 1631 
L 2766 1759 
L 2194 1759 
z
M 3341 1997 
L 3341 0 
L 2766 0 
L 2766 531 
Q 2569 213 2275 61 
Q 1981 -91 1556 -91 
Q 1019 -91 701 211 
Q 384 513 384 1019 
Q 384 1609 779 1909 
Q 1175 2209 1959 2209 
L 2766 2209 
L 2766 2266 
Q 2766 2663 2505 2880 
Q 2244 3097 1772 3097 
Q 1472 3097 1187 3025 
Q 903 2953 641 2809 
L 641 3341 
Q 956 3463 1253 3523 
Q 1550 3584 1831 3584 
Q 2591 3584 2966 3190 
Q 3341 2797 3341 1997 
z
" transform="scale(0.015625)"/>
       <path id="DejaVuSans-6c" d="M 603 4863 
L 1178 4863 
L 1178 0 
L 603 0 
L 603 4863 
z
" transform="scale(0.015625)"/>
       <path id="DejaVuSans-20" transform="scale(0.015625)"/>
       <path id="DejaVuSans-44" d="M 1259 4147 
L 1259 519 
L 2022 519 
Q 2988 519 3436 956 
Q 3884 1394 3884 2338 
Q 3884 3275 3436 3711 
Q 2988 4147 2022 4147 
L 1259 4147 
z
M 628 4666 
L 1925 4666 
Q 3281 4666 3915 4102 
Q 4550 3538 4550 2338 
Q 4550 1131 3912 565 
Q 3275 0 1925 0 
L 628 0 
L 628 4666 
z
" transform="scale(0.015625)"/>
       <path id="DejaVuSans-74" d="M 1172 4494 
L 1172 3500 
L 2356 3500 
L 2356 3053 
L 1172 3053 
L 1172 1153 
Q 1172 725 1289 603 
Q 1406 481 1766 481 
L 2356 481 
L 2356 0 
L 1766 0 
Q 1100 0 847 248 
Q 594 497 594 1153 
L 594 3053 
L 172 3053 
L 172 3500 
L 594 3500 
L 594 4494 
L 1172 4494 
z
" transform="scale(0.015625)"/>
      </defs>
      <use xlink:href="#DejaVuSans-4f"/>
      <use xlink:href="#DejaVuSans-72" transform="translate(78.710938 0)"/>
      <use xlink:href="#DejaVuSans-69" transform="translate(119.824219 0)"/>
      <use xlink:href="#DejaVuSans-67" transform="translate(147.607422 0)"/>
      <use xlink:href="#DejaVuSans-69" transform="translate(211.083984 0)"/>
      <use xlink:href="#DejaVuSans-6e" transform="translate(238.867188 0)"/>
      <use xlink:href="#DejaVuSans-61" transform="translate(302.246094 0)"/>
      <use xlink:href="#DejaVuSans-6c" transform="translate(363.525391 0)"/>
      <use xlink:href="#DejaVuSans-20" transform="translate(391.308594 0)"/>
      <use xlink:href="#DejaVuSans-44" transform="translate(423.095703 0)"/>
      <use xlink:href="#DejaVuSans-61" transform="translate(500.097656 0)"/>
      <use xlink:href="#DejaVuSans-74" transform="translate(561.376953 0)"/>
      <use xlink:href="#DejaVuSans-61" transform="translate(600.585938 0)"/>
     </g>
    </g>
   </g>
   <g id="line2d_10">
    <path d="M 98.453267 78.61377 
L 99.409218 78.67318 
L 100.365169 78.335339 
L 101.321119 77.597492 
L 102.27707 77.330725 
L 104.188972 77.711309 
L 106.100874 78.63471 
L 109.924677 80.729601 
L 110.880628 81.393097 
L 111.836578 82.223173 
L 112.792529 83.255144 
L 113.74848 84.479936 
L 114.704431 85.939603 
L 115.660382 87.110937 
L 116.616332 87.963109 
L 117.572283 87.914995 
L 118.528234 86.743411 
L 119.484185 85.872866 
L 120.440136 85.157989 
L 121.396087 85.062682 
L 122.352037 85.940996 
L 123.307988 86.460483 
L 124.263939 86.809319 
L 125.21989 86.401165 
L 127.131791 83.439472 
L 128.087742 82.438281 
L 129.043693 82.225632 
L 129.999644 83.313321 
L 130.955595 83.837177 
L 131.911545 84.005293 
L 132.867496 84.31743 
L 133.823447 84.443916 
L 134.779398 84.346777 
L 135.735349 83.983957 
L 136.6913 83.124449 
L 137.64725 81.694665 
L 138.603201 79.967809 
L 139.559152 77.863248 
L 140.515103 77.933689 
L 141.471054 80.452097 
L 142.427004 81.540427 
L 143.382955 81.668113 
L 145.294857 83.491428 
L 146.250808 83.923351 
L 147.206758 83.896962 
L 148.162709 84.193145 
L 150.074611 85.335913 
L 151.030562 86.17658 
L 151.986513 86.790429 
L 153.898414 87.630713 
L 154.854365 88.078497 
L 155.810316 88.370592 
L 156.766267 88.527109 
L 157.722217 88.503999 
L 159.634119 87.986006 
L 160.59007 87.656402 
L 161.546021 87.517849 
L 165.369824 87.878885 
L 166.325775 87.768697 
L 167.281726 87.907657 
L 169.193627 88.574463 
L 171.105529 89.133395 
L 173.01743 89.377079 
L 173.973381 89.335434 
L 174.929332 89.068255 
L 175.885283 88.542589 
L 176.841234 88.365435 
L 178.753135 88.63884 
L 180.665037 88.952422 
L 181.620988 89.178687 
L 182.576939 89.568409 
L 183.532889 90.135005 
L 184.48884 90.855614 
L 185.444791 91.769716 
L 186.400742 91.716022 
L 187.356693 90.591713 
L 188.312643 89.910788 
L 189.268594 89.446244 
L 190.224545 87.311242 
L 191.180496 83.64058 
L 192.136447 87.122758 
L 193.092397 85.923364 
L 194.048348 85.417084 
L 195.96025 78.549423 
L 197.872152 42.450091 
L 198.828102 19.456792 
L 199.784053 13.690967 
L 200.740004 26.802762 
L 201.695955 35.378268 
L 203.607856 50.035219 
L 204.563807 52.445339 
L 205.519758 40.983096 
L 207.43166 50.143214 
L 208.38761 58.409616 
L 209.343561 61.547044 
L 210.299512 58.694754 
L 211.255463 59.824184 
L 212.211414 63.339705 
L 213.167365 63.905299 
L 214.123315 63.018911 
L 215.079266 61.504674 
L 216.991168 55.811454 
L 217.947119 55.723892 
L 218.903069 57.983839 
L 221.770922 66.127776 
L 222.726873 68.080196 
L 223.682823 68.970225 
L 224.638774 68.325789 
L 226.550676 63.845862 
L 227.506627 63.895597 
L 228.462578 64.167242 
L 229.418528 63.953788 
L 230.374479 63.622973 
L 231.33043 59.312147 
L 232.286381 59.53791 
L 233.242332 61.184525 
L 234.198282 52.20045 
L 235.154233 48.840714 
L 236.110184 49.782973 
L 237.066135 44.306808 
L 238.022086 44.052109 
L 238.978036 46.325411 
L 239.933987 48.076137 
L 240.889938 50.190021 
L 241.845889 52.873013 
L 242.80184 56.576639 
L 243.757791 57.832779 
L 244.713741 56.641968 
L 245.669692 55.190306 
L 246.625643 52.753557 
L 247.581594 51.852788 
L 248.537545 52.961308 
L 249.493495 53.875624 
L 250.449446 55.313302 
L 251.405397 52.607042 
L 252.361348 45.088831 
L 253.317299 45.739158 
L 254.273249 49.908226 
L 255.2292 52.419156 
L 256.185151 53.700506 
L 257.141102 55.456814 
L 258.097053 56.440727 
L 259.053004 57.022546 
L 260.008954 57.027217 
L 260.964905 56.874115 
L 261.920856 56.552687 
L 263.832758 55.565247 
L 264.788708 54.317447 
L 265.744659 56.0947 
L 266.70061 57.349582 
L 268.612512 61.720569 
L 269.568462 63.694126 
L 270.524413 64.922023 
L 271.480364 65.069999 
L 272.436315 63.962514 
L 273.392266 64.902252 
L 274.348217 65.059868 
L 275.304167 66.00388 
L 276.260118 66.400487 
L 278.17202 66.275987 
L 279.127971 65.936964 
L 280.083921 67.08133 
L 281.039872 69.886706 
L 282.951774 74.665615 
L 283.907725 75.888548 
L 284.863675 75.527549 
L 285.819626 75.950346 
L 286.775577 76.857088 
L 287.731528 78.077153 
L 288.687479 80.06649 
L 289.64343 81.239015 
L 291.555331 82.061412 
L 292.511282 82.214638 
L 294.423184 82.267049 
L 295.379134 82.098973 
L 296.335085 81.816194 
L 297.291036 81.688145 
L 299.202938 81.863468 
L 302.07079 82.712371 
L 303.982692 83.550726 
L 305.894593 84.662714 
L 308.762446 86.318037 
L 309.718397 86.781095 
L 310.674347 87.089988 
L 311.630298 87.215739 
L 312.586249 87.472753 
L 313.5422 87.849348 
L 314.498151 87.498408 
L 316.410052 85.448815 
L 317.366003 85.004076 
L 318.321954 86.050921 
L 319.277905 85.594926 
L 320.233856 80.751633 
L 321.189806 82.387869 
L 324.057659 84.250986 
L 325.01361 84.518377 
L 326.925511 85.230295 
L 329.793364 85.959267 
L 331.705265 86.253154 
L 333.617167 86.299917 
L 335.529069 86.303481 
L 339.352872 86.938552 
L 341.264773 87.652501 
L 345.088577 88.819937 
L 346.044527 88.857557 
L 347.000478 88.675629 
L 348.91238 87.521895 
L 349.868331 86.707654 
L 350.824282 86.444186 
L 351.780232 86.367554 
L 352.736183 85.780534 
L 354.648085 83.262902 
L 355.604036 81.540009 
L 356.559986 81.27595 
L 357.515937 81.36557 
L 358.471888 79.695053 
L 359.427839 78.326866 
L 360.38379 77.496055 
L 361.33974 77.75476 
L 362.295691 78.859329 
L 363.251642 80.638159 
L 364.207593 81.393468 
L 366.119495 80.202649 
L 367.075445 79.063582 
L 368.031396 79.119542 
L 369.943298 82.26158 
L 370.899249 83.961212 
L 371.855199 85.224067 
L 373.767101 86.318822 
L 375.679003 86.619088 
L 376.634953 86.852649 
L 380.458757 87.230402 
L 382.370658 87.296825 
L 383.326609 86.582816 
L 385.238511 83.526225 
L 386.194462 82.386173 
L 387.150412 82.817394 
L 388.106363 83.927518 
L 389.062314 84.419745 
L 390.018265 84.2831 
L 390.974216 84.5956 
L 391.930166 85.057708 
L 392.886117 85.245024 
L 393.842068 85.245836 
L 394.798019 85.424119 
L 395.75397 85.734932 
L 396.709921 85.731365 
L 398.621822 85.151201 
L 399.577773 84.760501 
L 400.533724 84.678228 
L 401.489675 84.976292 
L 404.357527 85.448447 
L 406.269429 86.245322 
L 409.137281 87.72408 
L 410.093232 88.080896 
L 412.005134 88.421574 
L 413.917035 88.498144 
L 416.784888 89.029059 
L 417.740838 89.025094 
L 418.696789 88.755012 
L 419.65274 88.67526 
L 420.608691 88.825451 
L 421.564642 88.472942 
L 422.520592 87.523577 
L 423.476543 87.309343 
L 425.388445 88.577737 
L 426.344396 88.499066 
L 427.300347 87.860723 
L 428.256297 86.123547 
L 429.212248 82.098101 
L 430.168199 76.038128 
L 431.12415 76.0492 
L 432.080101 81.976609 
L 433.036051 84.684285 
L 433.992002 85.374962 
L 434.947953 85.626784 
L 435.903904 84.654542 
L 436.859855 83.950625 
L 437.815805 83.719238 
L 438.771756 84.098655 
L 439.727707 84.229877 
L 440.683658 84.106023 
L 441.639609 83.284683 
L 442.59556 83.136513 
L 445.463412 84.266122 
L 447.375314 85.2117 
L 448.331264 85.450783 
L 450.243166 85.234565 
L 452.155068 84.578335 
L 453.111018 84.391499 
L 454.066969 84.556131 
L 455.02292 85.185874 
L 455.978871 85.484139 
L 457.890773 85.529223 
L 458.846723 85.399948 
L 459.802674 85.475554 
L 460.758625 85.792489 
L 461.714576 85.318118 
L 462.670527 84.095527 
L 463.626477 82.451639 
L 464.582428 80.179593 
L 465.538379 77.470784 
L 466.49433 78.529906 
L 467.450281 78.316604 
L 469.362182 78.924678 
L 474.141936 78.849367 
L 475.097887 78.645311 
L 476.053838 78.292766 
L 477.009789 77.631733 
L 477.96574 76.595261 
L 478.92169 76.547051 
L 479.877641 77.594398 
L 480.833592 78.188446 
L 481.789543 78.613906 
L 482.745494 78.687389 
L 483.701444 78.122516 
L 484.657395 77.249714 
L 485.613346 73.538873 
L 487.525248 74.784736 
L 488.481199 72.55899 
L 489.437149 68.360474 
L 490.3931 68.374931 
L 491.349051 66.902223 
L 493.260953 66.588488 
L 494.216903 67.389007 
L 495.172854 68.81345 
L 496.128805 70.936857 
L 497.084756 73.349766 
L 498.040707 75.226243 
L 498.996657 76.255412 
L 499.952608 77.010859 
L 500.908559 77.123616 
L 501.86451 77.000247 
L 502.820461 76.618892 
L 503.776412 77.560516 
L 504.732362 80.072545 
L 505.688313 81.272595 
L 506.644264 81.447921 
L 507.600215 79.874237 
L 508.556166 77.472822 
L 509.512116 76.966787 
L 510.468067 77.969291 
L 512.379969 78.959569 
L 514.29187 80.521331 
L 515.247821 81.086585 
L 519.071625 82.148564 
L 520.983526 82.073139 
L 521.939477 81.703738 
L 522.895428 81.190406 
L 523.851379 80.48 
L 524.807329 80.02732 
L 525.76328 79.880241 
L 526.719231 80.39022 
L 527.675182 81.729397 
L 528.631133 82.52369 
L 529.587083 82.83073 
L 530.543034 82.726878 
L 531.498985 82.439285 
L 532.454936 82.317531 
L 535.322788 82.974239 
L 536.278739 83.040635 
L 537.23469 82.868072 
L 542.970395 82.783158 
L 544.882296 82.894267 
L 546.794198 83.214175 
L 548.7061 83.613245 
L 549.662051 83.954105 
L 550.618001 84.432375 
L 551.573952 84.560534 
L 552.529903 84.324716 
L 553.485854 82.626028 
L 555.397755 82.58914 
L 556.353706 83.922492 
L 557.309657 84.735861 
L 558.265608 85.269549 
L 559.221559 85.132561 
L 560.177509 83.958186 
L 562.089411 81.998898 
L 563.045362 83.677281 
L 564.001313 84.05338 
L 564.957264 84.772124 
L 565.913214 84.480748 
L 566.869165 84.777663 
L 567.825116 85.335701 
L 568.781067 85.321048 
L 569.737018 84.958282 
L 571.648919 84.652705 
L 572.60487 84.768658 
L 575.472722 86.004514 
L 576.428673 86.278476 
L 578.340575 86.335617 
L 580.252477 86.089277 
L 581.208427 85.883317 
L 582.164378 85.827637 
L 583.120329 85.959623 
L 584.07628 85.890949 
L 592.679837 83.898896 
L 594.591739 83.190068 
L 595.54769 81.778255 
L 596.50364 79.23735 
L 597.459591 83.584081 
L 598.415542 83.909965 
L 599.371493 85.889639 
L 601.283394 86.381087 
L 602.239345 85.974528 
L 603.195296 85.952918 
L 604.151247 86.389772 
L 605.107198 86.403708 
L 606.063148 86.20764 
L 607.97505 86.18017 
L 608.931001 86.289661 
L 611.798853 87.00919 
L 613.710755 87.339775 
L 615.622657 87.392398 
L 617.534558 87.566333 
L 618.490509 87.80738 
L 620.402411 88.543855 
L 622.314312 88.964454 
L 624.226214 88.872154 
L 627.094066 88.316782 
L 628.050017 88.217954 
L 629.961919 88.310249 
L 632.829771 88.726361 
L 635.697624 88.924722 
L 639.521427 89.264365 
L 642.389279 89.637924 
L 644.301181 89.673719 
L 649.080935 89.63208 
L 650.992837 89.373482 
L 652.904738 88.793111 
L 655.772591 87.645111 
L 656.728542 87.380097 
L 657.684492 87.246981 
L 658.640443 87.34304 
L 662.464246 88.790442 
L 663.420197 88.744823 
L 664.376148 88.523866 
L 665.332099 88.038541 
L 666.28805 87.728808 
L 667.244 87.61678 
L 668.199951 87.276922 
L 669.155902 86.81724 
L 670.111853 86.784043 
L 671.067804 87.026414 
L 672.023755 87.726142 
L 672.979705 86.926918 
L 673.935656 86.565148 
L 674.891607 82.671506 
L 675.847558 85.736871 
L 676.803509 86.437051 
L 677.759459 88.210003 
L 678.71541 88.848732 
L 679.671361 89.300305 
L 681.583263 88.470956 
L 682.539213 87.798031 
L 683.495164 87.396895 
L 684.451115 87.433348 
L 686.363017 87.25391 
L 688.274918 87.589629 
L 690.18682 87.81729 
L 694.966574 88.314337 
L 698.790377 89.420699 
L 700.702279 89.565381 
L 702.614181 89.574694 
L 714.08559 90.483392 
L 719.821295 90.078542 
L 731.292705 91.502293 
L 733.204607 91.394711 
L 735.116508 90.97735 
L 737.02841 90.852853 
L 742.764115 91.706898 
L 746.587918 91.484738 
L 748.49982 91.518454 
L 751.367672 91.674016 
L 755.191475 91.698708 
L 784.82595 91.703479 
L 867.03772 91.832738 
L 869.905573 91.836718 
L 873.729376 91.431677 
L 878.50913 91.48085 
L 880.421032 91.346583 
L 882.332933 91.510521 
L 883.288884 91.752766 
L 884.244835 92.979505 
L 885.200786 95.30374 
L 886.156737 98.021179 
L 888.068638 104.52416 
L 889.98054 109.947962 
L 890.936491 112.040013 
L 891.892441 113.543953 
L 892.848392 114.312075 
L 893.804343 114.282281 
L 894.760294 113.32862 
L 895.716245 112.032311 
L 897.628146 108.771754 
L 898.584097 107.464768 
L 899.540048 107.262795 
L 900.495999 108.492309 
L 901.45195 108.812813 
L 902.4079 108.41013 
L 903.363851 107.62683 
L 904.319802 106.138673 
L 905.275753 104.300229 
L 907.187654 99.581933 
L 908.143605 96.916828 
L 909.099556 94.5868 
L 910.055507 92.724546 
L 911.011458 91.911533 
L 911.967408 92.431095 
L 912.923359 92.626523 
L 913.87931 92.657617 
L 914.835261 93.14331 
L 917.703113 94.986249 
L 918.659064 93.776698 
L 919.615015 94.193818 
L 920.570966 94.220031 
L 921.526917 94.765527 
L 922.482867 95.133959 
L 925.35072 95.868763 
L 926.306671 96.542402 
L 927.262621 97.706453 
L 928.218572 99.045983 
L 929.174523 99.437206 
L 930.130474 98.680533 
L 931.086425 96.737254 
L 932.042376 95.537278 
L 933.954277 94.845459 
L 936.82213 95.585702 
L 937.77808 95.183211 
L 938.734031 93.954147 
L 939.689982 93.55687 
L 940.645933 93.874491 
L 943.513785 93.889041 
L 945.425687 94.423358 
L 946.381638 94.769993 
L 947.337589 94.932599 
L 949.24949 94.900611 
L 952.117343 95.138991 
L 954.985195 95.728717 
L 957.853047 96.214485 
L 964.544703 96.922294 
L 966.456605 97.55219 
L 969.324457 98.896842 
L 970.280408 99.172677 
L 971.236359 99.223948 
L 972.19231 99.15492 
L 976.016113 98.236847 
L 976.972064 97.992838 
L 977.928015 97.950415 
L 978.883965 98.135634 
L 990.355375 98.960166 
L 992.267277 99.358735 
L 997.047031 100.590247 
L 999.914883 100.928325 
L 1004.694637 101.304974 
L 1009.474391 101.893302 
L 1013.298195 102.175508 
L 1015.210096 102.65667 
L 1019.98985 104.203456 
L 1022.857703 104.552338 
L 1025.725555 104.788998 
L 1029.549358 105.552248 
L 1031.46126 105.957788 
L 1033.373162 106.085952 
L 1038.152916 105.841831 
L 1039.108867 105.963744 
L 1041.020768 106.53142 
L 1042.93267 107.376363 
L 1044.844571 108.34228 
L 1045.800522 108.715666 
L 1046.756473 109.24539 
L 1047.712424 109.91127 
L 1048.668375 110.405434 
L 1049.624325 110.749898 
L 1050.580276 110.361041 
L 1051.536227 109.103974 
L 1052.492178 108.615834 
L 1053.448129 108.825132 
L 1054.40408 108.900962 
L 1055.36003 109.170377 
L 1056.315981 108.842804 
L 1057.271932 107.786845 
L 1058.227883 107.647104 
L 1060.139784 109.003469 
L 1061.095735 109.490709 
L 1062.051686 109.769086 
L 1063.007637 109.742742 
L 1064.919538 110.039741 
L 1065.875489 110.594342 
L 1066.83144 111.633523 
L 1067.787391 112.269618 
L 1068.743342 112.555174 
L 1069.699293 112.38551 
L 1070.655243 111.536571 
L 1071.611194 111.376065 
L 1072.567145 111.890016 
L 1076.390948 113.000428 
L 1079.258801 113.479581 
L 1080.214751 113.916109 
L 1081.170702 114.116843 
L 1083.082604 114.043804 
L 1085.950456 113.463923 
L 1087.862358 113.221404 
L 1087.862358 113.221404 
" clip-path="url(#p1bb1130366)" style="fill: none; stroke: #0070c0; stroke-width: 1.5; stroke-linecap: square"/>
   </g>
   <g id="patch_3">
    <path d="M 48.982813 119.34313 
L 48.982813 8.659912 
" style="fill: none; stroke: #000000; stroke-width: 0.8; stroke-linejoin: miter; stroke-linecap: square"/>
   </g>
   <g id="patch_4">
    <path d="M 1137.332813 119.34313 
L 1137.332813 8.659912 
" style="fill: none; stroke: #000000; stroke-width: 0.8; stroke-linejoin: miter; stroke-linecap: square"/>
   </g>
   <g id="patch_5">
    <path d="M 48.982813 119.34313 
L 1137.332813 119.34313 
" style="fill: none; stroke: #000000; stroke-width: 0.8; stroke-linejoin: miter; stroke-linecap: square"/>
   </g>
   <g id="patch_6">
    <path d="M 48.982813 8.659912 
L 1137.332813 8.659912 
" style="fill: none; stroke: #000000; stroke-width: 0.8; stroke-linejoin: miter; stroke-linecap: square"/>
   </g>
  </g>
  <g id="axes_2">
   <g id="patch_7">
    <path d="M 48.982813 260.914656 
L 1137.332813 260.914656 
L 1137.332813 150.231438 
L 48.982813 150.231438 
z
" style="fill: #ffffff"/>
   </g>
   <g id="matplotlib.axis_3">
    <g id="xtick_7">
     <g id="line2d_11">
      <g>
       <use xlink:href="#mc2d2e355a0" x="98.453267" y="260.914656" style="stroke: #000000; stroke-width: 0.8"/>
      </g>
     </g>
     <g id="text_11">
      <!-- 0 -->
      <g transform="translate(95.272017 275.513094) scale(0.1 -0.1)">
       <use xlink:href="#DejaVuSans-30"/>
      </g>
     </g>
    </g>
    <g id="xtick_8">
     <g id="line2d_12">
      <g>
       <use xlink:href="#mc2d2e355a0" x="289.64343" y="260.914656" style="stroke: #000000; stroke-width: 0.8"/>
      </g>
     </g>
     <g id="text_12">
      <!-- 200 -->
      <g transform="translate(280.09968 275.513094) scale(0.1 -0.1)">
       <use xlink:href="#DejaVuSans-32"/>
       <use xlink:href="#DejaVuSans-30" transform="translate(63.623047 0)"/>
       <use xlink:href="#DejaVuSans-30" transform="translate(127.246094 0)"/>
      </g>
     </g>
    </g>
    <g id="xtick_9">
     <g id="line2d_13">
      <g>
       <use xlink:href="#mc2d2e355a0" x="480.833592" y="260.914656" style="stroke: #000000; stroke-width: 0.8"/>
      </g>
     </g>
     <g id="text_13">
      <!-- 400 -->
      <g transform="translate(471.289842 275.513094) scale(0.1 -0.1)">
       <use xlink:href="#DejaVuSans-34"/>
       <use xlink:href="#DejaVuSans-30" transform="translate(63.623047 0)"/>
       <use xlink:href="#DejaVuSans-30" transform="translate(127.246094 0)"/>
      </g>
     </g>
    </g>
    <g id="xtick_10">
     <g id="line2d_14">
      <g>
       <use xlink:href="#mc2d2e355a0" x="672.023755" y="260.914656" style="stroke: #000000; stroke-width: 0.8"/>
      </g>
     </g>
     <g id="text_14">
      <!-- 600 -->
      <g transform="translate(662.480005 275.513094) scale(0.1 -0.1)">
       <use xlink:href="#DejaVuSans-36"/>
       <use xlink:href="#DejaVuSans-30" transform="translate(63.623047 0)"/>
       <use xlink:href="#DejaVuSans-30" transform="translate(127.246094 0)"/>
      </g>
     </g>
    </g>
    <g id="xtick_11">
     <g id="line2d_15">
      <g>
       <use xlink:href="#mc2d2e355a0" x="863.213917" y="260.914656" style="stroke: #000000; stroke-width: 0.8"/>
      </g>
     </g>
     <g id="text_15">
      <!-- 800 -->
      <g transform="translate(853.670167 275.513094) scale(0.1 -0.1)">
       <use xlink:href="#DejaVuSans-38"/>
       <use xlink:href="#DejaVuSans-30" transform="translate(63.623047 0)"/>
       <use xlink:href="#DejaVuSans-30" transform="translate(127.246094 0)"/>
      </g>
     </g>
    </g>
    <g id="xtick_12">
     <g id="line2d_16">
      <g>
       <use xlink:href="#mc2d2e355a0" x="1054.40408" y="260.914656" style="stroke: #000000; stroke-width: 0.8"/>
      </g>
     </g>
     <g id="text_16">
      <!-- 1000 -->
      <g transform="translate(1041.67908 275.513094) scale(0.1 -0.1)">
       <use xlink:href="#DejaVuSans-31"/>
       <use xlink:href="#DejaVuSans-30" transform="translate(63.623047 0)"/>
       <use xlink:href="#DejaVuSans-30" transform="translate(127.246094 0)"/>
       <use xlink:href="#DejaVuSans-30" transform="translate(190.869141 0)"/>
      </g>
     </g>
    </g>
   </g>
   <g id="matplotlib.axis_4">
    <g id="ytick_4">
     <g id="line2d_17">
      <g>
       <use xlink:href="#m818d8e8e47" x="48.982813" y="247.58434" style="stroke: #000000; stroke-width: 0.8"/>
      </g>
     </g>
     <g id="text_17">
      <!-- −20 -->
      <g transform="translate(20.878125 251.383559) scale(0.1 -0.1)">
       <defs>
        <path id="DejaVuSans-2212" d="M 678 2272 
L 4684 2272 
L 4684 1741 
L 678 1741 
L 678 2272 
z
" transform="scale(0.015625)"/>
       </defs>
       <use xlink:href="#DejaVuSans-2212"/>
       <use xlink:href="#DejaVuSans-32" transform="translate(83.789062 0)"/>
       <use xlink:href="#DejaVuSans-30" transform="translate(147.412109 0)"/>
      </g>
     </g>
    </g>
    <g id="ytick_5">
     <g id="line2d_18">
      <g>
       <use xlink:href="#m818d8e8e47" x="48.982813" y="218.963625" style="stroke: #000000; stroke-width: 0.8"/>
      </g>
     </g>
     <g id="text_18">
      <!-- 0 -->
      <g transform="translate(35.620313 222.762844) scale(0.1 -0.1)">
       <use xlink:href="#DejaVuSans-30"/>
      </g>
     </g>
    </g>
    <g id="ytick_6">
     <g id="line2d_19">
      <g>
       <use xlink:href="#m818d8e8e47" x="48.982813" y="190.34291" style="stroke: #000000; stroke-width: 0.8"/>
      </g>
     </g>
     <g id="text_19">
      <!-- 20 -->
      <g transform="translate(29.257813 194.142129) scale(0.1 -0.1)">
       <use xlink:href="#DejaVuSans-32"/>
       <use xlink:href="#DejaVuSans-30" transform="translate(63.623047 0)"/>
      </g>
     </g>
    </g>
    <g id="ytick_7">
     <g id="line2d_20">
      <g>
       <use xlink:href="#m818d8e8e47" x="48.982813" y="161.722195" style="stroke: #000000; stroke-width: 0.8"/>
      </g>
     </g>
     <g id="text_20">
      <!-- 40 -->
      <g transform="translate(29.257813 165.521414) scale(0.1 -0.1)">
       <use xlink:href="#DejaVuSans-34"/>
       <use xlink:href="#DejaVuSans-30" transform="translate(63.623047 0)"/>
      </g>
     </g>
    </g>
    <g id="text_21">
     <!-- co-imf0 -->
     <g transform="translate(14.798438 224.480078) rotate(-90) scale(0.1 -0.1)">
      <defs>
       <path id="DejaVuSans-63" d="M 3122 3366 
L 3122 2828 
Q 2878 2963 2633 3030 
Q 2388 3097 2138 3097 
Q 1578 3097 1268 2742 
Q 959 2388 959 1747 
Q 959 1106 1268 751 
Q 1578 397 2138 397 
Q 2388 397 2633 464 
Q 2878 531 3122 666 
L 3122 134 
Q 2881 22 2623 -34 
Q 2366 -91 2075 -91 
Q 1284 -91 818 406 
Q 353 903 353 1747 
Q 353 2603 823 3093 
Q 1294 3584 2113 3584 
Q 2378 3584 2631 3529 
Q 2884 3475 3122 3366 
z
" transform="scale(0.015625)"/>
       <path id="DejaVuSans-6f" d="M 1959 3097 
Q 1497 3097 1228 2736 
Q 959 2375 959 1747 
Q 959 1119 1226 758 
Q 1494 397 1959 397 
Q 2419 397 2687 759 
Q 2956 1122 2956 1747 
Q 2956 2369 2687 2733 
Q 2419 3097 1959 3097 
z
M 1959 3584 
Q 2709 3584 3137 3096 
Q 3566 2609 3566 1747 
Q 3566 888 3137 398 
Q 2709 -91 1959 -91 
Q 1206 -91 779 398 
Q 353 888 353 1747 
Q 353 2609 779 3096 
Q 1206 3584 1959 3584 
z
" transform="scale(0.015625)"/>
       <path id="DejaVuSans-2d" d="M 313 2009 
L 1997 2009 
L 1997 1497 
L 313 1497 
L 313 2009 
z
" transform="scale(0.015625)"/>
       <path id="DejaVuSans-6d" d="M 3328 2828 
Q 3544 3216 3844 3400 
Q 4144 3584 4550 3584 
Q 5097 3584 5394 3201 
Q 5691 2819 5691 2113 
L 5691 0 
L 5113 0 
L 5113 2094 
Q 5113 2597 4934 2840 
Q 4756 3084 4391 3084 
Q 3944 3084 3684 2787 
Q 3425 2491 3425 1978 
L 3425 0 
L 2847 0 
L 2847 2094 
Q 2847 2600 2669 2842 
Q 2491 3084 2119 3084 
Q 1678 3084 1418 2786 
Q 1159 2488 1159 1978 
L 1159 0 
L 581 0 
L 581 3500 
L 1159 3500 
L 1159 2956 
Q 1356 3278 1631 3431 
Q 1906 3584 2284 3584 
Q 2666 3584 2933 3390 
Q 3200 3197 3328 2828 
z
" transform="scale(0.015625)"/>
       <path id="DejaVuSans-66" d="M 2375 4863 
L 2375 4384 
L 1825 4384 
Q 1516 4384 1395 4259 
Q 1275 4134 1275 3809 
L 1275 3500 
L 2222 3500 
L 2222 3053 
L 1275 3053 
L 1275 0 
L 697 0 
L 697 3053 
L 147 3053 
L 147 3500 
L 697 3500 
L 697 3744 
Q 697 4328 969 4595 
Q 1241 4863 1831 4863 
L 2375 4863 
z
" transform="scale(0.015625)"/>
      </defs>
      <use xlink:href="#DejaVuSans-63"/>
      <use xlink:href="#DejaVuSans-6f" transform="translate(54.980469 0)"/>
      <use xlink:href="#DejaVuSans-2d" transform="translate(118.037109 0)"/>
      <use xlink:href="#DejaVuSans-69" transform="translate(154.121094 0)"/>
      <use xlink:href="#DejaVuSans-6d" transform="translate(181.904297 0)"/>
      <use xlink:href="#DejaVuSans-66" transform="translate(279.316406 0)"/>
      <use xlink:href="#DejaVuSans-30" transform="translate(314.521484 0)"/>
     </g>
    </g>
   </g>
   <g id="line2d_21">
    <path d="M 98.453267 217.567282 
L 99.409218 217.675584 
L 100.365169 216.963833 
L 101.321119 215.450194 
L 102.27707 214.678185 
L 104.188972 214.483922 
L 109.924677 215.956701 
L 110.880628 216.431202 
L 111.836578 217.219057 
L 112.792529 218.396111 
L 113.74848 219.958881 
L 114.704431 221.994724 
L 115.660382 223.589242 
L 116.616332 224.700647 
L 117.572283 224.306801 
L 118.528234 222.025976 
L 119.484185 220.369899 
L 120.440136 219.090522 
L 121.396087 218.987979 
L 122.352037 220.69073 
L 123.307988 221.820667 
L 124.263939 222.704655 
L 125.21989 222.298565 
L 127.131791 217.804809 
L 128.087742 216.45434 
L 129.043693 216.521377 
L 129.999644 218.905675 
L 130.955595 220.290578 
L 131.911545 221.036675 
L 132.867496 222.024443 
L 133.823447 222.660453 
L 134.779398 222.880814 
L 135.735349 222.604265 
L 136.6913 221.423465 
L 137.64725 219.204907 
L 138.603201 216.432712 
L 139.559152 212.962477 
L 140.515103 213.315164 
L 141.471054 217.973185 
L 142.427004 220.046805 
L 143.382955 220.364544 
L 145.294857 223.59202 
L 146.250808 224.248323 
L 147.206758 224.011054 
L 148.162709 224.259168 
L 150.074611 225.442522 
L 151.030562 226.353212 
L 151.986513 226.743839 
L 153.898414 226.459743 
L 154.854365 226.167042 
L 155.810316 225.483143 
L 156.766267 224.440285 
L 157.722217 222.979405 
L 159.634119 218.944027 
L 161.546021 214.67293 
L 164.413873 209.606364 
L 165.369824 207.703818 
L 166.325775 205.535125 
L 167.281726 203.840977 
L 171.105529 199.052227 
L 174.929332 194.606309 
L 175.885283 193.26373 
L 176.841234 192.914961 
L 177.797184 193.626065 
L 178.753135 194.632189 
L 179.709086 196.212028 
L 180.665037 198.413518 
L 181.620988 201.18886 
L 182.576939 204.709542 
L 183.532889 208.992231 
L 184.48884 213.952668 
L 185.444791 219.637628 
L 186.400742 223.95791 
L 187.356693 226.70226 
L 188.312643 230.524574 
L 189.268594 234.993175 
L 190.224545 236.692811 
L 191.180496 235.815903 
L 192.136447 247.672298 
L 193.092397 251.216785 
L 194.048348 255.883601 
L 195.004299 254.947917 
L 195.96025 254.20145 
L 197.872152 199.267259 
L 198.828102 162.294208 
L 199.784053 155.262493 
L 200.740004 181.014317 
L 201.695955 197.969968 
L 203.607856 225.245408 
L 204.563807 229.204051 
L 205.519758 208.044198 
L 207.43166 221.351818 
L 208.38761 234.075245 
L 209.343561 237.502141 
L 210.299512 230.187332 
L 211.255463 229.870629 
L 212.211414 233.760639 
L 213.167365 232.420356 
L 214.123315 228.550293 
L 215.079266 223.661839 
L 216.991168 209.599791 
L 217.947119 207.7612 
L 218.903069 210.277325 
L 219.85902 213.837823 
L 220.814971 217.879512 
L 221.770922 221.364534 
L 222.726873 224.061598 
L 223.682823 225.044592 
L 224.638774 223.497173 
L 225.594725 219.259726 
L 226.550676 215.658039 
L 227.506627 216.511098 
L 228.462578 218.348762 
L 229.418528 219.896316 
L 230.374479 221.702332 
L 231.33043 216.847544 
L 232.286381 220.30466 
L 233.242332 226.436203 
L 234.198282 213.707755 
L 235.154233 210.822246 
L 236.110184 215.284139 
L 237.066135 207.948235 
L 238.022086 209.345154 
L 238.978036 214.691073 
L 240.889938 222.835686 
L 241.845889 227.678406 
L 242.80184 234.029726 
L 243.757791 235.803192 
L 244.713741 233.05338 
L 245.669692 229.711569 
L 246.625643 224.549306 
L 247.581594 222.041991 
L 248.537545 223.055816 
L 249.493495 223.67719 
L 250.449446 225.197195 
L 251.405397 219.346951 
L 252.361348 204.952838 
L 253.317299 205.042336 
L 254.273249 211.380568 
L 255.2292 214.80025 
L 256.185151 216.071801 
L 257.141102 218.221321 
L 258.097053 219.047299 
L 259.053004 219.207056 
L 260.008954 218.397629 
L 260.964905 217.361266 
L 261.920856 216.084841 
L 263.832758 213.036585 
L 264.788708 210.203605 
L 265.744659 212.73573 
L 266.70061 214.323156 
L 268.612512 220.680615 
L 269.568462 223.390776 
L 270.524413 224.699362 
L 271.480364 223.997761 
L 272.436315 220.959303 
L 273.392266 221.425602 
L 274.348217 220.402482 
L 275.304167 220.660507 
L 276.260118 219.859139 
L 278.17202 216.388125 
L 279.127971 214.069738 
L 280.083921 214.340981 
L 281.039872 217.52945 
L 282.951774 222.391229 
L 283.907725 222.765217 
L 284.863675 220.35736 
L 285.819626 219.384725 
L 286.775577 219.330664 
L 287.731528 219.912098 
L 288.687479 221.953923 
L 289.64343 222.644166 
L 290.59938 222.060615 
L 291.555331 221.655308 
L 294.423184 219.160141 
L 297.291036 216.115641 
L 298.246987 215.688118 
L 299.202938 215.439945 
L 301.114839 215.633952 
L 302.07079 215.810984 
L 303.026741 216.194003 
L 303.982692 216.72903 
L 304.938643 217.42316 
L 309.718397 221.679171 
L 310.674347 222.230859 
L 311.630298 222.495876 
L 312.586249 223.031371 
L 313.5422 223.816276 
L 314.498151 223.343959 
L 315.454101 221.601358 
L 316.410052 220.091643 
L 317.366003 219.517834 
L 318.321954 221.589376 
L 319.277905 220.989253 
L 320.233856 212.592461 
L 321.189806 215.658765 
L 322.145757 216.832779 
L 323.101708 217.730726 
L 324.057659 219.211047 
L 325.01361 219.666682 
L 325.96956 220.33069 
L 327.881462 221.016787 
L 328.837413 221.21251 
L 329.793364 221.265761 
L 330.749314 221.203451 
L 331.705265 220.968778 
L 333.617167 220.054551 
L 334.573118 219.450254 
L 335.529069 219.014872 
L 338.396921 218.276718 
L 339.352872 218.315575 
L 343.176675 219.584429 
L 345.088577 220.619233 
L 346.044527 220.895126 
L 347.000478 220.930644 
L 348.91238 220.092288 
L 349.868331 219.507849 
L 350.824282 220.044842 
L 351.780232 221.051188 
L 352.736183 221.236393 
L 353.692134 220.445085 
L 354.648085 219.366832 
L 355.604036 217.591714 
L 356.559986 218.342989 
L 357.515937 219.622293 
L 358.471888 217.638055 
L 359.427839 216.008713 
L 360.38379 215.138014 
L 361.33974 215.974878 
L 362.295691 218.105896 
L 363.251642 221.206233 
L 364.207593 222.276582 
L 365.163544 220.750546 
L 366.119495 218.989437 
L 367.075445 216.088037 
L 368.031396 215.150993 
L 368.987347 216.618446 
L 370.899249 220.026475 
L 371.855199 220.980452 
L 372.81115 220.826838 
L 373.767101 220.536154 
L 374.723052 219.780156 
L 375.679003 219.24664 
L 377.590904 218.953143 
L 378.546855 219.103258 
L 380.458757 220.015683 
L 382.370658 221.345296 
L 383.326609 220.77139 
L 385.238511 216.670935 
L 386.194462 215.201551 
L 387.150412 216.39847 
L 388.106363 218.648807 
L 389.062314 219.688971 
L 390.018265 219.496025 
L 390.974216 220.016584 
L 391.930166 220.728271 
L 392.886117 220.904198 
L 393.842068 220.717046 
L 394.798019 220.820614 
L 395.75397 221.152593 
L 396.709921 220.898934 
L 398.621822 219.311416 
L 399.577773 218.294925 
L 400.533724 217.791416 
L 401.489675 217.924916 
L 402.445625 217.748964 
L 403.401576 217.429372 
L 404.357527 217.403689 
L 405.313478 217.551519 
L 406.269429 217.819848 
L 408.18133 218.669066 
L 409.137281 219.021276 
L 410.093232 219.253239 
L 411.049183 219.293203 
L 412.005134 219.213481 
L 412.961084 218.960894 
L 413.917035 218.870447 
L 416.784888 219.25261 
L 417.740838 219.085476 
L 418.696789 218.510297 
L 419.65274 218.440797 
L 420.608691 219.00125 
L 421.564642 218.937577 
L 422.520592 218.075928 
L 423.476543 218.727248 
L 425.388445 223.577987 
L 426.344396 224.901098 
L 427.300347 225.213217 
L 428.256297 223.490415 
L 429.212248 217.522038 
L 430.168199 207.675566 
L 431.12415 208.2538 
L 432.080101 218.975272 
L 433.036051 223.716208 
L 433.992002 224.647055 
L 434.947953 224.642138 
L 435.903904 222.362329 
L 436.859855 220.515358 
L 437.815805 219.522951 
L 438.771756 219.636478 
L 439.727707 219.371756 
L 440.683658 218.726076 
L 441.639609 216.942648 
L 442.59556 216.464695 
L 444.507461 217.552453 
L 447.375314 220.317938 
L 448.331264 220.693427 
L 449.287215 220.395468 
L 450.243166 219.821325 
L 452.155068 217.903689 
L 453.111018 217.210185 
L 454.066969 217.201452 
L 455.02292 218.120109 
L 455.978871 218.580017 
L 456.934822 218.716479 
L 458.846723 219.357048 
L 459.802674 220.276421 
L 460.758625 221.897803 
L 461.714576 222.311816 
L 462.670527 221.543149 
L 463.626477 220.082543 
L 464.582428 217.503354 
L 465.538379 214.056995 
L 466.49433 217.128723 
L 467.450281 217.725309 
L 468.406231 219.007462 
L 469.362182 220.019874 
L 471.274084 220.478352 
L 472.230035 220.282862 
L 474.141936 219.494721 
L 475.097887 218.801878 
L 476.053838 217.936073 
L 477.009789 216.715695 
L 477.96574 215.10577 
L 478.92169 215.521137 
L 479.877641 218.146741 
L 481.789543 222.114553 
L 482.745494 223.573968 
L 483.701444 224.022749 
L 484.657395 223.991625 
L 485.613346 218.957831 
L 487.525248 224.124442 
L 488.481199 221.499853 
L 489.437149 215.209455 
L 490.3931 216.16856 
L 491.349051 214.222083 
L 492.305002 214.223967 
L 493.260953 214.017147 
L 494.216903 215.120384 
L 495.172854 217.036246 
L 497.084756 223.180705 
L 498.040707 225.293314 
L 498.996657 225.780246 
L 499.952608 225.700336 
L 500.908559 224.439591 
L 501.86451 222.751421 
L 502.820461 220.636859 
L 503.776412 220.894395 
L 504.732362 223.995938 
L 505.688313 224.837572 
L 506.644264 223.948773 
L 507.600215 220.059539 
L 508.556166 214.819965 
L 509.512116 213.077711 
L 510.468067 214.163126 
L 512.379969 215.024473 
L 515.247821 218.512739 
L 516.203772 219.09345 
L 518.115674 220.530177 
L 519.071625 220.928132 
L 520.027575 221.047648 
L 520.983526 220.959553 
L 521.939477 220.297099 
L 522.895428 219.323972 
L 523.851379 217.927809 
L 524.807329 216.922278 
L 525.76328 216.384204 
L 526.719231 216.958989 
L 527.675182 218.953893 
L 528.631133 219.969039 
L 529.587083 220.117364 
L 530.543034 219.561139 
L 531.498985 218.722413 
L 532.454936 218.231438 
L 536.278739 219.040199 
L 537.23469 218.752545 
L 538.190641 218.768523 
L 539.146592 218.978295 
L 541.058493 219.036423 
L 547.750149 219.040533 
L 548.7061 219.125088 
L 549.662051 219.486634 
L 550.618001 220.144629 
L 551.573952 220.230946 
L 552.529903 219.741514 
L 553.485854 216.715848 
L 555.397755 216.801598 
L 556.353706 219.296735 
L 557.309657 220.855938 
L 558.265608 221.889237 
L 559.221559 221.684689 
L 560.177509 219.570849 
L 562.089411 215.85511 
L 563.045362 218.616882 
L 564.001313 219.006357 
L 564.957264 219.977146 
L 565.913214 219.134331 
L 566.869165 219.349306 
L 567.825116 220.058022 
L 568.781067 219.79397 
L 569.737018 218.961358 
L 570.692968 218.423351 
L 571.648919 218.061681 
L 572.60487 218.07991 
L 575.472722 219.580188 
L 576.428673 219.80205 
L 578.340575 219.364001 
L 581.208427 218.108291 
L 582.164378 218.070842 
L 583.120329 218.517689 
L 584.07628 218.752769 
L 585.988181 219.083702 
L 588.856034 219.723583 
L 591.723886 220.594497 
L 592.679837 220.433579 
L 593.635788 220.098099 
L 594.591739 219.486099 
L 595.54769 216.856451 
L 596.50364 212.005274 
L 597.459591 219.198823 
L 598.415542 219.122541 
L 599.371493 221.904252 
L 601.283394 221.257874 
L 602.239345 219.848462 
L 603.195296 219.188716 
L 604.151247 219.433525 
L 605.107198 219.009214 
L 606.063148 218.309671 
L 607.019099 217.966267 
L 607.97505 217.833978 
L 608.931001 217.933986 
L 610.842903 218.771446 
L 612.754804 219.400339 
L 613.710755 219.487944 
L 614.666706 219.379465 
L 616.578607 218.724111 
L 617.534558 218.530479 
L 618.490509 218.56026 
L 620.402411 219.171284 
L 622.314312 219.45708 
L 624.226214 219.161319 
L 626.138116 218.563268 
L 627.094066 218.337069 
L 628.050017 218.228196 
L 629.961919 218.44797 
L 631.87382 218.920498 
L 633.785722 219.075488 
L 637.609525 218.916986 
L 639.521427 219.056331 
L 642.389279 219.543752 
L 644.301181 219.62756 
L 646.213083 219.811201 
L 650.036886 220.272084 
L 650.992837 220.216613 
L 651.948787 220.015455 
L 652.904738 219.687517 
L 655.772591 218.246945 
L 656.728542 217.884179 
L 657.684492 217.687413 
L 658.640443 217.831442 
L 660.552345 218.992727 
L 661.508296 219.681829 
L 662.464246 220.035089 
L 663.420197 219.936511 
L 664.376148 219.597394 
L 665.332099 218.884894 
L 666.28805 218.580435 
L 667.244 218.742667 
L 668.199951 218.609581 
L 669.155902 218.349455 
L 670.111853 218.838382 
L 671.067804 219.76186 
L 672.023755 221.387914 
L 672.979705 220.213263 
L 673.935656 219.670707 
L 674.891607 212.685294 
L 675.847558 217.876284 
L 676.803509 218.730599 
L 677.759459 221.42426 
L 678.71541 222.076657 
L 679.671361 222.431521 
L 681.583263 220.343152 
L 682.539213 219.010779 
L 683.495164 218.235575 
L 684.451115 218.316371 
L 686.363017 218.165986 
L 687.318968 218.477369 
L 688.274918 218.959035 
L 689.230869 219.270239 
L 691.142771 219.38812 
L 694.966574 218.735492 
L 698.790377 219.181012 
L 703.570131 218.691082 
L 713.129639 219.527907 
L 714.08559 219.488156 
L 715.997492 219.086174 
L 717.909394 218.533207 
L 718.865344 218.326448 
L 719.821295 218.254868 
L 724.601049 218.730042 
L 728.424852 219.10594 
L 731.292705 219.701355 
L 732.248656 219.644879 
L 733.204607 219.422477 
L 735.116508 218.609699 
L 736.072459 218.363738 
L 737.02841 218.302111 
L 741.808164 219.427359 
L 742.764115 219.426344 
L 745.631967 218.904009 
L 747.543869 218.729969 
L 749.45577 218.874325 
L 752.323623 218.999708 
L 755.191475 218.962995 
L 761.883131 218.963625 
L 813.504475 218.859324 
L 819.24018 218.567354 
L 830.711589 217.89283 
L 834.535393 217.961474 
L 838.359196 218.317931 
L 843.13895 219.063276 
L 845.050852 219.576586 
L 847.918704 220.514597 
L 850.786556 221.632824 
L 854.61036 223.385532 
L 859.390114 225.59785 
L 861.302015 226.305531 
L 863.213917 226.802935 
L 865.125819 227.029135 
L 866.081769 226.997277 
L 867.03772 226.821575 
L 867.993671 226.484508 
L 868.949622 225.937723 
L 869.905573 225.153377 
L 870.861524 224.10152 
L 873.729376 220.220284 
L 876.597228 216.101693 
L 878.50913 212.762707 
L 880.421032 209.075914 
L 882.332933 205.817542 
L 883.288884 204.474822 
L 884.244835 204.904048 
L 885.200786 207.321122 
L 886.156737 210.502108 
L 888.068638 219.02996 
L 889.98054 226.134708 
L 890.936491 228.820161 
L 891.892441 230.643324 
L 892.848392 231.361484 
L 893.804343 230.883629 
L 894.760294 229.00561 
L 895.716245 226.778347 
L 896.672195 224.156866 
L 897.628146 221.956917 
L 898.584097 220.522456 
L 899.540048 221.268624 
L 900.495999 224.764193 
L 901.45195 226.809943 
L 902.4079 227.711135 
L 903.363851 228.038648 
L 904.319802 227.185711 
L 905.275753 225.746103 
L 906.231704 223.609186 
L 907.187654 220.99582 
L 908.143605 218.004421 
L 909.099556 215.510567 
L 910.055507 213.717425 
L 911.011458 213.622883 
L 911.967408 215.695862 
L 912.923359 216.98294 
L 913.87931 217.737046 
L 915.791212 220.406464 
L 916.747163 221.441139 
L 917.703113 222.139263 
L 918.659064 219.403818 
L 919.615015 219.344324 
L 920.570966 218.482423 
L 921.526917 218.484666 
L 922.482867 218.191177 
L 923.438818 217.716702 
L 925.35072 217.167811 
L 926.306671 217.833976 
L 927.262621 219.537911 
L 928.218572 221.740368 
L 929.174523 222.473811 
L 930.130474 221.366589 
L 931.086425 218.334749 
L 932.042376 216.74003 
L 932.998326 216.685737 
L 933.954277 216.830179 
L 935.866179 219.13277 
L 936.82213 220.125383 
L 937.77808 219.932807 
L 938.734031 218.156097 
L 939.689982 217.762904 
L 940.645933 218.528176 
L 941.601884 218.594039 
L 942.557834 218.455677 
L 943.513785 218.646714 
L 946.381638 219.706062 
L 947.337589 219.735077 
L 948.293539 219.336593 
L 951.161392 218.661754 
L 953.073293 218.632745 
L 955.941146 219.106117 
L 957.853047 219.2485 
L 958.808998 219.1745 
L 960.7209 218.790767 
L 964.544703 218.344464 
L 965.500654 218.452162 
L 966.456605 218.687544 
L 968.368506 219.538089 
L 969.324457 220.050269 
L 970.280408 220.288548 
L 971.236359 220.194022 
L 972.19231 219.941769 
L 974.104211 218.992207 
L 976.972064 217.915615 
L 977.928015 217.916081 
L 978.883965 218.321839 
L 979.839916 218.513161 
L 980.795867 218.549064 
L 983.663719 219.22547 
L 986.531572 219.345509 
L 987.487523 219.227086 
L 989.399424 218.825543 
L 991.311326 218.709539 
L 994.179178 218.961257 
L 997.047031 219.189403 
L 1000.870834 218.864546 
L 1002.782736 218.727994 
L 1004.694637 218.825487 
L 1007.56249 219.201293 
L 1009.474391 219.21456 
L 1011.386293 218.964081 
L 1013.298195 218.665755 
L 1014.254145 218.633725 
L 1019.98985 219.299338 
L 1024.769604 218.530515 
L 1025.725555 218.517052 
L 1027.637457 218.827453 
L 1031.46126 219.769589 
L 1032.417211 219.755803 
L 1033.373162 219.59498 
L 1035.285063 218.817379 
L 1037.196965 217.938934 
L 1038.152916 217.618056 
L 1039.108867 217.456855 
L 1041.020768 217.668089 
L 1041.976719 217.953105 
L 1043.888621 218.869181 
L 1046.756473 220.206111 
L 1047.712424 221.093174 
L 1048.668375 221.717888 
L 1049.624325 222.126057 
L 1050.580276 221.270672 
L 1051.536227 218.917345 
L 1052.492178 217.949412 
L 1053.448129 218.238154 
L 1054.40408 218.297399 
L 1055.36003 218.699434 
L 1056.315981 218.038155 
L 1057.271932 216.072082 
L 1058.227883 215.706956 
L 1060.139784 217.790261 
L 1061.095735 218.449167 
L 1062.051686 218.712259 
L 1063.007637 218.407687 
L 1063.963588 218.297237 
L 1064.919538 218.341873 
L 1065.875489 218.99208 
L 1066.83144 220.47792 
L 1067.787391 221.225876 
L 1068.743342 221.329867 
L 1069.699293 220.609419 
L 1070.655243 218.66836 
L 1071.611194 217.945722 
L 1072.567145 218.420266 
L 1073.523096 218.518663 
L 1075.434997 218.894246 
L 1078.30285 218.625183 
L 1079.258801 218.818834 
L 1080.214751 219.394222 
L 1081.170702 219.601893 
L 1083.082604 219.341543 
L 1084.994506 218.696841 
L 1086.906407 218.487446 
L 1087.862358 218.575324 
L 1087.862358 218.575324 
" clip-path="url(#p1dfb10be41)" style="fill: none; stroke: #f27f19; stroke-width: 1.5; stroke-linecap: square"/>
   </g>
   <g id="patch_8">
    <path d="M 48.982813 260.914656 
L 48.982813 150.231438 
" style="fill: none; stroke: #000000; stroke-width: 0.8; stroke-linejoin: miter; stroke-linecap: square"/>
   </g>
   <g id="patch_9">
    <path d="M 1137.332813 260.914656 
L 1137.332813 150.231438 
" style="fill: none; stroke: #000000; stroke-width: 0.8; stroke-linejoin: miter; stroke-linecap: square"/>
   </g>
   <g id="patch_10">
    <path d="M 48.982813 260.914656 
L 1137.332813 260.914656 
" style="fill: none; stroke: #000000; stroke-width: 0.8; stroke-linejoin: miter; stroke-linecap: square"/>
   </g>
   <g id="patch_11">
    <path d="M 48.982813 150.231438 
L 1137.332813 150.231438 
" style="fill: none; stroke: #000000; stroke-width: 0.8; stroke-linejoin: miter; stroke-linecap: square"/>
   </g>
  </g>
  <g id="axes_3">
   <g id="patch_12">
    <path d="M 48.982813 402.486182 
L 1137.332813 402.486182 
L 1137.332813 291.802964 
L 48.982813 291.802964 
z
" style="fill: #ffffff"/>
   </g>
   <g id="matplotlib.axis_5">
    <g id="xtick_13">
     <g id="line2d_22">
      <g>
       <use xlink:href="#mc2d2e355a0" x="98.453267" y="402.486182" style="stroke: #000000; stroke-width: 0.8"/>
      </g>
     </g>
     <g id="text_22">
      <!-- 0 -->
      <g transform="translate(95.272017 417.08462) scale(0.1 -0.1)">
       <use xlink:href="#DejaVuSans-30"/>
      </g>
     </g>
    </g>
    <g id="xtick_14">
     <g id="line2d_23">
      <g>
       <use xlink:href="#mc2d2e355a0" x="289.64343" y="402.486182" style="stroke: #000000; stroke-width: 0.8"/>
      </g>
     </g>
     <g id="text_23">
      <!-- 200 -->
      <g transform="translate(280.09968 417.08462) scale(0.1 -0.1)">
       <use xlink:href="#DejaVuSans-32"/>
       <use xlink:href="#DejaVuSans-30" transform="translate(63.623047 0)"/>
       <use xlink:href="#DejaVuSans-30" transform="translate(127.246094 0)"/>
      </g>
     </g>
    </g>
    <g id="xtick_15">
     <g id="line2d_24">
      <g>
       <use xlink:href="#mc2d2e355a0" x="480.833592" y="402.486182" style="stroke: #000000; stroke-width: 0.8"/>
      </g>
     </g>
     <g id="text_24">
      <!-- 400 -->
      <g transform="translate(471.289842 417.08462) scale(0.1 -0.1)">
       <use xlink:href="#DejaVuSans-34"/>
       <use xlink:href="#DejaVuSans-30" transform="translate(63.623047 0)"/>
       <use xlink:href="#DejaVuSans-30" transform="translate(127.246094 0)"/>
      </g>
     </g>
    </g>
    <g id="xtick_16">
     <g id="line2d_25">
      <g>
       <use xlink:href="#mc2d2e355a0" x="672.023755" y="402.486182" style="stroke: #000000; stroke-width: 0.8"/>
      </g>
     </g>
     <g id="text_25">
      <!-- 600 -->
      <g transform="translate(662.480005 417.08462) scale(0.1 -0.1)">
       <use xlink:href="#DejaVuSans-36"/>
       <use xlink:href="#DejaVuSans-30" transform="translate(63.623047 0)"/>
       <use xlink:href="#DejaVuSans-30" transform="translate(127.246094 0)"/>
      </g>
     </g>
    </g>
    <g id="xtick_17">
     <g id="line2d_26">
      <g>
       <use xlink:href="#mc2d2e355a0" x="863.213917" y="402.486182" style="stroke: #000000; stroke-width: 0.8"/>
      </g>
     </g>
     <g id="text_26">
      <!-- 800 -->
      <g transform="translate(853.670167 417.08462) scale(0.1 -0.1)">
       <use xlink:href="#DejaVuSans-38"/>
       <use xlink:href="#DejaVuSans-30" transform="translate(63.623047 0)"/>
       <use xlink:href="#DejaVuSans-30" transform="translate(127.246094 0)"/>
      </g>
     </g>
    </g>
    <g id="xtick_18">
     <g id="line2d_27">
      <g>
       <use xlink:href="#mc2d2e355a0" x="1054.40408" y="402.486182" style="stroke: #000000; stroke-width: 0.8"/>
      </g>
     </g>
     <g id="text_27">
      <!-- 1000 -->
      <g transform="translate(1041.67908 417.08462) scale(0.1 -0.1)">
       <use xlink:href="#DejaVuSans-31"/>
       <use xlink:href="#DejaVuSans-30" transform="translate(63.623047 0)"/>
       <use xlink:href="#DejaVuSans-30" transform="translate(127.246094 0)"/>
       <use xlink:href="#DejaVuSans-30" transform="translate(190.869141 0)"/>
      </g>
     </g>
    </g>
   </g>
   <g id="matplotlib.axis_6">
    <g id="ytick_8">
     <g id="line2d_28">
      <g>
       <use xlink:href="#m818d8e8e47" x="48.982813" y="395.038055" style="stroke: #000000; stroke-width: 0.8"/>
      </g>
     </g>
     <g id="text_28">
      <!-- −40 -->
      <g transform="translate(20.878125 398.837274) scale(0.1 -0.1)">
       <use xlink:href="#DejaVuSans-2212"/>
       <use xlink:href="#DejaVuSans-34" transform="translate(83.789062 0)"/>
       <use xlink:href="#DejaVuSans-30" transform="translate(147.412109 0)"/>
      </g>
     </g>
    </g>
    <g id="ytick_9">
     <g id="line2d_29">
      <g>
       <use xlink:href="#m818d8e8e47" x="48.982813" y="366.179688" style="stroke: #000000; stroke-width: 0.8"/>
      </g>
     </g>
     <g id="text_29">
      <!-- −20 -->
      <g transform="translate(20.878125 369.978907) scale(0.1 -0.1)">
       <use xlink:href="#DejaVuSans-2212"/>
       <use xlink:href="#DejaVuSans-32" transform="translate(83.789062 0)"/>
       <use xlink:href="#DejaVuSans-30" transform="translate(147.412109 0)"/>
      </g>
     </g>
    </g>
    <g id="ytick_10">
     <g id="line2d_30">
      <g>
       <use xlink:href="#m818d8e8e47" x="48.982813" y="337.321321" style="stroke: #000000; stroke-width: 0.8"/>
      </g>
     </g>
     <g id="text_30">
      <!-- 0 -->
      <g transform="translate(35.620313 341.12054) scale(0.1 -0.1)">
       <use xlink:href="#DejaVuSans-30"/>
      </g>
     </g>
    </g>
    <g id="ytick_11">
     <g id="line2d_31">
      <g>
       <use xlink:href="#m818d8e8e47" x="48.982813" y="308.462955" style="stroke: #000000; stroke-width: 0.8"/>
      </g>
     </g>
     <g id="text_31">
      <!-- 20 -->
      <g transform="translate(29.257813 312.262174) scale(0.1 -0.1)">
       <use xlink:href="#DejaVuSans-32"/>
       <use xlink:href="#DejaVuSans-30" transform="translate(63.623047 0)"/>
      </g>
     </g>
    </g>
    <g id="text_32">
     <!-- co-imf1 -->
     <g transform="translate(14.798438 366.051604) rotate(-90) scale(0.1 -0.1)">
      <use xlink:href="#DejaVuSans-63"/>
      <use xlink:href="#DejaVuSans-6f" transform="translate(54.980469 0)"/>
      <use xlink:href="#DejaVuSans-2d" transform="translate(118.037109 0)"/>
      <use xlink:href="#DejaVuSans-69" transform="translate(154.121094 0)"/>
      <use xlink:href="#DejaVuSans-6d" transform="translate(181.904297 0)"/>
      <use xlink:href="#DejaVuSans-66" transform="translate(279.316406 0)"/>
      <use xlink:href="#DejaVuSans-31" transform="translate(314.521484 0)"/>
     </g>
    </g>
   </g>
   <g id="line2d_32">
    <path d="M 98.453267 354.004074 
L 99.409218 354.011436 
L 101.321119 354.351221 
L 103.233021 355.070509 
L 105.144923 356.112535 
L 108.012775 358.072846 
L 112.792529 361.57932 
L 114.704431 362.760785 
L 116.616332 363.660139 
L 118.528234 364.185863 
L 120.440136 364.320564 
L 122.352037 364.116647 
L 124.263939 363.64843 
L 126.175841 362.974347 
L 129.043693 361.715228 
L 133.823447 359.525082 
L 136.6913 358.437781 
L 139.559152 357.590947 
L 141.471054 357.188946 
L 143.382955 356.975796 
L 145.294857 357.007879 
L 147.206758 357.339508 
L 149.11866 358.024885 
L 151.030562 359.12068 
L 152.942463 360.692478 
L 154.854365 362.788947 
L 156.766267 365.377244 
L 158.678168 368.383602 
L 160.59007 371.747402 
L 163.457922 377.341967 
L 169.193627 389.116344 
L 171.105529 392.466866 
L 173.01743 395.162214 
L 173.973381 396.194844 
L 174.929332 396.9492 
L 175.885283 397.391747 
L 176.841234 397.455127 
L 177.797184 397.095639 
L 178.753135 396.268516 
L 179.709086 394.925761 
L 180.665037 393.071026 
L 181.620988 390.703799 
L 182.576939 387.876778 
L 183.532889 384.5971 
L 185.444791 376.835259 
L 187.356693 367.652144 
L 189.268594 357.287519 
L 196.916201 313.772933 
L 197.872152 309.428189 
L 198.828102 305.607772 
L 199.784053 302.397551 
L 200.740004 299.882022 
L 201.695955 298.123651 
L 202.651906 297.137848 
L 203.607856 296.834019 
L 204.563807 297.152554 
L 205.519758 297.99365 
L 206.475709 299.287446 
L 207.43166 300.946451 
L 209.343561 305.037262 
L 216.035217 320.891167 
L 217.947119 324.450092 
L 219.85902 327.199249 
L 220.814971 328.290908 
L 221.770922 329.203368 
L 222.726873 329.935485 
L 223.682823 330.493826 
L 224.638774 330.857429 
L 225.594725 330.961285 
L 226.550676 330.654809 
L 227.506627 329.830905 
L 228.462578 328.408142 
L 229.418528 326.407684 
L 230.374479 323.93385 
L 232.286381 317.907621 
L 235.154233 308.122146 
L 236.110184 305.227917 
L 237.066135 302.750474 
L 238.022086 300.79999 
L 238.978036 299.384237 
L 239.933987 298.42652 
L 240.889938 297.891436 
L 241.845889 297.70515 
L 242.80184 297.818996 
L 243.757791 298.169156 
L 245.669692 299.36074 
L 247.581594 300.885989 
L 250.449446 303.502993 
L 256.185151 308.946735 
L 258.097053 310.527623 
L 260.008954 311.900329 
L 261.920856 313.040654 
L 264.788708 314.437366 
L 267.656561 315.819481 
L 269.568462 316.955667 
L 271.480364 318.405697 
L 273.392266 320.291793 
L 275.304167 322.616233 
L 277.216069 325.312477 
L 280.083921 329.835986 
L 286.775577 340.6952 
L 288.687479 343.320274 
L 290.59938 345.534191 
L 292.511282 347.30097 
L 294.423184 348.63594 
L 296.335085 349.586589 
L 298.246987 350.217191 
L 300.158888 350.61372 
L 303.026741 350.891786 
L 304.938643 350.888108 
L 306.850544 350.722395 
L 308.762446 350.403389 
L 310.674347 349.929245 
L 313.5422 348.930409 
L 316.410052 347.63654 
L 321.189806 345.375197 
L 323.101708 344.660562 
L 325.01361 344.143888 
L 326.925511 343.85016 
L 328.837413 343.801292 
L 330.749314 344.018163 
L 332.661216 344.463897 
L 338.396921 346.045189 
L 340.308823 346.366414 
L 342.220724 346.46451 
L 344.132626 346.21847 
L 345.088577 345.926072 
L 346.044527 345.499131 
L 347.000478 344.924379 
L 347.956429 344.185912 
L 348.91238 343.286935 
L 350.824282 340.998259 
L 352.736183 338.211519 
L 356.559986 332.312731 
L 358.471888 329.834579 
L 359.427839 328.854976 
L 360.38379 328.074622 
L 361.33974 327.52398 
L 362.295691 327.184336 
L 363.251642 327.076478 
L 364.207593 327.189169 
L 365.163544 327.52778 
L 366.119495 328.068784 
L 367.075445 328.810608 
L 368.987347 330.757799 
L 373.767101 336.378992 
L 374.723052 337.276597 
L 375.679003 337.989808 
L 376.634953 338.47224 
L 377.590904 338.703953 
L 378.546855 338.642908 
L 379.502806 338.334914 
L 380.458757 337.81281 
L 382.370658 336.421733 
L 385.238511 334.170493 
L 387.150412 333.050048 
L 388.106363 332.708185 
L 389.062314 332.485965 
L 390.974216 332.375652 
L 392.886117 332.564227 
L 395.75397 333.105077 
L 398.621822 333.871569 
L 400.533724 334.54909 
L 403.401576 335.853747 
L 411.049183 339.762726 
L 413.917035 340.716305 
L 417.740838 341.735956 
L 418.696789 341.920074 
L 419.65274 341.940196 
L 420.608691 341.741936 
L 421.564642 341.27997 
L 422.520592 340.561345 
L 423.476543 339.637527 
L 425.388445 337.264513 
L 428.256297 333.387435 
L 429.212248 332.361988 
L 430.168199 331.615899 
L 431.12415 331.219907 
L 432.080101 331.181309 
L 433.036051 331.423178 
L 433.992002 331.907458 
L 435.903904 333.319654 
L 439.727707 336.447466 
L 441.639609 337.677845 
L 442.59556 338.138221 
L 444.507461 338.697666 
L 447.375314 339.247732 
L 448.331264 339.565094 
L 450.243166 340.604301 
L 454.066969 343.156013 
L 455.02292 343.641265 
L 455.978871 343.997896 
L 456.934822 344.187404 
L 457.890773 344.174495 
L 458.846723 343.931331 
L 459.802674 343.429654 
L 460.758625 342.651579 
L 462.670527 340.553933 
L 465.538379 337.117464 
L 466.49433 336.196925 
L 467.450281 335.494761 
L 468.406231 335.04772 
L 469.362182 334.821597 
L 470.318133 334.821799 
L 471.274084 335.01677 
L 472.230035 335.398433 
L 474.141936 336.536422 
L 476.053838 337.608742 
L 477.009789 337.897144 
L 477.96574 337.901187 
L 478.92169 337.623858 
L 479.877641 337.070186 
L 480.833592 336.296354 
L 482.745494 334.1731 
L 484.657395 331.556907 
L 487.525248 327.514462 
L 489.437149 325.303066 
L 490.3931 324.489743 
L 491.349051 323.936915 
L 492.305002 323.686406 
L 493.260953 323.786985 
L 494.216903 324.192888 
L 495.172854 324.885074 
L 496.128805 325.8058 
L 498.040707 328.198953 
L 500.908559 332.543216 
L 503.776412 336.911855 
L 505.688313 339.540255 
L 507.600215 341.793798 
L 509.512116 343.541264 
L 510.468067 344.181405 
L 511.424018 344.654778 
L 512.379969 344.946957 
L 513.33592 345.089363 
L 515.247821 344.978437 
L 517.159723 344.545026 
L 520.027575 343.791411 
L 521.939477 343.482175 
L 523.851379 343.407268 
L 525.76328 343.596961 
L 528.631133 344.235278 
L 531.498985 344.833013 
L 533.410887 344.956583 
L 535.322788 344.825818 
L 537.23469 344.460142 
L 540.102542 343.590836 
L 542.014444 343.061215 
L 543.926346 342.76744 
L 545.838247 342.739588 
L 550.618001 342.908264 
L 552.529903 342.674067 
L 554.441805 342.180186 
L 559.221559 340.564011 
L 561.13346 340.221868 
L 563.045362 340.136206 
L 565.913214 340.363577 
L 568.781067 340.518507 
L 574.516772 340.364671 
L 580.252477 340.542825 
L 581.208427 340.401961 
L 582.164378 340.137216 
L 583.120329 339.722362 
L 584.07628 339.16507 
L 585.988181 337.682526 
L 590.767935 333.505446 
L 592.679837 332.279611 
L 593.635788 331.875152 
L 594.591739 331.647348 
L 595.54769 331.620601 
L 596.50364 331.819193 
L 597.459591 332.191773 
L 599.371493 333.306717 
L 602.239345 335.142156 
L 604.151247 336.062736 
L 606.063148 336.64493 
L 607.97505 336.864543 
L 609.886952 336.794175 
L 612.754804 336.650909 
L 614.666706 336.884729 
L 616.578607 337.448136 
L 620.402411 338.693011 
L 622.314312 339.040268 
L 624.226214 339.067607 
L 630.91787 338.519136 
L 633.785722 338.681643 
L 641.433329 339.502425 
L 644.301181 339.501374 
L 647.169033 339.204598 
L 650.036886 338.62967 
L 654.81664 337.500819 
L 656.728542 337.259423 
L 658.640443 337.279446 
L 663.420197 337.757987 
L 665.332099 337.596766 
L 666.28805 337.370995 
L 668.199951 336.576184 
L 671.067804 335.030312 
L 672.023755 334.662846 
L 672.979705 334.439065 
L 673.935656 334.359758 
L 674.891607 334.461684 
L 675.847558 334.727883 
L 677.759459 335.610041 
L 679.671361 336.57957 
L 681.583263 337.236106 
L 683.495164 337.472264 
L 685.407066 337.419465 
L 689.230869 337.128507 
L 691.142771 337.323916 
L 693.054672 337.918637 
L 698.790377 340.29832 
L 700.702279 340.801751 
L 703.570131 341.222399 
L 708.349885 341.574191 
L 717.909394 342.135879 
L 730.336754 343.106975 
L 736.072459 343.189189 
L 742.764115 343.363566 
L 748.49982 343.43065 
L 754.235524 343.204361 
L 761.883131 342.720334 
L 775.266442 341.600645 
L 793.429508 339.73911 
L 816.372327 337.243338 
L 832.623491 335.971099 
L 836.447294 335.261676 
L 840.271098 334.257441 
L 843.13895 333.294422 
L 846.006802 332.131105 
L 848.874655 330.761423 
L 852.698458 328.65571 
L 860.346065 324.232449 
L 862.257966 323.405026 
L 864.169868 322.88512 
L 865.125819 322.780446 
L 866.081769 322.800499 
L 867.03772 322.958351 
L 867.993671 323.26955 
L 868.949622 323.734238 
L 869.905573 324.365444 
L 870.861524 325.137893 
L 872.773425 327.101333 
L 874.685327 329.535469 
L 876.597228 332.356669 
L 879.465081 337.126748 
L 887.112687 350.456733 
L 889.024589 353.160546 
L 890.936491 355.302785 
L 891.892441 356.114816 
L 892.848392 356.728249 
L 893.804343 357.123788 
L 894.760294 357.282036 
L 895.716245 357.182439 
L 896.672195 356.808 
L 897.628146 356.166519 
L 898.584097 355.255809 
L 899.540048 354.124317 
L 901.45195 351.278699 
L 903.363851 347.897656 
L 909.099556 337.190073 
L 911.011458 334.312727 
L 911.967408 333.154327 
L 912.923359 332.209767 
L 913.87931 331.509639 
L 914.835261 331.048005 
L 915.791212 330.847676 
L 916.747163 330.913789 
L 917.703113 331.259495 
L 918.659064 331.862539 
L 920.570966 333.599954 
L 923.438818 336.428772 
L 925.35072 337.912616 
L 926.306671 338.452451 
L 927.262621 338.822252 
L 928.218572 339.00257 
L 929.174523 338.967933 
L 930.130474 338.736133 
L 932.042376 337.787873 
L 934.910228 335.757526 
L 936.82213 334.457914 
L 938.734031 333.515301 
L 940.645933 332.979675 
L 942.557834 332.812493 
L 944.469736 332.941075 
L 946.381638 333.288188 
L 949.24949 334.071164 
L 952.117343 334.869736 
L 954.985195 335.387 
L 958.808998 335.984202 
L 961.676851 336.627239 
L 965.500654 337.753228 
L 968.368506 338.559098 
L 970.280408 338.891478 
L 972.19231 338.963901 
L 974.104211 338.790561 
L 976.972064 338.228967 
L 983.663719 336.651587 
L 985.575621 336.398667 
L 987.487523 336.331554 
L 990.355375 336.531257 
L 998.958932 337.532683 
L 1001.826785 337.441745 
L 1004.694637 337.100274 
L 1009.474391 336.462237 
L 1011.386293 336.379452 
L 1013.298195 336.454951 
L 1016.166047 336.854362 
L 1020.945801 337.666834 
L 1022.857703 337.810892 
L 1024.769604 337.798944 
L 1027.637457 337.490848 
L 1032.417211 336.842511 
L 1034.329112 336.781886 
L 1037.196965 336.926903 
L 1040.064817 337.288038 
L 1046.756473 338.252766 
L 1048.668375 338.332754 
L 1051.536227 338.150181 
L 1059.183834 337.294256 
L 1062.051686 337.369809 
L 1064.919538 337.735873 
L 1067.787391 338.374295 
L 1070.655243 339.256436 
L 1076.390948 341.125216 
L 1079.258801 341.784949 
L 1081.170702 342.039614 
L 1083.082604 342.108237 
L 1084.994506 341.972417 
L 1086.906407 341.633791 
L 1087.862358 341.39177 
L 1087.862358 341.39177 
" clip-path="url(#p05321d11e5)" style="fill: none; stroke: #f27f19; stroke-width: 1.5; stroke-linecap: square"/>
   </g>
   <g id="patch_13">
    <path d="M 48.982813 402.486182 
L 48.982813 291.802964 
" style="fill: none; stroke: #000000; stroke-width: 0.8; stroke-linejoin: miter; stroke-linecap: square"/>
   </g>
   <g id="patch_14">
    <path d="M 1137.332813 402.486182 
L 1137.332813 291.802964 
" style="fill: none; stroke: #000000; stroke-width: 0.8; stroke-linejoin: miter; stroke-linecap: square"/>
   </g>
   <g id="patch_15">
    <path d="M 48.982813 402.486182 
L 1137.332813 402.486182 
" style="fill: none; stroke: #000000; stroke-width: 0.8; stroke-linejoin: miter; stroke-linecap: square"/>
   </g>
   <g id="patch_16">
    <path d="M 48.982813 291.802964 
L 1137.332813 291.802964 
" style="fill: none; stroke: #000000; stroke-width: 0.8; stroke-linejoin: miter; stroke-linecap: square"/>
   </g>
  </g>
  <g id="axes_4">
   <g id="patch_17">
    <path d="M 48.982813 544.057708 
L 1137.332813 544.057708 
L 1137.332813 433.37449 
L 48.982813 433.37449 
z
" style="fill: #ffffff"/>
   </g>
   <g id="matplotlib.axis_7">
    <g id="xtick_19">
     <g id="line2d_33">
      <g>
       <use xlink:href="#mc2d2e355a0" x="98.453267" y="544.057708" style="stroke: #000000; stroke-width: 0.8"/>
      </g>
     </g>
     <g id="text_33">
      <!-- 0 -->
      <g transform="translate(95.272017 558.656146) scale(0.1 -0.1)">
       <use xlink:href="#DejaVuSans-30"/>
      </g>
     </g>
    </g>
    <g id="xtick_20">
     <g id="line2d_34">
      <g>
       <use xlink:href="#mc2d2e355a0" x="289.64343" y="544.057708" style="stroke: #000000; stroke-width: 0.8"/>
      </g>
     </g>
     <g id="text_34">
      <!-- 200 -->
      <g transform="translate(280.09968 558.656146) scale(0.1 -0.1)">
       <use xlink:href="#DejaVuSans-32"/>
       <use xlink:href="#DejaVuSans-30" transform="translate(63.623047 0)"/>
       <use xlink:href="#DejaVuSans-30" transform="translate(127.246094 0)"/>
      </g>
     </g>
    </g>
    <g id="xtick_21">
     <g id="line2d_35">
      <g>
       <use xlink:href="#mc2d2e355a0" x="480.833592" y="544.057708" style="stroke: #000000; stroke-width: 0.8"/>
      </g>
     </g>
     <g id="text_35">
      <!-- 400 -->
      <g transform="translate(471.289842 558.656146) scale(0.1 -0.1)">
       <use xlink:href="#DejaVuSans-34"/>
       <use xlink:href="#DejaVuSans-30" transform="translate(63.623047 0)"/>
       <use xlink:href="#DejaVuSans-30" transform="translate(127.246094 0)"/>
      </g>
     </g>
    </g>
    <g id="xtick_22">
     <g id="line2d_36">
      <g>
       <use xlink:href="#mc2d2e355a0" x="672.023755" y="544.057708" style="stroke: #000000; stroke-width: 0.8"/>
      </g>
     </g>
     <g id="text_36">
      <!-- 600 -->
      <g transform="translate(662.480005 558.656146) scale(0.1 -0.1)">
       <use xlink:href="#DejaVuSans-36"/>
       <use xlink:href="#DejaVuSans-30" transform="translate(63.623047 0)"/>
       <use xlink:href="#DejaVuSans-30" transform="translate(127.246094 0)"/>
      </g>
     </g>
    </g>
    <g id="xtick_23">
     <g id="line2d_37">
      <g>
       <use xlink:href="#mc2d2e355a0" x="863.213917" y="544.057708" style="stroke: #000000; stroke-width: 0.8"/>
      </g>
     </g>
     <g id="text_37">
      <!-- 800 -->
      <g transform="translate(853.670167 558.656146) scale(0.1 -0.1)">
       <use xlink:href="#DejaVuSans-38"/>
       <use xlink:href="#DejaVuSans-30" transform="translate(63.623047 0)"/>
       <use xlink:href="#DejaVuSans-30" transform="translate(127.246094 0)"/>
      </g>
     </g>
    </g>
    <g id="xtick_24">
     <g id="line2d_38">
      <g>
       <use xlink:href="#mc2d2e355a0" x="1054.40408" y="544.057708" style="stroke: #000000; stroke-width: 0.8"/>
      </g>
     </g>
     <g id="text_38">
      <!-- 1000 -->
      <g transform="translate(1041.67908 558.656146) scale(0.1 -0.1)">
       <use xlink:href="#DejaVuSans-31"/>
       <use xlink:href="#DejaVuSans-30" transform="translate(63.623047 0)"/>
       <use xlink:href="#DejaVuSans-30" transform="translate(127.246094 0)"/>
       <use xlink:href="#DejaVuSans-30" transform="translate(190.869141 0)"/>
      </g>
     </g>
    </g>
   </g>
   <g id="matplotlib.axis_8">
    <g id="ytick_12">
     <g id="line2d_39">
      <g>
       <use xlink:href="#m818d8e8e47" x="48.982813" y="511.738647" style="stroke: #000000; stroke-width: 0.8"/>
      </g>
     </g>
     <g id="text_39">
      <!-- 40 -->
      <g transform="translate(29.257813 515.537865) scale(0.1 -0.1)">
       <use xlink:href="#DejaVuSans-34"/>
       <use xlink:href="#DejaVuSans-30" transform="translate(63.623047 0)"/>
      </g>
     </g>
    </g>
    <g id="ytick_13">
     <g id="line2d_40">
      <g>
       <use xlink:href="#m818d8e8e47" x="48.982813" y="473.10282" style="stroke: #000000; stroke-width: 0.8"/>
      </g>
     </g>
     <g id="text_40">
      <!-- 60 -->
      <g transform="translate(29.257813 476.902039) scale(0.1 -0.1)">
       <use xlink:href="#DejaVuSans-36"/>
       <use xlink:href="#DejaVuSans-30" transform="translate(63.623047 0)"/>
      </g>
     </g>
    </g>
    <g id="ytick_14">
     <g id="line2d_41">
      <g>
       <use xlink:href="#m818d8e8e47" x="48.982813" y="434.466994" style="stroke: #000000; stroke-width: 0.8"/>
      </g>
     </g>
     <g id="text_41">
      <!-- 80 -->
      <g transform="translate(29.257813 438.266213) scale(0.1 -0.1)">
       <use xlink:href="#DejaVuSans-38"/>
       <use xlink:href="#DejaVuSans-30" transform="translate(63.623047 0)"/>
      </g>
     </g>
    </g>
    <g id="text_42">
     <!-- co-imf2 -->
     <g transform="translate(23.178125 507.62313) rotate(-90) scale(0.1 -0.1)">
      <use xlink:href="#DejaVuSans-63"/>
      <use xlink:href="#DejaVuSans-6f" transform="translate(54.980469 0)"/>
      <use xlink:href="#DejaVuSans-2d" transform="translate(118.037109 0)"/>
      <use xlink:href="#DejaVuSans-69" transform="translate(154.121094 0)"/>
      <use xlink:href="#DejaVuSans-6d" transform="translate(181.904297 0)"/>
      <use xlink:href="#DejaVuSans-66" transform="translate(279.316406 0)"/>
      <use xlink:href="#DejaVuSans-32" transform="translate(314.521484 0)"/>
     </g>
    </g>
   </g>
   <g id="line2d_42">
    <path d="M 98.453267 440.640316 
L 119.484185 440.443492 
L 145.294857 440.161488 
L 159.634119 439.767378 
L 199.784053 438.432841 
L 209.343561 438.434354 
L 217.947119 438.653478 
L 225.594725 439.061146 
L 233.242332 439.703779 
L 239.933987 440.484936 
L 246.625643 441.493418 
L 253.317299 442.741619 
L 260.008954 444.216588 
L 267.656561 446.147356 
L 275.304167 448.302742 
L 283.907725 450.94821 
L 294.423184 454.421823 
L 308.762446 459.413806 
L 333.617167 468.085711 
L 343.176675 471.178306 
L 351.780232 473.720524 
L 359.427839 475.727332 
L 366.119495 477.246197 
L 372.81115 478.513169 
L 378.546855 479.389302 
L 384.28256 480.068706 
L 390.018265 480.548567 
L 395.75397 480.826074 
L 401.489675 480.898415 
L 407.225379 480.763034 
L 412.961084 480.412243 
L 418.696789 479.82054 
L 423.476543 479.123073 
L 428.256297 478.222393 
L 433.036051 477.102196 
L 437.815805 475.752797 
L 443.55151 473.863794 
L 450.243166 471.385437 
L 459.802674 467.565338 
L 470.318133 463.391413 
L 476.053838 461.324299 
L 480.833592 459.802356 
L 485.613346 458.520773 
L 489.437149 457.705073 
L 493.260953 457.102744 
L 497.084756 456.715128 
L 500.908559 456.528213 
L 504.732362 456.527472 
L 509.512116 456.76622 
L 514.29187 457.244793 
L 519.071625 457.934816 
L 524.807329 459.002009 
L 530.543034 460.2846 
L 537.23469 462.001307 
L 544.882296 464.18953 
L 555.397755 467.454254 
L 578.340575 474.686873 
L 585.988181 476.84272 
L 592.679837 478.506917 
L 598.415542 479.727474 
L 605.107198 480.907743 
L 611.798853 481.847615 
L 618.490509 482.572221 
L 626.138116 483.168901 
L 633.785722 483.5492 
L 642.389279 483.738603 
L 651.948787 483.702244 
L 665.332099 483.38793 
L 689.230869 482.788003 
L 703.570131 482.662696 
L 716.953443 482.765352 
L 729.380803 483.08744 
L 740.852213 483.607857 
L 751.367672 484.296236 
L 761.883131 485.209165 
L 772.39859 486.34873 
L 783.87 487.818687 
L 796.29736 489.6308 
L 811.592573 492.097617 
L 832.623491 495.742495 
L 853.654409 499.353423 
L 865.125819 501.091149 
L 874.685327 502.311862 
L 883.288884 503.177701 
L 890.936491 503.723351 
L 898.584097 504.035774 
L 907.187654 504.158811 
L 919.615015 504.089468 
L 937.77808 503.987682 
L 946.381638 504.160833 
L 953.073293 504.488971 
L 959.764949 505.032903 
L 965.500654 505.698569 
L 971.236359 506.572599 
L 976.972064 507.677561 
L 982.707769 509.022766 
L 988.443473 510.582781 
L 995.135129 512.630359 
L 1002.782736 515.211348 
L 1012.342244 518.693032 
L 1045.800522 531.168245 
L 1052.492178 533.320966 
L 1058.227883 534.966895 
L 1063.963588 536.387001 
L 1068.743342 537.369284 
L 1073.523096 538.144213 
L 1078.30285 538.688819 
L 1083.082604 538.98022 
L 1087.862358 539.005193 
L 1087.862358 539.005193 
" clip-path="url(#pb106ed5b6d)" style="fill: none; stroke: #f27f19; stroke-width: 1.5; stroke-linecap: square"/>
   </g>
   <g id="patch_18">
    <path d="M 48.982813 544.057708 
L 48.982813 433.37449 
" style="fill: none; stroke: #000000; stroke-width: 0.8; stroke-linejoin: miter; stroke-linecap: square"/>
   </g>
   <g id="patch_19">
    <path d="M 1137.332813 544.057708 
L 1137.332813 433.37449 
" style="fill: none; stroke: #000000; stroke-width: 0.8; stroke-linejoin: miter; stroke-linecap: square"/>
   </g>
   <g id="patch_20">
    <path d="M 48.982813 544.057708 
L 1137.332813 544.057708 
" style="fill: none; stroke: #000000; stroke-width: 0.8; stroke-linejoin: miter; stroke-linecap: square"/>
   </g>
   <g id="patch_21">
    <path d="M 48.982813 433.37449 
L 1137.332813 433.37449 
" style="fill: none; stroke: #000000; stroke-width: 0.8; stroke-linejoin: miter; stroke-linecap: square"/>
   </g>
  </g>
 </g>
 <defs>
  <clipPath id="p1bb1130366">
   <rect x="48.982813" y="8.659912" width="1088.35" height="110.683219"/>
  </clipPath>
  <clipPath id="p1dfb10be41">
   <rect x="48.982813" y="150.231438" width="1088.35" height="110.683219"/>
  </clipPath>
  <clipPath id="p05321d11e5">
   <rect x="48.982813" y="291.802964" width="1088.35" height="110.683219"/>
  </clipPath>
  <clipPath id="pb106ed5b6d">
   <rect x="48.982813" y="433.37449" width="1088.35" height="110.683219"/>
  </clipPath>
 </defs>
</svg>
