<?xml version="1.0" encoding="utf-8" standalone="no"?>
<!DOCTYPE svg PUBLIC "-//W3C//DTD SVG 1.1//EN"
  "http://www.w3.org/Graphics/SVG/1.1/DTD/svg11.dtd">
<svg xmlns:xlink="http://www.w3.org/1999/xlink" width="1144.532813pt" height="568.398125pt" viewBox="0 0 1144.532813 568.398125" xmlns="http://www.w3.org/2000/svg" version="1.1">
 <metadata>
  <rdf:RDF xmlns:dc="http://purl.org/dc/elements/1.1/" xmlns:cc="http://creativecommons.org/ns#" xmlns:rdf="http://www.w3.org/1999/02/22-rdf-syntax-ns#">
   <cc:Work>
    <dc:type rdf:resource="http://purl.org/dc/dcmitype/StillImage"/>
    <dc:date>2025-04-22T09:58:42.032531</dc:date>
    <dc:format>image/svg+xml</dc:format>
    <dc:creator>
     <cc:Agent>
      <dc:title>Matplotlib v3.10.1, https://matplotlib.org/</dc:title>
     </cc:Agent>
    </dc:creator>
   </cc:Work>
  </rdf:RDF>
 </metadata>
 <defs>
  <style type="text/css">*{stroke-linejoin: round; stroke-linecap: butt}</style>
 </defs>
 <g id="figure_1">
  <g id="patch_1">
   <path d="M 0 568.398125 
L 1144.532813 568.398125 
L 1144.532813 0 
L 0 0 
z
" style="fill: #ffffff"/>
  </g>
  <g id="axes_1">
   <g id="patch_2">
    <path d="M 48.982813 120.62 
L 1137.332813 120.62 
L 1137.332813 7.2 
L 48.982813 7.2 
z
" style="fill: #ffffff"/>
   </g>
   <g id="matplotlib.axis_1">
    <g id="xtick_1">
     <g id="line2d_1">
      <defs>
       <path id="m4bd7e11df3" d="M 0 0 
L 0 3.5 
" style="stroke: #000000; stroke-width: 0.8"/>
      </defs>
      <g>
       <use xlink:href="#m4bd7e11df3" x="98.453267" y="120.62" style="stroke: #000000; stroke-width: 0.8"/>
      </g>
     </g>
     <g id="text_1">
      <!-- 0 -->
      <g transform="translate(95.272017 135.218437) scale(0.1 -0.1)">
       <defs>
        <path id="DejaVuSans-30" d="M 2034 4250 
Q 1547 4250 1301 3770 
Q 1056 3291 1056 2328 
Q 1056 1369 1301 889 
Q 1547 409 2034 409 
Q 2525 409 2770 889 
Q 3016 1369 3016 2328 
Q 3016 3291 2770 3770 
Q 2525 4250 2034 4250 
z
M 2034 4750 
Q 2819 4750 3233 4129 
Q 3647 3509 3647 2328 
Q 3647 1150 3233 529 
Q 2819 -91 2034 -91 
Q 1250 -91 836 529 
Q 422 1150 422 2328 
Q 422 3509 836 4129 
Q 1250 4750 2034 4750 
z
" transform="scale(0.015625)"/>
       </defs>
       <use xlink:href="#DejaVuSans-30"/>
      </g>
     </g>
    </g>
    <g id="xtick_2">
     <g id="line2d_2">
      <g>
       <use xlink:href="#m4bd7e11df3" x="289.64343" y="120.62" style="stroke: #000000; stroke-width: 0.8"/>
      </g>
     </g>
     <g id="text_2">
      <!-- 200 -->
      <g transform="translate(280.09968 135.218437) scale(0.1 -0.1)">
       <defs>
        <path id="DejaVuSans-32" d="M 1228 531 
L 3431 531 
L 3431 0 
L 469 0 
L 469 531 
Q 828 903 1448 1529 
Q 2069 2156 2228 2338 
Q 2531 2678 2651 2914 
Q 2772 3150 2772 3378 
Q 2772 3750 2511 3984 
Q 2250 4219 1831 4219 
Q 1534 4219 1204 4116 
Q 875 4013 500 3803 
L 500 4441 
Q 881 4594 1212 4672 
Q 1544 4750 1819 4750 
Q 2544 4750 2975 4387 
Q 3406 4025 3406 3419 
Q 3406 3131 3298 2873 
Q 3191 2616 2906 2266 
Q 2828 2175 2409 1742 
Q 1991 1309 1228 531 
z
" transform="scale(0.015625)"/>
       </defs>
       <use xlink:href="#DejaVuSans-32"/>
       <use xlink:href="#DejaVuSans-30" transform="translate(63.623047 0)"/>
       <use xlink:href="#DejaVuSans-30" transform="translate(127.246094 0)"/>
      </g>
     </g>
    </g>
    <g id="xtick_3">
     <g id="line2d_3">
      <g>
       <use xlink:href="#m4bd7e11df3" x="480.833592" y="120.62" style="stroke: #000000; stroke-width: 0.8"/>
      </g>
     </g>
     <g id="text_3">
      <!-- 400 -->
      <g transform="translate(471.289842 135.218437) scale(0.1 -0.1)">
       <defs>
        <path id="DejaVuSans-34" d="M 2419 4116 
L 825 1625 
L 2419 1625 
L 2419 4116 
z
M 2253 4666 
L 3047 4666 
L 3047 1625 
L 3713 1625 
L 3713 1100 
L 3047 1100 
L 3047 0 
L 2419 0 
L 2419 1100 
L 313 1100 
L 313 1709 
L 2253 4666 
z
" transform="scale(0.015625)"/>
       </defs>
       <use xlink:href="#DejaVuSans-34"/>
       <use xlink:href="#DejaVuSans-30" transform="translate(63.623047 0)"/>
       <use xlink:href="#DejaVuSans-30" transform="translate(127.246094 0)"/>
      </g>
     </g>
    </g>
    <g id="xtick_4">
     <g id="line2d_4">
      <g>
       <use xlink:href="#m4bd7e11df3" x="672.023755" y="120.62" style="stroke: #000000; stroke-width: 0.8"/>
      </g>
     </g>
     <g id="text_4">
      <!-- 600 -->
      <g transform="translate(662.480005 135.218437) scale(0.1 -0.1)">
       <defs>
        <path id="DejaVuSans-36" d="M 2113 2584 
Q 1688 2584 1439 2293 
Q 1191 2003 1191 1497 
Q 1191 994 1439 701 
Q 1688 409 2113 409 
Q 2538 409 2786 701 
Q 3034 994 3034 1497 
Q 3034 2003 2786 2293 
Q 2538 2584 2113 2584 
z
M 3366 4563 
L 3366 3988 
Q 3128 4100 2886 4159 
Q 2644 4219 2406 4219 
Q 1781 4219 1451 3797 
Q 1122 3375 1075 2522 
Q 1259 2794 1537 2939 
Q 1816 3084 2150 3084 
Q 2853 3084 3261 2657 
Q 3669 2231 3669 1497 
Q 3669 778 3244 343 
Q 2819 -91 2113 -91 
Q 1303 -91 875 529 
Q 447 1150 447 2328 
Q 447 3434 972 4092 
Q 1497 4750 2381 4750 
Q 2619 4750 2861 4703 
Q 3103 4656 3366 4563 
z
" transform="scale(0.015625)"/>
       </defs>
       <use xlink:href="#DejaVuSans-36"/>
       <use xlink:href="#DejaVuSans-30" transform="translate(63.623047 0)"/>
       <use xlink:href="#DejaVuSans-30" transform="translate(127.246094 0)"/>
      </g>
     </g>
    </g>
    <g id="xtick_5">
     <g id="line2d_5">
      <g>
       <use xlink:href="#m4bd7e11df3" x="863.213917" y="120.62" style="stroke: #000000; stroke-width: 0.8"/>
      </g>
     </g>
     <g id="text_5">
      <!-- 800 -->
      <g transform="translate(853.670167 135.218437) scale(0.1 -0.1)">
       <defs>
        <path id="DejaVuSans-38" d="M 2034 2216 
Q 1584 2216 1326 1975 
Q 1069 1734 1069 1313 
Q 1069 891 1326 650 
Q 1584 409 2034 409 
Q 2484 409 2743 651 
Q 3003 894 3003 1313 
Q 3003 1734 2745 1975 
Q 2488 2216 2034 2216 
z
M 1403 2484 
Q 997 2584 770 2862 
Q 544 3141 544 3541 
Q 544 4100 942 4425 
Q 1341 4750 2034 4750 
Q 2731 4750 3128 4425 
Q 3525 4100 3525 3541 
Q 3525 3141 3298 2862 
Q 3072 2584 2669 2484 
Q 3125 2378 3379 2068 
Q 3634 1759 3634 1313 
Q 3634 634 3220 271 
Q 2806 -91 2034 -91 
Q 1263 -91 848 271 
Q 434 634 434 1313 
Q 434 1759 690 2068 
Q 947 2378 1403 2484 
z
M 1172 3481 
Q 1172 3119 1398 2916 
Q 1625 2713 2034 2713 
Q 2441 2713 2670 2916 
Q 2900 3119 2900 3481 
Q 2900 3844 2670 4047 
Q 2441 4250 2034 4250 
Q 1625 4250 1398 4047 
Q 1172 3844 1172 3481 
z
" transform="scale(0.015625)"/>
       </defs>
       <use xlink:href="#DejaVuSans-38"/>
       <use xlink:href="#DejaVuSans-30" transform="translate(63.623047 0)"/>
       <use xlink:href="#DejaVuSans-30" transform="translate(127.246094 0)"/>
      </g>
     </g>
    </g>
    <g id="xtick_6">
     <g id="line2d_6">
      <g>
       <use xlink:href="#m4bd7e11df3" x="1054.40408" y="120.62" style="stroke: #000000; stroke-width: 0.8"/>
      </g>
     </g>
     <g id="text_6">
      <!-- 1000 -->
      <g transform="translate(1041.67908 135.218437) scale(0.1 -0.1)">
       <defs>
        <path id="DejaVuSans-31" d="M 794 531 
L 1825 531 
L 1825 4091 
L 703 3866 
L 703 4441 
L 1819 4666 
L 2450 4666 
L 2450 531 
L 3481 531 
L 3481 0 
L 794 0 
L 794 531 
z
" transform="scale(0.015625)"/>
       </defs>
       <use xlink:href="#DejaVuSans-31"/>
       <use xlink:href="#DejaVuSans-30" transform="translate(63.623047 0)"/>
       <use xlink:href="#DejaVuSans-30" transform="translate(127.246094 0)"/>
       <use xlink:href="#DejaVuSans-30" transform="translate(190.869141 0)"/>
      </g>
     </g>
    </g>
   </g>
   <g id="matplotlib.axis_2">
    <g id="ytick_1">
     <g id="line2d_7">
      <defs>
       <path id="mdc3e786cf8" d="M 0 0 
L -3.5 0 
" style="stroke: #000000; stroke-width: 0.8"/>
      </defs>
      <g>
       <use xlink:href="#mdc3e786cf8" x="48.982813" y="95.884765" style="stroke: #000000; stroke-width: 0.8"/>
      </g>
     </g>
     <g id="text_7">
      <!-- 100 -->
      <g transform="translate(22.895313 99.683984) scale(0.1 -0.1)">
       <use xlink:href="#DejaVuSans-31"/>
       <use xlink:href="#DejaVuSans-30" transform="translate(63.623047 0)"/>
       <use xlink:href="#DejaVuSans-30" transform="translate(127.246094 0)"/>
      </g>
     </g>
    </g>
    <g id="ytick_2">
     <g id="line2d_8">
      <g>
       <use xlink:href="#mdc3e786cf8" x="48.982813" y="68.07668" style="stroke: #000000; stroke-width: 0.8"/>
      </g>
     </g>
     <g id="text_8">
      <!-- 200 -->
      <g transform="translate(22.895313 71.875899) scale(0.1 -0.1)">
       <use xlink:href="#DejaVuSans-32"/>
       <use xlink:href="#DejaVuSans-30" transform="translate(63.623047 0)"/>
       <use xlink:href="#DejaVuSans-30" transform="translate(127.246094 0)"/>
      </g>
     </g>
    </g>
    <g id="ytick_3">
     <g id="line2d_9">
      <g>
       <use xlink:href="#mdc3e786cf8" x="48.982813" y="40.268595" style="stroke: #000000; stroke-width: 0.8"/>
      </g>
     </g>
     <g id="text_9">
      <!-- 300 -->
      <g transform="translate(22.895313 44.067813) scale(0.1 -0.1)">
       <defs>
        <path id="DejaVuSans-33" d="M 2597 2516 
Q 3050 2419 3304 2112 
Q 3559 1806 3559 1356 
Q 3559 666 3084 287 
Q 2609 -91 1734 -91 
Q 1441 -91 1130 -33 
Q 819 25 488 141 
L 488 750 
Q 750 597 1062 519 
Q 1375 441 1716 441 
Q 2309 441 2620 675 
Q 2931 909 2931 1356 
Q 2931 1769 2642 2001 
Q 2353 2234 1838 2234 
L 1294 2234 
L 1294 2753 
L 1863 2753 
Q 2328 2753 2575 2939 
Q 2822 3125 2822 3475 
Q 2822 3834 2567 4026 
Q 2313 4219 1838 4219 
Q 1578 4219 1281 4162 
Q 984 4106 628 3988 
L 628 4550 
Q 988 4650 1302 4700 
Q 1616 4750 1894 4750 
Q 2613 4750 3031 4423 
Q 3450 4097 3450 3541 
Q 3450 3153 3228 2886 
Q 3006 2619 2597 2516 
z
" transform="scale(0.015625)"/>
       </defs>
       <use xlink:href="#DejaVuSans-33"/>
       <use xlink:href="#DejaVuSans-30" transform="translate(63.623047 0)"/>
       <use xlink:href="#DejaVuSans-30" transform="translate(127.246094 0)"/>
      </g>
     </g>
    </g>
    <g id="ytick_4">
     <g id="line2d_10">
      <g>
       <use xlink:href="#mdc3e786cf8" x="48.982813" y="12.460509" style="stroke: #000000; stroke-width: 0.8"/>
      </g>
     </g>
     <g id="text_10">
      <!-- 400 -->
      <g transform="translate(22.895313 16.259728) scale(0.1 -0.1)">
       <use xlink:href="#DejaVuSans-34"/>
       <use xlink:href="#DejaVuSans-30" transform="translate(63.623047 0)"/>
       <use xlink:href="#DejaVuSans-30" transform="translate(127.246094 0)"/>
      </g>
     </g>
    </g>
    <g id="text_11">
     <!-- Original Data -->
     <g transform="translate(16.815625 97.002969) rotate(-90) scale(0.1 -0.1)">
      <defs>
       <path id="DejaVuSans-4f" d="M 2522 4238 
Q 1834 4238 1429 3725 
Q 1025 3213 1025 2328 
Q 1025 1447 1429 934 
Q 1834 422 2522 422 
Q 3209 422 3611 934 
Q 4013 1447 4013 2328 
Q 4013 3213 3611 3725 
Q 3209 4238 2522 4238 
z
M 2522 4750 
Q 3503 4750 4090 4092 
Q 4678 3434 4678 2328 
Q 4678 1225 4090 567 
Q 3503 -91 2522 -91 
Q 1538 -91 948 565 
Q 359 1222 359 2328 
Q 359 3434 948 4092 
Q 1538 4750 2522 4750 
z
" transform="scale(0.015625)"/>
       <path id="DejaVuSans-72" d="M 2631 2963 
Q 2534 3019 2420 3045 
Q 2306 3072 2169 3072 
Q 1681 3072 1420 2755 
Q 1159 2438 1159 1844 
L 1159 0 
L 581 0 
L 581 3500 
L 1159 3500 
L 1159 2956 
Q 1341 3275 1631 3429 
Q 1922 3584 2338 3584 
Q 2397 3584 2469 3576 
Q 2541 3569 2628 3553 
L 2631 2963 
z
" transform="scale(0.015625)"/>
       <path id="DejaVuSans-69" d="M 603 3500 
L 1178 3500 
L 1178 0 
L 603 0 
L 603 3500 
z
M 603 4863 
L 1178 4863 
L 1178 4134 
L 603 4134 
L 603 4863 
z
" transform="scale(0.015625)"/>
       <path id="DejaVuSans-67" d="M 2906 1791 
Q 2906 2416 2648 2759 
Q 2391 3103 1925 3103 
Q 1463 3103 1205 2759 
Q 947 2416 947 1791 
Q 947 1169 1205 825 
Q 1463 481 1925 481 
Q 2391 481 2648 825 
Q 2906 1169 2906 1791 
z
M 3481 434 
Q 3481 -459 3084 -895 
Q 2688 -1331 1869 -1331 
Q 1566 -1331 1297 -1286 
Q 1028 -1241 775 -1147 
L 775 -588 
Q 1028 -725 1275 -790 
Q 1522 -856 1778 -856 
Q 2344 -856 2625 -561 
Q 2906 -266 2906 331 
L 2906 616 
Q 2728 306 2450 153 
Q 2172 0 1784 0 
Q 1141 0 747 490 
Q 353 981 353 1791 
Q 353 2603 747 3093 
Q 1141 3584 1784 3584 
Q 2172 3584 2450 3431 
Q 2728 3278 2906 2969 
L 2906 3500 
L 3481 3500 
L 3481 434 
z
" transform="scale(0.015625)"/>
       <path id="DejaVuSans-6e" d="M 3513 2113 
L 3513 0 
L 2938 0 
L 2938 2094 
Q 2938 2591 2744 2837 
Q 2550 3084 2163 3084 
Q 1697 3084 1428 2787 
Q 1159 2491 1159 1978 
L 1159 0 
L 581 0 
L 581 3500 
L 1159 3500 
L 1159 2956 
Q 1366 3272 1645 3428 
Q 1925 3584 2291 3584 
Q 2894 3584 3203 3211 
Q 3513 2838 3513 2113 
z
" transform="scale(0.015625)"/>
       <path id="DejaVuSans-61" d="M 2194 1759 
Q 1497 1759 1228 1600 
Q 959 1441 959 1056 
Q 959 750 1161 570 
Q 1363 391 1709 391 
Q 2188 391 2477 730 
Q 2766 1069 2766 1631 
L 2766 1759 
L 2194 1759 
z
M 3341 1997 
L 3341 0 
L 2766 0 
L 2766 531 
Q 2569 213 2275 61 
Q 1981 -91 1556 -91 
Q 1019 -91 701 211 
Q 384 513 384 1019 
Q 384 1609 779 1909 
Q 1175 2209 1959 2209 
L 2766 2209 
L 2766 2266 
Q 2766 2663 2505 2880 
Q 2244 3097 1772 3097 
Q 1472 3097 1187 3025 
Q 903 2953 641 2809 
L 641 3341 
Q 956 3463 1253 3523 
Q 1550 3584 1831 3584 
Q 2591 3584 2966 3190 
Q 3341 2797 3341 1997 
z
" transform="scale(0.015625)"/>
       <path id="DejaVuSans-6c" d="M 603 4863 
L 1178 4863 
L 1178 0 
L 603 0 
L 603 4863 
z
" transform="scale(0.015625)"/>
       <path id="DejaVuSans-20" transform="scale(0.015625)"/>
       <path id="DejaVuSans-44" d="M 1259 4147 
L 1259 519 
L 2022 519 
Q 2988 519 3436 956 
Q 3884 1394 3884 2338 
Q 3884 3275 3436 3711 
Q 2988 4147 2022 4147 
L 1259 4147 
z
M 628 4666 
L 1925 4666 
Q 3281 4666 3915 4102 
Q 4550 3538 4550 2338 
Q 4550 1131 3912 565 
Q 3275 0 1925 0 
L 628 0 
L 628 4666 
z
" transform="scale(0.015625)"/>
       <path id="DejaVuSans-74" d="M 1172 4494 
L 1172 3500 
L 2356 3500 
L 2356 3053 
L 1172 3053 
L 1172 1153 
Q 1172 725 1289 603 
Q 1406 481 1766 481 
L 2356 481 
L 2356 0 
L 1766 0 
Q 1100 0 847 248 
Q 594 497 594 1153 
L 594 3053 
L 172 3053 
L 172 3500 
L 594 3500 
L 594 4494 
L 1172 4494 
z
" transform="scale(0.015625)"/>
      </defs>
      <use xlink:href="#DejaVuSans-4f"/>
      <use xlink:href="#DejaVuSans-72" transform="translate(78.710938 0)"/>
      <use xlink:href="#DejaVuSans-69" transform="translate(119.824219 0)"/>
      <use xlink:href="#DejaVuSans-67" transform="translate(147.607422 0)"/>
      <use xlink:href="#DejaVuSans-69" transform="translate(211.083984 0)"/>
      <use xlink:href="#DejaVuSans-6e" transform="translate(238.867188 0)"/>
      <use xlink:href="#DejaVuSans-61" transform="translate(302.246094 0)"/>
      <use xlink:href="#DejaVuSans-6c" transform="translate(363.525391 0)"/>
      <use xlink:href="#DejaVuSans-20" transform="translate(391.308594 0)"/>
      <use xlink:href="#DejaVuSans-44" transform="translate(423.095703 0)"/>
      <use xlink:href="#DejaVuSans-61" transform="translate(500.097656 0)"/>
      <use xlink:href="#DejaVuSans-74" transform="translate(561.376953 0)"/>
      <use xlink:href="#DejaVuSans-61" transform="translate(600.585938 0)"/>
     </g>
    </g>
   </g>
   <g id="line2d_11">
    <path d="M 98.453267 70.788651 
L 99.409218 71.260098 
L 100.365169 71.351986 
L 102.27707 71.20195 
L 103.233021 71.089497 
L 104.188972 71.328037 
L 105.144923 71.085277 
L 107.056824 69.717697 
L 108.012775 70.914383 
L 108.968726 72.492072 
L 109.924677 71.335514 
L 110.880628 71.016144 
L 111.836578 74.294936 
L 112.792529 75.863967 
L 113.74848 75.710208 
L 114.704431 78.4535 
L 115.660382 77.637665 
L 116.616332 75.127721 
L 117.572283 73.676115 
L 118.528234 73.044056 
L 119.484185 74.106013 
L 120.440136 77.179871 
L 121.396087 77.666193 
L 122.352037 75.513896 
L 123.307988 74.16066 
L 124.263939 74.051918 
L 125.21989 74.943589 
L 126.175841 74.635175 
L 127.131791 74.195723 
L 129.043693 76.135217 
L 129.999644 76.800971 
L 130.955595 76.838381 
L 131.911545 75.866715 
L 132.867496 75.561789 
L 133.823447 75.785321 
L 136.6913 75.857074 
L 137.64725 75.664858 
L 138.603201 75.709962 
L 140.515103 76.30389 
L 141.471054 76.839702 
L 142.427004 76.387057 
L 143.382955 74.84316 
L 144.338906 75.977742 
L 145.294857 74.385628 
L 146.250808 76.171158 
L 147.206758 77.295165 
L 148.162709 78.002539 
L 149.11866 77.473193 
L 150.074611 76.622774 
L 151.030562 74.962855 
L 151.986513 74.444945 
L 152.942463 75.210679 
L 153.898414 76.529485 
L 154.854365 78.239665 
L 155.810316 79.09353 
L 156.766267 78.665039 
L 157.722217 79.196825 
L 158.678168 80.31903 
L 161.546021 82.93379 
L 165.369824 84.033806 
L 166.325775 84.107573 
L 167.281726 83.802542 
L 168.237676 83.10635 
L 169.193627 82.724398 
L 170.149578 82.656544 
L 171.105529 82.802658 
L 172.06148 83.349817 
L 173.01743 78.775721 
L 173.973381 78.307088 
L 174.929332 76.974417 
L 176.841234 78.731311 
L 177.797184 79.355836 
L 178.753135 79.251393 
L 179.709086 78.625901 
L 180.665037 79.144866 
L 181.620988 80.047413 
L 182.576939 80.44583 
L 183.532889 80.271038 
L 184.48884 80.464321 
L 185.444791 80.77147 
L 186.400742 80.530545 
L 188.312643 79.064917 
L 189.268594 79.014082 
L 190.224545 79.170941 
L 192.136447 78.711783 
L 193.092397 78.411116 
L 194.048348 78.745297 
L 195.96025 80.802352 
L 198.828102 83.679004 
L 199.784053 83.619897 
L 200.740004 82.448751 
L 201.695955 82.058649 
L 202.651906 82.331197 
L 204.563807 81.862453 
L 205.519758 80.180188 
L 206.475709 58.807608 
L 207.43166 42.376246 
L 208.38761 22.635689 
L 209.343561 41.496838 
L 210.299512 45.480465 
L 211.255463 52.416171 
L 212.211414 57.123489 
L 213.167365 59.518091 
L 214.123315 26.271111 
L 215.079266 12.355455 
L 216.035217 33.097613 
L 218.903069 45.464672 
L 219.85902 43.694079 
L 221.770922 48.247314 
L 222.726873 48.726669 
L 223.682823 54.397666 
L 224.638774 54.788993 
L 225.594725 55.973182 
L 226.550676 55.844547 
L 227.506627 55.020462 
L 229.418528 52.331954 
L 230.374479 52.307565 
L 231.33043 53.768806 
L 232.286381 54.417198 
L 233.242332 54.406711 
L 234.198282 53.787219 
L 235.154233 52.279221 
L 236.110184 52.326671 
L 237.066135 52.674663 
L 238.022086 53.823649 
L 238.978036 55.763901 
L 240.889938 60.443144 
L 241.845889 58.746481 
L 242.80184 45.651903 
L 243.757791 44.477061 
L 244.713741 52.511225 
L 245.669692 53.446805 
L 246.625643 49.063013 
L 247.581594 43.824934 
L 248.537545 34.504099 
L 249.493495 29.541516 
L 250.449446 13.660153 
L 251.405397 24.146995 
L 252.361348 29.80006 
L 253.317299 36.545473 
L 254.273249 39.079118 
L 255.2292 43.851846 
L 256.185151 49.296241 
L 257.141102 52.129858 
L 258.097053 53.310358 
L 259.053004 54.936904 
L 260.008954 56.833046 
L 260.964905 55.957781 
L 261.920856 45.939947 
L 262.876807 44.034224 
L 263.832758 47.5358 
L 264.788708 49.057849 
L 265.744659 50.920549 
L 266.70061 52.384392 
L 267.656561 52.55563 
L 268.612512 37.485881 
L 269.568462 49.020702 
L 270.524413 47.539925 
L 271.480364 47.879354 
L 272.436315 49.804332 
L 273.392266 52.561116 
L 274.348217 54.022251 
L 275.304167 54.155446 
L 276.260118 52.842003 
L 277.216069 49.577649 
L 278.17202 43.798999 
L 279.127971 38.70309 
L 280.083921 42.012299 
L 281.039872 43.375834 
L 281.995823 41.286333 
L 283.907725 47.25164 
L 284.863675 46.283918 
L 285.819626 47.637615 
L 286.775577 48.756505 
L 287.731528 49.237148 
L 288.687479 49.144518 
L 289.64343 49.426837 
L 290.59938 49.98858 
L 291.555331 49.544231 
L 293.467233 46.720802 
L 294.423184 44.95422 
L 295.379134 46.258274 
L 296.335085 45.764143 
L 297.291036 46.135098 
L 298.246987 45.802558 
L 299.202938 45.939471 
L 301.114839 46.697107 
L 303.026741 47.712907 
L 303.982692 48.080195 
L 304.938643 48.868928 
L 305.894593 50.060546 
L 306.850544 50.639575 
L 307.806495 50.636821 
L 309.718397 50.107772 
L 310.674347 51.135982 
L 311.630298 53.590752 
L 312.586249 55.339123 
L 313.5422 56.609021 
L 314.498151 57.074588 
L 315.454101 56.240947 
L 316.410052 56.005494 
L 317.366003 56.200293 
L 318.321954 56.225071 
L 319.277905 56.088341 
L 320.233856 55.800731 
L 321.189806 55.191951 
L 322.145757 54.811299 
L 325.01361 54.312049 
L 325.96956 54.349303 
L 326.925511 54.538545 
L 327.881462 54.409735 
L 328.837413 53.937745 
L 329.793364 53.325568 
L 330.749314 52.448119 
L 331.705265 52.291553 
L 333.617167 53.572204 
L 334.573118 54.417551 
L 335.529069 54.791045 
L 336.485019 54.527853 
L 337.44097 53.495138 
L 338.396921 51.403166 
L 339.352872 50.293089 
L 340.308823 51.658889 
L 341.264773 52.631775 
L 343.176675 55.199586 
L 345.088577 56.909891 
L 347.956429 58.139556 
L 348.91238 57.388697 
L 349.868331 55.448139 
L 350.824282 56.40443 
L 351.780232 59.517745 
L 352.736183 61.725142 
L 353.692134 63.434672 
L 354.648085 64.249854 
L 355.604036 63.468692 
L 356.559986 63.108042 
L 357.515937 62.882596 
L 358.471888 63.128247 
L 359.427839 63.705713 
L 360.38379 63.633623 
L 361.33974 62.812617 
L 362.295691 62.880574 
L 364.207593 64.30957 
L 366.119495 65.566642 
L 367.075445 65.883506 
L 368.031396 65.7714 
L 368.987347 65.266271 
L 370.899249 63.709847 
L 371.855199 63.496016 
L 373.767101 64.292319 
L 375.679003 64.936326 
L 376.634953 65.239593 
L 377.590904 65.263764 
L 379.502806 64.634617 
L 381.414708 63.700805 
L 386.194462 61.851247 
L 388.106363 60.83464 
L 389.062314 60.863952 
L 390.018265 61.519891 
L 390.974216 61.377807 
L 391.930166 60.504644 
L 392.886117 60.38606 
L 394.798019 61.316402 
L 395.75397 62.142936 
L 396.709921 52.377606 
L 397.665871 40.914187 
L 398.621822 48.68217 
L 399.577773 52.31001 
L 400.533724 58.659457 
L 401.489675 61.64635 
L 402.445625 63.027696 
L 403.401576 60.365591 
L 404.357527 51.242236 
L 405.313478 36.455831 
L 406.269429 46.024912 
L 407.225379 49.067316 
L 408.18133 55.763302 
L 409.137281 57.486571 
L 410.093232 59.617456 
L 411.049183 58.727781 
L 412.005134 58.901591 
L 412.961084 59.726105 
L 414.872986 62.959152 
L 415.828937 64.021686 
L 416.784888 64.044896 
L 417.740838 64.291243 
L 418.696789 64.418921 
L 419.65274 64.11214 
L 420.608691 63.476572 
L 421.564642 63.40119 
L 422.520592 63.933387 
L 423.476543 65.285817 
L 424.432494 67.735307 
L 425.388445 70.895321 
L 426.344396 74.849272 
L 427.300347 77.753179 
L 428.256297 79.36903 
L 429.212248 80.050228 
L 430.168199 79.451987 
L 431.12415 79.044685 
L 433.036051 79.052832 
L 433.992002 79.317661 
L 434.947953 80.306888 
L 435.903904 81.806375 
L 436.859855 82.4948 
L 437.815805 82.251982 
L 438.771756 81.430427 
L 439.727707 80.799292 
L 440.683658 80.998242 
L 441.639609 82.488217 
L 442.59556 82.994453 
L 443.55151 82.760653 
L 444.507461 82.65661 
L 445.463412 82.290745 
L 446.419363 82.229459 
L 448.331264 82.790914 
L 450.243166 83.402394 
L 452.155068 84.287851 
L 453.111018 84.908872 
L 454.066969 85.758376 
L 455.02292 86.869108 
L 455.978871 87.336499 
L 456.934822 87.116787 
L 457.890773 86.733292 
L 458.846723 86.065346 
L 459.802674 85.732305 
L 460.758625 85.873135 
L 461.714576 85.710417 
L 462.670527 85.410882 
L 464.582428 85.285492 
L 465.538379 85.366262 
L 472.230035 86.922925 
L 473.185986 86.959313 
L 474.141936 86.706576 
L 475.097887 86.180098 
L 476.053838 85.272809 
L 477.009789 84.948306 
L 478.92169 85.565722 
L 479.877641 86.13126 
L 480.833592 85.953611 
L 481.789543 84.894321 
L 482.745494 84.451477 
L 483.701444 84.432725 
L 486.569297 83.605377 
L 487.525248 83.010744 
L 488.481199 82.644121 
L 490.3931 82.39152 
L 492.305002 82.499839 
L 494.216903 82.401916 
L 498.996657 82.279035 
L 499.952608 82.500797 
L 500.908559 83.092445 
L 501.86451 83.13502 
L 502.820461 82.488056 
L 503.776412 80.171776 
L 504.732362 81.119516 
L 505.688313 83.104037 
L 506.644264 85.696632 
L 507.600215 87.012244 
L 508.556166 86.877867 
L 510.468067 87.498277 
L 512.379969 87.910823 
L 514.29187 88.235647 
L 515.247821 87.885094 
L 516.203772 86.978527 
L 517.159723 86.468329 
L 518.115674 86.290196 
L 519.071625 86.469272 
L 520.027575 87.236656 
L 520.983526 87.593112 
L 521.939477 87.57173 
L 523.851379 87.882778 
L 526.719231 87.955889 
L 536.278739 90.304583 
L 537.23469 90.259459 
L 538.190641 90.518355 
L 539.146592 91.131756 
L 540.102542 90.926811 
L 541.058493 89.946213 
L 542.014444 89.798596 
L 542.970395 90.452387 
L 543.926346 91.519424 
L 544.882296 92.815826 
L 545.838247 93.428498 
L 547.750149 92.651095 
L 548.7061 92.460633 
L 551.573952 90.491434 
L 552.529903 90.21587 
L 553.485854 90.235704 
L 555.397755 91.105153 
L 557.309657 92.289479 
L 558.265608 92.747199 
L 559.221559 93.058256 
L 563.045362 93.288903 
L 564.957264 93.327032 
L 565.913214 93.430462 
L 566.869165 93.814169 
L 567.825116 94.529 
L 569.737018 95.562011 
L 570.692968 95.95011 
L 573.560821 96.646746 
L 574.516772 97.113422 
L 575.472722 97.860232 
L 576.428673 98.384904 
L 578.340575 99.009967 
L 582.164378 99.384126 
L 585.988181 99.411711 
L 588.856034 99.714734 
L 592.679837 100.062657 
L 594.591739 100.114746 
L 597.459591 100.005688 
L 598.415542 100.303689 
L 602.239345 100.941916 
L 603.195296 100.794704 
L 604.151247 100.296422 
L 605.107198 99.990744 
L 606.063148 99.823141 
L 607.019099 99.791753 
L 608.931001 100.148426 
L 610.842903 100.195112 
L 612.754804 99.899498 
L 613.710755 99.847636 
L 615.622657 99.434047 
L 616.578607 99.571785 
L 617.534558 100.112796 
L 618.490509 100.261419 
L 622.314312 99.56261 
L 624.226214 99.510228 
L 628.050017 100.055529 
L 629.005968 100.10792 
L 629.961919 99.987464 
L 630.91787 99.65467 
L 631.87382 99.624539 
L 633.785722 100.082742 
L 634.741673 100.289461 
L 635.697624 100.178558 
L 636.653574 99.665797 
L 637.609525 99.405159 
L 638.565476 99.326081 
L 639.521427 99.539958 
L 640.477378 100.197743 
L 641.433329 100.633658 
L 642.389279 100.893292 
L 643.34523 100.790865 
L 644.301181 100.153291 
L 645.257132 100.096344 
L 646.213083 100.586098 
L 650.036886 101.771642 
L 650.992837 101.810326 
L 651.948787 101.595638 
L 653.860689 101.538191 
L 656.728542 101.411554 
L 665.332099 101.970633 
L 673.935656 102.390603 
L 676.803509 103.205449 
L 677.759459 103.35831 
L 679.671361 103.421836 
L 681.583263 103.633896 
L 682.539213 103.695144 
L 683.495164 102.90209 
L 684.451115 101.15754 
L 685.407066 99.778232 
L 686.363017 98.610992 
L 687.318968 98.294932 
L 688.274918 99.17366 
L 690.18682 100.1515 
L 691.142771 100.211213 
L 692.098722 99.581996 
L 693.054672 99.548702 
L 694.010623 100.000743 
L 697.834426 100.86251 
L 698.790377 101.554922 
L 699.746328 102.715227 
L 700.702279 103.406241 
L 701.65823 103.666402 
L 702.614181 103.50558 
L 703.570131 102.686432 
L 704.526082 102.442783 
L 705.482033 102.770805 
L 706.437984 102.696027 
L 707.393935 102.451424 
L 709.305836 102.292067 
L 710.261787 102.380691 
L 712.173689 103.039178 
L 715.041541 104.53871 
L 715.997492 104.7039 
L 716.953443 104.503637 
L 719.821295 104.37956 
L 721.733197 104.540956 
L 723.645098 104.836328 
L 724.601049 104.894766 
L 725.557 104.794877 
L 726.512951 104.486881 
L 727.468902 104.049836 
L 728.424852 103.449544 
L 729.380803 103.028211 
L 731.292705 102.516861 
L 733.204607 101.99207 
L 734.160557 101.867577 
L 735.116508 102.059187 
L 736.072459 102.60096 
L 737.02841 102.963503 
L 738.940311 103.372557 
L 740.852213 103.446739 
L 742.764115 103.382091 
L 744.676016 103.530841 
L 747.543869 103.974341 
L 750.411721 104.211241 
L 754.235524 104.409029 
L 757.103377 104.816104 
L 759.015278 105.341815 
L 763.795033 107.021401 
L 764.750983 107.171209 
L 765.706934 107.18033 
L 767.618836 106.929899 
L 769.530737 106.787334 
L 771.442639 106.574808 
L 772.39859 106.590856 
L 773.354541 106.859638 
L 774.310491 107.433102 
L 775.266442 107.851381 
L 777.178344 108.426518 
L 780.046196 108.884808 
L 781.958098 108.950854 
L 789.605704 108.988046 
L 797.253311 109.268198 
L 798.209262 109.156202 
L 799.165213 108.877292 
L 800.121163 108.896745 
L 801.077114 109.217986 
L 802.033065 109.287075 
L 804.900917 109.016699 
L 805.856868 109.103253 
L 806.812819 109.416704 
L 807.76877 109.47776 
L 808.724721 109.319509 
L 811.592573 109.354777 
L 813.504475 109.376279 
L 819.24018 108.968989 
L 824.975885 109.256793 
L 831.66754 108.903029 
L 836.447294 108.537215 
L 838.359196 108.623553 
L 842.182999 109.094103 
L 843.13895 109.047634 
L 844.094901 108.880256 
L 846.006802 108.284814 
L 847.918704 107.973503 
L 848.874655 107.912567 
L 849.830606 108.124005 
L 850.786556 108.601463 
L 851.742507 109.562658 
L 853.654409 112.471054 
L 854.61036 113.762924 
L 855.566311 114.82245 
L 856.522261 115.464545 
L 857.478212 115.368055 
L 859.390114 113.365041 
L 863.213917 108.974234 
L 864.169868 108.355511 
L 865.125819 108.16159 
L 866.081769 108.504519 
L 867.03772 108.61367 
L 867.993671 108.512385 
L 870.861524 108.620619 
L 871.817474 108.960466 
L 872.773425 109.112876 
L 874.685327 109.073068 
L 877.553179 108.706692 
L 881.376982 108.449496 
L 888.068638 108.090226 
L 900.495999 108.319421 
L 905.275753 108.404256 
L 915.791212 108.400266 
L 953.073293 108.400479 
L 1087.862358 108.393709 
L 1087.862358 108.393709 
" clip-path="url(#p9d21230174)" style="fill: none; stroke: #0070c0; stroke-width: 1.5; stroke-linecap: square"/>
   </g>
   <g id="patch_3">
    <path d="M 48.982813 120.62 
L 48.982813 7.2 
" style="fill: none; stroke: #000000; stroke-width: 0.8; stroke-linejoin: miter; stroke-linecap: square"/>
   </g>
   <g id="patch_4">
    <path d="M 1137.332813 120.62 
L 1137.332813 7.2 
" style="fill: none; stroke: #000000; stroke-width: 0.8; stroke-linejoin: miter; stroke-linecap: square"/>
   </g>
   <g id="patch_5">
    <path d="M 48.982813 120.62 
L 1137.332813 120.62 
" style="fill: none; stroke: #000000; stroke-width: 0.8; stroke-linejoin: miter; stroke-linecap: square"/>
   </g>
   <g id="patch_6">
    <path d="M 48.982813 7.2 
L 1137.332813 7.2 
" style="fill: none; stroke: #000000; stroke-width: 0.8; stroke-linejoin: miter; stroke-linecap: square"/>
   </g>
  </g>
  <g id="axes_2">
   <g id="patch_7">
    <path d="M 48.982813 261.92 
L 1137.332813 261.92 
L 1137.332813 148.5 
L 48.982813 148.5 
z
" style="fill: #ffffff"/>
   </g>
   <g id="matplotlib.axis_3">
    <g id="xtick_7">
     <g id="line2d_12">
      <g>
       <use xlink:href="#m4bd7e11df3" x="98.453267" y="261.92" style="stroke: #000000; stroke-width: 0.8"/>
      </g>
     </g>
     <g id="text_12">
      <!-- 0 -->
      <g transform="translate(95.272017 276.518437) scale(0.1 -0.1)">
       <use xlink:href="#DejaVuSans-30"/>
      </g>
     </g>
    </g>
    <g id="xtick_8">
     <g id="line2d_13">
      <g>
       <use xlink:href="#m4bd7e11df3" x="289.64343" y="261.92" style="stroke: #000000; stroke-width: 0.8"/>
      </g>
     </g>
     <g id="text_13">
      <!-- 200 -->
      <g transform="translate(280.09968 276.518437) scale(0.1 -0.1)">
       <use xlink:href="#DejaVuSans-32"/>
       <use xlink:href="#DejaVuSans-30" transform="translate(63.623047 0)"/>
       <use xlink:href="#DejaVuSans-30" transform="translate(127.246094 0)"/>
      </g>
     </g>
    </g>
    <g id="xtick_9">
     <g id="line2d_14">
      <g>
       <use xlink:href="#m4bd7e11df3" x="480.833592" y="261.92" style="stroke: #000000; stroke-width: 0.8"/>
      </g>
     </g>
     <g id="text_14">
      <!-- 400 -->
      <g transform="translate(471.289842 276.518437) scale(0.1 -0.1)">
       <use xlink:href="#DejaVuSans-34"/>
       <use xlink:href="#DejaVuSans-30" transform="translate(63.623047 0)"/>
       <use xlink:href="#DejaVuSans-30" transform="translate(127.246094 0)"/>
      </g>
     </g>
    </g>
    <g id="xtick_10">
     <g id="line2d_15">
      <g>
       <use xlink:href="#m4bd7e11df3" x="672.023755" y="261.92" style="stroke: #000000; stroke-width: 0.8"/>
      </g>
     </g>
     <g id="text_15">
      <!-- 600 -->
      <g transform="translate(662.480005 276.518437) scale(0.1 -0.1)">
       <use xlink:href="#DejaVuSans-36"/>
       <use xlink:href="#DejaVuSans-30" transform="translate(63.623047 0)"/>
       <use xlink:href="#DejaVuSans-30" transform="translate(127.246094 0)"/>
      </g>
     </g>
    </g>
    <g id="xtick_11">
     <g id="line2d_16">
      <g>
       <use xlink:href="#m4bd7e11df3" x="863.213917" y="261.92" style="stroke: #000000; stroke-width: 0.8"/>
      </g>
     </g>
     <g id="text_16">
      <!-- 800 -->
      <g transform="translate(853.670167 276.518437) scale(0.1 -0.1)">
       <use xlink:href="#DejaVuSans-38"/>
       <use xlink:href="#DejaVuSans-30" transform="translate(63.623047 0)"/>
       <use xlink:href="#DejaVuSans-30" transform="translate(127.246094 0)"/>
      </g>
     </g>
    </g>
    <g id="xtick_12">
     <g id="line2d_17">
      <g>
       <use xlink:href="#m4bd7e11df3" x="1054.40408" y="261.92" style="stroke: #000000; stroke-width: 0.8"/>
      </g>
     </g>
     <g id="text_17">
      <!-- 1000 -->
      <g transform="translate(1041.67908 276.518437) scale(0.1 -0.1)">
       <use xlink:href="#DejaVuSans-31"/>
       <use xlink:href="#DejaVuSans-30" transform="translate(63.623047 0)"/>
       <use xlink:href="#DejaVuSans-30" transform="translate(127.246094 0)"/>
       <use xlink:href="#DejaVuSans-30" transform="translate(190.869141 0)"/>
      </g>
     </g>
    </g>
   </g>
   <g id="matplotlib.axis_4">
    <g id="ytick_5">
     <g id="line2d_18">
      <g>
       <use xlink:href="#mdc3e786cf8" x="48.982813" y="245.822766" style="stroke: #000000; stroke-width: 0.8"/>
      </g>
     </g>
     <g id="text_18">
      <!-- −50 -->
      <g transform="translate(20.878125 249.621985) scale(0.1 -0.1)">
       <defs>
        <path id="DejaVuSans-2212" d="M 678 2272 
L 4684 2272 
L 4684 1741 
L 678 1741 
L 678 2272 
z
" transform="scale(0.015625)"/>
        <path id="DejaVuSans-35" d="M 691 4666 
L 3169 4666 
L 3169 4134 
L 1269 4134 
L 1269 2991 
Q 1406 3038 1543 3061 
Q 1681 3084 1819 3084 
Q 2600 3084 3056 2656 
Q 3513 2228 3513 1497 
Q 3513 744 3044 326 
Q 2575 -91 1722 -91 
Q 1428 -91 1123 -41 
Q 819 9 494 109 
L 494 744 
Q 775 591 1075 516 
Q 1375 441 1709 441 
Q 2250 441 2565 725 
Q 2881 1009 2881 1497 
Q 2881 1984 2565 2268 
Q 2250 2553 1709 2553 
Q 1456 2553 1204 2497 
Q 953 2441 691 2322 
L 691 4666 
z
" transform="scale(0.015625)"/>
       </defs>
       <use xlink:href="#DejaVuSans-2212"/>
       <use xlink:href="#DejaVuSans-35" transform="translate(83.789062 0)"/>
       <use xlink:href="#DejaVuSans-30" transform="translate(147.412109 0)"/>
      </g>
     </g>
    </g>
    <g id="ytick_6">
     <g id="line2d_19">
      <g>
       <use xlink:href="#mdc3e786cf8" x="48.982813" y="216.621619" style="stroke: #000000; stroke-width: 0.8"/>
      </g>
     </g>
     <g id="text_19">
      <!-- 0 -->
      <g transform="translate(35.620313 220.420838) scale(0.1 -0.1)">
       <use xlink:href="#DejaVuSans-30"/>
      </g>
     </g>
    </g>
    <g id="ytick_7">
     <g id="line2d_20">
      <g>
       <use xlink:href="#mdc3e786cf8" x="48.982813" y="187.420473" style="stroke: #000000; stroke-width: 0.8"/>
      </g>
     </g>
     <g id="text_20">
      <!-- 50 -->
      <g transform="translate(29.257813 191.219691) scale(0.1 -0.1)">
       <use xlink:href="#DejaVuSans-35"/>
       <use xlink:href="#DejaVuSans-30" transform="translate(63.623047 0)"/>
      </g>
     </g>
    </g>
    <g id="ytick_8">
     <g id="line2d_21">
      <g>
       <use xlink:href="#mdc3e786cf8" x="48.982813" y="158.219326" style="stroke: #000000; stroke-width: 0.8"/>
      </g>
     </g>
     <g id="text_21">
      <!-- 100 -->
      <g transform="translate(22.895313 162.018545) scale(0.1 -0.1)">
       <use xlink:href="#DejaVuSans-31"/>
       <use xlink:href="#DejaVuSans-30" transform="translate(63.623047 0)"/>
       <use xlink:href="#DejaVuSans-30" transform="translate(127.246094 0)"/>
      </g>
     </g>
    </g>
    <g id="text_22">
     <!-- co-imf0 -->
     <g transform="translate(14.798438 224.117031) rotate(-90) scale(0.1 -0.1)">
      <defs>
       <path id="DejaVuSans-63" d="M 3122 3366 
L 3122 2828 
Q 2878 2963 2633 3030 
Q 2388 3097 2138 3097 
Q 1578 3097 1268 2742 
Q 959 2388 959 1747 
Q 959 1106 1268 751 
Q 1578 397 2138 397 
Q 2388 397 2633 464 
Q 2878 531 3122 666 
L 3122 134 
Q 2881 22 2623 -34 
Q 2366 -91 2075 -91 
Q 1284 -91 818 406 
Q 353 903 353 1747 
Q 353 2603 823 3093 
Q 1294 3584 2113 3584 
Q 2378 3584 2631 3529 
Q 2884 3475 3122 3366 
z
" transform="scale(0.015625)"/>
       <path id="DejaVuSans-6f" d="M 1959 3097 
Q 1497 3097 1228 2736 
Q 959 2375 959 1747 
Q 959 1119 1226 758 
Q 1494 397 1959 397 
Q 2419 397 2687 759 
Q 2956 1122 2956 1747 
Q 2956 2369 2687 2733 
Q 2419 3097 1959 3097 
z
M 1959 3584 
Q 2709 3584 3137 3096 
Q 3566 2609 3566 1747 
Q 3566 888 3137 398 
Q 2709 -91 1959 -91 
Q 1206 -91 779 398 
Q 353 888 353 1747 
Q 353 2609 779 3096 
Q 1206 3584 1959 3584 
z
" transform="scale(0.015625)"/>
       <path id="DejaVuSans-2d" d="M 313 2009 
L 1997 2009 
L 1997 1497 
L 313 1497 
L 313 2009 
z
" transform="scale(0.015625)"/>
       <path id="DejaVuSans-6d" d="M 3328 2828 
Q 3544 3216 3844 3400 
Q 4144 3584 4550 3584 
Q 5097 3584 5394 3201 
Q 5691 2819 5691 2113 
L 5691 0 
L 5113 0 
L 5113 2094 
Q 5113 2597 4934 2840 
Q 4756 3084 4391 3084 
Q 3944 3084 3684 2787 
Q 3425 2491 3425 1978 
L 3425 0 
L 2847 0 
L 2847 2094 
Q 2847 2600 2669 2842 
Q 2491 3084 2119 3084 
Q 1678 3084 1418 2786 
Q 1159 2488 1159 1978 
L 1159 0 
L 581 0 
L 581 3500 
L 1159 3500 
L 1159 2956 
Q 1356 3278 1631 3431 
Q 1906 3584 2284 3584 
Q 2666 3584 2933 3390 
Q 3200 3197 3328 2828 
z
" transform="scale(0.015625)"/>
       <path id="DejaVuSans-66" d="M 2375 4863 
L 2375 4384 
L 1825 4384 
Q 1516 4384 1395 4259 
Q 1275 4134 1275 3809 
L 1275 3500 
L 2222 3500 
L 2222 3053 
L 1275 3053 
L 1275 0 
L 697 0 
L 697 3053 
L 147 3053 
L 147 3500 
L 697 3500 
L 697 3744 
Q 697 4328 969 4595 
Q 1241 4863 1831 4863 
L 2375 4863 
z
" transform="scale(0.015625)"/>
      </defs>
      <use xlink:href="#DejaVuSans-63"/>
      <use xlink:href="#DejaVuSans-6f" transform="translate(54.980469 0)"/>
      <use xlink:href="#DejaVuSans-2d" transform="translate(118.037109 0)"/>
      <use xlink:href="#DejaVuSans-69" transform="translate(154.121094 0)"/>
      <use xlink:href="#DejaVuSans-6d" transform="translate(181.904297 0)"/>
      <use xlink:href="#DejaVuSans-66" transform="translate(279.316406 0)"/>
      <use xlink:href="#DejaVuSans-30" transform="translate(314.521484 0)"/>
     </g>
    </g>
   </g>
   <g id="line2d_22">
    <path d="M 98.453267 216.861092 
L 99.409218 218.35903 
L 100.365169 218.930965 
L 101.321119 219.069814 
L 102.27707 218.9527 
L 103.233021 218.640355 
L 104.188972 218.89619 
L 105.144923 217.967362 
L 106.100874 215.97409 
L 107.056824 213.719976 
L 108.012775 215.278185 
L 108.968726 217.477316 
L 109.924677 213.83343 
L 110.880628 211.893865 
L 111.836578 217.517404 
L 112.792529 219.6065 
L 113.74848 218.193064 
L 114.704431 223.033368 
L 115.660382 220.614476 
L 116.616332 214.900377 
L 117.572283 211.674352 
L 118.528234 210.447705 
L 119.484185 213.032051 
L 120.440136 220.005389 
L 121.396087 221.582137 
L 122.352037 217.570806 
L 123.307988 215.134258 
L 124.263939 215.15931 
L 125.21989 217.0955 
L 126.175841 216.286682 
L 127.131791 215.027585 
L 129.043693 218.123075 
L 129.999644 218.998714 
L 130.955595 218.605155 
L 131.911545 216.174615 
L 132.867496 215.230987 
L 133.823447 215.504499 
L 134.779398 215.447193 
L 136.6913 215.768552 
L 137.64725 215.609023 
L 138.603201 216.006048 
L 139.559152 216.862752 
L 140.515103 217.951183 
L 141.471054 219.418505 
L 142.427004 218.774872 
L 143.382955 215.779481 
L 144.338906 218.322743 
L 145.294857 215.028111 
L 146.250808 218.698699 
L 147.206758 220.831637 
L 148.162709 221.94721 
L 149.11866 220.32047 
L 150.074611 217.891811 
L 151.030562 213.637178 
L 151.986513 211.667255 
L 152.942463 212.286497 
L 153.898414 213.967137 
L 154.854365 216.377733 
L 155.810316 216.92096 
L 156.766267 214.725546 
L 157.722217 214.544587 
L 158.678168 215.626001 
L 159.634119 216.320751 
L 160.59007 217.324446 
L 161.546021 217.780668 
L 162.501971 217.541115 
L 163.457922 217.623969 
L 166.325775 218.258611 
L 167.281726 217.99241 
L 168.237676 217.164204 
L 169.193627 217.205499 
L 170.149578 218.074632 
L 171.105529 219.508512 
L 172.06148 221.856373 
L 173.01743 213.470576 
L 173.973381 213.682246 
L 174.929332 212.005209 
L 176.841234 217.524621 
L 177.797184 219.4609 
L 178.753135 219.651636 
L 179.709086 218.508988 
L 180.665037 219.522722 
L 181.620988 221.070512 
L 182.576939 221.279815 
L 183.532889 219.98654 
L 185.444791 218.409923 
L 186.400742 216.349668 
L 188.312643 210.205092 
L 189.268594 208.808819 
L 190.224545 208.157378 
L 191.180496 207.15093 
L 192.136447 206.427671 
L 193.092397 206.057478 
L 194.048348 207.467836 
L 195.96025 214.632583 
L 196.916201 218.827026 
L 198.828102 228.756106 
L 199.784053 232.382851 
L 200.740004 234.197137 
L 201.695955 238.148002 
L 202.651906 243.939427 
L 204.563807 254.337796 
L 205.519758 256.764545 
L 206.475709 217.884263 
L 207.43166 189.323917 
L 208.38761 153.655455 
L 209.343561 198.796229 
L 210.299512 212.328012 
L 211.255463 231.59451 
L 212.211414 245.6136 
L 213.167365 254.107629 
L 214.123315 186.977732 
L 215.079266 159.61249 
L 216.035217 204.189768 
L 217.947119 221.543066 
L 218.903069 228.789944 
L 219.85902 223.368108 
L 221.770922 228.074349 
L 222.726873 226.065131 
L 223.682823 234.659828 
L 224.638774 231.939985 
L 225.594725 230.729589 
L 226.550676 226.711647 
L 227.506627 221.2995 
L 229.418528 209.032923 
L 230.374479 206.301093 
L 231.33043 207.282827 
L 232.286381 207.266751 
L 233.242332 206.641986 
L 234.198282 205.502113 
L 235.154233 203.210253 
L 236.110184 204.815084 
L 237.066135 207.613631 
L 238.022086 212.574306 
L 238.978036 219.603683 
L 240.889938 236.25474 
L 241.845889 236.402407 
L 242.80184 212.699955 
L 243.757791 214.019256 
L 244.713741 234.582324 
L 245.669692 240.060311 
L 246.625643 234.1014 
L 247.581594 226.001115 
L 248.537545 208.893825 
L 249.493495 200.423224 
L 250.449446 168.420272 
L 251.405397 191.129732 
L 252.361348 203.02387 
L 253.317299 216.628047 
L 254.273249 220.877864 
L 255.2292 229.413405 
L 256.185151 239.018109 
L 257.141102 242.886741 
L 258.097053 243.112007 
L 259.053004 244.186758 
L 260.008954 245.82387 
L 260.964905 241.713628 
L 261.920856 218.537261 
L 262.876807 212.548644 
L 263.832758 218.098738 
L 264.788708 219.694902 
L 265.744659 222.237407 
L 266.70061 224.198833 
L 267.656561 223.727818 
L 268.612512 191.553011 
L 269.568462 215.582635 
L 270.524413 212.58053 
L 271.480364 213.656777 
L 272.436315 218.246387 
L 273.392266 224.710758 
L 274.348217 228.512114 
L 275.304167 229.52128 
L 276.260118 227.433546 
L 277.216069 221.154748 
L 279.127971 199.193685 
L 280.083921 206.443107 
L 281.039872 209.511333 
L 281.995823 205.24016 
L 283.907725 217.766178 
L 284.863675 215.639702 
L 285.819626 218.344657 
L 286.775577 220.522801 
L 287.731528 221.339602 
L 288.687479 220.943528 
L 289.64343 221.333201 
L 290.59938 222.318255 
L 291.555331 221.188498 
L 293.467233 214.856016 
L 294.423184 210.924547 
L 295.379134 213.421828 
L 296.335085 212.11705 
L 297.291036 212.597321 
L 298.246987 211.562671 
L 299.202938 211.476356 
L 301.114839 212.206786 
L 302.07079 212.874595 
L 303.026741 213.359386 
L 303.982692 213.606658 
L 304.938643 214.723601 
L 305.894593 216.675518 
L 306.850544 217.335154 
L 307.806495 216.77208 
L 309.718397 214.564256 
L 310.674347 216.194748 
L 311.630298 220.841144 
L 312.586249 224.029961 
L 313.5422 226.245187 
L 314.498151 226.806406 
L 315.454101 224.679664 
L 316.410052 223.853481 
L 317.366003 223.979948 
L 318.321954 223.787395 
L 319.277905 223.296551 
L 320.233856 222.519966 
L 321.189806 221.097748 
L 322.145757 220.177594 
L 324.057659 219.167651 
L 325.01361 218.864442 
L 325.96956 218.871936 
L 326.925511 219.199302 
L 327.881462 218.855045 
L 328.837413 217.781597 
L 329.793364 216.400686 
L 330.749314 214.444962 
L 331.705265 213.981153 
L 333.617167 216.316793 
L 334.573118 217.864896 
L 335.529069 218.383637 
L 336.485019 217.522635 
L 337.44097 214.999387 
L 338.396921 210.201556 
L 339.352872 207.411815 
L 340.308823 209.765135 
L 341.264773 211.235445 
L 343.176675 215.300383 
L 344.132626 216.485299 
L 345.088577 217.323802 
L 347.956429 217.185605 
L 348.91238 214.632996 
L 349.868331 209.55926 
L 350.824282 210.55218 
L 351.780232 216.06502 
L 352.736183 219.673487 
L 353.692134 222.241236 
L 354.648085 222.942073 
L 355.604036 220.308848 
L 356.559986 218.585639 
L 357.515937 217.180318 
L 358.471888 216.814574 
L 359.427839 217.204242 
L 360.38379 216.310541 
L 361.33974 213.936913 
L 362.295691 213.540597 
L 363.251642 214.776564 
L 364.207593 215.830114 
L 366.119495 218.192352 
L 367.075445 218.856585 
L 368.031396 218.691363 
L 368.987347 217.754165 
L 370.899249 214.759577 
L 371.855199 214.409703 
L 372.81115 215.408151 
L 373.767101 216.115703 
L 374.723052 216.644672 
L 375.679003 217.378114 
L 376.634953 217.964315 
L 377.590904 217.989354 
L 379.502806 216.786343 
L 380.458757 215.971769 
L 381.414708 215.39698 
L 383.326609 215.091855 
L 384.28256 215.226608 
L 385.238511 215.478662 
L 387.150412 216.172134 
L 388.106363 216.401434 
L 389.062314 217.936588 
L 390.018265 220.849173 
L 390.974216 222.128649 
L 391.930166 221.896666 
L 392.886117 223.250392 
L 394.798019 228.329278 
L 395.75397 231.540688 
L 396.709921 212.420075 
L 397.665871 189.623732 
L 398.621822 207.087377 
L 399.577773 215.70431 
L 400.533724 229.864271 
L 401.489675 236.767919 
L 402.445625 240.083562 
L 403.401576 234.669696 
L 404.357527 215.428698 
L 405.313478 184.017775 
L 406.269429 203.500259 
L 407.225379 209.028371 
L 408.18133 222.007163 
L 409.137281 224.336053 
L 410.093232 227.334 
L 411.049183 223.819842 
L 412.005134 222.390434 
L 412.961084 222.197663 
L 414.872986 224.785427 
L 415.828937 224.736772 
L 416.784888 222.3894 
L 417.740838 220.412455 
L 418.696789 218.09146 
L 419.65274 214.781724 
L 420.608691 210.714254 
L 421.564642 207.776645 
L 422.520592 206.081088 
L 423.476543 206.109438 
L 424.432494 208.468274 
L 425.388445 212.386501 
L 426.344396 218.068337 
L 427.300347 221.674501 
L 428.256297 222.737712 
L 429.212248 222.037708 
L 430.168199 218.883544 
L 431.12415 216.398592 
L 433.036051 214.010625 
L 433.992002 213.777611 
L 434.947953 215.28176 
L 435.903904 218.027967 
L 436.859855 219.178911 
L 437.815805 218.433554 
L 438.771756 216.482274 
L 439.727707 214.906282 
L 440.683658 215.045035 
L 441.639609 217.849266 
L 442.59556 218.540298 
L 443.55151 217.617259 
L 444.507461 216.917898 
L 445.463412 215.618236 
L 446.419363 214.922119 
L 447.375314 215.022399 
L 449.287215 214.782119 
L 451.199117 215.027984 
L 452.155068 215.463216 
L 453.111018 216.183691 
L 454.066969 217.435912 
L 455.02292 219.302373 
L 455.978871 219.896253 
L 456.934822 219.14013 
L 457.890773 218.121052 
L 458.846723 216.580355 
L 459.802674 215.797625 
L 460.758625 216.058657 
L 461.714576 215.711581 
L 462.670527 215.096693 
L 463.626477 214.877399 
L 464.582428 214.865472 
L 465.538379 215.042934 
L 469.362182 216.836091 
L 470.318133 217.12036 
L 471.274084 217.619871 
L 472.230035 218.310367 
L 473.185986 218.409706 
L 474.141936 217.916426 
L 475.097887 216.880414 
L 476.053838 215.08528 
L 477.009789 214.578376 
L 478.92169 216.452065 
L 479.877641 218.04239 
L 480.833592 218.134932 
L 481.789543 216.438753 
L 482.745494 216.081354 
L 483.701444 216.652589 
L 485.613346 216.950529 
L 486.569297 216.786086 
L 487.525248 216.121405 
L 488.481199 215.89152 
L 489.437149 216.014566 
L 490.3931 216.257829 
L 491.349051 216.805599 
L 492.305002 217.121798 
L 494.216903 217.332444 
L 497.084756 217.659865 
L 498.040707 217.574217 
L 498.996657 217.277457 
L 499.952608 217.563025 
L 500.908559 218.529963 
L 501.86451 218.248738 
L 502.820461 216.417701 
L 503.776412 210.981031 
L 504.732362 212.301871 
L 505.688313 215.728242 
L 506.644264 220.37006 
L 507.600215 222.293656 
L 508.556166 221.151451 
L 510.468067 220.745682 
L 511.424018 220.26247 
L 512.379969 220.043058 
L 514.29187 219.392177 
L 515.247821 218.088073 
L 516.203772 215.688091 
L 517.159723 214.187396 
L 518.115674 213.452736 
L 519.071625 213.526411 
L 520.027575 214.892151 
L 520.983526 215.437406 
L 521.939477 215.226361 
L 523.851379 215.620192 
L 524.807329 215.577695 
L 525.76328 215.36802 
L 526.719231 215.448199 
L 529.587083 216.467401 
L 532.454936 217.326351 
L 535.322788 218.111966 
L 536.278739 217.957857 
L 537.23469 217.360285 
L 538.190641 217.352011 
L 539.146592 218.055671 
L 540.102542 217.04474 
L 541.058493 214.427373 
L 542.014444 213.607876 
L 542.970395 214.541054 
L 543.926346 216.415976 
L 544.882296 218.864197 
L 545.838247 219.972124 
L 547.750149 218.307967 
L 548.7061 218.035936 
L 550.618001 215.437203 
L 551.573952 214.472616 
L 552.529903 214.043041 
L 553.485854 214.168113 
L 554.441805 214.966529 
L 555.397755 215.917322 
L 557.309657 217.989996 
L 558.265608 218.614171 
L 559.221559 218.840824 
L 561.13346 218.066909 
L 562.089411 217.514493 
L 565.913214 214.723457 
L 566.869165 214.723977 
L 567.825116 215.435553 
L 568.781067 215.848997 
L 569.737018 216.063343 
L 570.692968 216.135819 
L 572.60487 215.663688 
L 573.560821 215.518197 
L 574.516772 215.861893 
L 575.472722 216.826909 
L 576.428673 217.361087 
L 578.340575 217.655924 
L 585.988181 216.05133 
L 588.856034 216.249692 
L 591.723886 216.277914 
L 592.679837 216.547565 
L 593.635788 216.605338 
L 595.54769 216.289281 
L 596.50364 215.95418 
L 597.459591 216.055263 
L 598.415542 216.641551 
L 599.371493 216.992427 
L 600.327444 217.221035 
L 602.239345 218.001057 
L 603.195296 217.745084 
L 604.151247 216.771578 
L 605.107198 216.213309 
L 606.063148 215.954916 
L 607.019099 215.984983 
L 607.97505 216.552073 
L 608.931001 216.915128 
L 609.886952 217.131123 
L 610.842903 217.140715 
L 611.798853 216.773684 
L 614.666706 216.100471 
L 615.622657 215.581388 
L 616.578607 215.876495 
L 617.534558 217.030789 
L 618.490509 217.373139 
L 622.314312 216.122739 
L 623.270263 216.01644 
L 624.226214 216.089463 
L 627.094066 216.996032 
L 628.050017 217.217757 
L 629.005968 217.298695 
L 629.961919 217.008717 
L 630.91787 216.266531 
L 631.87382 216.151128 
L 632.829771 216.659358 
L 634.741673 217.339176 
L 635.697624 217.016569 
L 636.653574 215.838636 
L 637.609525 215.17527 
L 638.565476 214.877211 
L 639.521427 215.176189 
L 640.477378 216.387341 
L 641.433329 217.117379 
L 642.389279 217.460812 
L 643.34523 217.035386 
L 644.301181 215.479009 
L 645.257132 215.137772 
L 646.213083 215.943684 
L 650.036886 217.608353 
L 650.992837 217.514963 
L 651.948787 216.90817 
L 652.904738 216.593885 
L 653.860689 216.517615 
L 655.772591 216.014599 
L 656.728542 215.915893 
L 658.640443 216.044146 
L 660.552345 216.27562 
L 662.464246 216.262211 
L 664.376148 216.137759 
L 666.28805 216.204712 
L 669.155902 216.600479 
L 671.067804 216.961429 
L 672.023755 216.998845 
L 672.979705 216.865007 
L 673.935656 217.156507 
L 676.803509 219.269794 
L 677.759459 219.765237 
L 678.71541 219.929314 
L 679.671361 220.306094 
L 681.583263 221.222429 
L 682.539213 221.599232 
L 683.495164 220.17776 
L 684.451115 216.749368 
L 685.407066 214.072499 
L 686.363017 211.81872 
L 687.318968 211.323642 
L 688.274918 213.30222 
L 689.230869 214.54426 
L 690.18682 215.48694 
L 691.142771 215.602639 
L 692.098722 214.218057 
L 693.054672 214.044253 
L 694.010623 214.848262 
L 694.966574 215.08055 
L 695.922525 215.178871 
L 697.834426 215.795889 
L 698.790377 216.989773 
L 699.746328 219.158982 
L 700.702279 220.340881 
L 701.65823 220.621503 
L 702.614181 220.01918 
L 703.570131 218.038755 
L 704.526082 217.262121 
L 705.482033 217.681736 
L 706.437984 217.246441 
L 707.393935 216.442856 
L 709.305836 215.479508 
L 710.261787 215.32395 
L 711.217738 215.564321 
L 712.173689 215.966592 
L 715.041541 217.897412 
L 715.997492 217.819631 
L 716.953443 216.979737 
L 717.909394 216.437587 
L 719.821295 215.801492 
L 720.777246 215.826441 
L 721.733197 216.044534 
L 724.601049 217.475373 
L 725.557 217.681363 
L 726.512951 217.527902 
L 727.468902 217.145253 
L 728.424852 216.440613 
L 729.380803 216.096507 
L 730.336754 216.16167 
L 731.292705 215.950223 
L 733.204607 215.380328 
L 734.160557 215.188871 
L 735.116508 215.552612 
L 736.072459 216.554822 
L 737.02841 217.111353 
L 738.940311 217.423985 
L 740.852213 216.980474 
L 742.764115 216.307493 
L 743.720065 216.20842 
L 744.676016 216.23174 
L 746.587918 216.655285 
L 748.49982 216.893727 
L 750.411721 216.818893 
L 754.235524 216.193864 
L 757.103377 215.984864 
L 758.059328 216.063531 
L 759.971229 216.62107 
L 761.883131 217.457196 
L 763.795033 217.922436 
L 764.750983 217.923319 
L 765.706934 217.655483 
L 766.662885 217.065494 
L 767.618836 216.631233 
L 768.574787 216.342558 
L 771.442639 214.998466 
L 772.39859 214.799729 
L 773.354541 215.125567 
L 774.310491 216.080587 
L 775.266442 216.70735 
L 777.178344 217.406457 
L 780.046196 217.634194 
L 781.958098 217.328209 
L 785.781901 216.575938 
L 788.649754 216.343535 
L 794.385459 216.372655 
L 795.341409 216.629675 
L 797.253311 216.773217 
L 798.209262 216.525249 
L 799.165213 215.922465 
L 800.121163 215.944331 
L 801.077114 216.597003 
L 802.033065 216.719594 
L 803.944967 216.320867 
L 804.900917 216.092901 
L 805.856868 216.261788 
L 806.812819 216.911925 
L 807.76877 217.03844 
L 808.724721 216.711727 
L 809.680672 216.682518 
L 812.548524 216.972335 
L 813.504475 216.984379 
L 819.24018 216.317794 
L 824.019934 216.72829 
L 825.931835 216.637826 
L 833.579442 216.21035 
L 835.491343 216.255842 
L 836.447294 216.407499 
L 838.359196 217.054994 
L 840.271098 217.97514 
L 841.227048 218.338116 
L 842.182999 218.444575 
L 843.13895 218.220431 
L 844.094901 217.645125 
L 846.006802 215.666821 
L 848.874655 213.223524 
L 849.830606 213.003134 
L 850.786556 213.312829 
L 851.742507 214.640922 
L 853.654409 219.459807 
L 854.61036 221.627686 
L 855.566311 223.406929 
L 856.522261 224.43389 
L 857.478212 224.05393 
L 862.257966 213.730095 
L 863.213917 212.305741 
L 864.169868 211.580039 
L 865.125819 211.782016 
L 866.081769 213.129069 
L 867.03772 213.988112 
L 867.993671 214.390359 
L 868.949622 215.007657 
L 869.905573 215.478496 
L 870.861524 216.285689 
L 871.817474 217.462797 
L 872.773425 218.183474 
L 873.729376 218.500717 
L 874.685327 218.678463 
L 882.332933 217.498088 
L 886.156737 216.813393 
L 889.024589 216.660898 
L 900.495999 216.62473 
L 904.319802 216.621204 
L 912.923359 216.616375 
L 933.954277 216.621619 
L 1087.862358 216.621619 
L 1087.862358 216.621619 
" clip-path="url(#p5afca34cd7)" style="fill: none; stroke: #f27f19; stroke-width: 1.5; stroke-linecap: square"/>
   </g>
   <g id="patch_8">
    <path d="M 48.982813 261.92 
L 48.982813 148.5 
" style="fill: none; stroke: #000000; stroke-width: 0.8; stroke-linejoin: miter; stroke-linecap: square"/>
   </g>
   <g id="patch_9">
    <path d="M 1137.332813 261.92 
L 1137.332813 148.5 
" style="fill: none; stroke: #000000; stroke-width: 0.8; stroke-linejoin: miter; stroke-linecap: square"/>
   </g>
   <g id="patch_10">
    <path d="M 48.982813 261.92 
L 1137.332813 261.92 
" style="fill: none; stroke: #000000; stroke-width: 0.8; stroke-linejoin: miter; stroke-linecap: square"/>
   </g>
   <g id="patch_11">
    <path d="M 48.982813 148.5 
L 1137.332813 148.5 
" style="fill: none; stroke: #000000; stroke-width: 0.8; stroke-linejoin: miter; stroke-linecap: square"/>
   </g>
  </g>
  <g id="axes_3">
   <g id="patch_12">
    <path d="M 48.982813 403.22 
L 1137.332813 403.22 
L 1137.332813 289.8 
L 48.982813 289.8 
z
" style="fill: #ffffff"/>
   </g>
   <g id="matplotlib.axis_5">
    <g id="xtick_13">
     <g id="line2d_23">
      <g>
       <use xlink:href="#m4bd7e11df3" x="98.453267" y="403.22" style="stroke: #000000; stroke-width: 0.8"/>
      </g>
     </g>
     <g id="text_23">
      <!-- 0 -->
      <g transform="translate(95.272017 417.818437) scale(0.1 -0.1)">
       <use xlink:href="#DejaVuSans-30"/>
      </g>
     </g>
    </g>
    <g id="xtick_14">
     <g id="line2d_24">
      <g>
       <use xlink:href="#m4bd7e11df3" x="289.64343" y="403.22" style="stroke: #000000; stroke-width: 0.8"/>
      </g>
     </g>
     <g id="text_24">
      <!-- 200 -->
      <g transform="translate(280.09968 417.818437) scale(0.1 -0.1)">
       <use xlink:href="#DejaVuSans-32"/>
       <use xlink:href="#DejaVuSans-30" transform="translate(63.623047 0)"/>
       <use xlink:href="#DejaVuSans-30" transform="translate(127.246094 0)"/>
      </g>
     </g>
    </g>
    <g id="xtick_15">
     <g id="line2d_25">
      <g>
       <use xlink:href="#m4bd7e11df3" x="480.833592" y="403.22" style="stroke: #000000; stroke-width: 0.8"/>
      </g>
     </g>
     <g id="text_25">
      <!-- 400 -->
      <g transform="translate(471.289842 417.818437) scale(0.1 -0.1)">
       <use xlink:href="#DejaVuSans-34"/>
       <use xlink:href="#DejaVuSans-30" transform="translate(63.623047 0)"/>
       <use xlink:href="#DejaVuSans-30" transform="translate(127.246094 0)"/>
      </g>
     </g>
    </g>
    <g id="xtick_16">
     <g id="line2d_26">
      <g>
       <use xlink:href="#m4bd7e11df3" x="672.023755" y="403.22" style="stroke: #000000; stroke-width: 0.8"/>
      </g>
     </g>
     <g id="text_26">
      <!-- 600 -->
      <g transform="translate(662.480005 417.818437) scale(0.1 -0.1)">
       <use xlink:href="#DejaVuSans-36"/>
       <use xlink:href="#DejaVuSans-30" transform="translate(63.623047 0)"/>
       <use xlink:href="#DejaVuSans-30" transform="translate(127.246094 0)"/>
      </g>
     </g>
    </g>
    <g id="xtick_17">
     <g id="line2d_27">
      <g>
       <use xlink:href="#m4bd7e11df3" x="863.213917" y="403.22" style="stroke: #000000; stroke-width: 0.8"/>
      </g>
     </g>
     <g id="text_27">
      <!-- 800 -->
      <g transform="translate(853.670167 417.818437) scale(0.1 -0.1)">
       <use xlink:href="#DejaVuSans-38"/>
       <use xlink:href="#DejaVuSans-30" transform="translate(63.623047 0)"/>
       <use xlink:href="#DejaVuSans-30" transform="translate(127.246094 0)"/>
      </g>
     </g>
    </g>
    <g id="xtick_18">
     <g id="line2d_28">
      <g>
       <use xlink:href="#m4bd7e11df3" x="1054.40408" y="403.22" style="stroke: #000000; stroke-width: 0.8"/>
      </g>
     </g>
     <g id="text_28">
      <!-- 1000 -->
      <g transform="translate(1041.67908 417.818437) scale(0.1 -0.1)">
       <use xlink:href="#DejaVuSans-31"/>
       <use xlink:href="#DejaVuSans-30" transform="translate(63.623047 0)"/>
       <use xlink:href="#DejaVuSans-30" transform="translate(127.246094 0)"/>
       <use xlink:href="#DejaVuSans-30" transform="translate(190.869141 0)"/>
      </g>
     </g>
    </g>
   </g>
   <g id="matplotlib.axis_6">
    <g id="ytick_9">
     <g id="line2d_29">
      <g>
       <use xlink:href="#mdc3e786cf8" x="48.982813" y="375.606809" style="stroke: #000000; stroke-width: 0.8"/>
      </g>
     </g>
     <g id="text_29">
      <!-- −50 -->
      <g transform="translate(20.878125 379.406028) scale(0.1 -0.1)">
       <use xlink:href="#DejaVuSans-2212"/>
       <use xlink:href="#DejaVuSans-35" transform="translate(83.789062 0)"/>
       <use xlink:href="#DejaVuSans-30" transform="translate(147.412109 0)"/>
      </g>
     </g>
    </g>
    <g id="ytick_10">
     <g id="line2d_30">
      <g>
       <use xlink:href="#mdc3e786cf8" x="48.982813" y="342.703355" style="stroke: #000000; stroke-width: 0.8"/>
      </g>
     </g>
     <g id="text_30">
      <!-- 0 -->
      <g transform="translate(35.620313 346.502574) scale(0.1 -0.1)">
       <use xlink:href="#DejaVuSans-30"/>
      </g>
     </g>
    </g>
    <g id="ytick_11">
     <g id="line2d_31">
      <g>
       <use xlink:href="#mdc3e786cf8" x="48.982813" y="309.799901" style="stroke: #000000; stroke-width: 0.8"/>
      </g>
     </g>
     <g id="text_31">
      <!-- 50 -->
      <g transform="translate(29.257813 313.59912) scale(0.1 -0.1)">
       <use xlink:href="#DejaVuSans-35"/>
       <use xlink:href="#DejaVuSans-30" transform="translate(63.623047 0)"/>
      </g>
     </g>
    </g>
    <g id="text_32">
     <!-- co-imf1 -->
     <g transform="translate(14.798438 365.417031) rotate(-90) scale(0.1 -0.1)">
      <use xlink:href="#DejaVuSans-63"/>
      <use xlink:href="#DejaVuSans-6f" transform="translate(54.980469 0)"/>
      <use xlink:href="#DejaVuSans-2d" transform="translate(118.037109 0)"/>
      <use xlink:href="#DejaVuSans-69" transform="translate(154.121094 0)"/>
      <use xlink:href="#DejaVuSans-6d" transform="translate(181.904297 0)"/>
      <use xlink:href="#DejaVuSans-66" transform="translate(279.316406 0)"/>
      <use xlink:href="#DejaVuSans-31" transform="translate(314.521484 0)"/>
     </g>
    </g>
   </g>
   <g id="line2d_32">
    <path d="M 98.453267 353.268874 
L 99.409218 352.783479 
L 100.365169 352.445059 
L 101.321119 352.260231 
L 102.27707 352.247953 
L 103.233021 352.427611 
L 104.188972 352.799379 
L 105.144923 353.368729 
L 106.100874 354.140916 
L 107.056824 355.1178 
L 108.012775 356.296179 
L 109.924677 359.130036 
L 112.792529 363.667367 
L 114.704431 366.159083 
L 115.660382 367.06879 
L 116.616332 367.68393 
L 117.572283 368.001538 
L 118.528234 368.007161 
L 119.484185 367.72888 
L 123.307988 365.986056 
L 124.263939 365.828067 
L 125.21989 365.885412 
L 126.175841 366.197152 
L 127.131791 366.707464 
L 129.043693 368.076139 
L 130.955595 369.468831 
L 132.867496 370.526521 
L 133.823447 370.887457 
L 134.779398 371.122589 
L 135.735349 371.214805 
L 137.64725 371.056636 
L 140.515103 370.370327 
L 142.427004 369.937957 
L 144.338906 369.781746 
L 145.294857 369.879357 
L 146.250808 370.122688 
L 147.206758 370.534087 
L 148.162709 371.106813 
L 149.11866 371.843787 
L 151.030562 373.749764 
L 152.942463 376.177531 
L 154.854365 379.05821 
L 160.59007 388.447165 
L 162.501971 390.852914 
L 163.457922 391.753438 
L 164.413873 392.399549 
L 165.369824 392.766558 
L 166.325775 392.821758 
L 167.281726 392.570306 
L 168.237676 392.026934 
L 169.193627 391.247916 
L 171.105529 389.182148 
L 174.929332 384.536601 
L 175.885283 383.583461 
L 176.841234 382.822662 
L 177.797184 382.292892 
L 178.753135 382.00504 
L 179.709086 381.986686 
L 180.665037 382.246947 
L 181.620988 382.813218 
L 182.576939 383.694684 
L 183.532889 384.912734 
L 184.48884 386.439207 
L 186.400742 390.147713 
L 188.312643 393.95088 
L 189.268594 395.57753 
L 190.224545 396.856173 
L 191.180496 397.692597 
L 192.136447 398.064545 
L 193.092397 397.942635 
L 194.048348 397.316398 
L 195.004299 396.158805 
L 195.96025 394.454176 
L 196.916201 392.181606 
L 197.872152 389.322059 
L 198.828102 385.858341 
L 199.784053 381.801098 
L 200.740004 377.15391 
L 202.651906 366.233531 
L 204.563807 353.740043 
L 209.343561 321.617136 
L 211.255463 310.821528 
L 212.211414 306.323668 
L 213.167365 302.577393 
L 214.123315 299.697469 
L 215.079266 297.757128 
L 216.035217 296.768395 
L 216.991168 296.656472 
L 217.947119 297.353184 
L 218.903069 298.772637 
L 219.85902 300.841792 
L 220.814971 303.480033 
L 221.770922 306.610013 
L 223.682823 314.034929 
L 226.550676 326.840384 
L 228.462578 335.17984 
L 229.418528 338.860223 
L 230.374479 342.014937 
L 231.33043 344.499331 
L 232.286381 346.182811 
L 233.242332 346.991258 
L 234.198282 346.93721 
L 235.154233 346.07684 
L 236.110184 344.504865 
L 237.066135 342.297239 
L 238.022086 339.54704 
L 239.933987 332.75194 
L 241.845889 324.810022 
L 245.669692 308.577215 
L 247.581594 301.851612 
L 248.537545 299.168409 
L 249.493495 297.064934 
L 250.449446 295.636201 
L 251.405397 294.955455 
L 252.361348 295.019969 
L 253.317299 295.740285 
L 254.273249 297.031568 
L 255.2292 298.79005 
L 256.185151 300.930841 
L 258.097053 305.968201 
L 261.920856 316.48809 
L 263.832758 320.878433 
L 264.788708 322.737525 
L 265.744659 324.33366 
L 266.70061 325.63786 
L 267.656561 326.621158 
L 268.612512 327.2577 
L 269.568462 327.519786 
L 270.524413 327.436943 
L 271.480364 327.06316 
L 272.436315 326.479721 
L 275.304167 324.15182 
L 277.216069 322.783492 
L 279.127971 321.819466 
L 281.039872 321.263395 
L 282.951774 321.094413 
L 284.863675 321.223509 
L 287.731528 321.741301 
L 297.291036 323.856896 
L 299.202938 324.533994 
L 302.07079 325.830434 
L 305.894593 327.880237 
L 310.674347 330.464876 
L 313.5422 331.746874 
L 315.454101 332.391826 
L 317.366003 332.821832 
L 319.277905 333.05069 
L 322.145757 333.102679 
L 325.96956 332.845868 
L 330.749314 332.466975 
L 333.617167 332.45825 
L 335.529069 332.624735 
L 337.44097 332.969884 
L 339.352872 333.52813 
L 341.264773 334.328191 
L 343.176675 335.386564 
L 345.088577 336.704197 
L 347.956429 339.073356 
L 351.780232 342.628843 
L 355.604036 346.183702 
L 358.471888 348.527201 
L 360.38379 349.752454 
L 361.33974 350.210921 
L 362.295691 350.542509 
L 363.251642 350.729769 
L 364.207593 350.785158 
L 366.119495 350.528961 
L 368.031396 349.872071 
L 372.81115 347.778352 
L 375.679003 346.963371 
L 378.546855 346.088089 
L 379.502806 345.654951 
L 380.458757 345.094873 
L 381.414708 344.366809 
L 382.370658 343.441979 
L 383.326609 342.317905 
L 385.238511 339.493087 
L 387.150412 336.040265 
L 389.062314 332.132368 
L 392.886117 323.635898 
L 395.75397 317.39852 
L 397.665871 313.681222 
L 399.577773 310.542987 
L 400.533724 309.251426 
L 401.489675 308.177066 
L 402.445625 307.344428 
L 403.401576 306.777691 
L 404.357527 306.499165 
L 405.313478 306.530464 
L 406.269429 306.850577 
L 407.225379 307.447505 
L 408.18133 308.293588 
L 409.137281 309.37049 
L 410.093232 310.656558 
L 412.005134 313.771135 
L 413.917035 317.474581 
L 415.828937 321.702662 
L 417.740838 326.433978 
L 420.608691 334.254884 
L 426.344396 350.4886 
L 428.256297 355.115682 
L 429.212248 357.111038 
L 430.168199 358.842829 
L 431.12415 360.271301 
L 432.080101 361.376343 
L 433.036051 362.162719 
L 433.992002 362.641108 
L 434.947953 362.875316 
L 435.903904 362.916499 
L 437.815805 362.685224 
L 440.683658 362.286204 
L 442.59556 362.233808 
L 444.507461 362.421081 
L 446.419363 362.814507 
L 449.287215 363.650739 
L 453.111018 364.754771 
L 455.02292 365.022479 
L 456.934822 364.932053 
L 458.846723 364.466646 
L 460.758625 363.736122 
L 470.318133 359.361341 
L 474.141936 357.538149 
L 476.053838 356.46622 
L 477.96574 355.118065 
L 479.877641 353.429984 
L 481.789543 351.443756 
L 485.613346 346.968048 
L 488.481199 343.719306 
L 490.3931 341.852633 
L 492.305002 340.282371 
L 494.216903 338.963572 
L 496.128805 337.833013 
L 498.040707 336.941379 
L 499.952608 336.41206 
L 501.86451 336.307267 
L 502.820461 336.424783 
L 504.732362 336.998434 
L 506.644264 337.918969 
L 512.379969 341.103315 
L 514.29187 341.810232 
L 516.203772 342.220612 
L 518.115674 342.329047 
L 520.027575 342.172674 
L 522.895428 341.598463 
L 529.587083 339.946345 
L 532.454936 339.553601 
L 534.366838 339.511216 
L 536.278739 339.718148 
L 538.190641 340.211282 
L 542.014444 341.363216 
L 543.926346 341.603135 
L 545.838247 341.454677 
L 546.794198 341.207037 
L 548.7061 340.37404 
L 553.485854 337.892222 
L 555.397755 337.364552 
L 557.309657 337.226517 
L 559.221559 337.490811 
L 561.13346 338.160654 
L 563.045362 339.167231 
L 566.869165 341.622572 
L 570.692968 343.991819 
L 573.560821 345.538689 
L 576.428673 346.797731 
L 578.340575 347.437273 
L 580.252477 347.89409 
L 582.164378 348.16859 
L 585.032231 348.280134 
L 587.900083 348.137039 
L 592.679837 347.651336 
L 597.459591 347.003052 
L 601.283394 346.247294 
L 605.107198 345.185942 
L 610.842903 343.503092 
L 614.666706 342.748567 
L 619.44646 341.785587 
L 625.182165 340.530794 
L 629.005968 339.988065 
L 633.785722 339.556653 
L 637.609525 339.436703 
L 640.477378 339.5457 
L 644.301181 339.948684 
L 650.992837 340.72413 
L 654.81664 340.877587 
L 666.28805 340.97421 
L 669.155902 340.768889 
L 672.023755 340.370067 
L 674.891607 339.77295 
L 677.759459 338.978268 
L 681.583263 337.634201 
L 686.363017 335.916043 
L 688.274918 335.409287 
L 690.18682 335.097178 
L 692.098722 335.016958 
L 694.010623 335.137559 
L 696.878476 335.593206 
L 702.614181 336.906335 
L 707.393935 338.067786 
L 710.261787 338.941612 
L 714.08559 340.389672 
L 717.909394 341.955575 
L 719.821295 342.425237 
L 720.777246 342.475588 
L 721.733197 342.395621 
L 722.689148 342.1836 
L 724.601049 341.416434 
L 726.512951 340.257349 
L 731.292705 337.041403 
L 732.248656 336.606174 
L 733.204607 336.310891 
L 734.160557 336.167024 
L 736.072459 336.234209 
L 737.984361 336.62747 
L 743.720065 338.096339 
L 746.587918 338.390737 
L 749.45577 338.661266 
L 752.323623 339.209459 
L 755.191475 340.050429 
L 758.059328 341.13852 
L 763.795033 343.379028 
L 766.662885 344.171231 
L 782.914049 347.706403 
L 785.781901 348.093696 
L 788.649754 348.277121 
L 792.473557 348.259132 
L 810.636622 347.512808 
L 820.19613 346.735865 
L 826.887786 346.620411 
L 830.711589 346.194723 
L 833.579442 345.675698 
L 836.447294 344.888198 
L 839.315147 344.028584 
L 841.227048 343.710978 
L 842.182999 343.695437 
L 844.094901 344.021979 
L 846.006802 344.775561 
L 847.918704 345.884963 
L 850.786556 348.018785 
L 853.654409 350.159692 
L 855.566311 351.218716 
L 856.522261 351.552716 
L 857.478212 351.724591 
L 858.434163 351.716217 
L 859.390114 351.551844 
L 860.346065 351.24172 
L 862.257966 350.283282 
L 864.169868 349.001053 
L 869.905573 344.765912 
L 871.817474 343.617662 
L 873.729376 342.753975 
L 875.641278 342.240964 
L 877.553179 342.02421 
L 880.421032 341.976159 
L 888.068638 342.134242 
L 898.584097 342.441192 
L 904.319802 342.708623 
L 910.055507 342.706326 
L 926.306671 342.55867 
L 964.544703 342.618986 
L 1005.650588 342.724232 
L 1028.593408 342.502498 
L 1046.756473 342.120873 
L 1063.007637 341.555996 
L 1083.082604 340.589394 
L 1087.862358 340.317138 
L 1087.862358 340.317138 
" clip-path="url(#p0ef4d739b3)" style="fill: none; stroke: #f27f19; stroke-width: 1.5; stroke-linecap: square"/>
   </g>
   <g id="patch_13">
    <path d="M 48.982813 403.22 
L 48.982813 289.8 
" style="fill: none; stroke: #000000; stroke-width: 0.8; stroke-linejoin: miter; stroke-linecap: square"/>
   </g>
   <g id="patch_14">
    <path d="M 1137.332813 403.22 
L 1137.332813 289.8 
" style="fill: none; stroke: #000000; stroke-width: 0.8; stroke-linejoin: miter; stroke-linecap: square"/>
   </g>
   <g id="patch_15">
    <path d="M 48.982813 403.22 
L 1137.332813 403.22 
" style="fill: none; stroke: #000000; stroke-width: 0.8; stroke-linejoin: miter; stroke-linecap: square"/>
   </g>
   <g id="patch_16">
    <path d="M 48.982813 289.8 
L 1137.332813 289.8 
" style="fill: none; stroke: #000000; stroke-width: 0.8; stroke-linejoin: miter; stroke-linecap: square"/>
   </g>
  </g>
  <g id="axes_4">
   <g id="patch_17">
    <path d="M 48.982813 544.52 
L 1137.332813 544.52 
L 1137.332813 431.1 
L 48.982813 431.1 
z
" style="fill: #ffffff"/>
   </g>
   <g id="matplotlib.axis_7">
    <g id="xtick_19">
     <g id="line2d_33">
      <g>
       <use xlink:href="#m4bd7e11df3" x="98.453267" y="544.52" style="stroke: #000000; stroke-width: 0.8"/>
      </g>
     </g>
     <g id="text_33">
      <!-- 0 -->
      <g transform="translate(95.272017 559.118437) scale(0.1 -0.1)">
       <use xlink:href="#DejaVuSans-30"/>
      </g>
     </g>
    </g>
    <g id="xtick_20">
     <g id="line2d_34">
      <g>
       <use xlink:href="#m4bd7e11df3" x="289.64343" y="544.52" style="stroke: #000000; stroke-width: 0.8"/>
      </g>
     </g>
     <g id="text_34">
      <!-- 200 -->
      <g transform="translate(280.09968 559.118437) scale(0.1 -0.1)">
       <use xlink:href="#DejaVuSans-32"/>
       <use xlink:href="#DejaVuSans-30" transform="translate(63.623047 0)"/>
       <use xlink:href="#DejaVuSans-30" transform="translate(127.246094 0)"/>
      </g>
     </g>
    </g>
    <g id="xtick_21">
     <g id="line2d_35">
      <g>
       <use xlink:href="#m4bd7e11df3" x="480.833592" y="544.52" style="stroke: #000000; stroke-width: 0.8"/>
      </g>
     </g>
     <g id="text_35">
      <!-- 400 -->
      <g transform="translate(471.289842 559.118437) scale(0.1 -0.1)">
       <use xlink:href="#DejaVuSans-34"/>
       <use xlink:href="#DejaVuSans-30" transform="translate(63.623047 0)"/>
       <use xlink:href="#DejaVuSans-30" transform="translate(127.246094 0)"/>
      </g>
     </g>
    </g>
    <g id="xtick_22">
     <g id="line2d_36">
      <g>
       <use xlink:href="#m4bd7e11df3" x="672.023755" y="544.52" style="stroke: #000000; stroke-width: 0.8"/>
      </g>
     </g>
     <g id="text_36">
      <!-- 600 -->
      <g transform="translate(662.480005 559.118437) scale(0.1 -0.1)">
       <use xlink:href="#DejaVuSans-36"/>
       <use xlink:href="#DejaVuSans-30" transform="translate(63.623047 0)"/>
       <use xlink:href="#DejaVuSans-30" transform="translate(127.246094 0)"/>
      </g>
     </g>
    </g>
    <g id="xtick_23">
     <g id="line2d_37">
      <g>
       <use xlink:href="#m4bd7e11df3" x="863.213917" y="544.52" style="stroke: #000000; stroke-width: 0.8"/>
      </g>
     </g>
     <g id="text_37">
      <!-- 800 -->
      <g transform="translate(853.670167 559.118437) scale(0.1 -0.1)">
       <use xlink:href="#DejaVuSans-38"/>
       <use xlink:href="#DejaVuSans-30" transform="translate(63.623047 0)"/>
       <use xlink:href="#DejaVuSans-30" transform="translate(127.246094 0)"/>
      </g>
     </g>
    </g>
    <g id="xtick_24">
     <g id="line2d_38">
      <g>
       <use xlink:href="#m4bd7e11df3" x="1054.40408" y="544.52" style="stroke: #000000; stroke-width: 0.8"/>
      </g>
     </g>
     <g id="text_38">
      <!-- 1000 -->
      <g transform="translate(1041.67908 559.118437) scale(0.1 -0.1)">
       <use xlink:href="#DejaVuSans-31"/>
       <use xlink:href="#DejaVuSans-30" transform="translate(63.623047 0)"/>
       <use xlink:href="#DejaVuSans-30" transform="translate(127.246094 0)"/>
       <use xlink:href="#DejaVuSans-30" transform="translate(190.869141 0)"/>
      </g>
     </g>
    </g>
   </g>
   <g id="matplotlib.axis_8">
    <g id="ytick_12">
     <g id="line2d_39">
      <g>
       <use xlink:href="#mdc3e786cf8" x="48.982813" y="540.108796" style="stroke: #000000; stroke-width: 0.8"/>
      </g>
     </g>
     <g id="text_39">
      <!-- 50 -->
      <g transform="translate(29.257813 543.908015) scale(0.1 -0.1)">
       <use xlink:href="#DejaVuSans-35"/>
       <use xlink:href="#DejaVuSans-30" transform="translate(63.623047 0)"/>
      </g>
     </g>
    </g>
    <g id="ytick_13">
     <g id="line2d_40">
      <g>
       <use xlink:href="#mdc3e786cf8" x="48.982813" y="513.352512" style="stroke: #000000; stroke-width: 0.8"/>
      </g>
     </g>
     <g id="text_40">
      <!-- 100 -->
      <g transform="translate(22.895313 517.15173) scale(0.1 -0.1)">
       <use xlink:href="#DejaVuSans-31"/>
       <use xlink:href="#DejaVuSans-30" transform="translate(63.623047 0)"/>
       <use xlink:href="#DejaVuSans-30" transform="translate(127.246094 0)"/>
      </g>
     </g>
    </g>
    <g id="ytick_14">
     <g id="line2d_41">
      <g>
       <use xlink:href="#mdc3e786cf8" x="48.982813" y="486.596228" style="stroke: #000000; stroke-width: 0.8"/>
      </g>
     </g>
     <g id="text_41">
      <!-- 150 -->
      <g transform="translate(22.895313 490.395446) scale(0.1 -0.1)">
       <use xlink:href="#DejaVuSans-31"/>
       <use xlink:href="#DejaVuSans-35" transform="translate(63.623047 0)"/>
       <use xlink:href="#DejaVuSans-30" transform="translate(127.246094 0)"/>
      </g>
     </g>
    </g>
    <g id="ytick_15">
     <g id="line2d_42">
      <g>
       <use xlink:href="#mdc3e786cf8" x="48.982813" y="459.839943" style="stroke: #000000; stroke-width: 0.8"/>
      </g>
     </g>
     <g id="text_42">
      <!-- 200 -->
      <g transform="translate(22.895313 463.639162) scale(0.1 -0.1)">
       <use xlink:href="#DejaVuSans-32"/>
       <use xlink:href="#DejaVuSans-30" transform="translate(63.623047 0)"/>
       <use xlink:href="#DejaVuSans-30" transform="translate(127.246094 0)"/>
      </g>
     </g>
    </g>
    <g id="ytick_16">
     <g id="line2d_43">
      <g>
       <use xlink:href="#mdc3e786cf8" x="48.982813" y="433.083659" style="stroke: #000000; stroke-width: 0.8"/>
      </g>
     </g>
     <g id="text_43">
      <!-- 250 -->
      <g transform="translate(22.895313 436.882878) scale(0.1 -0.1)">
       <use xlink:href="#DejaVuSans-32"/>
       <use xlink:href="#DejaVuSans-35" transform="translate(63.623047 0)"/>
       <use xlink:href="#DejaVuSans-30" transform="translate(127.246094 0)"/>
      </g>
     </g>
    </g>
    <g id="text_44">
     <!-- co-imf2 -->
     <g transform="translate(16.815625 506.717031) rotate(-90) scale(0.1 -0.1)">
      <use xlink:href="#DejaVuSans-63"/>
      <use xlink:href="#DejaVuSans-6f" transform="translate(54.980469 0)"/>
      <use xlink:href="#DejaVuSans-2d" transform="translate(118.037109 0)"/>
      <use xlink:href="#DejaVuSans-69" transform="translate(154.121094 0)"/>
      <use xlink:href="#DejaVuSans-6d" transform="translate(181.904297 0)"/>
      <use xlink:href="#DejaVuSans-66" transform="translate(279.316406 0)"/>
      <use xlink:href="#DejaVuSans-32" transform="translate(314.521484 0)"/>
     </g>
    </g>
   </g>
   <g id="line2d_44">
    <path d="M 98.453267 456.247688 
L 110.880628 455.220999 
L 124.263939 453.873837 
L 138.603201 452.19535 
L 154.854365 450.057701 
L 174.929332 447.174458 
L 211.255463 441.909834 
L 225.594725 440.069314 
L 238.022086 438.687175 
L 249.493495 437.638926 
L 260.008954 436.909447 
L 269.568462 436.468421 
L 278.17202 436.274628 
L 286.775577 436.292944 
L 295.379134 436.54152 
L 303.982692 437.032614 
L 312.586249 437.767354 
L 321.189806 438.739306 
L 329.793364 439.936982 
L 338.396921 441.348339 
L 347.956429 443.152471 
L 357.515937 445.189005 
L 367.075445 447.441414 
L 377.590904 450.148676 
L 389.062314 453.351306 
L 400.533724 456.786262 
L 412.961084 460.736517 
L 427.300347 465.544236 
L 443.55151 471.249017 
L 463.626477 478.554981 
L 500.908559 492.189557 
L 514.29187 496.820581 
L 526.719231 500.881651 
L 538.190641 504.382898 
L 548.7061 507.361512 
L 559.221559 510.118622 
L 569.737018 512.655832 
L 580.252477 514.974744 
L 590.767935 517.077147 
L 602.239345 519.132257 
L 613.710755 520.956848 
L 626.138116 522.697452 
L 638.565476 524.218408 
L 651.948787 525.641225 
L 667.244 527.037939 
L 684.451115 528.381267 
L 706.437984 529.862275 
L 733.204607 531.440681 
L 766.662885 533.184064 
L 802.033065 534.820615 
L 829.755639 535.899178 
L 853.654409 536.606511 
L 878.50913 537.116735 
L 905.275753 537.439032 
L 933.954277 537.56062 
L 971.236359 537.473284 
L 1009.474391 537.43602 
L 1032.417211 537.643899 
L 1052.492178 538.052944 
L 1071.611194 538.666591 
L 1087.862358 539.364545 
L 1087.862358 539.364545 
" clip-path="url(#p23b744bdf8)" style="fill: none; stroke: #f27f19; stroke-width: 1.5; stroke-linecap: square"/>
   </g>
   <g id="patch_18">
    <path d="M 48.982813 544.52 
L 48.982813 431.1 
" style="fill: none; stroke: #000000; stroke-width: 0.8; stroke-linejoin: miter; stroke-linecap: square"/>
   </g>
   <g id="patch_19">
    <path d="M 1137.332813 544.52 
L 1137.332813 431.1 
" style="fill: none; stroke: #000000; stroke-width: 0.8; stroke-linejoin: miter; stroke-linecap: square"/>
   </g>
   <g id="patch_20">
    <path d="M 48.982813 544.52 
L 1137.332813 544.52 
" style="fill: none; stroke: #000000; stroke-width: 0.8; stroke-linejoin: miter; stroke-linecap: square"/>
   </g>
   <g id="patch_21">
    <path d="M 48.982813 431.1 
L 1137.332813 431.1 
" style="fill: none; stroke: #000000; stroke-width: 0.8; stroke-linejoin: miter; stroke-linecap: square"/>
   </g>
  </g>
 </g>
 <defs>
  <clipPath id="p9d21230174">
   <rect x="48.982813" y="7.2" width="1088.35" height="113.42"/>
  </clipPath>
  <clipPath id="p5afca34cd7">
   <rect x="48.982813" y="148.5" width="1088.35" height="113.42"/>
  </clipPath>
  <clipPath id="p0ef4d739b3">
   <rect x="48.982813" y="289.8" width="1088.35" height="113.42"/>
  </clipPath>
  <clipPath id="p23b744bdf8">
   <rect x="48.982813" y="431.1" width="1088.35" height="113.42"/>
  </clipPath>
 </defs>
</svg>
