<?xml version="1.0" encoding="utf-8" standalone="no"?>
<!DOCTYPE svg PUBLIC "-//W3C//DTD SVG 1.1//EN"
  "http://www.w3.org/Graphics/SVG/1.1/DTD/svg11.dtd">
<svg xmlns:xlink="http://www.w3.org/1999/xlink" width="1144.595312pt" height="568.398125pt" viewBox="0 0 1144.595312 568.398125" xmlns="http://www.w3.org/2000/svg" version="1.1">
 <metadata>
  <rdf:RDF xmlns:dc="http://purl.org/dc/elements/1.1/" xmlns:cc="http://creativecommons.org/ns#" xmlns:rdf="http://www.w3.org/1999/02/22-rdf-syntax-ns#">
   <cc:Work>
    <dc:type rdf:resource="http://purl.org/dc/dcmitype/StillImage"/>
    <dc:date>2025-04-22T10:07:53.982387</dc:date>
    <dc:format>image/svg+xml</dc:format>
    <dc:creator>
     <cc:Agent>
      <dc:title>Matplotlib v3.10.1, https://matplotlib.org/</dc:title>
     </cc:Agent>
    </dc:creator>
   </cc:Work>
  </rdf:RDF>
 </metadata>
 <defs>
  <style type="text/css">*{stroke-linejoin: round; stroke-linecap: butt}</style>
 </defs>
 <g id="figure_1">
  <g id="patch_1">
   <path d="M 0 568.398125 
L 1144.595312 568.398125 
L 1144.595312 0 
L 0 0 
z
" style="fill: #ffffff"/>
  </g>
  <g id="axes_1">
   <g id="patch_2">
    <path d="M 55.345313 120.62 
L 1137.395313 120.62 
L 1137.395313 7.2 
L 55.345313 7.2 
z
" style="fill: #ffffff"/>
   </g>
   <g id="matplotlib.axis_1">
    <g id="xtick_1">
     <g id="line2d_1">
      <defs>
       <path id="m75298c69c8" d="M 0 0 
L 0 3.5 
" style="stroke: #000000; stroke-width: 0.8"/>
      </defs>
      <g>
       <use xlink:href="#m75298c69c8" x="104.529403" y="120.62" style="stroke: #000000; stroke-width: 0.8"/>
      </g>
     </g>
     <g id="text_1">
      <!-- 0 -->
      <g transform="translate(101.348153 135.218437) scale(0.1 -0.1)">
       <defs>
        <path id="DejaVuSans-30" d="M 2034 4250 
Q 1547 4250 1301 3770 
Q 1056 3291 1056 2328 
Q 1056 1369 1301 889 
Q 1547 409 2034 409 
Q 2525 409 2770 889 
Q 3016 1369 3016 2328 
Q 3016 3291 2770 3770 
Q 2525 4250 2034 4250 
z
M 2034 4750 
Q 2819 4750 3233 4129 
Q 3647 3509 3647 2328 
Q 3647 1150 3233 529 
Q 2819 -91 2034 -91 
Q 1250 -91 836 529 
Q 422 1150 422 2328 
Q 422 3509 836 4129 
Q 1250 4750 2034 4750 
z
" transform="scale(0.015625)"/>
       </defs>
       <use xlink:href="#DejaVuSans-30"/>
      </g>
     </g>
    </g>
    <g id="xtick_2">
     <g id="line2d_2">
      <g>
       <use xlink:href="#m75298c69c8" x="294.429368" y="120.62" style="stroke: #000000; stroke-width: 0.8"/>
      </g>
     </g>
     <g id="text_2">
      <!-- 200 -->
      <g transform="translate(284.885618 135.218437) scale(0.1 -0.1)">
       <defs>
        <path id="DejaVuSans-32" d="M 1228 531 
L 3431 531 
L 3431 0 
L 469 0 
L 469 531 
Q 828 903 1448 1529 
Q 2069 2156 2228 2338 
Q 2531 2678 2651 2914 
Q 2772 3150 2772 3378 
Q 2772 3750 2511 3984 
Q 2250 4219 1831 4219 
Q 1534 4219 1204 4116 
Q 875 4013 500 3803 
L 500 4441 
Q 881 4594 1212 4672 
Q 1544 4750 1819 4750 
Q 2544 4750 2975 4387 
Q 3406 4025 3406 3419 
Q 3406 3131 3298 2873 
Q 3191 2616 2906 2266 
Q 2828 2175 2409 1742 
Q 1991 1309 1228 531 
z
" transform="scale(0.015625)"/>
       </defs>
       <use xlink:href="#DejaVuSans-32"/>
       <use xlink:href="#DejaVuSans-30" transform="translate(63.623047 0)"/>
       <use xlink:href="#DejaVuSans-30" transform="translate(127.246094 0)"/>
      </g>
     </g>
    </g>
    <g id="xtick_3">
     <g id="line2d_3">
      <g>
       <use xlink:href="#m75298c69c8" x="484.329333" y="120.62" style="stroke: #000000; stroke-width: 0.8"/>
      </g>
     </g>
     <g id="text_3">
      <!-- 400 -->
      <g transform="translate(474.785583 135.218437) scale(0.1 -0.1)">
       <defs>
        <path id="DejaVuSans-34" d="M 2419 4116 
L 825 1625 
L 2419 1625 
L 2419 4116 
z
M 2253 4666 
L 3047 4666 
L 3047 1625 
L 3713 1625 
L 3713 1100 
L 3047 1100 
L 3047 0 
L 2419 0 
L 2419 1100 
L 313 1100 
L 313 1709 
L 2253 4666 
z
" transform="scale(0.015625)"/>
       </defs>
       <use xlink:href="#DejaVuSans-34"/>
       <use xlink:href="#DejaVuSans-30" transform="translate(63.623047 0)"/>
       <use xlink:href="#DejaVuSans-30" transform="translate(127.246094 0)"/>
      </g>
     </g>
    </g>
    <g id="xtick_4">
     <g id="line2d_4">
      <g>
       <use xlink:href="#m75298c69c8" x="674.229298" y="120.62" style="stroke: #000000; stroke-width: 0.8"/>
      </g>
     </g>
     <g id="text_4">
      <!-- 600 -->
      <g transform="translate(664.685548 135.218437) scale(0.1 -0.1)">
       <defs>
        <path id="DejaVuSans-36" d="M 2113 2584 
Q 1688 2584 1439 2293 
Q 1191 2003 1191 1497 
Q 1191 994 1439 701 
Q 1688 409 2113 409 
Q 2538 409 2786 701 
Q 3034 994 3034 1497 
Q 3034 2003 2786 2293 
Q 2538 2584 2113 2584 
z
M 3366 4563 
L 3366 3988 
Q 3128 4100 2886 4159 
Q 2644 4219 2406 4219 
Q 1781 4219 1451 3797 
Q 1122 3375 1075 2522 
Q 1259 2794 1537 2939 
Q 1816 3084 2150 3084 
Q 2853 3084 3261 2657 
Q 3669 2231 3669 1497 
Q 3669 778 3244 343 
Q 2819 -91 2113 -91 
Q 1303 -91 875 529 
Q 447 1150 447 2328 
Q 447 3434 972 4092 
Q 1497 4750 2381 4750 
Q 2619 4750 2861 4703 
Q 3103 4656 3366 4563 
z
" transform="scale(0.015625)"/>
       </defs>
       <use xlink:href="#DejaVuSans-36"/>
       <use xlink:href="#DejaVuSans-30" transform="translate(63.623047 0)"/>
       <use xlink:href="#DejaVuSans-30" transform="translate(127.246094 0)"/>
      </g>
     </g>
    </g>
    <g id="xtick_5">
     <g id="line2d_5">
      <g>
       <use xlink:href="#m75298c69c8" x="864.129263" y="120.62" style="stroke: #000000; stroke-width: 0.8"/>
      </g>
     </g>
     <g id="text_5">
      <!-- 800 -->
      <g transform="translate(854.585513 135.218437) scale(0.1 -0.1)">
       <defs>
        <path id="DejaVuSans-38" d="M 2034 2216 
Q 1584 2216 1326 1975 
Q 1069 1734 1069 1313 
Q 1069 891 1326 650 
Q 1584 409 2034 409 
Q 2484 409 2743 651 
Q 3003 894 3003 1313 
Q 3003 1734 2745 1975 
Q 2488 2216 2034 2216 
z
M 1403 2484 
Q 997 2584 770 2862 
Q 544 3141 544 3541 
Q 544 4100 942 4425 
Q 1341 4750 2034 4750 
Q 2731 4750 3128 4425 
Q 3525 4100 3525 3541 
Q 3525 3141 3298 2862 
Q 3072 2584 2669 2484 
Q 3125 2378 3379 2068 
Q 3634 1759 3634 1313 
Q 3634 634 3220 271 
Q 2806 -91 2034 -91 
Q 1263 -91 848 271 
Q 434 634 434 1313 
Q 434 1759 690 2068 
Q 947 2378 1403 2484 
z
M 1172 3481 
Q 1172 3119 1398 2916 
Q 1625 2713 2034 2713 
Q 2441 2713 2670 2916 
Q 2900 3119 2900 3481 
Q 2900 3844 2670 4047 
Q 2441 4250 2034 4250 
Q 1625 4250 1398 4047 
Q 1172 3844 1172 3481 
z
" transform="scale(0.015625)"/>
       </defs>
       <use xlink:href="#DejaVuSans-38"/>
       <use xlink:href="#DejaVuSans-30" transform="translate(63.623047 0)"/>
       <use xlink:href="#DejaVuSans-30" transform="translate(127.246094 0)"/>
      </g>
     </g>
    </g>
    <g id="xtick_6">
     <g id="line2d_6">
      <g>
       <use xlink:href="#m75298c69c8" x="1054.029228" y="120.62" style="stroke: #000000; stroke-width: 0.8"/>
      </g>
     </g>
     <g id="text_6">
      <!-- 1000 -->
      <g transform="translate(1041.304228 135.218437) scale(0.1 -0.1)">
       <defs>
        <path id="DejaVuSans-31" d="M 794 531 
L 1825 531 
L 1825 4091 
L 703 3866 
L 703 4441 
L 1819 4666 
L 2450 4666 
L 2450 531 
L 3481 531 
L 3481 0 
L 794 0 
L 794 531 
z
" transform="scale(0.015625)"/>
       </defs>
       <use xlink:href="#DejaVuSans-31"/>
       <use xlink:href="#DejaVuSans-30" transform="translate(63.623047 0)"/>
       <use xlink:href="#DejaVuSans-30" transform="translate(127.246094 0)"/>
       <use xlink:href="#DejaVuSans-30" transform="translate(190.869141 0)"/>
      </g>
     </g>
    </g>
   </g>
   <g id="matplotlib.axis_2">
    <g id="ytick_1">
     <g id="line2d_7">
      <defs>
       <path id="m924e335564" d="M 0 0 
L -3.5 0 
" style="stroke: #000000; stroke-width: 0.8"/>
      </defs>
      <g>
       <use xlink:href="#m924e335564" x="55.345313" y="82.367598" style="stroke: #000000; stroke-width: 0.8"/>
      </g>
     </g>
     <g id="text_7">
      <!-- 1000 -->
      <g transform="translate(22.895313 86.166817) scale(0.1 -0.1)">
       <use xlink:href="#DejaVuSans-31"/>
       <use xlink:href="#DejaVuSans-30" transform="translate(63.623047 0)"/>
       <use xlink:href="#DejaVuSans-30" transform="translate(127.246094 0)"/>
       <use xlink:href="#DejaVuSans-30" transform="translate(190.869141 0)"/>
      </g>
     </g>
    </g>
    <g id="ytick_2">
     <g id="line2d_8">
      <g>
       <use xlink:href="#m924e335564" x="55.345313" y="37.64635" style="stroke: #000000; stroke-width: 0.8"/>
      </g>
     </g>
     <g id="text_8">
      <!-- 1500 -->
      <g transform="translate(22.895313 41.445569) scale(0.1 -0.1)">
       <defs>
        <path id="DejaVuSans-35" d="M 691 4666 
L 3169 4666 
L 3169 4134 
L 1269 4134 
L 1269 2991 
Q 1406 3038 1543 3061 
Q 1681 3084 1819 3084 
Q 2600 3084 3056 2656 
Q 3513 2228 3513 1497 
Q 3513 744 3044 326 
Q 2575 -91 1722 -91 
Q 1428 -91 1123 -41 
Q 819 9 494 109 
L 494 744 
Q 775 591 1075 516 
Q 1375 441 1709 441 
Q 2250 441 2565 725 
Q 2881 1009 2881 1497 
Q 2881 1984 2565 2268 
Q 2250 2553 1709 2553 
Q 1456 2553 1204 2497 
Q 953 2441 691 2322 
L 691 4666 
z
" transform="scale(0.015625)"/>
       </defs>
       <use xlink:href="#DejaVuSans-31"/>
       <use xlink:href="#DejaVuSans-35" transform="translate(63.623047 0)"/>
       <use xlink:href="#DejaVuSans-30" transform="translate(127.246094 0)"/>
       <use xlink:href="#DejaVuSans-30" transform="translate(190.869141 0)"/>
      </g>
     </g>
    </g>
    <g id="text_9">
     <!-- Original Data -->
     <g transform="translate(16.815625 97.002969) rotate(-90) scale(0.1 -0.1)">
      <defs>
       <path id="DejaVuSans-4f" d="M 2522 4238 
Q 1834 4238 1429 3725 
Q 1025 3213 1025 2328 
Q 1025 1447 1429 934 
Q 1834 422 2522 422 
Q 3209 422 3611 934 
Q 4013 1447 4013 2328 
Q 4013 3213 3611 3725 
Q 3209 4238 2522 4238 
z
M 2522 4750 
Q 3503 4750 4090 4092 
Q 4678 3434 4678 2328 
Q 4678 1225 4090 567 
Q 3503 -91 2522 -91 
Q 1538 -91 948 565 
Q 359 1222 359 2328 
Q 359 3434 948 4092 
Q 1538 4750 2522 4750 
z
" transform="scale(0.015625)"/>
       <path id="DejaVuSans-72" d="M 2631 2963 
Q 2534 3019 2420 3045 
Q 2306 3072 2169 3072 
Q 1681 3072 1420 2755 
Q 1159 2438 1159 1844 
L 1159 0 
L 581 0 
L 581 3500 
L 1159 3500 
L 1159 2956 
Q 1341 3275 1631 3429 
Q 1922 3584 2338 3584 
Q 2397 3584 2469 3576 
Q 2541 3569 2628 3553 
L 2631 2963 
z
" transform="scale(0.015625)"/>
       <path id="DejaVuSans-69" d="M 603 3500 
L 1178 3500 
L 1178 0 
L 603 0 
L 603 3500 
z
M 603 4863 
L 1178 4863 
L 1178 4134 
L 603 4134 
L 603 4863 
z
" transform="scale(0.015625)"/>
       <path id="DejaVuSans-67" d="M 2906 1791 
Q 2906 2416 2648 2759 
Q 2391 3103 1925 3103 
Q 1463 3103 1205 2759 
Q 947 2416 947 1791 
Q 947 1169 1205 825 
Q 1463 481 1925 481 
Q 2391 481 2648 825 
Q 2906 1169 2906 1791 
z
M 3481 434 
Q 3481 -459 3084 -895 
Q 2688 -1331 1869 -1331 
Q 1566 -1331 1297 -1286 
Q 1028 -1241 775 -1147 
L 775 -588 
Q 1028 -725 1275 -790 
Q 1522 -856 1778 -856 
Q 2344 -856 2625 -561 
Q 2906 -266 2906 331 
L 2906 616 
Q 2728 306 2450 153 
Q 2172 0 1784 0 
Q 1141 0 747 490 
Q 353 981 353 1791 
Q 353 2603 747 3093 
Q 1141 3584 1784 3584 
Q 2172 3584 2450 3431 
Q 2728 3278 2906 2969 
L 2906 3500 
L 3481 3500 
L 3481 434 
z
" transform="scale(0.015625)"/>
       <path id="DejaVuSans-6e" d="M 3513 2113 
L 3513 0 
L 2938 0 
L 2938 2094 
Q 2938 2591 2744 2837 
Q 2550 3084 2163 3084 
Q 1697 3084 1428 2787 
Q 1159 2491 1159 1978 
L 1159 0 
L 581 0 
L 581 3500 
L 1159 3500 
L 1159 2956 
Q 1366 3272 1645 3428 
Q 1925 3584 2291 3584 
Q 2894 3584 3203 3211 
Q 3513 2838 3513 2113 
z
" transform="scale(0.015625)"/>
       <path id="DejaVuSans-61" d="M 2194 1759 
Q 1497 1759 1228 1600 
Q 959 1441 959 1056 
Q 959 750 1161 570 
Q 1363 391 1709 391 
Q 2188 391 2477 730 
Q 2766 1069 2766 1631 
L 2766 1759 
L 2194 1759 
z
M 3341 1997 
L 3341 0 
L 2766 0 
L 2766 531 
Q 2569 213 2275 61 
Q 1981 -91 1556 -91 
Q 1019 -91 701 211 
Q 384 513 384 1019 
Q 384 1609 779 1909 
Q 1175 2209 1959 2209 
L 2766 2209 
L 2766 2266 
Q 2766 2663 2505 2880 
Q 2244 3097 1772 3097 
Q 1472 3097 1187 3025 
Q 903 2953 641 2809 
L 641 3341 
Q 956 3463 1253 3523 
Q 1550 3584 1831 3584 
Q 2591 3584 2966 3190 
Q 3341 2797 3341 1997 
z
" transform="scale(0.015625)"/>
       <path id="DejaVuSans-6c" d="M 603 4863 
L 1178 4863 
L 1178 0 
L 603 0 
L 603 4863 
z
" transform="scale(0.015625)"/>
       <path id="DejaVuSans-20" transform="scale(0.015625)"/>
       <path id="DejaVuSans-44" d="M 1259 4147 
L 1259 519 
L 2022 519 
Q 2988 519 3436 956 
Q 3884 1394 3884 2338 
Q 3884 3275 3436 3711 
Q 2988 4147 2022 4147 
L 1259 4147 
z
M 628 4666 
L 1925 4666 
Q 3281 4666 3915 4102 
Q 4550 3538 4550 2338 
Q 4550 1131 3912 565 
Q 3275 0 1925 0 
L 628 0 
L 628 4666 
z
" transform="scale(0.015625)"/>
       <path id="DejaVuSans-74" d="M 1172 4494 
L 1172 3500 
L 2356 3500 
L 2356 3053 
L 1172 3053 
L 1172 1153 
Q 1172 725 1289 603 
Q 1406 481 1766 481 
L 2356 481 
L 2356 0 
L 1766 0 
Q 1100 0 847 248 
Q 594 497 594 1153 
L 594 3053 
L 172 3053 
L 172 3500 
L 594 3500 
L 594 4494 
L 1172 4494 
z
" transform="scale(0.015625)"/>
      </defs>
      <use xlink:href="#DejaVuSans-4f"/>
      <use xlink:href="#DejaVuSans-72" transform="translate(78.710938 0)"/>
      <use xlink:href="#DejaVuSans-69" transform="translate(119.824219 0)"/>
      <use xlink:href="#DejaVuSans-67" transform="translate(147.607422 0)"/>
      <use xlink:href="#DejaVuSans-69" transform="translate(211.083984 0)"/>
      <use xlink:href="#DejaVuSans-6e" transform="translate(238.867188 0)"/>
      <use xlink:href="#DejaVuSans-61" transform="translate(302.246094 0)"/>
      <use xlink:href="#DejaVuSans-6c" transform="translate(363.525391 0)"/>
      <use xlink:href="#DejaVuSans-20" transform="translate(391.308594 0)"/>
      <use xlink:href="#DejaVuSans-44" transform="translate(423.095703 0)"/>
      <use xlink:href="#DejaVuSans-61" transform="translate(500.097656 0)"/>
      <use xlink:href="#DejaVuSans-74" transform="translate(561.376953 0)"/>
      <use xlink:href="#DejaVuSans-61" transform="translate(600.585938 0)"/>
     </g>
    </g>
   </g>
   <g id="line2d_9">
    <path d="M 104.529403 73.623247 
L 105.478903 72.028126 
L 107.377903 69.66931 
L 108.327403 68.758339 
L 109.276903 68.260219 
L 110.226402 68.062495 
L 111.175902 68.287541 
L 112.125402 69.348337 
L 113.074902 71.334557 
L 114.024402 73.76122 
L 114.973901 76.751117 
L 115.923401 78.838449 
L 116.872901 79.810344 
L 117.822401 80.961451 
L 118.771901 81.897768 
L 119.721401 82.23529 
L 120.6709 82.063441 
L 121.6204 84.306332 
L 122.5699 89.19002 
L 123.5194 88.658788 
L 126.367899 71.320804 
L 127.317399 68.410787 
L 128.266899 69.295405 
L 129.216399 69.198251 
L 130.165899 68.875087 
L 131.115398 68.755685 
L 132.064898 67.793822 
L 133.014398 68.754307 
L 134.913398 74.280677 
L 135.862898 77.630072 
L 136.812397 79.308141 
L 137.761897 78.872047 
L 138.711397 78.90979 
L 139.660897 78.834024 
L 141.559897 77.885784 
L 143.458896 76.626447 
L 144.408396 77.121986 
L 145.357896 78.944152 
L 146.307396 80.284822 
L 147.256896 81.400283 
L 148.206395 81.78838 
L 149.155895 81.04446 
L 150.105395 80.899795 
L 151.054895 81.172618 
L 152.953894 81.189494 
L 153.903394 81.610048 
L 158.650893 85.585729 
L 159.600393 85.982832 
L 160.549893 86.029623 
L 161.499393 85.94671 
L 167.196392 84.373351 
L 168.145892 84.352089 
L 169.095391 84.603112 
L 171.943891 86.483344 
L 177.64089 90.371252 
L 178.59039 89.898455 
L 179.53989 88.111426 
L 180.489389 86.76863 
L 181.438889 85.642336 
L 182.388389 84.707866 
L 183.337889 84.320378 
L 184.287389 84.542675 
L 185.236888 85.555987 
L 186.186388 86.951487 
L 187.135888 88.818557 
L 188.085388 90.410057 
L 189.984388 92.930834 
L 190.933887 93.465421 
L 192.832887 91.865376 
L 193.782387 92.069917 
L 194.731887 93.954374 
L 195.681387 94.5996 
L 196.630886 94.435599 
L 197.580386 93.918559 
L 198.529886 92.551884 
L 199.479386 91.805282 
L 200.428886 91.694655 
L 201.378386 92.064721 
L 202.327885 93.299857 
L 203.277385 94.247723 
L 204.226885 94.966067 
L 206.125885 96.746464 
L 207.075384 97.238613 
L 208.024884 97.306725 
L 208.974384 97.085145 
L 209.923884 96.453435 
L 210.873384 95.301724 
L 212.772383 91.976603 
L 213.721883 90.482013 
L 214.671383 90.576962 
L 215.620883 92.598695 
L 216.570383 93.81799 
L 218.469382 95.382801 
L 219.418882 95.78467 
L 220.368382 95.923519 
L 221.317882 95.699286 
L 222.267382 95.208144 
L 223.216881 94.424493 
L 224.166381 94.123275 
L 225.115881 94.392282 
L 226.065381 95.570214 
L 227.014881 97.958734 
L 227.964381 99.303025 
L 228.91388 99.642269 
L 229.86338 99.778103 
L 231.76238 98.715242 
L 232.71188 98.3401 
L 233.66138 97.56554 
L 234.610879 96.561719 
L 235.560379 94.730891 
L 236.509879 91.966153 
L 237.459379 88.556856 
L 238.408879 84.311833 
L 239.358378 81.276044 
L 240.307878 79.627265 
L 242.206878 75.171985 
L 243.156378 74.813947 
L 244.105878 76.299899 
L 246.004877 78.335754 
L 246.954377 78.17155 
L 247.903877 76.301605 
L 248.853377 75.329199 
L 249.802877 74.898239 
L 250.752376 74.874093 
L 251.701876 74.573676 
L 252.651376 74.609394 
L 254.550376 76.682416 
L 255.499876 77.903647 
L 257.398875 79.362514 
L 258.348375 80.453167 
L 259.297875 82.053182 
L 260.247375 83.048336 
L 263.095874 84.400285 
L 264.045374 84.09881 
L 264.994874 83.143093 
L 265.944374 82.688586 
L 268.792873 82.704541 
L 269.742373 83.057558 
L 271.641373 84.214825 
L 273.540372 85.081744 
L 275.439372 85.649967 
L 277.338371 86.104661 
L 283.98487 88.34586 
L 284.93437 88.995793 
L 285.88387 89.958674 
L 286.83337 89.860142 
L 287.78287 88.624874 
L 290.631369 86.188708 
L 291.580869 85.421989 
L 292.530369 85.296949 
L 294.429368 86.452036 
L 295.378868 87.024671 
L 297.277868 88.565066 
L 298.227368 89.046503 
L 299.176867 89.148937 
L 300.126367 88.724281 
L 301.075867 87.613088 
L 302.025367 86.790484 
L 302.974867 86.221064 
L 303.924367 85.815156 
L 305.823366 85.702807 
L 306.772866 85.550999 
L 307.722366 84.349428 
L 308.671866 81.896948 
L 309.621366 80.475567 
L 310.570865 79.92604 
L 311.520365 79.245981 
L 313.419365 78.45913 
L 314.368865 77.924453 
L 315.318364 79.303368 
L 316.267864 82.676602 
L 318.166864 88.043939 
L 319.116364 90.13499 
L 321.015363 92.191777 
L 321.964863 92.835816 
L 322.914363 93.243075 
L 323.863863 93.512499 
L 325.762863 93.649831 
L 326.712362 93.263418 
L 327.661862 92.471411 
L 328.611362 92.169946 
L 329.560862 92.366541 
L 330.510362 92.767779 
L 331.459861 93.579698 
L 332.409361 94.218539 
L 333.358861 94.65969 
L 334.308361 94.907048 
L 336.207361 94.596192 
L 337.15686 94.244276 
L 338.10636 94.327424 
L 340.95486 96.105881 
L 341.90436 96.296993 
L 342.853859 95.921949 
L 343.803359 95.971719 
L 344.752859 96.33479 
L 345.702359 96.270682 
L 346.651859 95.911868 
L 347.601358 95.932869 
L 348.550858 96.265659 
L 349.500358 96.370586 
L 351.399358 96.294404 
L 353.298357 95.849441 
L 354.247857 95.465682 
L 355.197357 94.754821 
L 356.146857 93.688005 
L 357.096357 93.254778 
L 358.045857 93.479671 
L 358.995356 92.930508 
L 359.944856 91.750337 
L 361.843856 90.18134 
L 362.793356 88.64576 
L 364.692355 84.273667 
L 365.641855 82.253439 
L 366.591355 81.322864 
L 367.540855 81.779009 
L 369.439854 82.325874 
L 370.389354 83.182637 
L 373.237854 86.836642 
L 377.035853 92.166231 
L 378.934853 94.401924 
L 380.833852 96.276454 
L 381.783352 96.300579 
L 382.732852 95.381392 
L 384.631852 94.21476 
L 385.581351 93.921768 
L 386.530851 94.121032 
L 388.429851 94.117383 
L 389.379351 93.933888 
L 390.328851 93.478479 
L 391.27835 93.21882 
L 393.17735 92.913113 
L 397.924849 91.761543 
L 398.874349 91.714583 
L 399.823849 91.899752 
L 400.773349 92.371137 
L 402.672348 93.948578 
L 403.621848 94.599531 
L 404.571348 94.993515 
L 405.520848 94.993235 
L 406.470348 94.853755 
L 408.369347 94.149812 
L 409.318847 93.919109 
L 410.268347 93.913232 
L 411.217847 94.245783 
L 412.167347 94.757041 
L 416.914846 98.504488 
L 417.864345 99.04277 
L 419.763345 99.704499 
L 421.662345 100.09846 
L 422.611845 100.184646 
L 423.561344 100.079464 
L 425.460344 99.368143 
L 428.308844 97.787552 
L 429.258343 97.519063 
L 430.207843 97.560164 
L 431.157343 97.818645 
L 432.106843 98.38489 
L 433.056343 99.259452 
L 434.955342 101.853739 
L 436.854342 104.847149 
L 437.803842 106.090894 
L 438.753342 106.830594 
L 439.702841 106.909977 
L 440.652341 106.671376 
L 442.551341 105.200358 
L 443.500841 104.414526 
L 444.450341 103.927479 
L 446.34934 103.991001 
L 447.29884 104.335514 
L 448.24834 105.050653 
L 450.14734 107.296164 
L 451.096839 108.526618 
L 452.046339 108.06569 
L 452.995839 105.65304 
L 455.844338 99.659579 
L 457.743338 95.387955 
L 458.692838 93.587364 
L 459.642338 92.499557 
L 460.591838 92.284824 
L 461.541337 91.603257 
L 462.490837 90.541435 
L 463.440337 90.02763 
L 464.389837 89.837984 
L 465.339337 90.080646 
L 466.288837 90.903656 
L 467.238336 91.244548 
L 468.187836 91.098456 
L 469.137336 89.853189 
L 470.086836 87.144985 
L 471.036336 85.416382 
L 471.985835 84.539241 
L 473.884835 82.286404 
L 475.783835 80.482721 
L 476.733335 79.825696 
L 477.682834 79.373777 
L 478.632334 80.981411 
L 479.581834 84.725712 
L 480.531334 87.02252 
L 481.480834 88.066916 
L 484.329333 93.274591 
L 485.278833 95.283267 
L 486.228333 96.512961 
L 487.177833 96.944556 
L 488.127333 97.181354 
L 490.975832 96.720979 
L 491.925332 96.633755 
L 494.773831 96.779518 
L 495.723331 96.534792 
L 496.672831 95.95046 
L 497.622331 96.132871 
L 498.571831 97.084888 
L 499.52133 97.608049 
L 500.47083 97.888853 
L 501.42033 98.581548 
L 502.36983 99.523523 
L 503.31933 99.446806 
L 504.26883 98.32039 
L 506.167829 96.545939 
L 507.117329 96.565594 
L 508.066829 97.808972 
L 511.864828 101.163 
L 512.814328 101.183237 
L 513.763828 100.272198 
L 514.713328 100.086122 
L 515.662827 100.510812 
L 516.612327 100.446267 
L 517.561827 100.173168 
L 518.511327 100.212253 
L 519.460827 100.463142 
L 521.359826 100.654076 
L 523.258826 100.628639 
L 524.208326 100.467176 
L 526.107325 99.844351 
L 527.056825 99.453352 
L 528.955825 98.309513 
L 529.905325 98.151701 
L 530.854825 98.511466 
L 532.753824 98.986586 
L 533.703324 99.452545 
L 534.652824 100.062741 
L 535.602324 100.371561 
L 536.551824 100.354739 
L 537.501323 100.17244 
L 541.299323 98.319512 
L 543.198322 98.190274 
L 546.046822 98.776963 
L 550.794321 100.34722 
L 555.54182 102.689638 
L 556.49132 102.947729 
L 559.339819 103.314432 
L 563.137819 104.13474 
L 564.087318 104.065898 
L 567.885318 102.828691 
L 568.834818 102.730105 
L 569.784317 102.805028 
L 570.733817 103.126269 
L 571.683317 103.180273 
L 572.632817 102.96268 
L 573.582317 102.526259 
L 576.430816 100.240934 
L 577.380316 99.680664 
L 579.279316 99.188694 
L 580.228815 99.085246 
L 581.178315 98.807922 
L 583.077315 97.896859 
L 585.925814 96.712959 
L 586.875314 96.521162 
L 588.774314 96.624573 
L 590.673314 97.041945 
L 592.572313 97.517969 
L 594.471313 97.601253 
L 596.370313 97.22624 
L 598.269312 96.686908 
L 600.168312 96.189574 
L 601.117812 95.808442 
L 602.067311 95.233447 
L 603.016811 94.422988 
L 603.966311 93.334558 
L 604.915811 91.909182 
L 605.865311 90.78154 
L 608.71381 88.220767 
L 609.66331 87.842522 
L 610.61281 87.943054 
L 611.56231 89.851497 
L 612.51181 93.829985 
L 613.461309 96.920217 
L 614.410809 99.340809 
L 615.360309 100.992473 
L 616.309809 101.171231 
L 619.158308 102.751253 
L 620.107808 103.16208 
L 622.006808 103.595669 
L 622.956308 103.306268 
L 624.855307 101.808485 
L 627.703807 99.81706 
L 628.653307 99.347914 
L 629.602806 99.071055 
L 630.552306 99.112895 
L 631.501806 99.538261 
L 632.451306 100.272375 
L 633.400806 101.382704 
L 634.350305 102.237804 
L 635.299805 102.793144 
L 636.249305 102.851457 
L 638.148305 101.497226 
L 639.097805 100.655905 
L 640.047304 100.011424 
L 640.996804 99.734418 
L 643.845304 98.533284 
L 644.794804 98.012315 
L 645.744303 97.945088 
L 646.693803 98.346036 
L 648.592803 98.863193 
L 649.542303 99.005205 
L 650.491802 98.928063 
L 651.441302 99.097061 
L 655.239302 100.513826 
L 659.986801 101.728328 
L 661.8858 102.40123 
L 662.8353 103.004706 
L 665.6838 105.547444 
L 667.582799 107.035491 
L 668.532299 107.250982 
L 671.380799 106.197721 
L 672.330298 105.431067 
L 673.279798 104.361454 
L 674.229298 103.913211 
L 675.178798 104.133032 
L 677.077798 104.345767 
L 678.976797 105.131067 
L 679.926297 105.059808 
L 680.875797 104.401606 
L 681.825297 104.2021 
L 682.774797 104.349561 
L 685.623296 104.067055 
L 688.471795 103.514485 
L 692.269795 102.667052 
L 693.219295 102.623842 
L 695.118294 103.015649 
L 696.067794 103.395498 
L 697.017294 103.648372 
L 697.966794 103.746839 
L 698.916294 103.368927 
L 699.865793 102.416158 
L 700.815293 101.75108 
L 701.764793 101.388128 
L 702.714293 101.500231 
L 705.562792 102.207588 
L 706.512292 101.470729 
L 707.461792 99.601369 
L 708.411292 96.75835 
L 709.360792 92.600983 
L 710.310291 90.326476 
L 711.259791 90.104855 
L 712.209291 90.547023 
L 713.158791 92.27302 
L 714.108291 91.931834 
L 715.057791 89.150022 
L 716.00729 84.367049 
L 716.95679 78.896898 
L 717.90629 75.116247 
L 719.80529 71.864299 
L 720.75479 70.763564 
L 721.704289 66.185486 
L 722.653789 67.178006 
L 723.603289 66.727028 
L 724.552789 68.158595 
L 725.502289 68.602225 
L 726.451788 68.106508 
L 727.401288 66.904784 
L 728.350788 64.395934 
L 729.300288 60.198737 
L 731.199288 48.342775 
L 732.148787 43.178652 
L 733.098287 40.121018 
L 734.997287 39.969803 
L 735.946787 40.642866 
L 736.896287 43.467195 
L 737.845786 48.176534 
L 738.795286 48.814752 
L 739.744786 51.707223 
L 740.694286 52.32361 
L 741.643786 52.120951 
L 742.593285 53.146501 
L 743.542785 55.058765 
L 744.492285 53.771721 
L 745.441785 58.527516 
L 746.391285 62.342891 
L 748.290284 67.517954 
L 749.239784 68.57486 
L 751.138784 68.69661 
L 752.088284 70.821823 
L 753.037784 75.872459 
L 753.987283 79.575101 
L 754.936783 82.607811 
L 755.886283 83.899307 
L 756.835783 82.56315 
L 757.785283 81.523062 
L 758.734782 80.302882 
L 759.684282 78.041279 
L 760.633782 75.15322 
L 761.583282 75.740408 
L 762.532782 76.733227 
L 764.431781 79.482211 
L 765.381281 78.855119 
L 766.330781 75.646943 
L 769.179281 67.968553 
L 770.12878 66.4905 
L 771.07828 66.10274 
L 772.02778 67.222457 
L 772.97728 69.545683 
L 774.87628 77.597138 
L 775.825779 82.235272 
L 776.775279 85.016965 
L 778.674279 85.857758 
L 779.623779 85.683984 
L 780.573278 83.910164 
L 781.522778 80.833901 
L 782.472278 79.373923 
L 783.421778 79.701661 
L 784.371278 69.839162 
L 785.320778 49.484371 
L 786.270277 33.798458 
L 787.219777 20.814962 
L 788.169277 12.557578 
L 789.118777 12.355455 
L 790.068277 16.352839 
L 791.017777 25.612391 
L 791.967276 28.523754 
L 792.916776 36.188281 
L 793.866276 33.226592 
L 794.815776 35.919082 
L 795.765276 41.193603 
L 796.714775 43.768187 
L 797.664275 45.620847 
L 798.613775 48.141483 
L 799.563275 49.637602 
L 800.512775 49.424406 
L 801.462275 47.649692 
L 802.411774 47.022021 
L 803.361274 49.95372 
L 804.310774 57.040796 
L 805.260274 71.40861 
L 806.209774 73.492605 
L 807.159274 75.250281 
L 808.108773 77.516205 
L 809.058273 78.783027 
L 810.007773 76.992378 
L 810.957273 75.683432 
L 811.906773 73.877784 
L 812.856272 72.844449 
L 813.805772 73.000882 
L 814.755272 73.394989 
L 815.704772 74.439418 
L 816.654272 75.780316 
L 817.603772 77.346264 
L 818.553271 78.329377 
L 820.452271 78.681283 
L 822.351271 78.436352 
L 823.300771 78.489679 
L 824.25027 78.803348 
L 826.14927 80.11417 
L 828.04827 81.100868 
L 828.99777 81.432905 
L 829.947269 82.059095 
L 830.896769 82.977234 
L 831.846269 83.68938 
L 833.745269 84.778188 
L 834.694768 85.147649 
L 835.644268 85.145301 
L 837.543268 84.236014 
L 838.492768 83.620476 
L 839.442268 83.433564 
L 840.391767 83.79414 
L 841.341267 83.217899 
L 842.290767 81.773853 
L 843.240267 80.88078 
L 844.189767 80.313429 
L 845.139267 80.864898 
L 846.088766 82.889872 
L 847.038266 84.472194 
L 847.987766 85.829209 
L 848.937266 86.274945 
L 849.886766 85.341136 
L 850.836265 85.067121 
L 852.735265 85.400911 
L 853.684765 86.005659 
L 854.634265 85.961849 
L 855.583765 85.256602 
L 857.482764 84.410066 
L 858.432264 84.130656 
L 859.381764 84.117844 
L 860.331264 84.254116 
L 861.280764 84.625987 
L 862.230263 84.865849 
L 863.179763 84.95921 
L 864.129263 85.542793 
L 865.078763 86.574646 
L 866.028263 88.044271 
L 866.977762 90.104747 
L 867.927262 89.87954 
L 869.826262 84.427881 
L 870.775762 81.032848 
L 871.725262 80.558828 
L 872.674761 83.686864 
L 873.624261 85.220926 
L 874.573761 85.991536 
L 875.523261 85.266061 
L 876.472761 82.015382 
L 877.422261 74.62493 
L 878.37176 62.296535 
L 879.32126 57.93372 
L 880.27076 61.908709 
L 881.22026 61.396152 
L 883.119259 71.907793 
L 884.068759 70.533299 
L 885.018259 72.738407 
L 886.917259 76.728127 
L 888.816258 81.738422 
L 889.765758 84.146284 
L 890.715258 84.852533 
L 891.664758 83.612893 
L 892.614258 82.793936 
L 893.563758 82.611616 
L 894.513257 83.398477 
L 895.462757 85.569642 
L 896.412257 86.724173 
L 898.311257 87.278917 
L 899.260757 87.20744 
L 900.210256 87.261821 
L 901.159756 87.505593 
L 902.109256 86.6131 
L 903.058756 84.608198 
L 904.008256 79.765225 
L 904.957755 71.550925 
L 905.907255 65.437665 
L 906.856755 61.292992 
L 907.806255 60.709129 
L 908.755755 64.912452 
L 909.705255 67.556937 
L 910.654754 69.12972 
L 911.604254 71.044318 
L 914.452754 73.812065 
L 918.250753 76.711097 
L 919.200253 77.209389 
L 920.149753 77.438109 
L 921.099252 77.394784 
L 922.048752 76.969674 
L 922.998252 76.104675 
L 923.947752 74.730935 
L 924.897252 73.891872 
L 925.846752 73.634257 
L 926.796251 74.258865 
L 927.745751 76.084139 
L 928.695251 77.492362 
L 929.644751 78.585227 
L 930.594251 79.304764 
L 931.543751 79.265956 
L 932.49325 78.615463 
L 933.44275 77.369262 
L 934.39225 75.733468 
L 935.34175 73.777284 
L 936.29125 72.532742 
L 938.190249 71.850063 
L 939.139749 71.78321 
L 940.089249 71.947699 
L 941.038749 72.261228 
L 941.988249 71.877462 
L 943.887248 69.228391 
L 944.836748 67.539452 
L 945.786248 67.684946 
L 946.735748 69.97221 
L 947.685248 71.60801 
L 948.634747 72.918765 
L 949.584247 73.850445 
L 950.533747 73.839296 
L 951.483247 73.354329 
L 952.432747 72.670375 
L 953.382247 70.568574 
L 954.331746 67.197705 
L 955.281246 66.167021 
L 956.230746 67.603258 
L 957.180246 69.442385 
L 958.129746 72.327176 
L 959.079245 73.977376 
L 960.028745 73.950925 
L 960.978245 73.783653 
L 961.927745 72.770683 
L 962.877245 72.951502 
L 963.826745 74.512724 
L 964.776244 75.311332 
L 965.725744 75.76925 
L 966.675244 76.690657 
L 970.473243 81.27839 
L 971.422743 81.978373 
L 972.372243 82.369951 
L 973.321743 82.331218 
L 974.271243 82.117105 
L 976.170242 81.154496 
L 978.069242 80.072318 
L 979.968242 79.44998 
L 980.917741 79.380077 
L 981.867241 79.485202 
L 982.816741 79.801348 
L 983.766241 80.317095 
L 988.51374 84.113083 
L 989.46324 85.081824 
L 990.41274 86.265183 
L 992.311739 88.098518 
L 993.261239 88.751502 
L 994.210739 89.12068 
L 995.160239 90.051531 
L 996.109739 91.568596 
L 999.907738 96.837306 
L 1000.857238 97.519035 
L 1001.806738 97.425585 
L 1002.756237 97.048473 
L 1003.705737 96.188115 
L 1004.655237 95.820499 
L 1005.604737 96.066654 
L 1006.554237 95.73148 
L 1007.503737 95.025754 
L 1008.453236 93.248522 
L 1009.402736 90.11766 
L 1010.352236 88.32888 
L 1011.301736 87.81195 
L 1012.251236 87.800524 
L 1013.200735 88.919613 
L 1014.150235 89.831726 
L 1016.998735 92.017727 
L 1017.948235 93.108654 
L 1018.897734 94.624469 
L 1019.847234 95.3198 
L 1020.796734 95.217965 
L 1021.746234 93.974407 
L 1022.695734 91.216686 
L 1023.645234 89.457492 
L 1024.594733 88.647388 
L 1026.493733 86.181183 
L 1028.392733 84.201995 
L 1029.342232 83.468313 
L 1030.291732 82.966624 
L 1031.241232 82.825512 
L 1032.190732 83.099443 
L 1033.140232 83.928966 
L 1034.089732 85.389378 
L 1035.039231 86.526953 
L 1036.938231 88.082259 
L 1037.887731 88.547226 
L 1038.837231 88.71485 
L 1039.786731 88.526424 
L 1040.73623 88.540077 
L 1041.68573 88.766351 
L 1042.63523 88.715437 
L 1043.58473 88.498314 
L 1044.53423 89.360095 
L 1046.433229 93.566647 
L 1047.382729 96.279264 
L 1048.332229 98.184781 
L 1049.281729 99.057977 
L 1050.231229 99.155965 
L 1053.079728 95.83592 
L 1054.029228 95.083508 
L 1054.978728 95.018903 
L 1055.928228 95.6719 
L 1056.877727 97.338463 
L 1057.827227 97.946411 
L 1058.776727 97.475179 
L 1059.726227 97.953504 
L 1060.675727 99.010355 
L 1061.625227 99.417071 
L 1063.524226 99.291466 
L 1065.423226 98.530612 
L 1066.372726 98.263602 
L 1067.322225 98.324126 
L 1068.271725 98.842259 
L 1069.221225 99.67766 
L 1070.170725 100.959632 
L 1071.120225 102.879404 
L 1073.019224 107.927022 
L 1073.968724 110.172226 
L 1074.918224 111.428881 
L 1075.867724 111.37002 
L 1077.766724 111.887881 
L 1078.716223 112.881477 
L 1079.665723 114.950492 
L 1080.615223 115.464545 
L 1081.564723 114.535809 
L 1082.514223 113.350594 
L 1084.413222 109.615938 
L 1087.261722 105.258405 
L 1088.211222 104.396497 
L 1088.211222 104.396497 
" clip-path="url(#p686da31b6e)" style="fill: none; stroke: #0070c0; stroke-width: 1.5; stroke-linecap: square"/>
   </g>
   <g id="patch_3">
    <path d="M 55.345313 120.62 
L 55.345313 7.2 
" style="fill: none; stroke: #000000; stroke-width: 0.8; stroke-linejoin: miter; stroke-linecap: square"/>
   </g>
   <g id="patch_4">
    <path d="M 1137.395313 120.62 
L 1137.395313 7.2 
" style="fill: none; stroke: #000000; stroke-width: 0.8; stroke-linejoin: miter; stroke-linecap: square"/>
   </g>
   <g id="patch_5">
    <path d="M 55.345313 120.62 
L 1137.395313 120.62 
" style="fill: none; stroke: #000000; stroke-width: 0.8; stroke-linejoin: miter; stroke-linecap: square"/>
   </g>
   <g id="patch_6">
    <path d="M 55.345313 7.2 
L 1137.395313 7.2 
" style="fill: none; stroke: #000000; stroke-width: 0.8; stroke-linejoin: miter; stroke-linecap: square"/>
   </g>
  </g>
  <g id="axes_2">
   <g id="patch_7">
    <path d="M 55.345313 261.92 
L 1137.395313 261.92 
L 1137.395313 148.5 
L 55.345313 148.5 
z
" style="fill: #ffffff"/>
   </g>
   <g id="matplotlib.axis_3">
    <g id="xtick_7">
     <g id="line2d_10">
      <g>
       <use xlink:href="#m75298c69c8" x="104.529403" y="261.92" style="stroke: #000000; stroke-width: 0.8"/>
      </g>
     </g>
     <g id="text_10">
      <!-- 0 -->
      <g transform="translate(101.348153 276.518437) scale(0.1 -0.1)">
       <use xlink:href="#DejaVuSans-30"/>
      </g>
     </g>
    </g>
    <g id="xtick_8">
     <g id="line2d_11">
      <g>
       <use xlink:href="#m75298c69c8" x="294.429368" y="261.92" style="stroke: #000000; stroke-width: 0.8"/>
      </g>
     </g>
     <g id="text_11">
      <!-- 200 -->
      <g transform="translate(284.885618 276.518437) scale(0.1 -0.1)">
       <use xlink:href="#DejaVuSans-32"/>
       <use xlink:href="#DejaVuSans-30" transform="translate(63.623047 0)"/>
       <use xlink:href="#DejaVuSans-30" transform="translate(127.246094 0)"/>
      </g>
     </g>
    </g>
    <g id="xtick_9">
     <g id="line2d_12">
      <g>
       <use xlink:href="#m75298c69c8" x="484.329333" y="261.92" style="stroke: #000000; stroke-width: 0.8"/>
      </g>
     </g>
     <g id="text_12">
      <!-- 400 -->
      <g transform="translate(474.785583 276.518437) scale(0.1 -0.1)">
       <use xlink:href="#DejaVuSans-34"/>
       <use xlink:href="#DejaVuSans-30" transform="translate(63.623047 0)"/>
       <use xlink:href="#DejaVuSans-30" transform="translate(127.246094 0)"/>
      </g>
     </g>
    </g>
    <g id="xtick_10">
     <g id="line2d_13">
      <g>
       <use xlink:href="#m75298c69c8" x="674.229298" y="261.92" style="stroke: #000000; stroke-width: 0.8"/>
      </g>
     </g>
     <g id="text_13">
      <!-- 600 -->
      <g transform="translate(664.685548 276.518437) scale(0.1 -0.1)">
       <use xlink:href="#DejaVuSans-36"/>
       <use xlink:href="#DejaVuSans-30" transform="translate(63.623047 0)"/>
       <use xlink:href="#DejaVuSans-30" transform="translate(127.246094 0)"/>
      </g>
     </g>
    </g>
    <g id="xtick_11">
     <g id="line2d_14">
      <g>
       <use xlink:href="#m75298c69c8" x="864.129263" y="261.92" style="stroke: #000000; stroke-width: 0.8"/>
      </g>
     </g>
     <g id="text_14">
      <!-- 800 -->
      <g transform="translate(854.585513 276.518437) scale(0.1 -0.1)">
       <use xlink:href="#DejaVuSans-38"/>
       <use xlink:href="#DejaVuSans-30" transform="translate(63.623047 0)"/>
       <use xlink:href="#DejaVuSans-30" transform="translate(127.246094 0)"/>
      </g>
     </g>
    </g>
    <g id="xtick_12">
     <g id="line2d_15">
      <g>
       <use xlink:href="#m75298c69c8" x="1054.029228" y="261.92" style="stroke: #000000; stroke-width: 0.8"/>
      </g>
     </g>
     <g id="text_15">
      <!-- 1000 -->
      <g transform="translate(1041.304228 276.518437) scale(0.1 -0.1)">
       <use xlink:href="#DejaVuSans-31"/>
       <use xlink:href="#DejaVuSans-30" transform="translate(63.623047 0)"/>
       <use xlink:href="#DejaVuSans-30" transform="translate(127.246094 0)"/>
       <use xlink:href="#DejaVuSans-30" transform="translate(190.869141 0)"/>
      </g>
     </g>
    </g>
   </g>
   <g id="matplotlib.axis_4">
    <g id="ytick_3">
     <g id="line2d_16">
      <g>
       <use xlink:href="#m924e335564" x="55.345313" y="240.041703" style="stroke: #000000; stroke-width: 0.8"/>
      </g>
     </g>
     <g id="text_16">
      <!-- −200 -->
      <g transform="translate(20.878125 243.840921) scale(0.1 -0.1)">
       <defs>
        <path id="DejaVuSans-2212" d="M 678 2272 
L 4684 2272 
L 4684 1741 
L 678 1741 
L 678 2272 
z
" transform="scale(0.015625)"/>
       </defs>
       <use xlink:href="#DejaVuSans-2212"/>
       <use xlink:href="#DejaVuSans-32" transform="translate(83.789062 0)"/>
       <use xlink:href="#DejaVuSans-30" transform="translate(147.412109 0)"/>
       <use xlink:href="#DejaVuSans-30" transform="translate(211.035156 0)"/>
      </g>
     </g>
    </g>
    <g id="ytick_4">
     <g id="line2d_17">
      <g>
       <use xlink:href="#m924e335564" x="55.345313" y="204.407087" style="stroke: #000000; stroke-width: 0.8"/>
      </g>
     </g>
     <g id="text_17">
      <!-- 0 -->
      <g transform="translate(41.982813 208.206305) scale(0.1 -0.1)">
       <use xlink:href="#DejaVuSans-30"/>
      </g>
     </g>
    </g>
    <g id="ytick_5">
     <g id="line2d_18">
      <g>
       <use xlink:href="#m924e335564" x="55.345313" y="168.772471" style="stroke: #000000; stroke-width: 0.8"/>
      </g>
     </g>
     <g id="text_18">
      <!-- 200 -->
      <g transform="translate(29.257813 172.571689) scale(0.1 -0.1)">
       <use xlink:href="#DejaVuSans-32"/>
       <use xlink:href="#DejaVuSans-30" transform="translate(63.623047 0)"/>
       <use xlink:href="#DejaVuSans-30" transform="translate(127.246094 0)"/>
      </g>
     </g>
    </g>
    <g id="text_19">
     <!-- co-imf0 -->
     <g transform="translate(14.798438 224.117031) rotate(-90) scale(0.1 -0.1)">
      <defs>
       <path id="DejaVuSans-63" d="M 3122 3366 
L 3122 2828 
Q 2878 2963 2633 3030 
Q 2388 3097 2138 3097 
Q 1578 3097 1268 2742 
Q 959 2388 959 1747 
Q 959 1106 1268 751 
Q 1578 397 2138 397 
Q 2388 397 2633 464 
Q 2878 531 3122 666 
L 3122 134 
Q 2881 22 2623 -34 
Q 2366 -91 2075 -91 
Q 1284 -91 818 406 
Q 353 903 353 1747 
Q 353 2603 823 3093 
Q 1294 3584 2113 3584 
Q 2378 3584 2631 3529 
Q 2884 3475 3122 3366 
z
" transform="scale(0.015625)"/>
       <path id="DejaVuSans-6f" d="M 1959 3097 
Q 1497 3097 1228 2736 
Q 959 2375 959 1747 
Q 959 1119 1226 758 
Q 1494 397 1959 397 
Q 2419 397 2687 759 
Q 2956 1122 2956 1747 
Q 2956 2369 2687 2733 
Q 2419 3097 1959 3097 
z
M 1959 3584 
Q 2709 3584 3137 3096 
Q 3566 2609 3566 1747 
Q 3566 888 3137 398 
Q 2709 -91 1959 -91 
Q 1206 -91 779 398 
Q 353 888 353 1747 
Q 353 2609 779 3096 
Q 1206 3584 1959 3584 
z
" transform="scale(0.015625)"/>
       <path id="DejaVuSans-2d" d="M 313 2009 
L 1997 2009 
L 1997 1497 
L 313 1497 
L 313 2009 
z
" transform="scale(0.015625)"/>
       <path id="DejaVuSans-6d" d="M 3328 2828 
Q 3544 3216 3844 3400 
Q 4144 3584 4550 3584 
Q 5097 3584 5394 3201 
Q 5691 2819 5691 2113 
L 5691 0 
L 5113 0 
L 5113 2094 
Q 5113 2597 4934 2840 
Q 4756 3084 4391 3084 
Q 3944 3084 3684 2787 
Q 3425 2491 3425 1978 
L 3425 0 
L 2847 0 
L 2847 2094 
Q 2847 2600 2669 2842 
Q 2491 3084 2119 3084 
Q 1678 3084 1418 2786 
Q 1159 2488 1159 1978 
L 1159 0 
L 581 0 
L 581 3500 
L 1159 3500 
L 1159 2956 
Q 1356 3278 1631 3431 
Q 1906 3584 2284 3584 
Q 2666 3584 2933 3390 
Q 3200 3197 3328 2828 
z
" transform="scale(0.015625)"/>
       <path id="DejaVuSans-66" d="M 2375 4863 
L 2375 4384 
L 1825 4384 
Q 1516 4384 1395 4259 
Q 1275 4134 1275 3809 
L 1275 3500 
L 2222 3500 
L 2222 3053 
L 1275 3053 
L 1275 0 
L 697 0 
L 697 3053 
L 147 3053 
L 147 3500 
L 697 3500 
L 697 3744 
Q 697 4328 969 4595 
Q 1241 4863 1831 4863 
L 2375 4863 
z
" transform="scale(0.015625)"/>
      </defs>
      <use xlink:href="#DejaVuSans-63"/>
      <use xlink:href="#DejaVuSans-6f" transform="translate(54.980469 0)"/>
      <use xlink:href="#DejaVuSans-2d" transform="translate(118.037109 0)"/>
      <use xlink:href="#DejaVuSans-69" transform="translate(154.121094 0)"/>
      <use xlink:href="#DejaVuSans-6d" transform="translate(181.904297 0)"/>
      <use xlink:href="#DejaVuSans-66" transform="translate(279.316406 0)"/>
      <use xlink:href="#DejaVuSans-30" transform="translate(314.521484 0)"/>
     </g>
    </g>
   </g>
   <g id="line2d_19">
    <path d="M 104.529403 190.651975 
L 105.478903 187.111299 
L 107.377903 181.972423 
L 108.327403 180.088523 
L 109.276903 179.146324 
L 110.226402 178.915283 
L 111.175902 179.646345 
L 112.125402 182.142083 
L 113.074902 186.581888 
L 114.024402 191.98574 
L 114.973901 198.591929 
L 115.923401 203.47167 
L 116.872901 206.19253 
L 118.771901 212.075987 
L 119.721401 213.671817 
L 120.6709 214.282256 
L 121.6204 219.723136 
L 122.5699 230.436239 
L 123.5194 230.355426 
L 124.4689 219.719463 
L 125.4184 207.816127 
L 126.367899 198.474905 
L 127.317399 193.375749 
L 128.266899 195.69695 
L 129.216399 195.895214 
L 130.165899 195.448698 
L 131.115398 195.198201 
L 132.064898 193.061578 
L 133.014398 194.57896 
L 134.913398 204.317594 
L 135.862898 210.159688 
L 136.812397 212.567068 
L 137.761897 210.676916 
L 138.711397 209.670016 
L 139.660897 208.396542 
L 142.509396 202.108233 
L 143.458896 199.945142 
L 144.408396 200.178204 
L 145.357896 203.165056 
L 146.307396 205.261667 
L 147.256896 206.965252 
L 148.206395 207.242811 
L 149.155895 205.265036 
L 150.105395 204.462553 
L 151.054895 204.448373 
L 152.953894 203.190986 
L 153.903394 203.28415 
L 157.701394 206.53846 
L 158.650893 206.987279 
L 159.600393 206.956229 
L 160.549893 206.272657 
L 161.499393 205.381037 
L 163.398393 203.008433 
L 166.246892 199.965636 
L 167.196392 199.335053 
L 168.145892 199.088815 
L 169.095391 199.47027 
L 170.994391 201.853265 
L 172.893391 204.650206 
L 173.842891 205.78556 
L 175.74189 208.783372 
L 177.64089 211.794219 
L 178.59039 210.894611 
L 179.53989 207.31113 
L 181.438889 202.066236 
L 182.388389 199.865353 
L 183.337889 198.611132 
L 184.287389 198.420653 
L 185.236888 199.657715 
L 186.186388 201.54621 
L 187.135888 204.27828 
L 188.085388 206.401323 
L 189.034888 207.674261 
L 189.984388 209.245742 
L 190.933887 209.237506 
L 192.832887 204.075826 
L 193.782387 203.619854 
L 194.731887 206.612294 
L 195.681387 207.212849 
L 196.630886 206.287094 
L 197.580386 204.736127 
L 198.529886 201.568701 
L 199.479386 199.716093 
L 200.428886 199.20747 
L 201.378386 199.733651 
L 202.327885 202.05676 
L 203.277385 203.851867 
L 204.226885 205.228873 
L 206.125885 208.697806 
L 207.075384 209.622311 
L 208.024884 209.66779 
L 208.974384 209.094118 
L 209.923884 207.649905 
L 210.873384 205.128383 
L 212.772383 197.907245 
L 213.721883 194.564922 
L 214.671383 194.346418 
L 215.620883 197.924442 
L 216.570383 199.886804 
L 217.519883 200.886202 
L 218.469382 202.076526 
L 219.418882 202.460353 
L 220.368382 202.37854 
L 221.317882 201.651271 
L 222.267382 200.490226 
L 223.216881 198.864447 
L 224.166381 198.337896 
L 225.115881 199.105052 
L 226.065381 201.861188 
L 227.014881 207.226423 
L 227.964381 210.730663 
L 229.86338 214.057616 
L 230.81288 214.483593 
L 231.76238 215.328535 
L 232.71188 216.637742 
L 233.66138 217.347111 
L 234.610879 217.769997 
L 235.560379 216.667383 
L 236.509879 213.793803 
L 237.459379 209.683465 
L 238.408879 203.917936 
L 239.358378 200.534974 
L 240.307878 199.850224 
L 241.257378 197.980462 
L 242.206878 195.820299 
L 243.156378 197.273645 
L 244.105878 202.176923 
L 245.055377 205.977869 
L 246.004877 209.251737 
L 246.954377 209.910626 
L 247.903877 206.782205 
L 248.853377 205.087469 
L 249.802877 204.135517 
L 250.752376 203.698852 
L 251.701876 202.44105 
L 252.651376 201.624077 
L 254.550376 203.436966 
L 255.499876 204.529575 
L 256.449375 204.478615 
L 257.398875 204.604281 
L 258.348375 205.369351 
L 259.297875 207.210895 
L 260.247375 207.950765 
L 261.196874 207.804685 
L 262.146374 207.886335 
L 263.095874 207.842003 
L 264.045374 206.611364 
L 264.994874 204.206115 
L 265.944374 202.893377 
L 266.893873 202.599238 
L 267.843373 202.158661 
L 268.792873 202.046571 
L 269.742373 202.48363 
L 270.691873 203.432949 
L 271.641373 204.163917 
L 273.540372 205.044596 
L 274.489872 205.102986 
L 275.439372 205.01431 
L 277.338371 204.503906 
L 280.186871 204.291157 
L 281.136371 204.361393 
L 282.085871 204.548341 
L 283.98487 204.434011 
L 284.93437 205.33884 
L 285.88387 206.968375 
L 286.83337 206.5884 
L 287.78287 204.059516 
L 288.732369 202.417122 
L 291.580869 198.47438 
L 292.530369 198.686946 
L 295.378868 204.045454 
L 297.277868 208.670414 
L 298.227368 210.441191 
L 299.176867 211.456628 
L 300.126367 211.403028 
L 301.075867 209.945623 
L 302.025367 209.016132 
L 302.974867 208.527141 
L 303.924367 208.29246 
L 304.873866 208.769971 
L 305.823366 208.951489 
L 306.772866 208.938092 
L 307.722366 206.717412 
L 308.671866 201.877991 
L 309.621366 198.955176 
L 310.570865 197.620837 
L 311.520365 195.867037 
L 312.469865 194.554256 
L 313.419365 192.986425 
L 314.368865 191.003863 
L 315.318364 192.695345 
L 316.267864 198.234833 
L 317.217364 202.537278 
L 318.166864 206.319003 
L 319.116364 209.105729 
L 320.065864 209.837627 
L 321.015363 210.42699 
L 321.964863 210.366001 
L 322.914363 209.893855 
L 323.863863 209.233643 
L 325.762863 207.404834 
L 326.712362 205.73595 
L 327.661862 203.368076 
L 328.611362 202.081042 
L 329.560862 201.893462 
L 330.510362 202.20192 
L 331.459861 203.412822 
L 332.409361 204.339239 
L 333.358861 204.922242 
L 334.308361 205.154011 
L 336.207361 204.093913 
L 337.15686 203.234372 
L 338.10636 203.298424 
L 340.95486 206.896011 
L 341.90436 207.406213 
L 342.853859 206.842605 
L 343.803359 207.177339 
L 344.752859 208.18683 
L 345.702359 208.39467 
L 346.651859 208.063275 
L 347.601358 208.533446 
L 348.550858 209.668093 
L 349.500358 210.386959 
L 351.399358 211.357102 
L 352.348858 211.613596 
L 353.298357 211.703809 
L 354.247857 211.591685 
L 355.197357 210.844871 
L 356.146857 209.402835 
L 357.096357 209.226607 
L 358.045857 210.36048 
L 358.995356 209.939285 
L 359.944856 208.241115 
L 360.894356 207.185105 
L 361.843856 206.325084 
L 362.793356 203.805647 
L 364.692355 196.001721 
L 365.641855 192.326234 
L 366.591355 190.739727 
L 367.540855 191.825292 
L 369.439854 192.989367 
L 370.389354 194.608749 
L 374.187354 203.548662 
L 377.035853 210.247039 
L 377.985353 212.153155 
L 379.884353 215.263061 
L 380.833852 216.572793 
L 381.783352 216.167205 
L 382.732852 213.900536 
L 383.682352 212.182421 
L 384.631852 210.744504 
L 385.581351 209.76647 
L 386.530851 209.783527 
L 388.429851 209.058925 
L 389.379351 208.355827 
L 390.328851 207.125027 
L 391.27835 206.298057 
L 392.22785 205.793637 
L 397.924849 201.609466 
L 398.874349 201.314451 
L 399.823849 201.494972 
L 400.773349 202.244489 
L 401.722848 203.72453 
L 402.672348 204.982126 
L 403.621848 206.039416 
L 404.571348 206.546824 
L 405.520848 206.220893 
L 406.470348 205.579549 
L 408.369347 203.338566 
L 409.318847 202.420673 
L 410.268347 201.933132 
L 411.217847 202.108031 
L 412.167347 202.629722 
L 415.965346 206.751491 
L 416.914846 207.62752 
L 417.864345 208.234597 
L 419.763345 208.678862 
L 420.712845 208.759775 
L 421.662345 208.68211 
L 422.611845 208.487764 
L 423.561344 207.907715 
L 424.510844 206.923021 
L 425.460344 205.709658 
L 428.308844 201.131003 
L 429.258343 200.010803 
L 430.207843 199.436264 
L 431.157343 199.226901 
L 432.106843 199.555913 
L 433.056343 200.446674 
L 434.005843 201.955886 
L 434.955342 203.770157 
L 436.854342 207.784577 
L 437.803842 209.275562 
L 438.753342 209.769585 
L 439.702841 208.96631 
L 440.652341 207.583223 
L 443.500841 200.926369 
L 444.450341 199.521734 
L 445.39984 199.230295 
L 446.34934 199.36891 
L 447.29884 200.247525 
L 448.24834 202.082873 
L 449.19784 204.898632 
L 451.096839 211.641449 
L 452.046339 212.071481 
L 452.995839 208.845822 
L 453.945339 206.776858 
L 454.894839 205.07532 
L 456.793838 200.55212 
L 457.743338 198.783404 
L 458.692838 197.589708 
L 459.642338 197.85946 
L 460.591838 199.885533 
L 461.541337 200.969126 
L 462.490837 201.255957 
L 463.440337 202.567973 
L 464.389837 204.431642 
L 465.339337 207.031224 
L 466.288837 210.633802 
L 467.238336 213.094394 
L 468.187836 214.374487 
L 469.137336 213.239632 
L 470.086836 208.950913 
L 471.036336 206.385921 
L 471.985835 205.276958 
L 476.733335 195.549348 
L 477.682834 193.890253 
L 478.632334 196.147963 
L 479.581834 202.486996 
L 480.531334 205.79853 
L 481.480834 206.491016 
L 484.329333 212.189703 
L 485.278833 214.538896 
L 486.228333 215.327823 
L 487.177833 214.541415 
L 488.127333 213.395547 
L 490.026332 209.583892 
L 491.925332 206.381952 
L 494.773831 203.031857 
L 495.723331 201.511773 
L 496.672831 199.409787 
L 497.622331 198.919577 
L 498.571831 200.047767 
L 499.52133 200.403151 
L 500.47083 200.354811 
L 501.42033 201.203284 
L 502.36983 202.621945 
L 503.31933 202.082244 
L 504.26883 199.519714 
L 506.167829 195.541487 
L 507.117329 195.448494 
L 508.066829 197.848739 
L 511.864828 204.680282 
L 512.814328 204.850958 
L 513.763828 203.195014 
L 514.713328 203.008064 
L 515.662827 204.05839 
L 516.612327 204.150902 
L 517.561827 203.840686 
L 518.511327 204.16106 
L 519.460827 204.908068 
L 521.359826 205.781661 
L 522.309326 206.084438 
L 523.258826 206.192773 
L 524.208326 206.075598 
L 526.107325 205.175336 
L 527.056825 204.534706 
L 528.006325 203.63765 
L 528.955825 202.501505 
L 529.905325 202.296687 
L 530.854825 203.118509 
L 532.753824 204.267811 
L 533.703324 205.296384 
L 534.652824 206.613563 
L 535.602324 207.333757 
L 536.551824 207.410092 
L 537.501323 207.155195 
L 539.400323 205.411844 
L 540.349823 204.430965 
L 541.299323 203.730396 
L 542.248823 203.476258 
L 543.198322 203.341038 
L 547.945821 203.990474 
L 548.895321 203.984111 
L 549.844821 203.834728 
L 550.794321 203.858861 
L 555.54182 204.728216 
L 556.49132 204.618674 
L 557.44082 204.261168 
L 558.39032 204.063685 
L 559.339819 204.006938 
L 560.289319 204.142752 
L 561.238819 204.577393 
L 563.137819 205.050186 
L 564.087318 204.923726 
L 566.935818 203.324498 
L 567.885318 203.054363 
L 568.834818 203.165573 
L 569.784317 203.703462 
L 570.733817 204.81753 
L 571.683317 205.498035 
L 572.632817 205.744362 
L 573.582317 205.654727 
L 575.481316 204.363976 
L 576.430816 203.806862 
L 577.380316 203.609735 
L 579.279316 204.338398 
L 580.228815 204.889242 
L 581.178315 205.019023 
L 582.127815 204.610672 
L 585.925814 203.377569 
L 586.875314 203.472318 
L 588.774314 204.679972 
L 590.673314 206.550648 
L 592.572313 208.541318 
L 593.521813 209.23689 
L 594.471313 209.722814 
L 595.420813 209.893961 
L 596.370313 209.948697 
L 598.269312 209.78407 
L 599.218812 209.805076 
L 600.168312 209.571768 
L 601.117812 209.128923 
L 602.067311 208.239209 
L 603.016811 206.810699 
L 603.966311 204.749646 
L 604.915811 201.929405 
L 605.865311 199.60457 
L 606.814811 197.8015 
L 608.71381 193.592803 
L 609.66331 192.285067 
L 610.61281 191.796962 
L 611.56231 194.804505 
L 612.51181 201.834828 
L 613.461309 207.021701 
L 614.410809 210.813893 
L 615.360309 213.032939 
L 616.309809 212.293806 
L 617.259309 212.260519 
L 618.208808 212.490832 
L 621.057308 211.578049 
L 622.006808 211.019783 
L 622.956308 209.630973 
L 624.855307 205.280285 
L 626.754307 201.533617 
L 627.703807 200.002741 
L 628.653307 198.857656 
L 629.602806 198.22091 
L 630.552306 198.343697 
L 631.501806 199.354053 
L 632.451306 201.074041 
L 633.400806 203.634524 
L 634.350305 205.75263 
L 635.299805 207.326881 
L 636.249305 207.94685 
L 638.148305 206.310145 
L 639.097805 205.170764 
L 640.047304 204.412991 
L 640.996804 204.364797 
L 642.895804 203.713221 
L 643.845304 203.245676 
L 644.794804 202.517282 
L 645.744303 202.616853 
L 646.693803 203.562364 
L 647.643303 204.16699 
L 648.592803 204.618718 
L 649.542303 204.781395 
L 650.491802 204.415865 
L 651.441302 204.454591 
L 652.390802 204.827576 
L 654.289802 205.226356 
L 655.239302 205.230328 
L 658.087801 204.414596 
L 660.936301 203.009167 
L 661.8858 202.791504 
L 662.8353 203.03522 
L 667.582799 207.235529 
L 668.532299 207.218356 
L 669.481799 206.230079 
L 671.380799 204.592328 
L 672.330298 203.115461 
L 673.279798 201.129196 
L 674.229298 200.459889 
L 675.178798 201.188134 
L 676.128298 201.683573 
L 677.077798 202.343788 
L 678.027297 203.441966 
L 678.976797 204.778988 
L 679.926297 205.095076 
L 680.875797 204.241977 
L 681.825297 204.285004 
L 682.774797 204.989364 
L 683.724296 205.23192 
L 685.623296 205.416957 
L 687.522296 205.174302 
L 690.370795 204.257732 
L 692.269795 203.482452 
L 693.219295 203.419198 
L 694.168794 203.735332 
L 695.118294 204.238616 
L 696.067794 205.036699 
L 697.017294 205.620055 
L 697.966794 205.945563 
L 698.916294 205.388266 
L 699.865793 203.766554 
L 700.815293 202.817503 
L 701.764793 202.585249 
L 702.714293 203.46029 
L 703.663793 204.756431 
L 705.562792 208.064141 
L 706.512292 208.17002 
L 707.461792 206.318011 
L 708.411292 202.83151 
L 709.360792 197.055907 
L 710.310291 195.368427 
L 711.259791 198.125132 
L 712.209291 202.51128 
L 713.158791 209.729739 
L 714.108291 213.048672 
L 715.057791 211.687379 
L 716.00729 206.477397 
L 716.95679 199.993392 
L 717.90629 196.935754 
L 718.85579 198.36809 
L 719.80529 199.420559 
L 720.75479 201.636512 
L 721.704289 196.848324 
L 722.653789 203.052538 
L 723.603289 206.271272 
L 724.552789 213.107838 
L 725.502289 217.833124 
L 726.451788 220.527267 
L 727.401288 221.640748 
L 728.350788 219.961028 
L 729.300288 214.701688 
L 731.199288 196.56529 
L 732.148787 188.613131 
L 733.098287 184.558657 
L 734.997287 187.349393 
L 735.946787 189.702773 
L 736.896287 195.972316 
L 737.845786 205.626665 
L 738.795286 206.828012 
L 739.744786 212.177851 
L 740.694286 212.674101 
L 741.643786 211.229479 
L 742.593285 211.936998 
L 743.542785 214.130125 
L 744.492285 209.683258 
L 745.441785 217.021021 
L 746.391285 222.246376 
L 748.290284 227.143655 
L 749.239784 226.240209 
L 751.138784 219.928581 
L 752.088284 220.644489 
L 753.037784 227.046114 
L 753.987283 230.636101 
L 754.936783 232.779215 
L 755.886283 231.371997 
L 757.785283 218.548042 
L 758.734782 212.090001 
L 759.684282 203.651178 
L 760.633782 194.108271 
L 761.583282 191.704 
L 762.532782 190.381079 
L 763.482282 190.285201 
L 764.431781 190.331044 
L 765.381281 186.981842 
L 766.330781 179.016821 
L 768.229781 167.091951 
L 769.179281 162.67177 
L 770.12878 160.649298 
L 771.07828 161.411871 
L 772.02778 165.787338 
L 772.97728 173.155132 
L 773.92678 184.085623 
L 776.775279 220.676413 
L 779.623779 240.171748 
L 780.573278 243.53899 
L 781.522778 244.561027 
L 782.472278 248.897966 
L 783.421778 256.764545 
L 784.371278 244.15476 
L 785.320778 210.331048 
L 786.270277 185.352712 
L 787.219777 165.163686 
L 788.169277 153.655455 
L 789.118777 157.320048 
L 790.068277 168.367471 
L 791.017777 188.895644 
L 791.967276 195.806375 
L 792.916776 211.217965 
L 793.866276 204.518129 
L 794.815776 208.154258 
L 795.765276 216.019827 
L 796.714775 217.612256 
L 797.664275 216.891496 
L 798.613775 216.650595 
L 799.563275 213.629706 
L 800.512775 206.59418 
L 801.462275 196.098755 
L 802.411774 187.790586 
L 803.361274 186.695649 
L 804.310774 194.137442 
L 805.260274 216.437384 
L 807.159274 212.979513 
L 808.108773 212.915875 
L 809.058273 211.577408 
L 810.007773 204.820539 
L 811.906773 193.914407 
L 812.856272 190.192029 
L 813.805772 189.195179 
L 814.755272 188.949595 
L 815.704772 190.201155 
L 816.654272 192.217913 
L 817.603772 194.830555 
L 818.553271 196.430201 
L 820.452271 196.776221 
L 821.401771 196.454666 
L 822.351271 196.343461 
L 823.300771 196.59858 
L 824.25027 197.43523 
L 825.19977 199.142477 
L 827.09877 201.952697 
L 828.04827 203.23528 
L 828.99777 204.231658 
L 829.947269 205.799781 
L 830.896769 207.922324 
L 831.846269 209.593482 
L 833.745269 212.09469 
L 834.694768 212.886776 
L 835.644268 212.847101 
L 836.593768 211.865256 
L 837.543268 210.657613 
L 838.492768 209.096751 
L 839.442268 208.311029 
L 840.391767 208.539949 
L 841.341267 206.839737 
L 842.290767 203.354889 
L 843.240267 200.923999 
L 844.189767 199.106255 
L 845.139267 199.503572 
L 846.088766 202.832968 
L 847.038266 205.284583 
L 847.987766 207.304638 
L 848.937266 207.532486 
L 849.886766 205.045988 
L 850.836265 203.916536 
L 851.785765 203.675822 
L 852.735265 203.593484 
L 853.684765 204.427819 
L 854.634265 204.070727 
L 855.583765 202.511117 
L 856.533264 201.572296 
L 857.482764 200.878676 
L 858.432264 200.556165 
L 859.381764 200.914868 
L 860.331264 201.717031 
L 862.230263 204.404848 
L 863.179763 205.498916 
L 864.129263 207.663167 
L 865.078763 210.802013 
L 866.028263 214.879671 
L 866.977762 220.186723 
L 867.927262 220.978618 
L 869.826262 212.655039 
L 870.775762 207.15776 
L 871.725262 207.466532 
L 872.674761 214.92407 
L 873.624261 219.169624 
L 874.573761 221.846203 
L 875.523261 221.48379 
L 876.472761 216.021271 
L 877.422261 202.231561 
L 878.37176 178.513753 
L 879.32126 170.560248 
L 880.27076 179.101786 
L 881.22026 178.585164 
L 883.119259 200.178687 
L 884.068759 197.613162 
L 885.018259 202.097463 
L 886.917259 210.020269 
L 888.816258 219.778677 
L 889.765758 224.422398 
L 890.715258 225.66391 
L 891.664758 223.029398 
L 892.614258 221.245198 
L 893.563758 220.753692 
L 894.513257 222.229611 
L 895.462757 226.512082 
L 896.412257 228.829811 
L 897.361757 229.380035 
L 898.311257 230.198611 
L 899.260757 230.306712 
L 900.210256 230.721298 
L 901.159756 231.5694 
L 902.109256 230.190968 
L 903.058756 226.625118 
L 904.008256 217.421098 
L 904.957755 201.5051 
L 905.907255 189.769484 
L 906.856755 181.938826 
L 907.806255 181.171214 
L 908.755755 189.898626 
L 909.705255 195.468558 
L 910.654754 198.839624 
L 911.604254 202.81794 
L 913.503254 206.768377 
L 914.452754 208.277051 
L 916.351753 210.502793 
L 918.250753 212.326843 
L 919.200253 212.52746 
L 920.149753 212.028525 
L 921.099252 210.864478 
L 922.048752 208.852342 
L 922.998252 205.941426 
L 923.947752 202.032272 
L 924.897252 199.259104 
L 925.846752 197.762229 
L 926.796251 198.179034 
L 927.745751 201.192059 
L 928.695251 203.6159 
L 929.644751 205.697344 
L 930.594251 207.36593 
L 931.543751 207.892297 
L 932.49325 207.577347 
L 933.44275 206.400819 
L 934.39225 204.681842 
L 935.34175 202.492634 
L 936.29125 201.801057 
L 939.139749 205.352322 
L 941.038749 208.508144 
L 941.988249 208.261077 
L 942.937748 205.859932 
L 943.887248 203.005225 
L 944.836748 199.301651 
L 945.786248 199.123632 
L 946.735748 203.156995 
L 947.685248 205.898048 
L 948.634747 208.071461 
L 949.584247 209.632962 
L 950.533747 209.526341 
L 951.483247 208.668635 
L 952.432747 207.555537 
L 953.382247 203.667564 
L 954.331746 197.236951 
L 955.281246 195.371478 
L 956.230746 198.250704 
L 957.180246 201.753757 
L 958.129746 207.134592 
L 959.079245 209.845492 
L 960.028745 208.984911 
L 960.978245 207.606139 
L 961.927745 204.290252 
L 962.877245 203.138707 
L 963.826745 204.58011 
L 964.776244 204.437564 
L 965.725744 203.611735 
L 966.675244 203.757233 
L 967.624744 204.405162 
L 968.574244 205.190493 
L 969.523744 206.314164 
L 970.473243 207.036726 
L 971.422743 207.27262 
L 972.372243 207.039832 
L 973.321743 206.09307 
L 974.271243 204.908622 
L 976.170242 201.769026 
L 978.069242 198.645936 
L 979.018742 197.480229 
L 979.968242 196.549957 
L 980.917741 195.981954 
L 981.867241 195.735632 
L 982.816741 195.865025 
L 983.766241 196.341051 
L 987.56424 199.657582 
L 988.51374 200.356392 
L 989.46324 201.462434 
L 990.41274 202.970633 
L 991.362239 204.088923 
L 992.311739 204.874255 
L 993.261239 205.287152 
L 994.210739 205.133435 
L 995.160239 206.104248 
L 996.109739 208.254454 
L 998.958238 213.502119 
L 999.907738 215.475961 
L 1000.857238 216.099992 
L 1001.806738 215.226236 
L 1002.756237 213.838145 
L 1003.705737 211.544841 
L 1004.655237 210.298117 
L 1005.604737 210.345225 
L 1006.554237 209.314563 
L 1007.503737 207.63299 
L 1008.453236 203.911576 
L 1009.402736 197.59639 
L 1010.352236 194.065186 
L 1011.301736 193.185295 
L 1012.251236 193.436465 
L 1014.150235 198.407585 
L 1015.099735 200.452136 
L 1016.998735 204.950687 
L 1017.948235 208.022843 
L 1018.897734 212.008507 
L 1019.847234 214.419782 
L 1020.796734 215.292682 
L 1021.746234 213.918931 
L 1022.695734 209.545428 
L 1023.645234 207.145 
L 1024.594733 206.602807 
L 1026.493733 203.634043 
L 1028.392733 201.219518 
L 1029.342232 200.307568 
L 1030.291732 199.683706 
L 1031.241232 199.587183 
L 1032.190732 200.107298 
L 1033.140232 201.545395 
L 1034.089732 204.051058 
L 1035.039231 205.746139 
L 1035.988731 206.611333 
L 1036.938231 207.236748 
L 1037.887731 207.151733 
L 1038.837231 206.35987 
L 1039.786731 204.757874 
L 1040.73623 203.502862 
L 1041.68573 202.634386 
L 1042.63523 201.201139 
L 1043.58473 199.447851 
L 1044.53423 199.853051 
L 1045.483729 202.546191 
L 1046.433229 205.679179 
L 1047.382729 209.842688 
L 1048.332229 212.421683 
L 1049.281729 212.971007 
L 1050.231229 212.006816 
L 1053.079728 202.110866 
L 1054.029228 199.58374 
L 1054.978728 198.459953 
L 1055.928228 198.793208 
L 1056.877727 201.17257 
L 1057.827227 201.466229 
L 1058.776727 199.630984 
L 1059.726227 199.70534 
L 1060.675727 200.947498 
L 1061.625227 200.907312 
L 1062.574726 200.041277 
L 1063.524226 198.984718 
L 1065.423226 195.825417 
L 1066.372726 194.483589 
L 1067.322225 193.813439 
L 1068.271725 194.07514 
L 1069.221225 194.997218 
L 1070.170725 196.841938 
L 1071.120225 199.996032 
L 1073.019224 208.849681 
L 1073.968724 212.802198 
L 1074.918224 214.846772 
L 1075.867724 214.337683 
L 1076.817224 214.486532 
L 1077.766724 214.808236 
L 1078.716223 216.630247 
L 1079.665723 220.68445 
L 1080.615223 221.731327 
L 1081.564723 219.999333 
L 1082.514223 217.839858 
L 1083.463722 214.187979 
L 1084.413222 211.051575 
L 1087.261722 203.902378 
L 1088.211222 202.822999 
L 1088.211222 202.822999 
" clip-path="url(#p055088cd33)" style="fill: none; stroke: #f27f19; stroke-width: 1.5; stroke-linecap: square"/>
   </g>
   <g id="patch_8">
    <path d="M 55.345313 261.92 
L 55.345313 148.5 
" style="fill: none; stroke: #000000; stroke-width: 0.8; stroke-linejoin: miter; stroke-linecap: square"/>
   </g>
   <g id="patch_9">
    <path d="M 1137.395313 261.92 
L 1137.395313 148.5 
" style="fill: none; stroke: #000000; stroke-width: 0.8; stroke-linejoin: miter; stroke-linecap: square"/>
   </g>
   <g id="patch_10">
    <path d="M 55.345313 261.92 
L 1137.395313 261.92 
" style="fill: none; stroke: #000000; stroke-width: 0.8; stroke-linejoin: miter; stroke-linecap: square"/>
   </g>
   <g id="patch_11">
    <path d="M 55.345313 148.5 
L 1137.395313 148.5 
" style="fill: none; stroke: #000000; stroke-width: 0.8; stroke-linejoin: miter; stroke-linecap: square"/>
   </g>
  </g>
  <g id="axes_3">
   <g id="patch_12">
    <path d="M 55.345313 403.22 
L 1137.395313 403.22 
L 1137.395313 289.8 
L 55.345313 289.8 
z
" style="fill: #ffffff"/>
   </g>
   <g id="matplotlib.axis_5">
    <g id="xtick_13">
     <g id="line2d_20">
      <g>
       <use xlink:href="#m75298c69c8" x="104.529403" y="403.22" style="stroke: #000000; stroke-width: 0.8"/>
      </g>
     </g>
     <g id="text_20">
      <!-- 0 -->
      <g transform="translate(101.348153 417.818437) scale(0.1 -0.1)">
       <use xlink:href="#DejaVuSans-30"/>
      </g>
     </g>
    </g>
    <g id="xtick_14">
     <g id="line2d_21">
      <g>
       <use xlink:href="#m75298c69c8" x="294.429368" y="403.22" style="stroke: #000000; stroke-width: 0.8"/>
      </g>
     </g>
     <g id="text_21">
      <!-- 200 -->
      <g transform="translate(284.885618 417.818437) scale(0.1 -0.1)">
       <use xlink:href="#DejaVuSans-32"/>
       <use xlink:href="#DejaVuSans-30" transform="translate(63.623047 0)"/>
       <use xlink:href="#DejaVuSans-30" transform="translate(127.246094 0)"/>
      </g>
     </g>
    </g>
    <g id="xtick_15">
     <g id="line2d_22">
      <g>
       <use xlink:href="#m75298c69c8" x="484.329333" y="403.22" style="stroke: #000000; stroke-width: 0.8"/>
      </g>
     </g>
     <g id="text_22">
      <!-- 400 -->
      <g transform="translate(474.785583 417.818437) scale(0.1 -0.1)">
       <use xlink:href="#DejaVuSans-34"/>
       <use xlink:href="#DejaVuSans-30" transform="translate(63.623047 0)"/>
       <use xlink:href="#DejaVuSans-30" transform="translate(127.246094 0)"/>
      </g>
     </g>
    </g>
    <g id="xtick_16">
     <g id="line2d_23">
      <g>
       <use xlink:href="#m75298c69c8" x="674.229298" y="403.22" style="stroke: #000000; stroke-width: 0.8"/>
      </g>
     </g>
     <g id="text_23">
      <!-- 600 -->
      <g transform="translate(664.685548 417.818437) scale(0.1 -0.1)">
       <use xlink:href="#DejaVuSans-36"/>
       <use xlink:href="#DejaVuSans-30" transform="translate(63.623047 0)"/>
       <use xlink:href="#DejaVuSans-30" transform="translate(127.246094 0)"/>
      </g>
     </g>
    </g>
    <g id="xtick_17">
     <g id="line2d_24">
      <g>
       <use xlink:href="#m75298c69c8" x="864.129263" y="403.22" style="stroke: #000000; stroke-width: 0.8"/>
      </g>
     </g>
     <g id="text_24">
      <!-- 800 -->
      <g transform="translate(854.585513 417.818437) scale(0.1 -0.1)">
       <use xlink:href="#DejaVuSans-38"/>
       <use xlink:href="#DejaVuSans-30" transform="translate(63.623047 0)"/>
       <use xlink:href="#DejaVuSans-30" transform="translate(127.246094 0)"/>
      </g>
     </g>
    </g>
    <g id="xtick_18">
     <g id="line2d_25">
      <g>
       <use xlink:href="#m75298c69c8" x="1054.029228" y="403.22" style="stroke: #000000; stroke-width: 0.8"/>
      </g>
     </g>
     <g id="text_25">
      <!-- 1000 -->
      <g transform="translate(1041.304228 417.818437) scale(0.1 -0.1)">
       <use xlink:href="#DejaVuSans-31"/>
       <use xlink:href="#DejaVuSans-30" transform="translate(63.623047 0)"/>
       <use xlink:href="#DejaVuSans-30" transform="translate(127.246094 0)"/>
       <use xlink:href="#DejaVuSans-30" transform="translate(190.869141 0)"/>
      </g>
     </g>
    </g>
   </g>
   <g id="matplotlib.axis_6">
    <g id="ytick_6">
     <g id="line2d_26">
      <g>
       <use xlink:href="#m924e335564" x="55.345313" y="388.643694" style="stroke: #000000; stroke-width: 0.8"/>
      </g>
     </g>
     <g id="text_26">
      <!-- −200 -->
      <g transform="translate(20.878125 392.442912) scale(0.1 -0.1)">
       <use xlink:href="#DejaVuSans-2212"/>
       <use xlink:href="#DejaVuSans-32" transform="translate(83.789062 0)"/>
       <use xlink:href="#DejaVuSans-30" transform="translate(147.412109 0)"/>
       <use xlink:href="#DejaVuSans-30" transform="translate(211.035156 0)"/>
      </g>
     </g>
    </g>
    <g id="ytick_7">
     <g id="line2d_27">
      <g>
       <use xlink:href="#m924e335564" x="55.345313" y="360.258571" style="stroke: #000000; stroke-width: 0.8"/>
      </g>
     </g>
     <g id="text_27">
      <!-- 0 -->
      <g transform="translate(41.982813 364.05779) scale(0.1 -0.1)">
       <use xlink:href="#DejaVuSans-30"/>
      </g>
     </g>
    </g>
    <g id="ytick_8">
     <g id="line2d_28">
      <g>
       <use xlink:href="#m924e335564" x="55.345313" y="331.873448" style="stroke: #000000; stroke-width: 0.8"/>
      </g>
     </g>
     <g id="text_28">
      <!-- 200 -->
      <g transform="translate(29.257813 335.672667) scale(0.1 -0.1)">
       <use xlink:href="#DejaVuSans-32"/>
       <use xlink:href="#DejaVuSans-30" transform="translate(63.623047 0)"/>
       <use xlink:href="#DejaVuSans-30" transform="translate(127.246094 0)"/>
      </g>
     </g>
    </g>
    <g id="ytick_9">
     <g id="line2d_29">
      <g>
       <use xlink:href="#m924e335564" x="55.345313" y="303.488326" style="stroke: #000000; stroke-width: 0.8"/>
      </g>
     </g>
     <g id="text_29">
      <!-- 400 -->
      <g transform="translate(29.257813 307.287545) scale(0.1 -0.1)">
       <use xlink:href="#DejaVuSans-34"/>
       <use xlink:href="#DejaVuSans-30" transform="translate(63.623047 0)"/>
       <use xlink:href="#DejaVuSans-30" transform="translate(127.246094 0)"/>
      </g>
     </g>
    </g>
    <g id="text_30">
     <!-- co-imf1 -->
     <g transform="translate(14.798438 365.417031) rotate(-90) scale(0.1 -0.1)">
      <use xlink:href="#DejaVuSans-63"/>
      <use xlink:href="#DejaVuSans-6f" transform="translate(54.980469 0)"/>
      <use xlink:href="#DejaVuSans-2d" transform="translate(118.037109 0)"/>
      <use xlink:href="#DejaVuSans-69" transform="translate(154.121094 0)"/>
      <use xlink:href="#DejaVuSans-6d" transform="translate(181.904297 0)"/>
      <use xlink:href="#DejaVuSans-66" transform="translate(279.316406 0)"/>
      <use xlink:href="#DejaVuSans-31" transform="translate(314.521484 0)"/>
     </g>
    </g>
   </g>
   <g id="line2d_30">
    <path d="M 104.529403 317.295446 
L 106.428403 317.769277 
L 108.327403 317.936299 
L 110.226402 317.741048 
L 112.125402 317.186313 
L 114.024402 316.323692 
L 115.923401 315.207989 
L 118.771901 313.17593 
L 122.5699 310.081696 
L 125.4184 307.804064 
L 127.317399 306.585158 
L 128.266899 306.131486 
L 129.216399 305.811233 
L 130.165899 305.646188 
L 131.115398 305.648555 
L 132.064898 305.816764 
L 133.014398 306.124913 
L 134.913398 307.122844 
L 136.812397 308.516247 
L 139.660897 311.068427 
L 142.509396 313.585564 
L 144.408396 314.873549 
L 146.307396 315.83476 
L 152.004395 318.357499 
L 153.903394 319.489277 
L 157.701394 322.164232 
L 160.549893 324.11344 
L 162.448893 325.218348 
L 164.347892 326.117133 
L 166.246892 326.78076 
L 168.145892 327.178829 
L 170.044891 327.304056 
L 171.943891 327.224876 
L 178.59039 326.607534 
L 180.489389 326.723676 
L 182.388389 327.175541 
L 183.337889 327.565071 
L 185.236888 328.703431 
L 187.135888 330.212219 
L 192.832887 335.251119 
L 194.731887 336.561759 
L 196.630886 337.601697 
L 198.529886 338.389431 
L 200.428886 338.929348 
L 202.327885 339.227105 
L 205.176385 339.407812 
L 208.024884 339.589342 
L 209.923884 339.867022 
L 211.822884 340.293973 
L 214.671383 341.204538 
L 220.368382 343.376839 
L 222.267382 343.776743 
L 224.166381 343.801667 
L 225.115881 343.633777 
L 226.065381 343.324065 
L 227.014881 342.857242 
L 227.964381 342.21611 
L 228.91388 341.385022 
L 229.86338 340.354829 
L 230.81288 339.119058 
L 232.71188 336.072231 
L 234.610879 332.385997 
L 237.459379 326.183756 
L 241.257378 317.941775 
L 243.156378 314.385588 
L 244.105878 312.859233 
L 245.055377 311.552518 
L 246.004877 310.498001 
L 246.954377 309.734907 
L 247.903877 309.282261 
L 248.853377 309.112059 
L 249.802877 309.209604 
L 250.752376 309.542481 
L 251.701876 310.091324 
L 252.651376 310.822656 
L 254.550376 312.716581 
L 257.398875 316.114313 
L 259.297875 318.358709 
L 261.196874 320.274662 
L 263.095874 321.685972 
L 264.994874 322.641711 
L 266.893873 323.284755 
L 272.590872 324.914537 
L 274.489872 325.769753 
L 276.388872 326.875361 
L 282.085871 330.429181 
L 283.98487 331.31935 
L 285.88387 331.926086 
L 287.78287 332.194145 
L 289.681869 332.117161 
L 291.580869 331.698908 
L 293.479868 330.953792 
L 295.378868 329.946868 
L 299.176867 327.56114 
L 302.025367 325.87594 
L 303.924367 324.981579 
L 305.823366 324.356289 
L 307.722366 324.067407 
L 309.621366 324.183706 
L 310.570865 324.415117 
L 311.520365 324.773811 
L 312.469865 325.268832 
L 313.419365 325.902257 
L 315.318364 327.55729 
L 317.217364 329.593429 
L 323.863863 337.320293 
L 325.762863 339.084752 
L 327.661862 340.521308 
L 329.560862 341.621593 
L 331.459861 342.429563 
L 334.308361 343.290791 
L 337.15686 343.912793 
L 339.05586 344.121012 
L 340.95486 344.146832 
L 342.853859 343.997648 
L 344.752859 343.683275 
L 347.601358 342.923537 
L 350.449858 341.863758 
L 353.298357 340.581895 
L 362.793356 335.99295 
L 364.692355 335.385309 
L 366.591355 335.009326 
L 368.490355 334.916423 
L 370.389354 335.111629 
L 372.288354 335.54475 
L 375.136853 336.526779 
L 378.934853 338.190762 
L 383.682352 340.292991 
L 388.429851 342.12516 
L 393.17735 343.685787 
L 397.924849 344.982076 
L 404.571348 346.658609 
L 407.419847 347.741391 
L 411.217847 349.503976 
L 419.763345 353.591836 
L 427.359344 356.752761 
L 429.258343 357.791808 
L 431.157343 359.048005 
L 434.005843 361.320484 
L 442.551341 368.650415 
L 444.450341 369.636776 
L 445.39984 369.914644 
L 446.34934 370.025856 
L 447.29884 369.956411 
L 448.24834 369.71329 
L 449.19784 369.284179 
L 450.14734 368.671247 
L 451.096839 367.869051 
L 452.046339 366.880472 
L 453.945339 364.37888 
L 455.844338 361.317665 
L 458.692838 356.048679 
L 463.440337 346.8776 
L 465.339337 343.585917 
L 467.238336 340.783834 
L 468.187836 339.623207 
L 469.137336 338.642407 
L 470.086836 337.852817 
L 471.036336 337.244912 
L 471.985835 336.828602 
L 472.935335 336.5981 
L 473.884835 336.556312 
L 474.834335 336.704155 
L 475.783835 337.041815 
L 476.733335 337.563607 
L 477.682834 338.26221 
L 479.581834 340.095982 
L 481.480834 342.398863 
L 484.329333 346.411276 
L 490.026332 354.693445 
L 492.874832 358.288896 
L 494.773831 360.350305 
L 496.672831 362.121149 
L 498.571831 363.615565 
L 500.47083 364.850559 
L 502.36983 365.843711 
L 504.26883 366.612257 
L 506.167829 367.173375 
L 508.066829 367.5489 
L 510.915328 367.823379 
L 513.763828 367.834675 
L 517.561827 367.593866 
L 525.157826 367.01491 
L 528.955825 367.02806 
L 539.400323 367.382306 
L 542.248823 367.700683 
L 544.147822 368.149985 
L 546.046822 368.861256 
L 547.945821 369.863904 
L 549.844821 371.145169 
L 556.49132 376.107769 
L 558.39032 377.140818 
L 560.289319 377.880995 
L 562.188319 378.354064 
L 564.087318 378.630449 
L 565.986318 378.739997 
L 567.885318 378.6605 
L 569.784317 378.360115 
L 571.683317 377.781689 
L 573.582317 376.876149 
L 577.380316 374.508153 
L 579.279316 373.408413 
L 581.178315 372.524815 
L 583.077315 371.896867 
L 592.572313 369.277942 
L 597.319812 368.00337 
L 600.168312 367.445026 
L 602.067311 367.266109 
L 603.966311 367.310472 
L 605.865311 367.636594 
L 607.76431 368.302513 
L 609.66331 369.363889 
L 611.56231 370.826306 
L 613.461309 372.593355 
L 617.259309 376.582572 
L 620.107808 379.528062 
L 622.006808 381.279464 
L 623.905807 382.791825 
L 625.804807 384.019115 
L 627.703807 384.917202 
L 629.602806 385.43941 
L 631.501806 385.56501 
L 633.400806 385.369138 
L 635.299805 384.953199 
L 643.845304 382.737171 
L 645.744303 382.591656 
L 647.643303 382.712877 
L 649.542303 383.122754 
L 651.441302 383.814903 
L 653.340302 384.781706 
L 655.239302 386.01598 
L 657.138301 387.502971 
L 659.986801 390.106407 
L 664.7343 394.55269 
L 666.6333 396.008345 
L 668.532299 397.102016 
L 670.431299 397.760948 
L 672.330298 398.040659 
L 674.229298 398.025113 
L 676.128298 397.795554 
L 678.976797 397.206461 
L 683.724296 396.180884 
L 686.572796 395.911551 
L 689.421295 395.956298 
L 693.219295 396.330401 
L 697.017294 396.726985 
L 698.916294 396.727622 
L 700.815293 396.465852 
L 701.764793 396.203055 
L 702.714293 395.811572 
L 703.663793 395.273902 
L 704.613292 394.560482 
L 705.562792 393.646833 
L 706.512292 392.518972 
L 707.461792 391.153153 
L 708.411292 389.54381 
L 709.360792 387.671776 
L 710.310291 385.530467 
L 712.209291 380.436418 
L 714.108291 374.483664 
L 716.95679 364.560471 
L 722.653789 344.234645 
L 725.502289 335.065771 
L 727.401288 329.565985 
L 729.300288 324.676394 
L 731.199288 320.531687 
L 732.148787 318.781391 
L 733.098287 317.268198 
L 734.047787 316.009031 
L 734.997287 315.021093 
L 735.946787 314.321338 
L 736.896287 313.914987 
L 737.845786 313.802805 
L 738.795286 313.96324 
L 739.744786 314.395414 
L 740.694286 315.08137 
L 741.643786 316.012949 
L 742.593285 317.17835 
L 743.542785 318.566629 
L 745.441785 321.967453 
L 747.340785 326.126807 
L 749.239784 330.956113 
L 751.138784 336.366702 
L 753.987283 345.377746 
L 757.785283 358.456902 
L 760.633782 368.077366 
L 762.532782 373.722429 
L 763.482282 376.165696 
L 764.431781 378.289664 
L 765.381281 380.04373 
L 766.330781 381.378024 
L 767.280281 382.24616 
L 768.229781 382.600311 
L 769.179281 382.449271 
L 770.12878 381.791476 
L 771.07828 380.644309 
L 772.02778 379.01031 
L 772.97728 376.901462 
L 773.92678 374.325393 
L 774.87628 371.291044 
L 775.825779 367.807168 
L 777.724779 359.523539 
L 779.623779 349.613476 
L 782.472278 332.842894 
L 785.320778 316.319055 
L 787.219777 306.922392 
L 788.169277 303.043524 
L 789.118777 299.859408 
L 790.068277 297.457007 
L 791.017777 295.851404 
L 791.967276 295.018604 
L 792.916776 294.955455 
L 793.866276 295.642777 
L 794.815776 297.067678 
L 795.765276 299.219539 
L 796.714775 302.08297 
L 797.664275 305.642295 
L 798.613775 309.878145 
L 800.512775 320.00939 
L 804.310774 342.173116 
L 806.209774 351.933915 
L 807.159274 356.162722 
L 808.108773 359.841143 
L 809.058273 362.948446 
L 810.007773 365.519049 
L 810.957273 367.625637 
L 811.906773 369.319931 
L 812.856272 370.671291 
L 813.805772 371.738231 
L 814.755272 372.582601 
L 815.704772 373.265036 
L 817.603772 374.230284 
L 819.502771 374.739503 
L 821.401771 374.877191 
L 823.300771 374.725733 
L 825.19977 374.367011 
L 833.745269 372.398041 
L 835.644268 372.36991 
L 837.543268 372.654107 
L 839.442268 373.227212 
L 841.341267 374.028388 
L 844.189767 375.525943 
L 849.886766 378.624487 
L 851.785765 379.451417 
L 853.684765 380.042353 
L 855.583765 380.306779 
L 857.482764 380.183855 
L 858.432264 379.955039 
L 860.331264 379.136793 
L 862.230263 377.870655 
L 864.129263 376.247166 
L 866.977762 373.344968 
L 875.523261 364.054372 
L 877.422261 362.359818 
L 879.32126 360.952073 
L 881.22026 359.897841 
L 883.119259 359.215628 
L 885.018259 358.838698 
L 886.917259 358.686967 
L 889.765758 358.719327 
L 894.513257 358.812089 
L 896.412257 358.637134 
L 898.311257 358.228209 
L 900.210256 357.581814 
L 903.058756 356.322263 
L 908.755755 353.676304 
L 910.654754 353.023352 
L 912.553754 352.603237 
L 914.452754 352.480808 
L 916.351753 352.720509 
L 918.250753 353.38858 
L 919.200253 353.901172 
L 921.099252 355.281562 
L 924.897252 358.483626 
L 926.796251 359.681073 
L 927.745751 360.053959 
L 928.695251 360.233919 
L 929.644751 360.185755 
L 930.594251 359.873623 
L 931.543751 359.267586 
L 932.49325 358.360691 
L 933.44275 357.194445 
L 935.34175 354.354814 
L 938.190249 349.759909 
L 939.139749 348.402646 
L 940.089249 347.257011 
L 941.038749 346.390559 
L 941.988249 345.84963 
L 942.937748 345.601982 
L 943.887248 345.5745 
L 945.786248 345.958278 
L 948.634747 346.745956 
L 949.584247 346.850325 
L 950.533747 346.787293 
L 952.432747 346.241563 
L 955.281246 345.236026 
L 956.230746 345.09103 
L 957.180246 345.088434 
L 958.129746 345.249347 
L 959.079245 345.57805 
L 960.028745 346.091246 
L 960.978245 346.793845 
L 961.927745 347.69764 
L 963.826745 349.971062 
L 967.624744 354.849267 
L 969.523744 356.939968 
L 971.422743 358.640415 
L 973.321743 359.884357 
L 975.220742 360.752895 
L 977.119742 361.358343 
L 983.766241 363.077544 
L 985.665241 363.851594 
L 988.51374 365.294551 
L 992.311739 367.543957 
L 998.958238 371.542874 
L 1001.806738 372.956592 
L 1003.705737 373.706514 
L 1005.604737 374.253839 
L 1007.503737 374.550668 
L 1009.402736 374.549104 
L 1011.301736 374.199726 
L 1013.200735 373.458409 
L 1015.099735 372.341974 
L 1016.998735 370.912567 
L 1018.897734 369.239147 
L 1021.746234 366.412701 
L 1025.544233 362.633457 
L 1027.443233 361.065727 
L 1029.342232 359.908586 
L 1030.291732 359.530735 
L 1031.241232 359.306309 
L 1032.190732 359.25062 
L 1033.140232 359.346664 
L 1034.089732 359.594786 
L 1035.039231 359.977707 
L 1036.938231 361.11867 
L 1038.837231 362.687107 
L 1041.68573 365.54677 
L 1046.433229 370.453145 
L 1050.231229 374.082494 
L 1054.029228 377.34365 
L 1057.827227 380.242378 
L 1062.574726 383.550766 
L 1068.271725 387.305673 
L 1071.120225 388.967753 
L 1073.968724 390.327827 
L 1075.867724 391.006936 
L 1077.766724 391.462526 
L 1079.665723 391.657156 
L 1081.564723 391.567506 
L 1083.463722 391.208047 
L 1085.362722 390.603685 
L 1087.261722 389.77703 
L 1088.211222 389.293063 
L 1088.211222 389.293063 
" clip-path="url(#p06812d54c7)" style="fill: none; stroke: #f27f19; stroke-width: 1.5; stroke-linecap: square"/>
   </g>
   <g id="patch_13">
    <path d="M 55.345313 403.22 
L 55.345313 289.8 
" style="fill: none; stroke: #000000; stroke-width: 0.8; stroke-linejoin: miter; stroke-linecap: square"/>
   </g>
   <g id="patch_14">
    <path d="M 1137.395313 403.22 
L 1137.395313 289.8 
" style="fill: none; stroke: #000000; stroke-width: 0.8; stroke-linejoin: miter; stroke-linecap: square"/>
   </g>
   <g id="patch_15">
    <path d="M 55.345313 403.22 
L 1137.395313 403.22 
" style="fill: none; stroke: #000000; stroke-width: 0.8; stroke-linejoin: miter; stroke-linecap: square"/>
   </g>
   <g id="patch_16">
    <path d="M 55.345313 289.8 
L 1137.395313 289.8 
" style="fill: none; stroke: #000000; stroke-width: 0.8; stroke-linejoin: miter; stroke-linecap: square"/>
   </g>
  </g>
  <g id="axes_4">
   <g id="patch_17">
    <path d="M 55.345313 544.52 
L 1137.395313 544.52 
L 1137.395313 431.1 
L 55.345313 431.1 
z
" style="fill: #ffffff"/>
   </g>
   <g id="matplotlib.axis_7">
    <g id="xtick_19">
     <g id="line2d_31">
      <g>
       <use xlink:href="#m75298c69c8" x="104.529403" y="544.52" style="stroke: #000000; stroke-width: 0.8"/>
      </g>
     </g>
     <g id="text_31">
      <!-- 0 -->
      <g transform="translate(101.348153 559.118437) scale(0.1 -0.1)">
       <use xlink:href="#DejaVuSans-30"/>
      </g>
     </g>
    </g>
    <g id="xtick_20">
     <g id="line2d_32">
      <g>
       <use xlink:href="#m75298c69c8" x="294.429368" y="544.52" style="stroke: #000000; stroke-width: 0.8"/>
      </g>
     </g>
     <g id="text_32">
      <!-- 200 -->
      <g transform="translate(284.885618 559.118437) scale(0.1 -0.1)">
       <use xlink:href="#DejaVuSans-32"/>
       <use xlink:href="#DejaVuSans-30" transform="translate(63.623047 0)"/>
       <use xlink:href="#DejaVuSans-30" transform="translate(127.246094 0)"/>
      </g>
     </g>
    </g>
    <g id="xtick_21">
     <g id="line2d_33">
      <g>
       <use xlink:href="#m75298c69c8" x="484.329333" y="544.52" style="stroke: #000000; stroke-width: 0.8"/>
      </g>
     </g>
     <g id="text_33">
      <!-- 400 -->
      <g transform="translate(474.785583 559.118437) scale(0.1 -0.1)">
       <use xlink:href="#DejaVuSans-34"/>
       <use xlink:href="#DejaVuSans-30" transform="translate(63.623047 0)"/>
       <use xlink:href="#DejaVuSans-30" transform="translate(127.246094 0)"/>
      </g>
     </g>
    </g>
    <g id="xtick_22">
     <g id="line2d_34">
      <g>
       <use xlink:href="#m75298c69c8" x="674.229298" y="544.52" style="stroke: #000000; stroke-width: 0.8"/>
      </g>
     </g>
     <g id="text_34">
      <!-- 600 -->
      <g transform="translate(664.685548 559.118437) scale(0.1 -0.1)">
       <use xlink:href="#DejaVuSans-36"/>
       <use xlink:href="#DejaVuSans-30" transform="translate(63.623047 0)"/>
       <use xlink:href="#DejaVuSans-30" transform="translate(127.246094 0)"/>
      </g>
     </g>
    </g>
    <g id="xtick_23">
     <g id="line2d_35">
      <g>
       <use xlink:href="#m75298c69c8" x="864.129263" y="544.52" style="stroke: #000000; stroke-width: 0.8"/>
      </g>
     </g>
     <g id="text_35">
      <!-- 800 -->
      <g transform="translate(854.585513 559.118437) scale(0.1 -0.1)">
       <use xlink:href="#DejaVuSans-38"/>
       <use xlink:href="#DejaVuSans-30" transform="translate(63.623047 0)"/>
       <use xlink:href="#DejaVuSans-30" transform="translate(127.246094 0)"/>
      </g>
     </g>
    </g>
    <g id="xtick_24">
     <g id="line2d_36">
      <g>
       <use xlink:href="#m75298c69c8" x="1054.029228" y="544.52" style="stroke: #000000; stroke-width: 0.8"/>
      </g>
     </g>
     <g id="text_36">
      <!-- 1000 -->
      <g transform="translate(1041.304228 559.118437) scale(0.1 -0.1)">
       <use xlink:href="#DejaVuSans-31"/>
       <use xlink:href="#DejaVuSans-30" transform="translate(63.623047 0)"/>
       <use xlink:href="#DejaVuSans-30" transform="translate(127.246094 0)"/>
       <use xlink:href="#DejaVuSans-30" transform="translate(190.869141 0)"/>
      </g>
     </g>
    </g>
   </g>
   <g id="matplotlib.axis_8">
    <g id="ytick_10">
     <g id="line2d_37">
      <g>
       <use xlink:href="#m924e335564" x="55.345313" y="543.321717" style="stroke: #000000; stroke-width: 0.8"/>
      </g>
     </g>
     <g id="text_37">
      <!-- 700 -->
      <g transform="translate(29.257813 547.120936) scale(0.1 -0.1)">
       <defs>
        <path id="DejaVuSans-37" d="M 525 4666 
L 3525 4666 
L 3525 4397 
L 1831 0 
L 1172 0 
L 2766 4134 
L 525 4134 
L 525 4666 
z
" transform="scale(0.015625)"/>
       </defs>
       <use xlink:href="#DejaVuSans-37"/>
       <use xlink:href="#DejaVuSans-30" transform="translate(63.623047 0)"/>
       <use xlink:href="#DejaVuSans-30" transform="translate(127.246094 0)"/>
      </g>
     </g>
    </g>
    <g id="ytick_11">
     <g id="line2d_38">
      <g>
       <use xlink:href="#m924e335564" x="55.345313" y="516.673381" style="stroke: #000000; stroke-width: 0.8"/>
      </g>
     </g>
     <g id="text_38">
      <!-- 800 -->
      <g transform="translate(29.257813 520.472599) scale(0.1 -0.1)">
       <use xlink:href="#DejaVuSans-38"/>
       <use xlink:href="#DejaVuSans-30" transform="translate(63.623047 0)"/>
       <use xlink:href="#DejaVuSans-30" transform="translate(127.246094 0)"/>
      </g>
     </g>
    </g>
    <g id="ytick_12">
     <g id="line2d_39">
      <g>
       <use xlink:href="#m924e335564" x="55.345313" y="490.025044" style="stroke: #000000; stroke-width: 0.8"/>
      </g>
     </g>
     <g id="text_39">
      <!-- 900 -->
      <g transform="translate(29.257813 493.824263) scale(0.1 -0.1)">
       <defs>
        <path id="DejaVuSans-39" d="M 703 97 
L 703 672 
Q 941 559 1184 500 
Q 1428 441 1663 441 
Q 2288 441 2617 861 
Q 2947 1281 2994 2138 
Q 2813 1869 2534 1725 
Q 2256 1581 1919 1581 
Q 1219 1581 811 2004 
Q 403 2428 403 3163 
Q 403 3881 828 4315 
Q 1253 4750 1959 4750 
Q 2769 4750 3195 4129 
Q 3622 3509 3622 2328 
Q 3622 1225 3098 567 
Q 2575 -91 1691 -91 
Q 1453 -91 1209 -44 
Q 966 3 703 97 
z
M 1959 2075 
Q 2384 2075 2632 2365 
Q 2881 2656 2881 3163 
Q 2881 3666 2632 3958 
Q 2384 4250 1959 4250 
Q 1534 4250 1286 3958 
Q 1038 3666 1038 3163 
Q 1038 2656 1286 2365 
Q 1534 2075 1959 2075 
z
" transform="scale(0.015625)"/>
       </defs>
       <use xlink:href="#DejaVuSans-39"/>
       <use xlink:href="#DejaVuSans-30" transform="translate(63.623047 0)"/>
       <use xlink:href="#DejaVuSans-30" transform="translate(127.246094 0)"/>
      </g>
     </g>
    </g>
    <g id="ytick_13">
     <g id="line2d_40">
      <g>
       <use xlink:href="#m924e335564" x="55.345313" y="463.376708" style="stroke: #000000; stroke-width: 0.8"/>
      </g>
     </g>
     <g id="text_40">
      <!-- 1000 -->
      <g transform="translate(22.895313 467.175926) scale(0.1 -0.1)">
       <use xlink:href="#DejaVuSans-31"/>
       <use xlink:href="#DejaVuSans-30" transform="translate(63.623047 0)"/>
       <use xlink:href="#DejaVuSans-30" transform="translate(127.246094 0)"/>
       <use xlink:href="#DejaVuSans-30" transform="translate(190.869141 0)"/>
      </g>
     </g>
    </g>
    <g id="ytick_14">
     <g id="line2d_41">
      <g>
       <use xlink:href="#m924e335564" x="55.345313" y="436.728371" style="stroke: #000000; stroke-width: 0.8"/>
      </g>
     </g>
     <g id="text_41">
      <!-- 1100 -->
      <g transform="translate(22.895313 440.52759) scale(0.1 -0.1)">
       <use xlink:href="#DejaVuSans-31"/>
       <use xlink:href="#DejaVuSans-31" transform="translate(63.623047 0)"/>
       <use xlink:href="#DejaVuSans-30" transform="translate(127.246094 0)"/>
       <use xlink:href="#DejaVuSans-30" transform="translate(190.869141 0)"/>
      </g>
     </g>
    </g>
    <g id="text_42">
     <!-- co-imf2 -->
     <g transform="translate(16.815625 506.717031) rotate(-90) scale(0.1 -0.1)">
      <use xlink:href="#DejaVuSans-63"/>
      <use xlink:href="#DejaVuSans-6f" transform="translate(54.980469 0)"/>
      <use xlink:href="#DejaVuSans-2d" transform="translate(118.037109 0)"/>
      <use xlink:href="#DejaVuSans-69" transform="translate(154.121094 0)"/>
      <use xlink:href="#DejaVuSans-6d" transform="translate(181.904297 0)"/>
      <use xlink:href="#DejaVuSans-66" transform="translate(279.316406 0)"/>
      <use xlink:href="#DejaVuSans-32" transform="translate(314.521484 0)"/>
     </g>
    </g>
   </g>
   <g id="line2d_42">
    <path d="M 104.529403 538.565408 
L 126.367899 539.055449 
L 148.206395 539.318216 
L 169.095391 539.351743 
L 189.984388 539.166782 
L 210.873384 538.757901 
L 231.76238 538.119668 
L 251.701876 537.291505 
L 271.641373 536.244694 
L 291.580869 534.97451 
L 311.520365 533.47623 
L 330.510362 531.832912 
L 349.500358 529.974338 
L 368.490355 527.896428 
L 387.480351 525.5951 
L 406.470348 523.066275 
L 425.460344 520.30587 
L 443.500841 517.465269 
L 461.541337 514.408486 
L 479.581834 511.132023 
L 497.622331 507.632381 
L 515.662827 503.90606 
L 533.703324 499.949563 
L 551.743821 495.759391 
L 569.784317 491.332044 
L 587.824814 486.66434 
L 606.814811 481.512288 
L 633.400806 474.037172 
L 673.279798 462.821843 
L 692.269795 457.723788 
L 708.411292 453.622 
L 722.653789 450.233986 
L 735.946787 447.308188 
L 748.290284 444.827898 
L 759.684282 442.766103 
L 770.12878 441.088045 
L 780.573278 439.631013 
L 791.017777 438.413486 
L 800.512775 437.528191 
L 810.007773 436.86628 
L 819.502771 436.439739 
L 828.04827 436.267 
L 836.593768 436.303357 
L 845.139267 436.557547 
L 853.684765 437.038308 
L 862.230263 437.754376 
L 870.775762 438.711698 
L 879.32126 439.899506 
L 888.816258 441.461437 
L 898.311257 443.246747 
L 908.755755 445.429684 
L 921.099252 448.247806 
L 936.29125 451.969821 
L 960.978245 458.298946 
L 982.816741 463.807145 
L 997.059238 467.162263 
L 1008.453236 469.626556 
L 1018.897734 471.663424 
L 1028.392733 473.294444 
L 1036.938231 474.555757 
L 1045.483729 475.597544 
L 1054.029228 476.39686 
L 1061.625227 476.885263 
L 1069.221225 477.150323 
L 1076.817224 477.192919 
L 1084.413222 477.023424 
L 1088.211222 476.862497 
L 1088.211222 476.862497 
" clip-path="url(#p85b985c6fc)" style="fill: none; stroke: #f27f19; stroke-width: 1.5; stroke-linecap: square"/>
   </g>
   <g id="patch_18">
    <path d="M 55.345313 544.52 
L 55.345313 431.1 
" style="fill: none; stroke: #000000; stroke-width: 0.8; stroke-linejoin: miter; stroke-linecap: square"/>
   </g>
   <g id="patch_19">
    <path d="M 1137.395313 544.52 
L 1137.395313 431.1 
" style="fill: none; stroke: #000000; stroke-width: 0.8; stroke-linejoin: miter; stroke-linecap: square"/>
   </g>
   <g id="patch_20">
    <path d="M 55.345313 544.52 
L 1137.395313 544.52 
" style="fill: none; stroke: #000000; stroke-width: 0.8; stroke-linejoin: miter; stroke-linecap: square"/>
   </g>
   <g id="patch_21">
    <path d="M 55.345313 431.1 
L 1137.395313 431.1 
" style="fill: none; stroke: #000000; stroke-width: 0.8; stroke-linejoin: miter; stroke-linecap: square"/>
   </g>
  </g>
 </g>
 <defs>
  <clipPath id="p686da31b6e">
   <rect x="55.345313" y="7.2" width="1082.05" height="113.42"/>
  </clipPath>
  <clipPath id="p055088cd33">
   <rect x="55.345313" y="148.5" width="1082.05" height="113.42"/>
  </clipPath>
  <clipPath id="p06812d54c7">
   <rect x="55.345313" y="289.8" width="1082.05" height="113.42"/>
  </clipPath>
  <clipPath id="p85b985c6fc">
   <rect x="55.345313" y="431.1" width="1082.05" height="113.42"/>
  </clipPath>
 </defs>
</svg>
