<?xml version="1.0" encoding="utf-8" standalone="no"?>
<!DOCTYPE svg PUBLIC "-//W3C//DTD SVG 1.1//EN"
  "http://www.w3.org/Graphics/SVG/1.1/DTD/svg11.dtd">
<svg xmlns:xlink="http://www.w3.org/1999/xlink" width="1144.505312pt" height="856.398125pt" viewBox="0 0 1144.505312 856.398125" xmlns="http://www.w3.org/2000/svg" version="1.1">
 <metadata>
  <rdf:RDF xmlns:dc="http://purl.org/dc/elements/1.1/" xmlns:cc="http://creativecommons.org/ns#" xmlns:rdf="http://www.w3.org/1999/02/22-rdf-syntax-ns#">
   <cc:Work>
    <dc:type rdf:resource="http://purl.org/dc/dcmitype/StillImage"/>
    <dc:date>2025-04-14T11:11:14.137720</dc:date>
    <dc:format>image/svg+xml</dc:format>
    <dc:creator>
     <cc:Agent>
      <dc:title>Matplotlib v3.10.1, https://matplotlib.org/</dc:title>
     </cc:Agent>
    </dc:creator>
   </cc:Work>
  </rdf:RDF>
 </metadata>
 <defs>
  <style type="text/css">*{stroke-linejoin: round; stroke-linecap: butt}</style>
 </defs>
 <g id="figure_1">
  <g id="patch_1">
   <path d="M 0 856.398125 
L 1144.505312 856.398125 
L 1144.505312 0 
L 0 0 
z
" style="fill: #ffffff"/>
  </g>
  <g id="axes_1">
   <g id="patch_2">
    <path d="M 55.345313 98.460218 
L 1137.305313 98.460218 
L 1137.305313 7.2 
L 55.345313 7.2 
z
" style="fill: #ffffff"/>
   </g>
   <g id="matplotlib.axis_1">
    <g id="xtick_1">
     <g id="line2d_1">
      <defs>
       <path id="mc5dfc2854d" d="M 0 0 
L 0 3.5 
" style="stroke: #000000; stroke-width: 0.8"/>
      </defs>
      <g>
       <use xlink:href="#mc5dfc2854d" x="104.525313" y="98.460218" style="stroke: #000000; stroke-width: 0.8"/>
      </g>
     </g>
     <g id="text_1">
      <!-- 0 -->
      <g transform="translate(101.344063 113.058656) scale(0.1 -0.1)">
       <defs>
        <path id="DejaVuSans-30" d="M 2034 4250 
Q 1547 4250 1301 3770 
Q 1056 3291 1056 2328 
Q 1056 1369 1301 889 
Q 1547 409 2034 409 
Q 2525 409 2770 889 
Q 3016 1369 3016 2328 
Q 3016 3291 2770 3770 
Q 2525 4250 2034 4250 
z
M 2034 4750 
Q 2819 4750 3233 4129 
Q 3647 3509 3647 2328 
Q 3647 1150 3233 529 
Q 2819 -91 2034 -91 
Q 1250 -91 836 529 
Q 422 1150 422 2328 
Q 422 3509 836 4129 
Q 1250 4750 2034 4750 
z
" transform="scale(0.015625)"/>
       </defs>
       <use xlink:href="#DejaVuSans-30"/>
      </g>
     </g>
    </g>
    <g id="xtick_2">
     <g id="line2d_2">
      <g>
       <use xlink:href="#mc5dfc2854d" x="329.605404" y="98.460218" style="stroke: #000000; stroke-width: 0.8"/>
      </g>
     </g>
     <g id="text_2">
      <!-- 100 -->
      <g transform="translate(320.061654 113.058656) scale(0.1 -0.1)">
       <defs>
        <path id="DejaVuSans-31" d="M 794 531 
L 1825 531 
L 1825 4091 
L 703 3866 
L 703 4441 
L 1819 4666 
L 2450 4666 
L 2450 531 
L 3481 531 
L 3481 0 
L 794 0 
L 794 531 
z
" transform="scale(0.015625)"/>
       </defs>
       <use xlink:href="#DejaVuSans-31"/>
       <use xlink:href="#DejaVuSans-30" transform="translate(63.623047 0)"/>
       <use xlink:href="#DejaVuSans-30" transform="translate(127.246094 0)"/>
      </g>
     </g>
    </g>
    <g id="xtick_3">
     <g id="line2d_3">
      <g>
       <use xlink:href="#mc5dfc2854d" x="554.685496" y="98.460218" style="stroke: #000000; stroke-width: 0.8"/>
      </g>
     </g>
     <g id="text_3">
      <!-- 200 -->
      <g transform="translate(545.141746 113.058656) scale(0.1 -0.1)">
       <defs>
        <path id="DejaVuSans-32" d="M 1228 531 
L 3431 531 
L 3431 0 
L 469 0 
L 469 531 
Q 828 903 1448 1529 
Q 2069 2156 2228 2338 
Q 2531 2678 2651 2914 
Q 2772 3150 2772 3378 
Q 2772 3750 2511 3984 
Q 2250 4219 1831 4219 
Q 1534 4219 1204 4116 
Q 875 4013 500 3803 
L 500 4441 
Q 881 4594 1212 4672 
Q 1544 4750 1819 4750 
Q 2544 4750 2975 4387 
Q 3406 4025 3406 3419 
Q 3406 3131 3298 2873 
Q 3191 2616 2906 2266 
Q 2828 2175 2409 1742 
Q 1991 1309 1228 531 
z
" transform="scale(0.015625)"/>
       </defs>
       <use xlink:href="#DejaVuSans-32"/>
       <use xlink:href="#DejaVuSans-30" transform="translate(63.623047 0)"/>
       <use xlink:href="#DejaVuSans-30" transform="translate(127.246094 0)"/>
      </g>
     </g>
    </g>
    <g id="xtick_4">
     <g id="line2d_4">
      <g>
       <use xlink:href="#mc5dfc2854d" x="779.765587" y="98.460218" style="stroke: #000000; stroke-width: 0.8"/>
      </g>
     </g>
     <g id="text_4">
      <!-- 300 -->
      <g transform="translate(770.221837 113.058656) scale(0.1 -0.1)">
       <defs>
        <path id="DejaVuSans-33" d="M 2597 2516 
Q 3050 2419 3304 2112 
Q 3559 1806 3559 1356 
Q 3559 666 3084 287 
Q 2609 -91 1734 -91 
Q 1441 -91 1130 -33 
Q 819 25 488 141 
L 488 750 
Q 750 597 1062 519 
Q 1375 441 1716 441 
Q 2309 441 2620 675 
Q 2931 909 2931 1356 
Q 2931 1769 2642 2001 
Q 2353 2234 1838 2234 
L 1294 2234 
L 1294 2753 
L 1863 2753 
Q 2328 2753 2575 2939 
Q 2822 3125 2822 3475 
Q 2822 3834 2567 4026 
Q 2313 4219 1838 4219 
Q 1578 4219 1281 4162 
Q 984 4106 628 3988 
L 628 4550 
Q 988 4650 1302 4700 
Q 1616 4750 1894 4750 
Q 2613 4750 3031 4423 
Q 3450 4097 3450 3541 
Q 3450 3153 3228 2886 
Q 3006 2619 2597 2516 
z
" transform="scale(0.015625)"/>
       </defs>
       <use xlink:href="#DejaVuSans-33"/>
       <use xlink:href="#DejaVuSans-30" transform="translate(63.623047 0)"/>
       <use xlink:href="#DejaVuSans-30" transform="translate(127.246094 0)"/>
      </g>
     </g>
    </g>
    <g id="xtick_5">
     <g id="line2d_5">
      <g>
       <use xlink:href="#mc5dfc2854d" x="1004.845679" y="98.460218" style="stroke: #000000; stroke-width: 0.8"/>
      </g>
     </g>
     <g id="text_5">
      <!-- 400 -->
      <g transform="translate(995.301929 113.058656) scale(0.1 -0.1)">
       <defs>
        <path id="DejaVuSans-34" d="M 2419 4116 
L 825 1625 
L 2419 1625 
L 2419 4116 
z
M 2253 4666 
L 3047 4666 
L 3047 1625 
L 3713 1625 
L 3713 1100 
L 3047 1100 
L 3047 0 
L 2419 0 
L 2419 1100 
L 313 1100 
L 313 1709 
L 2253 4666 
z
" transform="scale(0.015625)"/>
       </defs>
       <use xlink:href="#DejaVuSans-34"/>
       <use xlink:href="#DejaVuSans-30" transform="translate(63.623047 0)"/>
       <use xlink:href="#DejaVuSans-30" transform="translate(127.246094 0)"/>
      </g>
     </g>
    </g>
   </g>
   <g id="matplotlib.axis_2">
    <g id="ytick_1">
     <g id="line2d_6">
      <defs>
       <path id="m2e8c526e0a" d="M 0 0 
L -3.5 0 
" style="stroke: #000000; stroke-width: 0.8"/>
      </defs>
      <g>
       <use xlink:href="#m2e8c526e0a" x="55.345313" y="57.978873" style="stroke: #000000; stroke-width: 0.8"/>
      </g>
     </g>
     <g id="text_6">
      <!-- 1000 -->
      <g transform="translate(22.895313 61.778092) scale(0.1 -0.1)">
       <use xlink:href="#DejaVuSans-31"/>
       <use xlink:href="#DejaVuSans-30" transform="translate(63.623047 0)"/>
       <use xlink:href="#DejaVuSans-30" transform="translate(127.246094 0)"/>
       <use xlink:href="#DejaVuSans-30" transform="translate(190.869141 0)"/>
      </g>
     </g>
    </g>
    <g id="ytick_2">
     <g id="line2d_7">
      <g>
       <use xlink:href="#m2e8c526e0a" x="55.345313" y="16.326695" style="stroke: #000000; stroke-width: 0.8"/>
      </g>
     </g>
     <g id="text_7">
      <!-- 1500 -->
      <g transform="translate(22.895313 20.125914) scale(0.1 -0.1)">
       <defs>
        <path id="DejaVuSans-35" d="M 691 4666 
L 3169 4666 
L 3169 4134 
L 1269 4134 
L 1269 2991 
Q 1406 3038 1543 3061 
Q 1681 3084 1819 3084 
Q 2600 3084 3056 2656 
Q 3513 2228 3513 1497 
Q 3513 744 3044 326 
Q 2575 -91 1722 -91 
Q 1428 -91 1123 -41 
Q 819 9 494 109 
L 494 744 
Q 775 591 1075 516 
Q 1375 441 1709 441 
Q 2250 441 2565 725 
Q 2881 1009 2881 1497 
Q 2881 1984 2565 2268 
Q 2250 2553 1709 2553 
Q 1456 2553 1204 2497 
Q 953 2441 691 2322 
L 691 4666 
z
" transform="scale(0.015625)"/>
       </defs>
       <use xlink:href="#DejaVuSans-31"/>
       <use xlink:href="#DejaVuSans-35" transform="translate(63.623047 0)"/>
       <use xlink:href="#DejaVuSans-30" transform="translate(127.246094 0)"/>
       <use xlink:href="#DejaVuSans-30" transform="translate(190.869141 0)"/>
      </g>
     </g>
    </g>
    <g id="text_8">
     <!-- Original data -->
     <g transform="translate(14.798438 85.247297) rotate(-90) scale(0.1 -0.1)">
      <defs>
       <path id="DejaVuSans-4f" d="M 2522 4238 
Q 1834 4238 1429 3725 
Q 1025 3213 1025 2328 
Q 1025 1447 1429 934 
Q 1834 422 2522 422 
Q 3209 422 3611 934 
Q 4013 1447 4013 2328 
Q 4013 3213 3611 3725 
Q 3209 4238 2522 4238 
z
M 2522 4750 
Q 3503 4750 4090 4092 
Q 4678 3434 4678 2328 
Q 4678 1225 4090 567 
Q 3503 -91 2522 -91 
Q 1538 -91 948 565 
Q 359 1222 359 2328 
Q 359 3434 948 4092 
Q 1538 4750 2522 4750 
z
" transform="scale(0.015625)"/>
       <path id="DejaVuSans-72" d="M 2631 2963 
Q 2534 3019 2420 3045 
Q 2306 3072 2169 3072 
Q 1681 3072 1420 2755 
Q 1159 2438 1159 1844 
L 1159 0 
L 581 0 
L 581 3500 
L 1159 3500 
L 1159 2956 
Q 1341 3275 1631 3429 
Q 1922 3584 2338 3584 
Q 2397 3584 2469 3576 
Q 2541 3569 2628 3553 
L 2631 2963 
z
" transform="scale(0.015625)"/>
       <path id="DejaVuSans-69" d="M 603 3500 
L 1178 3500 
L 1178 0 
L 603 0 
L 603 3500 
z
M 603 4863 
L 1178 4863 
L 1178 4134 
L 603 4134 
L 603 4863 
z
" transform="scale(0.015625)"/>
       <path id="DejaVuSans-67" d="M 2906 1791 
Q 2906 2416 2648 2759 
Q 2391 3103 1925 3103 
Q 1463 3103 1205 2759 
Q 947 2416 947 1791 
Q 947 1169 1205 825 
Q 1463 481 1925 481 
Q 2391 481 2648 825 
Q 2906 1169 2906 1791 
z
M 3481 434 
Q 3481 -459 3084 -895 
Q 2688 -1331 1869 -1331 
Q 1566 -1331 1297 -1286 
Q 1028 -1241 775 -1147 
L 775 -588 
Q 1028 -725 1275 -790 
Q 1522 -856 1778 -856 
Q 2344 -856 2625 -561 
Q 2906 -266 2906 331 
L 2906 616 
Q 2728 306 2450 153 
Q 2172 0 1784 0 
Q 1141 0 747 490 
Q 353 981 353 1791 
Q 353 2603 747 3093 
Q 1141 3584 1784 3584 
Q 2172 3584 2450 3431 
Q 2728 3278 2906 2969 
L 2906 3500 
L 3481 3500 
L 3481 434 
z
" transform="scale(0.015625)"/>
       <path id="DejaVuSans-6e" d="M 3513 2113 
L 3513 0 
L 2938 0 
L 2938 2094 
Q 2938 2591 2744 2837 
Q 2550 3084 2163 3084 
Q 1697 3084 1428 2787 
Q 1159 2491 1159 1978 
L 1159 0 
L 581 0 
L 581 3500 
L 1159 3500 
L 1159 2956 
Q 1366 3272 1645 3428 
Q 1925 3584 2291 3584 
Q 2894 3584 3203 3211 
Q 3513 2838 3513 2113 
z
" transform="scale(0.015625)"/>
       <path id="DejaVuSans-61" d="M 2194 1759 
Q 1497 1759 1228 1600 
Q 959 1441 959 1056 
Q 959 750 1161 570 
Q 1363 391 1709 391 
Q 2188 391 2477 730 
Q 2766 1069 2766 1631 
L 2766 1759 
L 2194 1759 
z
M 3341 1997 
L 3341 0 
L 2766 0 
L 2766 531 
Q 2569 213 2275 61 
Q 1981 -91 1556 -91 
Q 1019 -91 701 211 
Q 384 513 384 1019 
Q 384 1609 779 1909 
Q 1175 2209 1959 2209 
L 2766 2209 
L 2766 2266 
Q 2766 2663 2505 2880 
Q 2244 3097 1772 3097 
Q 1472 3097 1187 3025 
Q 903 2953 641 2809 
L 641 3341 
Q 956 3463 1253 3523 
Q 1550 3584 1831 3584 
Q 2591 3584 2966 3190 
Q 3341 2797 3341 1997 
z
" transform="scale(0.015625)"/>
       <path id="DejaVuSans-6c" d="M 603 4863 
L 1178 4863 
L 1178 0 
L 603 0 
L 603 4863 
z
" transform="scale(0.015625)"/>
       <path id="DejaVuSans-20" transform="scale(0.015625)"/>
       <path id="DejaVuSans-64" d="M 2906 2969 
L 2906 4863 
L 3481 4863 
L 3481 0 
L 2906 0 
L 2906 525 
Q 2725 213 2448 61 
Q 2172 -91 1784 -91 
Q 1150 -91 751 415 
Q 353 922 353 1747 
Q 353 2572 751 3078 
Q 1150 3584 1784 3584 
Q 2172 3584 2448 3432 
Q 2725 3281 2906 2969 
z
M 947 1747 
Q 947 1113 1208 752 
Q 1469 391 1925 391 
Q 2381 391 2643 752 
Q 2906 1113 2906 1747 
Q 2906 2381 2643 2742 
Q 2381 3103 1925 3103 
Q 1469 3103 1208 2742 
Q 947 2381 947 1747 
z
" transform="scale(0.015625)"/>
       <path id="DejaVuSans-74" d="M 1172 4494 
L 1172 3500 
L 2356 3500 
L 2356 3053 
L 1172 3053 
L 1172 1153 
Q 1172 725 1289 603 
Q 1406 481 1766 481 
L 2356 481 
L 2356 0 
L 1766 0 
Q 1100 0 847 248 
Q 594 497 594 1153 
L 594 3053 
L 172 3053 
L 172 3500 
L 594 3500 
L 594 4494 
L 1172 4494 
z
" transform="scale(0.015625)"/>
      </defs>
      <use xlink:href="#DejaVuSans-4f"/>
      <use xlink:href="#DejaVuSans-72" transform="translate(78.710938 0)"/>
      <use xlink:href="#DejaVuSans-69" transform="translate(119.824219 0)"/>
      <use xlink:href="#DejaVuSans-67" transform="translate(147.607422 0)"/>
      <use xlink:href="#DejaVuSans-69" transform="translate(211.083984 0)"/>
      <use xlink:href="#DejaVuSans-6e" transform="translate(238.867188 0)"/>
      <use xlink:href="#DejaVuSans-61" transform="translate(302.246094 0)"/>
      <use xlink:href="#DejaVuSans-6c" transform="translate(363.525391 0)"/>
      <use xlink:href="#DejaVuSans-20" transform="translate(391.308594 0)"/>
      <use xlink:href="#DejaVuSans-64" transform="translate(423.095703 0)"/>
      <use xlink:href="#DejaVuSans-61" transform="translate(486.572266 0)"/>
      <use xlink:href="#DejaVuSans-74" transform="translate(547.851562 0)"/>
      <use xlink:href="#DejaVuSans-61" transform="translate(587.060547 0)"/>
     </g>
    </g>
   </g>
   <g id="line2d_8">
    <path d="M 104.525313 68.260768 
L 106.776113 72.207928 
L 109.026914 76.944521 
L 111.277715 78.12867 
L 113.528516 74.970938 
L 115.779317 72.602644 
L 118.030118 72.602644 
L 120.280919 73.392076 
L 124.782521 73.392079 
L 127.033322 73.786792 
L 129.284123 73.39208 
L 131.534923 74.970939 
L 136.036525 77.339233 
L 138.287326 78.918097 
L 140.538127 78.128669 
L 147.29053 78.12867 
L 149.541331 86.02299 
L 151.792132 86.417701 
L 154.042933 85.233557 
L 156.293734 84.838843 
L 158.544534 86.417704 
L 160.795335 92.338445 
L 163.046136 89.57543 
L 165.296937 88.785998 
L 167.547738 89.97015 
L 169.798539 94.312026 
L 172.04934 86.022987 
L 174.300141 87.207136 
L 176.550942 84.049408 
L 178.801743 83.654692 
L 181.052544 81.681112 
L 183.303345 82.075828 
L 185.554145 80.891683 
L 190.055747 81.681112 
L 192.306548 80.891683 
L 194.557349 81.286397 
L 196.80815 80.102248 
L 199.058951 82.075829 
L 201.309752 80.496965 
L 203.560553 80.496968 
L 205.811354 79.707537 
L 210.312956 78.918103 
L 212.563756 75.36566 
L 214.814557 74.970944 
L 217.065358 74.970942 
L 219.316159 74.181509 
L 221.56696 76.944521 
L 223.817761 76.94452 
L 226.068562 75.760371 
L 228.319363 76.155092 
L 230.570164 74.97094 
L 232.820965 73.392074 
L 235.071766 71.418497 
L 237.322567 69.839633 
L 241.824168 68.260769 
L 244.074969 69.444916 
L 246.32577 72.99736 
L 250.827372 73.786795 
L 253.078173 72.91741 
L 255.328974 73.317209 
L 257.579775 74.11681 
L 259.830576 74.51661 
L 262.081377 74.516611 
L 264.332177 73.717011 
L 266.582978 70.918406 
L 268.833779 71.718009 
L 271.08458 70.918407 
L 273.335381 70.918407 
L 275.586182 71.318207 
L 277.836983 72.917407 
L 280.087784 73.317208 
L 284.589386 74.916409 
L 286.840187 76.11581 
L 289.090988 75.316209 
L 291.341788 77.715008 
L 293.592589 78.11481 
L 295.84339 78.914409 
L 298.094191 77.715008 
L 300.344992 78.114809 
L 302.595793 79.714008 
L 304.846594 81.713009 
L 307.097395 80.11381 
L 309.348196 79.314208 
L 311.598997 79.714009 
L 313.849798 77.315208 
L 316.100599 77.315212 
L 318.351399 76.915408 
L 320.6022 72.917408 
L 322.853001 74.516608 
L 325.103802 70.918407 
L 329.605404 71.718009 
L 331.856205 72.51761 
L 334.107006 70.518606 
L 336.357807 68.119805 
L 338.608608 68.119808 
L 340.859409 65.721008 
L 343.11021 67.320207 
L 345.36101 60.923402 
L 347.611811 63.722003 
L 349.862612 62.522607 
L 352.113413 55.326205 
L 354.364214 54.126804 
L 356.615015 57.725003 
L 358.865816 58.524605 
L 361.116617 54.926403 
L 363.367418 47.330202 
L 365.618219 36.5356 
L 367.86902 28.139792 
L 370.119821 28.93939 
L 372.370621 27.739996 
L 374.621422 31.338191 
L 376.872223 38.134797 
L 379.123024 36.135793 
L 381.373825 45.331195 
L 383.624626 40.133794 
L 385.875427 47.73 
L 388.126228 46.5306 
L 390.377029 42.9324 
L 392.62783 41.3332 
L 394.878631 27.739995 
L 397.129431 16.545594 
L 399.380232 15.745994 
L 401.631033 20.943397 
L 403.881834 15.745991 
L 406.132635 14.146788 
L 408.383436 12.147788 
L 410.634237 22.542588 
L 412.885038 21.742991 
L 415.135839 25.740991 
L 417.38664 20.943397 
L 419.637441 15.346191 
L 421.888242 14.546587 
L 424.139042 14.546592 
L 426.389843 11.348192 
L 428.640644 19.344188 
L 430.891445 22.942395 
L 433.142246 28.139798 
L 435.393047 35.735998 
L 437.643848 36.135799 
L 439.894649 37.3352 
L 442.14545 28.139796 
L 444.396251 24.941391 
L 446.647052 30.938396 
L 448.897853 33.337196 
L 451.148653 34.936393 
L 453.399454 32.137791 
L 455.650255 34.536593 
L 457.901056 36.135794 
L 460.151857 31.737995 
L 462.402658 27.739996 
L 466.90426 27.739991 
L 471.405862 29.33919 
L 473.656663 28.139794 
L 475.907464 33.337194 
L 478.158264 37.3352 
L 480.409065 40.933397 
L 482.659866 43.3322 
L 484.910667 42.532601 
L 487.161468 40.533601 
L 489.412269 40.133794 
L 491.66307 41.333197 
L 493.913871 43.731999 
L 496.164672 41.333202 
L 498.415473 42.132794 
L 500.666274 52.527605 
L 505.167875 54.9264 
L 507.418676 59.324203 
L 509.669477 59.724004 
L 511.920278 60.923403 
L 514.171079 56.925403 
L 516.42188 58.124801 
L 518.672681 60.523606 
L 520.923482 58.924403 
L 523.174283 50.928398 
L 525.425084 53.327199 
L 527.675885 47.729999 
L 529.926685 51.728 
L 532.177486 54.926398 
L 534.428287 42.132799 
L 536.679088 41.333203 
L 538.929889 36.535601 
L 541.18069 46.130801 
L 543.431491 40.533593 
L 545.682292 43.731994 
L 547.933093 43.332201 
L 550.183894 46.130798 
L 552.434695 44.131794 
L 554.685496 46.530597 
L 556.936296 47.729996 
L 559.187097 40.133802 
L 561.437898 38.534597 
L 563.688699 37.735001 
L 565.9395 38.934399 
L 570.441102 46.930404 
L 572.691903 45.3312 
L 574.942704 44.1318 
L 577.193505 44.9314 
L 579.444306 42.532599 
L 581.695107 41.732997 
L 583.945907 40.533594 
L 586.196708 39.734002 
L 590.69831 41.333199 
L 592.949111 41.733002 
L 595.199912 44.531602 
L 597.450713 38.534601 
L 599.701514 35.735994 
L 601.952315 35.735994 
L 604.203116 36.135798 
L 606.453917 36.935394 
L 608.704718 36.135797 
L 610.955518 38.534596 
L 613.206319 42.932398 
L 615.45712 43.332198 
L 617.707921 46.930403 
L 619.958722 42.932395 
L 622.209523 43.731997 
L 624.460324 42.132799 
L 626.711125 45.331196 
L 628.961926 44.531597 
L 633.463528 46.9304 
L 635.714329 43.731994 
L 637.965129 42.9324 
L 640.21593 42.932398 
L 642.466731 43.732001 
L 644.717532 42.532595 
L 646.968333 44.531598 
L 649.219134 43.731996 
L 651.469935 44.131797 
L 653.720736 45.730998 
L 655.971537 46.130804 
L 658.222338 45.331195 
L 660.473139 46.530604 
L 662.72394 45.331195 
L 664.97474 45.331199 
L 667.225541 46.930399 
L 669.476342 46.530599 
L 673.977944 46.530604 
L 676.228745 45.331197 
L 678.479546 45.730998 
L 682.981148 45.730995 
L 685.231949 46.130803 
L 687.48275 47.330201 
L 689.73355 51.328198 
L 691.984351 50.528606 
L 694.235152 48.529602 
L 696.485953 46.130802 
L 698.736754 46.130802 
L 700.987555 45.730996 
L 703.238356 43.732001 
L 705.489157 42.932398 
L 707.739958 43.332199 
L 709.990759 44.5316 
L 712.24156 44.931404 
L 714.492361 44.931395 
L 716.743161 42.932403 
L 718.993962 45.331196 
L 721.244763 44.531598 
L 723.495564 43.332199 
L 725.746365 44.531602 
L 727.997166 43.732001 
L 730.247967 34.136801 
L 732.498768 36.535594 
L 734.749569 36.135795 
L 737.00037 40.533599 
L 739.251171 39.733994 
L 741.501972 41.333196 
L 743.752772 36.135793 
L 746.003573 37.335196 
L 748.254374 39.734002 
L 750.505175 37.335196 
L 752.755976 40.533596 
L 755.006777 41.333197 
L 757.257578 38.134792 
L 759.508379 40.133796 
L 761.75918 42.532594 
L 764.009981 45.730996 
L 766.260782 44.131796 
L 768.511583 44.531601 
L 770.762383 44.650176 
L 773.013184 43.817133 
L 775.263985 42.151046 
L 779.765587 43.817133 
L 782.016388 47.982351 
L 784.267189 47.982351 
L 786.51799 52.980612 
L 788.768791 57.14583 
L 791.019592 53.813656 
L 793.270393 45.066698 
L 795.521194 45.066698 
L 797.771994 45.48322 
L 800.022795 42.567568 
L 802.273596 40.90148 
L 804.524397 41.734524 
L 806.775198 39.651915 
L 809.025999 40.068437 
L 811.2768 40.90148 
L 813.527601 41.318002 
L 815.778402 37.985828 
L 818.029203 38.40235 
L 820.280004 39.235393 
L 824.781605 33.404088 
L 827.032406 33.404088 
L 829.283207 35.070175 
L 831.534008 34.237132 
L 833.784809 35.903219 
L 836.03561 33.82061 
L 838.286411 34.653654 
L 840.537212 32.987567 
L 842.788013 34.237132 
L 845.038814 35.070175 
L 847.289615 35.486697 
L 849.540415 34.653654 
L 851.791216 34.237132 
L 854.042017 34.653654 
L 856.292818 30.904958 
L 858.543619 34.237132 
L 863.045221 40.068437 
L 865.296022 37.152784 
L 869.797624 37.152784 
L 872.048425 38.818872 
L 874.299226 37.569306 
L 876.550026 38.818872 
L 878.800827 36.736263 
L 881.051628 38.40235 
L 883.302429 38.818872 
L 885.55323 40.068437 
L 887.804031 40.90148 
L 890.054832 41.318002 
L 892.305633 42.151046 
L 894.556434 43.400611 
L 896.807235 42.567568 
L 899.058036 42.984089 
L 901.308837 44.650176 
L 903.559637 47.565829 
L 905.810438 45.48322 
L 908.061239 45.48322 
L 910.31204 47.149307 
L 914.813642 46.316264 
L 917.064443 47.149307 
L 919.315244 47.149307 
L 921.566045 45.066698 
L 923.816846 46.732785 
L 926.067647 46.316264 
L 928.318448 47.982351 
L 932.820049 47.982351 
L 935.07085 47.149307 
L 937.321651 47.982351 
L 939.572452 45.066698 
L 941.823253 43.400611 
L 944.074054 44.650176 
L 948.575656 46.316264 
L 953.077258 47.149307 
L 957.578859 47.149307 
L 959.82966 45.066698 
L 962.080461 46.316264 
L 964.331262 47.149307 
L 966.582063 43.817133 
L 968.832864 43.817133 
L 971.083665 42.151046 
L 973.334466 42.567568 
L 975.585267 42.567568 
L 977.836068 42.151046 
L 982.337669 45.48322 
L 984.58847 45.066698 
L 986.839271 46.316264 
L 993.591674 47.565829 
L 995.842475 48.815394 
L 998.093276 48.398872 
L 1000.344077 50.06496 
L 1002.594878 50.481481 
L 1004.845679 51.314525 
L 1007.09648 52.56409 
L 1009.34728 51.731047 
L 1011.598081 52.980612 
L 1013.848882 55.063221 
L 1016.099683 55.063221 
L 1018.350484 55.479743 
L 1020.601285 53.813656 
L 1022.852086 51.314525 
L 1025.102887 53.813656 
L 1027.353688 55.063221 
L 1029.604489 55.896265 
L 1031.85529 54.230177 
L 1034.106091 54.646699 
L 1036.356891 56.312786 
L 1038.607692 55.479743 
L 1040.858493 56.312786 
L 1043.109294 56.729308 
L 1045.360095 57.562352 
L 1047.610896 57.978873 
L 1049.861697 60.894526 
L 1052.112498 61.311048 
L 1054.363299 57.562352 
L 1056.6141 59.228439 
L 1058.864901 59.644961 
L 1061.115702 59.644961 
L 1063.366502 60.478004 
L 1067.868104 61.311048 
L 1070.118905 61.311048 
L 1072.369706 63.393657 
L 1074.620507 66.309309 
L 1076.871308 66.309309 
L 1079.122109 60.894526 
L 1081.37291 60.061482 
L 1085.874512 61.727569 
L 1088.125312 61.727569 
L 1088.125312 61.727569 
" clip-path="url(#pb856e8a711)" style="fill: none; stroke: #0070c0; stroke-width: 1.5; stroke-linecap: square"/>
   </g>
   <g id="patch_3">
    <path d="M 55.345313 98.460218 
L 55.345313 7.2 
" style="fill: none; stroke: #000000; stroke-width: 0.8; stroke-linejoin: miter; stroke-linecap: square"/>
   </g>
   <g id="patch_4">
    <path d="M 1137.305313 98.460218 
L 1137.305313 7.2 
" style="fill: none; stroke: #000000; stroke-width: 0.8; stroke-linejoin: miter; stroke-linecap: square"/>
   </g>
   <g id="patch_5">
    <path d="M 55.345313 98.460218 
L 1137.305312 98.460218 
" style="fill: none; stroke: #000000; stroke-width: 0.8; stroke-linejoin: miter; stroke-linecap: square"/>
   </g>
   <g id="patch_6">
    <path d="M 55.345313 7.2 
L 1137.305312 7.2 
" style="fill: none; stroke: #000000; stroke-width: 0.8; stroke-linejoin: miter; stroke-linecap: square"/>
   </g>
  </g>
  <g id="axes_2">
   <g id="patch_7">
    <path d="M 55.345313 220.803515 
L 1137.305313 220.803515 
L 1137.305313 129.543297 
L 55.345313 129.543297 
z
" style="fill: #ffffff"/>
   </g>
   <g id="matplotlib.axis_3">
    <g id="xtick_6">
     <g id="line2d_9">
      <g>
       <use xlink:href="#mc5dfc2854d" x="104.525313" y="220.803515" style="stroke: #000000; stroke-width: 0.8"/>
      </g>
     </g>
     <g id="text_9">
      <!-- 0 -->
      <g transform="translate(101.344063 235.401953) scale(0.1 -0.1)">
       <use xlink:href="#DejaVuSans-30"/>
      </g>
     </g>
    </g>
    <g id="xtick_7">
     <g id="line2d_10">
      <g>
       <use xlink:href="#mc5dfc2854d" x="329.605404" y="220.803515" style="stroke: #000000; stroke-width: 0.8"/>
      </g>
     </g>
     <g id="text_10">
      <!-- 100 -->
      <g transform="translate(320.061654 235.401953) scale(0.1 -0.1)">
       <use xlink:href="#DejaVuSans-31"/>
       <use xlink:href="#DejaVuSans-30" transform="translate(63.623047 0)"/>
       <use xlink:href="#DejaVuSans-30" transform="translate(127.246094 0)"/>
      </g>
     </g>
    </g>
    <g id="xtick_8">
     <g id="line2d_11">
      <g>
       <use xlink:href="#mc5dfc2854d" x="554.685496" y="220.803515" style="stroke: #000000; stroke-width: 0.8"/>
      </g>
     </g>
     <g id="text_11">
      <!-- 200 -->
      <g transform="translate(545.141746 235.401953) scale(0.1 -0.1)">
       <use xlink:href="#DejaVuSans-32"/>
       <use xlink:href="#DejaVuSans-30" transform="translate(63.623047 0)"/>
       <use xlink:href="#DejaVuSans-30" transform="translate(127.246094 0)"/>
      </g>
     </g>
    </g>
    <g id="xtick_9">
     <g id="line2d_12">
      <g>
       <use xlink:href="#mc5dfc2854d" x="779.765587" y="220.803515" style="stroke: #000000; stroke-width: 0.8"/>
      </g>
     </g>
     <g id="text_12">
      <!-- 300 -->
      <g transform="translate(770.221837 235.401953) scale(0.1 -0.1)">
       <use xlink:href="#DejaVuSans-33"/>
       <use xlink:href="#DejaVuSans-30" transform="translate(63.623047 0)"/>
       <use xlink:href="#DejaVuSans-30" transform="translate(127.246094 0)"/>
      </g>
     </g>
    </g>
    <g id="xtick_10">
     <g id="line2d_13">
      <g>
       <use xlink:href="#mc5dfc2854d" x="1004.845679" y="220.803515" style="stroke: #000000; stroke-width: 0.8"/>
      </g>
     </g>
     <g id="text_13">
      <!-- 400 -->
      <g transform="translate(995.301929 235.401953) scale(0.1 -0.1)">
       <use xlink:href="#DejaVuSans-34"/>
       <use xlink:href="#DejaVuSans-30" transform="translate(63.623047 0)"/>
       <use xlink:href="#DejaVuSans-30" transform="translate(127.246094 0)"/>
      </g>
     </g>
    </g>
   </g>
   <g id="matplotlib.axis_4">
    <g id="ytick_3">
     <g id="line2d_14">
      <g>
       <use xlink:href="#m2e8c526e0a" x="55.345313" y="219.65539" style="stroke: #000000; stroke-width: 0.8"/>
      </g>
     </g>
     <g id="text_14">
      <!-- −10 -->
      <g transform="translate(27.240625 223.454608) scale(0.1 -0.1)">
       <defs>
        <path id="DejaVuSans-2212" d="M 678 2272 
L 4684 2272 
L 4684 1741 
L 678 1741 
L 678 2272 
z
" transform="scale(0.015625)"/>
       </defs>
       <use xlink:href="#DejaVuSans-2212"/>
       <use xlink:href="#DejaVuSans-31" transform="translate(83.789062 0)"/>
       <use xlink:href="#DejaVuSans-30" transform="translate(147.412109 0)"/>
      </g>
     </g>
    </g>
    <g id="ytick_4">
     <g id="line2d_15">
      <g>
       <use xlink:href="#m2e8c526e0a" x="55.345313" y="177.580329" style="stroke: #000000; stroke-width: 0.8"/>
      </g>
     </g>
     <g id="text_15">
      <!-- 0 -->
      <g transform="translate(41.982813 181.379548) scale(0.1 -0.1)">
       <use xlink:href="#DejaVuSans-30"/>
      </g>
     </g>
    </g>
    <g id="ytick_5">
     <g id="line2d_16">
      <g>
       <use xlink:href="#m2e8c526e0a" x="55.345313" y="135.505269" style="stroke: #000000; stroke-width: 0.8"/>
      </g>
     </g>
     <g id="text_16">
      <!-- 10 -->
      <g transform="translate(35.620313 139.304487) scale(0.1 -0.1)">
       <use xlink:href="#DejaVuSans-31"/>
       <use xlink:href="#DejaVuSans-30" transform="translate(63.623047 0)"/>
      </g>
     </g>
    </g>
    <g id="text_17">
     <!-- CEEMDAN-IMF0 -->
     <g transform="translate(14.798438 213.871062) rotate(-90) scale(0.1 -0.1)">
      <defs>
       <path id="DejaVuSans-43" d="M 4122 4306 
L 4122 3641 
Q 3803 3938 3442 4084 
Q 3081 4231 2675 4231 
Q 1875 4231 1450 3742 
Q 1025 3253 1025 2328 
Q 1025 1406 1450 917 
Q 1875 428 2675 428 
Q 3081 428 3442 575 
Q 3803 722 4122 1019 
L 4122 359 
Q 3791 134 3420 21 
Q 3050 -91 2638 -91 
Q 1578 -91 968 557 
Q 359 1206 359 2328 
Q 359 3453 968 4101 
Q 1578 4750 2638 4750 
Q 3056 4750 3426 4639 
Q 3797 4528 4122 4306 
z
" transform="scale(0.015625)"/>
       <path id="DejaVuSans-45" d="M 628 4666 
L 3578 4666 
L 3578 4134 
L 1259 4134 
L 1259 2753 
L 3481 2753 
L 3481 2222 
L 1259 2222 
L 1259 531 
L 3634 531 
L 3634 0 
L 628 0 
L 628 4666 
z
" transform="scale(0.015625)"/>
       <path id="DejaVuSans-4d" d="M 628 4666 
L 1569 4666 
L 2759 1491 
L 3956 4666 
L 4897 4666 
L 4897 0 
L 4281 0 
L 4281 4097 
L 3078 897 
L 2444 897 
L 1241 4097 
L 1241 0 
L 628 0 
L 628 4666 
z
" transform="scale(0.015625)"/>
       <path id="DejaVuSans-44" d="M 1259 4147 
L 1259 519 
L 2022 519 
Q 2988 519 3436 956 
Q 3884 1394 3884 2338 
Q 3884 3275 3436 3711 
Q 2988 4147 2022 4147 
L 1259 4147 
z
M 628 4666 
L 1925 4666 
Q 3281 4666 3915 4102 
Q 4550 3538 4550 2338 
Q 4550 1131 3912 565 
Q 3275 0 1925 0 
L 628 0 
L 628 4666 
z
" transform="scale(0.015625)"/>
       <path id="DejaVuSans-41" d="M 2188 4044 
L 1331 1722 
L 3047 1722 
L 2188 4044 
z
M 1831 4666 
L 2547 4666 
L 4325 0 
L 3669 0 
L 3244 1197 
L 1141 1197 
L 716 0 
L 50 0 
L 1831 4666 
z
" transform="scale(0.015625)"/>
       <path id="DejaVuSans-4e" d="M 628 4666 
L 1478 4666 
L 3547 763 
L 3547 4666 
L 4159 4666 
L 4159 0 
L 3309 0 
L 1241 3903 
L 1241 0 
L 628 0 
L 628 4666 
z
" transform="scale(0.015625)"/>
       <path id="DejaVuSans-2d" d="M 313 2009 
L 1997 2009 
L 1997 1497 
L 313 1497 
L 313 2009 
z
" transform="scale(0.015625)"/>
       <path id="DejaVuSans-49" d="M 628 4666 
L 1259 4666 
L 1259 0 
L 628 0 
L 628 4666 
z
" transform="scale(0.015625)"/>
       <path id="DejaVuSans-46" d="M 628 4666 
L 3309 4666 
L 3309 4134 
L 1259 4134 
L 1259 2759 
L 3109 2759 
L 3109 2228 
L 1259 2228 
L 1259 0 
L 628 0 
L 628 4666 
z
" transform="scale(0.015625)"/>
      </defs>
      <use xlink:href="#DejaVuSans-43"/>
      <use xlink:href="#DejaVuSans-45" transform="translate(69.824219 0)"/>
      <use xlink:href="#DejaVuSans-45" transform="translate(133.007812 0)"/>
      <use xlink:href="#DejaVuSans-4d" transform="translate(196.191406 0)"/>
      <use xlink:href="#DejaVuSans-44" transform="translate(282.470703 0)"/>
      <use xlink:href="#DejaVuSans-41" transform="translate(357.722656 0)"/>
      <use xlink:href="#DejaVuSans-4e" transform="translate(426.130859 0)"/>
      <use xlink:href="#DejaVuSans-2d" transform="translate(500.935547 0)"/>
      <use xlink:href="#DejaVuSans-49" transform="translate(537.019531 0)"/>
      <use xlink:href="#DejaVuSans-4d" transform="translate(566.511719 0)"/>
      <use xlink:href="#DejaVuSans-46" transform="translate(652.791016 0)"/>
      <use xlink:href="#DejaVuSans-30" transform="translate(710.310547 0)"/>
     </g>
    </g>
   </g>
   <g id="line2d_17">
    <path d="M 104.525313 133.691489 
L 106.776113 179.527092 
L 109.026914 190.591886 
L 111.277715 175.434769 
L 113.528516 175.292738 
L 115.779317 178.317565 
L 118.030118 177.580329 
L 158.544534 177.636597 
L 160.795335 177.754926 
L 163.046136 177.416572 
L 165.296937 176.587241 
L 167.547738 177.728913 
L 169.798539 180.930082 
L 172.04934 173.784748 
L 174.300141 178.803553 
L 176.550942 177.580329 
L 349.862612 177.580329 
L 352.113413 168.697501 
L 354.364214 150.017521 
L 356.615015 153.602221 
L 358.865816 179.736577 
L 361.116617 185.742678 
L 363.367418 176.348987 
L 365.618219 176.194975 
L 367.86902 178.545526 
L 370.119821 177.28627 
L 372.370621 175.081271 
L 374.621422 177.62206 
L 376.872223 184.987541 
L 379.123024 166.847059 
L 381.373825 189.180458 
L 383.624626 168.485765 
L 385.875427 180.511288 
L 388.126228 177.340562 
L 390.377029 176.836347 
L 392.62783 172.465319 
L 394.878631 163.775294 
L 397.129431 160.449787 
L 399.380232 162.215195 
L 401.631033 200.158863 
L 403.881834 181.813535 
L 406.132635 175.220987 
L 408.383436 143.362469 
L 410.634237 216.655323 
L 412.885038 164.987401 
L 415.135839 177.580329 
L 444.396251 177.580329 
L 446.647052 188.118222 
L 448.897853 210.278689 
L 451.148653 206.437943 
L 453.399454 176.300301 
L 455.650255 169.025022 
L 457.901056 178.991069 
L 460.151857 179.084457 
L 462.402658 177.095585 
L 464.653459 177.580329 
L 484.910667 177.580329 
L 487.161468 177.368496 
L 489.412269 176.923025 
L 491.66307 178.196823 
L 493.913871 181.319002 
L 496.164672 177.020956 
L 498.415473 164.969539 
L 500.666274 191.869527 
L 502.917075 172.975265 
L 505.167875 177.580329 
L 556.936296 177.580329 
L 559.187097 171.953718 
L 561.437898 160.12134 
L 563.688699 162.172071 
L 565.9395 178.263788 
L 568.190301 182.148356 
L 570.441102 176.827077 
L 572.691903 176.777214 
L 574.942704 177.839154 
L 577.193505 177.580329 
L 1088.125312 177.580329 
L 1088.125312 177.580329 
" clip-path="url(#p4b599a50de)" style="fill: none; stroke: #f27f19; stroke-width: 1.5; stroke-linecap: square"/>
   </g>
   <g id="patch_8">
    <path d="M 55.345313 220.803515 
L 55.345313 129.543297 
" style="fill: none; stroke: #000000; stroke-width: 0.8; stroke-linejoin: miter; stroke-linecap: square"/>
   </g>
   <g id="patch_9">
    <path d="M 1137.305313 220.803515 
L 1137.305313 129.543297 
" style="fill: none; stroke: #000000; stroke-width: 0.8; stroke-linejoin: miter; stroke-linecap: square"/>
   </g>
   <g id="patch_10">
    <path d="M 55.345313 220.803515 
L 1137.305312 220.803515 
" style="fill: none; stroke: #000000; stroke-width: 0.8; stroke-linejoin: miter; stroke-linecap: square"/>
   </g>
   <g id="patch_11">
    <path d="M 55.345313 129.543297 
L 1137.305312 129.543297 
" style="fill: none; stroke: #000000; stroke-width: 0.8; stroke-linejoin: miter; stroke-linecap: square"/>
   </g>
  </g>
  <g id="axes_3">
   <g id="patch_12">
    <path d="M 55.345313 343.146812 
L 1137.305313 343.146812 
L 1137.305313 251.886594 
L 55.345313 251.886594 
z
" style="fill: #ffffff"/>
   </g>
   <g id="matplotlib.axis_5">
    <g id="xtick_11">
     <g id="line2d_18">
      <g>
       <use xlink:href="#mc5dfc2854d" x="104.525313" y="343.146812" style="stroke: #000000; stroke-width: 0.8"/>
      </g>
     </g>
     <g id="text_18">
      <!-- 0 -->
      <g transform="translate(101.344063 357.74525) scale(0.1 -0.1)">
       <use xlink:href="#DejaVuSans-30"/>
      </g>
     </g>
    </g>
    <g id="xtick_12">
     <g id="line2d_19">
      <g>
       <use xlink:href="#mc5dfc2854d" x="329.605404" y="343.146812" style="stroke: #000000; stroke-width: 0.8"/>
      </g>
     </g>
     <g id="text_19">
      <!-- 100 -->
      <g transform="translate(320.061654 357.74525) scale(0.1 -0.1)">
       <use xlink:href="#DejaVuSans-31"/>
       <use xlink:href="#DejaVuSans-30" transform="translate(63.623047 0)"/>
       <use xlink:href="#DejaVuSans-30" transform="translate(127.246094 0)"/>
      </g>
     </g>
    </g>
    <g id="xtick_13">
     <g id="line2d_20">
      <g>
       <use xlink:href="#mc5dfc2854d" x="554.685496" y="343.146812" style="stroke: #000000; stroke-width: 0.8"/>
      </g>
     </g>
     <g id="text_20">
      <!-- 200 -->
      <g transform="translate(545.141746 357.74525) scale(0.1 -0.1)">
       <use xlink:href="#DejaVuSans-32"/>
       <use xlink:href="#DejaVuSans-30" transform="translate(63.623047 0)"/>
       <use xlink:href="#DejaVuSans-30" transform="translate(127.246094 0)"/>
      </g>
     </g>
    </g>
    <g id="xtick_14">
     <g id="line2d_21">
      <g>
       <use xlink:href="#mc5dfc2854d" x="779.765587" y="343.146812" style="stroke: #000000; stroke-width: 0.8"/>
      </g>
     </g>
     <g id="text_21">
      <!-- 300 -->
      <g transform="translate(770.221837 357.74525) scale(0.1 -0.1)">
       <use xlink:href="#DejaVuSans-33"/>
       <use xlink:href="#DejaVuSans-30" transform="translate(63.623047 0)"/>
       <use xlink:href="#DejaVuSans-30" transform="translate(127.246094 0)"/>
      </g>
     </g>
    </g>
    <g id="xtick_15">
     <g id="line2d_22">
      <g>
       <use xlink:href="#mc5dfc2854d" x="1004.845679" y="343.146812" style="stroke: #000000; stroke-width: 0.8"/>
      </g>
     </g>
     <g id="text_22">
      <!-- 400 -->
      <g transform="translate(995.301929 357.74525) scale(0.1 -0.1)">
       <use xlink:href="#DejaVuSans-34"/>
       <use xlink:href="#DejaVuSans-30" transform="translate(63.623047 0)"/>
       <use xlink:href="#DejaVuSans-30" transform="translate(127.246094 0)"/>
      </g>
     </g>
    </g>
   </g>
   <g id="matplotlib.axis_6">
    <g id="ytick_6">
     <g id="line2d_23">
      <g>
       <use xlink:href="#m2e8c526e0a" x="55.345313" y="329.026674" style="stroke: #000000; stroke-width: 0.8"/>
      </g>
     </g>
     <g id="text_23">
      <!-- −100 -->
      <g transform="translate(20.878125 332.825893) scale(0.1 -0.1)">
       <use xlink:href="#DejaVuSans-2212"/>
       <use xlink:href="#DejaVuSans-31" transform="translate(83.789062 0)"/>
       <use xlink:href="#DejaVuSans-30" transform="translate(147.412109 0)"/>
       <use xlink:href="#DejaVuSans-30" transform="translate(211.035156 0)"/>
      </g>
     </g>
    </g>
    <g id="ytick_7">
     <g id="line2d_24">
      <g>
       <use xlink:href="#m2e8c526e0a" x="55.345313" y="297.534942" style="stroke: #000000; stroke-width: 0.8"/>
      </g>
     </g>
     <g id="text_24">
      <!-- 0 -->
      <g transform="translate(41.982813 301.334161) scale(0.1 -0.1)">
       <use xlink:href="#DejaVuSans-30"/>
      </g>
     </g>
    </g>
    <g id="ytick_8">
     <g id="line2d_25">
      <g>
       <use xlink:href="#m2e8c526e0a" x="55.345313" y="266.043211" style="stroke: #000000; stroke-width: 0.8"/>
      </g>
     </g>
     <g id="text_25">
      <!-- 100 -->
      <g transform="translate(29.257813 269.842429) scale(0.1 -0.1)">
       <use xlink:href="#DejaVuSans-31"/>
       <use xlink:href="#DejaVuSans-30" transform="translate(63.623047 0)"/>
       <use xlink:href="#DejaVuSans-30" transform="translate(127.246094 0)"/>
      </g>
     </g>
    </g>
    <g id="text_26">
     <!-- CEEMDAN-IMF1 -->
     <g transform="translate(14.798438 336.214359) rotate(-90) scale(0.1 -0.1)">
      <use xlink:href="#DejaVuSans-43"/>
      <use xlink:href="#DejaVuSans-45" transform="translate(69.824219 0)"/>
      <use xlink:href="#DejaVuSans-45" transform="translate(133.007812 0)"/>
      <use xlink:href="#DejaVuSans-4d" transform="translate(196.191406 0)"/>
      <use xlink:href="#DejaVuSans-44" transform="translate(282.470703 0)"/>
      <use xlink:href="#DejaVuSans-41" transform="translate(357.722656 0)"/>
      <use xlink:href="#DejaVuSans-4e" transform="translate(426.130859 0)"/>
      <use xlink:href="#DejaVuSans-2d" transform="translate(500.935547 0)"/>
      <use xlink:href="#DejaVuSans-49" transform="translate(537.019531 0)"/>
      <use xlink:href="#DejaVuSans-4d" transform="translate(566.511719 0)"/>
      <use xlink:href="#DejaVuSans-46" transform="translate(652.791016 0)"/>
      <use xlink:href="#DejaVuSans-31" transform="translate(710.310547 0)"/>
     </g>
    </g>
   </g>
   <g id="line2d_26">
    <path d="M 104.525313 295.1622 
L 106.776113 297.624806 
L 109.026914 299.237542 
L 111.277715 300.454845 
L 113.528516 300.406707 
L 115.779317 298.40264 
L 118.030118 297.57504 
L 120.280919 297.629181 
L 122.53172 296.67438 
L 124.782521 295.195548 
L 127.033322 294.652182 
L 129.284123 294.926732 
L 131.534923 295.775799 
L 133.785724 297.539325 
L 136.036525 298.987405 
L 138.287326 300.113585 
L 140.538127 299.22395 
L 142.788928 295.810819 
L 145.039729 295.37415 
L 147.29053 297.714677 
L 149.541331 299.320273 
L 151.792132 301.236461 
L 154.042933 300.82333 
L 156.293734 297.4103 
L 158.544534 295.336238 
L 160.795335 293.972273 
L 163.046136 294.420954 
L 165.296937 297.624327 
L 167.547738 298.684689 
L 169.798539 297.915788 
L 172.04934 297.841521 
L 176.550942 297.393223 
L 178.801743 297.558311 
L 210.312956 297.534942 
L 212.563756 296.428749 
L 214.814557 294.1025 
L 217.065358 294.505674 
L 221.56696 300.696463 
L 223.817761 304.410169 
L 226.068562 305.03918 
L 228.319363 301.852874 
L 232.820965 297.660154 
L 235.071766 293.901167 
L 237.322567 289.036414 
L 239.573367 287.012958 
L 241.824168 288.030992 
L 244.074969 290.621513 
L 246.32577 295.883521 
L 248.576571 299.257168 
L 250.827372 300.496706 
L 255.328974 305.179527 
L 257.579775 305.556783 
L 259.830576 304.038982 
L 262.081377 301.741788 
L 264.332177 298.214537 
L 266.582978 296.355771 
L 268.833779 296.524166 
L 273.335381 295.231797 
L 275.586182 295.857322 
L 277.836983 297.564473 
L 280.087784 298.077776 
L 282.338585 297.453812 
L 284.589386 297.430143 
L 286.840187 297.568717 
L 295.84339 297.534942 
L 300.344992 297.517326 
L 302.595793 297.819849 
L 304.846594 298.467919 
L 307.097395 298.396187 
L 309.348196 297.602738 
L 311.598997 297.382917 
L 313.849798 297.571314 
L 318.351399 297.525654 
L 320.6022 297.073932 
L 322.853001 296.087908 
L 325.103802 296.259251 
L 327.354603 297.591528 
L 329.605404 297.913142 
L 331.856205 297.472579 
L 336.357807 297.556371 
L 338.608608 297.8166 
L 340.859409 298.408907 
L 343.11021 298.000634 
L 345.36101 296.552421 
L 347.611811 295.729253 
L 349.862612 295.313287 
L 352.113413 299.09064 
L 354.364214 307.79239 
L 356.615015 313.333026 
L 358.865816 316.350128 
L 361.116617 311.319221 
L 363.367418 295.799036 
L 365.618219 281.241123 
L 367.86902 265.910284 
L 370.119821 262.915535 
L 372.370621 275.719122 
L 374.621422 286.977414 
L 376.872223 300.480183 
L 379.123024 313.050061 
L 383.624626 330.483269 
L 385.875427 337.089851 
L 388.126228 338.99862 
L 390.377029 335.723789 
L 392.62783 319.518559 
L 394.878631 291.25607 
L 397.129431 271.690089 
L 399.380232 261.257665 
L 401.631033 256.034786 
L 403.881834 261.64928 
L 406.132635 271.707124 
L 408.383436 287.678403 
L 412.885038 323.944635 
L 415.135839 328.600093 
L 419.637441 303.742547 
L 421.888242 286.968107 
L 424.139042 275.797759 
L 426.389843 273.458264 
L 428.640644 277.308993 
L 430.891445 291.505687 
L 433.142246 304.056484 
L 435.393047 315.504311 
L 437.643848 316.888534 
L 442.14545 292.156384 
L 444.396251 280.859807 
L 446.647052 278.63513 
L 448.897853 289.987128 
L 451.148653 299.154768 
L 453.399454 309.39519 
L 455.650255 314.147281 
L 457.901056 310.37589 
L 460.151857 305.186748 
L 462.402658 295.888103 
L 464.653459 288.021061 
L 466.90426 282.475997 
L 469.155061 279.66564 
L 471.405862 281.572046 
L 473.656663 286.125308 
L 475.907464 294.399626 
L 478.158264 301.541025 
L 480.409065 307.172608 
L 482.659866 311.577503 
L 484.910667 313.256624 
L 487.161468 310.320697 
L 489.412269 301.782423 
L 491.66307 295.120835 
L 493.913871 289.943328 
L 496.164672 288.336373 
L 498.415473 292.345032 
L 500.666274 295.007021 
L 502.917075 297.339754 
L 505.167875 299.093158 
L 507.418676 298.961271 
L 509.669477 298.659893 
L 511.920278 297.597395 
L 514.171079 297.138545 
L 516.42188 297.508006 
L 518.672681 298.182887 
L 520.923482 299.052354 
L 523.174283 295.249426 
L 525.425084 288.564689 
L 527.675885 292.180798 
L 529.926685 307.104462 
L 532.177486 308.66331 
L 536.679088 288.695202 
L 538.929889 294.488905 
L 541.18069 303.319784 
L 543.431491 298.356593 
L 545.682292 294.556592 
L 547.933093 298.420809 
L 550.183894 297.617591 
L 552.434695 297.508307 
L 556.936296 297.534942 
L 559.187097 296.871392 
L 561.437898 295.475993 
L 563.688699 295.717837 
L 565.9395 297.615543 
L 568.190301 299.898484 
L 570.441102 303.108436 
L 572.691903 303.494887 
L 574.942704 300.624931 
L 577.193505 298.075251 
L 583.945907 288.699432 
L 586.196708 289.678577 
L 588.447509 295.318188 
L 592.949111 304.437299 
L 595.199912 305.711612 
L 599.701514 299.062251 
L 601.952315 294.584634 
L 604.203116 291.205619 
L 606.453917 289.730932 
L 608.704718 291.22932 
L 610.955518 296.848637 
L 613.206319 301.260049 
L 615.45712 304.90681 
L 617.707921 304.116529 
L 619.958722 297.320812 
L 622.209523 293.963568 
L 624.460324 293.111786 
L 626.711125 293.788489 
L 628.961926 297.940081 
L 631.212727 299.985941 
L 633.463528 300.144553 
L 635.714329 299.7249 
L 637.965129 297.509183 
L 640.21593 296.801668 
L 642.466731 297.625444 
L 644.717532 297.641566 
L 646.968333 297.494057 
L 653.720736 297.533719 
L 664.97474 297.534942 
L 667.225541 297.89769 
L 669.476342 298.660525 
L 671.727143 298.528314 
L 676.228745 296.426277 
L 678.479546 295.057208 
L 680.730347 294.756067 
L 682.981148 295.751997 
L 685.231949 296.560271 
L 687.48275 297.531275 
L 691.984351 300.079932 
L 694.235152 299.725828 
L 696.485953 297.462626 
L 698.736754 296.716695 
L 700.987555 297.20473 
L 703.238356 297.264456 
L 705.489157 297.513838 
L 707.739958 298.019226 
L 709.990759 298.660203 
L 712.24156 298.423589 
L 714.492361 297.18347 
L 716.743161 296.343588 
L 718.993962 295.686645 
L 721.244763 298.418083 
L 723.495564 305.132199 
L 725.746365 305.007385 
L 727.997166 298.158589 
L 730.247967 292.10972 
L 732.498768 289.143168 
L 734.749569 294.215265 
L 737.00037 302.871104 
L 739.251171 304.839065 
L 741.501972 298.017502 
L 743.752772 295.702004 
L 746.003573 294.973933 
L 748.254374 294.981853 
L 750.505175 297.609396 
L 752.755976 298.33538 
L 755.006777 297.395446 
L 757.257578 297.402602 
L 759.508379 297.577593 
L 761.75918 298.63443 
L 764.009981 300.946576 
L 766.260782 301.247715 
L 768.511583 299.579239 
L 770.762383 296.885516 
L 773.013184 292.387566 
L 775.263985 288.901676 
L 777.514786 286.540473 
L 779.765587 288.515711 
L 782.016388 295.977014 
L 786.51799 309.521755 
L 788.768791 310.375169 
L 791.019592 303.421957 
L 793.270393 297.09959 
L 795.521194 289.559713 
L 797.771994 285.869017 
L 800.022795 287.780239 
L 802.273596 288.845068 
L 804.524397 290.73679 
L 806.775198 293.216477 
L 809.025999 295.484221 
L 811.2768 297.436191 
L 818.029203 301.079777 
L 820.280004 300.299854 
L 822.530804 297.473888 
L 824.781605 296.309822 
L 829.283207 296.946836 
L 831.534008 298.095063 
L 833.784809 298.317111 
L 838.286411 296.690656 
L 840.537212 295.571129 
L 842.788013 295.79244 
L 845.038814 297.604927 
L 847.289615 299.182277 
L 849.540415 300.932898 
L 851.791216 299.972387 
L 854.042017 295.735581 
L 856.292818 295.05417 
L 858.543619 297.518054 
L 860.79442 298.526116 
L 863.045221 299.262762 
L 865.296022 299.145012 
L 867.546823 297.477801 
L 869.797624 297.041898 
L 872.048425 297.617934 
L 874.299226 297.619737 
L 876.550026 297.507615 
L 887.804031 297.534942 
L 917.064443 297.534942 
L 919.315244 297.245431 
L 921.566045 296.636608 
L 923.816846 296.742127 
L 926.067647 297.570109 
L 932.820049 299.477249 
L 935.07085 299.666135 
L 937.321651 299.073975 
L 939.572452 297.512516 
L 941.823253 296.591027 
L 944.074054 296.236471 
L 946.324855 296.425238 
L 948.575656 297.556362 
L 950.826457 297.89359 
L 953.077258 297.475802 
L 982.337669 297.534942 
L 1011.598081 297.534942 
L 1013.848882 298.155452 
L 1016.099683 299.46034 
L 1018.350484 299.028144 
L 1020.601285 296.820243 
L 1022.852086 296.126046 
L 1025.102887 296.585256 
L 1027.353688 297.166708 
L 1029.604489 298.48045 
L 1031.85529 298.955646 
L 1034.106091 298.472481 
L 1036.356891 298.127549 
L 1038.607692 297.552463 
L 1043.109294 296.145874 
L 1045.360095 296.409381 
L 1047.610896 297.823001 
L 1049.861697 298.124522 
L 1052.112498 297.464054 
L 1054.363299 296.481367 
L 1056.6141 294.700896 
L 1058.864901 294.53384 
L 1061.115702 296.143669 
L 1063.366502 296.961125 
L 1065.617303 297.470014 
L 1067.868104 298.208751 
L 1070.118905 298.794926 
L 1072.369706 300.758803 
L 1074.620507 304.213198 
L 1076.871308 303.597137 
L 1079.122109 298.81457 
L 1081.37291 295.559826 
L 1083.623711 292.808278 
L 1085.874512 290.9331 
L 1088.125312 290.982504 
L 1088.125312 290.982504 
" clip-path="url(#p395268187f)" style="fill: none; stroke: #f27f19; stroke-width: 1.5; stroke-linecap: square"/>
   </g>
   <g id="patch_13">
    <path d="M 55.345313 343.146812 
L 55.345313 251.886594 
" style="fill: none; stroke: #000000; stroke-width: 0.8; stroke-linejoin: miter; stroke-linecap: square"/>
   </g>
   <g id="patch_14">
    <path d="M 1137.305313 343.146812 
L 1137.305313 251.886594 
" style="fill: none; stroke: #000000; stroke-width: 0.8; stroke-linejoin: miter; stroke-linecap: square"/>
   </g>
   <g id="patch_15">
    <path d="M 55.345313 343.146812 
L 1137.305312 343.146812 
" style="fill: none; stroke: #000000; stroke-width: 0.8; stroke-linejoin: miter; stroke-linecap: square"/>
   </g>
   <g id="patch_16">
    <path d="M 55.345313 251.886594 
L 1137.305312 251.886594 
" style="fill: none; stroke: #000000; stroke-width: 0.8; stroke-linejoin: miter; stroke-linecap: square"/>
   </g>
  </g>
  <g id="axes_4">
   <g id="patch_17">
    <path d="M 55.345313 465.490109 
L 1137.305313 465.490109 
L 1137.305313 374.229891 
L 55.345313 374.229891 
z
" style="fill: #ffffff"/>
   </g>
   <g id="matplotlib.axis_7">
    <g id="xtick_16">
     <g id="line2d_27">
      <g>
       <use xlink:href="#mc5dfc2854d" x="104.525313" y="465.490109" style="stroke: #000000; stroke-width: 0.8"/>
      </g>
     </g>
     <g id="text_27">
      <!-- 0 -->
      <g transform="translate(101.344063 480.088547) scale(0.1 -0.1)">
       <use xlink:href="#DejaVuSans-30"/>
      </g>
     </g>
    </g>
    <g id="xtick_17">
     <g id="line2d_28">
      <g>
       <use xlink:href="#mc5dfc2854d" x="329.605404" y="465.490109" style="stroke: #000000; stroke-width: 0.8"/>
      </g>
     </g>
     <g id="text_28">
      <!-- 100 -->
      <g transform="translate(320.061654 480.088547) scale(0.1 -0.1)">
       <use xlink:href="#DejaVuSans-31"/>
       <use xlink:href="#DejaVuSans-30" transform="translate(63.623047 0)"/>
       <use xlink:href="#DejaVuSans-30" transform="translate(127.246094 0)"/>
      </g>
     </g>
    </g>
    <g id="xtick_18">
     <g id="line2d_29">
      <g>
       <use xlink:href="#mc5dfc2854d" x="554.685496" y="465.490109" style="stroke: #000000; stroke-width: 0.8"/>
      </g>
     </g>
     <g id="text_29">
      <!-- 200 -->
      <g transform="translate(545.141746 480.088547) scale(0.1 -0.1)">
       <use xlink:href="#DejaVuSans-32"/>
       <use xlink:href="#DejaVuSans-30" transform="translate(63.623047 0)"/>
       <use xlink:href="#DejaVuSans-30" transform="translate(127.246094 0)"/>
      </g>
     </g>
    </g>
    <g id="xtick_19">
     <g id="line2d_30">
      <g>
       <use xlink:href="#mc5dfc2854d" x="779.765587" y="465.490109" style="stroke: #000000; stroke-width: 0.8"/>
      </g>
     </g>
     <g id="text_30">
      <!-- 300 -->
      <g transform="translate(770.221837 480.088547) scale(0.1 -0.1)">
       <use xlink:href="#DejaVuSans-33"/>
       <use xlink:href="#DejaVuSans-30" transform="translate(63.623047 0)"/>
       <use xlink:href="#DejaVuSans-30" transform="translate(127.246094 0)"/>
      </g>
     </g>
    </g>
    <g id="xtick_20">
     <g id="line2d_31">
      <g>
       <use xlink:href="#mc5dfc2854d" x="1004.845679" y="465.490109" style="stroke: #000000; stroke-width: 0.8"/>
      </g>
     </g>
     <g id="text_31">
      <!-- 400 -->
      <g transform="translate(995.301929 480.088547) scale(0.1 -0.1)">
       <use xlink:href="#DejaVuSans-34"/>
       <use xlink:href="#DejaVuSans-30" transform="translate(63.623047 0)"/>
       <use xlink:href="#DejaVuSans-30" transform="translate(127.246094 0)"/>
      </g>
     </g>
    </g>
   </g>
   <g id="matplotlib.axis_8">
    <g id="ytick_9">
     <g id="line2d_32">
      <g>
       <use xlink:href="#m2e8c526e0a" x="55.345313" y="463.752521" style="stroke: #000000; stroke-width: 0.8"/>
      </g>
     </g>
     <g id="text_32">
      <!-- −100 -->
      <g transform="translate(20.878125 467.55174) scale(0.1 -0.1)">
       <use xlink:href="#DejaVuSans-2212"/>
       <use xlink:href="#DejaVuSans-31" transform="translate(83.789062 0)"/>
       <use xlink:href="#DejaVuSans-30" transform="translate(147.412109 0)"/>
       <use xlink:href="#DejaVuSans-30" transform="translate(211.035156 0)"/>
      </g>
     </g>
    </g>
    <g id="ytick_10">
     <g id="line2d_33">
      <g>
       <use xlink:href="#m2e8c526e0a" x="55.345313" y="423.287985" style="stroke: #000000; stroke-width: 0.8"/>
      </g>
     </g>
     <g id="text_33">
      <!-- 0 -->
      <g transform="translate(41.982813 427.087203) scale(0.1 -0.1)">
       <use xlink:href="#DejaVuSans-30"/>
      </g>
     </g>
    </g>
    <g id="ytick_11">
     <g id="line2d_34">
      <g>
       <use xlink:href="#m2e8c526e0a" x="55.345313" y="382.823448" style="stroke: #000000; stroke-width: 0.8"/>
      </g>
     </g>
     <g id="text_34">
      <!-- 100 -->
      <g transform="translate(29.257813 386.622667) scale(0.1 -0.1)">
       <use xlink:href="#DejaVuSans-31"/>
       <use xlink:href="#DejaVuSans-30" transform="translate(63.623047 0)"/>
       <use xlink:href="#DejaVuSans-30" transform="translate(127.246094 0)"/>
      </g>
     </g>
    </g>
    <g id="text_35">
     <!-- CEEMDAN-IMF2 -->
     <g transform="translate(14.798438 458.557656) rotate(-90) scale(0.1 -0.1)">
      <use xlink:href="#DejaVuSans-43"/>
      <use xlink:href="#DejaVuSans-45" transform="translate(69.824219 0)"/>
      <use xlink:href="#DejaVuSans-45" transform="translate(133.007812 0)"/>
      <use xlink:href="#DejaVuSans-4d" transform="translate(196.191406 0)"/>
      <use xlink:href="#DejaVuSans-44" transform="translate(282.470703 0)"/>
      <use xlink:href="#DejaVuSans-41" transform="translate(357.722656 0)"/>
      <use xlink:href="#DejaVuSans-4e" transform="translate(426.130859 0)"/>
      <use xlink:href="#DejaVuSans-2d" transform="translate(500.935547 0)"/>
      <use xlink:href="#DejaVuSans-49" transform="translate(537.019531 0)"/>
      <use xlink:href="#DejaVuSans-4d" transform="translate(566.511719 0)"/>
      <use xlink:href="#DejaVuSans-46" transform="translate(652.791016 0)"/>
      <use xlink:href="#DejaVuSans-32" transform="translate(710.310547 0)"/>
     </g>
    </g>
   </g>
   <g id="line2d_35">
    <path d="M 104.525313 428.667539 
L 106.776113 428.952352 
L 109.026914 428.770045 
L 111.277715 428.256002 
L 113.528516 427.334052 
L 115.779317 425.861198 
L 118.030118 424.23495 
L 120.280919 422.399513 
L 122.53172 420.230193 
L 127.033322 415.393738 
L 131.534923 410.901817 
L 133.785724 408.977346 
L 136.036525 407.505392 
L 138.287326 406.590386 
L 140.538127 406.42969 
L 142.788928 407.164508 
L 145.039729 408.786858 
L 147.29053 411.436661 
L 149.541331 415.08225 
L 151.792132 419.804421 
L 154.042933 425.109002 
L 156.293734 430.988754 
L 158.544534 436.493214 
L 160.795335 441.385406 
L 163.046136 444.581895 
L 165.296937 445.568847 
L 167.547738 443.356725 
L 169.798539 437.235559 
L 172.04934 429.34335 
L 174.300141 420.409045 
L 176.550942 412.980692 
L 178.801743 408.303863 
L 181.052544 405.829407 
L 183.303345 406.0092 
L 185.554145 407.383722 
L 187.804946 409.963593 
L 192.306548 415.556179 
L 194.557349 418.924362 
L 196.80815 422.512228 
L 199.058951 425.881393 
L 201.309752 428.948026 
L 203.560553 430.212079 
L 205.811354 429.32809 
L 208.062155 427.616603 
L 210.312956 424.932464 
L 212.563756 422.75559 
L 214.814557 421.510358 
L 217.065358 420.709352 
L 219.316159 420.953224 
L 221.56696 421.459567 
L 223.817761 422.373103 
L 226.068562 423.041222 
L 228.319363 423.287271 
L 232.820965 424.067369 
L 239.573367 425.006575 
L 250.827372 427.339737 
L 253.078173 427.450114 
L 255.328974 427.269926 
L 257.579775 426.734579 
L 259.830576 425.769892 
L 262.081377 424.638107 
L 266.582978 421.856695 
L 268.833779 420.358716 
L 271.08458 419.035275 
L 273.335381 417.967653 
L 275.586182 417.236195 
L 277.836983 416.961797 
L 280.087784 417.077624 
L 282.338585 417.67204 
L 284.589386 418.703756 
L 291.341788 423.14651 
L 293.592589 424.486239 
L 298.094191 426.73653 
L 300.344992 427.950849 
L 302.595793 428.689108 
L 304.846594 428.955699 
L 307.097395 428.415034 
L 309.348196 426.888162 
L 311.598997 424.955624 
L 316.100599 420.023468 
L 318.351399 417.717248 
L 320.6022 416.412745 
L 322.853001 416.424831 
L 325.103802 417.583306 
L 329.605404 422.929001 
L 331.856205 425.515804 
L 334.107006 427.751294 
L 338.608608 430.588072 
L 340.859409 431.70574 
L 343.11021 433.414733 
L 345.36101 435.853753 
L 347.611811 437.153882 
L 349.862612 437.3689 
L 352.113413 436.096183 
L 354.364214 432.853504 
L 356.615015 428.778343 
L 358.865816 423.602198 
L 363.367418 412.476996 
L 365.618219 407.647408 
L 367.86902 404.028322 
L 370.119821 402.803566 
L 372.370621 404.598169 
L 374.621422 408.175817 
L 376.872223 414.083622 
L 379.123024 420.605621 
L 383.624626 434.412709 
L 385.875427 440.551546 
L 388.126228 445.043444 
L 390.377029 447.284014 
L 392.62783 447.839905 
L 394.878631 446.13479 
L 397.129431 442.956711 
L 399.380232 438.189359 
L 401.631033 432.101402 
L 406.132635 417.383821 
L 408.383436 409.963286 
L 410.634237 403.404971 
L 412.885038 398.214097 
L 415.135839 395.436305 
L 417.38664 395.708748 
L 419.637441 398.133072 
L 421.888242 403.296986 
L 424.139042 410.064456 
L 426.389843 418.430845 
L 430.891445 436.278943 
L 433.142246 444.53364 
L 435.393047 451.445609 
L 437.643848 455.898312 
L 439.894649 457.172481 
L 442.14545 456.051451 
L 444.396251 451.863514 
L 446.647052 445.738866 
L 448.897853 437.597566 
L 455.650255 410.799177 
L 457.901056 403.26124 
L 460.151857 396.748452 
L 462.402658 391.882235 
L 464.653459 387.849614 
L 466.90426 384.910563 
L 469.155061 382.694667 
L 471.405862 381.112424 
L 473.656663 380.000438 
L 475.907464 379.198817 
L 478.158264 378.746138 
L 480.409065 378.505191 
L 484.910667 378.378083 
L 487.161468 378.988014 
L 489.412269 380.227508 
L 491.66307 383.150956 
L 493.913871 388.018474 
L 496.164672 395.354265 
L 498.415473 405.656093 
L 500.666274 417.026126 
L 502.917075 429.466859 
L 505.167875 441.10185 
L 507.418676 451.229486 
L 509.669477 458.337019 
L 511.920278 461.341917 
L 514.171079 460.922507 
L 518.672681 451.986624 
L 520.923482 448.768699 
L 523.174283 446.741666 
L 525.425084 445.4 
L 527.675885 442.379805 
L 529.926685 437.19423 
L 532.177486 428.88935 
L 534.428287 416.834397 
L 536.679088 407.093241 
L 538.929889 403.013907 
L 541.18069 405.543545 
L 545.682292 422.384862 
L 547.933093 428.91516 
L 550.183894 433.207758 
L 552.434695 434.862253 
L 554.685496 433.845679 
L 556.936296 429.755589 
L 559.187097 425.112466 
L 561.437898 420.173935 
L 563.688699 416.906126 
L 565.9395 416.347425 
L 568.190301 417.407561 
L 572.691903 423.428165 
L 577.193505 428.626408 
L 579.444306 430.336816 
L 581.695107 431.223491 
L 583.945907 430.934103 
L 586.196708 429.500398 
L 588.447509 426.692367 
L 590.69831 423.546509 
L 592.949111 420.031036 
L 595.199912 416.733488 
L 597.450713 413.976612 
L 599.701514 412.024124 
L 601.952315 411.250723 
L 604.203116 411.61551 
L 606.453917 413.416859 
L 608.704718 416.208532 
L 615.45712 427.824126 
L 617.707921 431.166581 
L 619.958722 433.647583 
L 622.209523 434.952102 
L 624.460324 434.716122 
L 626.711125 433.667204 
L 628.961926 431.564741 
L 631.212727 429.075905 
L 635.714329 423.644149 
L 637.965129 421.329316 
L 640.21593 419.387035 
L 642.466731 418.081392 
L 644.717532 417.68516 
L 646.968333 418.393246 
L 649.219134 419.491715 
L 653.720736 422.602009 
L 655.971537 423.791902 
L 658.222338 424.824277 
L 660.473139 425.435843 
L 662.72394 425.330849 
L 667.225541 423.321685 
L 669.476342 422.113336 
L 671.727143 421.101176 
L 673.977944 420.482993 
L 676.228745 420.445233 
L 678.479546 421.217755 
L 680.730347 422.530656 
L 685.231949 426.707181 
L 687.48275 428.976769 
L 689.73355 430.082702 
L 691.984351 429.726078 
L 694.235152 428.130563 
L 698.736754 421.395446 
L 700.987555 417.88273 
L 703.238356 414.991271 
L 705.489157 413.211621 
L 707.739958 413.207961 
L 709.990759 415.533135 
L 712.24156 419.299399 
L 714.492361 424.939704 
L 716.743161 429.384778 
L 718.993962 432.324641 
L 721.244763 432.882198 
L 723.495564 430.580068 
L 725.746365 427.227443 
L 727.997166 422.47779 
L 730.247967 418.812023 
L 732.498768 416.773814 
L 734.749569 417.626133 
L 737.00037 421.048118 
L 739.251171 423.834544 
L 741.501972 425.852065 
L 743.752772 426.808319 
L 746.003573 425.847691 
L 748.254374 424.505854 
L 750.505175 422.454784 
L 752.755976 421.605464 
L 757.257578 423.226752 
L 759.508379 424.265836 
L 761.75918 424.953354 
L 764.009981 424.868816 
L 766.260782 424.425791 
L 768.511583 423.282819 
L 770.762383 421.959276 
L 773.013184 420.410637 
L 775.263985 419.72204 
L 777.514786 420.109884 
L 779.765587 421.273875 
L 786.51799 428.424411 
L 788.768791 429.771481 
L 791.019592 429.621517 
L 793.270393 428.717345 
L 797.771994 424.322251 
L 802.273596 419.736321 
L 804.524397 417.938607 
L 806.775198 416.636236 
L 809.025999 416.080282 
L 811.2768 415.703823 
L 813.527601 415.622437 
L 818.029203 415.944211 
L 822.530804 416.794077 
L 824.781605 417.546556 
L 827.032406 418.571846 
L 829.283207 419.88205 
L 831.534008 421.522849 
L 833.784809 423.308249 
L 836.03561 425.248254 
L 838.286411 426.799827 
L 840.537212 427.862662 
L 842.788013 427.764306 
L 845.038814 426.226343 
L 847.289615 424.473236 
L 849.540415 422.278837 
L 851.791216 420.265792 
L 854.042017 418.700155 
L 856.292818 418.812718 
L 858.543619 421.046303 
L 860.79442 423.651685 
L 863.045221 426.707244 
L 865.296022 428.752251 
L 867.546823 429.210355 
L 869.797624 428.01879 
L 872.048425 424.435911 
L 874.299226 421.206033 
L 876.550026 418.355491 
L 878.800827 416.502426 
L 881.051628 416.461793 
L 883.302429 416.887225 
L 887.804031 419.642793 
L 890.054832 420.819231 
L 892.305633 422.132492 
L 901.308837 426.638804 
L 903.559637 427.559803 
L 905.810438 427.717367 
L 908.061239 427.016202 
L 910.31204 425.774037 
L 912.562841 423.787501 
L 914.813642 422.316661 
L 917.064443 421.460043 
L 919.315244 421.034716 
L 921.566045 421.422432 
L 923.816846 422.128496 
L 926.067647 423.272892 
L 928.318448 424.264706 
L 930.569248 424.990227 
L 932.820049 425.109161 
L 935.07085 424.361256 
L 937.321651 423.293663 
L 939.572452 421.713506 
L 941.823253 420.499148 
L 944.074054 419.77263 
L 946.324855 420.005351 
L 948.575656 421.553152 
L 950.826457 423.42934 
L 955.328058 428.305543 
L 957.578859 430.542443 
L 959.82966 431.124567 
L 962.080461 429.645255 
L 964.331262 427.04766 
L 968.832864 418.570328 
L 971.083665 414.531239 
L 973.334466 412.200354 
L 975.585267 412.25891 
L 977.836068 413.239857 
L 982.337669 418.138283 
L 984.58847 420.160689 
L 986.839271 421.961566 
L 991.340873 423.904174 
L 993.591674 424.477319 
L 995.842475 425.272861 
L 1002.594878 428.633655 
L 1004.845679 430.125975 
L 1007.09648 431.940486 
L 1009.34728 433.277516 
L 1011.598081 434.123626 
L 1013.848882 433.888577 
L 1016.099683 432.280203 
L 1018.350484 429.722635 
L 1020.601285 425.926579 
L 1022.852086 422.595496 
L 1025.102887 419.845359 
L 1027.353688 417.63443 
L 1029.604489 416.48947 
L 1031.85529 416.16338 
L 1034.106091 416.924772 
L 1036.356891 418.116889 
L 1038.607692 419.780188 
L 1040.858493 421.257249 
L 1043.109294 422.331456 
L 1045.360095 423.064571 
L 1049.861697 423.189364 
L 1054.363299 422.938135 
L 1058.864901 423.015234 
L 1063.366502 423.485238 
L 1065.617303 423.662901 
L 1067.868104 423.993961 
L 1070.118905 424.450283 
L 1072.369706 424.709109 
L 1074.620507 424.773628 
L 1076.871308 424.725222 
L 1083.623711 424.104675 
L 1085.874512 424.102215 
L 1088.125312 424.342589 
L 1088.125312 424.342589 
" clip-path="url(#pdca609950e)" style="fill: none; stroke: #f27f19; stroke-width: 1.5; stroke-linecap: square"/>
   </g>
   <g id="patch_18">
    <path d="M 55.345313 465.490109 
L 55.345313 374.229891 
" style="fill: none; stroke: #000000; stroke-width: 0.8; stroke-linejoin: miter; stroke-linecap: square"/>
   </g>
   <g id="patch_19">
    <path d="M 1137.305313 465.490109 
L 1137.305313 374.229891 
" style="fill: none; stroke: #000000; stroke-width: 0.8; stroke-linejoin: miter; stroke-linecap: square"/>
   </g>
   <g id="patch_20">
    <path d="M 55.345313 465.490109 
L 1137.305312 465.490109 
" style="fill: none; stroke: #000000; stroke-width: 0.8; stroke-linejoin: miter; stroke-linecap: square"/>
   </g>
   <g id="patch_21">
    <path d="M 55.345313 374.229891 
L 1137.305312 374.229891 
" style="fill: none; stroke: #000000; stroke-width: 0.8; stroke-linejoin: miter; stroke-linecap: square"/>
   </g>
  </g>
  <g id="axes_5">
   <g id="patch_22">
    <path d="M 55.345313 587.833406 
L 1137.305313 587.833406 
L 1137.305313 496.573188 
L 55.345313 496.573188 
z
" style="fill: #ffffff"/>
   </g>
   <g id="matplotlib.axis_9">
    <g id="xtick_21">
     <g id="line2d_36">
      <g>
       <use xlink:href="#mc5dfc2854d" x="104.525313" y="587.833406" style="stroke: #000000; stroke-width: 0.8"/>
      </g>
     </g>
     <g id="text_36">
      <!-- 0 -->
      <g transform="translate(101.344063 602.431844) scale(0.1 -0.1)">
       <use xlink:href="#DejaVuSans-30"/>
      </g>
     </g>
    </g>
    <g id="xtick_22">
     <g id="line2d_37">
      <g>
       <use xlink:href="#mc5dfc2854d" x="329.605404" y="587.833406" style="stroke: #000000; stroke-width: 0.8"/>
      </g>
     </g>
     <g id="text_37">
      <!-- 100 -->
      <g transform="translate(320.061654 602.431844) scale(0.1 -0.1)">
       <use xlink:href="#DejaVuSans-31"/>
       <use xlink:href="#DejaVuSans-30" transform="translate(63.623047 0)"/>
       <use xlink:href="#DejaVuSans-30" transform="translate(127.246094 0)"/>
      </g>
     </g>
    </g>
    <g id="xtick_23">
     <g id="line2d_38">
      <g>
       <use xlink:href="#mc5dfc2854d" x="554.685496" y="587.833406" style="stroke: #000000; stroke-width: 0.8"/>
      </g>
     </g>
     <g id="text_38">
      <!-- 200 -->
      <g transform="translate(545.141746 602.431844) scale(0.1 -0.1)">
       <use xlink:href="#DejaVuSans-32"/>
       <use xlink:href="#DejaVuSans-30" transform="translate(63.623047 0)"/>
       <use xlink:href="#DejaVuSans-30" transform="translate(127.246094 0)"/>
      </g>
     </g>
    </g>
    <g id="xtick_24">
     <g id="line2d_39">
      <g>
       <use xlink:href="#mc5dfc2854d" x="779.765587" y="587.833406" style="stroke: #000000; stroke-width: 0.8"/>
      </g>
     </g>
     <g id="text_39">
      <!-- 300 -->
      <g transform="translate(770.221837 602.431844) scale(0.1 -0.1)">
       <use xlink:href="#DejaVuSans-33"/>
       <use xlink:href="#DejaVuSans-30" transform="translate(63.623047 0)"/>
       <use xlink:href="#DejaVuSans-30" transform="translate(127.246094 0)"/>
      </g>
     </g>
    </g>
    <g id="xtick_25">
     <g id="line2d_40">
      <g>
       <use xlink:href="#mc5dfc2854d" x="1004.845679" y="587.833406" style="stroke: #000000; stroke-width: 0.8"/>
      </g>
     </g>
     <g id="text_40">
      <!-- 400 -->
      <g transform="translate(995.301929 602.431844) scale(0.1 -0.1)">
       <use xlink:href="#DejaVuSans-34"/>
       <use xlink:href="#DejaVuSans-30" transform="translate(63.623047 0)"/>
       <use xlink:href="#DejaVuSans-30" transform="translate(127.246094 0)"/>
      </g>
     </g>
    </g>
   </g>
   <g id="matplotlib.axis_10">
    <g id="ytick_12">
     <g id="line2d_41">
      <g>
       <use xlink:href="#m2e8c526e0a" x="55.345313" y="585.84545" style="stroke: #000000; stroke-width: 0.8"/>
      </g>
     </g>
     <g id="text_41">
      <!-- −200 -->
      <g transform="translate(20.878125 589.644668) scale(0.1 -0.1)">
       <use xlink:href="#DejaVuSans-2212"/>
       <use xlink:href="#DejaVuSans-32" transform="translate(83.789062 0)"/>
       <use xlink:href="#DejaVuSans-30" transform="translate(147.412109 0)"/>
       <use xlink:href="#DejaVuSans-30" transform="translate(211.035156 0)"/>
      </g>
     </g>
    </g>
    <g id="ytick_13">
     <g id="line2d_42">
      <g>
       <use xlink:href="#m2e8c526e0a" x="55.345313" y="542.149127" style="stroke: #000000; stroke-width: 0.8"/>
      </g>
     </g>
     <g id="text_42">
      <!-- 0 -->
      <g transform="translate(41.982813 545.948346) scale(0.1 -0.1)">
       <use xlink:href="#DejaVuSans-30"/>
      </g>
     </g>
    </g>
    <g id="ytick_14">
     <g id="line2d_43">
      <g>
       <use xlink:href="#m2e8c526e0a" x="55.345313" y="498.452804" style="stroke: #000000; stroke-width: 0.8"/>
      </g>
     </g>
     <g id="text_43">
      <!-- 200 -->
      <g transform="translate(29.257813 502.252023) scale(0.1 -0.1)">
       <use xlink:href="#DejaVuSans-32"/>
       <use xlink:href="#DejaVuSans-30" transform="translate(63.623047 0)"/>
       <use xlink:href="#DejaVuSans-30" transform="translate(127.246094 0)"/>
      </g>
     </g>
    </g>
    <g id="text_44">
     <!-- CEEMDAN-IMF3 -->
     <g transform="translate(14.798438 580.900953) rotate(-90) scale(0.1 -0.1)">
      <use xlink:href="#DejaVuSans-43"/>
      <use xlink:href="#DejaVuSans-45" transform="translate(69.824219 0)"/>
      <use xlink:href="#DejaVuSans-45" transform="translate(133.007812 0)"/>
      <use xlink:href="#DejaVuSans-4d" transform="translate(196.191406 0)"/>
      <use xlink:href="#DejaVuSans-44" transform="translate(282.470703 0)"/>
      <use xlink:href="#DejaVuSans-41" transform="translate(357.722656 0)"/>
      <use xlink:href="#DejaVuSans-4e" transform="translate(426.130859 0)"/>
      <use xlink:href="#DejaVuSans-2d" transform="translate(500.935547 0)"/>
      <use xlink:href="#DejaVuSans-49" transform="translate(537.019531 0)"/>
      <use xlink:href="#DejaVuSans-4d" transform="translate(566.511719 0)"/>
      <use xlink:href="#DejaVuSans-46" transform="translate(652.791016 0)"/>
      <use xlink:href="#DejaVuSans-33" transform="translate(710.310547 0)"/>
     </g>
    </g>
   </g>
   <g id="line2d_44">
    <path d="M 104.525313 532.503659 
L 106.776113 531.990333 
L 109.026914 531.703065 
L 111.277715 531.627295 
L 113.528516 531.763042 
L 115.779317 532.110576 
L 118.030118 532.644871 
L 120.280919 533.36284 
L 122.53172 534.248641 
L 124.782521 535.291869 
L 129.284123 537.779712 
L 133.785724 540.647783 
L 145.039729 548.170836 
L 149.541331 550.825477 
L 151.792132 551.985347 
L 154.042933 553.003084 
L 156.293734 553.855925 
L 158.544534 554.521427 
L 160.795335 554.976855 
L 163.046136 555.198145 
L 165.296937 555.162508 
L 167.547738 554.861069 
L 169.798539 554.291793 
L 172.04934 553.495756 
L 174.300141 552.473196 
L 176.550942 551.258033 
L 178.801743 549.865333 
L 181.052544 548.316026 
L 185.554145 544.833478 
L 192.306548 539.030932 
L 199.058951 533.199142 
L 203.560553 529.668413 
L 208.062155 526.599961 
L 212.563756 524.000001 
L 217.065358 521.83469 
L 221.56696 520.085914 
L 226.068562 518.767038 
L 228.319363 518.27707 
L 230.570164 517.904053 
L 232.820965 517.65078 
L 235.071766 517.519754 
L 237.322567 517.513909 
L 239.573367 517.633722 
L 241.824168 517.881747 
L 244.074969 518.258259 
L 246.32577 518.765011 
L 248.576571 519.409739 
L 250.827372 520.194434 
L 253.078173 521.136229 
L 255.328974 522.240275 
L 257.579775 523.526613 
L 259.830576 525.005144 
L 262.081377 526.678394 
L 264.332177 528.558132 
L 266.582978 530.619889 
L 271.08458 535.273267 
L 275.586182 540.511159 
L 280.087784 546.201666 
L 295.84339 566.93353 
L 300.344992 572.146256 
L 302.595793 574.490878 
L 304.846594 576.622689 
L 307.097395 578.516668 
L 309.348196 580.144434 
L 311.598997 581.489308 
L 313.849798 582.525047 
L 316.100599 583.247365 
L 318.351399 583.634866 
L 320.6022 583.685214 
L 322.853001 583.383557 
L 325.103802 582.755099 
L 327.354603 581.804592 
L 329.605404 580.569761 
L 331.856205 579.063592 
L 334.107006 577.313217 
L 336.357807 575.339646 
L 338.608608 573.163218 
L 340.859409 570.806223 
L 345.36101 565.630529 
L 349.862612 559.978876 
L 356.615015 550.969114 
L 365.618219 538.83013 
L 370.119821 533.068658 
L 374.621422 527.711646 
L 379.123024 522.772101 
L 383.624626 518.210304 
L 388.126228 514.070529 
L 392.62783 510.408742 
L 397.129431 507.262498 
L 399.380232 505.89666 
L 401.631033 504.677123 
L 403.881834 503.609409 
L 406.132635 502.699483 
L 408.383436 501.953135 
L 410.634237 501.375773 
L 412.885038 500.973185 
L 415.135839 500.753093 
L 417.38664 500.72138 
L 419.637441 500.886568 
L 421.888242 501.255325 
L 424.139042 501.811207 
L 426.389843 502.558988 
L 428.640644 503.487476 
L 430.891445 504.593932 
L 433.142246 505.872658 
L 435.393047 507.318582 
L 437.643848 508.927214 
L 439.894649 510.693476 
L 444.396251 514.663621 
L 448.897853 519.106198 
L 455.650255 526.24779 
L 462.402658 533.365114 
L 466.90426 537.851768 
L 471.405862 542.072581 
L 475.907464 545.986296 
L 480.409065 549.56436 
L 484.910667 552.731037 
L 487.161468 554.130774 
L 489.412269 555.392539 
L 491.66307 556.502767 
L 493.913871 557.449438 
L 496.164672 558.220047 
L 498.415473 558.802182 
L 500.666274 559.183348 
L 502.917075 559.351116 
L 505.167875 559.293525 
L 507.418676 558.998177 
L 509.669477 558.448206 
L 511.920278 557.630875 
L 514.171079 556.545178 
L 516.42188 555.211554 
L 518.672681 553.695418 
L 523.174283 550.248058 
L 532.177486 543.010681 
L 534.428287 541.392982 
L 536.679088 539.939276 
L 538.929889 538.694597 
L 541.18069 537.694 
L 543.431491 536.964377 
L 545.682292 536.490508 
L 547.933093 536.298078 
L 550.183894 536.380884 
L 552.434695 536.749901 
L 554.685496 537.386147 
L 556.936296 538.24453 
L 565.9395 542.247422 
L 568.190301 543.036407 
L 570.441102 543.653016 
L 572.691903 544.116718 
L 574.942704 544.410632 
L 577.193505 544.552225 
L 579.444306 544.537937 
L 581.695107 544.386419 
L 586.196708 543.730216 
L 599.701514 541.079797 
L 601.952315 540.842521 
L 604.203116 540.73282 
L 608.704718 540.85766 
L 613.206319 541.293527 
L 624.460324 542.631974 
L 628.961926 542.886443 
L 633.463528 542.920904 
L 637.965129 542.767 
L 644.717532 542.250793 
L 653.720736 541.44774 
L 658.222338 541.339568 
L 662.72394 541.614485 
L 667.225541 542.279935 
L 682.981148 545.201337 
L 687.48275 545.668734 
L 691.984351 545.848602 
L 696.485953 545.713506 
L 700.987555 545.259121 
L 705.489157 544.489905 
L 709.990759 543.358636 
L 712.24156 542.625237 
L 714.492361 541.76383 
L 716.743161 540.7678 
L 718.993962 539.625207 
L 723.495564 536.967448 
L 730.247967 532.749229 
L 732.498768 531.532615 
L 734.749569 530.522995 
L 737.00037 529.783737 
L 739.251171 529.340954 
L 741.501972 529.235831 
L 743.752772 529.47757 
L 746.003573 530.100854 
L 748.254374 531.056675 
L 750.505175 532.308952 
L 752.755976 533.795158 
L 755.006777 535.476115 
L 759.508379 539.325379 
L 764.009981 543.606198 
L 770.762383 550.230208 
L 773.013184 552.300743 
L 775.263985 554.214233 
L 777.514786 555.92162 
L 779.765587 557.395737 
L 782.016388 558.587936 
L 784.267189 559.464336 
L 786.51799 559.98382 
L 788.768791 560.113698 
L 791.019592 559.815404 
L 793.270393 559.13443 
L 795.521194 558.093586 
L 797.771994 556.752621 
L 800.022795 555.141691 
L 802.273596 553.310288 
L 806.775198 549.149349 
L 820.280004 535.735255 
L 822.530804 533.774814 
L 824.781605 531.969885 
L 827.032406 530.353605 
L 829.283207 528.924508 
L 831.534008 527.707962 
L 833.784809 526.708265 
L 836.03561 525.941441 
L 838.286411 525.428937 
L 840.537212 525.184472 
L 842.788013 525.218122 
L 845.038814 525.52897 
L 847.289615 526.056753 
L 849.540415 526.775939 
L 854.042017 528.561975 
L 874.299226 537.293197 
L 878.800827 539.210188 
L 883.302429 541.376538 
L 890.054832 545.047894 
L 896.807235 548.725492 
L 901.308837 550.902023 
L 903.559637 551.844552 
L 905.810438 552.661933 
L 908.061239 553.333174 
L 910.31204 553.847929 
L 912.562841 554.186303 
L 914.813642 554.349975 
L 917.064443 554.323899 
L 919.315244 554.116361 
L 921.566045 553.71919 
L 923.816846 553.173843 
L 928.318448 551.699456 
L 932.820049 549.906307 
L 939.572452 546.952106 
L 948.575656 542.678738 
L 957.578859 538.349299 
L 962.080461 536.336279 
L 966.582063 534.546683 
L 971.083665 533.106817 
L 973.334466 532.557944 
L 975.585267 532.144619 
L 977.836068 531.85914 
L 980.086869 531.710431 
L 982.337669 531.674307 
L 986.839271 531.929477 
L 991.340873 532.553718 
L 995.842475 533.477025 
L 1000.344077 534.628564 
L 1007.09648 536.629091 
L 1022.852086 541.460184 
L 1031.85529 543.939989 
L 1047.610896 547.996024 
L 1056.6141 550.207728 
L 1061.115702 551.161895 
L 1065.617303 551.953797 
L 1070.118905 552.557945 
L 1074.620507 552.95301 
L 1079.122109 553.13511 
L 1083.623711 553.119336 
L 1088.125312 552.936511 
L 1088.125312 552.936511 
" clip-path="url(#pc27bfd922e)" style="fill: none; stroke: #f27f19; stroke-width: 1.5; stroke-linecap: square"/>
   </g>
   <g id="patch_23">
    <path d="M 55.345313 587.833406 
L 55.345313 496.573188 
" style="fill: none; stroke: #000000; stroke-width: 0.8; stroke-linejoin: miter; stroke-linecap: square"/>
   </g>
   <g id="patch_24">
    <path d="M 1137.305313 587.833406 
L 1137.305313 496.573188 
" style="fill: none; stroke: #000000; stroke-width: 0.8; stroke-linejoin: miter; stroke-linecap: square"/>
   </g>
   <g id="patch_25">
    <path d="M 55.345313 587.833406 
L 1137.305312 587.833406 
" style="fill: none; stroke: #000000; stroke-width: 0.8; stroke-linejoin: miter; stroke-linecap: square"/>
   </g>
   <g id="patch_26">
    <path d="M 55.345313 496.573188 
L 1137.305312 496.573188 
" style="fill: none; stroke: #000000; stroke-width: 0.8; stroke-linejoin: miter; stroke-linecap: square"/>
   </g>
  </g>
  <g id="axes_6">
   <g id="patch_27">
    <path d="M 55.345313 710.176703 
L 1137.305313 710.176703 
L 1137.305313 618.916485 
L 55.345313 618.916485 
z
" style="fill: #ffffff"/>
   </g>
   <g id="matplotlib.axis_11">
    <g id="xtick_26">
     <g id="line2d_45">
      <g>
       <use xlink:href="#mc5dfc2854d" x="104.525313" y="710.176703" style="stroke: #000000; stroke-width: 0.8"/>
      </g>
     </g>
     <g id="text_45">
      <!-- 0 -->
      <g transform="translate(101.344063 724.775141) scale(0.1 -0.1)">
       <use xlink:href="#DejaVuSans-30"/>
      </g>
     </g>
    </g>
    <g id="xtick_27">
     <g id="line2d_46">
      <g>
       <use xlink:href="#mc5dfc2854d" x="329.605404" y="710.176703" style="stroke: #000000; stroke-width: 0.8"/>
      </g>
     </g>
     <g id="text_46">
      <!-- 100 -->
      <g transform="translate(320.061654 724.775141) scale(0.1 -0.1)">
       <use xlink:href="#DejaVuSans-31"/>
       <use xlink:href="#DejaVuSans-30" transform="translate(63.623047 0)"/>
       <use xlink:href="#DejaVuSans-30" transform="translate(127.246094 0)"/>
      </g>
     </g>
    </g>
    <g id="xtick_28">
     <g id="line2d_47">
      <g>
       <use xlink:href="#mc5dfc2854d" x="554.685496" y="710.176703" style="stroke: #000000; stroke-width: 0.8"/>
      </g>
     </g>
     <g id="text_47">
      <!-- 200 -->
      <g transform="translate(545.141746 724.775141) scale(0.1 -0.1)">
       <use xlink:href="#DejaVuSans-32"/>
       <use xlink:href="#DejaVuSans-30" transform="translate(63.623047 0)"/>
       <use xlink:href="#DejaVuSans-30" transform="translate(127.246094 0)"/>
      </g>
     </g>
    </g>
    <g id="xtick_29">
     <g id="line2d_48">
      <g>
       <use xlink:href="#mc5dfc2854d" x="779.765587" y="710.176703" style="stroke: #000000; stroke-width: 0.8"/>
      </g>
     </g>
     <g id="text_48">
      <!-- 300 -->
      <g transform="translate(770.221837 724.775141) scale(0.1 -0.1)">
       <use xlink:href="#DejaVuSans-33"/>
       <use xlink:href="#DejaVuSans-30" transform="translate(63.623047 0)"/>
       <use xlink:href="#DejaVuSans-30" transform="translate(127.246094 0)"/>
      </g>
     </g>
    </g>
    <g id="xtick_30">
     <g id="line2d_49">
      <g>
       <use xlink:href="#mc5dfc2854d" x="1004.845679" y="710.176703" style="stroke: #000000; stroke-width: 0.8"/>
      </g>
     </g>
     <g id="text_49">
      <!-- 400 -->
      <g transform="translate(995.301929 724.775141) scale(0.1 -0.1)">
       <use xlink:href="#DejaVuSans-34"/>
       <use xlink:href="#DejaVuSans-30" transform="translate(63.623047 0)"/>
       <use xlink:href="#DejaVuSans-30" transform="translate(127.246094 0)"/>
      </g>
     </g>
    </g>
   </g>
   <g id="matplotlib.axis_12">
    <g id="ytick_15">
     <g id="line2d_50">
      <g>
       <use xlink:href="#m2e8c526e0a" x="55.345313" y="696.744323" style="stroke: #000000; stroke-width: 0.8"/>
      </g>
     </g>
     <g id="text_50">
      <!-- −200 -->
      <g transform="translate(20.878125 700.543542) scale(0.1 -0.1)">
       <use xlink:href="#DejaVuSans-2212"/>
       <use xlink:href="#DejaVuSans-32" transform="translate(83.789062 0)"/>
       <use xlink:href="#DejaVuSans-30" transform="translate(147.412109 0)"/>
       <use xlink:href="#DejaVuSans-30" transform="translate(211.035156 0)"/>
      </g>
     </g>
    </g>
    <g id="ytick_16">
     <g id="line2d_51">
      <g>
       <use xlink:href="#m2e8c526e0a" x="55.345313" y="653.197518" style="stroke: #000000; stroke-width: 0.8"/>
      </g>
     </g>
     <g id="text_51">
      <!-- 0 -->
      <g transform="translate(41.982813 656.996737) scale(0.1 -0.1)">
       <use xlink:href="#DejaVuSans-30"/>
      </g>
     </g>
    </g>
    <g id="text_52">
     <!-- CEEMDAN-IMF4 -->
     <g transform="translate(14.798438 703.24425) rotate(-90) scale(0.1 -0.1)">
      <use xlink:href="#DejaVuSans-43"/>
      <use xlink:href="#DejaVuSans-45" transform="translate(69.824219 0)"/>
      <use xlink:href="#DejaVuSans-45" transform="translate(133.007812 0)"/>
      <use xlink:href="#DejaVuSans-4d" transform="translate(196.191406 0)"/>
      <use xlink:href="#DejaVuSans-44" transform="translate(282.470703 0)"/>
      <use xlink:href="#DejaVuSans-41" transform="translate(357.722656 0)"/>
      <use xlink:href="#DejaVuSans-4e" transform="translate(426.130859 0)"/>
      <use xlink:href="#DejaVuSans-2d" transform="translate(500.935547 0)"/>
      <use xlink:href="#DejaVuSans-49" transform="translate(537.019531 0)"/>
      <use xlink:href="#DejaVuSans-4d" transform="translate(566.511719 0)"/>
      <use xlink:href="#DejaVuSans-46" transform="translate(652.791016 0)"/>
      <use xlink:href="#DejaVuSans-34" transform="translate(710.310547 0)"/>
     </g>
    </g>
   </g>
   <g id="line2d_52">
    <path d="M 104.525313 694.096413 
L 122.53172 696.687253 
L 158.544534 701.966334 
L 172.04934 703.695747 
L 181.052544 704.670545 
L 190.055747 705.427402 
L 196.80815 705.812266 
L 203.560553 706.009466 
L 210.312956 705.988898 
L 217.065358 705.713974 
L 223.817761 705.146355 
L 228.319363 704.586395 
L 232.820965 703.86794 
L 237.322567 702.980839 
L 241.824168 701.922171 
L 246.32577 700.692979 
L 250.827372 699.294432 
L 255.328974 697.727697 
L 259.830576 695.995587 
L 266.582978 693.108398 
L 273.335381 689.90748 
L 280.087784 686.43007 
L 286.840187 682.713407 
L 295.84339 677.450048 
L 304.846594 671.915818 
L 318.351399 663.29519 
L 338.608608 650.281186 
L 347.611811 644.775701 
L 354.364214 640.869139 
L 361.116617 637.212301 
L 367.86902 633.858259 
L 372.370621 631.816659 
L 376.872223 629.948946 
L 381.373825 628.270846 
L 385.875427 626.798082 
L 390.377029 625.546379 
L 394.878631 624.531463 
L 399.380232 623.769057 
L 403.881834 623.274887 
L 408.383436 623.064677 
L 412.885038 623.154151 
L 417.38664 623.558531 
L 421.888242 624.279578 
L 426.389843 625.294785 
L 430.891445 626.575381 
L 435.393047 628.092553 
L 439.894649 629.817493 
L 446.647052 632.731448 
L 453.399454 635.950831 
L 462.402658 640.5504 
L 482.659866 651.058958 
L 489.412269 654.265191 
L 496.164672 657.161065 
L 500.666274 658.871211 
L 505.167875 660.371399 
L 509.669477 661.635067 
L 514.171079 662.650215 
L 518.672681 663.413615 
L 523.174283 663.922336 
L 527.675885 664.173488 
L 532.177486 664.165124 
L 536.679088 663.896792 
L 541.18069 663.368619 
L 545.682292 662.580771 
L 550.183894 661.533521 
L 554.685496 660.235205 
L 559.187097 658.730039 
L 579.444306 651.54742 
L 583.945907 650.283674 
L 588.447509 649.243275 
L 592.949111 648.460774 
L 597.450713 647.970718 
L 601.952315 647.806673 
L 606.453917 647.975131 
L 610.955518 648.436046 
L 615.45712 649.136876 
L 619.958722 650.024757 
L 626.711125 651.591659 
L 642.466731 655.425433 
L 649.219134 656.747717 
L 653.720736 657.414787 
L 658.222338 657.877535 
L 662.72394 658.126506 
L 667.225541 658.180637 
L 671.727143 658.064652 
L 678.479546 657.624707 
L 685.231949 656.929245 
L 691.984351 656.029306 
L 700.987555 654.595916 
L 712.24156 652.564258 
L 734.749569 648.402112 
L 743.752772 646.961496 
L 752.755976 645.735663 
L 764.009981 644.43633 
L 779.765587 642.879538 
L 824.781605 638.74999 
L 838.286411 637.784917 
L 849.540415 637.206102 
L 858.543619 636.935176 
L 867.546823 636.857608 
L 876.550026 636.994599 
L 885.55323 637.369264 
L 894.556434 638.005189 
L 903.559637 638.925958 
L 910.31204 639.817653 
L 917.064443 640.892677 
L 923.816846 642.154051 
L 932.820049 644.100125 
L 941.823253 646.294229 
L 953.077258 649.293816 
L 968.832864 653.761901 
L 995.842475 661.419811 
L 1009.34728 665.001836 
L 1020.601285 667.75325 
L 1029.604489 669.75528 
L 1038.607692 671.544747 
L 1047.610896 673.0888 
L 1056.6141 674.354592 
L 1063.366502 675.101565 
L 1070.118905 675.65968 
L 1076.871308 676.01508 
L 1083.623711 676.15393 
L 1088.125312 676.121054 
L 1088.125312 676.121054 
" clip-path="url(#pe6059ec1d2)" style="fill: none; stroke: #f27f19; stroke-width: 1.5; stroke-linecap: square"/>
   </g>
   <g id="patch_28">
    <path d="M 55.345313 710.176703 
L 55.345313 618.916485 
" style="fill: none; stroke: #000000; stroke-width: 0.8; stroke-linejoin: miter; stroke-linecap: square"/>
   </g>
   <g id="patch_29">
    <path d="M 1137.305313 710.176703 
L 1137.305313 618.916485 
" style="fill: none; stroke: #000000; stroke-width: 0.8; stroke-linejoin: miter; stroke-linecap: square"/>
   </g>
   <g id="patch_30">
    <path d="M 55.345313 710.176703 
L 1137.305312 710.176703 
" style="fill: none; stroke: #000000; stroke-width: 0.8; stroke-linejoin: miter; stroke-linecap: square"/>
   </g>
   <g id="patch_31">
    <path d="M 55.345313 618.916485 
L 1137.305312 618.916485 
" style="fill: none; stroke: #000000; stroke-width: 0.8; stroke-linejoin: miter; stroke-linecap: square"/>
   </g>
  </g>
  <g id="axes_7">
   <g id="patch_32">
    <path d="M 55.345313 832.52 
L 1137.305313 832.52 
L 1137.305313 741.259782 
L 55.345313 741.259782 
z
" style="fill: #ffffff"/>
   </g>
   <g id="matplotlib.axis_13">
    <g id="xtick_31">
     <g id="line2d_53">
      <g>
       <use xlink:href="#mc5dfc2854d" x="104.525313" y="832.52" style="stroke: #000000; stroke-width: 0.8"/>
      </g>
     </g>
     <g id="text_53">
      <!-- 0 -->
      <g transform="translate(101.344063 847.118437) scale(0.1 -0.1)">
       <use xlink:href="#DejaVuSans-30"/>
      </g>
     </g>
    </g>
    <g id="xtick_32">
     <g id="line2d_54">
      <g>
       <use xlink:href="#mc5dfc2854d" x="329.605404" y="832.52" style="stroke: #000000; stroke-width: 0.8"/>
      </g>
     </g>
     <g id="text_54">
      <!-- 100 -->
      <g transform="translate(320.061654 847.118437) scale(0.1 -0.1)">
       <use xlink:href="#DejaVuSans-31"/>
       <use xlink:href="#DejaVuSans-30" transform="translate(63.623047 0)"/>
       <use xlink:href="#DejaVuSans-30" transform="translate(127.246094 0)"/>
      </g>
     </g>
    </g>
    <g id="xtick_33">
     <g id="line2d_55">
      <g>
       <use xlink:href="#mc5dfc2854d" x="554.685496" y="832.52" style="stroke: #000000; stroke-width: 0.8"/>
      </g>
     </g>
     <g id="text_55">
      <!-- 200 -->
      <g transform="translate(545.141746 847.118437) scale(0.1 -0.1)">
       <use xlink:href="#DejaVuSans-32"/>
       <use xlink:href="#DejaVuSans-30" transform="translate(63.623047 0)"/>
       <use xlink:href="#DejaVuSans-30" transform="translate(127.246094 0)"/>
      </g>
     </g>
    </g>
    <g id="xtick_34">
     <g id="line2d_56">
      <g>
       <use xlink:href="#mc5dfc2854d" x="779.765587" y="832.52" style="stroke: #000000; stroke-width: 0.8"/>
      </g>
     </g>
     <g id="text_56">
      <!-- 300 -->
      <g transform="translate(770.221837 847.118437) scale(0.1 -0.1)">
       <use xlink:href="#DejaVuSans-33"/>
       <use xlink:href="#DejaVuSans-30" transform="translate(63.623047 0)"/>
       <use xlink:href="#DejaVuSans-30" transform="translate(127.246094 0)"/>
      </g>
     </g>
    </g>
    <g id="xtick_35">
     <g id="line2d_57">
      <g>
       <use xlink:href="#mc5dfc2854d" x="1004.845679" y="832.52" style="stroke: #000000; stroke-width: 0.8"/>
      </g>
     </g>
     <g id="text_57">
      <!-- 400 -->
      <g transform="translate(995.301929 847.118437) scale(0.1 -0.1)">
       <use xlink:href="#DejaVuSans-34"/>
       <use xlink:href="#DejaVuSans-30" transform="translate(63.623047 0)"/>
       <use xlink:href="#DejaVuSans-30" transform="translate(127.246094 0)"/>
      </g>
     </g>
    </g>
   </g>
   <g id="matplotlib.axis_14">
    <g id="ytick_17">
     <g id="line2d_58">
      <g>
       <use xlink:href="#m2e8c526e0a" x="55.345313" y="805.971784" style="stroke: #000000; stroke-width: 0.8"/>
      </g>
     </g>
     <g id="text_58">
      <!-- 1000 -->
      <g transform="translate(22.895313 809.771003) scale(0.1 -0.1)">
       <use xlink:href="#DejaVuSans-31"/>
       <use xlink:href="#DejaVuSans-30" transform="translate(63.623047 0)"/>
       <use xlink:href="#DejaVuSans-30" transform="translate(127.246094 0)"/>
       <use xlink:href="#DejaVuSans-30" transform="translate(190.869141 0)"/>
      </g>
     </g>
    </g>
    <g id="ytick_18">
     <g id="line2d_59">
      <g>
       <use xlink:href="#m2e8c526e0a" x="55.345313" y="774.041491" style="stroke: #000000; stroke-width: 0.8"/>
      </g>
     </g>
     <g id="text_59">
      <!-- 1100 -->
      <g transform="translate(22.895313 777.840709) scale(0.1 -0.1)">
       <use xlink:href="#DejaVuSans-31"/>
       <use xlink:href="#DejaVuSans-31" transform="translate(63.623047 0)"/>
       <use xlink:href="#DejaVuSans-30" transform="translate(127.246094 0)"/>
       <use xlink:href="#DejaVuSans-30" transform="translate(190.869141 0)"/>
      </g>
     </g>
    </g>
    <g id="ytick_19">
     <g id="line2d_60">
      <g>
       <use xlink:href="#m2e8c526e0a" x="55.345313" y="742.111197" style="stroke: #000000; stroke-width: 0.8"/>
      </g>
     </g>
     <g id="text_60">
      <!-- 1200 -->
      <g transform="translate(22.895313 745.910416) scale(0.1 -0.1)">
       <use xlink:href="#DejaVuSans-31"/>
       <use xlink:href="#DejaVuSans-32" transform="translate(63.623047 0)"/>
       <use xlink:href="#DejaVuSans-30" transform="translate(127.246094 0)"/>
       <use xlink:href="#DejaVuSans-30" transform="translate(190.869141 0)"/>
      </g>
     </g>
    </g>
    <g id="text_61">
     <!-- CEEMDAN-IMF5 -->
     <g transform="translate(14.798438 825.587547) rotate(-90) scale(0.1 -0.1)">
      <use xlink:href="#DejaVuSans-43"/>
      <use xlink:href="#DejaVuSans-45" transform="translate(69.824219 0)"/>
      <use xlink:href="#DejaVuSans-45" transform="translate(133.007812 0)"/>
      <use xlink:href="#DejaVuSans-4d" transform="translate(196.191406 0)"/>
      <use xlink:href="#DejaVuSans-44" transform="translate(282.470703 0)"/>
      <use xlink:href="#DejaVuSans-41" transform="translate(357.722656 0)"/>
      <use xlink:href="#DejaVuSans-4e" transform="translate(426.130859 0)"/>
      <use xlink:href="#DejaVuSans-2d" transform="translate(500.935547 0)"/>
      <use xlink:href="#DejaVuSans-49" transform="translate(537.019531 0)"/>
      <use xlink:href="#DejaVuSans-4d" transform="translate(566.511719 0)"/>
      <use xlink:href="#DejaVuSans-46" transform="translate(652.791016 0)"/>
      <use xlink:href="#DejaVuSans-35" transform="translate(710.310547 0)"/>
     </g>
    </g>
   </g>
   <g id="line2d_61">
    <path d="M 104.525313 814.23702 
L 115.779317 817.238196 
L 124.782521 819.433259 
L 133.785724 821.427406 
L 142.788928 823.204102 
L 151.792132 824.746811 
L 160.795335 826.038997 
L 169.798539 827.064126 
L 178.801743 827.805661 
L 185.554145 828.165757 
L 192.306548 828.350054 
L 199.058951 828.351577 
L 205.811354 828.163641 
L 212.563756 827.785669 
L 219.316159 827.22516 
L 226.068562 826.490495 
L 235.071766 825.254517 
L 244.074969 823.743695 
L 253.078173 821.977895 
L 262.081377 819.976985 
L 271.08458 817.760831 
L 280.087784 815.3493 
L 291.341788 812.090404 
L 302.595793 808.596077 
L 316.100599 804.146749 
L 331.856205 798.687454 
L 352.113413 791.407524 
L 390.377029 777.610552 
L 406.132635 772.198793 
L 419.637441 767.805798 
L 430.891445 764.361554 
L 442.14545 761.138956 
L 453.399454 758.15854 
L 464.653459 755.440793 
L 473.656663 753.469483 
L 482.659866 751.68988 
L 491.66307 750.112474 
L 500.666274 748.747753 
L 509.669477 747.606205 
L 518.672681 746.69832 
L 527.675885 746.03453 
L 536.679088 745.617181 
L 545.682292 745.426427 
L 554.685496 745.436499 
L 565.9395 745.692159 
L 577.193505 746.170827 
L 590.69831 746.968586 
L 608.704718 748.270488 
L 640.21593 750.820489 
L 669.476342 753.107748 
L 689.73355 754.447926 
L 712.24156 755.690948 
L 737.00037 756.819616 
L 766.260782 757.923845 
L 820.280004 759.681228 
L 858.543619 761.034186 
L 887.804031 762.294252 
L 923.816846 764.089191 
L 1036.356891 769.89976 
L 1065.617303 771.078137 
L 1088.125312 771.792063 
L 1088.125312 771.792063 
" clip-path="url(#p881e091c02)" style="fill: none; stroke: #f27f19; stroke-width: 1.5; stroke-linecap: square"/>
   </g>
   <g id="patch_33">
    <path d="M 55.345313 832.52 
L 55.345313 741.259782 
" style="fill: none; stroke: #000000; stroke-width: 0.8; stroke-linejoin: miter; stroke-linecap: square"/>
   </g>
   <g id="patch_34">
    <path d="M 1137.305313 832.52 
L 1137.305313 741.259782 
" style="fill: none; stroke: #000000; stroke-width: 0.8; stroke-linejoin: miter; stroke-linecap: square"/>
   </g>
   <g id="patch_35">
    <path d="M 55.345313 832.52 
L 1137.305312 832.52 
" style="fill: none; stroke: #000000; stroke-width: 0.8; stroke-linejoin: miter; stroke-linecap: square"/>
   </g>
   <g id="patch_36">
    <path d="M 55.345313 741.259782 
L 1137.305312 741.259782 
" style="fill: none; stroke: #000000; stroke-width: 0.8; stroke-linejoin: miter; stroke-linecap: square"/>
   </g>
  </g>
 </g>
 <defs>
  <clipPath id="pb856e8a711">
   <rect x="55.345313" y="7.2" width="1081.96" height="91.260218"/>
  </clipPath>
  <clipPath id="p4b599a50de">
   <rect x="55.345313" y="129.543297" width="1081.96" height="91.260218"/>
  </clipPath>
  <clipPath id="p395268187f">
   <rect x="55.345313" y="251.886594" width="1081.96" height="91.260218"/>
  </clipPath>
  <clipPath id="pdca609950e">
   <rect x="55.345313" y="374.229891" width="1081.96" height="91.260218"/>
  </clipPath>
  <clipPath id="pc27bfd922e">
   <rect x="55.345313" y="496.573188" width="1081.96" height="91.260218"/>
  </clipPath>
  <clipPath id="pe6059ec1d2">
   <rect x="55.345313" y="618.916485" width="1081.96" height="91.260218"/>
  </clipPath>
  <clipPath id="p881e091c02">
   <rect x="55.345313" y="741.259782" width="1081.96" height="91.260218"/>
  </clipPath>
 </defs>
</svg>
