<?xml version="1.0" encoding="utf-8" standalone="no"?>
<!DOCTYPE svg PUBLIC "-//W3C//DTD SVG 1.1//EN"
  "http://www.w3.org/Graphics/SVG/1.1/DTD/svg11.dtd">
<svg xmlns:xlink="http://www.w3.org/1999/xlink" width="1144.470312pt" height="568.398125pt" viewBox="0 0 1144.470312 568.398125" xmlns="http://www.w3.org/2000/svg" version="1.1">
 <metadata>
  <rdf:RDF xmlns:dc="http://purl.org/dc/elements/1.1/" xmlns:cc="http://creativecommons.org/ns#" xmlns:rdf="http://www.w3.org/1999/02/22-rdf-syntax-ns#">
   <cc:Work>
    <dc:type rdf:resource="http://purl.org/dc/dcmitype/StillImage"/>
    <dc:date>2025-04-14T14:28:51.626742</dc:date>
    <dc:format>image/svg+xml</dc:format>
    <dc:creator>
     <cc:Agent>
      <dc:title>Matplotlib v3.10.1, https://matplotlib.org/</dc:title>
     </cc:Agent>
    </dc:creator>
   </cc:Work>
  </rdf:RDF>
 </metadata>
 <defs>
  <style type="text/css">*{stroke-linejoin: round; stroke-linecap: butt}</style>
 </defs>
 <g id="figure_1">
  <g id="patch_1">
   <path d="M 0 568.398125 
L 1144.470312 568.398125 
L 1144.470312 0 
L 0 0 
z
" style="fill: #ffffff"/>
  </g>
  <g id="axes_1">
   <g id="patch_2">
    <path d="M 42.620313 120.62 
L 1137.270313 120.62 
L 1137.270313 7.2 
L 42.620313 7.2 
z
" style="fill: #ffffff"/>
   </g>
   <g id="matplotlib.axis_1">
    <g id="xtick_1">
     <g id="line2d_1">
      <defs>
       <path id="md70b32c991" d="M 0 0 
L 0 3.5 
" style="stroke: #000000; stroke-width: 0.8"/>
      </defs>
      <g>
       <use xlink:href="#md70b32c991" x="92.377131" y="120.62" style="stroke: #000000; stroke-width: 0.8"/>
      </g>
     </g>
     <g id="text_1">
      <!-- 0 -->
      <g transform="translate(89.195881 135.218437) scale(0.1 -0.1)">
       <defs>
        <path id="DejaVuSans-30" d="M 2034 4250 
Q 1547 4250 1301 3770 
Q 1056 3291 1056 2328 
Q 1056 1369 1301 889 
Q 1547 409 2034 409 
Q 2525 409 2770 889 
Q 3016 1369 3016 2328 
Q 3016 3291 2770 3770 
Q 2525 4250 2034 4250 
z
M 2034 4750 
Q 2819 4750 3233 4129 
Q 3647 3509 3647 2328 
Q 3647 1150 3233 529 
Q 2819 -91 2034 -91 
Q 1250 -91 836 529 
Q 422 1150 422 2328 
Q 422 3509 836 4129 
Q 1250 4750 2034 4750 
z
" transform="scale(0.015625)"/>
       </defs>
       <use xlink:href="#DejaVuSans-30"/>
      </g>
     </g>
    </g>
    <g id="xtick_2">
     <g id="line2d_2">
      <g>
       <use xlink:href="#md70b32c991" x="277.863871" y="120.62" style="stroke: #000000; stroke-width: 0.8"/>
      </g>
     </g>
     <g id="text_2">
      <!-- 200 -->
      <g transform="translate(268.320121 135.218437) scale(0.1 -0.1)">
       <defs>
        <path id="DejaVuSans-32" d="M 1228 531 
L 3431 531 
L 3431 0 
L 469 0 
L 469 531 
Q 828 903 1448 1529 
Q 2069 2156 2228 2338 
Q 2531 2678 2651 2914 
Q 2772 3150 2772 3378 
Q 2772 3750 2511 3984 
Q 2250 4219 1831 4219 
Q 1534 4219 1204 4116 
Q 875 4013 500 3803 
L 500 4441 
Q 881 4594 1212 4672 
Q 1544 4750 1819 4750 
Q 2544 4750 2975 4387 
Q 3406 4025 3406 3419 
Q 3406 3131 3298 2873 
Q 3191 2616 2906 2266 
Q 2828 2175 2409 1742 
Q 1991 1309 1228 531 
z
" transform="scale(0.015625)"/>
       </defs>
       <use xlink:href="#DejaVuSans-32"/>
       <use xlink:href="#DejaVuSans-30" transform="translate(63.623047 0)"/>
       <use xlink:href="#DejaVuSans-30" transform="translate(127.246094 0)"/>
      </g>
     </g>
    </g>
    <g id="xtick_3">
     <g id="line2d_3">
      <g>
       <use xlink:href="#md70b32c991" x="463.350612" y="120.62" style="stroke: #000000; stroke-width: 0.8"/>
      </g>
     </g>
     <g id="text_3">
      <!-- 400 -->
      <g transform="translate(453.806862 135.218437) scale(0.1 -0.1)">
       <defs>
        <path id="DejaVuSans-34" d="M 2419 4116 
L 825 1625 
L 2419 1625 
L 2419 4116 
z
M 2253 4666 
L 3047 4666 
L 3047 1625 
L 3713 1625 
L 3713 1100 
L 3047 1100 
L 3047 0 
L 2419 0 
L 2419 1100 
L 313 1100 
L 313 1709 
L 2253 4666 
z
" transform="scale(0.015625)"/>
       </defs>
       <use xlink:href="#DejaVuSans-34"/>
       <use xlink:href="#DejaVuSans-30" transform="translate(63.623047 0)"/>
       <use xlink:href="#DejaVuSans-30" transform="translate(127.246094 0)"/>
      </g>
     </g>
    </g>
    <g id="xtick_4">
     <g id="line2d_4">
      <g>
       <use xlink:href="#md70b32c991" x="648.837353" y="120.62" style="stroke: #000000; stroke-width: 0.8"/>
      </g>
     </g>
     <g id="text_4">
      <!-- 600 -->
      <g transform="translate(639.293603 135.218437) scale(0.1 -0.1)">
       <defs>
        <path id="DejaVuSans-36" d="M 2113 2584 
Q 1688 2584 1439 2293 
Q 1191 2003 1191 1497 
Q 1191 994 1439 701 
Q 1688 409 2113 409 
Q 2538 409 2786 701 
Q 3034 994 3034 1497 
Q 3034 2003 2786 2293 
Q 2538 2584 2113 2584 
z
M 3366 4563 
L 3366 3988 
Q 3128 4100 2886 4159 
Q 2644 4219 2406 4219 
Q 1781 4219 1451 3797 
Q 1122 3375 1075 2522 
Q 1259 2794 1537 2939 
Q 1816 3084 2150 3084 
Q 2853 3084 3261 2657 
Q 3669 2231 3669 1497 
Q 3669 778 3244 343 
Q 2819 -91 2113 -91 
Q 1303 -91 875 529 
Q 447 1150 447 2328 
Q 447 3434 972 4092 
Q 1497 4750 2381 4750 
Q 2619 4750 2861 4703 
Q 3103 4656 3366 4563 
z
" transform="scale(0.015625)"/>
       </defs>
       <use xlink:href="#DejaVuSans-36"/>
       <use xlink:href="#DejaVuSans-30" transform="translate(63.623047 0)"/>
       <use xlink:href="#DejaVuSans-30" transform="translate(127.246094 0)"/>
      </g>
     </g>
    </g>
    <g id="xtick_5">
     <g id="line2d_5">
      <g>
       <use xlink:href="#md70b32c991" x="834.324093" y="120.62" style="stroke: #000000; stroke-width: 0.8"/>
      </g>
     </g>
     <g id="text_5">
      <!-- 800 -->
      <g transform="translate(824.780343 135.218437) scale(0.1 -0.1)">
       <defs>
        <path id="DejaVuSans-38" d="M 2034 2216 
Q 1584 2216 1326 1975 
Q 1069 1734 1069 1313 
Q 1069 891 1326 650 
Q 1584 409 2034 409 
Q 2484 409 2743 651 
Q 3003 894 3003 1313 
Q 3003 1734 2745 1975 
Q 2488 2216 2034 2216 
z
M 1403 2484 
Q 997 2584 770 2862 
Q 544 3141 544 3541 
Q 544 4100 942 4425 
Q 1341 4750 2034 4750 
Q 2731 4750 3128 4425 
Q 3525 4100 3525 3541 
Q 3525 3141 3298 2862 
Q 3072 2584 2669 2484 
Q 3125 2378 3379 2068 
Q 3634 1759 3634 1313 
Q 3634 634 3220 271 
Q 2806 -91 2034 -91 
Q 1263 -91 848 271 
Q 434 634 434 1313 
Q 434 1759 690 2068 
Q 947 2378 1403 2484 
z
M 1172 3481 
Q 1172 3119 1398 2916 
Q 1625 2713 2034 2713 
Q 2441 2713 2670 2916 
Q 2900 3119 2900 3481 
Q 2900 3844 2670 4047 
Q 2441 4250 2034 4250 
Q 1625 4250 1398 4047 
Q 1172 3844 1172 3481 
z
" transform="scale(0.015625)"/>
       </defs>
       <use xlink:href="#DejaVuSans-38"/>
       <use xlink:href="#DejaVuSans-30" transform="translate(63.623047 0)"/>
       <use xlink:href="#DejaVuSans-30" transform="translate(127.246094 0)"/>
      </g>
     </g>
    </g>
    <g id="xtick_6">
     <g id="line2d_6">
      <g>
       <use xlink:href="#md70b32c991" x="1019.810834" y="120.62" style="stroke: #000000; stroke-width: 0.8"/>
      </g>
     </g>
     <g id="text_6">
      <!-- 1000 -->
      <g transform="translate(1007.085834 135.218437) scale(0.1 -0.1)">
       <defs>
        <path id="DejaVuSans-31" d="M 794 531 
L 1825 531 
L 1825 4091 
L 703 3866 
L 703 4441 
L 1819 4666 
L 2450 4666 
L 2450 531 
L 3481 531 
L 3481 0 
L 794 0 
L 794 531 
z
" transform="scale(0.015625)"/>
       </defs>
       <use xlink:href="#DejaVuSans-31"/>
       <use xlink:href="#DejaVuSans-30" transform="translate(63.623047 0)"/>
       <use xlink:href="#DejaVuSans-30" transform="translate(127.246094 0)"/>
       <use xlink:href="#DejaVuSans-30" transform="translate(190.869141 0)"/>
      </g>
     </g>
    </g>
   </g>
   <g id="matplotlib.axis_2">
    <g id="ytick_1">
     <g id="line2d_7">
      <defs>
       <path id="mbd94174344" d="M 0 0 
L -3.5 0 
" style="stroke: #000000; stroke-width: 0.8"/>
      </defs>
      <g>
       <use xlink:href="#mbd94174344" x="42.620313" y="113.649536" style="stroke: #000000; stroke-width: 0.8"/>
      </g>
     </g>
     <g id="text_7">
      <!-- 10 -->
      <g transform="translate(22.895313 117.448755) scale(0.1 -0.1)">
       <use xlink:href="#DejaVuSans-31"/>
       <use xlink:href="#DejaVuSans-30" transform="translate(63.623047 0)"/>
      </g>
     </g>
    </g>
    <g id="ytick_2">
     <g id="line2d_8">
      <g>
       <use xlink:href="#mbd94174344" x="42.620313" y="84.267566" style="stroke: #000000; stroke-width: 0.8"/>
      </g>
     </g>
     <g id="text_8">
      <!-- 20 -->
      <g transform="translate(22.895313 88.066785) scale(0.1 -0.1)">
       <use xlink:href="#DejaVuSans-32"/>
       <use xlink:href="#DejaVuSans-30" transform="translate(63.623047 0)"/>
      </g>
     </g>
    </g>
    <g id="ytick_3">
     <g id="line2d_9">
      <g>
       <use xlink:href="#mbd94174344" x="42.620313" y="54.885596" style="stroke: #000000; stroke-width: 0.8"/>
      </g>
     </g>
     <g id="text_9">
      <!-- 30 -->
      <g transform="translate(22.895313 58.684815) scale(0.1 -0.1)">
       <defs>
        <path id="DejaVuSans-33" d="M 2597 2516 
Q 3050 2419 3304 2112 
Q 3559 1806 3559 1356 
Q 3559 666 3084 287 
Q 2609 -91 1734 -91 
Q 1441 -91 1130 -33 
Q 819 25 488 141 
L 488 750 
Q 750 597 1062 519 
Q 1375 441 1716 441 
Q 2309 441 2620 675 
Q 2931 909 2931 1356 
Q 2931 1769 2642 2001 
Q 2353 2234 1838 2234 
L 1294 2234 
L 1294 2753 
L 1863 2753 
Q 2328 2753 2575 2939 
Q 2822 3125 2822 3475 
Q 2822 3834 2567 4026 
Q 2313 4219 1838 4219 
Q 1578 4219 1281 4162 
Q 984 4106 628 3988 
L 628 4550 
Q 988 4650 1302 4700 
Q 1616 4750 1894 4750 
Q 2613 4750 3031 4423 
Q 3450 4097 3450 3541 
Q 3450 3153 3228 2886 
Q 3006 2619 2597 2516 
z
" transform="scale(0.015625)"/>
       </defs>
       <use xlink:href="#DejaVuSans-33"/>
       <use xlink:href="#DejaVuSans-30" transform="translate(63.623047 0)"/>
      </g>
     </g>
    </g>
    <g id="ytick_4">
     <g id="line2d_10">
      <g>
       <use xlink:href="#mbd94174344" x="42.620313" y="25.503626" style="stroke: #000000; stroke-width: 0.8"/>
      </g>
     </g>
     <g id="text_10">
      <!-- 40 -->
      <g transform="translate(22.895313 29.302845) scale(0.1 -0.1)">
       <use xlink:href="#DejaVuSans-34"/>
       <use xlink:href="#DejaVuSans-30" transform="translate(63.623047 0)"/>
      </g>
     </g>
    </g>
    <g id="text_11">
     <!-- Original Data -->
     <g transform="translate(16.815625 97.002969) rotate(-90) scale(0.1 -0.1)">
      <defs>
       <path id="DejaVuSans-4f" d="M 2522 4238 
Q 1834 4238 1429 3725 
Q 1025 3213 1025 2328 
Q 1025 1447 1429 934 
Q 1834 422 2522 422 
Q 3209 422 3611 934 
Q 4013 1447 4013 2328 
Q 4013 3213 3611 3725 
Q 3209 4238 2522 4238 
z
M 2522 4750 
Q 3503 4750 4090 4092 
Q 4678 3434 4678 2328 
Q 4678 1225 4090 567 
Q 3503 -91 2522 -91 
Q 1538 -91 948 565 
Q 359 1222 359 2328 
Q 359 3434 948 4092 
Q 1538 4750 2522 4750 
z
" transform="scale(0.015625)"/>
       <path id="DejaVuSans-72" d="M 2631 2963 
Q 2534 3019 2420 3045 
Q 2306 3072 2169 3072 
Q 1681 3072 1420 2755 
Q 1159 2438 1159 1844 
L 1159 0 
L 581 0 
L 581 3500 
L 1159 3500 
L 1159 2956 
Q 1341 3275 1631 3429 
Q 1922 3584 2338 3584 
Q 2397 3584 2469 3576 
Q 2541 3569 2628 3553 
L 2631 2963 
z
" transform="scale(0.015625)"/>
       <path id="DejaVuSans-69" d="M 603 3500 
L 1178 3500 
L 1178 0 
L 603 0 
L 603 3500 
z
M 603 4863 
L 1178 4863 
L 1178 4134 
L 603 4134 
L 603 4863 
z
" transform="scale(0.015625)"/>
       <path id="DejaVuSans-67" d="M 2906 1791 
Q 2906 2416 2648 2759 
Q 2391 3103 1925 3103 
Q 1463 3103 1205 2759 
Q 947 2416 947 1791 
Q 947 1169 1205 825 
Q 1463 481 1925 481 
Q 2391 481 2648 825 
Q 2906 1169 2906 1791 
z
M 3481 434 
Q 3481 -459 3084 -895 
Q 2688 -1331 1869 -1331 
Q 1566 -1331 1297 -1286 
Q 1028 -1241 775 -1147 
L 775 -588 
Q 1028 -725 1275 -790 
Q 1522 -856 1778 -856 
Q 2344 -856 2625 -561 
Q 2906 -266 2906 331 
L 2906 616 
Q 2728 306 2450 153 
Q 2172 0 1784 0 
Q 1141 0 747 490 
Q 353 981 353 1791 
Q 353 2603 747 3093 
Q 1141 3584 1784 3584 
Q 2172 3584 2450 3431 
Q 2728 3278 2906 2969 
L 2906 3500 
L 3481 3500 
L 3481 434 
z
" transform="scale(0.015625)"/>
       <path id="DejaVuSans-6e" d="M 3513 2113 
L 3513 0 
L 2938 0 
L 2938 2094 
Q 2938 2591 2744 2837 
Q 2550 3084 2163 3084 
Q 1697 3084 1428 2787 
Q 1159 2491 1159 1978 
L 1159 0 
L 581 0 
L 581 3500 
L 1159 3500 
L 1159 2956 
Q 1366 3272 1645 3428 
Q 1925 3584 2291 3584 
Q 2894 3584 3203 3211 
Q 3513 2838 3513 2113 
z
" transform="scale(0.015625)"/>
       <path id="DejaVuSans-61" d="M 2194 1759 
Q 1497 1759 1228 1600 
Q 959 1441 959 1056 
Q 959 750 1161 570 
Q 1363 391 1709 391 
Q 2188 391 2477 730 
Q 2766 1069 2766 1631 
L 2766 1759 
L 2194 1759 
z
M 3341 1997 
L 3341 0 
L 2766 0 
L 2766 531 
Q 2569 213 2275 61 
Q 1981 -91 1556 -91 
Q 1019 -91 701 211 
Q 384 513 384 1019 
Q 384 1609 779 1909 
Q 1175 2209 1959 2209 
L 2766 2209 
L 2766 2266 
Q 2766 2663 2505 2880 
Q 2244 3097 1772 3097 
Q 1472 3097 1187 3025 
Q 903 2953 641 2809 
L 641 3341 
Q 956 3463 1253 3523 
Q 1550 3584 1831 3584 
Q 2591 3584 2966 3190 
Q 3341 2797 3341 1997 
z
" transform="scale(0.015625)"/>
       <path id="DejaVuSans-6c" d="M 603 4863 
L 1178 4863 
L 1178 0 
L 603 0 
L 603 4863 
z
" transform="scale(0.015625)"/>
       <path id="DejaVuSans-20" transform="scale(0.015625)"/>
       <path id="DejaVuSans-44" d="M 1259 4147 
L 1259 519 
L 2022 519 
Q 2988 519 3436 956 
Q 3884 1394 3884 2338 
Q 3884 3275 3436 3711 
Q 2988 4147 2022 4147 
L 1259 4147 
z
M 628 4666 
L 1925 4666 
Q 3281 4666 3915 4102 
Q 4550 3538 4550 2338 
Q 4550 1131 3912 565 
Q 3275 0 1925 0 
L 628 0 
L 628 4666 
z
" transform="scale(0.015625)"/>
       <path id="DejaVuSans-74" d="M 1172 4494 
L 1172 3500 
L 2356 3500 
L 2356 3053 
L 1172 3053 
L 1172 1153 
Q 1172 725 1289 603 
Q 1406 481 1766 481 
L 2356 481 
L 2356 0 
L 1766 0 
Q 1100 0 847 248 
Q 594 497 594 1153 
L 594 3053 
L 172 3053 
L 172 3500 
L 594 3500 
L 594 4494 
L 1172 4494 
z
" transform="scale(0.015625)"/>
      </defs>
      <use xlink:href="#DejaVuSans-4f"/>
      <use xlink:href="#DejaVuSans-72" transform="translate(78.710938 0)"/>
      <use xlink:href="#DejaVuSans-69" transform="translate(119.824219 0)"/>
      <use xlink:href="#DejaVuSans-67" transform="translate(147.607422 0)"/>
      <use xlink:href="#DejaVuSans-69" transform="translate(211.083984 0)"/>
      <use xlink:href="#DejaVuSans-6e" transform="translate(238.867188 0)"/>
      <use xlink:href="#DejaVuSans-61" transform="translate(302.246094 0)"/>
      <use xlink:href="#DejaVuSans-6c" transform="translate(363.525391 0)"/>
      <use xlink:href="#DejaVuSans-20" transform="translate(391.308594 0)"/>
      <use xlink:href="#DejaVuSans-44" transform="translate(423.095703 0)"/>
      <use xlink:href="#DejaVuSans-61" transform="translate(500.097656 0)"/>
      <use xlink:href="#DejaVuSans-74" transform="translate(561.376953 0)"/>
      <use xlink:href="#DejaVuSans-61" transform="translate(600.585938 0)"/>
     </g>
    </g>
   </g>
   <g id="line2d_11">
    <path d="M 92.377131 44.954302 
L 93.304564 46.267929 
L 94.231998 46.692864 
L 95.159432 46.711489 
L 96.086865 45.562411 
L 97.014299 43.072733 
L 97.941733 41.825651 
L 98.869167 41.796835 
L 99.7966 41.006395 
L 100.724034 39.953904 
L 101.651468 38.096081 
L 102.578901 35.104985 
L 103.506335 33.886771 
L 104.433769 32.959041 
L 105.361203 34.253211 
L 106.288636 37.768051 
L 107.21607 40.331588 
L 108.143504 42.09065 
L 109.070937 42.619459 
L 109.998371 41.067388 
L 110.925805 40.238542 
L 111.853238 39.823636 
L 113.708106 37.88587 
L 114.63554 36.001288 
L 115.562973 33.136362 
L 116.490407 30.901055 
L 117.417841 29.192934 
L 118.345274 28.51414 
L 119.272708 29.306838 
L 120.200142 30.313375 
L 121.127575 31.790037 
L 122.055009 33.894014 
L 122.982443 36.449359 
L 123.909877 38.251736 
L 125.764744 39.976963 
L 126.692178 40.433188 
L 127.619611 40.273147 
L 128.547045 39.513631 
L 129.474479 41.912265 
L 131.329346 53.715739 
L 132.25678 60.588283 
L 133.184214 64.805898 
L 134.111647 65.558075 
L 135.039081 65.38496 
L 135.966515 63.128479 
L 136.893948 59.543661 
L 137.821382 54.73081 
L 138.748816 52.506173 
L 139.67625 53.478461 
L 140.603683 53.742758 
L 141.531117 54.281583 
L 142.458551 55.975927 
L 143.385984 58.405925 
L 144.313418 59.818417 
L 145.240852 60.086008 
L 146.168285 61.783376 
L 147.095719 64.591463 
L 148.023153 65.169544 
L 148.950587 63.709074 
L 149.87802 63.3032 
L 151.732888 63.460035 
L 152.660321 63.915454 
L 153.587755 64.089177 
L 154.515189 64.011969 
L 155.442623 63.253448 
L 156.370056 61.645924 
L 157.29749 60.735996 
L 158.224924 60.46781 
L 159.152357 60.710016 
L 160.079791 61.843709 
L 161.007225 61.335373 
L 161.934658 59.102136 
L 162.862092 56.124168 
L 163.789526 51.761378 
L 164.71696 48.717011 
L 165.644393 47.175607 
L 166.571827 46.724547 
L 167.499261 48.15606 
L 168.426694 49.260498 
L 169.354128 50.121976 
L 170.281562 51.7627 
L 171.208995 53.728243 
L 172.136429 56.739494 
L 173.063863 57.439688 
L 173.991297 58.917596 
L 175.846164 63.685478 
L 176.773598 66.391831 
L 177.701031 68.254991 
L 178.628465 69.040853 
L 179.555899 68.773678 
L 180.483332 67.1099 
L 181.410766 66.073477 
L 182.3382 65.672833 
L 183.265634 65.109895 
L 184.193067 64.859714 
L 185.120501 64.932486 
L 190.685103 67.385522 
L 191.612537 67.442006 
L 192.539971 67.097595 
L 196.249705 63.877783 
L 197.177139 63.647707 
L 198.104573 63.18776 
L 199.032007 62.592411 
L 199.95944 62.563299 
L 200.886874 63.053166 
L 202.741741 63.589369 
L 203.669175 63.000484 
L 204.596609 61.377836 
L 205.524042 60.466764 
L 206.451476 60.121115 
L 207.37891 60.340825 
L 209.233777 62.787682 
L 210.161211 64.265463 
L 211.088645 65.055535 
L 212.016078 64.910474 
L 213.870946 65.428302 
L 214.79838 66.283368 
L 215.725813 67.936135 
L 216.653247 68.965763 
L 217.580681 69.483098 
L 218.508114 69.811152 
L 219.435548 69.659071 
L 220.362982 68.995334 
L 222.217849 66.61061 
L 224.072717 64.614884 
L 225.00015 63.858147 
L 225.927584 63.818969 
L 226.855018 64.632295 
L 227.782451 64.717987 
L 228.709885 64.137681 
L 229.637319 63.158665 
L 230.564752 61.406039 
L 231.492186 60.910564 
L 232.41962 61.608481 
L 233.347054 61.117529 
L 234.274487 59.708995 
L 235.201921 59.370368 
L 236.129355 59.789229 
L 237.056788 60.07508 
L 237.984222 60.529538 
L 238.911656 60.217827 
L 240.766523 57.691306 
L 241.693957 56.180416 
L 242.621391 54.300022 
L 248.185993 41.619806 
L 249.113427 40.054946 
L 250.04086 36.661328 
L 250.968294 34.140046 
L 251.895728 46.310683 
L 252.823161 41.750134 
L 253.750595 43.584592 
L 254.678029 40.277618 
L 255.605462 42.874646 
L 256.532896 41.367773 
L 257.46033 39.12005 
L 258.387764 41.473241 
L 259.315197 40.015475 
L 260.242631 37.411385 
L 261.170065 36.341821 
L 262.097498 36.486666 
L 263.024932 38.128283 
L 263.952366 41.877388 
L 264.879799 44.221615 
L 265.807233 45.212287 
L 266.734667 45.441776 
L 267.662101 44.042375 
L 268.589534 46.821265 
L 269.516968 45.895831 
L 270.444402 46.141757 
L 271.371835 45.181907 
L 272.299269 43.650019 
L 273.226703 41.266922 
L 274.154137 38.101282 
L 275.08157 34.069512 
L 276.009004 32.285547 
L 276.936438 33.028794 
L 277.863871 32.623049 
L 279.718739 30.947464 
L 281.573606 28.557916 
L 282.50104 27.555168 
L 283.428474 25.98748 
L 284.355907 24.042204 
L 285.283341 21.637922 
L 287.138208 15.97371 
L 288.065642 13.52765 
L 288.993076 12.355455 
L 289.920509 12.786213 
L 290.847943 14.74515 
L 292.702811 22.39648 
L 293.630244 25.963664 
L 294.557678 28.199668 
L 295.485112 28.405156 
L 296.412545 34.747814 
L 297.339979 32.933791 
L 298.267413 46.171052 
L 299.194847 50.7231 
L 301.049714 58.191357 
L 301.977148 59.679415 
L 302.904581 60.27756 
L 304.759449 61.155137 
L 305.686882 62.192292 
L 306.614316 64.268005 
L 307.54175 64.926026 
L 308.469184 64.335376 
L 309.396617 63.420147 
L 310.324051 61.705986 
L 311.251485 60.629474 
L 312.178918 60.335732 
L 313.106352 60.387431 
L 314.033786 61.213205 
L 314.961219 61.680826 
L 315.888653 62.668387 
L 316.816087 63.825102 
L 317.743521 63.548248 
L 318.670954 62.553691 
L 319.598388 60.316952 
L 320.525822 58.578808 
L 321.453255 57.333099 
L 322.380689 56.864451 
L 323.308123 57.650915 
L 325.16299 58.936942 
L 327.017858 61.182533 
L 327.945291 63.266274 
L 328.872725 66.283219 
L 329.800159 67.596934 
L 330.727592 67.160394 
L 331.655026 66.057447 
L 332.58246 63.664202 
L 333.509894 62.677149 
L 334.437327 63.323456 
L 335.364761 63.705747 
L 337.219628 65.148086 
L 338.147062 65.491616 
L 341.856797 68.98078 
L 342.784231 68.948447 
L 343.711664 67.901176 
L 345.566532 66.126788 
L 346.493965 65.669912 
L 347.421399 65.91668 
L 348.348833 65.485491 
L 349.276266 64.504183 
L 351.131134 62.836591 
L 352.058568 62.946732 
L 354.840869 66.88372 
L 355.768302 68.952332 
L 359.478037 79.001307 
L 360.405471 74.443697 
L 361.332905 71.168259 
L 362.260338 71.511176 
L 363.187772 75.714482 
L 364.115206 78.968981 
L 365.970073 84.554327 
L 366.897507 85.623764 
L 367.824941 84.990836 
L 368.752374 84.93034 
L 370.607242 85.93461 
L 371.534675 86.94001 
L 372.462109 86.795043 
L 373.389543 85.437137 
L 375.24441 83.026041 
L 376.171844 81.765214 
L 378.026711 79.764546 
L 378.954145 78.998291 
L 379.881579 78.627991 
L 380.809012 78.714217 
L 381.736446 78.531864 
L 382.66388 78.098814 
L 383.591314 78.054401 
L 384.518747 78.27386 
L 385.446181 79.076603 
L 386.373615 80.604661 
L 387.301048 81.528744 
L 388.228482 81.876955 
L 389.155916 81.83972 
L 390.083349 81.085707 
L 391.010783 80.839153 
L 394.720518 81.95834 
L 395.647952 82.341536 
L 396.575385 83.272349 
L 397.502819 84.764097 
L 398.430253 83.967037 
L 399.357686 85.77551 
L 400.28512 86.57467 
L 401.212554 87.98442 
L 402.139988 88.261347 
L 403.994855 86.450491 
L 404.922289 85.222042 
L 405.849722 85.790522 
L 406.777156 88.526827 
L 408.632024 92.977712 
L 409.559457 93.273473 
L 410.486891 90.996883 
L 412.341758 88.055406 
L 413.269192 86.945948 
L 415.124059 86.424684 
L 416.051493 86.354212 
L 416.978927 86.116166 
L 418.833794 85.045549 
L 419.761228 84.358094 
L 420.688662 84.154227 
L 422.543529 84.861165 
L 423.470963 85.416161 
L 425.32583 86.92714 
L 429.035565 90.777972 
L 429.962999 91.214019 
L 430.890432 91.080085 
L 431.817866 90.216266 
L 432.7453 88.437208 
L 433.672733 87.38469 
L 434.600167 87.072584 
L 435.527601 84.714713 
L 436.455035 80.484802 
L 437.382468 78.761603 
L 438.309902 79.313394 
L 441.092203 78.505247 
L 442.019637 78.051586 
L 442.947071 78.061233 
L 443.874504 78.464651 
L 444.801938 78.589395 
L 446.656805 78.432399 
L 447.584239 78.221838 
L 448.511673 78.294831 
L 449.439106 78.68056 
L 450.36654 78.766219 
L 452.221408 78.419481 
L 453.148841 78.062721 
L 454.076275 77.829704 
L 455.003709 77.73791 
L 456.858576 77.213289 
L 457.78601 76.690112 
L 459.640877 75.202851 
L 462.423178 73.531267 
L 463.350612 73.459043 
L 464.278046 73.866657 
L 465.205479 75.948729 
L 467.060347 84.254171 
L 467.987781 89.248148 
L 468.915214 92.165549 
L 469.842648 92.47728 
L 470.770082 93.302724 
L 471.697515 93.906337 
L 472.624949 94.320495 
L 473.552383 94.985372 
L 474.479816 95.028596 
L 475.40725 94.586674 
L 476.334684 94.378523 
L 477.262118 94.331338 
L 478.189551 94.566403 
L 480.971852 96.660763 
L 481.899286 97.152098 
L 482.82672 97.295838 
L 483.754153 97.206037 
L 485.609021 96.397704 
L 486.536455 96.14216 
L 487.463888 96.608899 
L 488.391322 97.986105 
L 489.318756 98.958667 
L 490.246189 99.67349 
L 493.955924 103.778238 
L 494.883358 104.306281 
L 496.738225 104.455759 
L 497.665659 104.345052 
L 498.593093 104.028197 
L 499.520526 103.552823 
L 500.44796 103.412125 
L 501.375394 103.664209 
L 502.302828 103.514472 
L 503.230261 103.054912 
L 504.157695 103.625381 
L 505.085129 105.195861 
L 506.012562 106.07253 
L 506.939996 106.444303 
L 508.794863 108.006849 
L 509.722297 108.187246 
L 510.649731 107.742032 
L 511.577165 107.986094 
L 512.504598 108.847346 
L 513.432032 109.291286 
L 514.359466 109.540589 
L 515.286899 109.352288 
L 516.214333 108.535025 
L 518.0692 107.359592 
L 518.996634 107.128558 
L 520.851502 107.579539 
L 521.778935 107.77734 
L 522.706369 107.373954 
L 524.561236 104.988582 
L 527.343538 100.416599 
L 528.270971 99.472448 
L 529.198405 99.287584 
L 532.90814 97.779718 
L 534.763007 96.757684 
L 537.545308 95.032303 
L 539.400176 93.524615 
L 541.255043 92.206586 
L 542.182477 91.67232 
L 543.10991 91.360412 
L 544.037344 91.310375 
L 544.964778 91.417757 
L 545.892212 91.726933 
L 546.819645 92.39812 
L 548.674513 94.40043 
L 549.601946 95.269441 
L 550.52938 95.795166 
L 552.384248 95.787633 
L 553.311681 95.570852 
L 554.239115 95.573403 
L 555.166549 95.884869 
L 556.093982 95.952344 
L 557.021416 95.876929 
L 557.94885 95.667602 
L 558.876283 95.231703 
L 559.803717 95.188444 
L 560.731151 95.56084 
L 561.658585 95.560267 
L 562.586018 95.287654 
L 563.513452 94.7739 
L 565.368319 93.020087 
L 569.078054 89.942996 
L 570.932922 89.01983 
L 572.787789 88.438762 
L 573.715223 88.237819 
L 574.642656 87.867542 
L 576.497524 86.809709 
L 578.352391 85.98779 
L 579.279825 85.718201 
L 580.207259 85.748368 
L 581.134692 86.130805 
L 582.062126 86.704218 
L 582.98956 87.53709 
L 583.916993 87.891128 
L 586.699295 87.372552 
L 587.626728 87.348882 
L 589.481596 87.885125 
L 590.409029 88.284496 
L 591.336463 88.519282 
L 593.19133 88.688118 
L 594.118764 88.864044 
L 595.046198 87.390215 
L 595.973632 84.140371 
L 596.901065 81.717618 
L 597.828499 79.840692 
L 598.755933 78.848784 
L 599.683366 79.341371 
L 600.6108 80.468587 
L 601.538234 82.56714 
L 602.465667 83.450012 
L 603.393101 82.873116 
L 604.320535 81.667459 
L 605.247969 79.180883 
L 606.175402 77.257088 
L 608.957703 73.44324 
L 609.885137 72.98612 
L 610.812571 73.231255 
L 611.740005 73.049456 
L 612.667438 72.470112 
L 613.594872 72.523403 
L 616.377173 73.897063 
L 618.23204 74.777135 
L 619.159474 75.0415 
L 620.086908 75.106002 
L 621.014342 75.015719 
L 622.869209 74.329685 
L 627.506377 71.880741 
L 628.433811 71.672213 
L 630.288679 71.994132 
L 631.216112 72.254813 
L 632.143546 72.236664 
L 633.07098 71.851726 
L 633.998413 71.990057 
L 634.925847 72.591952 
L 635.853281 73.442044 
L 638.635582 77.385278 
L 640.490449 80.136373 
L 641.417883 81.296716 
L 642.345317 82.198167 
L 643.27275 82.887022 
L 644.200184 83.283749 
L 645.127618 83.491196 
L 646.055052 83.484503 
L 646.982485 83.338277 
L 647.909919 83.071415 
L 648.837353 82.437507 
L 649.764786 81.442433 
L 650.69222 80.828711 
L 651.619654 80.607927 
L 652.547087 80.594988 
L 653.474521 80.986527 
L 654.401955 80.617725 
L 655.329389 79.429472 
L 656.256822 78.944159 
L 657.184256 78.957339 
L 658.11169 79.842774 
L 659.039123 86.142434 
L 659.966557 89.661011 
L 660.893991 92.240907 
L 661.821425 93.476155 
L 662.748858 92.378597 
L 663.676292 91.909015 
L 664.603726 91.845887 
L 665.531159 91.434998 
L 666.458593 91.258117 
L 667.386027 91.557724 
L 668.31346 92.087798 
L 669.240894 92.486746 
L 670.168328 92.685198 
L 671.095762 92.316761 
L 673.878063 89.485598 
L 674.805496 89.118344 
L 675.73293 89.52241 
L 676.660364 89.355475 
L 677.587797 88.752669 
L 679.442665 87.926775 
L 682.224966 86.450573 
L 684.079833 86.054692 
L 685.007267 86.04093 
L 685.934701 86.181726 
L 686.862134 86.488648 
L 687.789568 86.61742 
L 688.717002 86.54454 
L 689.644436 86.73655 
L 691.499303 87.455537 
L 693.35417 88.038475 
L 694.281604 88.161804 
L 695.209038 88.522805 
L 696.136472 89.111511 
L 697.063905 90.093104 
L 697.991339 91.579358 
L 698.918773 94.611344 
L 699.846206 94.72784 
L 700.77364 95.50895 
L 701.701074 95.076205 
L 702.628507 95.104324 
L 705.410809 96.290377 
L 706.338242 96.486601 
L 708.19311 96.212856 
L 712.830278 94.842326 
L 713.757712 95.260684 
L 716.540013 98.602316 
L 717.467447 99.447868 
L 718.39488 99.806735 
L 720.249748 100.874553 
L 721.177182 101.131543 
L 726.741784 101.419457 
L 728.596651 101.615559 
L 736.016121 101.061294 
L 737.870988 101.239478 
L 741.580723 101.99099 
L 744.363024 102.512816 
L 745.290458 102.85154 
L 747.145325 103.915581 
L 749.927626 105.855905 
L 750.85506 106.357193 
L 751.782494 106.687518 
L 752.709927 106.782644 
L 754.564795 106.326433 
L 757.347096 105.201144 
L 759.201963 104.347874 
L 760.129397 103.584777 
L 761.056831 102.462945 
L 761.984264 101.548809 
L 763.839132 100.126445 
L 764.766566 99.666682 
L 765.693999 99.37334 
L 766.621433 99.28918 
L 767.548867 99.373837 
L 769.403734 99.853842 
L 772.186035 100.183617 
L 773.113469 99.935108 
L 774.040903 99.329944 
L 774.968336 98.558563 
L 777.750637 95.577766 
L 778.678071 94.768933 
L 780.532939 93.708232 
L 783.31524 92.640941 
L 785.170107 92.108334 
L 786.097541 91.519464 
L 787.024974 90.551782 
L 787.952408 90.173235 
L 788.879842 90.355452 
L 789.807276 90.876084 
L 791.662143 92.887915 
L 792.589577 93.634521 
L 793.51701 94.05721 
L 794.444444 93.939965 
L 795.371878 94.232251 
L 796.299311 94.866571 
L 798.154179 95.671856 
L 799.081613 95.983097 
L 800.009046 96.158651 
L 800.93648 96.1115 
L 805.573649 94.532104 
L 806.501082 94.416282 
L 808.35595 94.576896 
L 810.210817 94.892537 
L 812.065684 94.896689 
L 812.993118 94.708366 
L 813.920552 94.372243 
L 817.630287 92.249935 
L 818.55772 91.448901 
L 819.485154 90.983148 
L 820.412588 90.862831 
L 821.340021 90.983287 
L 823.194889 92.054133 
L 824.122323 92.729535 
L 825.049756 93.057087 
L 825.97719 92.924647 
L 826.904624 92.530485 
L 829.686925 89.971348 
L 831.541792 87.856876 
L 832.469226 87.146621 
L 833.39666 86.874768 
L 834.324093 86.909843 
L 836.178961 87.777336 
L 838.961262 88.586179 
L 839.888696 88.993747 
L 843.59843 91.407079 
L 844.525864 92.149794 
L 845.453298 92.231697 
L 846.380731 91.583467 
L 847.308165 91.356932 
L 848.235599 91.426736 
L 850.090466 91.009148 
L 851.0179 90.587054 
L 851.945334 89.91794 
L 852.872767 89.430658 
L 853.800201 89.106895 
L 854.727635 89.34909 
L 855.655068 90.305743 
L 860.292237 93.961748 
L 861.219671 94.515139 
L 862.147104 94.667319 
L 863.074538 94.341886 
L 864.001972 94.191191 
L 864.929406 94.161284 
L 865.856839 93.783859 
L 868.63914 91.881156 
L 869.566574 91.474136 
L 870.494008 91.398717 
L 871.421441 91.81523 
L 872.348875 92.865647 
L 873.276309 93.394535 
L 874.203743 93.41242 
L 875.131176 93.785654 
L 877.913477 95.220153 
L 878.840911 95.428759 
L 879.768345 95.322166 
L 880.695778 95.010095 
L 881.623212 94.427577 
L 882.550646 93.99542 
L 883.47808 93.748832 
L 884.405513 93.630539 
L 885.332947 93.769891 
L 886.260381 93.65672 
L 887.187814 93.297981 
L 889.042682 92.968042 
L 889.970116 92.948116 
L 890.897549 93.105444 
L 891.824983 93.700449 
L 898.317019 101.28712 
L 900.171886 103.070896 
L 901.09932 103.466807 
L 903.881621 103.218953 
L 906.663922 102.95095 
L 909.446223 102.085171 
L 910.373657 101.628242 
L 911.301091 101.036829 
L 912.228524 100.200123 
L 915.010826 96.965634 
L 915.938259 96.150042 
L 916.865693 95.662181 
L 917.793127 95.413233 
L 918.72056 95.504268 
L 919.647994 95.773853 
L 921.502861 96.611469 
L 923.357729 97.006723 
L 924.285163 97.059521 
L 925.212596 97.36946 
L 926.14003 97.948938 
L 927.067464 98.68731 
L 927.994897 99.684887 
L 928.922331 100.902802 
L 930.777198 103.74762 
L 931.704632 105.028049 
L 932.632066 106.080253 
L 933.5595 106.787549 
L 934.486933 107.188081 
L 935.414367 107.183413 
L 936.341801 106.995619 
L 940.051535 105.283383 
L 940.978969 104.847172 
L 941.906403 104.669839 
L 942.833837 104.800717 
L 943.76127 105.147882 
L 949.325873 109.011718 
L 951.18074 110.033714 
L 953.035607 110.703945 
L 954.890475 111.033844 
L 956.745342 111.101425 
L 958.60021 110.965894 
L 962.309944 110.410389 
L 964.164812 109.738011 
L 965.092245 109.480932 
L 966.019679 109.429129 
L 968.80198 110.052854 
L 969.729414 110.118215 
L 971.584281 109.888604 
L 977.148884 109.594137 
L 978.076317 109.757781 
L 979.003751 110.161491 
L 980.858618 111.474588 
L 982.713486 112.536693 
L 983.64092 112.91667 
L 984.568353 113.094082 
L 986.423221 112.904838 
L 988.278088 112.456639 
L 991.060389 111.495063 
L 991.987823 111.396876 
L 992.915257 111.564166 
L 993.84269 111.864695 
L 994.770124 112.371003 
L 995.697558 112.671385 
L 996.624991 112.729802 
L 997.552425 113.191573 
L 998.479859 113.990321 
L 999.407293 113.91937 
L 1000.334726 112.996163 
L 1003.117027 111.03778 
L 1004.044461 110.578567 
L 1004.971895 110.378289 
L 1005.899328 110.530158 
L 1006.826762 110.457469 
L 1008.68163 109.997037 
L 1011.463931 109.435382 
L 1013.318798 109.296294 
L 1014.246232 109.426072 
L 1016.101099 110.163096 
L 1017.955967 111.186728 
L 1019.810834 111.839573 
L 1020.738268 111.957006 
L 1021.665701 111.925961 
L 1026.30287 110.88941 
L 1030.012605 110.387828 
L 1030.940038 110.047056 
L 1031.867472 109.539947 
L 1032.794906 108.857773 
L 1037.432074 104.493252 
L 1039.286942 103.200857 
L 1041.141809 102.238627 
L 1042.069243 102.009794 
L 1043.92411 102.092242 
L 1045.778978 102.43344 
L 1047.633845 102.468414 
L 1048.561279 102.526598 
L 1049.488712 102.131895 
L 1050.416146 101.257004 
L 1051.34358 100.661619 
L 1052.271014 100.27664 
L 1053.198447 100.757032 
L 1054.125881 102.342817 
L 1055.980748 104.916557 
L 1056.908182 105.689627 
L 1057.835616 105.678369 
L 1058.76305 106.161893 
L 1059.690483 106.992508 
L 1060.617917 107.48513 
L 1062.472784 108.246973 
L 1068.96482 111.254921 
L 1069.892254 111.483289 
L 1074.529422 111.790097 
L 1075.456856 112.013135 
L 1077.311724 112.845502 
L 1080.094025 114.627304 
L 1081.021458 114.988368 
L 1082.876326 115.235533 
L 1083.80376 115.464545 
L 1084.731193 115.237207 
L 1085.658627 114.578398 
L 1086.586061 113.215405 
L 1087.513494 110.989258 
L 1087.513494 110.989258 
" clip-path="url(#p12b7d177f3)" style="fill: none; stroke: #0070c0; stroke-width: 1.5; stroke-linecap: square"/>
   </g>
   <g id="patch_3">
    <path d="M 42.620313 120.62 
L 42.620313 7.2 
" style="fill: none; stroke: #000000; stroke-width: 0.8; stroke-linejoin: miter; stroke-linecap: square"/>
   </g>
   <g id="patch_4">
    <path d="M 1137.270313 120.62 
L 1137.270313 7.2 
" style="fill: none; stroke: #000000; stroke-width: 0.8; stroke-linejoin: miter; stroke-linecap: square"/>
   </g>
   <g id="patch_5">
    <path d="M 42.620313 120.62 
L 1137.270313 120.62 
" style="fill: none; stroke: #000000; stroke-width: 0.8; stroke-linejoin: miter; stroke-linecap: square"/>
   </g>
   <g id="patch_6">
    <path d="M 42.620313 7.2 
L 1137.270313 7.2 
" style="fill: none; stroke: #000000; stroke-width: 0.8; stroke-linejoin: miter; stroke-linecap: square"/>
   </g>
  </g>
  <g id="axes_2">
   <g id="patch_7">
    <path d="M 42.620313 261.92 
L 1137.270313 261.92 
L 1137.270313 148.5 
L 42.620313 148.5 
z
" style="fill: #ffffff"/>
   </g>
   <g id="matplotlib.axis_3">
    <g id="xtick_7">
     <g id="line2d_12">
      <g>
       <use xlink:href="#md70b32c991" x="92.377131" y="261.92" style="stroke: #000000; stroke-width: 0.8"/>
      </g>
     </g>
     <g id="text_12">
      <!-- 0 -->
      <g transform="translate(89.195881 276.518437) scale(0.1 -0.1)">
       <use xlink:href="#DejaVuSans-30"/>
      </g>
     </g>
    </g>
    <g id="xtick_8">
     <g id="line2d_13">
      <g>
       <use xlink:href="#md70b32c991" x="277.863871" y="261.92" style="stroke: #000000; stroke-width: 0.8"/>
      </g>
     </g>
     <g id="text_13">
      <!-- 200 -->
      <g transform="translate(268.320121 276.518437) scale(0.1 -0.1)">
       <use xlink:href="#DejaVuSans-32"/>
       <use xlink:href="#DejaVuSans-30" transform="translate(63.623047 0)"/>
       <use xlink:href="#DejaVuSans-30" transform="translate(127.246094 0)"/>
      </g>
     </g>
    </g>
    <g id="xtick_9">
     <g id="line2d_14">
      <g>
       <use xlink:href="#md70b32c991" x="463.350612" y="261.92" style="stroke: #000000; stroke-width: 0.8"/>
      </g>
     </g>
     <g id="text_14">
      <!-- 400 -->
      <g transform="translate(453.806862 276.518437) scale(0.1 -0.1)">
       <use xlink:href="#DejaVuSans-34"/>
       <use xlink:href="#DejaVuSans-30" transform="translate(63.623047 0)"/>
       <use xlink:href="#DejaVuSans-30" transform="translate(127.246094 0)"/>
      </g>
     </g>
    </g>
    <g id="xtick_10">
     <g id="line2d_15">
      <g>
       <use xlink:href="#md70b32c991" x="648.837353" y="261.92" style="stroke: #000000; stroke-width: 0.8"/>
      </g>
     </g>
     <g id="text_15">
      <!-- 600 -->
      <g transform="translate(639.293603 276.518437) scale(0.1 -0.1)">
       <use xlink:href="#DejaVuSans-36"/>
       <use xlink:href="#DejaVuSans-30" transform="translate(63.623047 0)"/>
       <use xlink:href="#DejaVuSans-30" transform="translate(127.246094 0)"/>
      </g>
     </g>
    </g>
    <g id="xtick_11">
     <g id="line2d_16">
      <g>
       <use xlink:href="#md70b32c991" x="834.324093" y="261.92" style="stroke: #000000; stroke-width: 0.8"/>
      </g>
     </g>
     <g id="text_16">
      <!-- 800 -->
      <g transform="translate(824.780343 276.518437) scale(0.1 -0.1)">
       <use xlink:href="#DejaVuSans-38"/>
       <use xlink:href="#DejaVuSans-30" transform="translate(63.623047 0)"/>
       <use xlink:href="#DejaVuSans-30" transform="translate(127.246094 0)"/>
      </g>
     </g>
    </g>
    <g id="xtick_12">
     <g id="line2d_17">
      <g>
       <use xlink:href="#md70b32c991" x="1019.810834" y="261.92" style="stroke: #000000; stroke-width: 0.8"/>
      </g>
     </g>
     <g id="text_17">
      <!-- 1000 -->
      <g transform="translate(1007.085834 276.518437) scale(0.1 -0.1)">
       <use xlink:href="#DejaVuSans-31"/>
       <use xlink:href="#DejaVuSans-30" transform="translate(63.623047 0)"/>
       <use xlink:href="#DejaVuSans-30" transform="translate(127.246094 0)"/>
       <use xlink:href="#DejaVuSans-30" transform="translate(190.869141 0)"/>
      </g>
     </g>
    </g>
   </g>
   <g id="matplotlib.axis_4">
    <g id="ytick_5">
     <g id="line2d_18">
      <g>
       <use xlink:href="#mbd94174344" x="42.620313" y="258.560605" style="stroke: #000000; stroke-width: 0.8"/>
      </g>
     </g>
     <g id="text_18">
      <!-- −4 -->
      <g transform="translate(20.878125 262.359824) scale(0.1 -0.1)">
       <defs>
        <path id="DejaVuSans-2212" d="M 678 2272 
L 4684 2272 
L 4684 1741 
L 678 1741 
L 678 2272 
z
" transform="scale(0.015625)"/>
       </defs>
       <use xlink:href="#DejaVuSans-2212"/>
       <use xlink:href="#DejaVuSans-34" transform="translate(83.789062 0)"/>
      </g>
     </g>
    </g>
    <g id="ytick_6">
     <g id="line2d_19">
      <g>
       <use xlink:href="#mbd94174344" x="42.620313" y="226.519701" style="stroke: #000000; stroke-width: 0.8"/>
      </g>
     </g>
     <g id="text_19">
      <!-- −2 -->
      <g transform="translate(20.878125 230.31892) scale(0.1 -0.1)">
       <use xlink:href="#DejaVuSans-2212"/>
       <use xlink:href="#DejaVuSans-32" transform="translate(83.789062 0)"/>
      </g>
     </g>
    </g>
    <g id="ytick_7">
     <g id="line2d_20">
      <g>
       <use xlink:href="#mbd94174344" x="42.620313" y="194.478797" style="stroke: #000000; stroke-width: 0.8"/>
      </g>
     </g>
     <g id="text_20">
      <!-- 0 -->
      <g transform="translate(29.257813 198.278016) scale(0.1 -0.1)">
       <use xlink:href="#DejaVuSans-30"/>
      </g>
     </g>
    </g>
    <g id="ytick_8">
     <g id="line2d_21">
      <g>
       <use xlink:href="#mbd94174344" x="42.620313" y="162.437893" style="stroke: #000000; stroke-width: 0.8"/>
      </g>
     </g>
     <g id="text_21">
      <!-- 2 -->
      <g transform="translate(29.257813 166.237112) scale(0.1 -0.1)">
       <use xlink:href="#DejaVuSans-32"/>
      </g>
     </g>
    </g>
    <g id="text_22">
     <!-- co-imf0 -->
     <g transform="translate(14.798438 224.117031) rotate(-90) scale(0.1 -0.1)">
      <defs>
       <path id="DejaVuSans-63" d="M 3122 3366 
L 3122 2828 
Q 2878 2963 2633 3030 
Q 2388 3097 2138 3097 
Q 1578 3097 1268 2742 
Q 959 2388 959 1747 
Q 959 1106 1268 751 
Q 1578 397 2138 397 
Q 2388 397 2633 464 
Q 2878 531 3122 666 
L 3122 134 
Q 2881 22 2623 -34 
Q 2366 -91 2075 -91 
Q 1284 -91 818 406 
Q 353 903 353 1747 
Q 353 2603 823 3093 
Q 1294 3584 2113 3584 
Q 2378 3584 2631 3529 
Q 2884 3475 3122 3366 
z
" transform="scale(0.015625)"/>
       <path id="DejaVuSans-6f" d="M 1959 3097 
Q 1497 3097 1228 2736 
Q 959 2375 959 1747 
Q 959 1119 1226 758 
Q 1494 397 1959 397 
Q 2419 397 2687 759 
Q 2956 1122 2956 1747 
Q 2956 2369 2687 2733 
Q 2419 3097 1959 3097 
z
M 1959 3584 
Q 2709 3584 3137 3096 
Q 3566 2609 3566 1747 
Q 3566 888 3137 398 
Q 2709 -91 1959 -91 
Q 1206 -91 779 398 
Q 353 888 353 1747 
Q 353 2609 779 3096 
Q 1206 3584 1959 3584 
z
" transform="scale(0.015625)"/>
       <path id="DejaVuSans-2d" d="M 313 2009 
L 1997 2009 
L 1997 1497 
L 313 1497 
L 313 2009 
z
" transform="scale(0.015625)"/>
       <path id="DejaVuSans-6d" d="M 3328 2828 
Q 3544 3216 3844 3400 
Q 4144 3584 4550 3584 
Q 5097 3584 5394 3201 
Q 5691 2819 5691 2113 
L 5691 0 
L 5113 0 
L 5113 2094 
Q 5113 2597 4934 2840 
Q 4756 3084 4391 3084 
Q 3944 3084 3684 2787 
Q 3425 2491 3425 1978 
L 3425 0 
L 2847 0 
L 2847 2094 
Q 2847 2600 2669 2842 
Q 2491 3084 2119 3084 
Q 1678 3084 1418 2786 
Q 1159 2488 1159 1978 
L 1159 0 
L 581 0 
L 581 3500 
L 1159 3500 
L 1159 2956 
Q 1356 3278 1631 3431 
Q 1906 3584 2284 3584 
Q 2666 3584 2933 3390 
Q 3200 3197 3328 2828 
z
" transform="scale(0.015625)"/>
       <path id="DejaVuSans-66" d="M 2375 4863 
L 2375 4384 
L 1825 4384 
Q 1516 4384 1395 4259 
Q 1275 4134 1275 3809 
L 1275 3500 
L 2222 3500 
L 2222 3053 
L 1275 3053 
L 1275 0 
L 697 0 
L 697 3053 
L 147 3053 
L 147 3500 
L 697 3500 
L 697 3744 
Q 697 4328 969 4595 
Q 1241 4863 1831 4863 
L 2375 4863 
z
" transform="scale(0.015625)"/>
      </defs>
      <use xlink:href="#DejaVuSans-63"/>
      <use xlink:href="#DejaVuSans-6f" transform="translate(54.980469 0)"/>
      <use xlink:href="#DejaVuSans-2d" transform="translate(118.037109 0)"/>
      <use xlink:href="#DejaVuSans-69" transform="translate(154.121094 0)"/>
      <use xlink:href="#DejaVuSans-6d" transform="translate(181.904297 0)"/>
      <use xlink:href="#DejaVuSans-66" transform="translate(279.316406 0)"/>
      <use xlink:href="#DejaVuSans-30" transform="translate(314.521484 0)"/>
     </g>
    </g>
   </g>
   <g id="line2d_22">
    <path d="M 92.377131 209.25703 
L 93.304564 216.147393 
L 94.231998 218.446828 
L 95.159432 218.733136 
L 96.086865 212.880531 
L 97.014299 199.988477 
L 97.941733 194.117051 
L 98.869167 195.160198 
L 99.7966 192.32997 
L 100.724034 188.361199 
L 101.651468 180.306356 
L 102.578901 166.388375 
L 103.506335 162.437405 
L 104.433769 160.380015 
L 105.361203 170.601823 
L 106.288636 193.063141 
L 107.21607 210.326633 
L 108.143504 223.119043 
L 109.070937 229.026461 
L 109.998371 223.317802 
L 110.925805 221.205624 
L 111.853238 220.913245 
L 112.780672 217.182739 
L 113.708106 212.907661 
L 114.63554 203.120635 
L 115.562973 187.402838 
L 116.490407 174.49166 
L 117.417841 163.78617 
L 118.345274 157.976985 
L 119.272708 159.431953 
L 120.200142 161.284999 
L 121.127575 164.907559 
L 122.055009 171.261252 
L 122.982443 179.408604 
L 123.909877 182.936619 
L 124.83731 180.983572 
L 125.764744 178.496769 
L 126.692178 173.650494 
L 127.619611 165.306451 
L 128.547045 153.655455 
L 129.474479 159.271799 
L 131.329346 209.256554 
L 132.25678 240.024175 
L 133.184214 256.764545 
L 134.111647 255.15872 
L 135.039081 249.063976 
L 135.966515 232.190601 
L 136.893948 208.534303 
L 137.821382 178.642719 
L 138.748816 163.221938 
L 139.67625 165.548012 
L 140.603683 164.25427 
L 141.531117 164.637071 
L 142.458551 171.430519 
L 143.385984 182.294908 
L 144.313418 187.747396 
L 145.240852 187.050151 
L 146.168285 194.295695 
L 147.095719 207.743986 
L 148.023153 209.195527 
L 148.950587 199.706942 
L 149.87802 196.193563 
L 151.732888 195.4936 
L 152.660321 198.104044 
L 153.587755 200.053822 
L 154.515189 201.613834 
L 155.442623 200.286748 
L 156.370056 195.094438 
L 157.29749 194.289291 
L 158.224924 197.474251 
L 159.152357 203.755502 
L 160.079791 215.086331 
L 161.007225 217.459972 
L 161.934658 210.27952 
L 162.862092 198.682546 
L 163.789526 179.015089 
L 164.71696 165.842152 
L 165.644393 159.993797 
L 166.571827 159.041041 
L 167.499261 167.128106 
L 168.426694 172.095637 
L 169.354128 174.411922 
L 170.281562 179.878417 
L 171.208995 186.136426 
L 172.136429 197.34432 
L 173.063863 195.355183 
L 173.991297 197.202154 
L 175.846164 210.285816 
L 176.773598 218.710808 
L 177.701031 222.842199 
L 178.628465 221.584858 
L 179.555899 215.095412 
L 180.483332 201.594082 
L 181.410766 192.111873 
L 183.265634 181.232692 
L 184.193067 178.157573 
L 185.120501 177.60349 
L 186.047935 179.757546 
L 186.975368 182.609244 
L 187.902802 186.198156 
L 189.75767 194.404956 
L 190.685103 198.020217 
L 191.612537 200.741326 
L 192.539971 201.344995 
L 194.394838 197.131341 
L 195.322272 194.392588 
L 196.249705 193.132827 
L 197.177139 194.004829 
L 198.104573 193.486222 
L 199.032007 192.074796 
L 199.95944 193.488403 
L 200.886874 197.434808 
L 201.814308 200.06788 
L 202.741741 201.891693 
L 203.669175 198.94105 
L 204.596609 190.00211 
L 205.524042 184.596119 
L 206.451476 181.920835 
L 207.37891 181.987225 
L 209.233777 192.132407 
L 210.161211 198.231742 
L 211.088645 200.440594 
L 212.016078 197.452869 
L 212.943512 196.364933 
L 213.870946 195.843929 
L 214.79838 198.394208 
L 215.725813 205.445496 
L 216.653247 209.297247 
L 217.580681 210.614002 
L 218.508114 211.16814 
L 219.435548 209.425055 
L 220.362982 205.166772 
L 221.290415 198.023757 
L 222.217849 191.788088 
L 224.072717 181.716419 
L 225.00015 178.441596 
L 225.927584 179.379396 
L 226.855018 185.264479 
L 227.782451 187.480558 
L 228.709885 186.363938 
L 229.637319 183.384744 
L 230.564752 176.500999 
L 231.492186 176.796742 
L 232.41962 183.930686 
L 233.347054 184.949519 
L 234.274487 181.34304 
L 235.201921 184.02424 
L 237.984222 206.704983 
L 238.911656 211.294916 
L 239.83909 211.055134 
L 240.766523 211.16241 
L 241.693957 210.183092 
L 242.621391 207.343045 
L 244.476258 198.494414 
L 246.331125 188.778298 
L 247.258559 184.813002 
L 248.185993 181.434254 
L 249.113427 179.055097 
L 250.04086 166.121695 
L 250.968294 157.265475 
L 251.895728 227.758139 
L 252.823161 206.191645 
L 253.750595 218.658048 
L 254.678029 202.181013 
L 255.605462 216.986893 
L 256.532896 208.473833 
L 257.46033 195.144997 
L 258.387764 206.186155 
L 259.315197 195.90766 
L 260.242631 178.935021 
L 261.170065 169.995999 
L 262.097498 167.463798 
L 263.024932 172.992675 
L 263.952366 190.032505 
L 264.879799 199.677354 
L 265.807233 202.338359 
L 266.734667 201.469444 
L 267.662101 192.511741 
L 268.589534 207.31858 
L 269.516968 203.098276 
L 270.444402 206.52904 
L 271.371835 204.68404 
L 272.299269 200.906275 
L 273.226703 193.688344 
L 274.154137 183.319991 
L 275.08157 169.315182 
L 276.009004 168.576391 
L 276.936438 182.578215 
L 277.863871 190.989608 
L 279.718739 204.015395 
L 282.50104 215.736598 
L 283.428474 215.398002 
L 284.355907 211.714624 
L 285.283341 204.122747 
L 288.065642 166.185606 
L 288.993076 157.903858 
L 289.920509 156.103076 
L 290.847943 160.337853 
L 291.775377 172.994983 
L 292.702811 182.868431 
L 293.630244 190.116614 
L 294.557678 188.76886 
L 295.485112 175.26481 
L 296.412545 194.431709 
L 297.339979 168.609128 
L 298.267413 224.623909 
L 299.194847 233.334367 
L 300.12228 237.720617 
L 301.049714 243.077324 
L 301.977148 236.88871 
L 303.832015 217.368053 
L 304.759449 209.572323 
L 305.686882 206.262579 
L 306.614316 210.093625 
L 307.54175 207.60383 
L 309.396617 191.479468 
L 310.324051 180.226954 
L 311.251485 173.793619 
L 312.178918 172.941373 
L 313.106352 175.233395 
L 314.033786 182.927382 
L 314.961219 189.425338 
L 316.816087 209.729811 
L 317.743521 212.029312 
L 318.670954 209.678577 
L 319.598388 199.693185 
L 320.525822 191.58242 
L 321.453255 185.220874 
L 322.380689 182.187055 
L 323.308123 185.018623 
L 324.235557 186.140982 
L 325.16299 186.659152 
L 326.090424 188.920391 
L 327.017858 191.506178 
L 327.945291 198.907634 
L 328.872725 211.487795 
L 329.800159 215.076643 
L 330.727592 209.618256 
L 331.655026 201.074017 
L 332.58246 186.06432 
L 333.509894 179.183932 
L 334.437327 181.678613 
L 335.364761 183.10603 
L 337.219628 190.612654 
L 338.147062 192.682859 
L 341.856797 213.713108 
L 342.784231 214.084131 
L 343.711664 208.832645 
L 345.566532 199.606035 
L 346.493965 196.966891 
L 347.421399 197.84177 
L 348.348833 194.624505 
L 351.131134 174.603472 
L 352.058568 172.147047 
L 352.986001 175.292359 
L 353.913435 177.638704 
L 354.840869 180.559053 
L 355.768302 186.478914 
L 357.62317 202.256171 
L 358.550604 209.249559 
L 359.478037 217.2859 
L 360.405471 186.288551 
L 361.332905 162.422364 
L 362.260338 158.520368 
L 363.187772 175.945508 
L 364.115206 188.568975 
L 365.042639 198.209676 
L 365.970073 210.066129 
L 366.897507 212.188034 
L 367.824941 205.61892 
L 368.752374 202.82861 
L 369.679808 203.613402 
L 370.607242 205.549042 
L 371.534675 210.801928 
L 372.462109 210.413802 
L 373.389543 204.008203 
L 376.171844 189.374832 
L 377.099278 186.011927 
L 378.026711 183.105051 
L 378.954145 181.261212 
L 379.881579 181.466822 
L 380.809012 183.954123 
L 381.736446 184.720258 
L 382.66388 183.790505 
L 383.591314 184.687253 
L 384.518747 186.674425 
L 385.446181 191.499105 
L 386.373615 199.911337 
L 387.301048 204.645873 
L 388.228482 205.839273 
L 389.155916 204.531261 
L 390.083349 198.901631 
L 391.010783 195.696691 
L 391.938217 194.870895 
L 392.865651 193.276234 
L 395.647952 190.576927 
L 396.575385 192.5445 
L 397.502819 197.539498 
L 398.430253 190.006927 
L 399.357686 196.67618 
L 400.28512 197.844098 
L 401.212554 202.36611 
L 402.139988 200.868968 
L 404.922289 176.934126 
L 405.849722 178.365014 
L 406.777156 192.073819 
L 408.632024 215.098187 
L 409.559457 216.662189 
L 410.486891 204.564287 
L 411.414325 196.701696 
L 412.341758 190.078152 
L 413.269192 185.151781 
L 414.196626 185.124259 
L 415.124059 184.970176 
L 416.051493 185.989066 
L 416.978927 186.077132 
L 418.833794 182.704515 
L 419.761228 179.902358 
L 420.688662 179.502974 
L 422.543529 184.073912 
L 423.470963 187.198383 
L 425.32583 195.421974 
L 427.180698 206.074404 
L 429.035565 216.714987 
L 429.962999 219.526203 
L 430.890432 219.472825 
L 431.817866 215.665802 
L 432.7453 207.137168 
L 433.672733 202.805965 
L 434.600167 202.766303 
L 435.527601 191.823044 
L 436.455035 170.925169 
L 437.382468 163.949091 
L 438.309902 169.632196 
L 440.164769 172.376972 
L 441.092203 174.789249 
L 442.019637 175.98365 
L 442.947071 179.849492 
L 443.874504 185.990994 
L 444.801938 190.67471 
L 446.656805 197.771345 
L 447.584239 200.40306 
L 448.511673 204.345543 
L 449.439106 209.68364 
L 450.36654 212.997884 
L 451.293974 214.559964 
L 452.221408 215.332947 
L 454.076275 213.956935 
L 455.003709 213.401367 
L 455.931142 211.505898 
L 456.858576 208.549328 
L 457.78601 203.749986 
L 461.495745 175.258251 
L 462.423178 167.496151 
L 463.350612 161.557446 
L 464.278046 157.759407 
L 465.205479 162.751993 
L 467.060347 194.594908 
L 467.987781 214.937649 
L 468.915214 223.954866 
L 469.842648 218.852635 
L 470.770082 216.740393 
L 471.697515 213.695915 
L 472.624949 209.908559 
L 473.552383 207.862606 
L 474.479816 202.77962 
L 475.40725 195.457353 
L 476.334684 189.819444 
L 477.262118 185.497544 
L 478.189551 183.107334 
L 479.116985 183.640305 
L 480.044419 184.381757 
L 480.971852 185.77364 
L 481.899286 186.187932 
L 482.82672 184.992615 
L 483.754153 182.784214 
L 484.681587 178.826955 
L 485.609021 175.613713 
L 486.536455 173.11984 
L 487.463888 174.697441 
L 488.391322 181.34349 
L 489.318756 185.839866 
L 490.246189 188.952126 
L 491.173623 193.969389 
L 492.101057 199.686309 
L 493.028491 204.288652 
L 493.955924 207.860814 
L 494.883358 209.610959 
L 495.810792 208.940951 
L 496.738225 207.645695 
L 497.665659 205.350395 
L 498.593093 201.773259 
L 499.520526 197.147905 
L 500.44796 194.215767 
L 501.375394 193.295917 
L 502.302828 190.087753 
L 503.230261 185.110948 
L 504.157695 185.709275 
L 505.085129 191.742371 
L 506.012562 194.025711 
L 506.939996 193.619427 
L 507.86743 195.327256 
L 508.794863 197.663404 
L 509.722297 196.672744 
L 510.649731 192.498115 
L 511.577165 192.361484 
L 512.504598 195.908992 
L 513.432032 197.534911 
L 514.359466 198.494452 
L 515.286899 197.471055 
L 516.214333 193.455088 
L 517.141767 190.866303 
L 518.0692 189.271942 
L 518.996634 189.80423 
L 521.778935 201.343916 
L 522.706369 202.585207 
L 524.561236 197.399739 
L 526.416104 189.60874 
L 527.343538 185.66625 
L 528.270971 185.094761 
L 529.198405 188.667333 
L 531.980706 196.272546 
L 532.90814 198.00473 
L 533.835573 199.430885 
L 534.763007 200.190592 
L 535.690441 200.713635 
L 536.617875 200.940137 
L 537.545308 200.109561 
L 539.400176 196.238413 
L 542.182477 189.564559 
L 543.10991 188.113482 
L 544.037344 187.621621 
L 544.964778 187.54914 
L 545.892212 188.153433 
L 546.819645 190.435144 
L 547.747079 194.502037 
L 548.674513 197.895445 
L 549.601946 200.716512 
L 550.52938 201.645427 
L 551.456814 199.918749 
L 552.384248 197.923582 
L 553.311681 195.104354 
L 554.239115 193.686664 
L 555.166549 194.217762 
L 556.093982 193.76383 
L 557.021416 192.934248 
L 557.94885 191.847657 
L 558.876283 190.065368 
L 559.803717 190.929058 
L 560.731151 194.593831 
L 561.658585 196.682163 
L 562.586018 197.749876 
L 563.513452 197.836081 
L 564.440886 196.040016 
L 565.368319 194.860362 
L 566.295753 194.077126 
L 567.223187 193.123861 
L 568.15062 192.476826 
L 569.078054 192.477201 
L 570.005488 193.262591 
L 570.932922 194.204872 
L 573.715223 197.85648 
L 574.642656 197.683138 
L 579.279825 188.959032 
L 580.207259 188.725895 
L 581.134692 190.16662 
L 582.062126 192.487654 
L 582.98956 196.104641 
L 583.916993 197.097268 
L 584.844427 195.090942 
L 585.771861 193.702366 
L 586.699295 192.008718 
L 587.626728 191.560803 
L 588.554162 192.990037 
L 589.481596 194.928954 
L 590.409029 197.989833 
L 591.336463 200.581417 
L 592.263897 202.534269 
L 593.19133 205.43746 
L 594.118764 208.939363 
L 595.046198 203.780476 
L 595.973632 189.245473 
L 596.901065 179.495414 
L 597.828499 172.964298 
L 598.755933 171.473497 
L 599.683366 178.259951 
L 600.6108 188.601287 
L 601.538234 204.296846 
L 602.465667 213.330226 
L 603.393101 214.313946 
L 604.320535 211.757106 
L 605.247969 202.041849 
L 606.175402 195.247279 
L 607.102836 191.54951 
L 608.03027 187.118642 
L 608.957703 184.324041 
L 609.885137 184.656623 
L 610.812571 188.554089 
L 611.740005 189.831584 
L 612.667438 188.629674 
L 613.594872 190.569177 
L 614.522306 194.592647 
L 617.304607 204.125673 
L 618.23204 206.446067 
L 619.159474 207.71266 
L 620.086908 207.604581 
L 621.014342 206.392358 
L 621.941775 203.797557 
L 622.869209 200.511331 
L 626.578944 184.031575 
L 627.506377 179.32443 
L 628.433811 176.445118 
L 630.288679 174.801579 
L 631.216112 174.630308 
L 632.143546 173.046268 
L 633.07098 169.601447 
L 633.998413 169.123476 
L 634.925847 171.311405 
L 635.853281 174.947579 
L 638.635582 193.984724 
L 640.490449 207.649428 
L 641.417883 213.354709 
L 642.345317 217.665287 
L 643.27275 220.828901 
L 644.200184 222.403764 
L 645.127618 222.913455 
L 646.055052 222.212393 
L 646.982485 220.627294 
L 647.909919 218.235422 
L 648.837353 213.619397 
L 649.764786 206.762414 
L 650.69222 201.659532 
L 651.619654 198.31803 
L 652.547087 195.675801 
L 653.474521 194.748454 
L 654.401955 189.133351 
L 655.329389 178.452859 
L 656.256822 171.036784 
L 657.184256 165.776419 
L 658.11169 164.934918 
L 659.039123 193.396445 
L 659.966557 206.691662 
L 660.893991 215.019881 
L 661.821425 216.37059 
L 662.748858 205.530376 
L 663.676292 198.750657 
L 664.603726 194.998281 
L 665.531159 190.233566 
L 666.458593 187.773993 
L 667.386027 188.958157 
L 669.240894 195.680548 
L 670.168328 198.442652 
L 671.095762 198.425218 
L 673.878063 189.889567 
L 674.805496 190.298635 
L 675.73293 194.856225 
L 676.660364 196.267609 
L 677.587797 195.221727 
L 678.515231 195.304401 
L 679.442665 195.264955 
L 680.370099 194.651389 
L 681.297532 193.742233 
L 682.224966 193.371509 
L 684.079833 193.890856 
L 685.007267 194.471816 
L 685.934701 195.398278 
L 686.862134 196.657505 
L 687.789568 196.415473 
L 688.717002 194.502239 
L 689.644436 193.585311 
L 690.571869 193.326877 
L 691.499303 192.431502 
L 692.426737 191.314225 
L 693.35417 189.587123 
L 694.281604 187.067761 
L 695.209038 185.77947 
L 696.136472 185.736654 
L 697.063905 187.873537 
L 697.991339 192.854122 
L 698.918773 206.383021 
L 699.846206 204.182129 
L 700.77364 205.831443 
L 701.701074 201.131791 
L 702.628507 199.230811 
L 703.555941 199.633164 
L 704.483375 199.77589 
L 705.410809 201.211576 
L 706.338242 201.143987 
L 708.19311 197.618833 
L 710.047977 192.288466 
L 711.902844 186.57524 
L 712.830278 184.122411 
L 713.757712 184.706921 
L 716.540013 196.682438 
L 717.467447 198.995738 
L 718.39488 198.615461 
L 719.322314 199.113694 
L 720.249748 199.778357 
L 721.177182 198.97865 
L 722.104615 197.101829 
L 723.959483 194.082369 
L 724.886916 193.100308 
L 725.81435 192.923753 
L 726.741784 193.145043 
L 727.669217 194.001312 
L 728.596651 194.477293 
L 731.378952 194.479135 
L 733.23382 194.487546 
L 737.870988 194.672593 
L 738.798422 194.945098 
L 739.725856 194.871334 
L 740.653289 194.462528 
L 741.580723 193.827472 
L 743.43559 191.937884 
L 744.363024 191.123038 
L 745.290458 191.037385 
L 746.217892 191.865854 
L 747.145325 193.132001 
L 750.85506 200.854724 
L 751.782494 201.87824 
L 752.709927 201.944029 
L 757.347096 196.015178 
L 758.27453 195.068748 
L 759.201963 194.358595 
L 760.129397 192.020116 
L 761.056831 187.912789 
L 761.984264 185.103557 
L 762.911698 183.311862 
L 763.839132 182.106939 
L 764.766566 182.138972 
L 765.693999 183.164434 
L 766.621433 185.395244 
L 767.548867 188.601474 
L 769.403734 196.802238 
L 771.258601 203.828987 
L 772.186035 206.898373 
L 773.113469 208.206171 
L 774.040903 207.489803 
L 774.968336 205.787366 
L 777.750637 196.443022 
L 778.678071 194.104214 
L 780.532939 192.054652 
L 782.387806 191.188586 
L 784.242673 190.124751 
L 785.170107 189.582371 
L 786.097541 186.966826 
L 787.024974 182.035586 
L 787.952408 180.055023 
L 788.879842 180.857439 
L 789.807276 183.281996 
L 790.734709 188.580864 
L 791.662143 192.806573 
L 792.589577 195.933354 
L 793.51701 197.193171 
L 794.444444 195.441678 
L 795.371878 195.891133 
L 796.299311 198.208585 
L 797.226745 199.425702 
L 798.154179 200.457682 
L 799.081613 201.192859 
L 800.009046 201.293076 
L 800.93648 200.302249 
L 803.718781 193.411808 
L 804.646215 191.479067 
L 805.573649 190.289517 
L 806.501082 189.892644 
L 807.428516 190.618003 
L 808.35595 191.796556 
L 810.210817 195.201713 
L 811.138251 196.503909 
L 812.065684 197.411111 
L 812.993118 197.615164 
L 813.920552 197.07765 
L 815.775419 194.309376 
L 816.702853 193.208793 
L 817.630287 191.130974 
L 818.55772 188.257319 
L 819.485154 187.232798 
L 820.412588 188.106874 
L 821.340021 190.284643 
L 823.194889 199.089241 
L 824.122323 204.178863 
L 825.049756 207.301622 
L 825.97719 207.829385 
L 826.904624 206.854911 
L 828.759491 199.789113 
L 829.686925 195.850323 
L 831.541792 185.742247 
L 832.469226 182.40008 
L 833.39666 181.320908 
L 834.324093 181.782267 
L 835.251527 184.583953 
L 836.178961 186.631452 
L 837.106394 187.875315 
L 838.033828 189.313601 
L 838.961262 190.18889 
L 839.888696 191.914698 
L 843.59843 202.491264 
L 844.525864 205.838785 
L 845.453298 205.596261 
L 846.380731 201.4038 
L 847.308165 199.523168 
L 848.235599 199.28504 
L 849.163033 197.686272 
L 850.090466 195.777352 
L 851.0179 192.860602 
L 851.945334 188.589458 
L 852.872767 185.280437 
L 853.800201 182.826784 
L 854.727635 183.427594 
L 855.655068 187.882725 
L 856.582502 191.173119 
L 857.509936 193.850796 
L 859.364803 200.773472 
L 860.292237 203.615732 
L 861.219671 205.74056 
L 862.147104 205.672513 
L 863.074538 202.99939 
L 864.001972 201.30982 
L 864.929406 200.317431 
L 865.856839 197.49557 
L 868.63914 185.392434 
L 869.566574 182.847058 
L 870.494008 182.26656 
L 871.421441 184.487979 
L 872.348875 190.298776 
L 873.276309 193.332939 
L 874.203743 193.639658 
L 875.131176 195.921101 
L 876.986044 201.602686 
L 877.913477 204.417693 
L 878.840911 205.663846 
L 879.768345 205.088756 
L 880.695778 203.286677 
L 881.623212 199.878181 
L 882.550646 197.155853 
L 883.47808 195.294491 
L 884.405513 193.970571 
L 885.332947 193.87664 
L 886.260381 192.219031 
L 887.187814 189.022387 
L 889.042682 184.096902 
L 889.970116 182.073194 
L 890.897549 180.763353 
L 891.824983 181.614009 
L 896.462151 198.249348 
L 897.389585 201.024663 
L 900.171886 208.0239 
L 901.09932 208.05854 
L 902.026754 205.620643 
L 902.954187 203.892918 
L 903.881621 202.461199 
L 904.809055 201.355029 
L 905.736488 201.22918 
L 907.591356 200.322691 
L 908.51879 200.211095 
L 909.446223 200.322149 
L 910.373657 199.990336 
L 911.301091 199.194542 
L 912.228524 197.174408 
L 915.010826 186.949069 
L 915.938259 184.529098 
L 916.865693 183.490452 
L 917.793127 183.299296 
L 918.72056 184.412311 
L 919.647994 185.979997 
L 920.575428 188.046008 
L 921.502861 188.995689 
L 922.430295 188.470261 
L 923.357729 187.313495 
L 924.285163 184.956336 
L 925.212596 183.694465 
L 926.14003 183.660001 
L 927.067464 184.370633 
L 927.994897 186.47037 
L 928.922331 189.761984 
L 930.777198 198.842732 
L 931.704632 202.820946 
L 932.632066 205.749705 
L 933.5595 207.040817 
L 934.486933 206.92882 
L 935.414367 204.916779 
L 936.341801 202.115987 
L 940.051535 187.459219 
L 940.978969 184.003759 
L 941.906403 181.988871 
L 942.833837 181.648577 
L 943.76127 182.476002 
L 949.325873 196.843518 
L 950.253306 198.762705 
L 951.18074 200.281324 
L 952.108174 201.31375 
L 953.035607 201.953564 
L 953.963041 202.119341 
L 954.890475 201.983382 
L 955.817908 201.539315 
L 956.745342 200.861147 
L 958.60021 198.994076 
L 959.527643 197.903834 
L 960.455077 196.985721 
L 961.382511 196.311648 
L 962.309944 194.970942 
L 963.237378 192.986015 
L 964.164812 191.494548 
L 965.092245 190.374076 
L 966.019679 190.493453 
L 968.80198 195.570174 
L 969.729414 196.462978 
L 970.656848 196.06317 
L 972.511715 195.744073 
L 974.366583 194.598984 
L 975.294016 193.615662 
L 976.22145 192.2857 
L 977.148884 191.415119 
L 978.076317 191.033394 
L 979.003751 191.810642 
L 979.931185 194.059124 
L 980.858618 195.789489 
L 982.713486 198.365198 
L 983.64092 198.958809 
L 984.568353 198.58363 
L 987.350654 193.684727 
L 990.132955 187.666311 
L 991.060389 186.015353 
L 991.987823 185.775709 
L 992.915257 187.197505 
L 993.84269 189.50664 
L 994.770124 193.092224 
L 995.697558 195.667146 
L 996.624991 197.012101 
L 997.552425 200.608387 
L 998.479859 206.06509 
L 999.407293 206.801534 
L 1000.334726 202.884644 
L 1003.117027 195.433218 
L 1004.044461 193.911577 
L 1004.971895 193.726727 
L 1005.899328 195.371984 
L 1006.826762 195.686296 
L 1007.754196 194.781848 
L 1008.68163 194.213404 
L 1013.318798 189.993609 
L 1014.246232 190.040378 
L 1015.173665 190.934433 
L 1016.101099 192.281422 
L 1017.028533 194.274247 
L 1017.955967 195.839228 
L 1018.8834 196.870934 
L 1019.810834 197.482823 
L 1020.738268 197.333896 
L 1021.665701 196.545815 
L 1022.593135 194.963621 
L 1023.520569 193.660146 
L 1024.448002 192.675909 
L 1025.375436 192.032532 
L 1026.30287 192.049402 
L 1027.230304 192.724208 
L 1029.085171 195.56014 
L 1030.012605 196.677744 
L 1030.940038 197.454317 
L 1031.867472 197.594599 
L 1032.794906 196.977332 
L 1035.577207 192.316279 
L 1036.504641 190.957603 
L 1037.432074 190.03686 
L 1038.359508 189.453874 
L 1039.286942 189.39496 
L 1040.214375 189.482477 
L 1041.141809 189.76779 
L 1042.069243 190.953544 
L 1043.92411 195.367231 
L 1044.851544 198.056371 
L 1045.778978 199.833395 
L 1047.633845 201.053026 
L 1048.561279 201.25482 
L 1049.488712 198.581806 
L 1050.416146 192.872211 
L 1051.34358 188.271765 
L 1052.271014 184.40208 
L 1053.198447 184.875131 
L 1054.125881 191.003307 
L 1055.053315 195.457368 
L 1055.980748 199.228006 
L 1056.908182 200.261437 
L 1057.835616 196.914076 
L 1058.76305 196.232283 
L 1059.690483 197.47296 
L 1060.617917 196.930995 
L 1061.545351 195.703758 
L 1062.472784 195.004889 
L 1063.400218 194.510838 
L 1064.327652 194.18869 
L 1065.255085 194.241718 
L 1066.182519 194.583167 
L 1067.109953 195.295916 
L 1068.037387 195.79495 
L 1068.96482 196.052317 
L 1069.892254 195.677806 
L 1073.601989 190.728263 
L 1074.529422 190.007052 
L 1075.456856 189.876138 
L 1076.38429 190.557511 
L 1077.311724 191.858175 
L 1079.166591 196.177811 
L 1080.094025 198.54886 
L 1081.021458 199.862674 
L 1081.948892 199.817677 
L 1082.876326 200.60537 
L 1083.80376 201.943723 
L 1084.731193 201.004219 
L 1085.658627 197.936223 
L 1086.586061 191.204218 
L 1087.513494 179.928301 
L 1087.513494 179.928301 
" clip-path="url(#p9eaaec34ba)" style="fill: none; stroke: #f27f19; stroke-width: 1.5; stroke-linecap: square"/>
   </g>
   <g id="patch_8">
    <path d="M 42.620313 261.92 
L 42.620313 148.5 
" style="fill: none; stroke: #000000; stroke-width: 0.8; stroke-linejoin: miter; stroke-linecap: square"/>
   </g>
   <g id="patch_9">
    <path d="M 1137.270313 261.92 
L 1137.270313 148.5 
" style="fill: none; stroke: #000000; stroke-width: 0.8; stroke-linejoin: miter; stroke-linecap: square"/>
   </g>
   <g id="patch_10">
    <path d="M 42.620313 261.92 
L 1137.270313 261.92 
" style="fill: none; stroke: #000000; stroke-width: 0.8; stroke-linejoin: miter; stroke-linecap: square"/>
   </g>
   <g id="patch_11">
    <path d="M 42.620313 148.5 
L 1137.270313 148.5 
" style="fill: none; stroke: #000000; stroke-width: 0.8; stroke-linejoin: miter; stroke-linecap: square"/>
   </g>
  </g>
  <g id="axes_3">
   <g id="patch_12">
    <path d="M 42.620313 403.22 
L 1137.270313 403.22 
L 1137.270313 289.8 
L 42.620313 289.8 
z
" style="fill: #ffffff"/>
   </g>
   <g id="matplotlib.axis_5">
    <g id="xtick_13">
     <g id="line2d_23">
      <g>
       <use xlink:href="#md70b32c991" x="92.377131" y="403.22" style="stroke: #000000; stroke-width: 0.8"/>
      </g>
     </g>
     <g id="text_23">
      <!-- 0 -->
      <g transform="translate(89.195881 417.818437) scale(0.1 -0.1)">
       <use xlink:href="#DejaVuSans-30"/>
      </g>
     </g>
    </g>
    <g id="xtick_14">
     <g id="line2d_24">
      <g>
       <use xlink:href="#md70b32c991" x="277.863871" y="403.22" style="stroke: #000000; stroke-width: 0.8"/>
      </g>
     </g>
     <g id="text_24">
      <!-- 200 -->
      <g transform="translate(268.320121 417.818437) scale(0.1 -0.1)">
       <use xlink:href="#DejaVuSans-32"/>
       <use xlink:href="#DejaVuSans-30" transform="translate(63.623047 0)"/>
       <use xlink:href="#DejaVuSans-30" transform="translate(127.246094 0)"/>
      </g>
     </g>
    </g>
    <g id="xtick_15">
     <g id="line2d_25">
      <g>
       <use xlink:href="#md70b32c991" x="463.350612" y="403.22" style="stroke: #000000; stroke-width: 0.8"/>
      </g>
     </g>
     <g id="text_25">
      <!-- 400 -->
      <g transform="translate(453.806862 417.818437) scale(0.1 -0.1)">
       <use xlink:href="#DejaVuSans-34"/>
       <use xlink:href="#DejaVuSans-30" transform="translate(63.623047 0)"/>
       <use xlink:href="#DejaVuSans-30" transform="translate(127.246094 0)"/>
      </g>
     </g>
    </g>
    <g id="xtick_16">
     <g id="line2d_26">
      <g>
       <use xlink:href="#md70b32c991" x="648.837353" y="403.22" style="stroke: #000000; stroke-width: 0.8"/>
      </g>
     </g>
     <g id="text_26">
      <!-- 600 -->
      <g transform="translate(639.293603 417.818437) scale(0.1 -0.1)">
       <use xlink:href="#DejaVuSans-36"/>
       <use xlink:href="#DejaVuSans-30" transform="translate(63.623047 0)"/>
       <use xlink:href="#DejaVuSans-30" transform="translate(127.246094 0)"/>
      </g>
     </g>
    </g>
    <g id="xtick_17">
     <g id="line2d_27">
      <g>
       <use xlink:href="#md70b32c991" x="834.324093" y="403.22" style="stroke: #000000; stroke-width: 0.8"/>
      </g>
     </g>
     <g id="text_27">
      <!-- 800 -->
      <g transform="translate(824.780343 417.818437) scale(0.1 -0.1)">
       <use xlink:href="#DejaVuSans-38"/>
       <use xlink:href="#DejaVuSans-30" transform="translate(63.623047 0)"/>
       <use xlink:href="#DejaVuSans-30" transform="translate(127.246094 0)"/>
      </g>
     </g>
    </g>
    <g id="xtick_18">
     <g id="line2d_28">
      <g>
       <use xlink:href="#md70b32c991" x="1019.810834" y="403.22" style="stroke: #000000; stroke-width: 0.8"/>
      </g>
     </g>
     <g id="text_28">
      <!-- 1000 -->
      <g transform="translate(1007.085834 417.818437) scale(0.1 -0.1)">
       <use xlink:href="#DejaVuSans-31"/>
       <use xlink:href="#DejaVuSans-30" transform="translate(63.623047 0)"/>
       <use xlink:href="#DejaVuSans-30" transform="translate(127.246094 0)"/>
       <use xlink:href="#DejaVuSans-30" transform="translate(190.869141 0)"/>
      </g>
     </g>
    </g>
   </g>
   <g id="matplotlib.axis_6">
    <g id="ytick_9">
     <g id="line2d_29">
      <g>
       <use xlink:href="#mbd94174344" x="42.620313" y="377.015952" style="stroke: #000000; stroke-width: 0.8"/>
      </g>
     </g>
     <g id="text_29">
      <!-- −5 -->
      <g transform="translate(20.878125 380.815171) scale(0.1 -0.1)">
       <defs>
        <path id="DejaVuSans-35" d="M 691 4666 
L 3169 4666 
L 3169 4134 
L 1269 4134 
L 1269 2991 
Q 1406 3038 1543 3061 
Q 1681 3084 1819 3084 
Q 2600 3084 3056 2656 
Q 3513 2228 3513 1497 
Q 3513 744 3044 326 
Q 2575 -91 1722 -91 
Q 1428 -91 1123 -41 
Q 819 9 494 109 
L 494 744 
Q 775 591 1075 516 
Q 1375 441 1709 441 
Q 2250 441 2565 725 
Q 2881 1009 2881 1497 
Q 2881 1984 2565 2268 
Q 2250 2553 1709 2553 
Q 1456 2553 1204 2497 
Q 953 2441 691 2322 
L 691 4666 
z
" transform="scale(0.015625)"/>
       </defs>
       <use xlink:href="#DejaVuSans-2212"/>
       <use xlink:href="#DejaVuSans-35" transform="translate(83.789062 0)"/>
      </g>
     </g>
    </g>
    <g id="ytick_10">
     <g id="line2d_30">
      <g>
       <use xlink:href="#mbd94174344" x="42.620313" y="350.607921" style="stroke: #000000; stroke-width: 0.8"/>
      </g>
     </g>
     <g id="text_30">
      <!-- 0 -->
      <g transform="translate(29.257813 354.40714) scale(0.1 -0.1)">
       <use xlink:href="#DejaVuSans-30"/>
      </g>
     </g>
    </g>
    <g id="ytick_11">
     <g id="line2d_31">
      <g>
       <use xlink:href="#mbd94174344" x="42.620313" y="324.199891" style="stroke: #000000; stroke-width: 0.8"/>
      </g>
     </g>
     <g id="text_31">
      <!-- 5 -->
      <g transform="translate(29.257813 327.999109) scale(0.1 -0.1)">
       <use xlink:href="#DejaVuSans-35"/>
      </g>
     </g>
    </g>
    <g id="ytick_12">
     <g id="line2d_32">
      <g>
       <use xlink:href="#mbd94174344" x="42.620313" y="297.79186" style="stroke: #000000; stroke-width: 0.8"/>
      </g>
     </g>
     <g id="text_32">
      <!-- 10 -->
      <g transform="translate(22.895313 301.591079) scale(0.1 -0.1)">
       <use xlink:href="#DejaVuSans-31"/>
       <use xlink:href="#DejaVuSans-30" transform="translate(63.623047 0)"/>
      </g>
     </g>
    </g>
    <g id="text_33">
     <!-- co-imf1 -->
     <g transform="translate(14.798438 365.417031) rotate(-90) scale(0.1 -0.1)">
      <use xlink:href="#DejaVuSans-63"/>
      <use xlink:href="#DejaVuSans-6f" transform="translate(54.980469 0)"/>
      <use xlink:href="#DejaVuSans-2d" transform="translate(118.037109 0)"/>
      <use xlink:href="#DejaVuSans-69" transform="translate(154.121094 0)"/>
      <use xlink:href="#DejaVuSans-6d" transform="translate(181.904297 0)"/>
      <use xlink:href="#DejaVuSans-66" transform="translate(279.316406 0)"/>
      <use xlink:href="#DejaVuSans-31" transform="translate(314.521484 0)"/>
     </g>
    </g>
   </g>
   <g id="line2d_33">
    <path d="M 92.377131 309.635638 
L 94.231998 310.839041 
L 96.086865 311.743399 
L 97.941733 312.306627 
L 99.7966 312.510173 
L 101.651468 312.321963 
L 103.506335 311.717716 
L 105.361203 310.747563 
L 109.070937 308.623687 
L 110.925805 307.957233 
L 111.853238 307.821583 
L 112.780672 307.826533 
L 113.708106 307.997427 
L 114.63554 308.342296 
L 115.562973 308.877477 
L 116.490407 309.616402 
L 117.417841 310.57301 
L 118.345274 311.762844 
L 119.272708 313.200052 
L 120.200142 314.887472 
L 122.055009 319.00398 
L 123.909877 323.944905 
L 126.692178 332.339037 
L 131.329346 346.763029 
L 133.184214 351.92642 
L 135.039081 356.382303 
L 136.893948 360.105696 
L 138.748816 363.24078 
L 140.603683 365.955045 
L 143.385984 369.608337 
L 146.168285 372.90585 
L 148.023153 374.848613 
L 149.87802 376.531565 
L 150.805454 377.24035 
L 151.732888 377.778592 
L 152.660321 378.097324 
L 153.587755 378.123126 
L 154.515189 377.821952 
L 155.442623 377.243441 
L 156.370056 376.408589 
L 157.29749 375.376838 
L 159.152357 372.87256 
L 162.862092 367.572419 
L 163.789526 366.519884 
L 164.71696 365.691436 
L 165.644393 365.145119 
L 166.571827 364.939986 
L 167.499261 365.13384 
L 168.426694 365.763355 
L 169.354128 366.825333 
L 170.281562 368.244627 
L 171.208995 369.981969 
L 173.063863 374.134157 
L 178.628465 387.781484 
L 180.483332 391.341354 
L 181.410766 392.817026 
L 182.3382 394.067912 
L 183.265634 395.081653 
L 184.193067 395.843178 
L 185.120501 396.34901 
L 186.047935 396.591922 
L 186.975368 396.620074 
L 187.902802 396.444215 
L 188.830236 396.110553 
L 190.685103 395.074018 
L 197.177139 390.663688 
L 199.032007 389.63711 
L 200.886874 388.911144 
L 201.814308 388.696353 
L 203.669175 388.599175 
L 205.524042 388.93324 
L 207.37891 389.704736 
L 209.233777 390.874558 
L 212.016078 393.069585 
L 214.79838 395.310901 
L 216.653247 396.566407 
L 218.508114 397.475244 
L 220.362982 397.970928 
L 222.217849 398.056098 
L 224.072717 397.727707 
L 225.927584 396.983445 
L 227.782451 395.821919 
L 229.637319 394.239572 
L 231.492186 392.217735 
L 233.347054 389.726227 
L 235.201921 386.691692 
L 237.056788 383.024091 
L 238.911656 378.756581 
L 240.766523 373.989492 
L 244.476258 363.590378 
L 247.258559 355.947772 
L 249.113427 351.3668 
L 250.968294 347.517489 
L 251.895728 345.945775 
L 252.823161 344.642559 
L 253.750595 343.608857 
L 254.678029 342.86915 
L 255.605462 342.423019 
L 256.532896 342.2817 
L 257.46033 342.390438 
L 258.387764 342.729519 
L 259.315197 343.241005 
L 261.170065 344.649392 
L 264.879799 347.900767 
L 265.807233 348.508833 
L 266.734667 348.907091 
L 267.662101 349.038808 
L 268.589534 348.841481 
L 269.516968 348.253163 
L 270.444402 347.243046 
L 271.371835 345.799844 
L 272.299269 343.960692 
L 273.226703 341.720787 
L 274.154137 339.108109 
L 276.009004 332.81976 
L 277.863871 325.324342 
L 281.573606 309.631981 
L 283.428474 303.107477 
L 284.355907 300.437004 
L 285.283341 298.226051 
L 286.210775 296.540329 
L 287.138208 295.431012 
L 288.065642 294.955455 
L 288.993076 295.17158 
L 289.920509 296.128862 
L 290.847943 297.839786 
L 291.775377 300.274417 
L 292.702811 303.326716 
L 294.557678 310.960597 
L 296.412545 319.998913 
L 301.049714 343.885466 
L 302.904581 352.024958 
L 303.832015 355.470456 
L 304.759449 358.434025 
L 305.686882 360.926731 
L 306.614316 362.92964 
L 307.54175 364.465559 
L 308.469184 365.527372 
L 309.396617 366.131927 
L 310.324051 366.28562 
L 311.251485 365.994557 
L 312.178918 365.268476 
L 313.106352 364.12468 
L 314.033786 362.589415 
L 315.888653 358.882755 
L 317.743521 355.241278 
L 318.670954 353.736277 
L 319.598388 352.513724 
L 320.525822 351.567833 
L 321.453255 350.928935 
L 322.380689 350.588329 
L 323.308123 350.56879 
L 324.235557 350.831089 
L 325.16299 351.336252 
L 327.017858 352.766689 
L 328.872725 354.335495 
L 329.800159 355.006113 
L 330.727592 355.512325 
L 331.655026 355.837143 
L 332.58246 355.973324 
L 333.509894 355.956467 
L 334.437327 355.784282 
L 336.292195 355.080279 
L 338.147062 354.0026 
L 340.929363 351.991647 
L 344.639098 349.304317 
L 346.493965 348.282368 
L 347.421399 347.923586 
L 348.348833 347.69552 
L 349.276266 347.616667 
L 350.2037 347.710045 
L 351.131134 347.995924 
L 352.058568 348.4919 
L 352.986001 349.218602 
L 353.913435 350.146464 
L 355.768302 352.521757 
L 357.62317 355.359941 
L 362.260338 362.802837 
L 364.115206 365.30274 
L 365.970073 367.261662 
L 366.897507 367.989799 
L 367.824941 368.524667 
L 368.752374 368.844388 
L 369.679808 368.93141 
L 370.607242 368.775119 
L 371.534675 368.364548 
L 372.462109 367.747747 
L 373.389543 366.936416 
L 375.24441 364.895675 
L 378.026711 361.251676 
L 380.809012 357.683829 
L 382.66388 355.710724 
L 384.518747 354.164184 
L 386.373615 353.090314 
L 387.301048 352.744786 
L 388.228482 352.534306 
L 389.155916 352.458426 
L 390.083349 352.521667 
L 391.010783 352.700584 
L 392.865651 353.379881 
L 394.720518 354.382707 
L 397.502819 356.188739 
L 402.139988 359.353753 
L 403.994855 360.30634 
L 404.922289 360.604153 
L 405.849722 360.768275 
L 406.777156 360.784636 
L 407.70459 360.677607 
L 408.632024 360.438773 
L 410.486891 359.607958 
L 412.341758 358.366471 
L 415.124059 356.049573 
L 418.833794 352.938997 
L 420.688662 351.723831 
L 422.543529 350.833285 
L 425.32583 349.850957 
L 428.108131 348.911097 
L 429.962999 348.091437 
L 431.817866 346.988959 
L 433.672733 345.572021 
L 435.527601 343.841998 
L 437.382468 341.794314 
L 439.237336 339.424598 
L 441.092203 336.734449 
L 443.874504 332.240793 
L 447.584239 326.137172 
L 449.439106 323.467336 
L 451.293974 321.323679 
L 452.221408 320.511901 
L 453.148841 319.907006 
L 454.076275 319.50846 
L 455.003709 319.333768 
L 455.931142 319.367816 
L 456.858576 319.615811 
L 457.78601 320.075892 
L 458.713443 320.744635 
L 459.640877 321.623006 
L 460.568311 322.708659 
L 461.495745 324.000163 
L 463.350612 327.164344 
L 465.205479 330.936997 
L 468.915214 339.335394 
L 471.697515 345.4523 
L 473.552383 349.06946 
L 475.40725 352.210704 
L 477.262118 354.817133 
L 479.116985 356.899273 
L 480.971852 358.517964 
L 482.82672 359.739605 
L 484.681587 360.63142 
L 486.536455 361.265243 
L 489.318756 361.932768 
L 493.028491 362.784267 
L 494.883358 363.389108 
L 496.738225 364.22311 
L 498.593093 365.319454 
L 500.44796 366.643686 
L 503.230261 368.933854 
L 507.86743 372.921464 
L 509.722297 374.276554 
L 511.577165 375.337971 
L 513.432032 375.989536 
L 514.359466 376.130218 
L 515.286899 376.140231 
L 516.214333 376.008416 
L 517.141767 375.733381 
L 518.0692 375.307596 
L 518.996634 374.736457 
L 520.851502 373.159593 
L 522.706369 371.062677 
L 524.561236 368.54532 
L 527.343538 364.300348 
L 531.980706 357.089693 
L 533.835573 354.478311 
L 535.690441 352.201443 
L 537.545308 350.373403 
L 539.400176 349.052351 
L 540.327609 348.593369 
L 541.255043 348.275266 
L 542.182477 348.102464 
L 543.10991 348.082622 
L 544.037344 348.218535 
L 544.964778 348.500391 
L 546.819645 349.444655 
L 548.674513 350.722487 
L 553.311681 354.110385 
L 555.166549 355.119579 
L 556.093982 355.468113 
L 557.021416 355.684515 
L 557.94885 355.745784 
L 558.876283 355.629957 
L 559.803717 355.348407 
L 560.731151 354.891342 
L 561.658585 354.284312 
L 563.513452 352.657469 
L 565.368319 350.655772 
L 570.932922 344.205454 
L 572.787789 342.519632 
L 573.715223 341.865242 
L 574.642656 341.347505 
L 575.57009 340.98675 
L 576.497524 340.75642 
L 577.424958 340.66563 
L 579.279825 340.819598 
L 581.134692 341.349348 
L 586.699295 343.538566 
L 587.626728 343.738373 
L 588.554162 343.824457 
L 589.481596 343.781604 
L 590.409029 343.585368 
L 591.336463 343.248049 
L 592.263897 342.757475 
L 594.118764 341.39752 
L 595.973632 339.589037 
L 597.828499 337.417291 
L 600.6108 333.674282 
L 604.320535 328.570572 
L 607.102836 325.208426 
L 608.957703 323.293711 
L 610.812571 321.70062 
L 612.667438 320.488353 
L 614.522306 319.68818 
L 616.377173 319.293599 
L 618.23204 319.29283 
L 620.086908 319.67482 
L 621.941775 320.402744 
L 623.796643 321.400966 
L 626.578944 323.214934 
L 631.216112 326.402348 
L 633.07098 327.488871 
L 635.853281 328.808513 
L 638.635582 329.836029 
L 643.27275 331.216025 
L 646.982485 332.347927 
L 648.837353 333.159991 
L 650.69222 334.3276 
L 652.547087 335.992401 
L 653.474521 337.05638 
L 654.401955 338.297916 
L 656.256822 341.358776 
L 658.11169 345.084218 
L 661.821425 352.816364 
L 663.676292 355.892079 
L 664.603726 357.055706 
L 665.531159 357.926681 
L 666.458593 358.457058 
L 667.386027 358.641396 
L 668.31346 358.512935 
L 669.240894 358.163561 
L 671.095762 357.016277 
L 673.878063 354.825749 
L 678.515231 351.116764 
L 681.297532 348.996983 
L 683.1524 347.907523 
L 684.079833 347.543369 
L 685.007267 347.337159 
L 685.934701 347.293434 
L 686.862134 347.437177 
L 687.789568 347.754166 
L 688.717002 348.258177 
L 689.644436 348.908418 
L 691.499303 350.58242 
L 694.281604 353.61096 
L 698.918773 358.791027 
L 700.77364 360.557507 
L 702.628507 361.971235 
L 704.483375 362.991856 
L 706.338242 363.736604 
L 711.902844 365.721679 
L 713.757712 366.699921 
L 715.612579 367.944331 
L 722.104615 372.820816 
L 723.959483 373.782033 
L 724.886916 374.09053 
L 725.81435 374.258684 
L 726.741784 374.309843 
L 728.596651 374.101898 
L 731.378952 373.382564 
L 734.161253 372.698638 
L 736.016121 372.516108 
L 737.870988 372.669674 
L 739.725856 373.170371 
L 741.580723 373.984227 
L 745.290458 376.115284 
L 748.072759 377.627884 
L 749.927626 378.380922 
L 751.782494 378.801727 
L 752.709927 378.855564 
L 754.564795 378.614916 
L 756.419662 377.946927 
L 758.27453 376.914881 
L 760.129397 375.574496 
L 761.984264 373.982975 
L 764.766566 371.251323 
L 768.4763 367.228825 
L 774.040903 361.138549 
L 776.823204 358.395777 
L 779.605505 355.979587 
L 781.460372 354.596264 
L 783.31524 353.443133 
L 785.170107 352.563429 
L 787.024974 351.992612 
L 788.879842 351.764303 
L 790.734709 351.846009 
L 792.589577 352.152257 
L 800.93648 353.919443 
L 802.791347 353.977752 
L 804.646215 353.828751 
L 806.501082 353.447318 
L 808.35595 352.818517 
L 810.210817 351.971456 
L 812.993118 350.403393 
L 816.702853 348.010213 
L 826.904624 341.180133 
L 829.686925 339.746213 
L 832.469226 338.638699 
L 834.324093 338.106093 
L 836.178961 337.755235 
L 838.033828 337.58967 
L 840.816129 337.60747 
L 854.727635 338.488609 
L 859.364803 339.043199 
L 866.784273 339.992705 
L 868.63914 340.022645 
L 870.494008 339.871354 
L 873.276309 339.339758 
L 879.768345 337.836629 
L 881.623212 337.636114 
L 883.47808 337.617898 
L 885.332947 337.814966 
L 887.187814 338.259917 
L 889.042682 338.984741 
L 890.897549 340.026072 
L 892.752417 341.377647 
L 895.534718 343.736692 
L 898.317019 346.10252 
L 900.171886 347.450392 
L 902.026754 348.45012 
L 902.954187 348.77545 
L 903.881621 348.960838 
L 904.809055 348.999544 
L 905.736488 348.875495 
L 906.663922 348.58663 
L 907.591356 348.121332 
L 908.51879 347.512032 
L 910.373657 345.90189 
L 915.938259 340.302189 
L 916.865693 339.627968 
L 917.793127 339.104375 
L 918.72056 338.762542 
L 919.647994 338.59235 
L 920.575428 338.616649 
L 921.502861 338.829682 
L 922.430295 339.241589 
L 923.357729 339.823058 
L 925.212596 341.399006 
L 928.922331 345.219384 
L 931.704632 347.938494 
L 933.5595 349.452869 
L 935.414367 350.610295 
L 937.269234 351.453914 
L 939.124102 352.072904 
L 944.688704 353.487982 
L 953.035607 355.650845 
L 955.817908 356.163016 
L 958.60021 356.444324 
L 961.382511 356.430381 
L 963.237378 356.241325 
L 965.092245 355.896051 
L 967.874547 355.110292 
L 970.656848 354.306069 
L 972.511715 354.003276 
L 974.366583 353.990594 
L 976.22145 354.283395 
L 978.076317 354.876392 
L 980.858618 356.141709 
L 983.64092 357.445727 
L 985.495787 358.111456 
L 987.350654 358.529324 
L 989.205522 358.682479 
L 991.060389 358.555487 
L 992.915257 358.15035 
L 994.770124 357.522127 
L 997.552425 356.324799 
L 1004.044461 353.421462 
L 1006.826762 352.458451 
L 1008.68163 352.015361 
L 1010.536497 351.781309 
L 1012.391364 351.798606 
L 1014.246232 352.089838 
L 1017.028533 352.884657 
L 1020.738268 353.967814 
L 1022.593135 354.237933 
L 1024.448002 354.157862 
L 1025.375436 353.949495 
L 1027.230304 353.151985 
L 1029.085171 351.878622 
L 1030.940038 350.19299 
L 1032.794906 348.172972 
L 1040.214375 339.426496 
L 1042.069243 337.722345 
L 1043.92411 336.40397 
L 1045.778978 335.537963 
L 1046.706411 335.300188 
L 1047.633845 335.196307 
L 1048.561279 335.23482 
L 1049.488712 335.408107 
L 1050.416146 335.720419 
L 1051.34358 336.170589 
L 1053.198447 337.472634 
L 1055.053315 339.235624 
L 1057.835616 342.395537 
L 1061.545351 346.716917 
L 1063.400218 348.65166 
L 1065.255085 350.323996 
L 1067.109953 351.713503 
L 1069.892254 353.474919 
L 1073.601989 355.546495 
L 1077.311724 357.409005 
L 1079.166591 358.189908 
L 1081.021458 358.756747 
L 1082.876326 359.028786 
L 1084.731193 358.976326 
L 1086.586061 358.652261 
L 1087.513494 358.409003 
L 1087.513494 358.409003 
" clip-path="url(#p77637b61e6)" style="fill: none; stroke: #f27f19; stroke-width: 1.5; stroke-linecap: square"/>
   </g>
   <g id="patch_13">
    <path d="M 42.620313 403.22 
L 42.620313 289.8 
" style="fill: none; stroke: #000000; stroke-width: 0.8; stroke-linejoin: miter; stroke-linecap: square"/>
   </g>
   <g id="patch_14">
    <path d="M 1137.270313 403.22 
L 1137.270313 289.8 
" style="fill: none; stroke: #000000; stroke-width: 0.8; stroke-linejoin: miter; stroke-linecap: square"/>
   </g>
   <g id="patch_15">
    <path d="M 42.620313 403.22 
L 1137.270313 403.22 
" style="fill: none; stroke: #000000; stroke-width: 0.8; stroke-linejoin: miter; stroke-linecap: square"/>
   </g>
   <g id="patch_16">
    <path d="M 42.620313 289.8 
L 1137.270313 289.8 
" style="fill: none; stroke: #000000; stroke-width: 0.8; stroke-linejoin: miter; stroke-linecap: square"/>
   </g>
  </g>
  <g id="axes_4">
   <g id="patch_17">
    <path d="M 42.620313 544.52 
L 1137.270313 544.52 
L 1137.270313 431.1 
L 42.620313 431.1 
z
" style="fill: #ffffff"/>
   </g>
   <g id="matplotlib.axis_7">
    <g id="xtick_19">
     <g id="line2d_34">
      <g>
       <use xlink:href="#md70b32c991" x="92.377131" y="544.52" style="stroke: #000000; stroke-width: 0.8"/>
      </g>
     </g>
     <g id="text_34">
      <!-- 0 -->
      <g transform="translate(89.195881 559.118437) scale(0.1 -0.1)">
       <use xlink:href="#DejaVuSans-30"/>
      </g>
     </g>
    </g>
    <g id="xtick_20">
     <g id="line2d_35">
      <g>
       <use xlink:href="#md70b32c991" x="277.863871" y="544.52" style="stroke: #000000; stroke-width: 0.8"/>
      </g>
     </g>
     <g id="text_35">
      <!-- 200 -->
      <g transform="translate(268.320121 559.118437) scale(0.1 -0.1)">
       <use xlink:href="#DejaVuSans-32"/>
       <use xlink:href="#DejaVuSans-30" transform="translate(63.623047 0)"/>
       <use xlink:href="#DejaVuSans-30" transform="translate(127.246094 0)"/>
      </g>
     </g>
    </g>
    <g id="xtick_21">
     <g id="line2d_36">
      <g>
       <use xlink:href="#md70b32c991" x="463.350612" y="544.52" style="stroke: #000000; stroke-width: 0.8"/>
      </g>
     </g>
     <g id="text_36">
      <!-- 400 -->
      <g transform="translate(453.806862 559.118437) scale(0.1 -0.1)">
       <use xlink:href="#DejaVuSans-34"/>
       <use xlink:href="#DejaVuSans-30" transform="translate(63.623047 0)"/>
       <use xlink:href="#DejaVuSans-30" transform="translate(127.246094 0)"/>
      </g>
     </g>
    </g>
    <g id="xtick_22">
     <g id="line2d_37">
      <g>
       <use xlink:href="#md70b32c991" x="648.837353" y="544.52" style="stroke: #000000; stroke-width: 0.8"/>
      </g>
     </g>
     <g id="text_37">
      <!-- 600 -->
      <g transform="translate(639.293603 559.118437) scale(0.1 -0.1)">
       <use xlink:href="#DejaVuSans-36"/>
       <use xlink:href="#DejaVuSans-30" transform="translate(63.623047 0)"/>
       <use xlink:href="#DejaVuSans-30" transform="translate(127.246094 0)"/>
      </g>
     </g>
    </g>
    <g id="xtick_23">
     <g id="line2d_38">
      <g>
       <use xlink:href="#md70b32c991" x="834.324093" y="544.52" style="stroke: #000000; stroke-width: 0.8"/>
      </g>
     </g>
     <g id="text_38">
      <!-- 800 -->
      <g transform="translate(824.780343 559.118437) scale(0.1 -0.1)">
       <use xlink:href="#DejaVuSans-38"/>
       <use xlink:href="#DejaVuSans-30" transform="translate(63.623047 0)"/>
       <use xlink:href="#DejaVuSans-30" transform="translate(127.246094 0)"/>
      </g>
     </g>
    </g>
    <g id="xtick_24">
     <g id="line2d_39">
      <g>
       <use xlink:href="#md70b32c991" x="1019.810834" y="544.52" style="stroke: #000000; stroke-width: 0.8"/>
      </g>
     </g>
     <g id="text_39">
      <!-- 1000 -->
      <g transform="translate(1007.085834 559.118437) scale(0.1 -0.1)">
       <use xlink:href="#DejaVuSans-31"/>
       <use xlink:href="#DejaVuSans-30" transform="translate(63.623047 0)"/>
       <use xlink:href="#DejaVuSans-30" transform="translate(127.246094 0)"/>
       <use xlink:href="#DejaVuSans-30" transform="translate(190.869141 0)"/>
      </g>
     </g>
    </g>
   </g>
   <g id="matplotlib.axis_8">
    <g id="ytick_13">
     <g id="line2d_40">
      <g>
       <use xlink:href="#mbd94174344" x="42.620313" y="501.243978" style="stroke: #000000; stroke-width: 0.8"/>
      </g>
     </g>
     <g id="text_40">
      <!-- 20 -->
      <g transform="translate(22.895313 505.043197) scale(0.1 -0.1)">
       <use xlink:href="#DejaVuSans-32"/>
       <use xlink:href="#DejaVuSans-30" transform="translate(63.623047 0)"/>
      </g>
     </g>
    </g>
    <g id="ytick_14">
     <g id="line2d_41">
      <g>
       <use xlink:href="#mbd94174344" x="42.620313" y="457.438199" style="stroke: #000000; stroke-width: 0.8"/>
      </g>
     </g>
     <g id="text_41">
      <!-- 30 -->
      <g transform="translate(22.895313 461.237418) scale(0.1 -0.1)">
       <use xlink:href="#DejaVuSans-33"/>
       <use xlink:href="#DejaVuSans-30" transform="translate(63.623047 0)"/>
      </g>
     </g>
    </g>
    <g id="text_42">
     <!-- co-imf2 -->
     <g transform="translate(16.815625 506.717031) rotate(-90) scale(0.1 -0.1)">
      <use xlink:href="#DejaVuSans-63"/>
      <use xlink:href="#DejaVuSans-6f" transform="translate(54.980469 0)"/>
      <use xlink:href="#DejaVuSans-2d" transform="translate(118.037109 0)"/>
      <use xlink:href="#DejaVuSans-69" transform="translate(154.121094 0)"/>
      <use xlink:href="#DejaVuSans-6d" transform="translate(181.904297 0)"/>
      <use xlink:href="#DejaVuSans-66" transform="translate(279.316406 0)"/>
      <use xlink:href="#DejaVuSans-32" transform="translate(314.521484 0)"/>
     </g>
    </g>
   </g>
   <g id="line2d_42">
    <path d="M 92.377131 472.573174 
L 104.433769 466.706198 
L 114.63554 461.97568 
L 123.909877 457.909093 
L 132.25678 454.471498 
L 140.603683 451.269881 
L 148.023153 448.641221 
L 155.442623 446.23421 
L 162.862092 444.064937 
L 170.281562 442.146601 
L 176.773598 440.680571 
L 183.265634 439.417016 
L 189.75767 438.359749 
L 196.249705 437.512583 
L 202.741741 436.879332 
L 209.233777 436.463808 
L 215.725813 436.269826 
L 222.217849 436.301199 
L 228.709885 436.561739 
L 235.201921 437.055261 
L 241.693957 437.785578 
L 248.185993 438.756502 
L 254.678029 439.971554 
L 261.170065 441.427671 
L 267.662101 443.111258 
L 275.08157 445.289794 
L 282.50104 447.712189 
L 290.847943 450.693947 
L 299.194847 453.91079 
L 308.469184 457.715045 
L 319.598388 462.529362 
L 334.437327 469.225013 
L 368.752374 484.823595 
L 379.881579 489.588506 
L 390.083349 493.703493 
L 399.357686 497.197676 
L 408.632024 500.438164 
L 416.978927 503.124062 
L 425.32583 505.579083 
L 433.672733 507.791155 
L 441.092203 509.543435 
L 448.511673 511.088455 
L 456.858576 512.584248 
L 465.205479 513.831752 
L 473.552383 514.839609 
L 481.899286 515.615759 
L 490.246189 516.166916 
L 498.593093 516.508881 
L 507.86743 516.668708 
L 518.0692 516.609807 
L 529.198405 516.308395 
L 541.255043 515.756267 
L 555.166549 514.89369 
L 572.787789 513.56574 
L 638.635582 508.346487 
L 653.474521 507.518204 
L 667.386027 506.959484 
L 680.370099 506.656155 
L 693.35417 506.581828 
L 705.410809 506.729638 
L 717.467447 507.094325 
L 729.524085 507.674761 
L 742.508157 508.525695 
L 756.419662 509.66814 
L 771.258601 511.114416 
L 787.952408 512.976217 
L 806.501082 515.273787 
L 829.686925 518.381489 
L 875.131176 524.770292 
L 903.881621 528.682144 
L 925.212596 531.364411 
L 943.76127 533.472511 
L 960.455077 535.147958 
L 976.22145 536.505281 
L 991.060389 537.560123 
L 1004.971895 538.338032 
L 1018.8834 538.900606 
L 1032.794906 539.242048 
L 1046.706411 539.363998 
L 1061.545351 539.265319 
L 1077.311724 538.926755 
L 1087.513494 538.591932 
L 1087.513494 538.591932 
" clip-path="url(#p9563a5fa17)" style="fill: none; stroke: #f27f19; stroke-width: 1.5; stroke-linecap: square"/>
   </g>
   <g id="patch_18">
    <path d="M 42.620313 544.52 
L 42.620313 431.1 
" style="fill: none; stroke: #000000; stroke-width: 0.8; stroke-linejoin: miter; stroke-linecap: square"/>
   </g>
   <g id="patch_19">
    <path d="M 1137.270313 544.52 
L 1137.270313 431.1 
" style="fill: none; stroke: #000000; stroke-width: 0.8; stroke-linejoin: miter; stroke-linecap: square"/>
   </g>
   <g id="patch_20">
    <path d="M 42.620313 544.52 
L 1137.270313 544.52 
" style="fill: none; stroke: #000000; stroke-width: 0.8; stroke-linejoin: miter; stroke-linecap: square"/>
   </g>
   <g id="patch_21">
    <path d="M 42.620313 431.1 
L 1137.270313 431.1 
" style="fill: none; stroke: #000000; stroke-width: 0.8; stroke-linejoin: miter; stroke-linecap: square"/>
   </g>
  </g>
 </g>
 <defs>
  <clipPath id="p12b7d177f3">
   <rect x="42.620313" y="7.2" width="1094.65" height="113.42"/>
  </clipPath>
  <clipPath id="p9eaaec34ba">
   <rect x="42.620313" y="148.5" width="1094.65" height="113.42"/>
  </clipPath>
  <clipPath id="p77637b61e6">
   <rect x="42.620313" y="289.8" width="1094.65" height="113.42"/>
  </clipPath>
  <clipPath id="p9563a5fa17">
   <rect x="42.620313" y="431.1" width="1094.65" height="113.42"/>
  </clipPath>
 </defs>
</svg>
