<?xml version="1.0" encoding="utf-8" standalone="no"?>
<!DOCTYPE svg PUBLIC "-//W3C//DTD SVG 1.1//EN"
  "http://www.w3.org/Graphics/SVG/1.1/DTD/svg11.dtd">
<svg xmlns:xlink="http://www.w3.org/1999/xlink" width="1144.442812pt" height="568.398125pt" viewBox="0 0 1144.442812 568.398125" xmlns="http://www.w3.org/2000/svg" version="1.1">
 <metadata>
  <rdf:RDF xmlns:dc="http://purl.org/dc/elements/1.1/" xmlns:cc="http://creativecommons.org/ns#" xmlns:rdf="http://www.w3.org/1999/02/22-rdf-syntax-ns#">
   <cc:Work>
    <dc:type rdf:resource="http://purl.org/dc/dcmitype/StillImage"/>
    <dc:date>2025-04-15T02:14:05.737632</dc:date>
    <dc:format>image/svg+xml</dc:format>
    <dc:creator>
     <cc:Agent>
      <dc:title>Matplotlib v3.10.1, https://matplotlib.org/</dc:title>
     </cc:Agent>
    </dc:creator>
   </cc:Work>
  </rdf:RDF>
 </metadata>
 <defs>
  <style type="text/css">*{stroke-linejoin: round; stroke-linecap: butt}</style>
 </defs>
 <g id="figure_1">
  <g id="patch_1">
   <path d="M 0 568.398125 
L 1144.442812 568.398125 
L 1144.442812 0 
L 0 0 
z
" style="fill: #ffffff"/>
  </g>
  <g id="axes_1">
   <g id="patch_2">
    <path d="M 48.982813 119.003837 
L 1137.242813 119.003837 
L 1137.242813 7.2 
L 48.982813 7.2 
z
" style="fill: #ffffff"/>
   </g>
   <g id="matplotlib.axis_1">
    <g id="xtick_1">
     <g id="line2d_1">
      <defs>
       <path id="mde725122a5" d="M 0 0 
L 0 3.5 
" style="stroke: #000000; stroke-width: 0.8"/>
      </defs>
      <g>
       <use xlink:href="#mde725122a5" x="98.449176" y="119.003837" style="stroke: #000000; stroke-width: 0.8"/>
      </g>
     </g>
     <g id="text_1">
      <!-- 0 -->
      <g transform="translate(95.267926 133.602275) scale(0.1 -0.1)">
       <defs>
        <path id="DejaVuSans-30" d="M 2034 4250 
Q 1547 4250 1301 3770 
Q 1056 3291 1056 2328 
Q 1056 1369 1301 889 
Q 1547 409 2034 409 
Q 2525 409 2770 889 
Q 3016 1369 3016 2328 
Q 3016 3291 2770 3770 
Q 2525 4250 2034 4250 
z
M 2034 4750 
Q 2819 4750 3233 4129 
Q 3647 3509 3647 2328 
Q 3647 1150 3233 529 
Q 2819 -91 2034 -91 
Q 1250 -91 836 529 
Q 422 1150 422 2328 
Q 422 3509 836 4129 
Q 1250 4750 2034 4750 
z
" transform="scale(0.015625)"/>
       </defs>
       <use xlink:href="#DejaVuSans-30"/>
      </g>
     </g>
    </g>
    <g id="xtick_2">
     <g id="line2d_2">
      <g>
       <use xlink:href="#mde725122a5" x="229.485901" y="119.003837" style="stroke: #000000; stroke-width: 0.8"/>
      </g>
     </g>
     <g id="text_2">
      <!-- 100 -->
      <g transform="translate(219.942151 133.602275) scale(0.1 -0.1)">
       <defs>
        <path id="DejaVuSans-31" d="M 794 531 
L 1825 531 
L 1825 4091 
L 703 3866 
L 703 4441 
L 1819 4666 
L 2450 4666 
L 2450 531 
L 3481 531 
L 3481 0 
L 794 0 
L 794 531 
z
" transform="scale(0.015625)"/>
       </defs>
       <use xlink:href="#DejaVuSans-31"/>
       <use xlink:href="#DejaVuSans-30" transform="translate(63.623047 0)"/>
       <use xlink:href="#DejaVuSans-30" transform="translate(127.246094 0)"/>
      </g>
     </g>
    </g>
    <g id="xtick_3">
     <g id="line2d_3">
      <g>
       <use xlink:href="#mde725122a5" x="360.522626" y="119.003837" style="stroke: #000000; stroke-width: 0.8"/>
      </g>
     </g>
     <g id="text_3">
      <!-- 200 -->
      <g transform="translate(350.978876 133.602275) scale(0.1 -0.1)">
       <defs>
        <path id="DejaVuSans-32" d="M 1228 531 
L 3431 531 
L 3431 0 
L 469 0 
L 469 531 
Q 828 903 1448 1529 
Q 2069 2156 2228 2338 
Q 2531 2678 2651 2914 
Q 2772 3150 2772 3378 
Q 2772 3750 2511 3984 
Q 2250 4219 1831 4219 
Q 1534 4219 1204 4116 
Q 875 4013 500 3803 
L 500 4441 
Q 881 4594 1212 4672 
Q 1544 4750 1819 4750 
Q 2544 4750 2975 4387 
Q 3406 4025 3406 3419 
Q 3406 3131 3298 2873 
Q 3191 2616 2906 2266 
Q 2828 2175 2409 1742 
Q 1991 1309 1228 531 
z
" transform="scale(0.015625)"/>
       </defs>
       <use xlink:href="#DejaVuSans-32"/>
       <use xlink:href="#DejaVuSans-30" transform="translate(63.623047 0)"/>
       <use xlink:href="#DejaVuSans-30" transform="translate(127.246094 0)"/>
      </g>
     </g>
    </g>
    <g id="xtick_4">
     <g id="line2d_4">
      <g>
       <use xlink:href="#mde725122a5" x="491.559351" y="119.003837" style="stroke: #000000; stroke-width: 0.8"/>
      </g>
     </g>
     <g id="text_4">
      <!-- 300 -->
      <g transform="translate(482.015601 133.602275) scale(0.1 -0.1)">
       <defs>
        <path id="DejaVuSans-33" d="M 2597 2516 
Q 3050 2419 3304 2112 
Q 3559 1806 3559 1356 
Q 3559 666 3084 287 
Q 2609 -91 1734 -91 
Q 1441 -91 1130 -33 
Q 819 25 488 141 
L 488 750 
Q 750 597 1062 519 
Q 1375 441 1716 441 
Q 2309 441 2620 675 
Q 2931 909 2931 1356 
Q 2931 1769 2642 2001 
Q 2353 2234 1838 2234 
L 1294 2234 
L 1294 2753 
L 1863 2753 
Q 2328 2753 2575 2939 
Q 2822 3125 2822 3475 
Q 2822 3834 2567 4026 
Q 2313 4219 1838 4219 
Q 1578 4219 1281 4162 
Q 984 4106 628 3988 
L 628 4550 
Q 988 4650 1302 4700 
Q 1616 4750 1894 4750 
Q 2613 4750 3031 4423 
Q 3450 4097 3450 3541 
Q 3450 3153 3228 2886 
Q 3006 2619 2597 2516 
z
" transform="scale(0.015625)"/>
       </defs>
       <use xlink:href="#DejaVuSans-33"/>
       <use xlink:href="#DejaVuSans-30" transform="translate(63.623047 0)"/>
       <use xlink:href="#DejaVuSans-30" transform="translate(127.246094 0)"/>
      </g>
     </g>
    </g>
    <g id="xtick_5">
     <g id="line2d_5">
      <g>
       <use xlink:href="#mde725122a5" x="622.596076" y="119.003837" style="stroke: #000000; stroke-width: 0.8"/>
      </g>
     </g>
     <g id="text_5">
      <!-- 400 -->
      <g transform="translate(613.052326 133.602275) scale(0.1 -0.1)">
       <defs>
        <path id="DejaVuSans-34" d="M 2419 4116 
L 825 1625 
L 2419 1625 
L 2419 4116 
z
M 2253 4666 
L 3047 4666 
L 3047 1625 
L 3713 1625 
L 3713 1100 
L 3047 1100 
L 3047 0 
L 2419 0 
L 2419 1100 
L 313 1100 
L 313 1709 
L 2253 4666 
z
" transform="scale(0.015625)"/>
       </defs>
       <use xlink:href="#DejaVuSans-34"/>
       <use xlink:href="#DejaVuSans-30" transform="translate(63.623047 0)"/>
       <use xlink:href="#DejaVuSans-30" transform="translate(127.246094 0)"/>
      </g>
     </g>
    </g>
    <g id="xtick_6">
     <g id="line2d_6">
      <g>
       <use xlink:href="#mde725122a5" x="753.6328" y="119.003837" style="stroke: #000000; stroke-width: 0.8"/>
      </g>
     </g>
     <g id="text_6">
      <!-- 500 -->
      <g transform="translate(744.08905 133.602275) scale(0.1 -0.1)">
       <defs>
        <path id="DejaVuSans-35" d="M 691 4666 
L 3169 4666 
L 3169 4134 
L 1269 4134 
L 1269 2991 
Q 1406 3038 1543 3061 
Q 1681 3084 1819 3084 
Q 2600 3084 3056 2656 
Q 3513 2228 3513 1497 
Q 3513 744 3044 326 
Q 2575 -91 1722 -91 
Q 1428 -91 1123 -41 
Q 819 9 494 109 
L 494 744 
Q 775 591 1075 516 
Q 1375 441 1709 441 
Q 2250 441 2565 725 
Q 2881 1009 2881 1497 
Q 2881 1984 2565 2268 
Q 2250 2553 1709 2553 
Q 1456 2553 1204 2497 
Q 953 2441 691 2322 
L 691 4666 
z
" transform="scale(0.015625)"/>
       </defs>
       <use xlink:href="#DejaVuSans-35"/>
       <use xlink:href="#DejaVuSans-30" transform="translate(63.623047 0)"/>
       <use xlink:href="#DejaVuSans-30" transform="translate(127.246094 0)"/>
      </g>
     </g>
    </g>
    <g id="xtick_7">
     <g id="line2d_7">
      <g>
       <use xlink:href="#mde725122a5" x="884.669525" y="119.003837" style="stroke: #000000; stroke-width: 0.8"/>
      </g>
     </g>
     <g id="text_7">
      <!-- 600 -->
      <g transform="translate(875.125775 133.602275) scale(0.1 -0.1)">
       <defs>
        <path id="DejaVuSans-36" d="M 2113 2584 
Q 1688 2584 1439 2293 
Q 1191 2003 1191 1497 
Q 1191 994 1439 701 
Q 1688 409 2113 409 
Q 2538 409 2786 701 
Q 3034 994 3034 1497 
Q 3034 2003 2786 2293 
Q 2538 2584 2113 2584 
z
M 3366 4563 
L 3366 3988 
Q 3128 4100 2886 4159 
Q 2644 4219 2406 4219 
Q 1781 4219 1451 3797 
Q 1122 3375 1075 2522 
Q 1259 2794 1537 2939 
Q 1816 3084 2150 3084 
Q 2853 3084 3261 2657 
Q 3669 2231 3669 1497 
Q 3669 778 3244 343 
Q 2819 -91 2113 -91 
Q 1303 -91 875 529 
Q 447 1150 447 2328 
Q 447 3434 972 4092 
Q 1497 4750 2381 4750 
Q 2619 4750 2861 4703 
Q 3103 4656 3366 4563 
z
" transform="scale(0.015625)"/>
       </defs>
       <use xlink:href="#DejaVuSans-36"/>
       <use xlink:href="#DejaVuSans-30" transform="translate(63.623047 0)"/>
       <use xlink:href="#DejaVuSans-30" transform="translate(127.246094 0)"/>
      </g>
     </g>
    </g>
    <g id="xtick_8">
     <g id="line2d_8">
      <g>
       <use xlink:href="#mde725122a5" x="1015.70625" y="119.003837" style="stroke: #000000; stroke-width: 0.8"/>
      </g>
     </g>
     <g id="text_8">
      <!-- 700 -->
      <g transform="translate(1006.1625 133.602275) scale(0.1 -0.1)">
       <defs>
        <path id="DejaVuSans-37" d="M 525 4666 
L 3525 4666 
L 3525 4397 
L 1831 0 
L 1172 0 
L 2766 4134 
L 525 4134 
L 525 4666 
z
" transform="scale(0.015625)"/>
       </defs>
       <use xlink:href="#DejaVuSans-37"/>
       <use xlink:href="#DejaVuSans-30" transform="translate(63.623047 0)"/>
       <use xlink:href="#DejaVuSans-30" transform="translate(127.246094 0)"/>
      </g>
     </g>
    </g>
   </g>
   <g id="matplotlib.axis_2">
    <g id="ytick_1">
     <g id="line2d_9">
      <defs>
       <path id="m247894b110" d="M 0 0 
L -3.5 0 
" style="stroke: #000000; stroke-width: 0.8"/>
      </defs>
      <g>
       <use xlink:href="#m247894b110" x="48.982813" y="79.381556" style="stroke: #000000; stroke-width: 0.8"/>
      </g>
     </g>
     <g id="text_9">
      <!-- 60 -->
      <g transform="translate(29.257813 83.180774) scale(0.1 -0.1)">
       <use xlink:href="#DejaVuSans-36"/>
       <use xlink:href="#DejaVuSans-30" transform="translate(63.623047 0)"/>
      </g>
     </g>
    </g>
    <g id="ytick_2">
     <g id="line2d_10">
      <g>
       <use xlink:href="#m247894b110" x="48.982813" y="37.946768" style="stroke: #000000; stroke-width: 0.8"/>
      </g>
     </g>
     <g id="text_10">
      <!-- 70 -->
      <g transform="translate(29.257813 41.745987) scale(0.1 -0.1)">
       <use xlink:href="#DejaVuSans-37"/>
       <use xlink:href="#DejaVuSans-30" transform="translate(63.623047 0)"/>
      </g>
     </g>
    </g>
    <g id="text_11">
     <!-- Original Data -->
     <g transform="translate(23.178125 96.194887) rotate(-90) scale(0.1 -0.1)">
      <defs>
       <path id="DejaVuSans-4f" d="M 2522 4238 
Q 1834 4238 1429 3725 
Q 1025 3213 1025 2328 
Q 1025 1447 1429 934 
Q 1834 422 2522 422 
Q 3209 422 3611 934 
Q 4013 1447 4013 2328 
Q 4013 3213 3611 3725 
Q 3209 4238 2522 4238 
z
M 2522 4750 
Q 3503 4750 4090 4092 
Q 4678 3434 4678 2328 
Q 4678 1225 4090 567 
Q 3503 -91 2522 -91 
Q 1538 -91 948 565 
Q 359 1222 359 2328 
Q 359 3434 948 4092 
Q 1538 4750 2522 4750 
z
" transform="scale(0.015625)"/>
       <path id="DejaVuSans-72" d="M 2631 2963 
Q 2534 3019 2420 3045 
Q 2306 3072 2169 3072 
Q 1681 3072 1420 2755 
Q 1159 2438 1159 1844 
L 1159 0 
L 581 0 
L 581 3500 
L 1159 3500 
L 1159 2956 
Q 1341 3275 1631 3429 
Q 1922 3584 2338 3584 
Q 2397 3584 2469 3576 
Q 2541 3569 2628 3553 
L 2631 2963 
z
" transform="scale(0.015625)"/>
       <path id="DejaVuSans-69" d="M 603 3500 
L 1178 3500 
L 1178 0 
L 603 0 
L 603 3500 
z
M 603 4863 
L 1178 4863 
L 1178 4134 
L 603 4134 
L 603 4863 
z
" transform="scale(0.015625)"/>
       <path id="DejaVuSans-67" d="M 2906 1791 
Q 2906 2416 2648 2759 
Q 2391 3103 1925 3103 
Q 1463 3103 1205 2759 
Q 947 2416 947 1791 
Q 947 1169 1205 825 
Q 1463 481 1925 481 
Q 2391 481 2648 825 
Q 2906 1169 2906 1791 
z
M 3481 434 
Q 3481 -459 3084 -895 
Q 2688 -1331 1869 -1331 
Q 1566 -1331 1297 -1286 
Q 1028 -1241 775 -1147 
L 775 -588 
Q 1028 -725 1275 -790 
Q 1522 -856 1778 -856 
Q 2344 -856 2625 -561 
Q 2906 -266 2906 331 
L 2906 616 
Q 2728 306 2450 153 
Q 2172 0 1784 0 
Q 1141 0 747 490 
Q 353 981 353 1791 
Q 353 2603 747 3093 
Q 1141 3584 1784 3584 
Q 2172 3584 2450 3431 
Q 2728 3278 2906 2969 
L 2906 3500 
L 3481 3500 
L 3481 434 
z
" transform="scale(0.015625)"/>
       <path id="DejaVuSans-6e" d="M 3513 2113 
L 3513 0 
L 2938 0 
L 2938 2094 
Q 2938 2591 2744 2837 
Q 2550 3084 2163 3084 
Q 1697 3084 1428 2787 
Q 1159 2491 1159 1978 
L 1159 0 
L 581 0 
L 581 3500 
L 1159 3500 
L 1159 2956 
Q 1366 3272 1645 3428 
Q 1925 3584 2291 3584 
Q 2894 3584 3203 3211 
Q 3513 2838 3513 2113 
z
" transform="scale(0.015625)"/>
       <path id="DejaVuSans-61" d="M 2194 1759 
Q 1497 1759 1228 1600 
Q 959 1441 959 1056 
Q 959 750 1161 570 
Q 1363 391 1709 391 
Q 2188 391 2477 730 
Q 2766 1069 2766 1631 
L 2766 1759 
L 2194 1759 
z
M 3341 1997 
L 3341 0 
L 2766 0 
L 2766 531 
Q 2569 213 2275 61 
Q 1981 -91 1556 -91 
Q 1019 -91 701 211 
Q 384 513 384 1019 
Q 384 1609 779 1909 
Q 1175 2209 1959 2209 
L 2766 2209 
L 2766 2266 
Q 2766 2663 2505 2880 
Q 2244 3097 1772 3097 
Q 1472 3097 1187 3025 
Q 903 2953 641 2809 
L 641 3341 
Q 956 3463 1253 3523 
Q 1550 3584 1831 3584 
Q 2591 3584 2966 3190 
Q 3341 2797 3341 1997 
z
" transform="scale(0.015625)"/>
       <path id="DejaVuSans-6c" d="M 603 4863 
L 1178 4863 
L 1178 0 
L 603 0 
L 603 4863 
z
" transform="scale(0.015625)"/>
       <path id="DejaVuSans-20" transform="scale(0.015625)"/>
       <path id="DejaVuSans-44" d="M 1259 4147 
L 1259 519 
L 2022 519 
Q 2988 519 3436 956 
Q 3884 1394 3884 2338 
Q 3884 3275 3436 3711 
Q 2988 4147 2022 4147 
L 1259 4147 
z
M 628 4666 
L 1925 4666 
Q 3281 4666 3915 4102 
Q 4550 3538 4550 2338 
Q 4550 1131 3912 565 
Q 3275 0 1925 0 
L 628 0 
L 628 4666 
z
" transform="scale(0.015625)"/>
       <path id="DejaVuSans-74" d="M 1172 4494 
L 1172 3500 
L 2356 3500 
L 2356 3053 
L 1172 3053 
L 1172 1153 
Q 1172 725 1289 603 
Q 1406 481 1766 481 
L 2356 481 
L 2356 0 
L 1766 0 
Q 1100 0 847 248 
Q 594 497 594 1153 
L 594 3053 
L 172 3053 
L 172 3500 
L 594 3500 
L 594 4494 
L 1172 4494 
z
" transform="scale(0.015625)"/>
      </defs>
      <use xlink:href="#DejaVuSans-4f"/>
      <use xlink:href="#DejaVuSans-72" transform="translate(78.710938 0)"/>
      <use xlink:href="#DejaVuSans-69" transform="translate(119.824219 0)"/>
      <use xlink:href="#DejaVuSans-67" transform="translate(147.607422 0)"/>
      <use xlink:href="#DejaVuSans-69" transform="translate(211.083984 0)"/>
      <use xlink:href="#DejaVuSans-6e" transform="translate(238.867188 0)"/>
      <use xlink:href="#DejaVuSans-61" transform="translate(302.246094 0)"/>
      <use xlink:href="#DejaVuSans-6c" transform="translate(363.525391 0)"/>
      <use xlink:href="#DejaVuSans-20" transform="translate(391.308594 0)"/>
      <use xlink:href="#DejaVuSans-44" transform="translate(423.095703 0)"/>
      <use xlink:href="#DejaVuSans-61" transform="translate(500.097656 0)"/>
      <use xlink:href="#DejaVuSans-74" transform="translate(561.376953 0)"/>
      <use xlink:href="#DejaVuSans-61" transform="translate(600.585938 0)"/>
     </g>
    </g>
   </g>
   <g id="line2d_11">
    <path d="M 98.449176 55.507636 
L 99.759543 56.502623 
L 101.069911 57.067364 
L 102.380278 57.402578 
L 103.690645 57.523481 
L 105.001012 57.234565 
L 106.31138 57.121564 
L 107.621747 57.146161 
L 108.932114 56.499981 
L 111.552849 53.897516 
L 112.863216 52.35177 
L 114.173583 51.362109 
L 116.794318 50.814381 
L 120.725419 50.700525 
L 122.035787 49.224191 
L 123.346154 46.105723 
L 124.656521 44.585358 
L 125.966888 44.4831 
L 127.277256 44.948691 
L 128.587623 46.702122 
L 129.89799 47.454211 
L 131.208357 47.138198 
L 132.518725 47.42089 
L 133.829092 47.826244 
L 135.139459 46.945772 
L 136.449826 44.842736 
L 137.760194 42.018342 
L 139.070561 38.644274 
L 140.380928 36.124299 
L 141.691295 35.004923 
L 144.31203 33.015315 
L 145.622397 35.429798 
L 146.932764 41.006879 
L 148.243132 48.088801 
L 149.553499 57.124996 
L 150.863866 58.671069 
L 153.484601 43.949319 
L 154.794968 41.156914 
L 156.105335 42.982051 
L 158.72607 55.168162 
L 160.036437 60.583877 
L 161.346804 73.578725 
L 162.657171 79.749061 
L 163.967539 84.094241 
L 165.277906 82.234717 
L 166.588273 78.426806 
L 167.89864 71.351745 
L 170.519375 101.278524 
L 171.829742 109.65016 
L 173.140109 105.155828 
L 174.450477 101.915728 
L 175.760844 95.032561 
L 177.071211 89.479888 
L 178.381578 86.636102 
L 179.691946 94.192246 
L 181.002313 91.875959 
L 182.31268 90.983395 
L 183.623047 83.338132 
L 184.933415 78.537979 
L 186.243782 75.146275 
L 187.554149 69.743511 
L 188.864516 63.476664 
L 190.174884 59.277288 
L 191.485251 57.075228 
L 192.795618 56.672096 
L 194.105985 58.883211 
L 195.416353 61.44344 
L 196.72672 64.517805 
L 198.037087 66.588947 
L 199.347454 66.9964 
L 200.657822 66.59678 
L 201.968189 64.683189 
L 203.278556 63.839566 
L 204.588923 64.138812 
L 205.899291 65.259483 
L 207.209658 67.902954 
L 208.520025 69.59092 
L 209.830392 70.381414 
L 211.14076 70.212304 
L 212.451127 68.446808 
L 213.761494 67.426622 
L 215.071861 67.014832 
L 217.692596 64.967284 
L 219.002963 64.416482 
L 220.31333 64.380127 
L 222.934065 64.068774 
L 224.244432 63.467261 
L 225.554799 62.263597 
L 226.865167 60.495183 
L 228.175534 57.956695 
L 229.485901 54.944464 
L 232.106635 48.103641 
L 234.72737 42.395305 
L 236.037737 39.818513 
L 237.348104 39.351766 
L 238.658472 41.225513 
L 239.968839 41.554852 
L 241.279206 40.599418 
L 242.589573 40.313934 
L 243.899941 40.465504 
L 246.520675 44.508689 
L 247.831042 44.299757 
L 249.14141 41.436733 
L 250.451777 41.426546 
L 251.762144 43.87131 
L 255.693246 49.53795 
L 257.003613 51.046627 
L 258.31398 52.081029 
L 260.934715 53.635868 
L 262.245082 54.575607 
L 263.555449 57.614356 
L 264.865817 62.936604 
L 266.176184 76.93782 
L 267.486551 80.124499 
L 268.796918 85.027257 
L 270.107286 83.622021 
L 271.417653 81.958302 
L 272.72802 78.807389 
L 275.348755 71.036293 
L 276.659122 68.144016 
L 277.969489 66.924296 
L 280.590224 63.401798 
L 281.900591 61.387545 
L 283.210958 58.810041 
L 284.521325 56.803753 
L 285.831693 55.265389 
L 287.14206 54.221304 
L 288.452427 53.918482 
L 289.762794 54.134372 
L 291.073162 54.989031 
L 292.383529 56.168137 
L 293.693896 57.654464 
L 295.004263 58.507755 
L 296.314631 58.538685 
L 297.624998 58.998543 
L 298.935365 59.64339 
L 300.245732 59.948251 
L 301.5561 60.062536 
L 302.866467 60.630457 
L 306.797569 63.579062 
L 308.107936 63.671592 
L 309.418303 62.69096 
L 310.72867 62.54575 
L 315.970139 64.553654 
L 317.280507 64.513835 
L 318.590874 64.059721 
L 319.901241 62.985883 
L 321.211608 61.612591 
L 322.521976 59.848958 
L 323.832343 58.724304 
L 325.14271 58.373318 
L 326.453077 57.5995 
L 327.763445 56.641297 
L 329.073812 55.012088 
L 330.384179 52.468075 
L 331.694546 51.685409 
L 333.004914 52.67769 
L 334.315281 55.047717 
L 335.625648 59.453454 
L 336.936015 62.934476 
L 338.246383 65.450385 
L 339.55675 66.725125 
L 340.867117 65.906153 
L 342.177484 64.404193 
L 343.487852 61.802622 
L 344.798219 60.086474 
L 346.108586 59.579278 
L 347.418953 57.988189 
L 350.039688 53.627678 
L 351.350055 51.183646 
L 352.660422 49.45279 
L 353.97079 48.566793 
L 355.281157 48.302375 
L 356.591524 48.972184 
L 357.901891 49.894423 
L 359.212259 51.1206 
L 360.522626 51.99465 
L 363.14336 52.539386 
L 364.453728 52.455401 
L 365.764095 52.193689 
L 367.074462 51.75474 
L 368.384829 51.663763 
L 369.695197 52.003946 
L 372.315931 52.232269 
L 373.626298 51.378769 
L 377.5574 45.639017 
L 378.867767 43.825902 
L 380.178135 42.362888 
L 381.488502 40.412113 
L 382.798869 38.068214 
L 384.109236 36.526094 
L 385.419604 35.736238 
L 386.729971 35.732963 
L 388.040338 36.830286 
L 389.350705 39.405166 
L 393.281807 52.190052 
L 394.592174 55.800211 
L 395.902542 58.235328 
L 397.212909 58.696589 
L 398.523276 56.582061 
L 399.833643 55.257494 
L 401.144011 54.470089 
L 402.454378 54.754504 
L 403.764745 56.93879 
L 405.075112 60.277842 
L 406.38548 65.023851 
L 407.695847 68.482764 
L 409.006214 70.350026 
L 410.316581 71.345665 
L 411.626949 71.075225 
L 412.937316 70.023131 
L 414.247683 68.429029 
L 415.55805 67.512512 
L 416.868418 67.654169 
L 418.178785 68.384511 
L 419.489152 69.957586 
L 420.799519 71.075423 
L 422.109887 71.636113 
L 423.420254 72.042382 
L 427.351356 71.595505 
L 428.661723 71.749478 
L 429.97209 72.376596 
L 432.592825 73.211725 
L 433.903192 73.997762 
L 437.834294 77.442511 
L 441.765395 81.375147 
L 443.075763 82.335821 
L 444.38613 82.986406 
L 445.696497 83.219192 
L 447.006864 81.686249 
L 448.317232 78.381469 
L 449.627599 76.558405 
L 450.937966 76.164984 
L 452.248333 76.294829 
L 453.558701 76.830053 
L 454.869068 76.986771 
L 456.179435 76.360275 
L 460.110537 75.482588 
L 464.041639 75.925332 
L 465.352006 76.745682 
L 466.662373 78.232389 
L 467.97274 79.279428 
L 470.593475 80.520654 
L 471.903842 80.734292 
L 473.214209 81.133012 
L 474.524576 81.710294 
L 475.834944 82.640743 
L 478.455678 85.361135 
L 479.766045 86.557193 
L 481.076413 87.480183 
L 482.38678 87.971114 
L 483.697147 87.962783 
L 485.007514 87.315744 
L 486.317882 84.796547 
L 487.628249 80.173288 
L 488.938616 76.640383 
L 490.248983 74.041688 
L 491.559351 72.12231 
L 492.869718 71.653076 
L 494.180085 71.538825 
L 495.490452 72.027717 
L 496.80082 72.262579 
L 498.111187 72.024722 
L 500.731921 72.003344 
L 502.042289 70.85298 
L 503.352656 68.50035 
L 504.663023 66.791979 
L 505.97339 65.536717 
L 507.283758 64.757528 
L 508.594125 64.857186 
L 509.904492 64.526971 
L 511.214859 63.862956 
L 513.835594 62.832794 
L 515.145961 62.615716 
L 516.456328 62.778595 
L 517.766696 62.526228 
L 519.077063 61.914181 
L 520.38743 60.514721 
L 521.697797 58.100763 
L 523.008165 56.207753 
L 524.318532 54.746698 
L 525.628899 52.710918 
L 526.939266 50.366645 
L 528.249634 49.966605 
L 529.560001 51.60781 
L 532.180735 53.996702 
L 533.491103 55.051218 
L 534.80147 55.511503 
L 536.111837 55.208382 
L 537.422204 53.846937 
L 538.732572 53.021392 
L 540.042939 52.658903 
L 541.353306 52.688536 
L 545.284408 55.038395 
L 546.594775 55.707351 
L 547.905142 56.074575 
L 549.21551 56.675177 
L 550.525877 57.421536 
L 551.836244 57.604814 
L 553.146611 57.248174 
L 554.456979 57.409838 
L 555.767346 58.008913 
L 557.077713 58.961757 
L 558.38808 60.51177 
L 559.698448 61.748485 
L 562.319182 63.53914 
L 563.629549 64.083242 
L 564.939917 63.663491 
L 566.250284 62.150211 
L 567.560651 61.049503 
L 568.871018 60.247729 
L 570.181386 59.847305 
L 571.491753 60.210811 
L 572.80212 59.214343 
L 574.112487 56.8696 
L 575.422855 55.505751 
L 576.733222 54.789634 
L 578.043589 55.705638 
L 579.353956 58.817176 
L 580.664324 61.059228 
L 581.974691 62.698666 
L 583.285058 64.141625 
L 584.595425 64.747573 
L 589.836894 67.690633 
L 591.147262 67.980967 
L 592.457629 67.776737 
L 593.767996 67.353954 
L 595.078363 66.580801 
L 597.699098 64.653797 
L 599.009465 64.159656 
L 600.319832 64.323911 
L 602.940567 64.16338 
L 604.250934 63.324132 
L 605.561301 61.536698 
L 606.871669 61.079486 
L 609.492403 62.75082 
L 610.80277 64.156427 
L 612.113138 64.538686 
L 614.733872 62.87312 
L 616.044239 61.749182 
L 617.354607 61.758189 
L 618.664974 63.180564 
L 619.975341 63.646328 
L 622.596076 63.371282 
L 623.906443 62.968814 
L 625.21681 62.229727 
L 627.837545 59.997132 
L 631.768646 56.487417 
L 635.699748 53.117547 
L 638.320483 51.407208 
L 639.63085 50.705199 
L 640.941217 50.92431 
L 642.251584 52.151654 
L 643.561952 52.954749 
L 644.872319 53.463886 
L 646.182686 53.720891 
L 647.493053 53.406143 
L 650.113788 53.045566 
L 651.424155 53.006078 
L 655.355257 53.724778 
L 656.665624 54.366525 
L 657.975991 55.362226 
L 659.286359 57.054563 
L 660.596726 59.56113 
L 661.907093 61.785918 
L 663.21746 63.779108 
L 664.527828 64.78043 
L 665.838195 64.437968 
L 668.458929 64.5542 
L 669.769297 64.809669 
L 672.390031 66.168545 
L 675.010766 67.621347 
L 676.321133 68.438717 
L 677.6315 69.100159 
L 678.941867 69.574888 
L 680.252235 69.501355 
L 681.562602 68.766364 
L 682.872969 68.910149 
L 684.183336 69.923667 
L 685.493704 70.432672 
L 686.804071 70.72543 
L 688.114438 70.659732 
L 689.424805 69.999134 
L 690.735173 68.024262 
L 692.04554 64.499555 
L 693.355907 61.610418 
L 694.666274 59.234619 
L 695.976642 57.488548 
L 697.287009 56.917155 
L 698.597376 56.695749 
L 699.907743 57.077299 
L 701.218111 57.815025 
L 702.528478 58.820268 
L 703.838845 59.350464 
L 705.149212 59.21388 
L 706.45958 59.68418 
L 707.769947 60.570711 
L 711.701049 62.437524 
L 713.011416 62.923725 
L 714.321783 62.954736 
L 715.63215 62.438328 
L 718.252885 61.82541 
L 719.563252 61.743113 
L 720.873619 62.001714 
L 722.183986 62.724784 
L 724.804721 65.446492 
L 727.425455 68.47032 
L 731.356557 72.29803 
L 732.666924 72.209262 
L 733.977292 70.712669 
L 735.287659 68.386242 
L 736.598026 64.905383 
L 737.908393 61.81423 
L 739.218761 59.243518 
L 740.529128 57.245096 
L 741.839495 56.317428 
L 743.149862 54.78393 
L 744.46023 52.776888 
L 745.770597 51.997269 
L 747.080964 52.243391 
L 751.012066 52.481094 
L 752.322433 52.248528 
L 753.6328 51.827445 
L 756.253535 50.248021 
L 758.874269 48.519884 
L 761.495004 47.352506 
L 762.805371 46.9907 
L 764.115738 46.304742 
L 765.426106 45.270759 
L 766.736473 44.567815 
L 768.04684 44.115473 
L 769.357207 44.216417 
L 770.667575 45.045379 
L 771.977942 45.547564 
L 775.909044 46.215087 
L 777.219411 46.972645 
L 778.529778 48.411939 
L 779.840145 49.515282 
L 781.150513 50.421042 
L 782.46088 50.047727 
L 785.081614 46.115162 
L 786.391982 43.842312 
L 787.702349 42.114399 
L 789.012716 41.275287 
L 790.323083 40.8246 
L 791.633451 41.132195 
L 792.943818 41.616292 
L 794.254185 42.300401 
L 795.564552 43.569025 
L 796.87492 45.328835 
L 798.185287 46.333143 
L 799.495654 46.509422 
L 802.116389 47.378549 
L 807.357858 48.364135 
L 808.668225 48.039254 
L 809.978592 47.090955 
L 811.288959 45.671954 
L 812.599327 43.605545 
L 813.909694 40.803777 
L 815.220061 37.198251 
L 816.530428 34.295464 
L 817.840796 32.178652 
L 819.151163 31.493426 
L 820.46153 32.773493 
L 823.082265 34.782856 
L 824.392632 35.119871 
L 825.702999 34.272485 
L 827.013366 33.910179 
L 828.323734 33.735957 
L 829.634101 33.727519 
L 830.944468 34.157874 
L 832.254835 33.69885 
L 833.565203 32.34952 
L 834.87557 30.420914 
L 836.185937 27.584211 
L 837.496304 25.401404 
L 840.117039 22.465186 
L 841.427406 21.382356 
L 842.737773 20.05623 
L 846.668875 15.390478 
L 847.979242 14.17156 
L 849.28961 13.34328 
L 850.599977 12.684724 
L 851.910344 12.305444 
L 853.220711 12.281993 
L 854.531079 12.625709 
L 855.841446 13.342973 
L 857.151813 14.467541 
L 858.46218 16.172131 
L 861.082915 20.93658 
L 863.703649 26.012979 
L 865.014017 28.283075 
L 866.324384 30.111221 
L 867.634751 31.330327 
L 868.945118 32.056088 
L 870.255486 32.138351 
L 871.565853 31.893119 
L 876.807322 29.457379 
L 878.117689 29.217329 
L 879.428056 28.644818 
L 880.738424 27.793863 
L 882.048791 27.708861 
L 884.669525 29.134278 
L 885.979893 30.236237 
L 887.29026 29.436397 
L 888.600627 26.451744 
L 889.910994 24.933563 
L 891.221362 24.479214 
L 892.531729 24.25897 
L 893.842096 24.969814 
L 897.773198 26.693232 
L 899.083565 27.428739 
L 900.393932 29.067742 
L 901.7043 31.679893 
L 903.014667 35.779069 
L 904.325034 41.692371 
L 905.635401 46.596566 
L 908.256136 54.512338 
L 909.566503 57.878961 
L 910.87687 59.424703 
L 912.187238 58.938602 
L 913.497605 56.7046 
L 914.807972 52.261974 
L 916.118339 48.778183 
L 918.739074 43.959851 
L 920.049441 42.326277 
L 921.359808 40.438489 
L 922.670176 38.350704 
L 923.980543 37.482757 
L 925.29091 37.755722 
L 926.601277 38.396084 
L 929.222012 40.842617 
L 933.153114 43.953487 
L 934.463481 44.404806 
L 935.773848 44.265775 
L 937.084215 45.414802 
L 938.394583 47.887808 
L 939.70495 49.208179 
L 941.015317 49.663801 
L 942.325684 48.343025 
L 943.636052 44.627288 
L 948.877521 31.99374 
L 950.187888 30.032791 
L 951.498255 29.469331 
L 954.11899 28.060335 
L 955.429357 28.387989 
L 956.739724 29.518883 
L 958.050091 29.525632 
L 959.360458 28.369988 
L 960.670826 26.998407 
L 961.981193 24.936788 
L 963.29156 23.359315 
L 964.601927 22.380395 
L 967.222662 20.154821 
L 968.533029 20.034696 
L 969.843396 20.891817 
L 971.153764 21.944421 
L 973.774498 24.796137 
L 977.7056 28.439908 
L 979.015967 28.7949 
L 980.326334 28.255672 
L 981.636702 27.420159 
L 982.947069 26.096436 
L 984.257436 25.087772 
L 985.567803 24.529828 
L 986.878171 24.457388 
L 988.188538 25.168081 
L 989.498905 26.304177 
L 992.11964 29.813944 
L 993.430007 31.650425 
L 994.740374 34.013735 
L 997.361109 39.756992 
L 999.981843 46.345647 
L 1002.602578 53.776959 
L 1003.912945 57.945447 
L 1005.223312 62.527483 
L 1006.533679 67.566734 
L 1007.844047 72.044867 
L 1010.464781 79.69397 
L 1011.775148 83.127085 
L 1013.085516 87.273804 
L 1014.395883 92.24005 
L 1015.70625 95.041397 
L 1017.016617 95.722921 
L 1018.326985 92.63393 
L 1019.637352 88.267286 
L 1020.947719 87.361442 
L 1022.258086 90.7039 
L 1023.568454 91.200906 
L 1024.878821 90.016351 
L 1026.189188 88.39876 
L 1027.499555 86.210547 
L 1030.12029 80.32903 
L 1032.741024 74.31557 
L 1034.051392 73.301786 
L 1035.361759 74.564556 
L 1036.672126 77.799368 
L 1037.982493 83.14132 
L 1039.292861 89.173908 
L 1040.603228 95.760191 
L 1041.913595 100.505944 
L 1043.223962 102.695173 
L 1044.53433 105.399732 
L 1045.844697 107.849014 
L 1048.465431 112.365284 
L 1049.775799 113.253978 
L 1051.086166 112.731656 
L 1052.396533 111.61877 
L 1053.7069 109.59154 
L 1055.017268 107.928555 
L 1056.327635 106.808221 
L 1057.638002 106.376778 
L 1058.948369 107.095071 
L 1060.258737 106.964474 
L 1061.569104 106.09177 
L 1062.879471 106.469213 
L 1064.189838 107.841469 
L 1065.500206 109.969348 
L 1066.810573 113.246942 
L 1068.12094 113.921845 
L 1069.431307 111.753721 
L 1070.741675 109.938088 
L 1072.052042 107.631488 
L 1073.362409 106.532972 
L 1074.672776 107.222412 
L 1075.983144 107.595754 
L 1078.603878 108.714388 
L 1079.914245 108.839267 
L 1081.224613 107.553216 
L 1082.53498 104.51964 
L 1083.845347 102.343783 
L 1085.155714 100.800539 
L 1086.466082 100.186845 
L 1087.776449 101.108514 
L 1087.776449 101.108514 
" clip-path="url(#p66b8a6c12f)" style="fill: none; stroke: #0070c0; stroke-width: 1.5; stroke-linecap: square"/>
   </g>
   <g id="patch_3">
    <path d="M 48.982813 119.003837 
L 48.982813 7.2 
" style="fill: none; stroke: #000000; stroke-width: 0.8; stroke-linejoin: miter; stroke-linecap: square"/>
   </g>
   <g id="patch_4">
    <path d="M 1137.242813 119.003837 
L 1137.242813 7.2 
" style="fill: none; stroke: #000000; stroke-width: 0.8; stroke-linejoin: miter; stroke-linecap: square"/>
   </g>
   <g id="patch_5">
    <path d="M 48.982813 119.003837 
L 1137.242813 119.003837 
" style="fill: none; stroke: #000000; stroke-width: 0.8; stroke-linejoin: miter; stroke-linecap: square"/>
   </g>
   <g id="patch_6">
    <path d="M 48.982813 7.2 
L 1137.242813 7.2 
" style="fill: none; stroke: #000000; stroke-width: 0.8; stroke-linejoin: miter; stroke-linecap: square"/>
   </g>
  </g>
  <g id="axes_2">
   <g id="patch_7">
    <path d="M 48.982813 260.842558 
L 1137.242813 260.842558 
L 1137.242813 149.038721 
L 48.982813 149.038721 
z
" style="fill: #ffffff"/>
   </g>
   <g id="matplotlib.axis_3">
    <g id="xtick_9">
     <g id="line2d_12">
      <g>
       <use xlink:href="#mde725122a5" x="98.449176" y="260.842558" style="stroke: #000000; stroke-width: 0.8"/>
      </g>
     </g>
     <g id="text_12">
      <!-- 0 -->
      <g transform="translate(95.267926 275.440996) scale(0.1 -0.1)">
       <use xlink:href="#DejaVuSans-30"/>
      </g>
     </g>
    </g>
    <g id="xtick_10">
     <g id="line2d_13">
      <g>
       <use xlink:href="#mde725122a5" x="229.485901" y="260.842558" style="stroke: #000000; stroke-width: 0.8"/>
      </g>
     </g>
     <g id="text_13">
      <!-- 100 -->
      <g transform="translate(219.942151 275.440996) scale(0.1 -0.1)">
       <use xlink:href="#DejaVuSans-31"/>
       <use xlink:href="#DejaVuSans-30" transform="translate(63.623047 0)"/>
       <use xlink:href="#DejaVuSans-30" transform="translate(127.246094 0)"/>
      </g>
     </g>
    </g>
    <g id="xtick_11">
     <g id="line2d_14">
      <g>
       <use xlink:href="#mde725122a5" x="360.522626" y="260.842558" style="stroke: #000000; stroke-width: 0.8"/>
      </g>
     </g>
     <g id="text_14">
      <!-- 200 -->
      <g transform="translate(350.978876 275.440996) scale(0.1 -0.1)">
       <use xlink:href="#DejaVuSans-32"/>
       <use xlink:href="#DejaVuSans-30" transform="translate(63.623047 0)"/>
       <use xlink:href="#DejaVuSans-30" transform="translate(127.246094 0)"/>
      </g>
     </g>
    </g>
    <g id="xtick_12">
     <g id="line2d_15">
      <g>
       <use xlink:href="#mde725122a5" x="491.559351" y="260.842558" style="stroke: #000000; stroke-width: 0.8"/>
      </g>
     </g>
     <g id="text_15">
      <!-- 300 -->
      <g transform="translate(482.015601 275.440996) scale(0.1 -0.1)">
       <use xlink:href="#DejaVuSans-33"/>
       <use xlink:href="#DejaVuSans-30" transform="translate(63.623047 0)"/>
       <use xlink:href="#DejaVuSans-30" transform="translate(127.246094 0)"/>
      </g>
     </g>
    </g>
    <g id="xtick_13">
     <g id="line2d_16">
      <g>
       <use xlink:href="#mde725122a5" x="622.596076" y="260.842558" style="stroke: #000000; stroke-width: 0.8"/>
      </g>
     </g>
     <g id="text_16">
      <!-- 400 -->
      <g transform="translate(613.052326 275.440996) scale(0.1 -0.1)">
       <use xlink:href="#DejaVuSans-34"/>
       <use xlink:href="#DejaVuSans-30" transform="translate(63.623047 0)"/>
       <use xlink:href="#DejaVuSans-30" transform="translate(127.246094 0)"/>
      </g>
     </g>
    </g>
    <g id="xtick_14">
     <g id="line2d_17">
      <g>
       <use xlink:href="#mde725122a5" x="753.6328" y="260.842558" style="stroke: #000000; stroke-width: 0.8"/>
      </g>
     </g>
     <g id="text_17">
      <!-- 500 -->
      <g transform="translate(744.08905 275.440996) scale(0.1 -0.1)">
       <use xlink:href="#DejaVuSans-35"/>
       <use xlink:href="#DejaVuSans-30" transform="translate(63.623047 0)"/>
       <use xlink:href="#DejaVuSans-30" transform="translate(127.246094 0)"/>
      </g>
     </g>
    </g>
    <g id="xtick_15">
     <g id="line2d_18">
      <g>
       <use xlink:href="#mde725122a5" x="884.669525" y="260.842558" style="stroke: #000000; stroke-width: 0.8"/>
      </g>
     </g>
     <g id="text_18">
      <!-- 600 -->
      <g transform="translate(875.125775 275.440996) scale(0.1 -0.1)">
       <use xlink:href="#DejaVuSans-36"/>
       <use xlink:href="#DejaVuSans-30" transform="translate(63.623047 0)"/>
       <use xlink:href="#DejaVuSans-30" transform="translate(127.246094 0)"/>
      </g>
     </g>
    </g>
    <g id="xtick_16">
     <g id="line2d_19">
      <g>
       <use xlink:href="#mde725122a5" x="1015.70625" y="260.842558" style="stroke: #000000; stroke-width: 0.8"/>
      </g>
     </g>
     <g id="text_19">
      <!-- 700 -->
      <g transform="translate(1006.1625 275.440996) scale(0.1 -0.1)">
       <use xlink:href="#DejaVuSans-37"/>
       <use xlink:href="#DejaVuSans-30" transform="translate(63.623047 0)"/>
       <use xlink:href="#DejaVuSans-30" transform="translate(127.246094 0)"/>
      </g>
     </g>
    </g>
   </g>
   <g id="matplotlib.axis_4">
    <g id="ytick_3">
     <g id="line2d_20">
      <g>
       <use xlink:href="#m247894b110" x="48.982813" y="243.204879" style="stroke: #000000; stroke-width: 0.8"/>
      </g>
     </g>
     <g id="text_20">
      <!-- −5 -->
      <g transform="translate(27.240625 247.004097) scale(0.1 -0.1)">
       <defs>
        <path id="DejaVuSans-2212" d="M 678 2272 
L 4684 2272 
L 4684 1741 
L 678 1741 
L 678 2272 
z
" transform="scale(0.015625)"/>
       </defs>
       <use xlink:href="#DejaVuSans-2212"/>
       <use xlink:href="#DejaVuSans-35" transform="translate(83.789062 0)"/>
      </g>
     </g>
    </g>
    <g id="ytick_4">
     <g id="line2d_21">
      <g>
       <use xlink:href="#m247894b110" x="48.982813" y="200.262743" style="stroke: #000000; stroke-width: 0.8"/>
      </g>
     </g>
     <g id="text_21">
      <!-- 0 -->
      <g transform="translate(35.620313 204.061962) scale(0.1 -0.1)">
       <use xlink:href="#DejaVuSans-30"/>
      </g>
     </g>
    </g>
    <g id="ytick_5">
     <g id="line2d_22">
      <g>
       <use xlink:href="#m247894b110" x="48.982813" y="157.320608" style="stroke: #000000; stroke-width: 0.8"/>
      </g>
     </g>
     <g id="text_22">
      <!-- 5 -->
      <g transform="translate(35.620313 161.119827) scale(0.1 -0.1)">
       <use xlink:href="#DejaVuSans-35"/>
      </g>
     </g>
    </g>
    <g id="text_23">
     <!-- co-imf0 -->
     <g transform="translate(21.160938 223.847671) rotate(-90) scale(0.1 -0.1)">
      <defs>
       <path id="DejaVuSans-63" d="M 3122 3366 
L 3122 2828 
Q 2878 2963 2633 3030 
Q 2388 3097 2138 3097 
Q 1578 3097 1268 2742 
Q 959 2388 959 1747 
Q 959 1106 1268 751 
Q 1578 397 2138 397 
Q 2388 397 2633 464 
Q 2878 531 3122 666 
L 3122 134 
Q 2881 22 2623 -34 
Q 2366 -91 2075 -91 
Q 1284 -91 818 406 
Q 353 903 353 1747 
Q 353 2603 823 3093 
Q 1294 3584 2113 3584 
Q 2378 3584 2631 3529 
Q 2884 3475 3122 3366 
z
" transform="scale(0.015625)"/>
       <path id="DejaVuSans-6f" d="M 1959 3097 
Q 1497 3097 1228 2736 
Q 959 2375 959 1747 
Q 959 1119 1226 758 
Q 1494 397 1959 397 
Q 2419 397 2687 759 
Q 2956 1122 2956 1747 
Q 2956 2369 2687 2733 
Q 2419 3097 1959 3097 
z
M 1959 3584 
Q 2709 3584 3137 3096 
Q 3566 2609 3566 1747 
Q 3566 888 3137 398 
Q 2709 -91 1959 -91 
Q 1206 -91 779 398 
Q 353 888 353 1747 
Q 353 2609 779 3096 
Q 1206 3584 1959 3584 
z
" transform="scale(0.015625)"/>
       <path id="DejaVuSans-2d" d="M 313 2009 
L 1997 2009 
L 1997 1497 
L 313 1497 
L 313 2009 
z
" transform="scale(0.015625)"/>
       <path id="DejaVuSans-6d" d="M 3328 2828 
Q 3544 3216 3844 3400 
Q 4144 3584 4550 3584 
Q 5097 3584 5394 3201 
Q 5691 2819 5691 2113 
L 5691 0 
L 5113 0 
L 5113 2094 
Q 5113 2597 4934 2840 
Q 4756 3084 4391 3084 
Q 3944 3084 3684 2787 
Q 3425 2491 3425 1978 
L 3425 0 
L 2847 0 
L 2847 2094 
Q 2847 2600 2669 2842 
Q 2491 3084 2119 3084 
Q 1678 3084 1418 2786 
Q 1159 2488 1159 1978 
L 1159 0 
L 581 0 
L 581 3500 
L 1159 3500 
L 1159 2956 
Q 1356 3278 1631 3431 
Q 1906 3584 2284 3584 
Q 2666 3584 2933 3390 
Q 3200 3197 3328 2828 
z
" transform="scale(0.015625)"/>
       <path id="DejaVuSans-66" d="M 2375 4863 
L 2375 4384 
L 1825 4384 
Q 1516 4384 1395 4259 
Q 1275 4134 1275 3809 
L 1275 3500 
L 2222 3500 
L 2222 3053 
L 1275 3053 
L 1275 0 
L 697 0 
L 697 3053 
L 147 3053 
L 147 3500 
L 697 3500 
L 697 3744 
Q 697 4328 969 4595 
Q 1241 4863 1831 4863 
L 2375 4863 
z
" transform="scale(0.015625)"/>
      </defs>
      <use xlink:href="#DejaVuSans-63"/>
      <use xlink:href="#DejaVuSans-6f" transform="translate(54.980469 0)"/>
      <use xlink:href="#DejaVuSans-2d" transform="translate(118.037109 0)"/>
      <use xlink:href="#DejaVuSans-69" transform="translate(154.121094 0)"/>
      <use xlink:href="#DejaVuSans-6d" transform="translate(181.904297 0)"/>
      <use xlink:href="#DejaVuSans-66" transform="translate(279.316406 0)"/>
      <use xlink:href="#DejaVuSans-30" transform="translate(314.521484 0)"/>
     </g>
    </g>
   </g>
   <g id="line2d_23">
    <path d="M 98.449176 201.730517 
L 99.759543 203.295065 
L 101.069911 204.050209 
L 102.380278 204.403819 
L 103.690645 204.395895 
L 105.001012 203.637461 
L 106.31138 203.337402 
L 107.621747 203.428295 
L 108.932114 202.229932 
L 111.552849 197.442495 
L 112.863216 194.706256 
L 114.173583 193.231494 
L 115.48395 193.340998 
L 116.794318 193.583684 
L 118.104685 194.426521 
L 120.725419 196.489574 
L 122.035787 194.773885 
L 123.346154 189.827346 
L 124.656521 188.38081 
L 125.966888 190.070471 
L 127.277256 193.103286 
L 128.587623 198.954845 
L 129.89799 202.828302 
L 131.208357 204.551383 
L 133.829092 210.723631 
L 135.139459 211.180709 
L 136.449826 208.952766 
L 137.760194 204.957049 
L 139.070561 199.44602 
L 140.380928 195.204826 
L 141.691295 193.256854 
L 143.001663 190.987843 
L 144.31203 187.659146 
L 145.622397 190.782761 
L 146.932764 199.740851 
L 148.243132 211.150921 
L 149.553499 225.975243 
L 150.863866 224.696236 
L 153.484601 183.843471 
L 154.794968 172.497934 
L 156.105335 170.660433 
L 158.72607 184.841766 
L 160.036437 190.707557 
L 161.346804 212.443406 
L 162.657171 220.239556 
L 163.967539 224.484951 
L 165.277906 216.139645 
L 166.588273 204.059772 
L 167.89864 185.546421 
L 170.519375 241.034353 
L 171.829742 255.760566 
L 173.140109 244.294747 
L 174.450477 235.914937 
L 175.760844 220.471232 
L 177.071211 208.24373 
L 178.381578 202.069565 
L 179.691946 217.844872 
L 181.002313 213.523834 
L 182.31268 212.480848 
L 183.623047 197.734877 
L 184.933415 189.145079 
L 186.243782 183.698651 
L 187.554149 174.27318 
L 188.864516 163.211285 
L 190.174884 156.553873 
L 191.485251 154.120713 
L 192.795618 155.469585 
L 194.105985 162.255836 
L 195.416353 169.796655 
L 196.72672 178.421695 
L 198.037087 184.989211 
L 199.347454 188.125346 
L 200.657822 189.601608 
L 201.968189 187.949949 
L 203.278556 188.52276 
L 204.588923 191.467821 
L 205.899291 196.11535 
L 207.209658 203.915766 
L 208.520025 209.728798 
L 209.830392 213.671337 
L 211.14076 215.616753 
L 212.451127 214.242342 
L 213.761494 214.398831 
L 215.071861 215.800959 
L 216.382229 216.043304 
L 217.692596 216.016505 
L 219.002963 217.0751 
L 220.31333 219.178066 
L 222.934065 222.818104 
L 224.244432 223.669773 
L 225.554799 223.239429 
L 226.865167 221.590009 
L 228.175534 218.291201 
L 229.485901 213.946366 
L 230.796268 208.375107 
L 232.106635 203.339445 
L 236.037737 190.829864 
L 237.348104 191.196749 
L 238.658472 196.290434 
L 239.968839 198.047671 
L 241.279206 196.997763 
L 242.589573 197.145715 
L 243.899941 197.97456 
L 246.520675 206.480009 
L 247.831042 205.523346 
L 249.14141 198.593124 
L 250.451777 197.049935 
L 251.762144 200.011988 
L 253.072511 201.356768 
L 254.382879 201.778185 
L 255.693246 202.081638 
L 257.003613 200.986419 
L 258.31398 198.588789 
L 260.934715 192.221941 
L 262.245082 189.309968 
L 263.555449 190.800989 
L 264.865817 197.164558 
L 266.176184 221.722207 
L 267.486551 224.147714 
L 268.796918 230.491436 
L 271.417653 217.867483 
L 272.72802 209.000374 
L 275.348755 189.786869 
L 276.659122 182.951341 
L 277.969489 180.014886 
L 280.590224 173.024028 
L 281.900591 169.494956 
L 283.210958 165.075491 
L 284.521325 162.079644 
L 285.831693 160.255844 
L 287.14206 159.620428 
L 288.452427 160.647787 
L 289.762794 162.84479 
L 291.073162 166.424254 
L 292.383529 170.726677 
L 293.693896 175.688933 
L 295.004263 179.36269 
L 296.314631 181.336044 
L 297.624998 184.200033 
L 298.935365 187.436563 
L 300.245732 189.942407 
L 301.5561 192.016972 
L 302.866467 194.980869 
L 305.487201 202.398686 
L 306.797569 206.011438 
L 308.107936 207.648159 
L 309.418303 206.940085 
L 310.72867 207.829531 
L 312.039038 209.96303 
L 313.349405 211.733588 
L 314.659772 213.863987 
L 315.970139 215.134862 
L 317.280507 215.365528 
L 318.590874 214.549043 
L 319.901241 212.272572 
L 321.211608 209.2383 
L 322.521976 205.272793 
L 323.832343 202.543664 
L 325.14271 201.353252 
L 326.453077 199.24847 
L 327.763445 196.749799 
L 329.073812 192.876711 
L 330.384179 187.150366 
L 331.694546 185.134754 
L 333.004914 186.878161 
L 334.315281 191.557062 
L 335.625648 200.552686 
L 336.936015 207.730677 
L 338.246383 213.018406 
L 339.55675 215.851978 
L 340.867117 214.473333 
L 342.177484 211.807301 
L 343.487852 206.990614 
L 344.798219 204.114287 
L 346.108586 203.847297 
L 347.418953 201.417925 
L 351.350055 190.318199 
L 352.660422 187.822873 
L 353.97079 187.103243 
L 355.281157 187.692354 
L 356.591524 190.232276 
L 357.901891 193.315694 
L 359.212259 197.044843 
L 360.522626 200.056935 
L 363.14336 203.617409 
L 364.453728 204.668699 
L 365.764095 205.356301 
L 367.074462 205.678838 
L 368.384829 206.731439 
L 369.695197 208.685447 
L 372.315931 211.587248 
L 373.626298 210.960003 
L 378.867767 198.904224 
L 380.178135 196.422708 
L 381.488502 192.748334 
L 382.798869 188.056232 
L 384.109236 184.805608 
L 385.419604 182.877925 
L 386.729971 182.319034 
L 388.040338 183.764489 
L 389.350705 187.968164 
L 391.97144 202.362536 
L 393.281807 209.045554 
L 394.592174 213.981908 
L 395.902542 216.094204 
L 397.212909 213.76988 
L 398.523276 205.828532 
L 399.833643 199.348231 
L 401.144011 193.882045 
L 402.454378 190.630474 
L 403.764745 191.394954 
L 405.075112 194.723383 
L 406.38548 201.225976 
L 407.695847 205.421344 
L 409.006214 206.768517 
L 410.316581 206.837603 
L 411.626949 204.83127 
L 412.937316 201.669168 
L 414.247683 197.767482 
L 415.55805 195.549168 
L 416.868418 195.722488 
L 418.178785 197.221613 
L 419.489152 200.489476 
L 420.799519 202.770251 
L 422.109887 203.766261 
L 423.420254 204.252701 
L 424.730621 203.386303 
L 426.040988 202.27203 
L 427.351356 200.746604 
L 428.661723 199.799635 
L 429.97209 199.711274 
L 431.282457 199.187364 
L 432.592825 198.524783 
L 433.903192 198.688724 
L 436.523926 200.523418 
L 437.834294 201.629807 
L 439.144661 203.083394 
L 440.455028 204.786386 
L 441.765395 206.158183 
L 443.075763 207.137578 
L 444.38613 207.590344 
L 445.696497 207.300263 
L 447.006864 203.445221 
L 448.317232 196.007375 
L 449.627599 191.707467 
L 450.937966 190.424882 
L 452.248333 190.262142 
L 453.558701 190.958987 
L 454.869068 190.873483 
L 456.179435 189.149951 
L 458.80017 186.767306 
L 460.110537 185.948278 
L 464.041639 185.511274 
L 465.352006 186.817461 
L 466.662373 189.551089 
L 467.97274 191.430335 
L 470.593475 193.634693 
L 471.903842 194.021438 
L 473.214209 194.891769 
L 474.524576 196.242308 
L 475.834944 198.446256 
L 478.455678 205.041442 
L 479.766045 208.223055 
L 481.076413 211.002976 
L 482.38678 213.062322 
L 483.697147 214.262009 
L 485.007514 214.307534 
L 486.317882 210.611801 
L 487.628249 202.686837 
L 488.938616 197.127577 
L 490.248983 193.594705 
L 491.559351 191.539608 
L 492.869718 192.541278 
L 494.180085 194.313357 
L 495.490452 197.351432 
L 496.80082 199.854833 
L 498.111187 201.351637 
L 500.731921 205.1195 
L 502.042289 204.51508 
L 503.352656 201.306283 
L 504.663023 199.314042 
L 505.97339 198.158649 
L 507.283758 197.936027 
L 508.594125 199.503545 
L 509.904492 200.177745 
L 511.214859 200.180862 
L 513.835594 200.887299 
L 515.145961 201.924361 
L 516.456328 203.807723 
L 517.766696 204.893581 
L 519.077063 205.286958 
L 520.38743 204.05862 
L 521.697797 200.716862 
L 523.008165 198.403943 
L 524.318532 196.906825 
L 525.628899 194.104646 
L 526.939266 190.517127 
L 528.249634 190.783872 
L 529.560001 195.073657 
L 532.180735 201.207398 
L 533.491103 203.703767 
L 534.80147 204.7901 
L 536.111837 204.128236 
L 537.422204 201.115326 
L 538.732572 199.064459 
L 540.042939 197.834233 
L 541.353306 197.287287 
L 542.663673 198.231205 
L 545.284408 199.691733 
L 546.594775 200.123539 
L 547.905142 199.907687 
L 549.21551 200.186577 
L 550.525877 200.803536 
L 551.836244 200.292502 
L 553.146611 198.718256 
L 554.456979 198.267838 
L 555.767346 198.784529 
L 557.077713 200.090696 
L 558.38808 202.695635 
L 559.698448 204.71663 
L 562.319182 207.549512 
L 563.629549 208.346425 
L 564.939917 207.205508 
L 566.250284 203.855383 
L 567.560651 201.396966 
L 568.871018 199.587475 
L 570.181386 198.624354 
L 571.491753 199.247513 
L 572.80212 197.042009 
L 574.112487 192.019662 
L 575.422855 188.99595 
L 576.733222 187.267886 
L 578.043589 188.879481 
L 579.353956 194.99261 
L 580.664324 199.267101 
L 581.974691 202.254495 
L 583.285058 204.803675 
L 584.595425 205.590116 
L 587.21616 207.622775 
L 588.526527 208.509806 
L 589.836894 209.619369 
L 591.147262 209.685788 
L 592.457629 208.735021 
L 593.767996 207.350054 
L 595.078363 205.265721 
L 597.699098 200.421176 
L 599.009465 199.045455 
L 600.319832 199.094775 
L 602.940567 198.394453 
L 604.250934 196.595268 
L 605.561301 192.924745 
L 606.871669 192.114038 
L 608.182036 194.023 
L 609.492403 196.179597 
L 610.80277 199.557487 
L 612.113138 200.915356 
L 613.423505 199.774447 
L 614.733872 198.89799 
L 616.044239 197.432191 
L 617.354607 198.406087 
L 618.664974 202.398228 
L 619.975341 204.484049 
L 621.285708 205.297709 
L 622.596076 206.361337 
L 623.906443 206.8374 
L 625.21681 206.654012 
L 627.837545 204.793246 
L 630.458279 202.55509 
L 631.768646 201.613728 
L 635.699748 198.321775 
L 638.320483 196.820602 
L 639.63085 196.214759 
L 640.941217 197.367683 
L 642.251584 200.442806 
L 643.561952 202.458841 
L 644.872319 203.665613 
L 646.182686 204.137819 
L 648.803421 202.269617 
L 651.424155 200.066142 
L 652.734522 199.292229 
L 655.355257 197.205683 
L 656.665624 196.681706 
L 657.975991 196.729444 
L 659.286359 198.105385 
L 660.596726 201.080546 
L 661.907093 203.42538 
L 663.21746 205.278003 
L 664.527828 205.097505 
L 665.838195 202.190602 
L 667.148562 200.101673 
L 668.458929 198.373908 
L 669.769297 197.113099 
L 672.390031 196.99789 
L 673.700398 197.307342 
L 675.010766 198.063627 
L 677.6315 200.183406 
L 678.941867 201.067732 
L 680.252235 201.063845 
L 681.562602 199.937616 
L 682.872969 200.878434 
L 684.183336 203.867436 
L 685.493704 206.022513 
L 686.804071 207.920852 
L 688.114438 209.224446 
L 689.424805 209.417713 
L 690.735173 206.963113 
L 692.04554 201.339991 
L 693.355907 197.040828 
L 694.666274 193.775736 
L 695.976642 191.746634 
L 697.287009 192.046222 
L 698.597376 192.927863 
L 699.907743 194.878325 
L 701.218111 197.357236 
L 702.528478 200.146515 
L 703.838845 201.711276 
L 705.149212 201.639842 
L 706.45958 202.578382 
L 707.769947 204.123549 
L 709.080314 204.94695 
L 710.390681 205.405747 
L 711.701049 205.563997 
L 713.011416 205.240514 
L 714.321783 203.750116 
L 716.942517 198.416926 
L 718.252885 196.021881 
L 719.563252 194.054242 
L 720.873619 192.90902 
L 722.183986 192.890971 
L 723.494354 194.331575 
L 724.804721 196.160937 
L 727.425455 201.170756 
L 728.735823 203.769756 
L 731.356557 209.910236 
L 732.666924 210.83954 
L 733.977292 209.275696 
L 735.287659 206.352032 
L 736.598026 201.348552 
L 737.908393 197.398141 
L 739.218761 194.719084 
L 740.529128 193.35706 
L 741.839495 194.287658 
L 743.149862 193.977081 
L 744.46023 192.640866 
L 745.770597 193.773508 
L 747.080964 196.910444 
L 749.701699 202.049769 
L 751.012066 204.23435 
L 752.322433 205.570298 
L 753.6328 206.272131 
L 754.943168 206.020113 
L 756.253535 205.423597 
L 758.874269 203.421735 
L 761.495004 201.910972 
L 762.805371 201.418911 
L 764.115738 200.1528 
L 765.426106 198.085014 
L 766.736473 196.645196 
L 768.04684 195.688547 
L 769.357207 195.862899 
L 770.667575 197.55243 
L 771.977942 198.567738 
L 774.598676 199.683656 
L 775.909044 199.946623 
L 777.219411 201.540605 
L 778.529778 204.564193 
L 779.840145 206.906149 
L 781.150513 208.855137 
L 782.46088 208.165687 
L 785.081614 200.214735 
L 786.391982 195.610413 
L 787.702349 192.135467 
L 789.012716 190.499196 
L 790.323083 189.660027 
L 791.633451 190.380963 
L 792.943818 191.459617 
L 794.254185 192.947611 
L 795.564552 195.666421 
L 796.87492 199.42759 
L 798.185287 201.66659 
L 799.495654 202.244959 
L 803.426756 205.702758 
L 804.737123 206.743577 
L 806.04749 207.927057 
L 807.357858 209.314087 
L 808.668225 209.593836 
L 809.978592 208.709361 
L 811.288959 206.965781 
L 812.599327 203.996829 
L 813.909694 199.615553 
L 815.220061 193.676854 
L 816.530428 189.299851 
L 817.840796 186.653512 
L 819.151163 187.071484 
L 820.46153 191.65638 
L 823.082265 199.897423 
L 824.392632 202.702089 
L 825.702999 203.073593 
L 827.013366 204.451565 
L 828.323734 206.201751 
L 829.634101 208.259164 
L 830.944468 211.170645 
L 832.254835 212.180529 
L 833.565203 211.269631 
L 834.87557 209.08618 
L 836.185937 204.937498 
L 837.496304 202.058688 
L 840.117039 198.983001 
L 841.427406 198.092734 
L 842.737773 196.590316 
L 846.668875 189.957281 
L 847.979242 188.191844 
L 849.28961 187.101394 
L 850.599977 186.222393 
L 851.910344 185.776509 
L 853.220711 185.918965 
L 854.531079 186.667873 
L 855.841446 188.049802 
L 857.151813 190.131592 
L 858.46218 193.28576 
L 861.082915 202.030971 
L 863.703649 210.974141 
L 865.014017 214.738739 
L 866.324384 217.495573 
L 867.634751 218.905124 
L 868.945118 219.213737 
L 870.255486 218.116979 
L 871.565853 216.27321 
L 874.186587 210.785206 
L 876.807322 205.32783 
L 878.117689 203.250256 
L 879.428056 200.451844 
L 880.738424 197.050941 
L 882.048791 195.220613 
L 883.359158 194.913318 
L 884.669525 194.839261 
L 885.979893 195.454067 
L 887.29026 192.134474 
L 888.600627 184.300183 
L 889.910994 179.525806 
L 891.221362 176.983091 
L 892.531729 174.958008 
L 893.842096 174.901517 
L 895.152463 174.584867 
L 896.462831 174.086891 
L 897.773198 174.14592 
L 899.083565 174.323966 
L 900.393932 176.425854 
L 901.7043 180.598458 
L 903.014667 187.908989 
L 904.325034 199.037595 
L 905.635401 208.134545 
L 908.256136 222.593966 
L 909.566503 228.696607 
L 910.87687 231.093664 
L 912.187238 229.350014 
L 913.497605 224.058022 
L 914.807972 214.265087 
L 916.118339 206.53859 
L 918.739074 195.787441 
L 920.049441 192.147101 
L 922.670176 183.66469 
L 923.980543 181.882305 
L 925.29091 182.559612 
L 926.601277 184.099169 
L 933.153114 198.34403 
L 934.463481 200.192908 
L 935.773848 200.95237 
L 937.084215 204.520833 
L 938.394583 210.977684 
L 939.70495 215.19435 
L 941.015317 217.772471 
L 942.325684 216.811428 
L 943.636052 211.022603 
L 944.946419 206.404652 
L 946.256786 202.334189 
L 947.567153 197.627506 
L 948.877521 193.431983 
L 950.187888 191.665643 
L 951.498255 192.819316 
L 952.808622 193.602474 
L 954.11899 194.54759 
L 955.429357 197.516802 
L 956.739724 202.10428 
L 958.050091 204.293988 
L 959.360458 203.988355 
L 960.670826 203.115517 
L 961.981193 200.67218 
L 963.29156 199.063537 
L 964.601927 198.501754 
L 967.222662 196.156184 
L 968.533029 196.660702 
L 971.153764 201.250213 
L 972.464131 204.058842 
L 973.774498 206.476269 
L 975.084865 208.165011 
L 976.395233 209.570848 
L 977.7056 210.32369 
L 979.015967 209.138376 
L 980.326334 205.781168 
L 981.636702 201.52168 
L 984.257436 190.843191 
L 985.567803 186.415355 
L 986.878171 182.791027 
L 988.188538 180.60909 
L 989.498905 179.151498 
L 992.11964 178.417418 
L 993.430007 178.071017 
L 994.740374 178.739487 
L 996.050741 180.219098 
L 997.361109 182.031374 
L 998.671476 184.295951 
L 999.981843 186.986975 
L 1001.29221 190.026321 
L 1002.602578 193.742599 
L 1003.912945 198.123321 
L 1005.223312 203.428628 
L 1006.533679 209.766833 
L 1007.844047 215.042508 
L 1010.464781 223.258833 
L 1011.775148 226.779592 
L 1013.085516 231.952546 
L 1014.395883 239.015236 
L 1015.70625 241.791084 
L 1017.016617 240.378157 
L 1018.326985 231.333147 
L 1019.637352 219.814421 
L 1020.947719 215.610643 
L 1022.258086 220.339825 
L 1023.568454 219.270833 
L 1024.878821 214.795488 
L 1026.189188 209.478736 
L 1027.499555 203.012883 
L 1030.12029 186.972488 
L 1032.741024 170.522111 
L 1034.051392 166.321694 
L 1035.361759 166.739801 
L 1036.672126 171.153852 
L 1037.982493 179.847502 
L 1039.292861 189.911257 
L 1040.603228 201.067458 
L 1041.913595 208.375104 
L 1043.223962 210.363501 
L 1044.53433 213.415986 
L 1045.844697 215.950936 
L 1047.155064 217.979757 
L 1048.465431 220.325948 
L 1049.775799 219.76926 
L 1051.086166 216.378345 
L 1052.396533 211.88988 
L 1053.7069 205.655623 
L 1055.017268 200.355892 
L 1056.327635 196.387567 
L 1057.638002 194.082659 
L 1058.948369 194.424336 
L 1060.258737 193.293973 
L 1061.569104 190.939832 
L 1062.879471 191.459946 
L 1064.189838 194.306706 
L 1065.500206 198.944565 
L 1066.810573 206.167961 
L 1068.12094 208.165002 
L 1069.431307 204.409157 
L 1070.741675 201.49487 
L 1072.052042 197.644088 
L 1073.362409 196.35499 
L 1074.672776 198.800642 
L 1075.983144 200.596244 
L 1077.293511 202.859771 
L 1078.603878 204.867698 
L 1079.914245 206.006161 
L 1081.224613 204.12116 
L 1082.53498 198.48918 
L 1083.845347 194.484282 
L 1085.155714 191.61404 
L 1086.466082 190.487975 
L 1087.776449 192.363388 
L 1087.776449 192.363388 
" clip-path="url(#p85867d9912)" style="fill: none; stroke: #f27f19; stroke-width: 1.5; stroke-linecap: square"/>
   </g>
   <g id="patch_8">
    <path d="M 48.982813 260.842558 
L 48.982813 149.038721 
" style="fill: none; stroke: #000000; stroke-width: 0.8; stroke-linejoin: miter; stroke-linecap: square"/>
   </g>
   <g id="patch_9">
    <path d="M 1137.242813 260.842558 
L 1137.242813 149.038721 
" style="fill: none; stroke: #000000; stroke-width: 0.8; stroke-linejoin: miter; stroke-linecap: square"/>
   </g>
   <g id="patch_10">
    <path d="M 48.982813 260.842558 
L 1137.242813 260.842558 
" style="fill: none; stroke: #000000; stroke-width: 0.8; stroke-linejoin: miter; stroke-linecap: square"/>
   </g>
   <g id="patch_11">
    <path d="M 48.982813 149.038721 
L 1137.242813 149.038721 
" style="fill: none; stroke: #000000; stroke-width: 0.8; stroke-linejoin: miter; stroke-linecap: square"/>
   </g>
  </g>
  <g id="axes_3">
   <g id="patch_12">
    <path d="M 48.982813 402.681279 
L 1137.242813 402.681279 
L 1137.242813 290.877442 
L 48.982813 290.877442 
z
" style="fill: #ffffff"/>
   </g>
   <g id="matplotlib.axis_5">
    <g id="xtick_17">
     <g id="line2d_24">
      <g>
       <use xlink:href="#mde725122a5" x="98.449176" y="402.681279" style="stroke: #000000; stroke-width: 0.8"/>
      </g>
     </g>
     <g id="text_24">
      <!-- 0 -->
      <g transform="translate(95.267926 417.279717) scale(0.1 -0.1)">
       <use xlink:href="#DejaVuSans-30"/>
      </g>
     </g>
    </g>
    <g id="xtick_18">
     <g id="line2d_25">
      <g>
       <use xlink:href="#mde725122a5" x="229.485901" y="402.681279" style="stroke: #000000; stroke-width: 0.8"/>
      </g>
     </g>
     <g id="text_25">
      <!-- 100 -->
      <g transform="translate(219.942151 417.279717) scale(0.1 -0.1)">
       <use xlink:href="#DejaVuSans-31"/>
       <use xlink:href="#DejaVuSans-30" transform="translate(63.623047 0)"/>
       <use xlink:href="#DejaVuSans-30" transform="translate(127.246094 0)"/>
      </g>
     </g>
    </g>
    <g id="xtick_19">
     <g id="line2d_26">
      <g>
       <use xlink:href="#mde725122a5" x="360.522626" y="402.681279" style="stroke: #000000; stroke-width: 0.8"/>
      </g>
     </g>
     <g id="text_26">
      <!-- 200 -->
      <g transform="translate(350.978876 417.279717) scale(0.1 -0.1)">
       <use xlink:href="#DejaVuSans-32"/>
       <use xlink:href="#DejaVuSans-30" transform="translate(63.623047 0)"/>
       <use xlink:href="#DejaVuSans-30" transform="translate(127.246094 0)"/>
      </g>
     </g>
    </g>
    <g id="xtick_20">
     <g id="line2d_27">
      <g>
       <use xlink:href="#mde725122a5" x="491.559351" y="402.681279" style="stroke: #000000; stroke-width: 0.8"/>
      </g>
     </g>
     <g id="text_27">
      <!-- 300 -->
      <g transform="translate(482.015601 417.279717) scale(0.1 -0.1)">
       <use xlink:href="#DejaVuSans-33"/>
       <use xlink:href="#DejaVuSans-30" transform="translate(63.623047 0)"/>
       <use xlink:href="#DejaVuSans-30" transform="translate(127.246094 0)"/>
      </g>
     </g>
    </g>
    <g id="xtick_21">
     <g id="line2d_28">
      <g>
       <use xlink:href="#mde725122a5" x="622.596076" y="402.681279" style="stroke: #000000; stroke-width: 0.8"/>
      </g>
     </g>
     <g id="text_28">
      <!-- 400 -->
      <g transform="translate(613.052326 417.279717) scale(0.1 -0.1)">
       <use xlink:href="#DejaVuSans-34"/>
       <use xlink:href="#DejaVuSans-30" transform="translate(63.623047 0)"/>
       <use xlink:href="#DejaVuSans-30" transform="translate(127.246094 0)"/>
      </g>
     </g>
    </g>
    <g id="xtick_22">
     <g id="line2d_29">
      <g>
       <use xlink:href="#mde725122a5" x="753.6328" y="402.681279" style="stroke: #000000; stroke-width: 0.8"/>
      </g>
     </g>
     <g id="text_29">
      <!-- 500 -->
      <g transform="translate(744.08905 417.279717) scale(0.1 -0.1)">
       <use xlink:href="#DejaVuSans-35"/>
       <use xlink:href="#DejaVuSans-30" transform="translate(63.623047 0)"/>
       <use xlink:href="#DejaVuSans-30" transform="translate(127.246094 0)"/>
      </g>
     </g>
    </g>
    <g id="xtick_23">
     <g id="line2d_30">
      <g>
       <use xlink:href="#mde725122a5" x="884.669525" y="402.681279" style="stroke: #000000; stroke-width: 0.8"/>
      </g>
     </g>
     <g id="text_30">
      <!-- 600 -->
      <g transform="translate(875.125775 417.279717) scale(0.1 -0.1)">
       <use xlink:href="#DejaVuSans-36"/>
       <use xlink:href="#DejaVuSans-30" transform="translate(63.623047 0)"/>
       <use xlink:href="#DejaVuSans-30" transform="translate(127.246094 0)"/>
      </g>
     </g>
    </g>
    <g id="xtick_24">
     <g id="line2d_31">
      <g>
       <use xlink:href="#mde725122a5" x="1015.70625" y="402.681279" style="stroke: #000000; stroke-width: 0.8"/>
      </g>
     </g>
     <g id="text_31">
      <!-- 700 -->
      <g transform="translate(1006.1625 417.279717) scale(0.1 -0.1)">
       <use xlink:href="#DejaVuSans-37"/>
       <use xlink:href="#DejaVuSans-30" transform="translate(63.623047 0)"/>
       <use xlink:href="#DejaVuSans-30" transform="translate(127.246094 0)"/>
      </g>
     </g>
    </g>
   </g>
   <g id="matplotlib.axis_6">
    <g id="ytick_6">
     <g id="line2d_32">
      <g>
       <use xlink:href="#m247894b110" x="48.982813" y="387.595531" style="stroke: #000000; stroke-width: 0.8"/>
      </g>
     </g>
     <g id="text_32">
      <!-- −10 -->
      <g transform="translate(20.878125 391.39475) scale(0.1 -0.1)">
       <use xlink:href="#DejaVuSans-2212"/>
       <use xlink:href="#DejaVuSans-31" transform="translate(83.789062 0)"/>
       <use xlink:href="#DejaVuSans-30" transform="translate(147.412109 0)"/>
      </g>
     </g>
    </g>
    <g id="ytick_7">
     <g id="line2d_33">
      <g>
       <use xlink:href="#m247894b110" x="48.982813" y="361.343582" style="stroke: #000000; stroke-width: 0.8"/>
      </g>
     </g>
     <g id="text_33">
      <!-- −5 -->
      <g transform="translate(27.240625 365.142801) scale(0.1 -0.1)">
       <use xlink:href="#DejaVuSans-2212"/>
       <use xlink:href="#DejaVuSans-35" transform="translate(83.789062 0)"/>
      </g>
     </g>
    </g>
    <g id="ytick_8">
     <g id="line2d_34">
      <g>
       <use xlink:href="#m247894b110" x="48.982813" y="335.091634" style="stroke: #000000; stroke-width: 0.8"/>
      </g>
     </g>
     <g id="text_34">
      <!-- 0 -->
      <g transform="translate(35.620313 338.890853) scale(0.1 -0.1)">
       <use xlink:href="#DejaVuSans-30"/>
      </g>
     </g>
    </g>
    <g id="ytick_9">
     <g id="line2d_35">
      <g>
       <use xlink:href="#m247894b110" x="48.982813" y="308.839685" style="stroke: #000000; stroke-width: 0.8"/>
      </g>
     </g>
     <g id="text_35">
      <!-- 5 -->
      <g transform="translate(35.620313 312.638904) scale(0.1 -0.1)">
       <use xlink:href="#DejaVuSans-35"/>
      </g>
     </g>
    </g>
    <g id="text_36">
     <!-- co-imf1 -->
     <g transform="translate(14.798438 365.686392) rotate(-90) scale(0.1 -0.1)">
      <use xlink:href="#DejaVuSans-63"/>
      <use xlink:href="#DejaVuSans-6f" transform="translate(54.980469 0)"/>
      <use xlink:href="#DejaVuSans-2d" transform="translate(118.037109 0)"/>
      <use xlink:href="#DejaVuSans-69" transform="translate(154.121094 0)"/>
      <use xlink:href="#DejaVuSans-6d" transform="translate(181.904297 0)"/>
      <use xlink:href="#DejaVuSans-66" transform="translate(279.316406 0)"/>
      <use xlink:href="#DejaVuSans-31" transform="translate(314.521484 0)"/>
     </g>
    </g>
   </g>
   <g id="line2d_36">
    <path d="M 98.449176 338.589768 
L 101.069911 339.089619 
L 103.690645 339.370559 
L 106.31138 339.395633 
L 108.932114 339.146387 
L 111.552849 338.612012 
L 114.173583 337.786629 
L 116.794318 336.667872 
L 119.415052 335.238729 
L 122.035787 333.443849 
L 124.656521 331.204386 
L 127.277256 328.490322 
L 129.89799 325.415897 
L 135.139459 319.01225 
L 137.760194 316.226317 
L 139.070561 315.141955 
L 140.380928 314.36072 
L 141.691295 313.949628 
L 143.001663 313.973982 
L 144.31203 314.475981 
L 145.622397 315.435153 
L 146.932764 316.832875 
L 148.243132 318.636503 
L 149.553499 320.827409 
L 150.863866 323.370061 
L 153.484601 329.288964 
L 160.036437 345.149052 
L 162.657171 350.966782 
L 165.277906 356.208527 
L 167.89864 360.706782 
L 169.209008 362.624787 
L 170.519375 364.294091 
L 171.829742 365.69412 
L 173.140109 366.803945 
L 174.450477 367.617424 
L 175.760844 368.134085 
L 177.071211 368.371734 
L 178.381578 368.342705 
L 179.691946 368.074981 
L 181.002313 367.584681 
L 182.31268 366.896272 
L 183.623047 366.030259 
L 186.243782 363.851134 
L 188.864516 361.218437 
L 192.795618 356.79329 
L 200.657822 347.514696 
L 212.451127 333.55618 
L 219.002963 326.175418 
L 224.244432 320.591983 
L 228.175534 316.688457 
L 230.796268 314.298106 
L 233.417003 312.127647 
L 236.037737 310.220868 
L 238.658472 308.620639 
L 241.279206 307.374014 
L 242.589573 306.920606 
L 243.899941 306.611019 
L 245.210308 306.481579 
L 246.520675 306.563646 
L 247.831042 306.907439 
L 249.14141 307.545845 
L 250.451777 308.511655 
L 251.762144 309.839578 
L 253.072511 311.520726 
L 254.382879 313.55163 
L 255.693246 315.908729 
L 258.31398 321.393434 
L 266.176184 339.229987 
L 268.796918 344.308812 
L 270.107286 346.475467 
L 271.417653 348.338618 
L 272.72802 349.871315 
L 274.038387 351.083029 
L 275.348755 351.986387 
L 276.659122 352.611597 
L 277.969489 352.974432 
L 279.279856 353.102308 
L 280.590224 353.016084 
L 281.900591 352.738983 
L 283.210958 352.293646 
L 284.521325 351.702794 
L 287.14206 350.17594 
L 289.762794 348.338421 
L 295.004263 344.26909 
L 302.866467 338.121292 
L 305.487201 336.290686 
L 308.107936 334.681899 
L 310.72867 333.361413 
L 313.349405 332.396545 
L 315.970139 331.853965 
L 317.280507 331.761529 
L 319.901241 331.908376 
L 322.521976 332.396441 
L 326.453077 333.487758 
L 330.384179 334.618391 
L 333.004914 335.195259 
L 335.625648 335.555161 
L 338.246383 335.655465 
L 340.867117 335.453328 
L 343.487852 334.924976 
L 346.108586 334.112916 
L 348.729321 333.07493 
L 352.660422 331.224429 
L 357.901891 328.475236 
L 364.453728 324.748458 
L 374.936666 318.600609 
L 377.5574 317.370661 
L 380.178135 316.464435 
L 381.488502 316.165359 
L 382.798869 315.986312 
L 384.109236 315.938117 
L 385.419604 316.030599 
L 386.729971 316.279311 
L 388.040338 316.693724 
L 389.350705 317.290733 
L 390.661073 318.081083 
L 391.97144 319.07945 
L 393.281807 320.298106 
L 394.592174 321.746089 
L 395.902542 323.428572 
L 398.523276 327.377128 
L 405.075112 338.223239 
L 406.38548 340.12973 
L 407.695847 341.813683 
L 409.006214 343.219995 
L 410.316581 344.301289 
L 411.626949 345.045266 
L 412.937316 345.503653 
L 414.247683 345.725787 
L 415.55805 345.77594 
L 418.178785 345.565198 
L 420.799519 345.284924 
L 422.109887 345.235997 
L 423.420254 345.302038 
L 424.730621 345.524824 
L 426.040988 345.902009 
L 428.661723 347.0409 
L 432.592825 349.209648 
L 437.834294 352.053944 
L 440.455028 353.276858 
L 443.075763 354.274171 
L 445.696497 354.99146 
L 448.317232 355.466202 
L 452.248333 355.894835 
L 458.80017 356.513538 
L 465.352006 357.213796 
L 469.283108 357.371908 
L 471.903842 357.259157 
L 474.524576 356.910826 
L 477.145311 356.274707 
L 479.766045 355.298855 
L 482.38678 353.930141 
L 485.007514 352.145113 
L 487.628249 350.014045 
L 491.559351 346.366407 
L 500.731921 337.383786 
L 503.352656 335.145037 
L 505.97339 333.192016 
L 516.456328 325.849028 
L 525.628899 318.803157 
L 528.249634 317.314656 
L 529.560001 316.754918 
L 530.870368 316.318204 
L 533.491103 315.806495 
L 536.111837 315.734702 
L 538.732572 316.057714 
L 541.353306 316.731083 
L 543.974041 317.700316 
L 549.21551 320.097772 
L 553.146611 321.800157 
L 557.077713 323.234789 
L 561.008815 324.35419 
L 563.629549 324.901049 
L 567.560651 325.4717 
L 575.422855 326.434572 
L 579.353956 327.205201 
L 583.285058 328.219928 
L 588.526527 329.837861 
L 596.388731 332.369569 
L 600.319832 333.382482 
L 602.940567 333.868793 
L 605.561301 334.155478 
L 608.182036 334.200511 
L 610.80277 333.990216 
L 613.423505 333.534095 
L 616.044239 332.84319 
L 618.664974 331.934896 
L 621.285708 330.842161 
L 625.21681 328.944352 
L 633.079014 324.989609 
L 635.699748 323.8782 
L 638.320483 322.988476 
L 640.941217 322.406439 
L 643.561952 322.235344 
L 644.872319 322.328402 
L 646.182686 322.551924 
L 647.493053 322.916111 
L 648.803421 323.425355 
L 650.113788 324.087065 
L 651.424155 324.889364 
L 654.04489 326.911795 
L 656.665624 329.446713 
L 659.286359 332.367671 
L 668.458929 343.06364 
L 671.079664 345.51434 
L 672.390031 346.533409 
L 673.700398 347.396811 
L 675.010766 348.110942 
L 676.321133 348.66903 
L 677.6315 349.076224 
L 678.941867 349.330374 
L 680.252235 349.432438 
L 681.562602 349.382061 
L 682.872969 349.181118 
L 684.183336 348.829635 
L 686.804071 347.748952 
L 689.424805 346.292345 
L 697.287009 341.452562 
L 699.907743 340.288872 
L 701.218111 339.888958 
L 702.528478 339.637123 
L 703.838845 339.53071 
L 705.149212 339.578395 
L 706.45958 339.776376 
L 707.769947 340.129624 
L 709.080314 340.638653 
L 710.390681 341.305768 
L 711.701049 342.129974 
L 714.321783 344.230907 
L 718.252885 348.018725 
L 720.873619 350.467505 
L 723.494354 352.508848 
L 724.804721 353.317309 
L 726.115088 353.951162 
L 727.425455 354.394219 
L 728.735823 354.623182 
L 730.04619 354.616168 
L 731.356557 354.352767 
L 732.666924 353.819588 
L 733.977292 353.025169 
L 735.287659 352.009063 
L 736.598026 350.800115 
L 739.218761 347.96012 
L 748.391331 337.175176 
L 751.012066 334.767737 
L 752.322433 333.78146 
L 753.6328 332.942449 
L 754.943168 332.254244 
L 756.253535 331.702519 
L 758.874269 330.973142 
L 761.495004 330.648005 
L 764.115738 330.619565 
L 768.04684 330.89966 
L 775.909044 331.565418 
L 782.46088 331.86135 
L 796.87492 332.105188 
L 799.495654 332.018265 
L 802.116389 331.754141 
L 804.737123 331.242925 
L 807.357858 330.426347 
L 809.978592 329.296189 
L 812.599327 327.867493 
L 815.220061 326.15778 
L 817.840796 324.184533 
L 820.46153 321.966946 
L 824.392632 318.305686 
L 830.944468 312.073017 
L 834.87557 308.689889 
L 837.496304 306.669 
L 840.117039 304.865269 
L 842.737773 303.305286 
L 845.358508 302.01537 
L 847.979242 301.021806 
L 850.599977 300.350915 
L 853.220711 300.028324 
L 855.841446 300.065373 
L 858.46218 300.437726 
L 861.082915 301.110058 
L 863.703649 302.049638 
L 866.324384 303.223197 
L 868.945118 304.597449 
L 872.87622 306.969783 
L 876.807322 309.631372 
L 883.359158 314.42844 
L 891.221362 320.186477 
L 895.152463 322.826045 
L 899.083565 325.203341 
L 903.014667 327.281967 
L 906.945769 329.026582 
L 909.566503 329.986908 
L 912.187238 330.772698 
L 914.807972 331.370259 
L 917.428707 331.767712 
L 920.049441 331.95416 
L 922.670176 331.918851 
L 925.29091 331.651073 
L 927.911645 331.132856 
L 930.532379 330.340798 
L 933.153114 329.250915 
L 935.773848 327.839138 
L 938.394583 326.081454 
L 941.015317 323.954019 
L 943.636052 321.46908 
L 946.256786 318.702348 
L 950.187888 314.213146 
L 958.050091 305.09419 
L 960.670826 302.350801 
L 963.29156 299.950672 
L 965.912295 298.017076 
L 967.222662 297.260291 
L 968.533029 296.661786 
L 969.843396 296.235897 
L 971.153764 295.997129 
L 972.464131 295.959434 
L 973.774498 296.132912 
L 975.084865 296.527939 
L 976.395233 297.137778 
L 977.7056 297.966342 
L 979.015967 298.994983 
L 980.326334 300.217339 
L 981.636702 301.614939 
L 984.257436 304.889587 
L 986.878171 308.711873 
L 989.498905 312.972131 
L 993.430007 319.94377 
L 999.981843 332.326581 
L 1005.223312 342.137231 
L 1009.154414 348.985218 
L 1011.775148 353.146839 
L 1014.395883 356.882972 
L 1017.016617 360.12963 
L 1019.637352 362.918034 
L 1022.258086 365.34691 
L 1026.189188 368.55608 
L 1032.741024 373.668561 
L 1035.361759 375.950767 
L 1039.292861 379.776791 
L 1051.086166 391.872299 
L 1053.7069 394.096396 
L 1056.327635 395.882842 
L 1057.638002 396.568787 
L 1058.948369 397.093591 
L 1060.258737 397.442574 
L 1061.569104 397.599287 
L 1062.879471 397.582955 
L 1064.189838 397.404822 
L 1065.500206 397.089208 
L 1068.12094 396.107538 
L 1070.741675 394.784059 
L 1074.672776 392.460768 
L 1078.603878 390.11409 
L 1081.224613 388.747672 
L 1083.845347 387.687191 
L 1086.466082 387.047227 
L 1087.776449 386.894016 
L 1087.776449 386.894016 
" clip-path="url(#p349a7adcea)" style="fill: none; stroke: #f27f19; stroke-width: 1.5; stroke-linecap: square"/>
   </g>
   <g id="patch_13">
    <path d="M 48.982813 402.681279 
L 48.982813 290.877442 
" style="fill: none; stroke: #000000; stroke-width: 0.8; stroke-linejoin: miter; stroke-linecap: square"/>
   </g>
   <g id="patch_14">
    <path d="M 1137.242813 402.681279 
L 1137.242813 290.877442 
" style="fill: none; stroke: #000000; stroke-width: 0.8; stroke-linejoin: miter; stroke-linecap: square"/>
   </g>
   <g id="patch_15">
    <path d="M 48.982813 402.681279 
L 1137.242813 402.681279 
" style="fill: none; stroke: #000000; stroke-width: 0.8; stroke-linejoin: miter; stroke-linecap: square"/>
   </g>
   <g id="patch_16">
    <path d="M 48.982813 290.877442 
L 1137.242813 290.877442 
" style="fill: none; stroke: #000000; stroke-width: 0.8; stroke-linejoin: miter; stroke-linecap: square"/>
   </g>
  </g>
  <g id="axes_4">
   <g id="patch_17">
    <path d="M 48.982813 544.52 
L 1137.242813 544.52 
L 1137.242813 432.716163 
L 48.982813 432.716163 
z
" style="fill: #ffffff"/>
   </g>
   <g id="matplotlib.axis_7">
    <g id="xtick_25">
     <g id="line2d_37">
      <g>
       <use xlink:href="#mde725122a5" x="98.449176" y="544.52" style="stroke: #000000; stroke-width: 0.8"/>
      </g>
     </g>
     <g id="text_37">
      <!-- 0 -->
      <g transform="translate(95.267926 559.118437) scale(0.1 -0.1)">
       <use xlink:href="#DejaVuSans-30"/>
      </g>
     </g>
    </g>
    <g id="xtick_26">
     <g id="line2d_38">
      <g>
       <use xlink:href="#mde725122a5" x="229.485901" y="544.52" style="stroke: #000000; stroke-width: 0.8"/>
      </g>
     </g>
     <g id="text_38">
      <!-- 100 -->
      <g transform="translate(219.942151 559.118437) scale(0.1 -0.1)">
       <use xlink:href="#DejaVuSans-31"/>
       <use xlink:href="#DejaVuSans-30" transform="translate(63.623047 0)"/>
       <use xlink:href="#DejaVuSans-30" transform="translate(127.246094 0)"/>
      </g>
     </g>
    </g>
    <g id="xtick_27">
     <g id="line2d_39">
      <g>
       <use xlink:href="#mde725122a5" x="360.522626" y="544.52" style="stroke: #000000; stroke-width: 0.8"/>
      </g>
     </g>
     <g id="text_39">
      <!-- 200 -->
      <g transform="translate(350.978876 559.118437) scale(0.1 -0.1)">
       <use xlink:href="#DejaVuSans-32"/>
       <use xlink:href="#DejaVuSans-30" transform="translate(63.623047 0)"/>
       <use xlink:href="#DejaVuSans-30" transform="translate(127.246094 0)"/>
      </g>
     </g>
    </g>
    <g id="xtick_28">
     <g id="line2d_40">
      <g>
       <use xlink:href="#mde725122a5" x="491.559351" y="544.52" style="stroke: #000000; stroke-width: 0.8"/>
      </g>
     </g>
     <g id="text_40">
      <!-- 300 -->
      <g transform="translate(482.015601 559.118437) scale(0.1 -0.1)">
       <use xlink:href="#DejaVuSans-33"/>
       <use xlink:href="#DejaVuSans-30" transform="translate(63.623047 0)"/>
       <use xlink:href="#DejaVuSans-30" transform="translate(127.246094 0)"/>
      </g>
     </g>
    </g>
    <g id="xtick_29">
     <g id="line2d_41">
      <g>
       <use xlink:href="#mde725122a5" x="622.596076" y="544.52" style="stroke: #000000; stroke-width: 0.8"/>
      </g>
     </g>
     <g id="text_41">
      <!-- 400 -->
      <g transform="translate(613.052326 559.118437) scale(0.1 -0.1)">
       <use xlink:href="#DejaVuSans-34"/>
       <use xlink:href="#DejaVuSans-30" transform="translate(63.623047 0)"/>
       <use xlink:href="#DejaVuSans-30" transform="translate(127.246094 0)"/>
      </g>
     </g>
    </g>
    <g id="xtick_30">
     <g id="line2d_42">
      <g>
       <use xlink:href="#mde725122a5" x="753.6328" y="544.52" style="stroke: #000000; stroke-width: 0.8"/>
      </g>
     </g>
     <g id="text_42">
      <!-- 500 -->
      <g transform="translate(744.08905 559.118437) scale(0.1 -0.1)">
       <use xlink:href="#DejaVuSans-35"/>
       <use xlink:href="#DejaVuSans-30" transform="translate(63.623047 0)"/>
       <use xlink:href="#DejaVuSans-30" transform="translate(127.246094 0)"/>
      </g>
     </g>
    </g>
    <g id="xtick_31">
     <g id="line2d_43">
      <g>
       <use xlink:href="#mde725122a5" x="884.669525" y="544.52" style="stroke: #000000; stroke-width: 0.8"/>
      </g>
     </g>
     <g id="text_43">
      <!-- 600 -->
      <g transform="translate(875.125775 559.118437) scale(0.1 -0.1)">
       <use xlink:href="#DejaVuSans-36"/>
       <use xlink:href="#DejaVuSans-30" transform="translate(63.623047 0)"/>
       <use xlink:href="#DejaVuSans-30" transform="translate(127.246094 0)"/>
      </g>
     </g>
    </g>
    <g id="xtick_32">
     <g id="line2d_44">
      <g>
       <use xlink:href="#mde725122a5" x="1015.70625" y="544.52" style="stroke: #000000; stroke-width: 0.8"/>
      </g>
     </g>
     <g id="text_44">
      <!-- 700 -->
      <g transform="translate(1006.1625 559.118437) scale(0.1 -0.1)">
       <use xlink:href="#DejaVuSans-37"/>
       <use xlink:href="#DejaVuSans-30" transform="translate(63.623047 0)"/>
       <use xlink:href="#DejaVuSans-30" transform="translate(127.246094 0)"/>
      </g>
     </g>
    </g>
   </g>
   <g id="matplotlib.axis_8">
    <g id="ytick_10">
     <g id="line2d_45">
      <g>
       <use xlink:href="#m247894b110" x="48.982813" y="512.268669" style="stroke: #000000; stroke-width: 0.8"/>
      </g>
     </g>
     <g id="text_45">
      <!-- 64 -->
      <g transform="translate(29.257813 516.067888) scale(0.1 -0.1)">
       <use xlink:href="#DejaVuSans-36"/>
       <use xlink:href="#DejaVuSans-34" transform="translate(63.623047 0)"/>
      </g>
     </g>
    </g>
    <g id="ytick_11">
     <g id="line2d_46">
      <g>
       <use xlink:href="#m247894b110" x="48.982813" y="473.539006" style="stroke: #000000; stroke-width: 0.8"/>
      </g>
     </g>
     <g id="text_46">
      <!-- 66 -->
      <g transform="translate(29.257813 477.338225) scale(0.1 -0.1)">
       <use xlink:href="#DejaVuSans-36"/>
       <use xlink:href="#DejaVuSans-36" transform="translate(63.623047 0)"/>
      </g>
     </g>
    </g>
    <g id="ytick_12">
     <g id="line2d_47">
      <g>
       <use xlink:href="#m247894b110" x="48.982813" y="434.809343" style="stroke: #000000; stroke-width: 0.8"/>
      </g>
     </g>
     <g id="text_47">
      <!-- 68 -->
      <g transform="translate(29.257813 438.608561) scale(0.1 -0.1)">
       <defs>
        <path id="DejaVuSans-38" d="M 2034 2216 
Q 1584 2216 1326 1975 
Q 1069 1734 1069 1313 
Q 1069 891 1326 650 
Q 1584 409 2034 409 
Q 2484 409 2743 651 
Q 3003 894 3003 1313 
Q 3003 1734 2745 1975 
Q 2488 2216 2034 2216 
z
M 1403 2484 
Q 997 2584 770 2862 
Q 544 3141 544 3541 
Q 544 4100 942 4425 
Q 1341 4750 2034 4750 
Q 2731 4750 3128 4425 
Q 3525 4100 3525 3541 
Q 3525 3141 3298 2862 
Q 3072 2584 2669 2484 
Q 3125 2378 3379 2068 
Q 3634 1759 3634 1313 
Q 3634 634 3220 271 
Q 2806 -91 2034 -91 
Q 1263 -91 848 271 
Q 434 634 434 1313 
Q 434 1759 690 2068 
Q 947 2378 1403 2484 
z
M 1172 3481 
Q 1172 3119 1398 2916 
Q 1625 2713 2034 2713 
Q 2441 2713 2670 2916 
Q 2900 3119 2900 3481 
Q 2900 3844 2670 4047 
Q 2441 4250 2034 4250 
Q 1625 4250 1398 4047 
Q 1172 3844 1172 3481 
z
" transform="scale(0.015625)"/>
       </defs>
       <use xlink:href="#DejaVuSans-36"/>
       <use xlink:href="#DejaVuSans-38" transform="translate(63.623047 0)"/>
      </g>
     </g>
    </g>
    <g id="text_48">
     <!-- co-imf2 -->
     <g transform="translate(23.178125 507.525113) rotate(-90) scale(0.1 -0.1)">
      <use xlink:href="#DejaVuSans-63"/>
      <use xlink:href="#DejaVuSans-6f" transform="translate(54.980469 0)"/>
      <use xlink:href="#DejaVuSans-2d" transform="translate(118.037109 0)"/>
      <use xlink:href="#DejaVuSans-69" transform="translate(154.121094 0)"/>
      <use xlink:href="#DejaVuSans-6d" transform="translate(181.904297 0)"/>
      <use xlink:href="#DejaVuSans-66" transform="translate(279.316406 0)"/>
      <use xlink:href="#DejaVuSans-32" transform="translate(314.521484 0)"/>
     </g>
    </g>
   </g>
   <g id="line2d_48">
    <path d="M 98.449176 461.940074 
L 102.380278 462.301002 
L 106.31138 462.887496 
L 110.242481 463.689025 
L 114.173583 464.691108 
L 118.104685 465.879263 
L 123.346154 467.727883 
L 128.587623 469.847223 
L 133.829092 472.202954 
L 140.380928 475.427744 
L 146.932764 478.901209 
L 156.105335 484.054172 
L 183.623047 499.809189 
L 190.174884 503.243456 
L 196.72672 506.427346 
L 201.968189 508.760232 
L 207.209658 510.879917 
L 212.451127 512.76624 
L 217.692596 514.39904 
L 222.934065 515.758155 
L 228.175534 516.823423 
L 232.106635 517.417409 
L 236.037737 517.826261 
L 239.968839 518.041472 
L 243.899941 518.054536 
L 247.831042 517.860214 
L 251.762144 517.470114 
L 257.003613 516.676733 
L 262.245082 515.610541 
L 267.486551 514.314594 
L 274.038387 512.437161 
L 281.900591 509.917582 
L 310.72867 500.364935 
L 318.590874 498.113771 
L 325.14271 496.440113 
L 331.694546 494.984573 
L 338.246383 493.779213 
L 343.487852 493.016598 
L 348.729321 492.451033 
L 353.97079 492.098931 
L 359.212259 491.976707 
L 364.453728 492.100778 
L 369.695197 492.487558 
L 374.936666 493.150653 
L 380.178135 494.07913 
L 385.419604 495.249347 
L 390.661073 496.637553 
L 397.212909 498.643173 
L 403.764745 500.905897 
L 411.626949 503.895225 
L 420.799519 507.65933 
L 435.213559 513.882156 
L 449.627599 520.047098 
L 458.80017 523.714117 
L 466.662373 526.593797 
L 474.524576 529.20165 
L 481.076413 531.16203 
L 487.628249 532.924647 
L 494.180085 534.485487 
L 500.731921 535.840539 
L 507.283758 536.98579 
L 513.835594 537.917227 
L 520.38743 538.630838 
L 526.939266 539.122611 
L 533.491103 539.388532 
L 540.042939 539.42459 
L 546.594775 539.226772 
L 553.146611 538.791065 
L 559.698448 538.113457 
L 566.250284 537.189935 
L 572.80212 536.016486 
L 579.353956 534.589099 
L 585.905793 532.903771 
L 592.457629 530.959013 
L 599.009465 528.760974 
L 605.561301 526.327039 
L 612.113138 523.679191 
L 619.975341 520.250396 
L 627.837545 516.583287 
L 637.010115 512.054526 
L 647.493053 506.622456 
L 661.907093 498.86635 
L 692.04554 482.538904 
L 702.528478 477.130506 
L 711.701049 472.626587 
L 720.873619 468.372692 
L 730.04619 464.378819 
L 739.218761 460.648714 
L 748.391331 457.186109 
L 757.563902 453.994738 
L 765.426106 451.477986 
L 773.288309 449.1656 
L 781.150513 447.059932 
L 789.012716 445.163332 
L 796.87492 443.478151 
L 804.737123 442.006739 
L 812.599327 440.751448 
L 820.46153 439.714628 
L 828.323734 438.89863 
L 836.185937 438.305804 
L 844.048141 437.938502 
L 851.910344 437.799074 
L 859.772548 437.88987 
L 867.634751 438.213243 
L 875.496955 438.771541 
L 883.359158 439.567117 
L 891.221362 440.60232 
L 899.083565 441.879283 
L 906.945769 443.394216 
L 914.807972 445.136286 
L 922.670176 447.094174 
L 930.532379 449.256564 
L 939.70495 452.02272 
L 948.877521 455.033849 
L 958.050091 458.271979 
L 968.533029 462.227604 
L 979.015967 466.429421 
L 990.809272 471.417336 
L 1002.602578 476.644688 
L 1015.70625 482.687219 
L 1031.430657 490.192427 
L 1051.086166 499.833001 
L 1087.776449 518.020616 
L 1087.776449 518.020616 
" clip-path="url(#p190fdb9a53)" style="fill: none; stroke: #f27f19; stroke-width: 1.5; stroke-linecap: square"/>
   </g>
   <g id="patch_18">
    <path d="M 48.982813 544.52 
L 48.982813 432.716163 
" style="fill: none; stroke: #000000; stroke-width: 0.8; stroke-linejoin: miter; stroke-linecap: square"/>
   </g>
   <g id="patch_19">
    <path d="M 1137.242813 544.52 
L 1137.242813 432.716163 
" style="fill: none; stroke: #000000; stroke-width: 0.8; stroke-linejoin: miter; stroke-linecap: square"/>
   </g>
   <g id="patch_20">
    <path d="M 48.982813 544.52 
L 1137.242813 544.52 
" style="fill: none; stroke: #000000; stroke-width: 0.8; stroke-linejoin: miter; stroke-linecap: square"/>
   </g>
   <g id="patch_21">
    <path d="M 48.982813 432.716163 
L 1137.242813 432.716163 
" style="fill: none; stroke: #000000; stroke-width: 0.8; stroke-linejoin: miter; stroke-linecap: square"/>
   </g>
  </g>
 </g>
 <defs>
  <clipPath id="p66b8a6c12f">
   <rect x="48.982813" y="7.2" width="1088.26" height="111.803837"/>
  </clipPath>
  <clipPath id="p85867d9912">
   <rect x="48.982813" y="149.038721" width="1088.26" height="111.803837"/>
  </clipPath>
  <clipPath id="p349a7adcea">
   <rect x="48.982813" y="290.877442" width="1088.26" height="111.803837"/>
  </clipPath>
  <clipPath id="p190fdb9a53">
   <rect x="48.982813" y="432.716163" width="1088.26" height="111.803837"/>
  </clipPath>
 </defs>
</svg>
