<?xml version="1.0" encoding="utf-8" standalone="no"?>
<!DOCTYPE svg PUBLIC "-//W3C//DTD SVG 1.1//EN"
  "http://www.w3.org/Graphics/SVG/1.1/DTD/svg11.dtd">
<svg xmlns:xlink="http://www.w3.org/1999/xlink" width="1144.657812pt" height="568.398125pt" viewBox="0 0 1144.657812 568.398125" xmlns="http://www.w3.org/2000/svg" version="1.1">
 <metadata>
  <rdf:RDF xmlns:dc="http://purl.org/dc/elements/1.1/" xmlns:cc="http://creativecommons.org/ns#" xmlns:rdf="http://www.w3.org/1999/02/22-rdf-syntax-ns#">
   <cc:Work>
    <dc:type rdf:resource="http://purl.org/dc/dcmitype/StillImage"/>
    <dc:date>2025-04-14T14:17:56.990090</dc:date>
    <dc:format>image/svg+xml</dc:format>
    <dc:creator>
     <cc:Agent>
      <dc:title>Matplotlib v3.10.1, https://matplotlib.org/</dc:title>
     </cc:Agent>
    </dc:creator>
   </cc:Work>
  </rdf:RDF>
 </metadata>
 <defs>
  <style type="text/css">*{stroke-linejoin: round; stroke-linecap: butt}</style>
 </defs>
 <g id="figure_1">
  <g id="patch_1">
   <path d="M 0 568.398125 
L 1144.657812 568.398125 
L 1144.657812 0 
L 0 0 
z
" style="fill: #ffffff"/>
  </g>
  <g id="axes_1">
   <g id="patch_2">
    <path d="M 61.707813 120.62 
L 1137.457813 120.62 
L 1137.457813 7.2 
L 61.707813 7.2 
z
" style="fill: #ffffff"/>
   </g>
   <g id="matplotlib.axis_1">
    <g id="xtick_1">
     <g id="line2d_1">
      <defs>
       <path id="mae7dbba1c1" d="M 0 0 
L 0 3.5 
" style="stroke: #000000; stroke-width: 0.8"/>
      </defs>
      <g>
       <use xlink:href="#mae7dbba1c1" x="110.60554" y="120.62" style="stroke: #000000; stroke-width: 0.8"/>
      </g>
     </g>
     <g id="text_1">
      <!-- 0 -->
      <g transform="translate(107.42429 135.218437) scale(0.1 -0.1)">
       <defs>
        <path id="DejaVuSans-30" d="M 2034 4250 
Q 1547 4250 1301 3770 
Q 1056 3291 1056 2328 
Q 1056 1369 1301 889 
Q 1547 409 2034 409 
Q 2525 409 2770 889 
Q 3016 1369 3016 2328 
Q 3016 3291 2770 3770 
Q 2525 4250 2034 4250 
z
M 2034 4750 
Q 2819 4750 3233 4129 
Q 3647 3509 3647 2328 
Q 3647 1150 3233 529 
Q 2819 -91 2034 -91 
Q 1250 -91 836 529 
Q 422 1150 422 2328 
Q 422 3509 836 4129 
Q 1250 4750 2034 4750 
z
" transform="scale(0.015625)"/>
       </defs>
       <use xlink:href="#DejaVuSans-30"/>
      </g>
     </g>
    </g>
    <g id="xtick_2">
     <g id="line2d_2">
      <g>
       <use xlink:href="#mae7dbba1c1" x="300.315442" y="120.62" style="stroke: #000000; stroke-width: 0.8"/>
      </g>
     </g>
     <g id="text_2">
      <!-- 200 -->
      <g transform="translate(290.771692 135.218437) scale(0.1 -0.1)">
       <defs>
        <path id="DejaVuSans-32" d="M 1228 531 
L 3431 531 
L 3431 0 
L 469 0 
L 469 531 
Q 828 903 1448 1529 
Q 2069 2156 2228 2338 
Q 2531 2678 2651 2914 
Q 2772 3150 2772 3378 
Q 2772 3750 2511 3984 
Q 2250 4219 1831 4219 
Q 1534 4219 1204 4116 
Q 875 4013 500 3803 
L 500 4441 
Q 881 4594 1212 4672 
Q 1544 4750 1819 4750 
Q 2544 4750 2975 4387 
Q 3406 4025 3406 3419 
Q 3406 3131 3298 2873 
Q 3191 2616 2906 2266 
Q 2828 2175 2409 1742 
Q 1991 1309 1228 531 
z
" transform="scale(0.015625)"/>
       </defs>
       <use xlink:href="#DejaVuSans-32"/>
       <use xlink:href="#DejaVuSans-30" transform="translate(63.623047 0)"/>
       <use xlink:href="#DejaVuSans-30" transform="translate(127.246094 0)"/>
      </g>
     </g>
    </g>
    <g id="xtick_3">
     <g id="line2d_3">
      <g>
       <use xlink:href="#mae7dbba1c1" x="490.025344" y="120.62" style="stroke: #000000; stroke-width: 0.8"/>
      </g>
     </g>
     <g id="text_3">
      <!-- 400 -->
      <g transform="translate(480.481594 135.218437) scale(0.1 -0.1)">
       <defs>
        <path id="DejaVuSans-34" d="M 2419 4116 
L 825 1625 
L 2419 1625 
L 2419 4116 
z
M 2253 4666 
L 3047 4666 
L 3047 1625 
L 3713 1625 
L 3713 1100 
L 3047 1100 
L 3047 0 
L 2419 0 
L 2419 1100 
L 313 1100 
L 313 1709 
L 2253 4666 
z
" transform="scale(0.015625)"/>
       </defs>
       <use xlink:href="#DejaVuSans-34"/>
       <use xlink:href="#DejaVuSans-30" transform="translate(63.623047 0)"/>
       <use xlink:href="#DejaVuSans-30" transform="translate(127.246094 0)"/>
      </g>
     </g>
    </g>
    <g id="xtick_4">
     <g id="line2d_4">
      <g>
       <use xlink:href="#mae7dbba1c1" x="679.735246" y="120.62" style="stroke: #000000; stroke-width: 0.8"/>
      </g>
     </g>
     <g id="text_4">
      <!-- 600 -->
      <g transform="translate(670.191496 135.218437) scale(0.1 -0.1)">
       <defs>
        <path id="DejaVuSans-36" d="M 2113 2584 
Q 1688 2584 1439 2293 
Q 1191 2003 1191 1497 
Q 1191 994 1439 701 
Q 1688 409 2113 409 
Q 2538 409 2786 701 
Q 3034 994 3034 1497 
Q 3034 2003 2786 2293 
Q 2538 2584 2113 2584 
z
M 3366 4563 
L 3366 3988 
Q 3128 4100 2886 4159 
Q 2644 4219 2406 4219 
Q 1781 4219 1451 3797 
Q 1122 3375 1075 2522 
Q 1259 2794 1537 2939 
Q 1816 3084 2150 3084 
Q 2853 3084 3261 2657 
Q 3669 2231 3669 1497 
Q 3669 778 3244 343 
Q 2819 -91 2113 -91 
Q 1303 -91 875 529 
Q 447 1150 447 2328 
Q 447 3434 972 4092 
Q 1497 4750 2381 4750 
Q 2619 4750 2861 4703 
Q 3103 4656 3366 4563 
z
" transform="scale(0.015625)"/>
       </defs>
       <use xlink:href="#DejaVuSans-36"/>
       <use xlink:href="#DejaVuSans-30" transform="translate(63.623047 0)"/>
       <use xlink:href="#DejaVuSans-30" transform="translate(127.246094 0)"/>
      </g>
     </g>
    </g>
    <g id="xtick_5">
     <g id="line2d_5">
      <g>
       <use xlink:href="#mae7dbba1c1" x="869.445148" y="120.62" style="stroke: #000000; stroke-width: 0.8"/>
      </g>
     </g>
     <g id="text_5">
      <!-- 800 -->
      <g transform="translate(859.901398 135.218437) scale(0.1 -0.1)">
       <defs>
        <path id="DejaVuSans-38" d="M 2034 2216 
Q 1584 2216 1326 1975 
Q 1069 1734 1069 1313 
Q 1069 891 1326 650 
Q 1584 409 2034 409 
Q 2484 409 2743 651 
Q 3003 894 3003 1313 
Q 3003 1734 2745 1975 
Q 2488 2216 2034 2216 
z
M 1403 2484 
Q 997 2584 770 2862 
Q 544 3141 544 3541 
Q 544 4100 942 4425 
Q 1341 4750 2034 4750 
Q 2731 4750 3128 4425 
Q 3525 4100 3525 3541 
Q 3525 3141 3298 2862 
Q 3072 2584 2669 2484 
Q 3125 2378 3379 2068 
Q 3634 1759 3634 1313 
Q 3634 634 3220 271 
Q 2806 -91 2034 -91 
Q 1263 -91 848 271 
Q 434 634 434 1313 
Q 434 1759 690 2068 
Q 947 2378 1403 2484 
z
M 1172 3481 
Q 1172 3119 1398 2916 
Q 1625 2713 2034 2713 
Q 2441 2713 2670 2916 
Q 2900 3119 2900 3481 
Q 2900 3844 2670 4047 
Q 2441 4250 2034 4250 
Q 1625 4250 1398 4047 
Q 1172 3844 1172 3481 
z
" transform="scale(0.015625)"/>
       </defs>
       <use xlink:href="#DejaVuSans-38"/>
       <use xlink:href="#DejaVuSans-30" transform="translate(63.623047 0)"/>
       <use xlink:href="#DejaVuSans-30" transform="translate(127.246094 0)"/>
      </g>
     </g>
    </g>
    <g id="xtick_6">
     <g id="line2d_6">
      <g>
       <use xlink:href="#mae7dbba1c1" x="1059.15505" y="120.62" style="stroke: #000000; stroke-width: 0.8"/>
      </g>
     </g>
     <g id="text_6">
      <!-- 1000 -->
      <g transform="translate(1046.43005 135.218437) scale(0.1 -0.1)">
       <defs>
        <path id="DejaVuSans-31" d="M 794 531 
L 1825 531 
L 1825 4091 
L 703 3866 
L 703 4441 
L 1819 4666 
L 2450 4666 
L 2450 531 
L 3481 531 
L 3481 0 
L 794 0 
L 794 531 
z
" transform="scale(0.015625)"/>
       </defs>
       <use xlink:href="#DejaVuSans-31"/>
       <use xlink:href="#DejaVuSans-30" transform="translate(63.623047 0)"/>
       <use xlink:href="#DejaVuSans-30" transform="translate(127.246094 0)"/>
       <use xlink:href="#DejaVuSans-30" transform="translate(190.869141 0)"/>
      </g>
     </g>
    </g>
   </g>
   <g id="matplotlib.axis_2">
    <g id="ytick_1">
     <g id="line2d_7">
      <defs>
       <path id="m233527e2f4" d="M 0 0 
L -3.5 0 
" style="stroke: #000000; stroke-width: 0.8"/>
      </defs>
      <g>
       <use xlink:href="#m233527e2f4" x="61.707813" y="104.828334" style="stroke: #000000; stroke-width: 0.8"/>
      </g>
     </g>
     <g id="text_7">
      <!-- 4000 -->
      <g transform="translate(29.257812 108.627552) scale(0.1 -0.1)">
       <use xlink:href="#DejaVuSans-34"/>
       <use xlink:href="#DejaVuSans-30" transform="translate(63.623047 0)"/>
       <use xlink:href="#DejaVuSans-30" transform="translate(127.246094 0)"/>
       <use xlink:href="#DejaVuSans-30" transform="translate(190.869141 0)"/>
      </g>
     </g>
    </g>
    <g id="ytick_2">
     <g id="line2d_8">
      <g>
       <use xlink:href="#m233527e2f4" x="61.707813" y="79.741703" style="stroke: #000000; stroke-width: 0.8"/>
      </g>
     </g>
     <g id="text_8">
      <!-- 6000 -->
      <g transform="translate(29.257812 83.540922) scale(0.1 -0.1)">
       <use xlink:href="#DejaVuSans-36"/>
       <use xlink:href="#DejaVuSans-30" transform="translate(63.623047 0)"/>
       <use xlink:href="#DejaVuSans-30" transform="translate(127.246094 0)"/>
       <use xlink:href="#DejaVuSans-30" transform="translate(190.869141 0)"/>
      </g>
     </g>
    </g>
    <g id="ytick_3">
     <g id="line2d_9">
      <g>
       <use xlink:href="#m233527e2f4" x="61.707813" y="54.655072" style="stroke: #000000; stroke-width: 0.8"/>
      </g>
     </g>
     <g id="text_9">
      <!-- 8000 -->
      <g transform="translate(29.257812 58.454291) scale(0.1 -0.1)">
       <use xlink:href="#DejaVuSans-38"/>
       <use xlink:href="#DejaVuSans-30" transform="translate(63.623047 0)"/>
       <use xlink:href="#DejaVuSans-30" transform="translate(127.246094 0)"/>
       <use xlink:href="#DejaVuSans-30" transform="translate(190.869141 0)"/>
      </g>
     </g>
    </g>
    <g id="ytick_4">
     <g id="line2d_10">
      <g>
       <use xlink:href="#m233527e2f4" x="61.707813" y="29.568441" style="stroke: #000000; stroke-width: 0.8"/>
      </g>
     </g>
     <g id="text_10">
      <!-- 10000 -->
      <g transform="translate(22.895313 33.36766) scale(0.1 -0.1)">
       <use xlink:href="#DejaVuSans-31"/>
       <use xlink:href="#DejaVuSans-30" transform="translate(63.623047 0)"/>
       <use xlink:href="#DejaVuSans-30" transform="translate(127.246094 0)"/>
       <use xlink:href="#DejaVuSans-30" transform="translate(190.869141 0)"/>
       <use xlink:href="#DejaVuSans-30" transform="translate(254.492188 0)"/>
      </g>
     </g>
    </g>
    <g id="text_11">
     <!-- Original Data -->
     <g transform="translate(16.815625 97.002969) rotate(-90) scale(0.1 -0.1)">
      <defs>
       <path id="DejaVuSans-4f" d="M 2522 4238 
Q 1834 4238 1429 3725 
Q 1025 3213 1025 2328 
Q 1025 1447 1429 934 
Q 1834 422 2522 422 
Q 3209 422 3611 934 
Q 4013 1447 4013 2328 
Q 4013 3213 3611 3725 
Q 3209 4238 2522 4238 
z
M 2522 4750 
Q 3503 4750 4090 4092 
Q 4678 3434 4678 2328 
Q 4678 1225 4090 567 
Q 3503 -91 2522 -91 
Q 1538 -91 948 565 
Q 359 1222 359 2328 
Q 359 3434 948 4092 
Q 1538 4750 2522 4750 
z
" transform="scale(0.015625)"/>
       <path id="DejaVuSans-72" d="M 2631 2963 
Q 2534 3019 2420 3045 
Q 2306 3072 2169 3072 
Q 1681 3072 1420 2755 
Q 1159 2438 1159 1844 
L 1159 0 
L 581 0 
L 581 3500 
L 1159 3500 
L 1159 2956 
Q 1341 3275 1631 3429 
Q 1922 3584 2338 3584 
Q 2397 3584 2469 3576 
Q 2541 3569 2628 3553 
L 2631 2963 
z
" transform="scale(0.015625)"/>
       <path id="DejaVuSans-69" d="M 603 3500 
L 1178 3500 
L 1178 0 
L 603 0 
L 603 3500 
z
M 603 4863 
L 1178 4863 
L 1178 4134 
L 603 4134 
L 603 4863 
z
" transform="scale(0.015625)"/>
       <path id="DejaVuSans-67" d="M 2906 1791 
Q 2906 2416 2648 2759 
Q 2391 3103 1925 3103 
Q 1463 3103 1205 2759 
Q 947 2416 947 1791 
Q 947 1169 1205 825 
Q 1463 481 1925 481 
Q 2391 481 2648 825 
Q 2906 1169 2906 1791 
z
M 3481 434 
Q 3481 -459 3084 -895 
Q 2688 -1331 1869 -1331 
Q 1566 -1331 1297 -1286 
Q 1028 -1241 775 -1147 
L 775 -588 
Q 1028 -725 1275 -790 
Q 1522 -856 1778 -856 
Q 2344 -856 2625 -561 
Q 2906 -266 2906 331 
L 2906 616 
Q 2728 306 2450 153 
Q 2172 0 1784 0 
Q 1141 0 747 490 
Q 353 981 353 1791 
Q 353 2603 747 3093 
Q 1141 3584 1784 3584 
Q 2172 3584 2450 3431 
Q 2728 3278 2906 2969 
L 2906 3500 
L 3481 3500 
L 3481 434 
z
" transform="scale(0.015625)"/>
       <path id="DejaVuSans-6e" d="M 3513 2113 
L 3513 0 
L 2938 0 
L 2938 2094 
Q 2938 2591 2744 2837 
Q 2550 3084 2163 3084 
Q 1697 3084 1428 2787 
Q 1159 2491 1159 1978 
L 1159 0 
L 581 0 
L 581 3500 
L 1159 3500 
L 1159 2956 
Q 1366 3272 1645 3428 
Q 1925 3584 2291 3584 
Q 2894 3584 3203 3211 
Q 3513 2838 3513 2113 
z
" transform="scale(0.015625)"/>
       <path id="DejaVuSans-61" d="M 2194 1759 
Q 1497 1759 1228 1600 
Q 959 1441 959 1056 
Q 959 750 1161 570 
Q 1363 391 1709 391 
Q 2188 391 2477 730 
Q 2766 1069 2766 1631 
L 2766 1759 
L 2194 1759 
z
M 3341 1997 
L 3341 0 
L 2766 0 
L 2766 531 
Q 2569 213 2275 61 
Q 1981 -91 1556 -91 
Q 1019 -91 701 211 
Q 384 513 384 1019 
Q 384 1609 779 1909 
Q 1175 2209 1959 2209 
L 2766 2209 
L 2766 2266 
Q 2766 2663 2505 2880 
Q 2244 3097 1772 3097 
Q 1472 3097 1187 3025 
Q 903 2953 641 2809 
L 641 3341 
Q 956 3463 1253 3523 
Q 1550 3584 1831 3584 
Q 2591 3584 2966 3190 
Q 3341 2797 3341 1997 
z
" transform="scale(0.015625)"/>
       <path id="DejaVuSans-6c" d="M 603 4863 
L 1178 4863 
L 1178 0 
L 603 0 
L 603 4863 
z
" transform="scale(0.015625)"/>
       <path id="DejaVuSans-20" transform="scale(0.015625)"/>
       <path id="DejaVuSans-44" d="M 1259 4147 
L 1259 519 
L 2022 519 
Q 2988 519 3436 956 
Q 3884 1394 3884 2338 
Q 3884 3275 3436 3711 
Q 2988 4147 2022 4147 
L 1259 4147 
z
M 628 4666 
L 1925 4666 
Q 3281 4666 3915 4102 
Q 4550 3538 4550 2338 
Q 4550 1131 3912 565 
Q 3275 0 1925 0 
L 628 0 
L 628 4666 
z
" transform="scale(0.015625)"/>
       <path id="DejaVuSans-74" d="M 1172 4494 
L 1172 3500 
L 2356 3500 
L 2356 3053 
L 1172 3053 
L 1172 1153 
Q 1172 725 1289 603 
Q 1406 481 1766 481 
L 2356 481 
L 2356 0 
L 1766 0 
Q 1100 0 847 248 
Q 594 497 594 1153 
L 594 3053 
L 172 3053 
L 172 3500 
L 594 3500 
L 594 4494 
L 1172 4494 
z
" transform="scale(0.015625)"/>
      </defs>
      <use xlink:href="#DejaVuSans-4f"/>
      <use xlink:href="#DejaVuSans-72" transform="translate(78.710938 0)"/>
      <use xlink:href="#DejaVuSans-69" transform="translate(119.824219 0)"/>
      <use xlink:href="#DejaVuSans-67" transform="translate(147.607422 0)"/>
      <use xlink:href="#DejaVuSans-69" transform="translate(211.083984 0)"/>
      <use xlink:href="#DejaVuSans-6e" transform="translate(238.867188 0)"/>
      <use xlink:href="#DejaVuSans-61" transform="translate(302.246094 0)"/>
      <use xlink:href="#DejaVuSans-6c" transform="translate(363.525391 0)"/>
      <use xlink:href="#DejaVuSans-20" transform="translate(391.308594 0)"/>
      <use xlink:href="#DejaVuSans-44" transform="translate(423.095703 0)"/>
      <use xlink:href="#DejaVuSans-61" transform="translate(500.097656 0)"/>
      <use xlink:href="#DejaVuSans-74" transform="translate(561.376953 0)"/>
      <use xlink:href="#DejaVuSans-61" transform="translate(600.585938 0)"/>
     </g>
    </g>
   </g>
   <g id="line2d_11">
    <path d="M 110.60554 112.383942 
L 113.451188 112.831237 
L 121.988134 114.530163 
L 123.885233 114.908229 
L 124.833782 115.01036 
L 125.782332 114.993506 
L 126.730881 114.831962 
L 127.679431 114.540932 
L 130.525079 113.271142 
L 131.473629 113.000803 
L 132.422179 112.917474 
L 133.370728 113.012347 
L 136.216377 114.004085 
L 137.164926 114.215636 
L 139.062025 114.217428 
L 142.856223 113.845155 
L 144.753322 113.916169 
L 148.54752 114.358284 
L 150.444619 114.403584 
L 153.290268 114.347601 
L 159.930114 114.401335 
L 161.827213 114.52355 
L 164.672862 114.581064 
L 167.51851 114.567709 
L 170.364159 114.005038 
L 171.312708 113.935034 
L 180.798204 114.807441 
L 182.695303 115.041319 
L 186.489501 115.096346 
L 187.43805 115.068366 
L 188.3866 114.810156 
L 190.283699 113.901447 
L 192.180798 113.256084 
L 193.129347 113.038709 
L 194.077897 113.006161 
L 196.923545 113.643344 
L 199.769194 114.326824 
L 200.717743 114.500303 
L 201.666293 114.482448 
L 202.614842 114.24603 
L 204.511941 114.130744 
L 207.35759 114.008053 
L 209.254689 114.204307 
L 212.100337 114.810348 
L 213.048887 114.823175 
L 216.843085 114.043434 
L 218.740184 114.027031 
L 222.534382 114.612194 
L 224.431481 114.755444 
L 226.32858 114.780219 
L 229.174229 114.970076 
L 234.865526 115.0915 
L 245.29957 115.153388 
L 247.196669 114.749857 
L 248.145219 114.471935 
L 249.093768 114.319828 
L 254.785065 114.267637 
L 256.682164 113.983322 
L 258.579263 114.025795 
L 261.424912 114.464135 
L 263.322011 114.628847 
L 270.910407 114.947531 
L 273.756056 115.10822 
L 278.498803 115.069652 
L 283.241551 115.120213 
L 287.035749 114.462162 
L 288.932848 114.351831 
L 289.881397 114.473132 
L 290.829947 114.470169 
L 292.727046 114.328214 
L 295.572694 114.361601 
L 306.955288 114.478267 
L 311.698036 114.540493 
L 317.389333 114.344917 
L 323.08063 113.166306 
L 324.977729 113.42457 
L 327.823378 114.216901 
L 328.771927 114.366328 
L 330.669026 114.367535 
L 334.463224 114.139039 
L 337.308873 114.374482 
L 339.205972 114.345566 
L 344.897269 114.001506 
L 346.794368 114.239449 
L 349.640016 114.548814 
L 359.125512 114.72251 
L 368.611007 114.498671 
L 371.456655 114.406063 
L 374.302304 114.605767 
L 376.199403 114.763984 
L 381.8907 114.790993 
L 383.787799 115.014251 
L 386.633447 115.059875 
L 392.324744 114.886406 
L 398.964591 114.960638 
L 406.552987 115.000964 
L 416.038482 115.407266 
L 417.935581 115.261087 
L 420.78123 114.516833 
L 421.729779 114.446593 
L 424.575428 115.033212 
L 425.523977 115.209159 
L 427.421076 115.269133 
L 430.266725 115.000314 
L 433.112373 114.711892 
L 434.060923 114.464015 
L 435.009472 114.338727 
L 435.958022 114.326919 
L 436.906571 114.464124 
L 438.80367 115.052524 
L 440.700769 115.353498 
L 443.546418 115.464545 
L 444.494968 115.351825 
L 445.443517 115.122166 
L 446.392067 114.676031 
L 447.340616 113.980191 
L 448.289166 113.64283 
L 452.083364 113.786939 
L 458.72321 112.973698 
L 459.67176 112.985127 
L 461.568859 113.392074 
L 462.517408 113.769796 
L 463.465958 113.801506 
L 466.311606 112.785552 
L 467.260156 112.044967 
L 468.208705 110.953466 
L 469.157255 106.035603 
L 470.105804 105.484928 
L 472.002903 105.390762 
L 473.900002 107.419741 
L 474.848552 108.480753 
L 475.797101 109.26063 
L 476.745651 109.578967 
L 478.64275 108.912218 
L 479.591299 108.628883 
L 480.539849 108.675002 
L 481.488398 109.236117 
L 482.436948 109.402959 
L 483.385497 109.276575 
L 484.334047 109.02524 
L 485.282596 108.477177 
L 486.231146 108.095132 
L 487.179695 107.8951 
L 488.128245 108.268505 
L 489.076795 109.3879 
L 490.025344 109.706117 
L 492.870993 108.488221 
L 493.819542 108.143978 
L 498.56229 107.650865 
L 499.510839 107.766324 
L 501.407938 108.283613 
L 503.305037 108.559967 
L 509.944884 108.744607 
L 513.739082 108.776727 
L 518.481829 108.506149 
L 520.378928 108.66981 
L 524.173126 109.290056 
L 526.070225 109.206282 
L 528.915874 108.620035 
L 530.812973 108.485194 
L 535.555721 108.30489 
L 537.45282 108.188044 
L 540.298468 108.337315 
L 543.144117 108.592904 
L 544.092666 108.40589 
L 545.041216 108.464925 
L 546.938315 108.918606 
L 547.886864 109.047588 
L 548.835414 109.034942 
L 550.732513 108.685192 
L 552.629612 108.456158 
L 554.526711 108.157882 
L 556.42381 108.159945 
L 558.320909 108.293096 
L 561.166557 108.227965 
L 566.857854 107.871832 
L 567.806404 107.584457 
L 570.652052 105.991593 
L 574.44625 103.889936 
L 575.3948 103.470395 
L 576.343349 103.173635 
L 577.291899 103.003352 
L 579.188998 103.070154 
L 581.086097 103.295912 
L 582.983196 103.278428 
L 583.931746 103.373573 
L 584.880295 103.80339 
L 585.828845 104.63227 
L 586.777394 105.176223 
L 587.725944 105.478282 
L 588.674493 105.487245 
L 590.571592 104.663356 
L 592.468691 104.043777 
L 596.262889 103.66357 
L 599.108538 104.217943 
L 600.057087 104.306669 
L 601.954186 104.294568 
L 604.799835 104.651288 
L 608.594033 105.075627 
L 611.439681 105.151129 
L 613.33678 105.087882 
L 615.233879 104.949663 
L 617.130978 104.979294 
L 620.925176 105.417854 
L 626.616474 105.103591 
L 630.410672 105.020873 
L 632.307771 105.059882 
L 635.153419 105.232984 
L 638.947617 105.373274 
L 642.741815 105.024895 
L 645.587464 104.872357 
L 649.381662 104.942629 
L 652.22731 105.231731 
L 654.124409 105.196127 
L 657.918607 104.898201 
L 660.764256 104.491743 
L 663.609904 103.847761 
L 664.558454 103.930025 
L 665.507003 104.325405 
L 667.404103 104.736757 
L 669.301202 104.991171 
L 671.198301 104.990008 
L 675.941048 105.008278 
L 678.786697 104.996319 
L 681.632345 104.790025 
L 684.477994 104.262438 
L 686.375093 103.72076 
L 687.323642 104.014086 
L 688.272192 103.912661 
L 690.169291 104.068457 
L 692.06639 104.043961 
L 700.603335 103.551993 
L 701.551885 103.243859 
L 702.500434 102.765078 
L 703.448984 102.067646 
L 704.397533 101.186487 
L 705.346083 100.092659 
L 706.294632 99.488052 
L 710.08883 99.369761 
L 711.98593 99.462606 
L 716.728677 100.179275 
L 717.677227 100.173015 
L 718.625776 100.050412 
L 719.574326 99.80495 
L 720.522875 99.410174 
L 721.471425 99.174723 
L 723.368524 98.983476 
L 724.317073 98.857366 
L 725.265623 98.477765 
L 726.214172 97.790983 
L 727.162722 97.609584 
L 729.059821 98.225868 
L 730.95692 99.104161 
L 732.854019 99.596367 
L 733.802568 99.692825 
L 734.751118 99.940072 
L 735.699667 100.341242 
L 736.648217 100.353399 
L 737.596766 99.996929 
L 738.545316 99.437346 
L 739.493865 98.551038 
L 740.442415 97.970341 
L 743.288063 97.27334 
L 744.236613 97.29643 
L 747.082261 97.874449 
L 748.030811 97.978219 
L 751.825009 97.953878 
L 753.722108 97.876647 
L 756.567757 97.521288 
L 757.516306 97.569612 
L 758.464856 97.789845 
L 759.413405 97.80665 
L 760.361955 97.626104 
L 761.310504 97.685521 
L 762.259054 97.930836 
L 764.156153 97.998691 
L 765.104702 97.748638 
L 766.053252 97.185614 
L 767.001801 96.884814 
L 767.950351 96.826151 
L 768.8989 96.949358 
L 770.795999 97.746189 
L 772.693098 98.203821 
L 779.332945 98.014341 
L 780.281494 97.787175 
L 783.127143 96.556159 
L 785.024242 95.969461 
L 785.972791 95.929215 
L 787.86989 96.439253 
L 789.766989 97.216244 
L 792.612638 97.857623 
L 794.509737 97.959731 
L 796.406836 97.666774 
L 797.355385 97.340774 
L 799.252484 96.465802 
L 800.201034 96.113143 
L 801.149584 95.892965 
L 803.046683 95.956429 
L 804.943782 96.410336 
L 808.73798 97.013829 
L 810.635079 96.891633 
L 812.532178 96.602673 
L 814.429277 96.60291 
L 815.377826 96.69727 
L 816.326376 96.668202 
L 818.223475 96.410298 
L 819.172024 96.341774 
L 820.120574 96.530639 
L 821.069123 97.033696 
L 822.017673 97.342488 
L 822.966222 97.499906 
L 823.914772 97.509251 
L 824.863321 97.255197 
L 825.811871 97.136743 
L 827.70897 97.161098 
L 832.451717 97.793727 
L 836.245915 98.260533 
L 838.143014 98.187779 
L 839.091564 97.911433 
L 840.040113 97.407549 
L 840.988663 97.040487 
L 841.937212 96.798051 
L 842.885762 96.674489 
L 844.782861 96.909863 
L 848.577059 97.795456 
L 851.422708 98.103482 
L 853.319807 97.996278 
L 855.216906 97.60784 
L 859.011104 96.895899 
L 860.908203 96.79327 
L 861.856752 96.873308 
L 863.753851 97.203802 
L 865.65095 97.30704 
L 867.548049 97.210819 
L 869.445148 97.274544 
L 871.342247 97.430684 
L 874.187896 97.069745 
L 876.084995 96.89456 
L 881.776292 96.802581 
L 884.62194 96.65248 
L 886.519039 96.740661 
L 887.467589 96.707468 
L 888.416138 96.502004 
L 890.313238 95.564057 
L 892.210337 94.366025 
L 893.158886 93.994323 
L 894.107436 93.311932 
L 895.055985 92.486441 
L 896.004535 92.576248 
L 896.953084 93.56364 
L 897.901634 96.291226 
L 898.850183 95.753664 
L 899.798733 95.711235 
L 900.747282 94.580413 
L 901.695832 93.819804 
L 903.592931 93.226364 
L 904.54148 93.286158 
L 905.49003 93.203279 
L 906.438579 92.999524 
L 907.387129 92.986435 
L 909.284228 93.117732 
L 914.026975 93.037818 
L 914.975525 93.194973 
L 915.924074 93.524948 
L 916.872624 93.645851 
L 918.769723 93.406879 
L 919.718272 93.081197 
L 920.666822 92.901045 
L 923.51247 92.755408 
L 926.358119 92.692513 
L 928.255218 92.868799 
L 929.203767 93.03342 
L 930.152317 92.931286 
L 931.100866 92.53093 
L 932.049416 92.637635 
L 932.997965 93.219545 
L 933.946515 94.180472 
L 934.895065 94.970472 
L 935.843614 94.913441 
L 936.792164 93.63063 
L 937.740713 93.005238 
L 939.637812 92.703074 
L 940.586362 93.038618 
L 941.534911 92.515513 
L 942.483461 92.353225 
L 943.43201 92.026125 
L 944.38056 91.829142 
L 945.329109 91.214625 
L 946.277659 90.202969 
L 947.226208 90.039046 
L 948.174758 90.732881 
L 949.123307 90.832902 
L 950.071857 90.458255 
L 951.020406 90.217254 
L 951.968956 89.833421 
L 952.917505 87.244705 
L 953.866055 72.805895 
L 954.814604 50.413199 
L 955.763154 42.227056 
L 956.711703 22.385529 
L 957.660253 17.886565 
L 958.608802 12.355455 
L 959.557352 13.183407 
L 960.505901 34.504149 
L 961.454451 36.953576 
L 962.403 42.04 
L 964.300099 42.334903 
L 965.248649 42.913106 
L 967.145748 42.011519 
L 968.094297 41.624898 
L 969.991396 41.471393 
L 971.888495 41.764846 
L 973.785594 41.723625 
L 974.734144 41.561024 
L 975.682693 41.643663 
L 976.631243 41.989592 
L 977.579792 41.902753 
L 978.528342 41.419166 
L 980.425441 41.079208 
L 981.373991 41.184852 
L 982.32254 41.670241 
L 983.27109 41.667414 
L 984.219639 41.205375 
L 985.168189 40.529337 
L 986.116738 39.549974 
L 987.065288 38.901116 
L 988.013837 38.653766 
L 988.962387 38.622103 
L 990.859486 39.410034 
L 992.756585 40.62361 
L 993.705134 41.091237 
L 994.653684 41.434629 
L 996.550783 41.681229 
L 998.447882 41.666832 
L 1000.344981 41.546343 
L 1002.24208 41.69184 
L 1004.139179 42.07716 
L 1006.036278 42.102671 
L 1008.881926 41.544319 
L 1010.779025 41.188533 
L 1015.521773 41.327184 
L 1016.470322 41.565216 
L 1017.418872 41.6651 
L 1018.367421 41.631304 
L 1019.315971 41.442228 
L 1021.21307 40.676559 
L 1022.161619 42.98971 
L 1023.110169 43.019848 
L 1025.955818 41.943474 
L 1026.904367 41.719726 
L 1030.698565 42.289443 
L 1031.647115 42.528688 
L 1032.595664 42.148299 
L 1033.544214 41.061945 
L 1034.492763 40.508798 
L 1035.441313 40.385264 
L 1036.389862 40.642093 
L 1037.338412 41.559041 
L 1038.286961 42.060415 
L 1041.13261 42.319367 
L 1042.081159 41.92148 
L 1043.029709 41.109915 
L 1043.978258 40.46595 
L 1044.926808 39.963552 
L 1045.875357 39.703673 
L 1048.721006 40.157767 
L 1049.669555 41.14586 
L 1050.618105 40.888246 
L 1051.566654 41.132189 
L 1052.515204 41.101122 
L 1053.463753 41.353734 
L 1054.412303 42.178718 
L 1055.360852 42.238127 
L 1056.309402 41.131096 
L 1057.257951 40.642908 
L 1058.206501 39.243129 
L 1059.15505 30.19884 
L 1060.1036 31.243549 
L 1061.052149 34.520242 
L 1062.000699 33.662398 
L 1062.949248 36.337353 
L 1063.897798 38.398139 
L 1064.846347 39.793814 
L 1065.794897 40.01284 
L 1066.743446 40.063655 
L 1067.691996 32.491636 
L 1068.640546 40.330474 
L 1069.589095 38.704263 
L 1070.537645 38.608827 
L 1071.486194 37.268857 
L 1072.434744 37.396244 
L 1073.383293 36.888311 
L 1074.331843 37.739046 
L 1075.280392 39.672773 
L 1076.228942 40.504361 
L 1077.177491 40.314676 
L 1078.126041 40.257454 
L 1079.07459 39.871293 
L 1080.02314 40.044363 
L 1080.971689 40.932796 
L 1081.920239 41.394122 
L 1082.868788 41.627979 
L 1083.817338 41.429322 
L 1084.765887 40.577355 
L 1085.714437 36.959957 
L 1086.662986 37.145625 
L 1087.611536 36.815167 
L 1088.560085 38.667128 
L 1088.560085 38.667128 
" clip-path="url(#p1987408d8d)" style="fill: none; stroke: #0070c0; stroke-width: 1.5; stroke-linecap: square"/>
   </g>
   <g id="patch_3">
    <path d="M 61.707813 120.62 
L 61.707813 7.2 
" style="fill: none; stroke: #000000; stroke-width: 0.8; stroke-linejoin: miter; stroke-linecap: square"/>
   </g>
   <g id="patch_4">
    <path d="M 1137.457813 120.62 
L 1137.457813 7.2 
" style="fill: none; stroke: #000000; stroke-width: 0.8; stroke-linejoin: miter; stroke-linecap: square"/>
   </g>
   <g id="patch_5">
    <path d="M 61.707813 120.62 
L 1137.457813 120.62 
" style="fill: none; stroke: #000000; stroke-width: 0.8; stroke-linejoin: miter; stroke-linecap: square"/>
   </g>
   <g id="patch_6">
    <path d="M 61.707813 7.2 
L 1137.457813 7.2 
" style="fill: none; stroke: #000000; stroke-width: 0.8; stroke-linejoin: miter; stroke-linecap: square"/>
   </g>
  </g>
  <g id="axes_2">
   <g id="patch_7">
    <path d="M 61.707813 261.92 
L 1137.457813 261.92 
L 1137.457813 148.5 
L 61.707813 148.5 
z
" style="fill: #ffffff"/>
   </g>
   <g id="matplotlib.axis_3">
    <g id="xtick_7">
     <g id="line2d_12">
      <g>
       <use xlink:href="#mae7dbba1c1" x="110.60554" y="261.92" style="stroke: #000000; stroke-width: 0.8"/>
      </g>
     </g>
     <g id="text_12">
      <!-- 0 -->
      <g transform="translate(107.42429 276.518437) scale(0.1 -0.1)">
       <use xlink:href="#DejaVuSans-30"/>
      </g>
     </g>
    </g>
    <g id="xtick_8">
     <g id="line2d_13">
      <g>
       <use xlink:href="#mae7dbba1c1" x="300.315442" y="261.92" style="stroke: #000000; stroke-width: 0.8"/>
      </g>
     </g>
     <g id="text_13">
      <!-- 200 -->
      <g transform="translate(290.771692 276.518437) scale(0.1 -0.1)">
       <use xlink:href="#DejaVuSans-32"/>
       <use xlink:href="#DejaVuSans-30" transform="translate(63.623047 0)"/>
       <use xlink:href="#DejaVuSans-30" transform="translate(127.246094 0)"/>
      </g>
     </g>
    </g>
    <g id="xtick_9">
     <g id="line2d_14">
      <g>
       <use xlink:href="#mae7dbba1c1" x="490.025344" y="261.92" style="stroke: #000000; stroke-width: 0.8"/>
      </g>
     </g>
     <g id="text_14">
      <!-- 400 -->
      <g transform="translate(480.481594 276.518437) scale(0.1 -0.1)">
       <use xlink:href="#DejaVuSans-34"/>
       <use xlink:href="#DejaVuSans-30" transform="translate(63.623047 0)"/>
       <use xlink:href="#DejaVuSans-30" transform="translate(127.246094 0)"/>
      </g>
     </g>
    </g>
    <g id="xtick_10">
     <g id="line2d_15">
      <g>
       <use xlink:href="#mae7dbba1c1" x="679.735246" y="261.92" style="stroke: #000000; stroke-width: 0.8"/>
      </g>
     </g>
     <g id="text_15">
      <!-- 600 -->
      <g transform="translate(670.191496 276.518437) scale(0.1 -0.1)">
       <use xlink:href="#DejaVuSans-36"/>
       <use xlink:href="#DejaVuSans-30" transform="translate(63.623047 0)"/>
       <use xlink:href="#DejaVuSans-30" transform="translate(127.246094 0)"/>
      </g>
     </g>
    </g>
    <g id="xtick_11">
     <g id="line2d_16">
      <g>
       <use xlink:href="#mae7dbba1c1" x="869.445148" y="261.92" style="stroke: #000000; stroke-width: 0.8"/>
      </g>
     </g>
     <g id="text_16">
      <!-- 800 -->
      <g transform="translate(859.901398 276.518437) scale(0.1 -0.1)">
       <use xlink:href="#DejaVuSans-38"/>
       <use xlink:href="#DejaVuSans-30" transform="translate(63.623047 0)"/>
       <use xlink:href="#DejaVuSans-30" transform="translate(127.246094 0)"/>
      </g>
     </g>
    </g>
    <g id="xtick_12">
     <g id="line2d_17">
      <g>
       <use xlink:href="#mae7dbba1c1" x="1059.15505" y="261.92" style="stroke: #000000; stroke-width: 0.8"/>
      </g>
     </g>
     <g id="text_17">
      <!-- 1000 -->
      <g transform="translate(1046.43005 276.518437) scale(0.1 -0.1)">
       <use xlink:href="#DejaVuSans-31"/>
       <use xlink:href="#DejaVuSans-30" transform="translate(63.623047 0)"/>
       <use xlink:href="#DejaVuSans-30" transform="translate(127.246094 0)"/>
       <use xlink:href="#DejaVuSans-30" transform="translate(190.869141 0)"/>
      </g>
     </g>
    </g>
   </g>
   <g id="matplotlib.axis_4">
    <g id="ytick_5">
     <g id="line2d_18">
      <g>
       <use xlink:href="#m233527e2f4" x="61.707813" y="258.81596" style="stroke: #000000; stroke-width: 0.8"/>
      </g>
     </g>
     <g id="text_18">
      <!-- −2000 -->
      <g transform="translate(20.878125 262.615179) scale(0.1 -0.1)">
       <defs>
        <path id="DejaVuSans-2212" d="M 678 2272 
L 4684 2272 
L 4684 1741 
L 678 1741 
L 678 2272 
z
" transform="scale(0.015625)"/>
       </defs>
       <use xlink:href="#DejaVuSans-2212"/>
       <use xlink:href="#DejaVuSans-32" transform="translate(83.789062 0)"/>
       <use xlink:href="#DejaVuSans-30" transform="translate(147.412109 0)"/>
       <use xlink:href="#DejaVuSans-30" transform="translate(211.035156 0)"/>
       <use xlink:href="#DejaVuSans-30" transform="translate(274.658203 0)"/>
      </g>
     </g>
    </g>
    <g id="ytick_6">
     <g id="line2d_19">
      <g>
       <use xlink:href="#m233527e2f4" x="61.707813" y="235.307348" style="stroke: #000000; stroke-width: 0.8"/>
      </g>
     </g>
     <g id="text_19">
      <!-- −1000 -->
      <g transform="translate(20.878125 239.106567) scale(0.1 -0.1)">
       <use xlink:href="#DejaVuSans-2212"/>
       <use xlink:href="#DejaVuSans-31" transform="translate(83.789062 0)"/>
       <use xlink:href="#DejaVuSans-30" transform="translate(147.412109 0)"/>
       <use xlink:href="#DejaVuSans-30" transform="translate(211.035156 0)"/>
       <use xlink:href="#DejaVuSans-30" transform="translate(274.658203 0)"/>
      </g>
     </g>
    </g>
    <g id="ytick_7">
     <g id="line2d_20">
      <g>
       <use xlink:href="#m233527e2f4" x="61.707813" y="211.798737" style="stroke: #000000; stroke-width: 0.8"/>
      </g>
     </g>
     <g id="text_20">
      <!-- 0 -->
      <g transform="translate(48.345313 215.597955) scale(0.1 -0.1)">
       <use xlink:href="#DejaVuSans-30"/>
      </g>
     </g>
    </g>
    <g id="ytick_8">
     <g id="line2d_21">
      <g>
       <use xlink:href="#m233527e2f4" x="61.707813" y="188.290125" style="stroke: #000000; stroke-width: 0.8"/>
      </g>
     </g>
     <g id="text_21">
      <!-- 1000 -->
      <g transform="translate(29.257812 192.089343) scale(0.1 -0.1)">
       <use xlink:href="#DejaVuSans-31"/>
       <use xlink:href="#DejaVuSans-30" transform="translate(63.623047 0)"/>
       <use xlink:href="#DejaVuSans-30" transform="translate(127.246094 0)"/>
       <use xlink:href="#DejaVuSans-30" transform="translate(190.869141 0)"/>
      </g>
     </g>
    </g>
    <g id="ytick_9">
     <g id="line2d_22">
      <g>
       <use xlink:href="#m233527e2f4" x="61.707813" y="164.781513" style="stroke: #000000; stroke-width: 0.8"/>
      </g>
     </g>
     <g id="text_22">
      <!-- 2000 -->
      <g transform="translate(29.257812 168.580732) scale(0.1 -0.1)">
       <use xlink:href="#DejaVuSans-32"/>
       <use xlink:href="#DejaVuSans-30" transform="translate(63.623047 0)"/>
       <use xlink:href="#DejaVuSans-30" transform="translate(127.246094 0)"/>
       <use xlink:href="#DejaVuSans-30" transform="translate(190.869141 0)"/>
      </g>
     </g>
    </g>
    <g id="text_23">
     <!-- co-imf0 -->
     <g transform="translate(14.798438 224.117031) rotate(-90) scale(0.1 -0.1)">
      <defs>
       <path id="DejaVuSans-63" d="M 3122 3366 
L 3122 2828 
Q 2878 2963 2633 3030 
Q 2388 3097 2138 3097 
Q 1578 3097 1268 2742 
Q 959 2388 959 1747 
Q 959 1106 1268 751 
Q 1578 397 2138 397 
Q 2388 397 2633 464 
Q 2878 531 3122 666 
L 3122 134 
Q 2881 22 2623 -34 
Q 2366 -91 2075 -91 
Q 1284 -91 818 406 
Q 353 903 353 1747 
Q 353 2603 823 3093 
Q 1294 3584 2113 3584 
Q 2378 3584 2631 3529 
Q 2884 3475 3122 3366 
z
" transform="scale(0.015625)"/>
       <path id="DejaVuSans-6f" d="M 1959 3097 
Q 1497 3097 1228 2736 
Q 959 2375 959 1747 
Q 959 1119 1226 758 
Q 1494 397 1959 397 
Q 2419 397 2687 759 
Q 2956 1122 2956 1747 
Q 2956 2369 2687 2733 
Q 2419 3097 1959 3097 
z
M 1959 3584 
Q 2709 3584 3137 3096 
Q 3566 2609 3566 1747 
Q 3566 888 3137 398 
Q 2709 -91 1959 -91 
Q 1206 -91 779 398 
Q 353 888 353 1747 
Q 353 2609 779 3096 
Q 1206 3584 1959 3584 
z
" transform="scale(0.015625)"/>
       <path id="DejaVuSans-2d" d="M 313 2009 
L 1997 2009 
L 1997 1497 
L 313 1497 
L 313 2009 
z
" transform="scale(0.015625)"/>
       <path id="DejaVuSans-6d" d="M 3328 2828 
Q 3544 3216 3844 3400 
Q 4144 3584 4550 3584 
Q 5097 3584 5394 3201 
Q 5691 2819 5691 2113 
L 5691 0 
L 5113 0 
L 5113 2094 
Q 5113 2597 4934 2840 
Q 4756 3084 4391 3084 
Q 3944 3084 3684 2787 
Q 3425 2491 3425 1978 
L 3425 0 
L 2847 0 
L 2847 2094 
Q 2847 2600 2669 2842 
Q 2491 3084 2119 3084 
Q 1678 3084 1418 2786 
Q 1159 2488 1159 1978 
L 1159 0 
L 581 0 
L 581 3500 
L 1159 3500 
L 1159 2956 
Q 1356 3278 1631 3431 
Q 1906 3584 2284 3584 
Q 2666 3584 2933 3390 
Q 3200 3197 3328 2828 
z
" transform="scale(0.015625)"/>
       <path id="DejaVuSans-66" d="M 2375 4863 
L 2375 4384 
L 1825 4384 
Q 1516 4384 1395 4259 
Q 1275 4134 1275 3809 
L 1275 3500 
L 2222 3500 
L 2222 3053 
L 1275 3053 
L 1275 0 
L 697 0 
L 697 3053 
L 147 3053 
L 147 3500 
L 697 3500 
L 697 3744 
Q 697 4328 969 4595 
Q 1241 4863 1831 4863 
L 2375 4863 
z
" transform="scale(0.015625)"/>
      </defs>
      <use xlink:href="#DejaVuSans-63"/>
      <use xlink:href="#DejaVuSans-6f" transform="translate(54.980469 0)"/>
      <use xlink:href="#DejaVuSans-2d" transform="translate(118.037109 0)"/>
      <use xlink:href="#DejaVuSans-69" transform="translate(154.121094 0)"/>
      <use xlink:href="#DejaVuSans-6d" transform="translate(181.904297 0)"/>
      <use xlink:href="#DejaVuSans-66" transform="translate(279.316406 0)"/>
      <use xlink:href="#DejaVuSans-30" transform="translate(314.521484 0)"/>
     </g>
    </g>
   </g>
   <g id="line2d_23">
    <path d="M 110.60554 209.07735 
L 112.502639 209.445378 
L 114.399738 210.037165 
L 116.296837 210.533849 
L 118.193936 211.181863 
L 123.885233 213.498295 
L 124.833782 213.73381 
L 125.782332 213.75865 
L 126.730881 213.525397 
L 127.679431 213.055422 
L 130.525079 210.904667 
L 131.473629 210.46194 
L 132.422179 210.358698 
L 133.370728 210.571764 
L 136.216377 212.416978 
L 137.164926 212.767827 
L 139.062025 212.615555 
L 141.907674 211.672184 
L 142.856223 211.443543 
L 144.753322 211.348029 
L 149.49607 211.893843 
L 160.878664 211.868953 
L 165.621411 212.041761 
L 166.569961 212.160864 
L 167.51851 212.084892 
L 170.364159 211.29585 
L 171.312708 211.22376 
L 175.106906 211.817339 
L 177.004006 211.659423 
L 178.901105 211.754432 
L 183.643852 212.57845 
L 187.43805 212.992626 
L 188.3866 212.696942 
L 189.335149 211.954502 
L 191.232248 210.985122 
L 192.180798 210.589893 
L 193.129347 210.349961 
L 194.077897 210.423686 
L 198.820644 212.604171 
L 200.717743 213.104698 
L 201.666293 212.911958 
L 202.614842 212.279803 
L 203.563392 211.879443 
L 205.460491 211.358166 
L 206.40904 211.077429 
L 207.35759 210.943517 
L 208.306139 210.959994 
L 209.254689 211.163397 
L 212.100337 212.356737 
L 213.048887 212.456399 
L 216.843085 211.356048 
L 217.791634 211.297548 
L 218.740184 211.356666 
L 220.637283 211.808466 
L 222.534382 212.044138 
L 224.431481 211.999383 
L 226.32858 211.745677 
L 230.122778 211.807413 
L 240.556823 211.799059 
L 243.402471 211.945833 
L 244.351021 212.127603 
L 245.29957 212.134538 
L 247.196669 211.758424 
L 248.145219 211.449246 
L 249.093768 211.377957 
L 252.887966 212.141042 
L 253.836516 212.231904 
L 254.785065 212.134752 
L 255.733615 211.792325 
L 256.682164 211.58833 
L 257.630714 211.498542 
L 258.579263 211.520542 
L 260.476362 211.886838 
L 262.373461 212.024751 
L 264.27056 211.934914 
L 267.116209 211.588836 
L 268.064759 211.59672 
L 269.961858 211.816953 
L 273.756056 211.928882 
L 275.653155 211.711515 
L 278.498803 211.59653 
L 280.395902 211.800622 
L 282.293001 212.07047 
L 283.241551 212.070939 
L 286.087199 211.630647 
L 287.984298 211.48277 
L 288.932848 211.607279 
L 289.881397 211.935467 
L 290.829947 212.006249 
L 291.778496 211.823461 
L 303.16109 211.74883 
L 314.543685 211.913873 
L 317.389333 212.34683 
L 319.286432 211.98581 
L 322.132081 211.154577 
L 323.08063 211.064631 
L 324.02918 211.177852 
L 324.977729 211.404706 
L 326.874828 212.115167 
L 327.823378 212.34147 
L 328.771927 212.419311 
L 330.669026 212.068271 
L 332.566125 211.524904 
L 333.514675 211.349908 
L 334.463224 211.341446 
L 338.257422 212.165626 
L 340.154521 212.119666 
L 343.948719 211.666423 
L 344.897269 211.570017 
L 345.845818 211.598335 
L 347.742917 211.860344 
L 349.640016 211.910829 
L 353.434214 211.768337 
L 357.228413 211.836757 
L 361.022611 211.74016 
L 365.765358 211.943647 
L 368.611007 211.715352 
L 371.456655 211.631294 
L 373.353754 211.798857 
L 376.199403 212.072848 
L 381.8907 211.591621 
L 383.787799 211.898198 
L 385.684898 211.983619 
L 389.479096 211.714724 
L 391.376195 211.640554 
L 393.273294 211.790214 
L 414.141383 211.877978 
L 416.038482 212.155837 
L 416.987032 212.221487 
L 417.935581 212.115699 
L 420.78123 211.121158 
L 421.729779 211.096459 
L 423.626878 211.862372 
L 424.575428 212.360273 
L 425.523977 212.703822 
L 426.472527 212.81664 
L 427.421076 212.809514 
L 429.318175 212.414907 
L 432.163824 212.078845 
L 433.112373 211.784177 
L 434.060923 211.281033 
L 435.009472 210.974316 
L 435.958022 210.836712 
L 436.906571 210.948117 
L 437.855121 211.414268 
L 438.80367 211.705564 
L 444.494968 212.495822 
L 445.443517 212.446407 
L 446.392067 212.044469 
L 447.340616 211.22063 
L 448.289166 211.062464 
L 449.237715 211.576804 
L 451.134814 212.376013 
L 452.083364 212.534901 
L 453.980463 211.958366 
L 455.877562 210.965333 
L 457.774661 210.178328 
L 458.72321 209.913791 
L 459.67176 210.048534 
L 460.620309 210.64755 
L 461.568859 211.561221 
L 462.517408 212.895549 
L 463.465958 213.733742 
L 464.414507 214.002877 
L 466.311606 215.006069 
L 467.260156 214.836826 
L 468.208705 214.017589 
L 469.157255 205.966091 
L 470.105804 205.9913 
L 472.002903 207.371406 
L 474.848552 213.935688 
L 475.797101 215.312263 
L 476.745651 215.698291 
L 478.64275 213.740578 
L 479.591299 212.760165 
L 480.539849 212.369136 
L 481.488398 212.939975 
L 482.436948 212.800536 
L 483.385497 212.166358 
L 484.334047 211.393446 
L 485.282596 210.189077 
L 486.231146 209.433282 
L 487.179695 209.159552 
L 488.128245 210.050341 
L 489.076795 212.428584 
L 490.025344 213.35133 
L 490.973894 212.892966 
L 491.922443 212.620007 
L 492.870993 212.108457 
L 493.819542 211.764022 
L 494.768092 211.829841 
L 499.510839 211.440274 
L 500.459389 211.810462 
L 501.407938 211.989961 
L 503.305037 212.030767 
L 505.202136 211.81893 
L 508.047785 211.671842 
L 509.944884 211.657264 
L 513.739082 211.991646 
L 515.636181 211.702278 
L 517.53328 211.475297 
L 519.430379 211.395224 
L 521.327478 211.647813 
L 524.173126 212.221286 
L 525.121676 212.236891 
L 526.070225 212.112966 
L 527.967324 211.570473 
L 528.915874 211.429565 
L 529.864423 211.402138 
L 533.658622 211.970741 
L 535.555721 211.927675 
L 537.45282 211.7354 
L 540.298468 211.7984 
L 542.195567 212.051313 
L 543.144117 211.904071 
L 544.092666 211.426293 
L 545.041216 211.426869 
L 545.989765 211.872262 
L 547.886864 212.336135 
L 548.835414 212.30726 
L 549.783963 211.923205 
L 550.732513 211.732084 
L 551.681062 211.676313 
L 554.526711 211.144968 
L 556.42381 211.391294 
L 558.320909 211.895807 
L 561.166557 212.232374 
L 563.063656 212.406272 
L 564.012206 212.625107 
L 565.909305 213.289196 
L 566.857854 213.518689 
L 567.806404 213.459172 
L 569.703503 212.587671 
L 571.600602 211.550519 
L 573.497701 210.676797 
L 574.44625 210.133345 
L 575.3948 209.769383 
L 576.343349 209.580365 
L 577.291899 209.566943 
L 579.188998 210.101628 
L 580.137548 210.509018 
L 581.086097 210.697103 
L 582.034647 210.602472 
L 583.931746 210.784279 
L 584.880295 211.513781 
L 585.828845 212.974595 
L 586.777394 213.892283 
L 587.725944 214.35459 
L 588.674493 214.269641 
L 589.623043 213.326123 
L 591.520142 211.831556 
L 592.468691 211.235712 
L 594.36579 210.644233 
L 595.31434 210.319225 
L 596.262889 210.348228 
L 599.108538 211.322644 
L 600.057087 211.453086 
L 601.005637 211.311907 
L 602.902736 211.422721 
L 604.799835 211.784969 
L 607.645483 212.220688 
L 609.542582 212.372477 
L 612.388231 212.207809 
L 616.182429 211.530004 
L 617.130978 211.502297 
L 619.028077 211.73422 
L 619.976627 211.959951 
L 620.925176 212.025169 
L 624.719375 211.646537 
L 626.616474 211.841545 
L 633.25632 211.793155 
L 639.896167 211.936646 
L 641.793266 211.722113 
L 649.381662 211.632997 
L 652.22731 211.913013 
L 654.124409 211.835044 
L 656.970058 211.838767 
L 658.867157 211.999351 
L 659.815706 212.026143 
L 660.764256 211.921391 
L 663.609904 211.074247 
L 664.558454 211.195993 
L 665.507003 211.817909 
L 666.455553 212.128175 
L 668.352652 212.299428 
L 670.249751 212.074547 
L 672.14685 211.588578 
L 674.043949 211.366738 
L 675.941048 211.426167 
L 681.632345 212.033449 
L 683.529444 211.971493 
L 685.426543 211.615125 
L 686.375093 211.258648 
L 687.323642 211.946597 
L 688.272192 211.826037 
L 689.220741 212.085099 
L 691.11784 212.092247 
L 695.860588 211.321445 
L 696.809137 211.438965 
L 700.603335 212.942554 
L 701.551885 213.009686 
L 702.500434 212.800753 
L 703.448984 212.213352 
L 704.397533 211.289351 
L 705.346083 209.957411 
L 706.294632 209.519478 
L 707.243182 210.075919 
L 708.191731 210.472801 
L 710.08883 211.556588 
L 711.03738 211.948565 
L 714.831578 214.048723 
L 715.780128 214.40748 
L 716.728677 214.603048 
L 717.677227 214.581432 
L 718.625776 214.291456 
L 719.574326 213.731992 
L 720.522875 212.857142 
L 721.471425 212.256325 
L 722.419974 211.961364 
L 724.317073 211.113416 
L 725.265623 210.21975 
L 726.214172 208.76131 
L 727.162722 208.272946 
L 729.059821 209.220046 
L 730.95692 210.799844 
L 732.854019 211.829646 
L 733.802568 212.139558 
L 734.751118 212.789598 
L 735.699667 213.789266 
L 736.648217 214.117311 
L 737.596766 213.815472 
L 738.545316 213.154873 
L 739.493865 211.900964 
L 740.442415 211.201932 
L 741.390964 211.120226 
L 742.339514 210.889367 
L 743.288063 210.777626 
L 744.236613 210.962713 
L 746.133712 211.7536 
L 747.082261 212.015813 
L 748.030811 212.105134 
L 749.92791 211.827262 
L 751.825009 211.801601 
L 752.773558 211.917355 
L 754.670657 211.823084 
L 755.619207 211.659272 
L 756.567757 211.61981 
L 757.516306 211.732657 
L 758.464856 212.105804 
L 759.413405 212.077603 
L 760.361955 211.658145 
L 761.310504 211.693599 
L 762.259054 212.096036 
L 763.207603 212.204623 
L 764.156153 212.139206 
L 765.104702 211.653992 
L 766.053252 210.602468 
L 767.001801 210.062357 
L 767.950351 209.997541 
L 768.8989 210.294278 
L 769.84745 211.216077 
L 771.744549 212.6077 
L 772.693098 213.066084 
L 774.590197 213.222634 
L 776.487296 213.23854 
L 777.435846 213.469714 
L 779.332945 213.486863 
L 780.281494 213.130842 
L 783.127143 210.958545 
L 784.075692 210.331341 
L 785.024242 209.895003 
L 785.972791 209.823523 
L 786.921341 210.218229 
L 787.86989 210.768234 
L 789.766989 212.207123 
L 791.664088 213.096857 
L 792.612638 213.406225 
L 793.561187 213.596979 
L 794.509737 213.652607 
L 795.458286 213.531642 
L 796.406836 213.21823 
L 797.355385 212.680527 
L 799.252484 211.205786 
L 800.201034 210.628466 
L 801.149584 210.295496 
L 802.098133 210.323961 
L 803.046683 210.549286 
L 804.943782 211.493893 
L 808.73798 212.713638 
L 809.686529 212.656131 
L 810.635079 212.471838 
L 811.583628 212.108908 
L 812.532178 211.880543 
L 814.429277 211.794281 
L 815.377826 211.913771 
L 816.326376 211.793094 
L 818.223475 211.149721 
L 819.172024 210.926368 
L 820.120574 211.172864 
L 821.069123 211.995099 
L 822.017673 212.437792 
L 822.966222 212.580031 
L 823.914772 212.435547 
L 824.863321 211.78755 
L 825.811871 211.395577 
L 827.70897 211.130565 
L 833.400267 212.196496 
L 835.297366 212.731247 
L 837.194465 212.981797 
L 838.143014 212.909228 
L 839.091564 212.465204 
L 840.040113 211.591842 
L 840.988663 210.969029 
L 841.937212 210.56822 
L 842.885762 210.368152 
L 844.782861 210.801841 
L 847.62851 211.987102 
L 849.525609 212.545398 
L 851.422708 212.861942 
L 852.371257 212.873643 
L 854.268356 212.557855 
L 856.165455 211.981905 
L 859.959653 211.280302 
L 860.908203 211.328343 
L 861.856752 211.51078 
L 862.805302 211.869104 
L 863.753851 212.075934 
L 864.702401 212.120951 
L 865.65095 212.048469 
L 867.548049 211.58829 
L 868.496599 211.50377 
L 869.445148 211.548487 
L 870.393698 211.804602 
L 871.342247 211.917439 
L 874.187896 211.793946 
L 876.084995 211.804138 
L 878.930643 212.029455 
L 882.724841 211.244615 
L 883.673391 211.277059 
L 884.62194 211.519951 
L 887.467589 213.008566 
L 888.416138 213.195164 
L 889.364688 212.99559 
L 890.313238 212.597115 
L 891.261787 211.887051 
L 892.210337 211.358558 
L 893.158886 211.045987 
L 894.107436 210.031792 
L 895.055985 208.601203 
L 896.004535 208.791539 
L 896.953084 210.585881 
L 897.901634 215.622451 
L 898.850183 214.555662 
L 899.798733 214.467962 
L 900.747282 212.442126 
L 901.695832 211.17687 
L 903.592931 210.573133 
L 904.54148 210.994499 
L 905.49003 211.155914 
L 906.438579 211.08284 
L 907.387129 211.354316 
L 908.335678 211.806061 
L 909.284228 212.093824 
L 911.181327 212.394054 
L 913.078426 212.586635 
L 914.026975 212.824333 
L 914.975525 213.30914 
L 915.924074 214.108465 
L 916.872624 214.489286 
L 917.821173 214.457031 
L 918.769723 214.22299 
L 919.718272 213.609323 
L 920.666822 213.140805 
L 921.615371 212.82959 
L 922.563921 212.207337 
L 923.51247 211.371915 
L 924.46102 210.333617 
L 926.358119 207.585623 
L 929.203767 202.758742 
L 930.152317 200.585269 
L 931.100866 197.865281 
L 932.049416 196.193486 
L 932.997965 195.583704 
L 934.895065 196.452778 
L 935.843614 195.805518 
L 936.792164 193.369019 
L 937.740713 192.65406 
L 938.689263 193.262556 
L 939.637812 194.557707 
L 940.586362 197.201439 
L 941.534911 198.767609 
L 943.43201 204.561025 
L 945.329109 211.946137 
L 946.277659 215.329648 
L 947.226208 220.794996 
L 949.123307 235.136572 
L 951.968956 254.447544 
L 952.917505 256.764545 
L 953.866055 236.760937 
L 954.814604 201.644166 
L 955.763154 192.847887 
L 956.711703 161.798659 
L 957.660253 158.997614 
L 958.608802 153.655455 
L 959.557352 159.52489 
L 960.505901 203.024173 
L 961.454451 210.357534 
L 962.403 221.893169 
L 963.35155 223.459144 
L 964.300099 224.444586 
L 965.248649 225.671382 
L 966.197198 224.439841 
L 967.145748 222.92478 
L 968.094297 221.138329 
L 969.991396 218.02462 
L 970.939946 216.777055 
L 972.837045 213.644906 
L 974.734144 210.218211 
L 975.682693 209.169958 
L 976.631243 208.918085 
L 977.579792 208.236956 
L 978.528342 207.269619 
L 979.476892 207.334496 
L 980.425441 207.973054 
L 981.373991 209.382266 
L 982.32254 211.697598 
L 983.27109 213.123946 
L 984.219639 213.588003 
L 985.168189 213.4191 
L 986.116738 212.391139 
L 987.065288 211.695949 
L 988.962387 211.21331 
L 990.859486 211.596505 
L 991.808035 212.01283 
L 992.756585 212.271852 
L 993.705134 212.374571 
L 994.653684 212.350737 
L 1000.344981 210.908803 
L 1001.29353 210.959225 
L 1002.24208 211.221328 
L 1003.190629 211.759585 
L 1004.139179 212.140891 
L 1005.087728 212.366704 
L 1006.036278 212.468697 
L 1007.933377 212.138693 
L 1009.830476 211.607942 
L 1010.779025 211.45103 
L 1012.676124 211.672749 
L 1015.521773 212.062769 
L 1016.470322 212.431812 
L 1017.418872 212.482436 
L 1018.367421 212.216019 
L 1019.315971 211.614349 
L 1021.21307 209.567121 
L 1022.161619 213.562083 
L 1023.110169 213.299277 
L 1024.058719 212.334189 
L 1025.955818 210.641879 
L 1026.904367 210.18328 
L 1028.801466 210.761082 
L 1029.750016 211.284999 
L 1031.647115 212.743864 
L 1032.595664 212.388742 
L 1033.544214 210.728175 
L 1034.492763 210.064761 
L 1035.441313 210.189478 
L 1036.389862 210.985924 
L 1037.338412 212.961271 
L 1038.286961 214.083023 
L 1040.18406 214.680662 
L 1041.13261 214.514981 
L 1042.081159 213.571194 
L 1043.029709 211.790298 
L 1043.978258 210.312261 
L 1044.926808 209.110348 
L 1045.875357 208.404655 
L 1047.772456 208.703447 
L 1048.721006 209.123573 
L 1049.669555 211.151972 
L 1050.618105 210.976346 
L 1051.566654 211.869786 
L 1052.515204 212.387741 
L 1053.463753 213.58345 
L 1054.412303 216.005436 
L 1055.360852 217.119873 
L 1056.309402 216.147718 
L 1057.257951 216.359661 
L 1058.206501 214.856774 
L 1059.15505 198.942795 
L 1060.1036 201.805936 
L 1061.052149 208.677837 
L 1062.000699 207.579392 
L 1062.949248 212.907467 
L 1063.897798 216.871253 
L 1064.846347 219.399697 
L 1065.794897 219.5328 
L 1066.743446 219.170373 
L 1067.691996 204.347483 
L 1068.640546 218.278745 
L 1069.589095 214.370838 
L 1070.537645 213.308959 
L 1071.486194 209.928894 
L 1072.434744 209.358772 
L 1073.383293 207.706474 
L 1074.331843 208.697171 
L 1075.280392 211.836168 
L 1076.228942 213.005401 
L 1077.177491 212.3656 
L 1078.126041 212.071397 
L 1079.07459 211.257397 
L 1080.02314 211.583163 
L 1080.971689 213.338227 
L 1081.920239 214.355667 
L 1082.868788 215.003659 
L 1083.817338 214.870162 
L 1084.765887 213.527733 
L 1085.714437 206.998067 
L 1086.662986 207.573936 
L 1087.611536 207.143326 
L 1088.560085 210.745715 
L 1088.560085 210.745715 
" clip-path="url(#p628a4c1e96)" style="fill: none; stroke: #f27f19; stroke-width: 1.5; stroke-linecap: square"/>
   </g>
   <g id="patch_8">
    <path d="M 61.707813 261.92 
L 61.707813 148.5 
" style="fill: none; stroke: #000000; stroke-width: 0.8; stroke-linejoin: miter; stroke-linecap: square"/>
   </g>
   <g id="patch_9">
    <path d="M 1137.457813 261.92 
L 1137.457813 148.5 
" style="fill: none; stroke: #000000; stroke-width: 0.8; stroke-linejoin: miter; stroke-linecap: square"/>
   </g>
   <g id="patch_10">
    <path d="M 61.707813 261.92 
L 1137.457813 261.92 
" style="fill: none; stroke: #000000; stroke-width: 0.8; stroke-linejoin: miter; stroke-linecap: square"/>
   </g>
   <g id="patch_11">
    <path d="M 61.707813 148.5 
L 1137.457813 148.5 
" style="fill: none; stroke: #000000; stroke-width: 0.8; stroke-linejoin: miter; stroke-linecap: square"/>
   </g>
  </g>
  <g id="axes_3">
   <g id="patch_12">
    <path d="M 61.707813 403.22 
L 1137.457813 403.22 
L 1137.457813 289.8 
L 61.707813 289.8 
z
" style="fill: #ffffff"/>
   </g>
   <g id="matplotlib.axis_5">
    <g id="xtick_13">
     <g id="line2d_24">
      <g>
       <use xlink:href="#mae7dbba1c1" x="110.60554" y="403.22" style="stroke: #000000; stroke-width: 0.8"/>
      </g>
     </g>
     <g id="text_24">
      <!-- 0 -->
      <g transform="translate(107.42429 417.818437) scale(0.1 -0.1)">
       <use xlink:href="#DejaVuSans-30"/>
      </g>
     </g>
    </g>
    <g id="xtick_14">
     <g id="line2d_25">
      <g>
       <use xlink:href="#mae7dbba1c1" x="300.315442" y="403.22" style="stroke: #000000; stroke-width: 0.8"/>
      </g>
     </g>
     <g id="text_25">
      <!-- 200 -->
      <g transform="translate(290.771692 417.818437) scale(0.1 -0.1)">
       <use xlink:href="#DejaVuSans-32"/>
       <use xlink:href="#DejaVuSans-30" transform="translate(63.623047 0)"/>
       <use xlink:href="#DejaVuSans-30" transform="translate(127.246094 0)"/>
      </g>
     </g>
    </g>
    <g id="xtick_15">
     <g id="line2d_26">
      <g>
       <use xlink:href="#mae7dbba1c1" x="490.025344" y="403.22" style="stroke: #000000; stroke-width: 0.8"/>
      </g>
     </g>
     <g id="text_26">
      <!-- 400 -->
      <g transform="translate(480.481594 417.818437) scale(0.1 -0.1)">
       <use xlink:href="#DejaVuSans-34"/>
       <use xlink:href="#DejaVuSans-30" transform="translate(63.623047 0)"/>
       <use xlink:href="#DejaVuSans-30" transform="translate(127.246094 0)"/>
      </g>
     </g>
    </g>
    <g id="xtick_16">
     <g id="line2d_27">
      <g>
       <use xlink:href="#mae7dbba1c1" x="679.735246" y="403.22" style="stroke: #000000; stroke-width: 0.8"/>
      </g>
     </g>
     <g id="text_27">
      <!-- 600 -->
      <g transform="translate(670.191496 417.818437) scale(0.1 -0.1)">
       <use xlink:href="#DejaVuSans-36"/>
       <use xlink:href="#DejaVuSans-30" transform="translate(63.623047 0)"/>
       <use xlink:href="#DejaVuSans-30" transform="translate(127.246094 0)"/>
      </g>
     </g>
    </g>
    <g id="xtick_17">
     <g id="line2d_28">
      <g>
       <use xlink:href="#mae7dbba1c1" x="869.445148" y="403.22" style="stroke: #000000; stroke-width: 0.8"/>
      </g>
     </g>
     <g id="text_28">
      <!-- 800 -->
      <g transform="translate(859.901398 417.818437) scale(0.1 -0.1)">
       <use xlink:href="#DejaVuSans-38"/>
       <use xlink:href="#DejaVuSans-30" transform="translate(63.623047 0)"/>
       <use xlink:href="#DejaVuSans-30" transform="translate(127.246094 0)"/>
      </g>
     </g>
    </g>
    <g id="xtick_18">
     <g id="line2d_29">
      <g>
       <use xlink:href="#mae7dbba1c1" x="1059.15505" y="403.22" style="stroke: #000000; stroke-width: 0.8"/>
      </g>
     </g>
     <g id="text_29">
      <!-- 1000 -->
      <g transform="translate(1046.43005 417.818437) scale(0.1 -0.1)">
       <use xlink:href="#DejaVuSans-31"/>
       <use xlink:href="#DejaVuSans-30" transform="translate(63.623047 0)"/>
       <use xlink:href="#DejaVuSans-30" transform="translate(127.246094 0)"/>
       <use xlink:href="#DejaVuSans-30" transform="translate(190.869141 0)"/>
      </g>
     </g>
    </g>
   </g>
   <g id="matplotlib.axis_6">
    <g id="ytick_10">
     <g id="line2d_30">
      <g>
       <use xlink:href="#m233527e2f4" x="61.707813" y="390.454754" style="stroke: #000000; stroke-width: 0.8"/>
      </g>
     </g>
     <g id="text_30">
      <!-- −2000 -->
      <g transform="translate(20.878125 394.253972) scale(0.1 -0.1)">
       <use xlink:href="#DejaVuSans-2212"/>
       <use xlink:href="#DejaVuSans-32" transform="translate(83.789062 0)"/>
       <use xlink:href="#DejaVuSans-30" transform="translate(147.412109 0)"/>
       <use xlink:href="#DejaVuSans-30" transform="translate(211.035156 0)"/>
       <use xlink:href="#DejaVuSans-30" transform="translate(274.658203 0)"/>
      </g>
     </g>
    </g>
    <g id="ytick_11">
     <g id="line2d_31">
      <g>
       <use xlink:href="#m233527e2f4" x="61.707813" y="367.121277" style="stroke: #000000; stroke-width: 0.8"/>
      </g>
     </g>
     <g id="text_31">
      <!-- −1000 -->
      <g transform="translate(20.878125 370.920496) scale(0.1 -0.1)">
       <use xlink:href="#DejaVuSans-2212"/>
       <use xlink:href="#DejaVuSans-31" transform="translate(83.789062 0)"/>
       <use xlink:href="#DejaVuSans-30" transform="translate(147.412109 0)"/>
       <use xlink:href="#DejaVuSans-30" transform="translate(211.035156 0)"/>
       <use xlink:href="#DejaVuSans-30" transform="translate(274.658203 0)"/>
      </g>
     </g>
    </g>
    <g id="ytick_12">
     <g id="line2d_32">
      <g>
       <use xlink:href="#m233527e2f4" x="61.707813" y="343.7878" style="stroke: #000000; stroke-width: 0.8"/>
      </g>
     </g>
     <g id="text_32">
      <!-- 0 -->
      <g transform="translate(48.345313 347.587019) scale(0.1 -0.1)">
       <use xlink:href="#DejaVuSans-30"/>
      </g>
     </g>
    </g>
    <g id="ytick_13">
     <g id="line2d_33">
      <g>
       <use xlink:href="#m233527e2f4" x="61.707813" y="320.454324" style="stroke: #000000; stroke-width: 0.8"/>
      </g>
     </g>
     <g id="text_33">
      <!-- 1000 -->
      <g transform="translate(29.257812 324.253543) scale(0.1 -0.1)">
       <use xlink:href="#DejaVuSans-31"/>
       <use xlink:href="#DejaVuSans-30" transform="translate(63.623047 0)"/>
       <use xlink:href="#DejaVuSans-30" transform="translate(127.246094 0)"/>
       <use xlink:href="#DejaVuSans-30" transform="translate(190.869141 0)"/>
      </g>
     </g>
    </g>
    <g id="ytick_14">
     <g id="line2d_34">
      <g>
       <use xlink:href="#m233527e2f4" x="61.707813" y="297.120847" style="stroke: #000000; stroke-width: 0.8"/>
      </g>
     </g>
     <g id="text_34">
      <!-- 2000 -->
      <g transform="translate(29.257812 300.920066) scale(0.1 -0.1)">
       <use xlink:href="#DejaVuSans-32"/>
       <use xlink:href="#DejaVuSans-30" transform="translate(63.623047 0)"/>
       <use xlink:href="#DejaVuSans-30" transform="translate(127.246094 0)"/>
       <use xlink:href="#DejaVuSans-30" transform="translate(190.869141 0)"/>
      </g>
     </g>
    </g>
    <g id="text_35">
     <!-- co-imf1 -->
     <g transform="translate(14.798438 365.417031) rotate(-90) scale(0.1 -0.1)">
      <use xlink:href="#DejaVuSans-63"/>
      <use xlink:href="#DejaVuSans-6f" transform="translate(54.980469 0)"/>
      <use xlink:href="#DejaVuSans-2d" transform="translate(118.037109 0)"/>
      <use xlink:href="#DejaVuSans-69" transform="translate(154.121094 0)"/>
      <use xlink:href="#DejaVuSans-6d" transform="translate(181.904297 0)"/>
      <use xlink:href="#DejaVuSans-66" transform="translate(279.316406 0)"/>
      <use xlink:href="#DejaVuSans-31" transform="translate(314.521484 0)"/>
     </g>
    </g>
   </g>
   <g id="line2d_35">
    <path d="M 110.60554 343.119154 
L 117.245386 343.47529 
L 121.988134 343.544027 
L 125.782332 343.410846 
L 134.319278 342.907365 
L 137.164926 342.98918 
L 140.959124 343.377716 
L 146.650421 344.054156 
L 150.444619 344.246772 
L 158.981565 344.338248 
L 164.672862 344.531397 
L 167.51851 344.38096 
L 172.261258 344.043655 
L 174.158357 344.103536 
L 177.952555 344.531026 
L 180.798204 344.814787 
L 183.643852 344.879008 
L 185.540951 344.742278 
L 188.3866 344.267214 
L 193.129347 343.312837 
L 195.026446 343.091111 
L 196.923545 343.017436 
L 199.769194 343.185364 
L 202.614842 343.665128 
L 207.35759 344.557852 
L 209.254689 344.707747 
L 212.100337 344.654503 
L 218.740184 344.19454 
L 221.585833 344.461016 
L 229.174229 345.502703 
L 235.814075 345.798318 
L 240.556823 345.884825 
L 243.402471 345.711806 
L 246.24812 345.250635 
L 252.887966 343.878396 
L 254.785065 343.709517 
L 257.630714 343.751928 
L 261.424912 344.167297 
L 266.16766 344.715736 
L 273.756056 345.223724 
L 277.550254 345.404043 
L 280.395902 345.30992 
L 283.241551 344.940018 
L 289.881397 343.743795 
L 292.727046 343.543149 
L 301.263991 343.441933 
L 306.006739 343.494584 
L 310.749487 343.594785 
L 312.646586 343.467624 
L 314.543685 343.180181 
L 317.389333 342.510705 
L 321.183531 341.64235 
L 323.08063 341.464822 
L 324.977729 341.565863 
L 327.823378 342.047618 
L 330.669026 342.537237 
L 332.566125 342.732596 
L 334.463224 342.752507 
L 337.308873 342.459295 
L 341.103071 342.044696 
L 343.948719 341.998741 
L 346.794368 342.272791 
L 351.537115 342.833308 
L 355.331314 342.962278 
L 362.91971 342.906132 
L 373.353754 342.469599 
L 377.147952 342.745569 
L 383.787799 343.332548 
L 387.581997 343.401388 
L 394.221843 343.411534 
L 401.81024 343.624872 
L 404.655888 343.708071 
L 407.501537 344.060784 
L 412.244284 344.689502 
L 415.089933 344.793398 
L 417.935581 344.640156 
L 421.729779 344.366409 
L 424.575428 344.392334 
L 431.215274 344.867937 
L 434.060923 345.140167 
L 435.958022 345.492811 
L 441.649319 346.802163 
L 442.597868 346.836618 
L 444.494968 346.580464 
L 446.392067 345.971976 
L 449.237715 344.895352 
L 451.134814 344.48545 
L 452.083364 344.467946 
L 453.980463 344.879006 
L 457.774661 346.203919 
L 458.72321 346.362365 
L 459.67176 346.370269 
L 460.620309 346.196153 
L 461.568859 345.870474 
L 462.517408 345.372936 
L 463.465958 344.72542 
L 465.363057 342.99892 
L 470.105804 337.851352 
L 471.054354 337.103702 
L 472.002903 336.577401 
L 472.951453 336.262133 
L 473.900002 336.160542 
L 474.848552 336.225047 
L 475.797101 336.449967 
L 477.6942 337.254653 
L 479.591299 338.380358 
L 483.385497 340.763374 
L 485.282596 341.539097 
L 486.231146 341.730104 
L 488.128245 341.746 
L 490.025344 341.453338 
L 493.819542 340.752025 
L 495.716641 340.637825 
L 497.61374 340.815299 
L 499.510839 341.337718 
L 503.305037 342.88574 
L 506.150686 343.92107 
L 508.047785 344.431778 
L 509.944884 344.770777 
L 516.58473 345.633353 
L 519.430379 346.391337 
L 524.173126 347.778698 
L 526.070225 348.071303 
L 528.915874 348.169203 
L 534.607171 348.175558 
L 536.50427 348.405039 
L 539.349919 349.022746 
L 547.886864 351.37046 
L 550.732513 351.768576 
L 554.526711 351.987543 
L 560.218008 352.101199 
L 562.115107 352.014163 
L 564.012206 351.750944 
L 565.909305 351.283776 
L 568.754953 350.26522 
L 574.44625 347.973313 
L 576.343349 347.433711 
L 578.240449 347.135032 
L 580.137548 347.081346 
L 582.034647 347.226521 
L 584.880295 347.694603 
L 592.468691 349.180593 
L 596.262889 349.684855 
L 602.902736 350.451417 
L 610.491132 351.376156 
L 621.873726 352.536169 
L 624.719375 352.365684 
L 628.513573 352.069207 
L 631.359221 352.13827 
L 637.050518 352.415411 
L 638.947617 352.330299 
L 641.793266 351.964147 
L 645.587464 351.442693 
L 648.433112 351.367176 
L 653.17586 351.439194 
L 655.072959 351.207625 
L 656.970058 350.729116 
L 661.712805 349.154749 
L 663.609904 348.809629 
L 665.507003 348.779022 
L 668.352652 349.092152 
L 672.14685 349.52208 
L 674.043949 349.533505 
L 675.941048 349.324312 
L 677.838147 348.914688 
L 680.683796 347.999306 
L 687.323642 345.559676 
L 689.220741 345.217589 
L 692.06639 345.005602 
L 694.912038 344.745279 
L 696.809137 344.212154 
L 698.706236 343.254645 
L 700.603335 341.924943 
L 703.448984 339.492529 
L 707.243182 336.189126 
L 709.140281 334.799678 
L 711.03738 333.668589 
L 712.934479 332.792742 
L 714.831578 332.159662 
L 716.728677 331.755987 
L 718.625776 331.56376 
L 721.471425 331.565214 
L 728.111271 331.83629 
L 730.95692 331.621022 
L 732.854019 331.272491 
L 734.751118 330.720999 
L 736.648217 329.938267 
L 742.339514 327.074679 
L 744.236613 326.496411 
L 746.133712 326.248752 
L 748.97936 326.252479 
L 750.876459 326.222621 
L 752.773558 325.882613 
L 756.567757 325.029829 
L 758.464856 324.88467 
L 767.001801 324.604092 
L 770.795999 324.090253 
L 779.332945 322.752174 
L 783.127143 322.473325 
L 786.921341 322.411689 
L 797.355385 322.402751 
L 803.046683 322.243571 
L 806.840881 322.368071 
L 810.635079 322.706231 
L 814.429277 323.263513 
L 818.223475 324.042316 
L 822.017673 325.074264 
L 826.76042 326.726763 
L 830.554618 327.924055 
L 834.348816 328.852128 
L 843.834311 330.893151 
L 847.62851 332.198744 
L 852.371257 333.841653 
L 857.114005 335.098857 
L 859.959653 335.910094 
L 862.805302 337.002013 
L 864.702401 337.961965 
L 870.393698 341.106577 
L 872.290797 341.802665 
L 876.084995 342.961713 
L 877.982094 343.863695 
L 879.879193 345.026406 
L 882.724841 346.747501 
L 884.62194 347.411353 
L 886.519039 347.657241 
L 892.210337 347.83403 
L 893.158886 348.044613 
L 894.107436 348.379728 
L 896.004535 349.456227 
L 900.747282 352.701395 
L 902.644381 353.607374 
L 909.284228 356.335715 
L 915.924074 360.058066 
L 917.821173 361.249027 
L 919.718272 362.6672 
L 920.666822 363.542468 
L 921.615371 364.573149 
L 922.563921 365.808836 
L 923.51247 367.286946 
L 924.46102 369.011223 
L 926.358119 373.220772 
L 928.255218 378.261154 
L 932.997965 391.57516 
L 933.946515 393.754201 
L 934.895065 395.554863 
L 935.843614 396.887364 
L 936.792164 397.717775 
L 937.740713 398.064545 
L 938.689263 397.895594 
L 939.637812 397.219928 
L 940.586362 396.026291 
L 941.534911 394.306584 
L 942.483461 392.057664 
L 943.43201 389.266325 
L 944.38056 385.930679 
L 945.329109 382.052411 
L 947.226208 372.712884 
L 949.123307 361.588776 
L 952.917505 336.722082 
L 955.763154 318.878465 
L 957.660253 308.836759 
L 958.608802 304.669133 
L 959.557352 301.202342 
L 960.505901 298.506844 
L 961.454451 296.60217 
L 962.403 295.431192 
L 963.35155 294.955455 
L 964.300099 295.078232 
L 965.248649 295.750018 
L 966.197198 296.888675 
L 967.145748 298.42298 
L 968.094297 300.28683 
L 969.991396 304.706897 
L 974.734144 316.626989 
L 975.682693 318.615696 
L 976.631243 320.301314 
L 977.579792 321.605411 
L 978.528342 322.452899 
L 979.476892 322.801078 
L 980.425441 322.687815 
L 981.373991 322.263971 
L 984.219639 320.443834 
L 985.168189 320.119234 
L 986.116738 320.079509 
L 987.065288 320.320666 
L 988.013837 320.892486 
L 988.962387 321.785661 
L 989.910936 322.977009 
L 991.808035 325.875594 
L 994.653684 330.304202 
L 996.550783 332.67695 
L 998.447882 334.603078 
L 1000.344981 336.189582 
L 1002.24208 337.523431 
L 1005.087728 339.210749 
L 1015.521773 344.945894 
L 1017.418872 346.329715 
L 1020.26452 348.771703 
L 1024.058719 352.198308 
L 1025.955818 353.591479 
L 1027.852917 354.570809 
L 1029.750016 355.184118 
L 1031.647115 355.528868 
L 1038.286961 356.38058 
L 1040.18406 357.09931 
L 1042.081159 358.18462 
L 1045.875357 360.597566 
L 1047.772456 361.446288 
L 1048.721006 361.689219 
L 1049.669555 361.815219 
L 1050.618105 361.801912 
L 1051.566654 361.650831 
L 1052.515204 361.351096 
L 1053.463753 360.896527 
L 1054.412303 360.27965 
L 1056.309402 358.66437 
L 1059.15505 356.040472 
L 1060.1036 355.333384 
L 1061.052149 354.78896 
L 1062.000699 354.453783 
L 1062.949248 354.301186 
L 1063.897798 354.349542 
L 1064.846347 354.574531 
L 1065.794897 354.977349 
L 1066.743446 355.548187 
L 1068.640546 357.12966 
L 1072.434744 360.791677 
L 1074.331843 362.152844 
L 1076.228942 363.04366 
L 1078.126041 363.490705 
L 1080.02314 363.515165 
L 1081.920239 363.167879 
L 1084.765887 362.232055 
L 1087.611536 361.239063 
L 1088.560085 360.977751 
L 1088.560085 360.977751 
" clip-path="url(#p40a490d940)" style="fill: none; stroke: #f27f19; stroke-width: 1.5; stroke-linecap: square"/>
   </g>
   <g id="patch_13">
    <path d="M 61.707813 403.22 
L 61.707813 289.8 
" style="fill: none; stroke: #000000; stroke-width: 0.8; stroke-linejoin: miter; stroke-linecap: square"/>
   </g>
   <g id="patch_14">
    <path d="M 1137.457813 403.22 
L 1137.457813 289.8 
" style="fill: none; stroke: #000000; stroke-width: 0.8; stroke-linejoin: miter; stroke-linecap: square"/>
   </g>
   <g id="patch_15">
    <path d="M 61.707813 403.22 
L 1137.457813 403.22 
" style="fill: none; stroke: #000000; stroke-width: 0.8; stroke-linejoin: miter; stroke-linecap: square"/>
   </g>
   <g id="patch_16">
    <path d="M 61.707813 289.8 
L 1137.457813 289.8 
" style="fill: none; stroke: #000000; stroke-width: 0.8; stroke-linejoin: miter; stroke-linecap: square"/>
   </g>
  </g>
  <g id="axes_4">
   <g id="patch_17">
    <path d="M 61.707813 544.52 
L 1137.457813 544.52 
L 1137.457813 431.1 
L 61.707813 431.1 
z
" style="fill: #ffffff"/>
   </g>
   <g id="matplotlib.axis_7">
    <g id="xtick_19">
     <g id="line2d_36">
      <g>
       <use xlink:href="#mae7dbba1c1" x="110.60554" y="544.52" style="stroke: #000000; stroke-width: 0.8"/>
      </g>
     </g>
     <g id="text_36">
      <!-- 0 -->
      <g transform="translate(107.42429 559.118437) scale(0.1 -0.1)">
       <use xlink:href="#DejaVuSans-30"/>
      </g>
     </g>
    </g>
    <g id="xtick_20">
     <g id="line2d_37">
      <g>
       <use xlink:href="#mae7dbba1c1" x="300.315442" y="544.52" style="stroke: #000000; stroke-width: 0.8"/>
      </g>
     </g>
     <g id="text_37">
      <!-- 200 -->
      <g transform="translate(290.771692 559.118437) scale(0.1 -0.1)">
       <use xlink:href="#DejaVuSans-32"/>
       <use xlink:href="#DejaVuSans-30" transform="translate(63.623047 0)"/>
       <use xlink:href="#DejaVuSans-30" transform="translate(127.246094 0)"/>
      </g>
     </g>
    </g>
    <g id="xtick_21">
     <g id="line2d_38">
      <g>
       <use xlink:href="#mae7dbba1c1" x="490.025344" y="544.52" style="stroke: #000000; stroke-width: 0.8"/>
      </g>
     </g>
     <g id="text_38">
      <!-- 400 -->
      <g transform="translate(480.481594 559.118437) scale(0.1 -0.1)">
       <use xlink:href="#DejaVuSans-34"/>
       <use xlink:href="#DejaVuSans-30" transform="translate(63.623047 0)"/>
       <use xlink:href="#DejaVuSans-30" transform="translate(127.246094 0)"/>
      </g>
     </g>
    </g>
    <g id="xtick_22">
     <g id="line2d_39">
      <g>
       <use xlink:href="#mae7dbba1c1" x="679.735246" y="544.52" style="stroke: #000000; stroke-width: 0.8"/>
      </g>
     </g>
     <g id="text_39">
      <!-- 600 -->
      <g transform="translate(670.191496 559.118437) scale(0.1 -0.1)">
       <use xlink:href="#DejaVuSans-36"/>
       <use xlink:href="#DejaVuSans-30" transform="translate(63.623047 0)"/>
       <use xlink:href="#DejaVuSans-30" transform="translate(127.246094 0)"/>
      </g>
     </g>
    </g>
    <g id="xtick_23">
     <g id="line2d_40">
      <g>
       <use xlink:href="#mae7dbba1c1" x="869.445148" y="544.52" style="stroke: #000000; stroke-width: 0.8"/>
      </g>
     </g>
     <g id="text_40">
      <!-- 800 -->
      <g transform="translate(859.901398 559.118437) scale(0.1 -0.1)">
       <use xlink:href="#DejaVuSans-38"/>
       <use xlink:href="#DejaVuSans-30" transform="translate(63.623047 0)"/>
       <use xlink:href="#DejaVuSans-30" transform="translate(127.246094 0)"/>
      </g>
     </g>
    </g>
    <g id="xtick_24">
     <g id="line2d_41">
      <g>
       <use xlink:href="#mae7dbba1c1" x="1059.15505" y="544.52" style="stroke: #000000; stroke-width: 0.8"/>
      </g>
     </g>
     <g id="text_41">
      <!-- 1000 -->
      <g transform="translate(1046.43005 559.118437) scale(0.1 -0.1)">
       <use xlink:href="#DejaVuSans-31"/>
       <use xlink:href="#DejaVuSans-30" transform="translate(63.623047 0)"/>
       <use xlink:href="#DejaVuSans-30" transform="translate(127.246094 0)"/>
       <use xlink:href="#DejaVuSans-30" transform="translate(190.869141 0)"/>
      </g>
     </g>
    </g>
   </g>
   <g id="matplotlib.axis_8">
    <g id="ytick_15">
     <g id="line2d_42">
      <g>
       <use xlink:href="#m233527e2f4" x="61.707813" y="526.856639" style="stroke: #000000; stroke-width: 0.8"/>
      </g>
     </g>
     <g id="text_42">
      <!-- 4000 -->
      <g transform="translate(29.257812 530.655858) scale(0.1 -0.1)">
       <use xlink:href="#DejaVuSans-34"/>
       <use xlink:href="#DejaVuSans-30" transform="translate(63.623047 0)"/>
       <use xlink:href="#DejaVuSans-30" transform="translate(127.246094 0)"/>
       <use xlink:href="#DejaVuSans-30" transform="translate(190.869141 0)"/>
      </g>
     </g>
    </g>
    <g id="ytick_16">
     <g id="line2d_43">
      <g>
       <use xlink:href="#m233527e2f4" x="61.707813" y="496.679995" style="stroke: #000000; stroke-width: 0.8"/>
      </g>
     </g>
     <g id="text_43">
      <!-- 6000 -->
      <g transform="translate(29.257812 500.479213) scale(0.1 -0.1)">
       <use xlink:href="#DejaVuSans-36"/>
       <use xlink:href="#DejaVuSans-30" transform="translate(63.623047 0)"/>
       <use xlink:href="#DejaVuSans-30" transform="translate(127.246094 0)"/>
       <use xlink:href="#DejaVuSans-30" transform="translate(190.869141 0)"/>
      </g>
     </g>
    </g>
    <g id="ytick_17">
     <g id="line2d_44">
      <g>
       <use xlink:href="#m233527e2f4" x="61.707813" y="466.50335" style="stroke: #000000; stroke-width: 0.8"/>
      </g>
     </g>
     <g id="text_44">
      <!-- 8000 -->
      <g transform="translate(29.257812 470.302569) scale(0.1 -0.1)">
       <use xlink:href="#DejaVuSans-38"/>
       <use xlink:href="#DejaVuSans-30" transform="translate(63.623047 0)"/>
       <use xlink:href="#DejaVuSans-30" transform="translate(127.246094 0)"/>
       <use xlink:href="#DejaVuSans-30" transform="translate(190.869141 0)"/>
      </g>
     </g>
    </g>
    <g id="ytick_18">
     <g id="line2d_45">
      <g>
       <use xlink:href="#m233527e2f4" x="61.707813" y="436.326706" style="stroke: #000000; stroke-width: 0.8"/>
      </g>
     </g>
     <g id="text_45">
      <!-- 10000 -->
      <g transform="translate(22.895313 440.125924) scale(0.1 -0.1)">
       <use xlink:href="#DejaVuSans-31"/>
       <use xlink:href="#DejaVuSans-30" transform="translate(63.623047 0)"/>
       <use xlink:href="#DejaVuSans-30" transform="translate(127.246094 0)"/>
       <use xlink:href="#DejaVuSans-30" transform="translate(190.869141 0)"/>
       <use xlink:href="#DejaVuSans-30" transform="translate(254.492188 0)"/>
      </g>
     </g>
    </g>
    <g id="text_46">
     <!-- co-imf2 -->
     <g transform="translate(16.815625 506.717031) rotate(-90) scale(0.1 -0.1)">
      <use xlink:href="#DejaVuSans-63"/>
      <use xlink:href="#DejaVuSans-6f" transform="translate(54.980469 0)"/>
      <use xlink:href="#DejaVuSans-2d" transform="translate(118.037109 0)"/>
      <use xlink:href="#DejaVuSans-69" transform="translate(154.121094 0)"/>
      <use xlink:href="#DejaVuSans-6d" transform="translate(181.904297 0)"/>
      <use xlink:href="#DejaVuSans-66" transform="translate(279.316406 0)"/>
      <use xlink:href="#DejaVuSans-32" transform="translate(314.521484 0)"/>
     </g>
    </g>
   </g>
   <g id="line2d_46">
    <path d="M 110.60554 538.124277 
L 164.672862 538.00791 
L 250.990867 538.02265 
L 284.1901 538.328332 
L 378.096502 539.3615 
L 396.118942 539.21173 
L 411.295735 538.872952 
L 425.523977 538.337908 
L 439.75222 537.569474 
L 453.980463 536.576139 
L 469.157255 535.299052 
L 486.231146 533.635046 
L 506.150686 531.457075 
L 560.218008 525.401163 
L 575.3948 524.010762 
L 588.674493 523.023054 
L 601.005637 522.338327 
L 612.388231 521.928054 
L 623.770825 521.745399 
L 635.153419 521.798195 
L 646.536013 522.07844 
L 657.918607 522.573137 
L 671.198301 523.389671 
L 686.375093 524.557434 
L 709.140281 526.561068 
L 736.648217 528.941282 
L 751.825009 530.027247 
L 764.156153 530.698996 
L 775.538747 531.099959 
L 785.972791 531.243961 
L 795.458286 531.157234 
L 803.995232 530.876458 
L 812.532178 530.379306 
L 820.120574 529.735532 
L 827.70897 528.882924 
L 835.297366 527.803392 
L 842.885762 526.484111 
L 850.474158 524.922479 
L 858.062554 523.117067 
L 865.65095 521.066445 
L 873.239346 518.769186 
L 880.827742 516.223861 
L 888.416138 513.42904 
L 896.004535 510.383297 
L 903.592931 507.089206 
L 911.181327 503.565365 
L 919.718272 499.355821 
L 929.203767 494.42805 
L 941.534911 487.741845 
L 985.168189 463.77656 
L 994.653684 458.96524 
L 1003.190629 454.892692 
L 1010.779025 451.523941 
L 1017.418872 448.795233 
L 1024.058719 446.288656 
L 1030.698565 444.021152 
L 1037.338412 442.00966 
L 1043.029709 440.502132 
L 1048.721006 439.20581 
L 1054.412303 438.131364 
L 1060.1036 437.289461 
L 1065.794897 436.69077 
L 1071.486194 436.345754 
L 1077.177491 436.258648 
L 1082.868788 436.423386 
L 1088.560085 436.831662 
L 1088.560085 436.831662 
" clip-path="url(#p27a68b1f98)" style="fill: none; stroke: #f27f19; stroke-width: 1.5; stroke-linecap: square"/>
   </g>
   <g id="patch_18">
    <path d="M 61.707813 544.52 
L 61.707813 431.1 
" style="fill: none; stroke: #000000; stroke-width: 0.8; stroke-linejoin: miter; stroke-linecap: square"/>
   </g>
   <g id="patch_19">
    <path d="M 1137.457813 544.52 
L 1137.457813 431.1 
" style="fill: none; stroke: #000000; stroke-width: 0.8; stroke-linejoin: miter; stroke-linecap: square"/>
   </g>
   <g id="patch_20">
    <path d="M 61.707813 544.52 
L 1137.457813 544.52 
" style="fill: none; stroke: #000000; stroke-width: 0.8; stroke-linejoin: miter; stroke-linecap: square"/>
   </g>
   <g id="patch_21">
    <path d="M 61.707813 431.1 
L 1137.457813 431.1 
" style="fill: none; stroke: #000000; stroke-width: 0.8; stroke-linejoin: miter; stroke-linecap: square"/>
   </g>
  </g>
 </g>
 <defs>
  <clipPath id="p1987408d8d">
   <rect x="61.707813" y="7.2" width="1075.75" height="113.42"/>
  </clipPath>
  <clipPath id="p628a4c1e96">
   <rect x="61.707813" y="148.5" width="1075.75" height="113.42"/>
  </clipPath>
  <clipPath id="p40a490d940">
   <rect x="61.707813" y="289.8" width="1075.75" height="113.42"/>
  </clipPath>
  <clipPath id="p27a68b1f98">
   <rect x="61.707813" y="431.1" width="1075.75" height="113.42"/>
  </clipPath>
 </defs>
</svg>
