<?xml version="1.0" encoding="utf-8" standalone="no"?>
<!DOCTYPE svg PUBLIC "-//W3C//DTD SVG 1.1//EN"
  "http://www.w3.org/Graphics/SVG/1.1/DTD/svg11.dtd">
<svg xmlns:xlink="http://www.w3.org/1999/xlink" width="1144.595312pt" height="568.398125pt" viewBox="0 0 1144.595312 568.398125" xmlns="http://www.w3.org/2000/svg" version="1.1">
 <metadata>
  <rdf:RDF xmlns:dc="http://purl.org/dc/elements/1.1/" xmlns:cc="http://creativecommons.org/ns#" xmlns:rdf="http://www.w3.org/1999/02/22-rdf-syntax-ns#">
   <cc:Work>
    <dc:type rdf:resource="http://purl.org/dc/dcmitype/StillImage"/>
    <dc:date>2025-04-14T10:15:18.378383</dc:date>
    <dc:format>image/svg+xml</dc:format>
    <dc:creator>
     <cc:Agent>
      <dc:title>Matplotlib v3.10.1, https://matplotlib.org/</dc:title>
     </cc:Agent>
    </dc:creator>
   </cc:Work>
  </rdf:RDF>
 </metadata>
 <defs>
  <style type="text/css">*{stroke-linejoin: round; stroke-linecap: butt}</style>
 </defs>
 <g id="figure_1">
  <g id="patch_1">
   <path d="M 0 568.398125 
L 1144.595312 568.398125 
L 1144.595312 0 
L 0 0 
z
" style="fill: #ffffff"/>
  </g>
  <g id="axes_1">
   <g id="patch_2">
    <path d="M 55.345313 118.715992 
L 1137.395313 118.715992 
L 1137.395313 7.2 
L 55.345313 7.2 
z
" style="fill: #ffffff"/>
   </g>
   <g id="matplotlib.axis_1">
    <g id="xtick_1">
     <g id="line2d_1">
      <defs>
       <path id="m641f23497d" d="M 0 0 
L 0 3.5 
" style="stroke: #000000; stroke-width: 0.8"/>
      </defs>
      <g>
       <use xlink:href="#m641f23497d" x="104.529403" y="118.715992" style="stroke: #000000; stroke-width: 0.8"/>
      </g>
     </g>
     <g id="text_1">
      <!-- 0 -->
      <g transform="translate(101.348153 133.314429) scale(0.1 -0.1)">
       <defs>
        <path id="DejaVuSans-30" d="M 2034 4250 
Q 1547 4250 1301 3770 
Q 1056 3291 1056 2328 
Q 1056 1369 1301 889 
Q 1547 409 2034 409 
Q 2525 409 2770 889 
Q 3016 1369 3016 2328 
Q 3016 3291 2770 3770 
Q 2525 4250 2034 4250 
z
M 2034 4750 
Q 2819 4750 3233 4129 
Q 3647 3509 3647 2328 
Q 3647 1150 3233 529 
Q 2819 -91 2034 -91 
Q 1250 -91 836 529 
Q 422 1150 422 2328 
Q 422 3509 836 4129 
Q 1250 4750 2034 4750 
z
" transform="scale(0.015625)"/>
       </defs>
       <use xlink:href="#DejaVuSans-30"/>
      </g>
     </g>
    </g>
    <g id="xtick_2">
     <g id="line2d_2">
      <g>
       <use xlink:href="#m641f23497d" x="306.103546" y="118.715992" style="stroke: #000000; stroke-width: 0.8"/>
      </g>
     </g>
     <g id="text_2">
      <!-- 100 -->
      <g transform="translate(296.559796 133.314429) scale(0.1 -0.1)">
       <defs>
        <path id="DejaVuSans-31" d="M 794 531 
L 1825 531 
L 1825 4091 
L 703 3866 
L 703 4441 
L 1819 4666 
L 2450 4666 
L 2450 531 
L 3481 531 
L 3481 0 
L 794 0 
L 794 531 
z
" transform="scale(0.015625)"/>
       </defs>
       <use xlink:href="#DejaVuSans-31"/>
       <use xlink:href="#DejaVuSans-30" transform="translate(63.623047 0)"/>
       <use xlink:href="#DejaVuSans-30" transform="translate(127.246094 0)"/>
      </g>
     </g>
    </g>
    <g id="xtick_3">
     <g id="line2d_3">
      <g>
       <use xlink:href="#m641f23497d" x="507.67769" y="118.715992" style="stroke: #000000; stroke-width: 0.8"/>
      </g>
     </g>
     <g id="text_3">
      <!-- 200 -->
      <g transform="translate(498.13394 133.314429) scale(0.1 -0.1)">
       <defs>
        <path id="DejaVuSans-32" d="M 1228 531 
L 3431 531 
L 3431 0 
L 469 0 
L 469 531 
Q 828 903 1448 1529 
Q 2069 2156 2228 2338 
Q 2531 2678 2651 2914 
Q 2772 3150 2772 3378 
Q 2772 3750 2511 3984 
Q 2250 4219 1831 4219 
Q 1534 4219 1204 4116 
Q 875 4013 500 3803 
L 500 4441 
Q 881 4594 1212 4672 
Q 1544 4750 1819 4750 
Q 2544 4750 2975 4387 
Q 3406 4025 3406 3419 
Q 3406 3131 3298 2873 
Q 3191 2616 2906 2266 
Q 2828 2175 2409 1742 
Q 1991 1309 1228 531 
z
" transform="scale(0.015625)"/>
       </defs>
       <use xlink:href="#DejaVuSans-32"/>
       <use xlink:href="#DejaVuSans-30" transform="translate(63.623047 0)"/>
       <use xlink:href="#DejaVuSans-30" transform="translate(127.246094 0)"/>
      </g>
     </g>
    </g>
    <g id="xtick_4">
     <g id="line2d_4">
      <g>
       <use xlink:href="#m641f23497d" x="709.251833" y="118.715992" style="stroke: #000000; stroke-width: 0.8"/>
      </g>
     </g>
     <g id="text_4">
      <!-- 300 -->
      <g transform="translate(699.708083 133.314429) scale(0.1 -0.1)">
       <defs>
        <path id="DejaVuSans-33" d="M 2597 2516 
Q 3050 2419 3304 2112 
Q 3559 1806 3559 1356 
Q 3559 666 3084 287 
Q 2609 -91 1734 -91 
Q 1441 -91 1130 -33 
Q 819 25 488 141 
L 488 750 
Q 750 597 1062 519 
Q 1375 441 1716 441 
Q 2309 441 2620 675 
Q 2931 909 2931 1356 
Q 2931 1769 2642 2001 
Q 2353 2234 1838 2234 
L 1294 2234 
L 1294 2753 
L 1863 2753 
Q 2328 2753 2575 2939 
Q 2822 3125 2822 3475 
Q 2822 3834 2567 4026 
Q 2313 4219 1838 4219 
Q 1578 4219 1281 4162 
Q 984 4106 628 3988 
L 628 4550 
Q 988 4650 1302 4700 
Q 1616 4750 1894 4750 
Q 2613 4750 3031 4423 
Q 3450 4097 3450 3541 
Q 3450 3153 3228 2886 
Q 3006 2619 2597 2516 
z
" transform="scale(0.015625)"/>
       </defs>
       <use xlink:href="#DejaVuSans-33"/>
       <use xlink:href="#DejaVuSans-30" transform="translate(63.623047 0)"/>
       <use xlink:href="#DejaVuSans-30" transform="translate(127.246094 0)"/>
      </g>
     </g>
    </g>
    <g id="xtick_5">
     <g id="line2d_5">
      <g>
       <use xlink:href="#m641f23497d" x="910.825976" y="118.715992" style="stroke: #000000; stroke-width: 0.8"/>
      </g>
     </g>
     <g id="text_5">
      <!-- 400 -->
      <g transform="translate(901.282226 133.314429) scale(0.1 -0.1)">
       <defs>
        <path id="DejaVuSans-34" d="M 2419 4116 
L 825 1625 
L 2419 1625 
L 2419 4116 
z
M 2253 4666 
L 3047 4666 
L 3047 1625 
L 3713 1625 
L 3713 1100 
L 3047 1100 
L 3047 0 
L 2419 0 
L 2419 1100 
L 313 1100 
L 313 1709 
L 2253 4666 
z
" transform="scale(0.015625)"/>
       </defs>
       <use xlink:href="#DejaVuSans-34"/>
       <use xlink:href="#DejaVuSans-30" transform="translate(63.623047 0)"/>
       <use xlink:href="#DejaVuSans-30" transform="translate(127.246094 0)"/>
      </g>
     </g>
    </g>
    <g id="xtick_6">
     <g id="line2d_6">
      <g>
       <use xlink:href="#m641f23497d" x="1112.400119" y="118.715992" style="stroke: #000000; stroke-width: 0.8"/>
      </g>
     </g>
     <g id="text_6">
      <!-- 500 -->
      <g transform="translate(1102.856369 133.314429) scale(0.1 -0.1)">
       <defs>
        <path id="DejaVuSans-35" d="M 691 4666 
L 3169 4666 
L 3169 4134 
L 1269 4134 
L 1269 2991 
Q 1406 3038 1543 3061 
Q 1681 3084 1819 3084 
Q 2600 3084 3056 2656 
Q 3513 2228 3513 1497 
Q 3513 744 3044 326 
Q 2575 -91 1722 -91 
Q 1428 -91 1123 -41 
Q 819 9 494 109 
L 494 744 
Q 775 591 1075 516 
Q 1375 441 1709 441 
Q 2250 441 2565 725 
Q 2881 1009 2881 1497 
Q 2881 1984 2565 2268 
Q 2250 2553 1709 2553 
Q 1456 2553 1204 2497 
Q 953 2441 691 2322 
L 691 4666 
z
" transform="scale(0.015625)"/>
       </defs>
       <use xlink:href="#DejaVuSans-35"/>
       <use xlink:href="#DejaVuSans-30" transform="translate(63.623047 0)"/>
       <use xlink:href="#DejaVuSans-30" transform="translate(127.246094 0)"/>
      </g>
     </g>
    </g>
   </g>
   <g id="matplotlib.axis_2">
    <g id="ytick_1">
     <g id="line2d_7">
      <defs>
       <path id="m9bcd36cca7" d="M 0 0 
L -3.5 0 
" style="stroke: #000000; stroke-width: 0.8"/>
      </defs>
      <g>
       <use xlink:href="#m9bcd36cca7" x="55.345313" y="116.604254" style="stroke: #000000; stroke-width: 0.8"/>
      </g>
     </g>
     <g id="text_7">
      <!-- 4500 -->
      <g transform="translate(22.895313 120.403472) scale(0.1 -0.1)">
       <use xlink:href="#DejaVuSans-34"/>
       <use xlink:href="#DejaVuSans-35" transform="translate(63.623047 0)"/>
       <use xlink:href="#DejaVuSans-30" transform="translate(127.246094 0)"/>
       <use xlink:href="#DejaVuSans-30" transform="translate(190.869141 0)"/>
      </g>
     </g>
    </g>
    <g id="ytick_2">
     <g id="line2d_8">
      <g>
       <use xlink:href="#m9bcd36cca7" x="55.345313" y="92.528837" style="stroke: #000000; stroke-width: 0.8"/>
      </g>
     </g>
     <g id="text_8">
      <!-- 5000 -->
      <g transform="translate(22.895313 96.328056) scale(0.1 -0.1)">
       <use xlink:href="#DejaVuSans-35"/>
       <use xlink:href="#DejaVuSans-30" transform="translate(63.623047 0)"/>
       <use xlink:href="#DejaVuSans-30" transform="translate(127.246094 0)"/>
       <use xlink:href="#DejaVuSans-30" transform="translate(190.869141 0)"/>
      </g>
     </g>
    </g>
    <g id="ytick_3">
     <g id="line2d_9">
      <g>
       <use xlink:href="#m9bcd36cca7" x="55.345313" y="68.45342" style="stroke: #000000; stroke-width: 0.8"/>
      </g>
     </g>
     <g id="text_9">
      <!-- 5500 -->
      <g transform="translate(22.895313 72.252639) scale(0.1 -0.1)">
       <use xlink:href="#DejaVuSans-35"/>
       <use xlink:href="#DejaVuSans-35" transform="translate(63.623047 0)"/>
       <use xlink:href="#DejaVuSans-30" transform="translate(127.246094 0)"/>
       <use xlink:href="#DejaVuSans-30" transform="translate(190.869141 0)"/>
      </g>
     </g>
    </g>
    <g id="ytick_4">
     <g id="line2d_10">
      <g>
       <use xlink:href="#m9bcd36cca7" x="55.345313" y="44.378003" style="stroke: #000000; stroke-width: 0.8"/>
      </g>
     </g>
     <g id="text_10">
      <!-- 6000 -->
      <g transform="translate(22.895313 48.177222) scale(0.1 -0.1)">
       <defs>
        <path id="DejaVuSans-36" d="M 2113 2584 
Q 1688 2584 1439 2293 
Q 1191 2003 1191 1497 
Q 1191 994 1439 701 
Q 1688 409 2113 409 
Q 2538 409 2786 701 
Q 3034 994 3034 1497 
Q 3034 2003 2786 2293 
Q 2538 2584 2113 2584 
z
M 3366 4563 
L 3366 3988 
Q 3128 4100 2886 4159 
Q 2644 4219 2406 4219 
Q 1781 4219 1451 3797 
Q 1122 3375 1075 2522 
Q 1259 2794 1537 2939 
Q 1816 3084 2150 3084 
Q 2853 3084 3261 2657 
Q 3669 2231 3669 1497 
Q 3669 778 3244 343 
Q 2819 -91 2113 -91 
Q 1303 -91 875 529 
Q 447 1150 447 2328 
Q 447 3434 972 4092 
Q 1497 4750 2381 4750 
Q 2619 4750 2861 4703 
Q 3103 4656 3366 4563 
z
" transform="scale(0.015625)"/>
       </defs>
       <use xlink:href="#DejaVuSans-36"/>
       <use xlink:href="#DejaVuSans-30" transform="translate(63.623047 0)"/>
       <use xlink:href="#DejaVuSans-30" transform="translate(127.246094 0)"/>
       <use xlink:href="#DejaVuSans-30" transform="translate(190.869141 0)"/>
      </g>
     </g>
    </g>
    <g id="ytick_5">
     <g id="line2d_11">
      <g>
       <use xlink:href="#m9bcd36cca7" x="55.345313" y="20.302586" style="stroke: #000000; stroke-width: 0.8"/>
      </g>
     </g>
     <g id="text_11">
      <!-- 6500 -->
      <g transform="translate(22.895313 24.101805) scale(0.1 -0.1)">
       <use xlink:href="#DejaVuSans-36"/>
       <use xlink:href="#DejaVuSans-35" transform="translate(63.623047 0)"/>
       <use xlink:href="#DejaVuSans-30" transform="translate(127.246094 0)"/>
       <use xlink:href="#DejaVuSans-30" transform="translate(190.869141 0)"/>
      </g>
     </g>
    </g>
    <g id="text_12">
     <!-- Original Data -->
     <g transform="translate(16.815625 96.050965) rotate(-90) scale(0.1 -0.1)">
      <defs>
       <path id="DejaVuSans-4f" d="M 2522 4238 
Q 1834 4238 1429 3725 
Q 1025 3213 1025 2328 
Q 1025 1447 1429 934 
Q 1834 422 2522 422 
Q 3209 422 3611 934 
Q 4013 1447 4013 2328 
Q 4013 3213 3611 3725 
Q 3209 4238 2522 4238 
z
M 2522 4750 
Q 3503 4750 4090 4092 
Q 4678 3434 4678 2328 
Q 4678 1225 4090 567 
Q 3503 -91 2522 -91 
Q 1538 -91 948 565 
Q 359 1222 359 2328 
Q 359 3434 948 4092 
Q 1538 4750 2522 4750 
z
" transform="scale(0.015625)"/>
       <path id="DejaVuSans-72" d="M 2631 2963 
Q 2534 3019 2420 3045 
Q 2306 3072 2169 3072 
Q 1681 3072 1420 2755 
Q 1159 2438 1159 1844 
L 1159 0 
L 581 0 
L 581 3500 
L 1159 3500 
L 1159 2956 
Q 1341 3275 1631 3429 
Q 1922 3584 2338 3584 
Q 2397 3584 2469 3576 
Q 2541 3569 2628 3553 
L 2631 2963 
z
" transform="scale(0.015625)"/>
       <path id="DejaVuSans-69" d="M 603 3500 
L 1178 3500 
L 1178 0 
L 603 0 
L 603 3500 
z
M 603 4863 
L 1178 4863 
L 1178 4134 
L 603 4134 
L 603 4863 
z
" transform="scale(0.015625)"/>
       <path id="DejaVuSans-67" d="M 2906 1791 
Q 2906 2416 2648 2759 
Q 2391 3103 1925 3103 
Q 1463 3103 1205 2759 
Q 947 2416 947 1791 
Q 947 1169 1205 825 
Q 1463 481 1925 481 
Q 2391 481 2648 825 
Q 2906 1169 2906 1791 
z
M 3481 434 
Q 3481 -459 3084 -895 
Q 2688 -1331 1869 -1331 
Q 1566 -1331 1297 -1286 
Q 1028 -1241 775 -1147 
L 775 -588 
Q 1028 -725 1275 -790 
Q 1522 -856 1778 -856 
Q 2344 -856 2625 -561 
Q 2906 -266 2906 331 
L 2906 616 
Q 2728 306 2450 153 
Q 2172 0 1784 0 
Q 1141 0 747 490 
Q 353 981 353 1791 
Q 353 2603 747 3093 
Q 1141 3584 1784 3584 
Q 2172 3584 2450 3431 
Q 2728 3278 2906 2969 
L 2906 3500 
L 3481 3500 
L 3481 434 
z
" transform="scale(0.015625)"/>
       <path id="DejaVuSans-6e" d="M 3513 2113 
L 3513 0 
L 2938 0 
L 2938 2094 
Q 2938 2591 2744 2837 
Q 2550 3084 2163 3084 
Q 1697 3084 1428 2787 
Q 1159 2491 1159 1978 
L 1159 0 
L 581 0 
L 581 3500 
L 1159 3500 
L 1159 2956 
Q 1366 3272 1645 3428 
Q 1925 3584 2291 3584 
Q 2894 3584 3203 3211 
Q 3513 2838 3513 2113 
z
" transform="scale(0.015625)"/>
       <path id="DejaVuSans-61" d="M 2194 1759 
Q 1497 1759 1228 1600 
Q 959 1441 959 1056 
Q 959 750 1161 570 
Q 1363 391 1709 391 
Q 2188 391 2477 730 
Q 2766 1069 2766 1631 
L 2766 1759 
L 2194 1759 
z
M 3341 1997 
L 3341 0 
L 2766 0 
L 2766 531 
Q 2569 213 2275 61 
Q 1981 -91 1556 -91 
Q 1019 -91 701 211 
Q 384 513 384 1019 
Q 384 1609 779 1909 
Q 1175 2209 1959 2209 
L 2766 2209 
L 2766 2266 
Q 2766 2663 2505 2880 
Q 2244 3097 1772 3097 
Q 1472 3097 1187 3025 
Q 903 2953 641 2809 
L 641 3341 
Q 956 3463 1253 3523 
Q 1550 3584 1831 3584 
Q 2591 3584 2966 3190 
Q 3341 2797 3341 1997 
z
" transform="scale(0.015625)"/>
       <path id="DejaVuSans-6c" d="M 603 4863 
L 1178 4863 
L 1178 0 
L 603 0 
L 603 4863 
z
" transform="scale(0.015625)"/>
       <path id="DejaVuSans-20" transform="scale(0.015625)"/>
       <path id="DejaVuSans-44" d="M 1259 4147 
L 1259 519 
L 2022 519 
Q 2988 519 3436 956 
Q 3884 1394 3884 2338 
Q 3884 3275 3436 3711 
Q 2988 4147 2022 4147 
L 1259 4147 
z
M 628 4666 
L 1925 4666 
Q 3281 4666 3915 4102 
Q 4550 3538 4550 2338 
Q 4550 1131 3912 565 
Q 3275 0 1925 0 
L 628 0 
L 628 4666 
z
" transform="scale(0.015625)"/>
       <path id="DejaVuSans-74" d="M 1172 4494 
L 1172 3500 
L 2356 3500 
L 2356 3053 
L 1172 3053 
L 1172 1153 
Q 1172 725 1289 603 
Q 1406 481 1766 481 
L 2356 481 
L 2356 0 
L 1766 0 
Q 1100 0 847 248 
Q 594 497 594 1153 
L 594 3053 
L 172 3053 
L 172 3500 
L 594 3500 
L 594 4494 
L 1172 4494 
z
" transform="scale(0.015625)"/>
      </defs>
      <use xlink:href="#DejaVuSans-4f"/>
      <use xlink:href="#DejaVuSans-72" transform="translate(78.710938 0)"/>
      <use xlink:href="#DejaVuSans-69" transform="translate(119.824219 0)"/>
      <use xlink:href="#DejaVuSans-67" transform="translate(147.607422 0)"/>
      <use xlink:href="#DejaVuSans-69" transform="translate(211.083984 0)"/>
      <use xlink:href="#DejaVuSans-6e" transform="translate(238.867188 0)"/>
      <use xlink:href="#DejaVuSans-61" transform="translate(302.246094 0)"/>
      <use xlink:href="#DejaVuSans-6c" transform="translate(363.525391 0)"/>
      <use xlink:href="#DejaVuSans-20" transform="translate(391.308594 0)"/>
      <use xlink:href="#DejaVuSans-44" transform="translate(423.095703 0)"/>
      <use xlink:href="#DejaVuSans-61" transform="translate(500.097656 0)"/>
      <use xlink:href="#DejaVuSans-74" transform="translate(561.376953 0)"/>
      <use xlink:href="#DejaVuSans-61" transform="translate(600.585938 0)"/>
     </g>
    </g>
   </g>
   <g id="line2d_12">
    <path d="M 104.529403 21.214567 
L 106.545145 21.79274 
L 108.560886 20.348801 
L 110.576628 17.044726 
L 112.592369 14.760332 
L 114.608111 13.180593 
L 116.623852 12.268909 
L 118.639593 12.657256 
L 120.655335 13.249406 
L 122.671076 14.268081 
L 124.686818 14.349566 
L 126.702559 13.201835 
L 128.718301 13.079735 
L 130.734042 13.676211 
L 132.749783 14.072733 
L 138.797008 15.742773 
L 140.812749 16.868759 
L 142.828491 18.583816 
L 144.844232 20.493002 
L 146.859973 22.730596 
L 148.875715 26.30391 
L 150.891456 31.28243 
L 152.907198 32.730323 
L 154.922939 30.468131 
L 156.938681 29.604414 
L 158.954422 29.180185 
L 160.970163 33.307033 
L 162.985905 43.287127 
L 165.001646 50.478242 
L 167.017388 55.843649 
L 169.033129 58.260449 
L 171.048871 55.796169 
L 173.064612 54.449682 
L 175.080353 53.460578 
L 177.096095 53.241844 
L 179.111836 54.997505 
L 181.127578 55.954766 
L 183.143319 56.595876 
L 185.159061 59.158215 
L 187.174802 63.424086 
L 189.190543 64.290862 
L 193.222026 59.371227 
L 195.237768 56.048706 
L 197.253509 59.10529 
L 199.269251 69.673471 
L 201.284992 74.405748 
L 203.300734 74.577708 
L 205.316475 74.241085 
L 207.332216 70.845419 
L 209.347958 70.427336 
L 211.363699 79.628607 
L 213.379441 87.758707 
L 215.395182 99.08264 
L 217.410924 107.59695 
L 219.426665 112.420487 
L 221.442406 113.647083 
L 223.458148 109.332044 
L 225.473889 99.017811 
L 227.489631 82.724935 
L 229.505372 78.407735 
L 231.521114 87.707959 
L 233.536855 83.983761 
L 235.552596 70.470556 
L 237.568338 67.749641 
L 239.584079 72.950715 
L 241.599821 79.144312 
L 243.615562 84.444196 
L 245.631304 84.890421 
L 247.647045 81.553011 
L 249.662786 81.901268 
L 251.678528 86.115824 
L 253.694269 87.936719 
L 255.710011 89.031047 
L 257.725752 88.713255 
L 259.741494 86.091859 
L 261.757235 84.376596 
L 263.772976 83.267809 
L 265.788718 81.802686 
L 267.804459 80.572287 
L 269.820201 79.101445 
L 271.835942 77.395252 
L 273.851684 76.067936 
L 275.867425 75.079557 
L 277.883166 73.758022 
L 279.898908 72.184044 
L 281.914649 73.787087 
L 283.930391 78.775666 
L 285.946132 80.966752 
L 287.961874 80.807898 
L 289.977615 78.270545 
L 291.993356 71.880806 
L 294.009098 71.757485 
L 296.024839 78.114091 
L 298.040581 87.914217 
L 300.056322 103.260301 
L 302.072064 111.392781 
L 304.087805 111.354782 
L 306.103546 108.377297 
L 308.119288 101.104094 
L 310.135029 95.647753 
L 312.150771 93.290991 
L 314.166512 90.203858 
L 316.182254 88.377338 
L 318.197995 89.414156 
L 320.213736 93.217629 
L 322.229478 93.825585 
L 324.245219 91.110714 
L 326.260961 88.080801 
L 328.276702 83.295131 
L 330.292444 80.184377 
L 332.308185 79.118761 
L 334.323927 78.562329 
L 336.339668 79.464977 
L 338.355409 79.443316 
L 342.386892 77.300672 
L 344.402634 75.619632 
L 346.418375 74.736374 
L 348.434117 74.743112 
L 352.465599 74.40666 
L 354.481341 74.587479 
L 362.544307 76.046034 
L 364.560048 75.975756 
L 366.575789 75.573011 
L 372.623014 73.044099 
L 374.638755 72.38255 
L 376.654497 72.031078 
L 378.670238 71.474306 
L 380.685979 70.785049 
L 382.701721 69.882542 
L 384.717462 68.661221 
L 386.733204 68.061923 
L 388.748945 68.101959 
L 390.764687 67.511532 
L 392.780428 66.429086 
L 394.796169 62.524133 
L 396.811911 55.280071 
L 398.827652 49.906584 
L 400.843394 45.997397 
L 402.859135 44.406535 
L 404.874877 46.428971 
L 406.890618 46.830126 
L 408.906359 46.030832 
L 410.922101 44.703254 
L 412.937842 41.74663 
L 414.953584 37.131081 
L 416.969325 30.43379 
L 418.985067 24.333485 
L 421.000808 18.805723 
L 423.016549 16.931945 
L 425.032291 19.747952 
L 427.048032 21.490852 
L 429.063774 23.022159 
L 431.079515 22.086706 
L 433.095257 17.372956 
L 435.110998 15.685208 
L 437.126739 16.378096 
L 439.142481 18.495654 
L 441.158222 23.420443 
L 443.173964 29.085728 
L 445.189705 35.769001 
L 447.205447 24.465796 
L 449.221188 26.294215 
L 451.236929 23.233028 
L 453.252671 25.838918 
L 455.268412 26.060612 
L 457.284154 25.462444 
L 459.299895 27.366409 
L 463.331378 34.371283 
L 465.34712 38.348549 
L 467.362861 41.506389 
L 469.378602 43.404651 
L 471.394344 43.953989 
L 475.425827 41.99184 
L 477.441568 41.090496 
L 479.45731 40.054236 
L 483.488792 38.45236 
L 485.504534 37.626531 
L 487.520275 37.609226 
L 491.551758 39.429606 
L 495.583241 41.889663 
L 497.598982 42.942385 
L 499.614724 43.461795 
L 503.646207 43.008799 
L 505.661948 42.583729 
L 507.67769 42.902014 
L 509.693431 44.160126 
L 513.724914 46.021997 
L 515.740655 45.723547 
L 517.756397 43.90432 
L 519.772138 42.57852 
L 521.78788 41.461194 
L 523.803621 40.921729 
L 525.819362 41.386311 
L 527.835104 41.304422 
L 529.850845 40.850124 
L 531.866587 39.815763 
L 533.882328 37.863652 
L 535.89807 36.438433 
L 537.913811 35.446388 
L 539.929552 34.990622 
L 543.961035 35.851659 
L 550.00826 37.60717 
L 552.024001 38.444307 
L 556.055484 40.595389 
L 560.086967 42.973687 
L 564.11845 45.328746 
L 568.149932 47.328417 
L 572.181415 49.41792 
L 574.197157 50.355947 
L 576.212898 51.116818 
L 578.22864 51.665308 
L 580.244381 51.406169 
L 582.260122 50.226634 
L 584.275864 50.10469 
L 586.291605 51.010817 
L 588.307347 51.624826 
L 590.323088 52.358495 
L 596.370312 55.240883 
L 598.386054 55.87659 
L 600.401795 56.352296 
L 604.433278 56.854478 
L 606.44902 57.226118 
L 608.464761 57.357806 
L 610.480503 57.303965 
L 612.496244 56.710199 
L 614.511985 55.473979 
L 616.527727 55.184821 
L 618.543468 55.844013 
L 620.55921 57.425746 
L 622.574951 60.367488 
L 624.590693 63.706081 
L 628.622175 71.439041 
L 630.637917 75.042397 
L 632.653658 76.899631 
L 634.6694 76.575715 
L 636.685141 76.122651 
L 638.700883 75.073379 
L 640.716624 75.415838 
L 642.732365 77.64433 
L 644.748107 78.684653 
L 646.763848 79.039617 
L 648.77959 79.191139 
L 650.795331 78.642183 
L 652.811073 79.147325 
L 654.826814 80.76211 
L 658.858297 83.498469 
L 660.874038 84.202074 
L 662.88978 83.940794 
L 666.921263 83.992135 
L 668.937004 83.339643 
L 670.952745 82.117563 
L 672.968487 81.175138 
L 674.984228 80.45532 
L 676.99997 79.924096 
L 679.015711 79.789799 
L 681.031453 79.279125 
L 683.047194 78.419123 
L 685.062935 76.532606 
L 687.078677 73.358181 
L 689.094418 71.61573 
L 691.11016 71.250998 
L 693.125901 71.320832 
L 695.141643 72.450674 
L 697.157384 71.405498 
L 699.173125 67.941754 
L 701.188867 65.469171 
L 703.204608 63.320396 
L 705.22035 61.413682 
L 707.236091 60.306029 
L 709.251833 59.457554 
L 713.283315 58.785891 
L 717.314798 58.254754 
L 719.33054 57.783905 
L 721.346281 58.18616 
L 723.362023 59.460416 
L 727.393505 61.533694 
L 729.409247 62.459721 
L 731.424988 63.085092 
L 733.44073 62.762798 
L 735.456471 61.30042 
L 739.487954 58.886893 
L 741.503696 58.318637 
L 743.519437 58.695644 
L 745.535178 59.468337 
L 747.55092 60.918353 
L 749.566661 61.587771 
L 751.582403 61.348433 
L 753.598144 61.921304 
L 755.613886 63.014097 
L 759.645368 64.466038 
L 761.66111 64.567582 
L 763.676851 63.924415 
L 765.692593 64.329821 
L 767.708334 65.754948 
L 769.724076 66.965198 
L 771.739817 68.312754 
L 773.755558 69.948658 
L 777.787041 73.401281 
L 779.802783 74.882092 
L 781.818524 75.815537 
L 785.850007 76.375171 
L 787.865748 76.666377 
L 789.88149 75.194638 
L 793.912973 68.856551 
L 795.928714 65.682423 
L 797.944456 65.541461 
L 799.960197 69.141811 
L 803.99168 74.915294 
L 806.007421 75.930141 
L 808.023163 74.064693 
L 810.038904 74.698946 
L 814.070387 79.825577 
L 816.086128 83.186776 
L 818.10187 89.988053 
L 820.117611 87.64827 
L 822.133353 88.491659 
L 824.149094 87.38275 
L 826.164836 86.664256 
L 828.180577 86.614908 
L 830.196318 83.862048 
L 836.243543 68.279758 
L 838.259284 65.636447 
L 840.275026 66.471734 
L 842.290767 66.76198 
L 844.306508 67.361681 
L 846.32225 67.283436 
L 848.337991 65.818882 
L 850.353733 65.051201 
L 852.369474 64.552924 
L 854.385216 63.625168 
L 856.400957 62.504458 
L 858.416698 62.743883 
L 860.43244 64.345828 
L 862.448181 65.508684 
L 864.463923 66.454596 
L 866.479664 66.916986 
L 868.495406 66.489449 
L 870.511147 67.493685 
L 872.526889 69.872579 
L 874.54263 73.201026 
L 876.558371 78.035786 
L 878.574113 80.637532 
L 880.589854 80.816939 
L 882.605596 81.210819 
L 884.621337 80.995173 
L 886.637079 80.547966 
L 888.65282 80.220281 
L 890.668561 79.174447 
L 892.684303 77.600162 
L 894.700044 76.301977 
L 896.715786 75.252258 
L 898.731527 74.979896 
L 900.747269 75.758181 
L 904.778751 76.681657 
L 906.794493 76.201328 
L 908.810234 74.466116 
L 910.825976 73.169201 
L 912.841717 72.049217 
L 914.857459 71.267194 
L 916.8732 71.149279 
L 918.888941 70.626099 
L 924.936166 68.129459 
L 926.951907 67.573195 
L 930.98339 67.259829 
L 932.999131 67.225723 
L 937.030614 67.47699 
L 939.046356 67.778397 
L 943.077839 68.696295 
L 949.125063 70.402425 
L 951.140804 70.680595 
L 953.156546 70.611067 
L 955.172287 70.248095 
L 957.188029 69.484119 
L 959.20377 67.892164 
L 963.235253 62.72643 
L 967.266736 57.063908 
L 971.298219 52.050805 
L 973.31396 49.482106 
L 975.329701 47.155041 
L 977.345443 45.060161 
L 979.361184 43.42128 
L 981.376926 42.32767 
L 983.392667 41.880278 
L 985.408409 42.202602 
L 987.42415 43.210201 
L 989.439891 44.987933 
L 991.455633 47.231093 
L 995.487116 52.800741 
L 1001.53434 61.604011 
L 1003.550082 63.688161 
L 1005.565823 64.782367 
L 1009.597306 67.259424 
L 1011.613047 67.04151 
L 1013.628789 65.444162 
L 1015.64453 64.781488 
L 1017.660272 64.923303 
L 1021.691754 64.185946 
L 1023.707496 63.30237 
L 1025.723237 61.764244 
L 1027.738979 59.345179 
L 1029.75472 55.823432 
L 1031.770462 53.368194 
L 1033.786203 52.005001 
L 1035.801944 52.302245 
L 1037.817686 54.946033 
L 1039.833427 56.670461 
L 1041.849169 57.695728 
L 1043.86491 58.38916 
L 1045.880652 58.028858 
L 1047.896393 58.464562 
L 1049.912134 59.588196 
L 1051.927876 59.63058 
L 1053.943617 58.831249 
L 1055.959359 57.677425 
L 1057.9751 55.854232 
L 1059.990842 54.405779 
L 1062.006583 53.407987 
L 1064.022324 53.400307 
L 1074.101032 60.133525 
L 1076.116773 60.992107 
L 1078.132514 61.280407 
L 1080.148256 61.408185 
L 1084.179739 61.131346 
L 1088.211222 61.001092 
L 1088.211222 61.001092 
" clip-path="url(#p6ae71cbd90)" style="fill: none; stroke: #0070c0; stroke-width: 1.5; stroke-linecap: square"/>
   </g>
   <g id="patch_3">
    <path d="M 55.345313 118.715992 
L 55.345313 7.2 
" style="fill: none; stroke: #000000; stroke-width: 0.8; stroke-linejoin: miter; stroke-linecap: square"/>
   </g>
   <g id="patch_4">
    <path d="M 1137.395313 118.715992 
L 1137.395313 7.2 
" style="fill: none; stroke: #000000; stroke-width: 0.8; stroke-linejoin: miter; stroke-linecap: square"/>
   </g>
   <g id="patch_5">
    <path d="M 55.345313 118.715992 
L 1137.395313 118.715992 
" style="fill: none; stroke: #000000; stroke-width: 0.8; stroke-linejoin: miter; stroke-linecap: square"/>
   </g>
   <g id="patch_6">
    <path d="M 55.345313 7.2 
L 1137.395313 7.2 
" style="fill: none; stroke: #000000; stroke-width: 0.8; stroke-linejoin: miter; stroke-linecap: square"/>
   </g>
  </g>
  <g id="axes_2">
   <g id="patch_7">
    <path d="M 55.345313 260.650661 
L 1137.395313 260.650661 
L 1137.395313 149.134669 
L 55.345313 149.134669 
z
" style="fill: #ffffff"/>
   </g>
   <g id="matplotlib.axis_3">
    <g id="xtick_7">
     <g id="line2d_13">
      <g>
       <use xlink:href="#m641f23497d" x="104.529403" y="260.650661" style="stroke: #000000; stroke-width: 0.8"/>
      </g>
     </g>
     <g id="text_13">
      <!-- 0 -->
      <g transform="translate(101.348153 275.249099) scale(0.1 -0.1)">
       <use xlink:href="#DejaVuSans-30"/>
      </g>
     </g>
    </g>
    <g id="xtick_8">
     <g id="line2d_14">
      <g>
       <use xlink:href="#m641f23497d" x="306.103546" y="260.650661" style="stroke: #000000; stroke-width: 0.8"/>
      </g>
     </g>
     <g id="text_14">
      <!-- 100 -->
      <g transform="translate(296.559796 275.249099) scale(0.1 -0.1)">
       <use xlink:href="#DejaVuSans-31"/>
       <use xlink:href="#DejaVuSans-30" transform="translate(63.623047 0)"/>
       <use xlink:href="#DejaVuSans-30" transform="translate(127.246094 0)"/>
      </g>
     </g>
    </g>
    <g id="xtick_9">
     <g id="line2d_15">
      <g>
       <use xlink:href="#m641f23497d" x="507.67769" y="260.650661" style="stroke: #000000; stroke-width: 0.8"/>
      </g>
     </g>
     <g id="text_15">
      <!-- 200 -->
      <g transform="translate(498.13394 275.249099) scale(0.1 -0.1)">
       <use xlink:href="#DejaVuSans-32"/>
       <use xlink:href="#DejaVuSans-30" transform="translate(63.623047 0)"/>
       <use xlink:href="#DejaVuSans-30" transform="translate(127.246094 0)"/>
      </g>
     </g>
    </g>
    <g id="xtick_10">
     <g id="line2d_16">
      <g>
       <use xlink:href="#m641f23497d" x="709.251833" y="260.650661" style="stroke: #000000; stroke-width: 0.8"/>
      </g>
     </g>
     <g id="text_16">
      <!-- 300 -->
      <g transform="translate(699.708083 275.249099) scale(0.1 -0.1)">
       <use xlink:href="#DejaVuSans-33"/>
       <use xlink:href="#DejaVuSans-30" transform="translate(63.623047 0)"/>
       <use xlink:href="#DejaVuSans-30" transform="translate(127.246094 0)"/>
      </g>
     </g>
    </g>
    <g id="xtick_11">
     <g id="line2d_17">
      <g>
       <use xlink:href="#m641f23497d" x="910.825976" y="260.650661" style="stroke: #000000; stroke-width: 0.8"/>
      </g>
     </g>
     <g id="text_17">
      <!-- 400 -->
      <g transform="translate(901.282226 275.249099) scale(0.1 -0.1)">
       <use xlink:href="#DejaVuSans-34"/>
       <use xlink:href="#DejaVuSans-30" transform="translate(63.623047 0)"/>
       <use xlink:href="#DejaVuSans-30" transform="translate(127.246094 0)"/>
      </g>
     </g>
    </g>
    <g id="xtick_12">
     <g id="line2d_18">
      <g>
       <use xlink:href="#m641f23497d" x="1112.400119" y="260.650661" style="stroke: #000000; stroke-width: 0.8"/>
      </g>
     </g>
     <g id="text_18">
      <!-- 500 -->
      <g transform="translate(1102.856369 275.249099) scale(0.1 -0.1)">
       <use xlink:href="#DejaVuSans-35"/>
       <use xlink:href="#DejaVuSans-30" transform="translate(63.623047 0)"/>
       <use xlink:href="#DejaVuSans-30" transform="translate(127.246094 0)"/>
      </g>
     </g>
    </g>
   </g>
   <g id="matplotlib.axis_4">
    <g id="ytick_6">
     <g id="line2d_19">
      <g>
       <use xlink:href="#m9bcd36cca7" x="55.345313" y="244.817761" style="stroke: #000000; stroke-width: 0.8"/>
      </g>
     </g>
     <g id="text_19">
      <!-- −400 -->
      <g transform="translate(20.878125 248.616979) scale(0.1 -0.1)">
       <defs>
        <path id="DejaVuSans-2212" d="M 678 2272 
L 4684 2272 
L 4684 1741 
L 678 1741 
L 678 2272 
z
" transform="scale(0.015625)"/>
       </defs>
       <use xlink:href="#DejaVuSans-2212"/>
       <use xlink:href="#DejaVuSans-34" transform="translate(83.789062 0)"/>
       <use xlink:href="#DejaVuSans-30" transform="translate(147.412109 0)"/>
       <use xlink:href="#DejaVuSans-30" transform="translate(211.035156 0)"/>
      </g>
     </g>
    </g>
    <g id="ytick_7">
     <g id="line2d_20">
      <g>
       <use xlink:href="#m9bcd36cca7" x="55.345313" y="221.730108" style="stroke: #000000; stroke-width: 0.8"/>
      </g>
     </g>
     <g id="text_20">
      <!-- −200 -->
      <g transform="translate(20.878125 225.529327) scale(0.1 -0.1)">
       <use xlink:href="#DejaVuSans-2212"/>
       <use xlink:href="#DejaVuSans-32" transform="translate(83.789062 0)"/>
       <use xlink:href="#DejaVuSans-30" transform="translate(147.412109 0)"/>
       <use xlink:href="#DejaVuSans-30" transform="translate(211.035156 0)"/>
      </g>
     </g>
    </g>
    <g id="ytick_8">
     <g id="line2d_21">
      <g>
       <use xlink:href="#m9bcd36cca7" x="55.345313" y="198.642456" style="stroke: #000000; stroke-width: 0.8"/>
      </g>
     </g>
     <g id="text_21">
      <!-- 0 -->
      <g transform="translate(41.982813 202.441675) scale(0.1 -0.1)">
       <use xlink:href="#DejaVuSans-30"/>
      </g>
     </g>
    </g>
    <g id="ytick_9">
     <g id="line2d_22">
      <g>
       <use xlink:href="#m9bcd36cca7" x="55.345313" y="175.554804" style="stroke: #000000; stroke-width: 0.8"/>
      </g>
     </g>
     <g id="text_22">
      <!-- 200 -->
      <g transform="translate(29.257813 179.354023) scale(0.1 -0.1)">
       <use xlink:href="#DejaVuSans-32"/>
       <use xlink:href="#DejaVuSans-30" transform="translate(63.623047 0)"/>
       <use xlink:href="#DejaVuSans-30" transform="translate(127.246094 0)"/>
      </g>
     </g>
    </g>
    <g id="ytick_10">
     <g id="line2d_23">
      <g>
       <use xlink:href="#m9bcd36cca7" x="55.345313" y="152.467152" style="stroke: #000000; stroke-width: 0.8"/>
      </g>
     </g>
     <g id="text_23">
      <!-- 400 -->
      <g transform="translate(29.257813 156.26637) scale(0.1 -0.1)">
       <use xlink:href="#DejaVuSans-34"/>
       <use xlink:href="#DejaVuSans-30" transform="translate(63.623047 0)"/>
       <use xlink:href="#DejaVuSans-30" transform="translate(127.246094 0)"/>
      </g>
     </g>
    </g>
    <g id="text_24">
     <!-- co-imf0 -->
     <g transform="translate(14.798438 223.799697) rotate(-90) scale(0.1 -0.1)">
      <defs>
       <path id="DejaVuSans-63" d="M 3122 3366 
L 3122 2828 
Q 2878 2963 2633 3030 
Q 2388 3097 2138 3097 
Q 1578 3097 1268 2742 
Q 959 2388 959 1747 
Q 959 1106 1268 751 
Q 1578 397 2138 397 
Q 2388 397 2633 464 
Q 2878 531 3122 666 
L 3122 134 
Q 2881 22 2623 -34 
Q 2366 -91 2075 -91 
Q 1284 -91 818 406 
Q 353 903 353 1747 
Q 353 2603 823 3093 
Q 1294 3584 2113 3584 
Q 2378 3584 2631 3529 
Q 2884 3475 3122 3366 
z
" transform="scale(0.015625)"/>
       <path id="DejaVuSans-6f" d="M 1959 3097 
Q 1497 3097 1228 2736 
Q 959 2375 959 1747 
Q 959 1119 1226 758 
Q 1494 397 1959 397 
Q 2419 397 2687 759 
Q 2956 1122 2956 1747 
Q 2956 2369 2687 2733 
Q 2419 3097 1959 3097 
z
M 1959 3584 
Q 2709 3584 3137 3096 
Q 3566 2609 3566 1747 
Q 3566 888 3137 398 
Q 2709 -91 1959 -91 
Q 1206 -91 779 398 
Q 353 888 353 1747 
Q 353 2609 779 3096 
Q 1206 3584 1959 3584 
z
" transform="scale(0.015625)"/>
       <path id="DejaVuSans-2d" d="M 313 2009 
L 1997 2009 
L 1997 1497 
L 313 1497 
L 313 2009 
z
" transform="scale(0.015625)"/>
       <path id="DejaVuSans-6d" d="M 3328 2828 
Q 3544 3216 3844 3400 
Q 4144 3584 4550 3584 
Q 5097 3584 5394 3201 
Q 5691 2819 5691 2113 
L 5691 0 
L 5113 0 
L 5113 2094 
Q 5113 2597 4934 2840 
Q 4756 3084 4391 3084 
Q 3944 3084 3684 2787 
Q 3425 2491 3425 1978 
L 3425 0 
L 2847 0 
L 2847 2094 
Q 2847 2600 2669 2842 
Q 2491 3084 2119 3084 
Q 1678 3084 1418 2786 
Q 1159 2488 1159 1978 
L 1159 0 
L 581 0 
L 581 3500 
L 1159 3500 
L 1159 2956 
Q 1356 3278 1631 3431 
Q 1906 3584 2284 3584 
Q 2666 3584 2933 3390 
Q 3200 3197 3328 2828 
z
" transform="scale(0.015625)"/>
       <path id="DejaVuSans-66" d="M 2375 4863 
L 2375 4384 
L 1825 4384 
Q 1516 4384 1395 4259 
Q 1275 4134 1275 3809 
L 1275 3500 
L 2222 3500 
L 2222 3053 
L 1275 3053 
L 1275 0 
L 697 0 
L 697 3053 
L 147 3053 
L 147 3500 
L 697 3500 
L 697 3744 
Q 697 4328 969 4595 
Q 1241 4863 1831 4863 
L 2375 4863 
z
" transform="scale(0.015625)"/>
      </defs>
      <use xlink:href="#DejaVuSans-63"/>
      <use xlink:href="#DejaVuSans-6f" transform="translate(54.980469 0)"/>
      <use xlink:href="#DejaVuSans-2d" transform="translate(118.037109 0)"/>
      <use xlink:href="#DejaVuSans-69" transform="translate(154.121094 0)"/>
      <use xlink:href="#DejaVuSans-6d" transform="translate(181.904297 0)"/>
      <use xlink:href="#DejaVuSans-66" transform="translate(279.316406 0)"/>
      <use xlink:href="#DejaVuSans-30" transform="translate(314.521484 0)"/>
     </g>
    </g>
   </g>
   <g id="line2d_24">
    <path d="M 104.529403 216.980259 
L 106.545145 218.481292 
L 108.560886 214.982029 
L 110.576628 206.881546 
L 112.592369 201.078854 
L 114.608111 196.810057 
L 116.623852 193.992052 
L 118.639593 194.135763 
L 120.655335 194.610394 
L 122.671076 195.948412 
L 124.686818 194.877689 
L 126.702559 190.696047 
L 128.718301 188.810687 
L 130.734042 188.483596 
L 132.749783 187.519101 
L 136.781266 185.93019 
L 138.797008 184.842586 
L 140.812749 185.010328 
L 142.828491 186.440459 
L 144.844232 188.184135 
L 146.859973 190.564468 
L 148.875715 195.994327 
L 150.891456 204.640304 
L 152.907198 204.667401 
L 154.922939 195.644678 
L 156.938681 189.818355 
L 158.954422 184.888334 
L 160.970163 190.710827 
L 162.985905 210.406649 
L 165.001646 223.255638 
L 167.017388 231.566124 
L 169.033129 232.645103 
L 171.048871 221.858572 
L 173.064612 213.605495 
L 175.080353 206.075216 
L 177.096095 200.29462 
L 179.111836 199.165864 
L 181.127578 196.073457 
L 183.143319 192.196646 
L 185.159061 192.922335 
L 187.174802 197.753866 
L 189.190543 194.485474 
L 193.222026 172.244588 
L 195.237768 159.229364 
L 197.253509 161.656778 
L 199.269251 182.26711 
L 201.284992 189.086987 
L 203.300734 185.199819 
L 205.316475 180.354202 
L 207.332216 168.462136 
L 209.347958 164.031257 
L 211.363699 183.014457 
L 213.379441 199.813761 
L 215.395182 224.68555 
L 217.410924 243.269322 
L 219.426665 253.484058 
L 221.442406 255.581752 
L 223.458148 244.928144 
L 225.473889 220.379144 
L 227.489631 181.949214 
L 229.505372 172.622556 
L 231.521114 196.297484 
L 233.536855 189.047858 
L 235.552596 158.584856 
L 237.568338 154.203578 
L 239.584079 168.974941 
L 241.599821 186.231038 
L 243.615562 201.400495 
L 245.631304 204.92031 
L 247.647045 199.302926 
L 249.662786 202.386989 
L 251.678528 214.546629 
L 253.694269 220.713782 
L 255.710011 224.823726 
L 257.725752 225.204493 
L 259.741494 219.715477 
L 261.757235 216.082373 
L 263.772976 213.59118 
L 265.788718 209.960731 
L 267.804459 206.619412 
L 269.820201 202.449412 
L 271.835942 197.477081 
L 273.851684 193.194524 
L 275.867425 189.522253 
L 277.883166 184.866942 
L 279.898908 179.439352 
L 281.914649 181.477695 
L 283.930391 191.499185 
L 285.946132 194.706167 
L 287.961874 192.192934 
L 289.977615 183.927457 
L 291.993356 166.400118 
L 294.009098 163.897304 
L 296.024839 176.958542 
L 298.040581 198.330675 
L 300.056322 233.081391 
L 302.072064 250.649478 
L 304.087805 248.768094 
L 306.103546 239.995955 
L 308.119288 221.104934 
L 310.135029 206.740916 
L 312.150771 199.991717 
L 314.166512 191.665787 
L 316.182254 186.541236 
L 318.197995 188.459077 
L 320.213736 197.188063 
L 322.229478 198.434239 
L 324.245219 191.892523 
L 326.260961 184.774635 
L 328.276702 173.625432 
L 330.292444 166.671197 
L 332.308185 164.798642 
L 334.323927 164.326124 
L 336.339668 167.530879 
L 338.355409 168.699087 
L 340.371151 167.548621 
L 342.386892 166.541334 
L 344.402634 164.270403 
L 346.418375 164.102151 
L 348.434117 166.258871 
L 350.449858 168.097639 
L 352.465599 170.35353 
L 354.481341 173.553806 
L 356.497082 177.440238 
L 358.512824 181.604256 
L 360.528565 186.038363 
L 362.544307 190.131193 
L 364.560048 193.688963 
L 366.575789 196.611454 
L 368.591531 198.605855 
L 372.623014 203.080628 
L 374.638755 205.923485 
L 376.654497 209.617089 
L 378.670238 212.91477 
L 380.685979 215.980015 
L 382.701721 218.608022 
L 384.717462 220.534614 
L 386.733204 224.004667 
L 388.748945 229.048605 
L 390.764687 232.607359 
L 392.780428 235.001471 
L 394.796169 230.619203 
L 396.811911 218.208357 
L 398.827652 210.230017 
L 400.843394 205.691983 
L 402.859135 206.620374 
L 404.874877 216.098523 
L 406.890618 221.555783 
L 408.906359 223.979927 
L 410.922101 224.961294 
L 412.937842 221.839748 
L 414.953584 214.522519 
L 416.969325 201.974797 
L 418.985067 190.597514 
L 421.000808 180.310932 
L 423.016549 178.481409 
L 425.032291 187.571066 
L 427.048032 193.742973 
L 429.063774 199.041432 
L 431.079515 198.03621 
L 433.095257 187.563041 
L 435.110998 183.935355 
L 437.126739 185.597212 
L 439.142481 190.265682 
L 441.158222 201.252579 
L 443.173964 213.603271 
L 445.189705 227.984132 
L 447.205447 198.84244 
L 449.221188 200.80222 
L 451.236929 190.732589 
L 453.252671 193.996955 
L 455.268412 191.370894 
L 457.284154 186.665541 
L 459.299895 187.902062 
L 461.315637 192.720716 
L 463.331378 198.108172 
L 465.34712 204.488622 
L 467.362861 209.074383 
L 469.378602 210.865948 
L 471.394344 209.696621 
L 473.410085 205.123975 
L 475.425827 200.9495 
L 479.45731 193.4472 
L 483.488792 187.853329 
L 485.504534 185.385843 
L 487.520275 185.096323 
L 489.536017 187.140672 
L 491.551758 189.616243 
L 497.598982 199.547297 
L 499.614724 201.545455 
L 503.646207 202.205087 
L 505.661948 202.133641 
L 507.67769 203.864066 
L 509.693431 207.844833 
L 513.724914 214.140211 
L 515.740655 214.266898 
L 517.756397 210.680194 
L 519.772138 208.210147 
L 521.78788 206.162001 
L 523.803621 205.411007 
L 525.819362 206.970746 
L 527.835104 207.112178 
L 529.850845 206.243301 
L 531.866587 203.859238 
L 533.882328 199.140466 
L 535.89807 195.539526 
L 537.913811 192.821424 
L 539.929552 191.224333 
L 541.945294 191.570295 
L 543.961035 191.752331 
L 547.992518 192.422397 
L 550.00826 192.393124 
L 552.024001 192.936868 
L 558.071225 195.895465 
L 562.102708 198.144172 
L 564.11845 198.956293 
L 566.134191 199.379542 
L 568.149932 200.020082 
L 570.165674 200.804465 
L 574.197157 201.931735 
L 576.212898 202.110838 
L 578.22864 201.880779 
L 580.244381 199.839188 
L 582.260122 195.735621 
L 584.275864 194.316471 
L 586.291605 195.53065 
L 588.307347 196.182678 
L 590.323088 197.235461 
L 592.33883 198.885236 
L 594.354571 200.801942 
L 596.370312 202.262383 
L 598.386054 203.103258 
L 600.401795 203.462825 
L 606.44902 202.208254 
L 608.464761 200.954431 
L 610.480503 198.980942 
L 612.496244 195.434057 
L 614.511985 190.059955 
L 616.527727 186.702416 
L 618.543468 185.377155 
L 620.55921 186.073605 
L 622.574951 189.867051 
L 624.590693 194.494242 
L 628.622175 206.074232 
L 630.637917 211.212093 
L 632.653658 212.201713 
L 636.685141 203.681468 
L 638.700883 198.046111 
L 640.716624 195.927398 
L 642.732365 198.547355 
L 644.748107 198.555108 
L 646.763848 197.187027 
L 648.77959 195.582735 
L 650.795331 192.557241 
L 652.811073 192.309856 
L 654.826814 194.973786 
L 656.842555 197.221433 
L 658.858297 199.91064 
L 660.874038 201.191407 
L 662.88978 200.434519 
L 664.905521 200.599805 
L 666.921263 201.153162 
L 668.937004 200.312003 
L 670.952745 198.390211 
L 672.968487 197.405287 
L 674.984228 197.218912 
L 676.99997 197.73439 
L 679.015711 199.443701 
L 681.031453 200.483313 
L 683.047194 200.908493 
L 685.062935 199.078549 
L 687.078677 194.355594 
L 689.094418 193.219654 
L 691.11016 195.515863 
L 693.125901 198.916074 
L 695.141643 204.882152 
L 697.157384 205.612424 
L 699.173125 200.476884 
L 701.188867 197.62136 
L 703.204608 195.40204 
L 705.22035 193.589239 
L 707.236091 193.479636 
L 709.251833 193.741308 
L 713.283315 195.826367 
L 715.299057 196.563359 
L 717.314798 196.866672 
L 719.33054 196.391321 
L 721.346281 197.718269 
L 723.362023 200.858863 
L 725.377764 203.235742 
L 727.393505 205.298786 
L 729.409247 206.954319 
L 731.424988 207.726245 
L 733.44073 206.085554 
L 735.456471 201.597725 
L 739.487954 193.573843 
L 741.503696 190.998867 
L 743.519437 190.654909 
L 745.535178 191.243819 
L 747.55092 193.461235 
L 749.566661 193.822456 
L 751.582403 192.039395 
L 753.598144 192.247825 
L 755.613886 193.762863 
L 757.629627 194.586314 
L 759.645368 195.269694 
L 761.66111 194.66038 
L 763.676851 192.361811 
L 765.692593 192.635387 
L 767.708334 195.395357 
L 769.724076 197.642494 
L 771.739817 200.19726 
L 773.755558 203.389819 
L 775.7713 206.876158 
L 777.787041 209.931684 
L 779.802783 212.416043 
L 781.818524 213.419049 
L 785.850007 211.708253 
L 787.865748 210.610739 
L 789.88149 205.144726 
L 795.928714 175.865733 
L 797.944456 173.233391 
L 799.960197 179.541057 
L 803.99168 188.750115 
L 806.007421 188.973636 
L 808.023163 182.438388 
L 810.038904 182.116766 
L 814.070387 191.627444 
L 816.086128 198.878028 
L 818.10187 214.850429 
L 820.117611 209.446908 
L 822.133353 212.273425 
L 824.149094 211.081194 
L 826.164836 211.467957 
L 828.180577 214.034357 
L 830.196318 210.584605 
L 832.21206 201.625703 
L 834.227801 193.398141 
L 836.243543 184.560205 
L 838.259284 182.301982 
L 840.275026 188.373583 
L 842.290767 193.029564 
L 844.306508 198.221753 
L 846.32225 201.455543 
L 848.337991 200.931967 
L 852.369474 202.097458 
L 854.385216 200.863328 
L 856.400957 198.275836 
L 858.416698 197.989947 
L 860.43244 200.086554 
L 862.448181 200.398113 
L 864.463923 199.588749 
L 866.479664 197.182476 
L 868.495406 192.342817 
L 870.511147 190.785258 
L 872.526889 192.517956 
L 874.54263 196.645369 
L 876.558371 204.646032 
L 878.574113 207.690568 
L 880.589854 205.46238 
L 882.605596 204.395684 
L 886.637079 200.828846 
L 888.65282 199.97878 
L 890.668561 197.905425 
L 892.684303 194.992707 
L 894.700044 193.077159 
L 896.715786 192.01152 
L 898.731527 192.982173 
L 900.747269 196.560485 
L 902.76301 199.520905 
L 904.778751 202.183577 
L 906.794493 202.611775 
L 908.810234 199.909495 
L 910.825976 198.15079 
L 912.841717 196.715006 
L 914.857459 196.025128 
L 916.8732 196.873228 
L 918.888941 196.727039 
L 920.904683 195.867853 
L 922.920424 195.139099 
L 924.936166 194.113559 
L 926.951907 193.963897 
L 930.98339 195.734377 
L 932.999131 197.001674 
L 935.014873 198.615656 
L 937.030614 200.481177 
L 939.046356 202.717383 
L 941.062097 205.294521 
L 945.09358 211.021578 
L 949.125063 217.031585 
L 951.140804 219.336283 
L 953.156546 220.801322 
L 955.172287 221.564924 
L 957.188029 221.363612 
L 959.20377 219.162413 
L 961.219511 214.736733 
L 963.235253 209.91026 
L 967.266736 199.215798 
L 969.282477 194.692465 
L 975.329701 179.940314 
L 977.345443 175.674675 
L 979.361184 172.323327 
L 981.376926 170.083786 
L 983.392667 169.183724 
L 985.408409 169.90327 
L 987.42415 172.066143 
L 989.439891 175.886969 
L 991.455633 180.668161 
L 995.487116 192.436694 
L 1001.53434 210.540965 
L 1003.550082 214.463102 
L 1005.565823 216.013627 
L 1009.597306 219.894643 
L 1011.613047 218.436358 
L 1013.628789 213.764014 
L 1015.64453 211.44034 
L 1017.660272 211.173403 
L 1021.691754 208.581993 
L 1023.707496 206.26603 
L 1025.723237 202.534105 
L 1027.738979 196.849748 
L 1029.75472 188.690518 
L 1031.770462 183.263757 
L 1033.786203 180.639528 
L 1035.801944 182.174176 
L 1037.817686 189.485125 
L 1039.833427 194.682874 
L 1041.849169 198.261812 
L 1043.86491 201.046231 
L 1045.880652 201.262482 
L 1047.896393 203.301239 
L 1049.912134 206.857021 
L 1051.927876 207.663171 
L 1053.943617 206.257319 
L 1055.959359 203.791354 
L 1057.9751 199.478616 
L 1059.990842 195.797942 
L 1062.006583 192.903932 
L 1064.022324 192.076125 
L 1066.038066 194.194109 
L 1070.069549 197.784603 
L 1072.08529 199.693845 
L 1074.101032 201.043929 
L 1076.116773 201.509804 
L 1078.132514 200.711931 
L 1080.148256 199.704024 
L 1082.163997 198.258955 
L 1084.179739 197.192295 
L 1086.19548 196.73681 
L 1088.211222 196.446272 
L 1088.211222 196.446272 
" clip-path="url(#p894890f6d8)" style="fill: none; stroke: #f27f19; stroke-width: 1.5; stroke-linecap: square"/>
   </g>
   <g id="patch_8">
    <path d="M 55.345313 260.650661 
L 55.345313 149.134669 
" style="fill: none; stroke: #000000; stroke-width: 0.8; stroke-linejoin: miter; stroke-linecap: square"/>
   </g>
   <g id="patch_9">
    <path d="M 1137.395313 260.650661 
L 1137.395313 149.134669 
" style="fill: none; stroke: #000000; stroke-width: 0.8; stroke-linejoin: miter; stroke-linecap: square"/>
   </g>
   <g id="patch_10">
    <path d="M 55.345313 260.650661 
L 1137.395313 260.650661 
" style="fill: none; stroke: #000000; stroke-width: 0.8; stroke-linejoin: miter; stroke-linecap: square"/>
   </g>
   <g id="patch_11">
    <path d="M 55.345313 149.134669 
L 1137.395313 149.134669 
" style="fill: none; stroke: #000000; stroke-width: 0.8; stroke-linejoin: miter; stroke-linecap: square"/>
   </g>
  </g>
  <g id="axes_3">
   <g id="patch_12">
    <path d="M 55.345313 402.585331 
L 1137.395313 402.585331 
L 1137.395313 291.069339 
L 55.345313 291.069339 
z
" style="fill: #ffffff"/>
   </g>
   <g id="matplotlib.axis_5">
    <g id="xtick_13">
     <g id="line2d_25">
      <g>
       <use xlink:href="#m641f23497d" x="104.529403" y="402.585331" style="stroke: #000000; stroke-width: 0.8"/>
      </g>
     </g>
     <g id="text_25">
      <!-- 0 -->
      <g transform="translate(101.348153 417.183768) scale(0.1 -0.1)">
       <use xlink:href="#DejaVuSans-30"/>
      </g>
     </g>
    </g>
    <g id="xtick_14">
     <g id="line2d_26">
      <g>
       <use xlink:href="#m641f23497d" x="306.103546" y="402.585331" style="stroke: #000000; stroke-width: 0.8"/>
      </g>
     </g>
     <g id="text_26">
      <!-- 100 -->
      <g transform="translate(296.559796 417.183768) scale(0.1 -0.1)">
       <use xlink:href="#DejaVuSans-31"/>
       <use xlink:href="#DejaVuSans-30" transform="translate(63.623047 0)"/>
       <use xlink:href="#DejaVuSans-30" transform="translate(127.246094 0)"/>
      </g>
     </g>
    </g>
    <g id="xtick_15">
     <g id="line2d_27">
      <g>
       <use xlink:href="#m641f23497d" x="507.67769" y="402.585331" style="stroke: #000000; stroke-width: 0.8"/>
      </g>
     </g>
     <g id="text_27">
      <!-- 200 -->
      <g transform="translate(498.13394 417.183768) scale(0.1 -0.1)">
       <use xlink:href="#DejaVuSans-32"/>
       <use xlink:href="#DejaVuSans-30" transform="translate(63.623047 0)"/>
       <use xlink:href="#DejaVuSans-30" transform="translate(127.246094 0)"/>
      </g>
     </g>
    </g>
    <g id="xtick_16">
     <g id="line2d_28">
      <g>
       <use xlink:href="#m641f23497d" x="709.251833" y="402.585331" style="stroke: #000000; stroke-width: 0.8"/>
      </g>
     </g>
     <g id="text_28">
      <!-- 300 -->
      <g transform="translate(699.708083 417.183768) scale(0.1 -0.1)">
       <use xlink:href="#DejaVuSans-33"/>
       <use xlink:href="#DejaVuSans-30" transform="translate(63.623047 0)"/>
       <use xlink:href="#DejaVuSans-30" transform="translate(127.246094 0)"/>
      </g>
     </g>
    </g>
    <g id="xtick_17">
     <g id="line2d_29">
      <g>
       <use xlink:href="#m641f23497d" x="910.825976" y="402.585331" style="stroke: #000000; stroke-width: 0.8"/>
      </g>
     </g>
     <g id="text_29">
      <!-- 400 -->
      <g transform="translate(901.282226 417.183768) scale(0.1 -0.1)">
       <use xlink:href="#DejaVuSans-34"/>
       <use xlink:href="#DejaVuSans-30" transform="translate(63.623047 0)"/>
       <use xlink:href="#DejaVuSans-30" transform="translate(127.246094 0)"/>
      </g>
     </g>
    </g>
    <g id="xtick_18">
     <g id="line2d_30">
      <g>
       <use xlink:href="#m641f23497d" x="1112.400119" y="402.585331" style="stroke: #000000; stroke-width: 0.8"/>
      </g>
     </g>
     <g id="text_30">
      <!-- 500 -->
      <g transform="translate(1102.856369 417.183768) scale(0.1 -0.1)">
       <use xlink:href="#DejaVuSans-35"/>
       <use xlink:href="#DejaVuSans-30" transform="translate(63.623047 0)"/>
       <use xlink:href="#DejaVuSans-30" transform="translate(127.246094 0)"/>
      </g>
     </g>
    </g>
   </g>
   <g id="matplotlib.axis_6">
    <g id="ytick_11">
     <g id="line2d_31">
      <g>
       <use xlink:href="#m9bcd36cca7" x="55.345313" y="384.045601" style="stroke: #000000; stroke-width: 0.8"/>
      </g>
     </g>
     <g id="text_31">
      <!-- −500 -->
      <g transform="translate(20.878125 387.84482) scale(0.1 -0.1)">
       <use xlink:href="#DejaVuSans-2212"/>
       <use xlink:href="#DejaVuSans-35" transform="translate(83.789062 0)"/>
       <use xlink:href="#DejaVuSans-30" transform="translate(147.412109 0)"/>
       <use xlink:href="#DejaVuSans-30" transform="translate(211.035156 0)"/>
      </g>
     </g>
    </g>
    <g id="ytick_12">
     <g id="line2d_32">
      <g>
       <use xlink:href="#m9bcd36cca7" x="55.345313" y="355.770123" style="stroke: #000000; stroke-width: 0.8"/>
      </g>
     </g>
     <g id="text_32">
      <!-- 0 -->
      <g transform="translate(41.982813 359.569342) scale(0.1 -0.1)">
       <use xlink:href="#DejaVuSans-30"/>
      </g>
     </g>
    </g>
    <g id="ytick_13">
     <g id="line2d_33">
      <g>
       <use xlink:href="#m9bcd36cca7" x="55.345313" y="327.494645" style="stroke: #000000; stroke-width: 0.8"/>
      </g>
     </g>
     <g id="text_33">
      <!-- 500 -->
      <g transform="translate(29.257813 331.293864) scale(0.1 -0.1)">
       <use xlink:href="#DejaVuSans-35"/>
       <use xlink:href="#DejaVuSans-30" transform="translate(63.623047 0)"/>
       <use xlink:href="#DejaVuSans-30" transform="translate(127.246094 0)"/>
      </g>
     </g>
    </g>
    <g id="ytick_14">
     <g id="line2d_34">
      <g>
       <use xlink:href="#m9bcd36cca7" x="55.345313" y="299.219167" style="stroke: #000000; stroke-width: 0.8"/>
      </g>
     </g>
     <g id="text_34">
      <!-- 1000 -->
      <g transform="translate(22.895313 303.018386) scale(0.1 -0.1)">
       <use xlink:href="#DejaVuSans-31"/>
       <use xlink:href="#DejaVuSans-30" transform="translate(63.623047 0)"/>
       <use xlink:href="#DejaVuSans-30" transform="translate(127.246094 0)"/>
       <use xlink:href="#DejaVuSans-30" transform="translate(190.869141 0)"/>
      </g>
     </g>
    </g>
    <g id="text_35">
     <!-- co-imf1 -->
     <g transform="translate(14.798438 365.734366) rotate(-90) scale(0.1 -0.1)">
      <use xlink:href="#DejaVuSans-63"/>
      <use xlink:href="#DejaVuSans-6f" transform="translate(54.980469 0)"/>
      <use xlink:href="#DejaVuSans-2d" transform="translate(118.037109 0)"/>
      <use xlink:href="#DejaVuSans-69" transform="translate(154.121094 0)"/>
      <use xlink:href="#DejaVuSans-6d" transform="translate(181.904297 0)"/>
      <use xlink:href="#DejaVuSans-66" transform="translate(279.316406 0)"/>
      <use xlink:href="#DejaVuSans-31" transform="translate(314.521484 0)"/>
     </g>
    </g>
   </g>
   <g id="line2d_35">
    <path d="M 104.529403 296.159898 
L 108.560886 296.191523 
L 112.592369 296.509613 
L 116.623852 297.126962 
L 120.655335 298.048518 
L 124.686818 299.283847 
L 128.718301 300.840107 
L 132.749783 302.715967 
L 136.781266 304.901182 
L 140.812749 307.387035 
L 144.844232 310.170245 
L 148.875715 313.25198 
L 152.907198 316.635615 
L 156.938681 320.325306 
L 160.970163 324.325188 
L 165.001646 328.639375 
L 169.033129 333.271953 
L 173.064612 338.218019 
L 179.111836 346.08087 
L 193.222026 364.76578 
L 197.253509 369.748463 
L 201.284992 374.3914 
L 205.316475 378.589396 
L 207.332216 380.484705 
L 209.347958 382.222634 
L 211.363699 383.788632 
L 213.379441 385.167128 
L 215.395182 386.342778 
L 217.410924 387.299736 
L 219.426665 388.022592 
L 221.442406 388.498106 
L 223.458148 388.712569 
L 225.473889 388.689073 
L 227.489631 388.444678 
L 229.505372 388.008795 
L 231.521114 387.399886 
L 233.536855 386.644497 
L 237.568338 384.784268 
L 241.599821 382.616816 
L 247.647045 379.257665 
L 251.678528 377.296801 
L 253.694269 376.489425 
L 255.710011 375.83738 
L 257.725752 375.354587 
L 259.741494 375.042688 
L 261.757235 374.886714 
L 263.772976 374.884515 
L 265.788718 375.022818 
L 267.804459 375.29607 
L 269.820201 375.693806 
L 273.851684 376.832418 
L 277.883166 378.370376 
L 281.914649 380.240013 
L 285.946132 382.370848 
L 294.009098 387.015961 
L 300.056322 390.40644 
L 304.087805 392.420542 
L 308.119288 394.127243 
L 312.150771 395.489631 
L 316.182254 396.504643 
L 320.213736 397.17123 
L 324.245219 397.488944 
L 328.276702 397.456682 
L 332.308185 397.073613 
L 336.339668 396.338926 
L 340.371151 395.251684 
L 344.402634 393.810934 
L 348.434117 392.000437 
L 352.465599 389.79034 
L 356.497082 387.162908 
L 360.528565 384.14121 
L 364.560048 380.758168 
L 368.591531 377.052875 
L 372.623014 373.068124 
L 378.670238 366.661201 
L 384.717462 359.867945 
L 394.796169 348.098101 
L 400.843394 341.107919 
L 404.874877 336.647247 
L 408.906359 332.441922 
L 412.937842 328.5744 
L 416.969325 325.127146 
L 421.000808 322.182624 
L 423.016549 320.924681 
L 425.032291 319.823371 
L 427.048032 318.888837 
L 429.063774 318.131379 
L 431.079515 317.562524 
L 433.095257 317.192002 
L 435.110998 317.019472 
L 437.126739 317.049159 
L 439.142481 317.276644 
L 441.158222 317.703244 
L 443.173964 318.328803 
L 445.189705 319.152734 
L 447.205447 320.170505 
L 449.221188 321.372005 
L 453.252671 324.190913 
L 459.299895 328.978619 
L 465.34712 333.731883 
L 469.378602 336.517262 
L 471.394344 337.716071 
L 473.410085 338.757269 
L 475.425827 339.648314 
L 477.441568 340.387834 
L 479.45731 340.986142 
L 481.473051 341.444685 
L 483.488792 341.769905 
L 485.504534 341.966158 
L 487.520275 342.041752 
L 491.551758 341.863932 
L 495.583241 341.325235 
L 499.614724 340.51462 
L 505.661948 338.98236 
L 515.740655 336.312992 
L 521.78788 334.996186 
L 525.819362 334.311172 
L 529.850845 333.826576 
L 533.882328 333.577343 
L 537.913811 333.602864 
L 541.945294 333.942273 
L 545.976777 334.620239 
L 550.00826 335.601238 
L 554.039742 336.821791 
L 560.086967 338.955701 
L 574.197157 344.176605 
L 578.22864 345.425838 
L 582.260122 346.426363 
L 586.291605 347.121136 
L 590.323088 347.536007 
L 600.401795 348.318979 
L 604.433278 348.957651 
L 606.44902 349.429959 
L 608.464761 350.019808 
L 610.480503 350.743165 
L 612.496244 351.602068 
L 616.527727 353.722254 
L 620.55921 356.292346 
L 624.590693 359.169646 
L 636.685141 368.111351 
L 640.716624 370.694065 
L 644.748107 372.8578 
L 646.763848 373.750057 
L 648.77959 374.518618 
L 650.795331 375.160273 
L 652.811073 375.678567 
L 654.826814 376.073515 
L 656.842555 376.338779 
L 658.858297 376.474721 
L 660.874038 376.476201 
L 662.88978 376.342442 
L 664.905521 376.069152 
L 666.921263 375.654765 
L 668.937004 375.102338 
L 670.952745 374.410243 
L 672.968487 373.587577 
L 676.99997 371.560384 
L 681.031453 369.05983 
L 685.062935 366.126734 
L 689.094418 362.828188 
L 703.204608 350.66056 
L 707.236091 347.68465 
L 709.251833 346.373448 
L 711.267574 345.204688 
L 713.283315 344.195048 
L 715.299057 343.362834 
L 717.314798 342.700733 
L 719.33054 342.203137 
L 721.346281 341.850173 
L 723.362023 341.635093 
L 727.393505 341.555892 
L 731.424988 341.8598 
L 735.456471 342.448055 
L 741.503696 343.683761 
L 755.613886 346.903271 
L 759.645368 347.635942 
L 765.692593 348.446721 
L 773.755558 349.41496 
L 777.787041 350.113211 
L 781.818524 351.108906 
L 785.850007 352.494366 
L 789.88149 354.235628 
L 793.912973 356.244945 
L 799.960197 359.55361 
L 806.007421 362.910211 
L 810.038904 364.85799 
L 812.054646 365.6503 
L 814.070387 366.279191 
L 816.086128 366.713536 
L 818.10187 366.921376 
L 820.117611 366.870962 
L 822.133353 366.533084 
L 824.149094 365.876738 
L 826.164836 364.911034 
L 828.180577 363.669013 
L 830.196318 362.204527 
L 834.227801 358.782073 
L 844.306508 349.580116 
L 846.32225 348.024003 
L 848.337991 346.685227 
L 850.353733 345.623018 
L 852.369474 344.891247 
L 854.385216 344.545066 
L 856.400957 344.639797 
L 858.416698 345.208901 
L 860.43244 346.215482 
L 862.448181 347.585155 
L 864.463923 349.253401 
L 868.495406 353.178047 
L 874.54263 359.483729 
L 876.558371 361.427205 
L 878.574113 363.179709 
L 880.589854 364.673896 
L 882.605596 365.854465 
L 884.621337 366.698511 
L 886.637079 367.224078 
L 888.65282 367.460754 
L 890.668561 367.456226 
L 892.684303 367.245077 
L 894.700044 366.8724 
L 898.731527 365.800944 
L 906.794493 363.413912 
L 910.825976 362.497022 
L 916.8732 361.449431 
L 928.967649 359.491737 
L 935.014873 358.226946 
L 941.062097 356.716539 
L 953.156546 353.354743 
L 963.235253 350.564256 
L 967.266736 349.592615 
L 971.298219 348.799024 
L 975.329701 348.247133 
L 979.361184 348.000823 
L 983.392667 348.123438 
L 987.42415 348.653661 
L 991.455633 349.527186 
L 995.487116 350.652133 
L 1001.53434 352.612528 
L 1009.597306 355.259529 
L 1013.628789 356.393869 
L 1017.660272 357.292647 
L 1021.691754 357.91518 
L 1025.723237 358.229932 
L 1029.75472 358.207834 
L 1033.786203 357.818126 
L 1037.817686 357.067435 
L 1049.912134 354.262726 
L 1053.943617 353.708684 
L 1055.959359 353.574187 
L 1057.9751 353.552946 
L 1059.990842 353.656912 
L 1062.006583 353.899543 
L 1064.022324 354.287603 
L 1068.053807 355.451287 
L 1074.101032 357.682715 
L 1078.132514 359.10887 
L 1080.148256 359.703446 
L 1082.163997 360.174417 
L 1084.179739 360.495348 
L 1086.19548 360.633425 
L 1088.211222 360.574717 
L 1088.211222 360.574717 
" clip-path="url(#p0edebc9f75)" style="fill: none; stroke: #f27f19; stroke-width: 1.5; stroke-linecap: square"/>
   </g>
   <g id="patch_13">
    <path d="M 55.345313 402.585331 
L 55.345313 291.069339 
" style="fill: none; stroke: #000000; stroke-width: 0.8; stroke-linejoin: miter; stroke-linecap: square"/>
   </g>
   <g id="patch_14">
    <path d="M 1137.395313 402.585331 
L 1137.395313 291.069339 
" style="fill: none; stroke: #000000; stroke-width: 0.8; stroke-linejoin: miter; stroke-linecap: square"/>
   </g>
   <g id="patch_15">
    <path d="M 55.345313 402.585331 
L 1137.395313 402.585331 
" style="fill: none; stroke: #000000; stroke-width: 0.8; stroke-linejoin: miter; stroke-linecap: square"/>
   </g>
   <g id="patch_16">
    <path d="M 55.345313 291.069339 
L 1137.395313 291.069339 
" style="fill: none; stroke: #000000; stroke-width: 0.8; stroke-linejoin: miter; stroke-linecap: square"/>
   </g>
  </g>
  <g id="axes_4">
   <g id="patch_17">
    <path d="M 55.345313 544.52 
L 1137.395313 544.52 
L 1137.395313 433.004008 
L 55.345313 433.004008 
z
" style="fill: #ffffff"/>
   </g>
   <g id="matplotlib.axis_7">
    <g id="xtick_19">
     <g id="line2d_36">
      <g>
       <use xlink:href="#m641f23497d" x="104.529403" y="544.52" style="stroke: #000000; stroke-width: 0.8"/>
      </g>
     </g>
     <g id="text_36">
      <!-- 0 -->
      <g transform="translate(101.348153 559.118437) scale(0.1 -0.1)">
       <use xlink:href="#DejaVuSans-30"/>
      </g>
     </g>
    </g>
    <g id="xtick_20">
     <g id="line2d_37">
      <g>
       <use xlink:href="#m641f23497d" x="306.103546" y="544.52" style="stroke: #000000; stroke-width: 0.8"/>
      </g>
     </g>
     <g id="text_37">
      <!-- 100 -->
      <g transform="translate(296.559796 559.118437) scale(0.1 -0.1)">
       <use xlink:href="#DejaVuSans-31"/>
       <use xlink:href="#DejaVuSans-30" transform="translate(63.623047 0)"/>
       <use xlink:href="#DejaVuSans-30" transform="translate(127.246094 0)"/>
      </g>
     </g>
    </g>
    <g id="xtick_21">
     <g id="line2d_38">
      <g>
       <use xlink:href="#m641f23497d" x="507.67769" y="544.52" style="stroke: #000000; stroke-width: 0.8"/>
      </g>
     </g>
     <g id="text_38">
      <!-- 200 -->
      <g transform="translate(498.13394 559.118437) scale(0.1 -0.1)">
       <use xlink:href="#DejaVuSans-32"/>
       <use xlink:href="#DejaVuSans-30" transform="translate(63.623047 0)"/>
       <use xlink:href="#DejaVuSans-30" transform="translate(127.246094 0)"/>
      </g>
     </g>
    </g>
    <g id="xtick_22">
     <g id="line2d_39">
      <g>
       <use xlink:href="#m641f23497d" x="709.251833" y="544.52" style="stroke: #000000; stroke-width: 0.8"/>
      </g>
     </g>
     <g id="text_39">
      <!-- 300 -->
      <g transform="translate(699.708083 559.118437) scale(0.1 -0.1)">
       <use xlink:href="#DejaVuSans-33"/>
       <use xlink:href="#DejaVuSans-30" transform="translate(63.623047 0)"/>
       <use xlink:href="#DejaVuSans-30" transform="translate(127.246094 0)"/>
      </g>
     </g>
    </g>
    <g id="xtick_23">
     <g id="line2d_40">
      <g>
       <use xlink:href="#m641f23497d" x="910.825976" y="544.52" style="stroke: #000000; stroke-width: 0.8"/>
      </g>
     </g>
     <g id="text_40">
      <!-- 400 -->
      <g transform="translate(901.282226 559.118437) scale(0.1 -0.1)">
       <use xlink:href="#DejaVuSans-34"/>
       <use xlink:href="#DejaVuSans-30" transform="translate(63.623047 0)"/>
       <use xlink:href="#DejaVuSans-30" transform="translate(127.246094 0)"/>
      </g>
     </g>
    </g>
    <g id="xtick_24">
     <g id="line2d_41">
      <g>
       <use xlink:href="#m641f23497d" x="1112.400119" y="544.52" style="stroke: #000000; stroke-width: 0.8"/>
      </g>
     </g>
     <g id="text_41">
      <!-- 500 -->
      <g transform="translate(1102.856369 559.118437) scale(0.1 -0.1)">
       <use xlink:href="#DejaVuSans-35"/>
       <use xlink:href="#DejaVuSans-30" transform="translate(63.623047 0)"/>
       <use xlink:href="#DejaVuSans-30" transform="translate(127.246094 0)"/>
      </g>
     </g>
    </g>
   </g>
   <g id="matplotlib.axis_8">
    <g id="ytick_15">
     <g id="line2d_42">
      <g>
       <use xlink:href="#m9bcd36cca7" x="55.345313" y="536.165857" style="stroke: #000000; stroke-width: 0.8"/>
      </g>
     </g>
     <g id="text_42">
      <!-- 5400 -->
      <g transform="translate(22.895313 539.965076) scale(0.1 -0.1)">
       <use xlink:href="#DejaVuSans-35"/>
       <use xlink:href="#DejaVuSans-34" transform="translate(63.623047 0)"/>
       <use xlink:href="#DejaVuSans-30" transform="translate(127.246094 0)"/>
       <use xlink:href="#DejaVuSans-30" transform="translate(190.869141 0)"/>
      </g>
     </g>
    </g>
    <g id="ytick_16">
     <g id="line2d_43">
      <g>
       <use xlink:href="#m9bcd36cca7" x="55.345313" y="510.786369" style="stroke: #000000; stroke-width: 0.8"/>
      </g>
     </g>
     <g id="text_43">
      <!-- 5500 -->
      <g transform="translate(22.895313 514.585588) scale(0.1 -0.1)">
       <use xlink:href="#DejaVuSans-35"/>
       <use xlink:href="#DejaVuSans-35" transform="translate(63.623047 0)"/>
       <use xlink:href="#DejaVuSans-30" transform="translate(127.246094 0)"/>
       <use xlink:href="#DejaVuSans-30" transform="translate(190.869141 0)"/>
      </g>
     </g>
    </g>
    <g id="ytick_17">
     <g id="line2d_44">
      <g>
       <use xlink:href="#m9bcd36cca7" x="55.345313" y="485.406881" style="stroke: #000000; stroke-width: 0.8"/>
      </g>
     </g>
     <g id="text_44">
      <!-- 5600 -->
      <g transform="translate(22.895313 489.2061) scale(0.1 -0.1)">
       <use xlink:href="#DejaVuSans-35"/>
       <use xlink:href="#DejaVuSans-36" transform="translate(63.623047 0)"/>
       <use xlink:href="#DejaVuSans-30" transform="translate(127.246094 0)"/>
       <use xlink:href="#DejaVuSans-30" transform="translate(190.869141 0)"/>
      </g>
     </g>
    </g>
    <g id="ytick_18">
     <g id="line2d_45">
      <g>
       <use xlink:href="#m9bcd36cca7" x="55.345313" y="460.027393" style="stroke: #000000; stroke-width: 0.8"/>
      </g>
     </g>
     <g id="text_45">
      <!-- 5700 -->
      <g transform="translate(22.895313 463.826611) scale(0.1 -0.1)">
       <defs>
        <path id="DejaVuSans-37" d="M 525 4666 
L 3525 4666 
L 3525 4397 
L 1831 0 
L 1172 0 
L 2766 4134 
L 525 4134 
L 525 4666 
z
" transform="scale(0.015625)"/>
       </defs>
       <use xlink:href="#DejaVuSans-35"/>
       <use xlink:href="#DejaVuSans-37" transform="translate(63.623047 0)"/>
       <use xlink:href="#DejaVuSans-30" transform="translate(127.246094 0)"/>
       <use xlink:href="#DejaVuSans-30" transform="translate(190.869141 0)"/>
      </g>
     </g>
    </g>
    <g id="ytick_19">
     <g id="line2d_46">
      <g>
       <use xlink:href="#m9bcd36cca7" x="55.345313" y="434.647904" style="stroke: #000000; stroke-width: 0.8"/>
      </g>
     </g>
     <g id="text_46">
      <!-- 5800 -->
      <g transform="translate(22.895313 438.447123) scale(0.1 -0.1)">
       <defs>
        <path id="DejaVuSans-38" d="M 2034 2216 
Q 1584 2216 1326 1975 
Q 1069 1734 1069 1313 
Q 1069 891 1326 650 
Q 1584 409 2034 409 
Q 2484 409 2743 651 
Q 3003 894 3003 1313 
Q 3003 1734 2745 1975 
Q 2488 2216 2034 2216 
z
M 1403 2484 
Q 997 2584 770 2862 
Q 544 3141 544 3541 
Q 544 4100 942 4425 
Q 1341 4750 2034 4750 
Q 2731 4750 3128 4425 
Q 3525 4100 3525 3541 
Q 3525 3141 3298 2862 
Q 3072 2584 2669 2484 
Q 3125 2378 3379 2068 
Q 3634 1759 3634 1313 
Q 3634 634 3220 271 
Q 2806 -91 2034 -91 
Q 1263 -91 848 271 
Q 434 634 434 1313 
Q 434 1759 690 2068 
Q 947 2378 1403 2484 
z
M 1172 3481 
Q 1172 3119 1398 2916 
Q 1625 2713 2034 2713 
Q 2441 2713 2670 2916 
Q 2900 3119 2900 3481 
Q 2900 3844 2670 4047 
Q 2441 4250 2034 4250 
Q 1625 4250 1398 4047 
Q 1172 3844 1172 3481 
z
" transform="scale(0.015625)"/>
       </defs>
       <use xlink:href="#DejaVuSans-35"/>
       <use xlink:href="#DejaVuSans-38" transform="translate(63.623047 0)"/>
       <use xlink:href="#DejaVuSans-30" transform="translate(127.246094 0)"/>
       <use xlink:href="#DejaVuSans-30" transform="translate(190.869141 0)"/>
      </g>
     </g>
    </g>
    <g id="text_47">
     <!-- co-imf2 -->
     <g transform="translate(16.815625 507.669035) rotate(-90) scale(0.1 -0.1)">
      <use xlink:href="#DejaVuSans-63"/>
      <use xlink:href="#DejaVuSans-6f" transform="translate(54.980469 0)"/>
      <use xlink:href="#DejaVuSans-2d" transform="translate(118.037109 0)"/>
      <use xlink:href="#DejaVuSans-69" transform="translate(154.121094 0)"/>
      <use xlink:href="#DejaVuSans-6d" transform="translate(181.904297 0)"/>
      <use xlink:href="#DejaVuSans-66" transform="translate(279.316406 0)"/>
      <use xlink:href="#DejaVuSans-32" transform="translate(314.521484 0)"/>
     </g>
    </g>
   </g>
   <g id="line2d_47">
    <path d="M 104.529403 489.006678 
L 130.734042 486.885035 
L 152.907198 484.881588 
L 173.064612 482.85034 
L 191.206285 480.819437 
L 209.347958 478.568276 
L 225.473889 476.360393 
L 241.599821 473.937969 
L 257.725752 471.281937 
L 271.835942 468.751293 
L 285.946132 466.014767 
L 302.072064 462.658233 
L 328.276702 456.930278 
L 354.481341 451.25538 
L 370.607272 447.984239 
L 384.717462 445.360411 
L 396.811911 443.34437 
L 406.890618 441.86235 
L 416.969325 440.587615 
L 427.048032 439.545736 
L 437.126739 438.762281 
L 445.189705 438.338764 
L 453.252671 438.110094 
L 461.315637 438.089361 
L 469.378602 438.289658 
L 477.441568 438.723846 
L 485.504534 439.39895 
L 493.5675 440.310159 
L 501.630465 441.447536 
L 509.693431 442.800991 
L 517.756397 444.360433 
L 525.819362 446.115772 
L 535.89807 448.570054 
L 545.976777 451.294951 
L 556.055484 454.270756 
L 566.134191 457.477763 
L 576.212898 460.896262 
L 588.307347 465.249883 
L 600.401795 469.845621 
L 614.511985 475.467892 
L 630.637917 482.170744 
L 648.77959 489.968649 
L 679.015711 503.26752 
L 701.188867 512.930617 
L 713.283315 517.969477 
L 723.362023 521.949492 
L 733.44073 525.667832 
L 741.503696 528.41469 
L 749.566661 530.92652 
L 757.629627 533.173298 
L 763.676851 534.666379 
L 769.724076 535.980812 
L 775.7713 537.103931 
L 781.818524 538.023068 
L 787.865748 538.725558 
L 793.912973 539.198733 
L 799.960197 539.429928 
L 806.007421 539.408141 
L 812.054646 539.132906 
L 818.10187 538.612322 
L 824.149094 537.855232 
L 830.196318 536.870479 
L 836.243543 535.666908 
L 842.290767 534.253361 
L 848.337991 532.638682 
L 854.385216 530.831714 
L 860.43244 528.841301 
L 868.495406 525.917549 
L 876.558371 522.705935 
L 884.621337 519.230213 
L 892.684303 515.522982 
L 902.76301 510.621243 
L 914.857459 504.448319 
L 932.999131 494.873388 
L 953.156546 484.281934 
L 965.250994 478.199302 
L 975.329701 473.405916 
L 983.392667 469.807387 
L 991.455633 466.461837 
L 999.518599 463.408963 
L 1005.565823 461.334055 
L 1011.613047 459.458837 
L 1017.660272 457.797085 
L 1023.707496 456.360965 
L 1029.75472 455.15532 
L 1035.801944 454.177557 
L 1041.849169 453.424473 
L 1047.896393 452.892865 
L 1053.943617 452.579531 
L 1059.990842 452.481267 
L 1066.038066 452.594871 
L 1072.08529 452.917141 
L 1078.132514 453.444873 
L 1084.179739 454.174864 
L 1088.211222 454.772277 
L 1088.211222 454.772277 
" clip-path="url(#p11b5d2840f)" style="fill: none; stroke: #f27f19; stroke-width: 1.5; stroke-linecap: square"/>
   </g>
   <g id="patch_18">
    <path d="M 55.345313 544.52 
L 55.345313 433.004008 
" style="fill: none; stroke: #000000; stroke-width: 0.8; stroke-linejoin: miter; stroke-linecap: square"/>
   </g>
   <g id="patch_19">
    <path d="M 1137.395313 544.52 
L 1137.395313 433.004008 
" style="fill: none; stroke: #000000; stroke-width: 0.8; stroke-linejoin: miter; stroke-linecap: square"/>
   </g>
   <g id="patch_20">
    <path d="M 55.345313 544.52 
L 1137.395313 544.52 
" style="fill: none; stroke: #000000; stroke-width: 0.8; stroke-linejoin: miter; stroke-linecap: square"/>
   </g>
   <g id="patch_21">
    <path d="M 55.345313 433.004008 
L 1137.395313 433.004008 
" style="fill: none; stroke: #000000; stroke-width: 0.8; stroke-linejoin: miter; stroke-linecap: square"/>
   </g>
  </g>
 </g>
 <defs>
  <clipPath id="p6ae71cbd90">
   <rect x="55.345313" y="7.2" width="1082.05" height="111.515992"/>
  </clipPath>
  <clipPath id="p894890f6d8">
   <rect x="55.345313" y="149.134669" width="1082.05" height="111.515992"/>
  </clipPath>
  <clipPath id="p0edebc9f75">
   <rect x="55.345313" y="291.069339" width="1082.05" height="111.515992"/>
  </clipPath>
  <clipPath id="p11b5d2840f">
   <rect x="55.345313" y="433.004008" width="1082.05" height="111.515992"/>
  </clipPath>
 </defs>
</svg>
