<?xml version="1.0" encoding="utf-8" standalone="no"?>
<!DOCTYPE svg PUBLIC "-//W3C//DTD SVG 1.1//EN"
  "http://www.w3.org/Graphics/SVG/1.1/DTD/svg11.dtd">
<svg xmlns:xlink="http://www.w3.org/1999/xlink" width="1144.532812pt" height="568.398125pt" viewBox="0 0 1144.532812 568.398125" xmlns="http://www.w3.org/2000/svg" version="1.1">
 <metadata>
  <rdf:RDF xmlns:dc="http://purl.org/dc/elements/1.1/" xmlns:cc="http://creativecommons.org/ns#" xmlns:rdf="http://www.w3.org/1999/02/22-rdf-syntax-ns#">
   <cc:Work>
    <dc:type rdf:resource="http://purl.org/dc/dcmitype/StillImage"/>
    <dc:date>2025-04-22T10:02:50.400093</dc:date>
    <dc:format>image/svg+xml</dc:format>
    <dc:creator>
     <cc:Agent>
      <dc:title>Matplotlib v3.10.1, https://matplotlib.org/</dc:title>
     </cc:Agent>
    </dc:creator>
   </cc:Work>
  </rdf:RDF>
 </metadata>
 <defs>
  <style type="text/css">*{stroke-linejoin: round; stroke-linecap: butt}</style>
 </defs>
 <g id="figure_1">
  <g id="patch_1">
   <path d="M 0 568.398125 
L 1144.532812 568.398125 
L 1144.532812 0 
L 0 0 
z
" style="fill: #ffffff"/>
  </g>
  <g id="axes_1">
   <g id="patch_2">
    <path d="M 48.982813 120.62 
L 1137.332813 120.62 
L 1137.332813 7.2 
L 48.982813 7.2 
z
" style="fill: #ffffff"/>
   </g>
   <g id="matplotlib.axis_1">
    <g id="xtick_1">
     <g id="line2d_1">
      <defs>
       <path id="m00eb125d72" d="M 0 0 
L 0 3.5 
" style="stroke: #000000; stroke-width: 0.8"/>
      </defs>
      <g>
       <use xlink:href="#m00eb125d72" x="98.453267" y="120.62" style="stroke: #000000; stroke-width: 0.8"/>
      </g>
     </g>
     <g id="text_1">
      <!-- 0 -->
      <g transform="translate(95.272017 135.218437) scale(0.1 -0.1)">
       <defs>
        <path id="DejaVuSans-30" d="M 2034 4250 
Q 1547 4250 1301 3770 
Q 1056 3291 1056 2328 
Q 1056 1369 1301 889 
Q 1547 409 2034 409 
Q 2525 409 2770 889 
Q 3016 1369 3016 2328 
Q 3016 3291 2770 3770 
Q 2525 4250 2034 4250 
z
M 2034 4750 
Q 2819 4750 3233 4129 
Q 3647 3509 3647 2328 
Q 3647 1150 3233 529 
Q 2819 -91 2034 -91 
Q 1250 -91 836 529 
Q 422 1150 422 2328 
Q 422 3509 836 4129 
Q 1250 4750 2034 4750 
z
" transform="scale(0.015625)"/>
       </defs>
       <use xlink:href="#DejaVuSans-30"/>
      </g>
     </g>
    </g>
    <g id="xtick_2">
     <g id="line2d_2">
      <g>
       <use xlink:href="#m00eb125d72" x="289.458883" y="120.62" style="stroke: #000000; stroke-width: 0.8"/>
      </g>
     </g>
     <g id="text_2">
      <!-- 200 -->
      <g transform="translate(279.915133 135.218437) scale(0.1 -0.1)">
       <defs>
        <path id="DejaVuSans-32" d="M 1228 531 
L 3431 531 
L 3431 0 
L 469 0 
L 469 531 
Q 828 903 1448 1529 
Q 2069 2156 2228 2338 
Q 2531 2678 2651 2914 
Q 2772 3150 2772 3378 
Q 2772 3750 2511 3984 
Q 2250 4219 1831 4219 
Q 1534 4219 1204 4116 
Q 875 4013 500 3803 
L 500 4441 
Q 881 4594 1212 4672 
Q 1544 4750 1819 4750 
Q 2544 4750 2975 4387 
Q 3406 4025 3406 3419 
Q 3406 3131 3298 2873 
Q 3191 2616 2906 2266 
Q 2828 2175 2409 1742 
Q 1991 1309 1228 531 
z
" transform="scale(0.015625)"/>
       </defs>
       <use xlink:href="#DejaVuSans-32"/>
       <use xlink:href="#DejaVuSans-30" transform="translate(63.623047 0)"/>
       <use xlink:href="#DejaVuSans-30" transform="translate(127.246094 0)"/>
      </g>
     </g>
    </g>
    <g id="xtick_3">
     <g id="line2d_3">
      <g>
       <use xlink:href="#m00eb125d72" x="480.464499" y="120.62" style="stroke: #000000; stroke-width: 0.8"/>
      </g>
     </g>
     <g id="text_3">
      <!-- 400 -->
      <g transform="translate(470.920749 135.218437) scale(0.1 -0.1)">
       <defs>
        <path id="DejaVuSans-34" d="M 2419 4116 
L 825 1625 
L 2419 1625 
L 2419 4116 
z
M 2253 4666 
L 3047 4666 
L 3047 1625 
L 3713 1625 
L 3713 1100 
L 3047 1100 
L 3047 0 
L 2419 0 
L 2419 1100 
L 313 1100 
L 313 1709 
L 2253 4666 
z
" transform="scale(0.015625)"/>
       </defs>
       <use xlink:href="#DejaVuSans-34"/>
       <use xlink:href="#DejaVuSans-30" transform="translate(63.623047 0)"/>
       <use xlink:href="#DejaVuSans-30" transform="translate(127.246094 0)"/>
      </g>
     </g>
    </g>
    <g id="xtick_4">
     <g id="line2d_4">
      <g>
       <use xlink:href="#m00eb125d72" x="671.470115" y="120.62" style="stroke: #000000; stroke-width: 0.8"/>
      </g>
     </g>
     <g id="text_4">
      <!-- 600 -->
      <g transform="translate(661.926365 135.218437) scale(0.1 -0.1)">
       <defs>
        <path id="DejaVuSans-36" d="M 2113 2584 
Q 1688 2584 1439 2293 
Q 1191 2003 1191 1497 
Q 1191 994 1439 701 
Q 1688 409 2113 409 
Q 2538 409 2786 701 
Q 3034 994 3034 1497 
Q 3034 2003 2786 2293 
Q 2538 2584 2113 2584 
z
M 3366 4563 
L 3366 3988 
Q 3128 4100 2886 4159 
Q 2644 4219 2406 4219 
Q 1781 4219 1451 3797 
Q 1122 3375 1075 2522 
Q 1259 2794 1537 2939 
Q 1816 3084 2150 3084 
Q 2853 3084 3261 2657 
Q 3669 2231 3669 1497 
Q 3669 778 3244 343 
Q 2819 -91 2113 -91 
Q 1303 -91 875 529 
Q 447 1150 447 2328 
Q 447 3434 972 4092 
Q 1497 4750 2381 4750 
Q 2619 4750 2861 4703 
Q 3103 4656 3366 4563 
z
" transform="scale(0.015625)"/>
       </defs>
       <use xlink:href="#DejaVuSans-36"/>
       <use xlink:href="#DejaVuSans-30" transform="translate(63.623047 0)"/>
       <use xlink:href="#DejaVuSans-30" transform="translate(127.246094 0)"/>
      </g>
     </g>
    </g>
    <g id="xtick_5">
     <g id="line2d_5">
      <g>
       <use xlink:href="#m00eb125d72" x="862.475731" y="120.62" style="stroke: #000000; stroke-width: 0.8"/>
      </g>
     </g>
     <g id="text_5">
      <!-- 800 -->
      <g transform="translate(852.931981 135.218437) scale(0.1 -0.1)">
       <defs>
        <path id="DejaVuSans-38" d="M 2034 2216 
Q 1584 2216 1326 1975 
Q 1069 1734 1069 1313 
Q 1069 891 1326 650 
Q 1584 409 2034 409 
Q 2484 409 2743 651 
Q 3003 894 3003 1313 
Q 3003 1734 2745 1975 
Q 2488 2216 2034 2216 
z
M 1403 2484 
Q 997 2584 770 2862 
Q 544 3141 544 3541 
Q 544 4100 942 4425 
Q 1341 4750 2034 4750 
Q 2731 4750 3128 4425 
Q 3525 4100 3525 3541 
Q 3525 3141 3298 2862 
Q 3072 2584 2669 2484 
Q 3125 2378 3379 2068 
Q 3634 1759 3634 1313 
Q 3634 634 3220 271 
Q 2806 -91 2034 -91 
Q 1263 -91 848 271 
Q 434 634 434 1313 
Q 434 1759 690 2068 
Q 947 2378 1403 2484 
z
M 1172 3481 
Q 1172 3119 1398 2916 
Q 1625 2713 2034 2713 
Q 2441 2713 2670 2916 
Q 2900 3119 2900 3481 
Q 2900 3844 2670 4047 
Q 2441 4250 2034 4250 
Q 1625 4250 1398 4047 
Q 1172 3844 1172 3481 
z
" transform="scale(0.015625)"/>
       </defs>
       <use xlink:href="#DejaVuSans-38"/>
       <use xlink:href="#DejaVuSans-30" transform="translate(63.623047 0)"/>
       <use xlink:href="#DejaVuSans-30" transform="translate(127.246094 0)"/>
      </g>
     </g>
    </g>
    <g id="xtick_6">
     <g id="line2d_6">
      <g>
       <use xlink:href="#m00eb125d72" x="1053.481347" y="120.62" style="stroke: #000000; stroke-width: 0.8"/>
      </g>
     </g>
     <g id="text_6">
      <!-- 1000 -->
      <g transform="translate(1040.756347 135.218437) scale(0.1 -0.1)">
       <defs>
        <path id="DejaVuSans-31" d="M 794 531 
L 1825 531 
L 1825 4091 
L 703 3866 
L 703 4441 
L 1819 4666 
L 2450 4666 
L 2450 531 
L 3481 531 
L 3481 0 
L 794 0 
L 794 531 
z
" transform="scale(0.015625)"/>
       </defs>
       <use xlink:href="#DejaVuSans-31"/>
       <use xlink:href="#DejaVuSans-30" transform="translate(63.623047 0)"/>
       <use xlink:href="#DejaVuSans-30" transform="translate(127.246094 0)"/>
       <use xlink:href="#DejaVuSans-30" transform="translate(190.869141 0)"/>
      </g>
     </g>
    </g>
   </g>
   <g id="matplotlib.axis_2">
    <g id="ytick_1">
     <g id="line2d_7">
      <defs>
       <path id="m73026042ce" d="M 0 0 
L -3.5 0 
" style="stroke: #000000; stroke-width: 0.8"/>
      </defs>
      <g>
       <use xlink:href="#m73026042ce" x="48.982813" y="114.659314" style="stroke: #000000; stroke-width: 0.8"/>
      </g>
     </g>
     <g id="text_7">
      <!-- 50 -->
      <g transform="translate(29.257813 118.458532) scale(0.1 -0.1)">
       <defs>
        <path id="DejaVuSans-35" d="M 691 4666 
L 3169 4666 
L 3169 4134 
L 1269 4134 
L 1269 2991 
Q 1406 3038 1543 3061 
Q 1681 3084 1819 3084 
Q 2600 3084 3056 2656 
Q 3513 2228 3513 1497 
Q 3513 744 3044 326 
Q 2575 -91 1722 -91 
Q 1428 -91 1123 -41 
Q 819 9 494 109 
L 494 744 
Q 775 591 1075 516 
Q 1375 441 1709 441 
Q 2250 441 2565 725 
Q 2881 1009 2881 1497 
Q 2881 1984 2565 2268 
Q 2250 2553 1709 2553 
Q 1456 2553 1204 2497 
Q 953 2441 691 2322 
L 691 4666 
z
" transform="scale(0.015625)"/>
       </defs>
       <use xlink:href="#DejaVuSans-35"/>
       <use xlink:href="#DejaVuSans-30" transform="translate(63.623047 0)"/>
      </g>
     </g>
    </g>
    <g id="ytick_2">
     <g id="line2d_8">
      <g>
       <use xlink:href="#m73026042ce" x="48.982813" y="86.645982" style="stroke: #000000; stroke-width: 0.8"/>
      </g>
     </g>
     <g id="text_8">
      <!-- 100 -->
      <g transform="translate(22.895313 90.4452) scale(0.1 -0.1)">
       <use xlink:href="#DejaVuSans-31"/>
       <use xlink:href="#DejaVuSans-30" transform="translate(63.623047 0)"/>
       <use xlink:href="#DejaVuSans-30" transform="translate(127.246094 0)"/>
      </g>
     </g>
    </g>
    <g id="ytick_3">
     <g id="line2d_9">
      <g>
       <use xlink:href="#m73026042ce" x="48.982813" y="58.63265" style="stroke: #000000; stroke-width: 0.8"/>
      </g>
     </g>
     <g id="text_9">
      <!-- 150 -->
      <g transform="translate(22.895313 62.431869) scale(0.1 -0.1)">
       <use xlink:href="#DejaVuSans-31"/>
       <use xlink:href="#DejaVuSans-35" transform="translate(63.623047 0)"/>
       <use xlink:href="#DejaVuSans-30" transform="translate(127.246094 0)"/>
      </g>
     </g>
    </g>
    <g id="ytick_4">
     <g id="line2d_10">
      <g>
       <use xlink:href="#m73026042ce" x="48.982813" y="30.619318" style="stroke: #000000; stroke-width: 0.8"/>
      </g>
     </g>
     <g id="text_10">
      <!-- 200 -->
      <g transform="translate(22.895313 34.418537) scale(0.1 -0.1)">
       <use xlink:href="#DejaVuSans-32"/>
       <use xlink:href="#DejaVuSans-30" transform="translate(63.623047 0)"/>
       <use xlink:href="#DejaVuSans-30" transform="translate(127.246094 0)"/>
      </g>
     </g>
    </g>
    <g id="text_11">
     <!-- Original Data -->
     <g transform="translate(16.815625 97.002969) rotate(-90) scale(0.1 -0.1)">
      <defs>
       <path id="DejaVuSans-4f" d="M 2522 4238 
Q 1834 4238 1429 3725 
Q 1025 3213 1025 2328 
Q 1025 1447 1429 934 
Q 1834 422 2522 422 
Q 3209 422 3611 934 
Q 4013 1447 4013 2328 
Q 4013 3213 3611 3725 
Q 3209 4238 2522 4238 
z
M 2522 4750 
Q 3503 4750 4090 4092 
Q 4678 3434 4678 2328 
Q 4678 1225 4090 567 
Q 3503 -91 2522 -91 
Q 1538 -91 948 565 
Q 359 1222 359 2328 
Q 359 3434 948 4092 
Q 1538 4750 2522 4750 
z
" transform="scale(0.015625)"/>
       <path id="DejaVuSans-72" d="M 2631 2963 
Q 2534 3019 2420 3045 
Q 2306 3072 2169 3072 
Q 1681 3072 1420 2755 
Q 1159 2438 1159 1844 
L 1159 0 
L 581 0 
L 581 3500 
L 1159 3500 
L 1159 2956 
Q 1341 3275 1631 3429 
Q 1922 3584 2338 3584 
Q 2397 3584 2469 3576 
Q 2541 3569 2628 3553 
L 2631 2963 
z
" transform="scale(0.015625)"/>
       <path id="DejaVuSans-69" d="M 603 3500 
L 1178 3500 
L 1178 0 
L 603 0 
L 603 3500 
z
M 603 4863 
L 1178 4863 
L 1178 4134 
L 603 4134 
L 603 4863 
z
" transform="scale(0.015625)"/>
       <path id="DejaVuSans-67" d="M 2906 1791 
Q 2906 2416 2648 2759 
Q 2391 3103 1925 3103 
Q 1463 3103 1205 2759 
Q 947 2416 947 1791 
Q 947 1169 1205 825 
Q 1463 481 1925 481 
Q 2391 481 2648 825 
Q 2906 1169 2906 1791 
z
M 3481 434 
Q 3481 -459 3084 -895 
Q 2688 -1331 1869 -1331 
Q 1566 -1331 1297 -1286 
Q 1028 -1241 775 -1147 
L 775 -588 
Q 1028 -725 1275 -790 
Q 1522 -856 1778 -856 
Q 2344 -856 2625 -561 
Q 2906 -266 2906 331 
L 2906 616 
Q 2728 306 2450 153 
Q 2172 0 1784 0 
Q 1141 0 747 490 
Q 353 981 353 1791 
Q 353 2603 747 3093 
Q 1141 3584 1784 3584 
Q 2172 3584 2450 3431 
Q 2728 3278 2906 2969 
L 2906 3500 
L 3481 3500 
L 3481 434 
z
" transform="scale(0.015625)"/>
       <path id="DejaVuSans-6e" d="M 3513 2113 
L 3513 0 
L 2938 0 
L 2938 2094 
Q 2938 2591 2744 2837 
Q 2550 3084 2163 3084 
Q 1697 3084 1428 2787 
Q 1159 2491 1159 1978 
L 1159 0 
L 581 0 
L 581 3500 
L 1159 3500 
L 1159 2956 
Q 1366 3272 1645 3428 
Q 1925 3584 2291 3584 
Q 2894 3584 3203 3211 
Q 3513 2838 3513 2113 
z
" transform="scale(0.015625)"/>
       <path id="DejaVuSans-61" d="M 2194 1759 
Q 1497 1759 1228 1600 
Q 959 1441 959 1056 
Q 959 750 1161 570 
Q 1363 391 1709 391 
Q 2188 391 2477 730 
Q 2766 1069 2766 1631 
L 2766 1759 
L 2194 1759 
z
M 3341 1997 
L 3341 0 
L 2766 0 
L 2766 531 
Q 2569 213 2275 61 
Q 1981 -91 1556 -91 
Q 1019 -91 701 211 
Q 384 513 384 1019 
Q 384 1609 779 1909 
Q 1175 2209 1959 2209 
L 2766 2209 
L 2766 2266 
Q 2766 2663 2505 2880 
Q 2244 3097 1772 3097 
Q 1472 3097 1187 3025 
Q 903 2953 641 2809 
L 641 3341 
Q 956 3463 1253 3523 
Q 1550 3584 1831 3584 
Q 2591 3584 2966 3190 
Q 3341 2797 3341 1997 
z
" transform="scale(0.015625)"/>
       <path id="DejaVuSans-6c" d="M 603 4863 
L 1178 4863 
L 1178 0 
L 603 0 
L 603 4863 
z
" transform="scale(0.015625)"/>
       <path id="DejaVuSans-20" transform="scale(0.015625)"/>
       <path id="DejaVuSans-44" d="M 1259 4147 
L 1259 519 
L 2022 519 
Q 2988 519 3436 956 
Q 3884 1394 3884 2338 
Q 3884 3275 3436 3711 
Q 2988 4147 2022 4147 
L 1259 4147 
z
M 628 4666 
L 1925 4666 
Q 3281 4666 3915 4102 
Q 4550 3538 4550 2338 
Q 4550 1131 3912 565 
Q 3275 0 1925 0 
L 628 0 
L 628 4666 
z
" transform="scale(0.015625)"/>
       <path id="DejaVuSans-74" d="M 1172 4494 
L 1172 3500 
L 2356 3500 
L 2356 3053 
L 1172 3053 
L 1172 1153 
Q 1172 725 1289 603 
Q 1406 481 1766 481 
L 2356 481 
L 2356 0 
L 1766 0 
Q 1100 0 847 248 
Q 594 497 594 1153 
L 594 3053 
L 172 3053 
L 172 3500 
L 594 3500 
L 594 4494 
L 1172 4494 
z
" transform="scale(0.015625)"/>
      </defs>
      <use xlink:href="#DejaVuSans-4f"/>
      <use xlink:href="#DejaVuSans-72" transform="translate(78.710938 0)"/>
      <use xlink:href="#DejaVuSans-69" transform="translate(119.824219 0)"/>
      <use xlink:href="#DejaVuSans-67" transform="translate(147.607422 0)"/>
      <use xlink:href="#DejaVuSans-69" transform="translate(211.083984 0)"/>
      <use xlink:href="#DejaVuSans-6e" transform="translate(238.867188 0)"/>
      <use xlink:href="#DejaVuSans-61" transform="translate(302.246094 0)"/>
      <use xlink:href="#DejaVuSans-6c" transform="translate(363.525391 0)"/>
      <use xlink:href="#DejaVuSans-20" transform="translate(391.308594 0)"/>
      <use xlink:href="#DejaVuSans-44" transform="translate(423.095703 0)"/>
      <use xlink:href="#DejaVuSans-61" transform="translate(500.097656 0)"/>
      <use xlink:href="#DejaVuSans-74" transform="translate(561.376953 0)"/>
      <use xlink:href="#DejaVuSans-61" transform="translate(600.585938 0)"/>
     </g>
    </g>
   </g>
   <g id="line2d_11">
    <path d="M 98.453267 83.249387 
L 100.363323 83.562896 
L 102.273379 84.059915 
L 103.228407 84.101475 
L 104.183436 83.949589 
L 105.138464 83.493418 
L 106.093492 83.614026 
L 107.04852 84.327176 
L 108.003548 84.449574 
L 108.958576 84.110661 
L 109.913604 84.085317 
L 110.868632 84.195657 
L 111.82366 84.458992 
L 112.778688 85.019445 
L 113.733716 85.094177 
L 114.688744 84.469017 
L 117.553829 83.524043 
L 118.508857 82.986059 
L 119.463885 84.156834 
L 120.418913 87.189968 
L 121.373941 88.041249 
L 122.328969 86.941523 
L 123.283997 87.008665 
L 124.239025 87.573811 
L 125.194053 84.874954 
L 126.149081 79.14882 
L 127.104109 63.716996 
L 128.059138 38.869713 
L 129.014166 30.781978 
L 129.969194 38.489487 
L 130.924222 45.194935 
L 132.834278 62.364168 
L 133.789306 61.195537 
L 134.744334 64.025307 
L 135.699362 63.548616 
L 136.65439 63.947413 
L 137.609418 64.875549 
L 139.519474 65.504109 
L 140.474503 67.078277 
L 141.429531 70.32695 
L 142.384559 71.965478 
L 143.339587 72.274765 
L 144.294615 72.390662 
L 145.249643 72.776684 
L 146.204671 73.735183 
L 147.159699 75.929277 
L 148.114727 77.265981 
L 149.069755 78.018055 
L 150.979811 79.972334 
L 152.889868 81.643781 
L 153.844896 82.170181 
L 154.799924 82.388987 
L 155.754952 82.88574 
L 156.70998 83.641923 
L 157.665008 83.417488 
L 158.620036 82.23803 
L 160.530092 80.359579 
L 161.48512 79.986047 
L 164.350205 81.321015 
L 165.305233 81.525986 
L 166.260261 81.257055 
L 167.215289 81.348329 
L 169.125345 82.049433 
L 171.035401 82.980056 
L 171.990429 83.234888 
L 172.945457 83.234221 
L 174.855513 82.48076 
L 175.810542 81.924122 
L 176.76557 81.605358 
L 177.720598 81.60157 
L 178.675626 81.826807 
L 180.585682 82.88675 
L 183.450766 83.946838 
L 184.405794 84.14675 
L 185.360822 84.232004 
L 186.31585 84.1402 
L 188.225907 83.483092 
L 189.180935 83.020914 
L 190.135963 82.752986 
L 191.090991 82.738866 
L 193.001047 82.413624 
L 193.956075 81.055609 
L 194.911103 78.351652 
L 195.866131 77.062566 
L 196.821159 61.70227 
L 197.776187 63.388196 
L 198.731215 67.894749 
L 199.686244 63.805713 
L 200.641272 70.321487 
L 202.551328 74.19518 
L 203.506356 70.574141 
L 204.461384 72.829477 
L 205.416412 72.627706 
L 206.37144 74.280689 
L 207.326468 74.936688 
L 210.191552 74.960627 
L 211.14658 76.100493 
L 212.101609 78.675669 
L 213.056637 79.23702 
L 214.966693 76.757127 
L 216.876749 77.474743 
L 217.831777 78.671943 
L 218.786805 79.63591 
L 220.696861 81.105017 
L 222.606917 82.27615 
L 223.561946 83.014169 
L 224.516974 83.047039 
L 225.472002 82.350284 
L 226.42703 81.964776 
L 227.382058 81.758558 
L 228.337086 81.784111 
L 229.292114 82.262628 
L 230.247142 82.533212 
L 231.20217 82.662651 
L 232.157198 82.62782 
L 234.067254 81.862792 
L 235.977311 80.588698 
L 236.932339 79.786357 
L 237.887367 78.123968 
L 238.842395 75.539949 
L 240.752451 75.508969 
L 241.707479 76.147551 
L 242.662507 77.780552 
L 243.617535 79.09781 
L 244.572563 80.223379 
L 245.527591 79.959764 
L 246.482619 78.352774 
L 247.437648 77.72807 
L 248.392676 78.020974 
L 253.167816 76.766673 
L 255.077872 76.813895 
L 256.0329 76.982695 
L 256.987928 77.351598 
L 260.808041 79.638751 
L 264.628153 80.893017 
L 267.493237 82.145255 
L 268.448265 82.462224 
L 271.31335 82.94501 
L 274.178434 83.201605 
L 276.08849 83.287782 
L 279.908602 83.720974 
L 281.818658 84.143058 
L 285.638771 84.641267 
L 287.548827 84.944265 
L 289.458883 85.380511 
L 291.368939 85.529497 
L 293.278995 85.38565 
L 298.054136 85.496022 
L 300.91922 85.841014 
L 305.69436 86.838102 
L 307.604417 87.194932 
L 308.559445 87.52616 
L 310.469501 88.593542 
L 313.334585 90.508814 
L 314.289613 90.881915 
L 315.244641 90.96084 
L 316.199669 90.848786 
L 318.109725 90.040092 
L 320.97481 88.75266 
L 321.929838 88.594553 
L 322.884866 88.71328 
L 323.839894 89.055775 
L 324.794922 89.693308 
L 325.74995 90.186056 
L 327.660006 90.838282 
L 329.570062 91.278365 
L 330.52509 91.56975 
L 331.480119 91.346858 
L 332.435147 90.593259 
L 334.345203 89.578816 
L 335.300231 89.587689 
L 337.210287 91.041369 
L 339.120343 93.149124 
L 341.030399 94.833775 
L 341.985427 95.347905 
L 342.940456 95.68391 
L 344.850512 95.818479 
L 346.760568 95.739507 
L 348.670624 95.374002 
L 349.625652 95.050507 
L 350.58068 94.589871 
L 351.535708 93.979066 
L 352.490736 93.187366 
L 354.400792 91.273047 
L 357.265877 88.745594 
L 358.220905 84.497129 
L 359.175933 82.787062 
L 360.130961 81.337612 
L 361.085989 82.345237 
L 362.996045 83.399381 
L 363.951073 81.955155 
L 364.906101 77.89123 
L 366.816158 71.990334 
L 367.771186 71.058574 
L 368.726214 72.761172 
L 369.681242 75.287544 
L 370.63627 79.291893 
L 371.591298 82.253463 
L 372.546326 83.814395 
L 373.501354 85.694198 
L 374.456382 87.188192 
L 375.41141 82.687922 
L 376.366438 84.873493 
L 377.321466 83.746715 
L 378.276494 83.903405 
L 379.231523 84.174032 
L 380.186551 84.835623 
L 381.141579 85.030434 
L 382.096607 84.711078 
L 383.051635 83.824651 
L 384.006663 82.110609 
L 384.961691 81.134195 
L 385.916719 80.890465 
L 386.871747 81.287498 
L 387.826775 82.739962 
L 388.781803 83.762442 
L 390.69186 85.083601 
L 393.556944 86.239044 
L 394.511972 86.362922 
L 396.422028 86.057792 
L 398.332084 85.463187 
L 399.287112 85.278176 
L 400.24214 85.220051 
L 401.197168 85.362223 
L 402.152196 85.779937 
L 404.062253 87.402386 
L 405.972309 89.563749 
L 408.837393 93.194659 
L 409.792421 93.847073 
L 411.702477 94.011013 
L 412.657505 94.119517 
L 413.612533 94.360177 
L 414.567562 94.878092 
L 416.477618 95.405689 
L 418.387674 95.72829 
L 419.342702 95.660315 
L 420.29773 95.383854 
L 421.252758 94.746403 
L 422.207786 93.686902 
L 423.162814 92.808692 
L 424.117842 92.095491 
L 426.027898 90.300812 
L 426.982927 89.63513 
L 427.937955 89.228746 
L 428.892983 89.438735 
L 430.803039 91.402122 
L 431.758067 92.597301 
L 432.713095 93.575422 
L 433.668123 94.173607 
L 434.623151 94.380182 
L 438.443264 92.835367 
L 440.35332 92.517707 
L 441.308348 92.604767 
L 442.263376 92.891635 
L 444.173432 93.830908 
L 445.12846 94.120217 
L 446.083488 94.172548 
L 447.038516 93.873505 
L 447.993544 93.837286 
L 448.948572 94.02964 
L 449.9036 93.605027 
L 451.813657 91.752822 
L 452.768685 91.779269 
L 453.723713 92.358597 
L 454.678741 93.805839 
L 455.633769 94.22368 
L 456.588797 93.535928 
L 459.453881 92.536322 
L 460.408909 92.445875 
L 461.363937 92.164717 
L 463.273994 91.474502 
L 464.229022 91.261729 
L 465.18405 91.317469 
L 468.049134 92.381603 
L 469.95919 92.952112 
L 470.914218 93.04785 
L 472.824274 92.817505 
L 474.734331 92.496965 
L 480.464499 92.322651 
L 483.329583 92.628654 
L 485.239639 92.771179 
L 486.194668 92.678669 
L 488.104724 92.082195 
L 490.969808 90.826694 
L 491.924836 90.70722 
L 493.834892 91.247266 
L 495.744948 92.133992 
L 499.565061 93.052331 
L 500.520089 93.215413 
L 501.475117 93.60187 
L 502.430145 94.244423 
L 503.385173 94.497713 
L 504.340201 94.383189 
L 505.295229 95.049834 
L 506.250257 96.448478 
L 507.205285 96.443749 
L 508.160313 95.111351 
L 509.115341 93.577025 
L 510.07037 90.021268 
L 511.025398 90.572975 
L 511.980426 92.907794 
L 512.935454 94.639041 
L 513.890482 95.832529 
L 514.84551 96.610422 
L 515.800538 96.570871 
L 517.710594 96.877724 
L 519.62065 96.633849 
L 521.530706 96.459107 
L 524.395791 96.358675 
L 526.305847 96.486342 
L 528.215903 96.844731 
L 530.125959 96.981851 
L 532.991043 96.812695 
L 534.9011 96.95149 
L 539.67624 97.579447 
L 543.496352 97.404377 
L 545.406408 97.424131 
L 547.316465 97.369051 
L 548.271493 97.412571 
L 549.226521 97.578866 
L 551.136577 98.266853 
L 554.001661 99.546774 
L 554.956689 99.813173 
L 559.73183 100.356726 
L 561.641886 100.821506 
L 562.596914 101.190572 
L 564.50697 102.094215 
L 565.461998 102.435705 
L 566.417026 102.584074 
L 567.372054 102.473852 
L 570.237139 102.496481 
L 571.192167 102.126881 
L 572.147195 102.557816 
L 573.102223 103.814347 
L 574.057251 104.717093 
L 575.012279 105.449889 
L 575.967307 105.273987 
L 576.922335 103.888253 
L 578.832391 101.689935 
L 579.787419 100.943605 
L 580.742447 100.832009 
L 581.697476 100.345422 
L 582.652504 99.623486 
L 584.56256 98.703792 
L 585.517588 98.46937 
L 588.382672 98.604007 
L 591.247756 98.806333 
L 592.202784 98.766272 
L 593.157813 98.888804 
L 595.067869 99.568185 
L 598.887981 101.816621 
L 601.753065 102.937915 
L 604.618149 103.754263 
L 606.528206 104.020338 
L 608.438262 104.084529 
L 612.258374 104.047724 
L 613.213402 104.069598 
L 614.16843 104.236231 
L 615.123458 104.562422 
L 616.078486 105.055434 
L 617.033515 105.761544 
L 617.988543 107.038045 
L 618.943571 108.950819 
L 619.898599 109.787097 
L 621.808655 109.141453 
L 623.718711 107.331289 
L 624.673739 106.323561 
L 626.583795 103.825272 
L 627.538823 103.028641 
L 628.493851 102.810207 
L 629.44888 102.723258 
L 632.313964 103.269607 
L 634.22402 103.541277 
L 636.134076 103.478971 
L 638.044132 103.504317 
L 639.954188 103.773258 
L 642.819273 104.090192 
L 644.729329 103.942529 
L 646.639385 103.606128 
L 647.594413 103.508337 
L 648.549441 103.542966 
L 653.324582 104.501937 
L 654.27961 104.525161 
L 657.144694 104.179324 
L 659.05475 104.142992 
L 660.009778 104.287936 
L 661.919834 104.788837 
L 663.82989 104.953149 
L 665.739947 104.909986 
L 672.425143 105.081293 
L 678.155312 104.947622 
L 680.065368 104.502654 
L 683.88548 103.07826 
L 684.840508 102.921032 
L 688.660621 103.027123 
L 689.615649 102.944722 
L 690.570677 103.07085 
L 692.480733 103.619957 
L 693.435761 103.818652 
L 694.390789 103.857404 
L 695.345817 103.682775 
L 696.300845 103.06104 
L 697.255873 101.904621 
L 698.210901 100.361691 
L 699.165929 101.429012 
L 700.120957 101.946085 
L 701.075986 103.331795 
L 702.031014 103.915258 
L 702.986042 103.584298 
L 704.896098 103.391436 
L 705.851126 102.872755 
L 706.806154 102.067492 
L 707.761182 101.49981 
L 708.71621 101.176669 
L 709.671238 101.650274 
L 710.626266 103.133119 
L 711.581294 103.985744 
L 712.536323 104.315935 
L 713.491351 104.518265 
L 717.311463 103.521424 
L 719.221519 103.407104 
L 723.041631 103.653477 
L 724.951688 103.945044 
L 726.861744 104.624171 
L 727.816772 105.127819 
L 728.7718 105.494552 
L 729.726828 105.710781 
L 730.681856 105.708653 
L 732.591912 105.16438 
L 734.501968 104.762079 
L 735.456996 104.677422 
L 736.412025 104.708776 
L 741.187165 105.568189 
L 742.142193 105.596063 
L 743.097221 105.496561 
L 744.052249 105.189792 
L 745.007277 104.635302 
L 745.962305 104.435189 
L 747.872361 104.835648 
L 748.82739 105.271521 
L 749.782418 105.498541 
L 751.692474 105.435271 
L 755.512586 104.888226 
L 756.467614 104.782912 
L 757.422642 104.790264 
L 761.242755 105.295215 
L 763.152811 105.301158 
L 767.927951 105.654245 
L 768.882979 105.548646 
L 770.793035 104.980254 
L 772.703092 104.025404 
L 775.568176 102.328732 
L 776.523204 102.156845 
L 777.478232 102.455388 
L 778.43326 102.899386 
L 780.343316 104.252071 
L 782.253372 105.287094 
L 784.163429 105.938967 
L 786.073485 106.308471 
L 787.983541 106.934057 
L 791.803653 107.843034 
L 794.668737 107.892588 
L 797.533822 107.533857 
L 799.443878 107.181682 
L 800.398906 106.911067 
L 801.353934 106.915573 
L 803.26399 107.404251 
L 805.174046 107.656944 
L 807.084102 107.736601 
L 811.859243 108.291818 
L 812.814271 108.286371 
L 814.724327 108.105925 
L 818.544439 107.971557 
L 821.409524 107.799375 
L 824.274608 107.90431 
L 826.184664 107.935382 
L 828.09472 107.748556 
L 830.004776 107.859296 
L 832.869861 108.525296 
L 834.779917 108.686627 
L 838.600029 108.826548 
L 842.420141 108.778472 
L 844.330198 108.644076 
L 846.240254 108.204684 
L 849.105338 107.570614 
L 850.060366 107.449145 
L 851.015394 107.482037 
L 852.92545 107.866537 
L 856.745563 108.410518 
L 859.610647 108.45799 
L 862.475731 108.120064 
L 864.385787 107.946766 
L 866.295843 108.031894 
L 868.2059 108.255755 
L 870.115956 108.302518 
L 872.026012 108.22412 
L 875.846124 108.485543 
L 879.666237 108.165391 
L 880.621265 108.440657 
L 881.576293 108.319438 
L 882.531321 107.826717 
L 883.486349 108.666025 
L 884.441377 110.83668 
L 886.351433 114.473049 
L 887.306461 115.464545 
L 888.261489 115.27094 
L 889.216517 115.22398 
L 891.126573 114.867552 
L 892.081602 114.909744 
L 893.03663 114.712541 
L 893.991658 114.376056 
L 894.946686 114.350461 
L 896.856742 114.812521 
L 899.721826 115.303777 
L 900.676854 115.182379 
L 901.631882 114.748717 
L 902.58691 113.018317 
L 904.496967 106.291962 
L 905.451995 102.238093 
L 906.407023 99.10688 
L 907.362051 97.228639 
L 908.317079 95.869335 
L 909.272107 95.239049 
L 910.227135 92.970479 
L 911.182163 88.748894 
L 913.092219 82.289345 
L 914.047247 79.866823 
L 915.002275 78.599248 
L 915.957304 79.187661 
L 916.912332 82.063655 
L 917.86736 85.406206 
L 918.822388 89.220638 
L 919.777416 86.739033 
L 920.732444 83.243658 
L 921.687472 79.190746 
L 922.6425 75.847427 
L 923.597528 74.452894 
L 925.507584 76.634166 
L 926.462612 78.180245 
L 927.417641 77.777179 
L 928.372669 74.764464 
L 930.282725 66.992776 
L 931.237753 65.293432 
L 932.192781 66.955424 
L 933.147809 67.389102 
L 934.102837 66.988296 
L 935.057865 64.862288 
L 936.012893 59.880206 
L 936.967921 50.998958 
L 937.922949 47.010915 
L 938.877977 43.750498 
L 939.833006 41.077117 
L 940.788034 46.232846 
L 941.743062 26.786245 
L 943.653118 12.355455 
L 944.608146 17.137098 
L 945.563174 30.509247 
L 946.518202 36.958945 
L 947.47323 52.192575 
L 948.428258 40.469152 
L 949.383286 36.667039 
L 950.338314 35.329324 
L 951.293343 38.393446 
L 952.248371 43.141482 
L 953.203399 44.643343 
L 954.158427 42.089535 
L 955.113455 35.289733 
L 956.068483 31.976942 
L 957.023511 32.44708 
L 957.978539 35.714808 
L 958.933567 40.002466 
L 959.888595 43.536328 
L 960.843623 44.856956 
L 961.798651 46.612984 
L 962.753679 49.671019 
L 963.708708 50.096653 
L 964.663736 51.221208 
L 965.618764 51.850641 
L 968.483848 54.306894 
L 970.393904 55.718435 
L 971.348932 57.2545 
L 972.30396 52.982429 
L 973.258988 50.787085 
L 974.214016 48.01934 
L 975.169045 46.806529 
L 976.124073 47.763145 
L 978.034129 48.563563 
L 978.989157 48.640041 
L 980.899213 47.114396 
L 981.854241 45.990346 
L 982.809269 45.716872 
L 984.719325 47.280915 
L 985.674353 48.542314 
L 987.58441 51.741332 
L 988.539438 51.275813 
L 989.494466 48.339746 
L 990.449494 39.26359 
L 991.404522 37.267808 
L 992.35955 42.744921 
L 993.314578 51.028833 
L 994.269606 53.468015 
L 995.224634 51.334996 
L 996.179662 52.280676 
L 997.13469 35.42422 
L 998.089718 50.908427 
L 999.044747 53.649369 
L 999.999775 58.182928 
L 1000.954803 53.609134 
L 1001.909831 50.109932 
L 1002.864859 48.859696 
L 1003.819887 50.875883 
L 1004.774915 54.164669 
L 1005.729943 56.524459 
L 1006.684971 56.931154 
L 1007.639999 57.694906 
L 1008.595027 57.759645 
L 1009.550055 57.605296 
L 1010.505083 57.272499 
L 1011.460112 57.226849 
L 1014.325196 58.460581 
L 1015.280224 59.715713 
L 1016.235252 61.775092 
L 1017.19028 63.009826 
L 1018.145308 63.459698 
L 1019.100336 63.771932 
L 1020.055364 61.724091 
L 1021.96542 59.418467 
L 1022.920449 58.742907 
L 1025.785533 59.302104 
L 1026.740561 59.558213 
L 1028.650617 59.70392 
L 1029.605645 60.166136 
L 1030.560673 61.053107 
L 1031.515701 61.695884 
L 1032.470729 61.987314 
L 1033.425757 61.664298 
L 1034.380785 60.163316 
L 1035.335814 54.896097 
L 1036.290842 55.467398 
L 1037.24587 60.116302 
L 1038.200898 62.448098 
L 1039.155926 63.514915 
L 1040.110954 63.930474 
L 1042.976038 66.367046 
L 1043.931066 67.957487 
L 1046.796151 74.538988 
L 1047.751179 75.39175 
L 1048.706207 74.978099 
L 1049.661235 74.117475 
L 1052.526319 69.589506 
L 1054.436375 66.060065 
L 1055.391403 65.015766 
L 1056.346431 64.828494 
L 1057.301459 63.755851 
L 1058.256487 67.044813 
L 1059.211516 68.783438 
L 1060.166544 70.766143 
L 1061.121572 73.502551 
L 1062.0766 76.649801 
L 1063.031628 78.320599 
L 1063.986656 78.02237 
L 1064.941684 76.90012 
L 1065.896712 75.587182 
L 1066.85174 75.323111 
L 1067.806768 75.89891 
L 1068.761796 76.063004 
L 1069.716824 75.944491 
L 1070.671853 76.485482 
L 1071.626881 77.300215 
L 1072.581909 78.661939 
L 1073.536937 80.524592 
L 1074.491965 80.981255 
L 1075.446993 79.81571 
L 1076.402021 78.869501 
L 1077.357049 77.666523 
L 1078.312077 78.482151 
L 1079.267105 81.532278 
L 1080.222133 80.653583 
L 1081.177161 77.917955 
L 1082.132189 76.772828 
L 1083.087218 77.065247 
L 1084.997274 76.414689 
L 1086.90733 76.629971 
L 1087.862358 76.543916 
L 1087.862358 76.543916 
" clip-path="url(#p7cefa7b9ba)" style="fill: none; stroke: #0070c0; stroke-width: 1.5; stroke-linecap: square"/>
   </g>
   <g id="patch_3">
    <path d="M 48.982813 120.62 
L 48.982813 7.2 
" style="fill: none; stroke: #000000; stroke-width: 0.8; stroke-linejoin: miter; stroke-linecap: square"/>
   </g>
   <g id="patch_4">
    <path d="M 1137.332813 120.62 
L 1137.332813 7.2 
" style="fill: none; stroke: #000000; stroke-width: 0.8; stroke-linejoin: miter; stroke-linecap: square"/>
   </g>
   <g id="patch_5">
    <path d="M 48.982813 120.62 
L 1137.332813 120.62 
" style="fill: none; stroke: #000000; stroke-width: 0.8; stroke-linejoin: miter; stroke-linecap: square"/>
   </g>
   <g id="patch_6">
    <path d="M 48.982813 7.2 
L 1137.332813 7.2 
" style="fill: none; stroke: #000000; stroke-width: 0.8; stroke-linejoin: miter; stroke-linecap: square"/>
   </g>
  </g>
  <g id="axes_2">
   <g id="patch_7">
    <path d="M 48.982813 261.92 
L 1137.332813 261.92 
L 1137.332813 148.5 
L 48.982813 148.5 
z
" style="fill: #ffffff"/>
   </g>
   <g id="matplotlib.axis_3">
    <g id="xtick_7">
     <g id="line2d_12">
      <g>
       <use xlink:href="#m00eb125d72" x="98.453267" y="261.92" style="stroke: #000000; stroke-width: 0.8"/>
      </g>
     </g>
     <g id="text_12">
      <!-- 0 -->
      <g transform="translate(95.272017 276.518437) scale(0.1 -0.1)">
       <use xlink:href="#DejaVuSans-30"/>
      </g>
     </g>
    </g>
    <g id="xtick_8">
     <g id="line2d_13">
      <g>
       <use xlink:href="#m00eb125d72" x="289.458883" y="261.92" style="stroke: #000000; stroke-width: 0.8"/>
      </g>
     </g>
     <g id="text_13">
      <!-- 200 -->
      <g transform="translate(279.915133 276.518437) scale(0.1 -0.1)">
       <use xlink:href="#DejaVuSans-32"/>
       <use xlink:href="#DejaVuSans-30" transform="translate(63.623047 0)"/>
       <use xlink:href="#DejaVuSans-30" transform="translate(127.246094 0)"/>
      </g>
     </g>
    </g>
    <g id="xtick_9">
     <g id="line2d_14">
      <g>
       <use xlink:href="#m00eb125d72" x="480.464499" y="261.92" style="stroke: #000000; stroke-width: 0.8"/>
      </g>
     </g>
     <g id="text_14">
      <!-- 400 -->
      <g transform="translate(470.920749 276.518437) scale(0.1 -0.1)">
       <use xlink:href="#DejaVuSans-34"/>
       <use xlink:href="#DejaVuSans-30" transform="translate(63.623047 0)"/>
       <use xlink:href="#DejaVuSans-30" transform="translate(127.246094 0)"/>
      </g>
     </g>
    </g>
    <g id="xtick_10">
     <g id="line2d_15">
      <g>
       <use xlink:href="#m00eb125d72" x="671.470115" y="261.92" style="stroke: #000000; stroke-width: 0.8"/>
      </g>
     </g>
     <g id="text_15">
      <!-- 600 -->
      <g transform="translate(661.926365 276.518437) scale(0.1 -0.1)">
       <use xlink:href="#DejaVuSans-36"/>
       <use xlink:href="#DejaVuSans-30" transform="translate(63.623047 0)"/>
       <use xlink:href="#DejaVuSans-30" transform="translate(127.246094 0)"/>
      </g>
     </g>
    </g>
    <g id="xtick_11">
     <g id="line2d_16">
      <g>
       <use xlink:href="#m00eb125d72" x="862.475731" y="261.92" style="stroke: #000000; stroke-width: 0.8"/>
      </g>
     </g>
     <g id="text_16">
      <!-- 800 -->
      <g transform="translate(852.931981 276.518437) scale(0.1 -0.1)">
       <use xlink:href="#DejaVuSans-38"/>
       <use xlink:href="#DejaVuSans-30" transform="translate(63.623047 0)"/>
       <use xlink:href="#DejaVuSans-30" transform="translate(127.246094 0)"/>
      </g>
     </g>
    </g>
    <g id="xtick_12">
     <g id="line2d_17">
      <g>
       <use xlink:href="#m00eb125d72" x="1053.481347" y="261.92" style="stroke: #000000; stroke-width: 0.8"/>
      </g>
     </g>
     <g id="text_17">
      <!-- 1000 -->
      <g transform="translate(1040.756347 276.518437) scale(0.1 -0.1)">
       <use xlink:href="#DejaVuSans-31"/>
       <use xlink:href="#DejaVuSans-30" transform="translate(63.623047 0)"/>
       <use xlink:href="#DejaVuSans-30" transform="translate(127.246094 0)"/>
       <use xlink:href="#DejaVuSans-30" transform="translate(190.869141 0)"/>
      </g>
     </g>
    </g>
   </g>
   <g id="matplotlib.axis_4">
    <g id="ytick_5">
     <g id="line2d_18">
      <g>
       <use xlink:href="#m73026042ce" x="48.982813" y="239.933523" style="stroke: #000000; stroke-width: 0.8"/>
      </g>
     </g>
     <g id="text_18">
      <!-- −20 -->
      <g transform="translate(20.878125 243.732742) scale(0.1 -0.1)">
       <defs>
        <path id="DejaVuSans-2212" d="M 678 2272 
L 4684 2272 
L 4684 1741 
L 678 1741 
L 678 2272 
z
" transform="scale(0.015625)"/>
       </defs>
       <use xlink:href="#DejaVuSans-2212"/>
       <use xlink:href="#DejaVuSans-32" transform="translate(83.789062 0)"/>
       <use xlink:href="#DejaVuSans-30" transform="translate(147.412109 0)"/>
      </g>
     </g>
    </g>
    <g id="ytick_6">
     <g id="line2d_19">
      <g>
       <use xlink:href="#m73026042ce" x="48.982813" y="215.992065" style="stroke: #000000; stroke-width: 0.8"/>
      </g>
     </g>
     <g id="text_19">
      <!-- 0 -->
      <g transform="translate(35.620313 219.791284) scale(0.1 -0.1)">
       <use xlink:href="#DejaVuSans-30"/>
      </g>
     </g>
    </g>
    <g id="ytick_7">
     <g id="line2d_20">
      <g>
       <use xlink:href="#m73026042ce" x="48.982813" y="192.050607" style="stroke: #000000; stroke-width: 0.8"/>
      </g>
     </g>
     <g id="text_20">
      <!-- 20 -->
      <g transform="translate(29.257813 195.849826) scale(0.1 -0.1)">
       <use xlink:href="#DejaVuSans-32"/>
       <use xlink:href="#DejaVuSans-30" transform="translate(63.623047 0)"/>
      </g>
     </g>
    </g>
    <g id="ytick_8">
     <g id="line2d_21">
      <g>
       <use xlink:href="#m73026042ce" x="48.982813" y="168.109149" style="stroke: #000000; stroke-width: 0.8"/>
      </g>
     </g>
     <g id="text_21">
      <!-- 40 -->
      <g transform="translate(29.257813 171.908368) scale(0.1 -0.1)">
       <use xlink:href="#DejaVuSans-34"/>
       <use xlink:href="#DejaVuSans-30" transform="translate(63.623047 0)"/>
      </g>
     </g>
    </g>
    <g id="text_22">
     <!-- co-imf0 -->
     <g transform="translate(14.798438 224.117031) rotate(-90) scale(0.1 -0.1)">
      <defs>
       <path id="DejaVuSans-63" d="M 3122 3366 
L 3122 2828 
Q 2878 2963 2633 3030 
Q 2388 3097 2138 3097 
Q 1578 3097 1268 2742 
Q 959 2388 959 1747 
Q 959 1106 1268 751 
Q 1578 397 2138 397 
Q 2388 397 2633 464 
Q 2878 531 3122 666 
L 3122 134 
Q 2881 22 2623 -34 
Q 2366 -91 2075 -91 
Q 1284 -91 818 406 
Q 353 903 353 1747 
Q 353 2603 823 3093 
Q 1294 3584 2113 3584 
Q 2378 3584 2631 3529 
Q 2884 3475 3122 3366 
z
" transform="scale(0.015625)"/>
       <path id="DejaVuSans-6f" d="M 1959 3097 
Q 1497 3097 1228 2736 
Q 959 2375 959 1747 
Q 959 1119 1226 758 
Q 1494 397 1959 397 
Q 2419 397 2687 759 
Q 2956 1122 2956 1747 
Q 2956 2369 2687 2733 
Q 2419 3097 1959 3097 
z
M 1959 3584 
Q 2709 3584 3137 3096 
Q 3566 2609 3566 1747 
Q 3566 888 3137 398 
Q 2709 -91 1959 -91 
Q 1206 -91 779 398 
Q 353 888 353 1747 
Q 353 2609 779 3096 
Q 1206 3584 1959 3584 
z
" transform="scale(0.015625)"/>
       <path id="DejaVuSans-2d" d="M 313 2009 
L 1997 2009 
L 1997 1497 
L 313 1497 
L 313 2009 
z
" transform="scale(0.015625)"/>
       <path id="DejaVuSans-6d" d="M 3328 2828 
Q 3544 3216 3844 3400 
Q 4144 3584 4550 3584 
Q 5097 3584 5394 3201 
Q 5691 2819 5691 2113 
L 5691 0 
L 5113 0 
L 5113 2094 
Q 5113 2597 4934 2840 
Q 4756 3084 4391 3084 
Q 3944 3084 3684 2787 
Q 3425 2491 3425 1978 
L 3425 0 
L 2847 0 
L 2847 2094 
Q 2847 2600 2669 2842 
Q 2491 3084 2119 3084 
Q 1678 3084 1418 2786 
Q 1159 2488 1159 1978 
L 1159 0 
L 581 0 
L 581 3500 
L 1159 3500 
L 1159 2956 
Q 1356 3278 1631 3431 
Q 1906 3584 2284 3584 
Q 2666 3584 2933 3390 
Q 3200 3197 3328 2828 
z
" transform="scale(0.015625)"/>
       <path id="DejaVuSans-66" d="M 2375 4863 
L 2375 4384 
L 1825 4384 
Q 1516 4384 1395 4259 
Q 1275 4134 1275 3809 
L 1275 3500 
L 2222 3500 
L 2222 3053 
L 1275 3053 
L 1275 0 
L 697 0 
L 697 3053 
L 147 3053 
L 147 3500 
L 697 3500 
L 697 3744 
Q 697 4328 969 4595 
Q 1241 4863 1831 4863 
L 2375 4863 
z
" transform="scale(0.015625)"/>
      </defs>
      <use xlink:href="#DejaVuSans-63"/>
      <use xlink:href="#DejaVuSans-6f" transform="translate(54.980469 0)"/>
      <use xlink:href="#DejaVuSans-2d" transform="translate(118.037109 0)"/>
      <use xlink:href="#DejaVuSans-69" transform="translate(154.121094 0)"/>
      <use xlink:href="#DejaVuSans-6d" transform="translate(181.904297 0)"/>
      <use xlink:href="#DejaVuSans-66" transform="translate(279.316406 0)"/>
      <use xlink:href="#DejaVuSans-30" transform="translate(314.521484 0)"/>
     </g>
    </g>
   </g>
   <g id="line2d_22">
    <path d="M 98.453267 234.046315 
L 99.408295 234.15479 
L 100.363323 233.832485 
L 101.318351 233.198365 
L 102.273379 231.8469 
L 103.228407 229.648426 
L 104.183436 226.700149 
L 105.138464 222.829748 
L 106.093492 220.075294 
L 107.04852 218.569614 
L 108.003548 215.893937 
L 108.958576 212.439284 
L 109.913604 209.989084 
L 110.868632 208.276995 
L 111.82366 207.420002 
L 112.778688 207.796901 
L 113.733716 207.693441 
L 114.688744 206.714669 
L 115.643772 207.023187 
L 117.553829 209.441245 
L 118.508857 211.144203 
L 119.463885 217.151626 
L 120.418913 227.802138 
L 121.373941 234.380206 
L 122.328969 237.285705 
L 123.283997 242.967908 
L 124.239025 249.887528 
L 125.194053 249.80651 
L 126.149081 243.08328 
L 127.104109 215.295432 
L 128.059138 166.902015 
L 129.014166 153.655455 
L 129.969194 173.335907 
L 130.924222 189.940553 
L 132.834278 228.356814 
L 133.789306 225.451088 
L 134.744334 230.342295 
L 135.699362 227.496727 
L 136.65439 225.909918 
L 137.609418 224.92168 
L 138.564446 222.217945 
L 139.519474 218.994809 
L 140.474503 218.236669 
L 141.429531 220.856397 
L 142.384559 220.051486 
L 144.294615 212.864078 
L 145.249643 210.161909 
L 146.204671 209.103158 
L 147.159699 211.14873 
L 148.114727 211.741549 
L 149.069755 211.486787 
L 150.024783 212.1167 
L 151.93484 213.865456 
L 152.889868 214.996409 
L 153.844896 215.752982 
L 154.799924 216.079136 
L 155.754952 217.177256 
L 156.70998 218.980733 
L 157.665008 218.78653 
L 158.620036 216.613406 
L 160.530092 213.306321 
L 161.48512 212.775927 
L 162.440148 213.891236 
L 164.350205 215.672535 
L 165.305233 215.877625 
L 166.260261 214.960763 
L 167.215289 214.794507 
L 169.125345 215.573132 
L 170.080373 216.440793 
L 171.035401 217.147498 
L 171.990429 217.694229 
L 172.945457 217.851097 
L 173.900485 217.444752 
L 174.855513 216.867429 
L 175.810542 215.996142 
L 176.76557 215.499866 
L 177.720598 215.479457 
L 178.675626 215.701147 
L 179.630654 216.380542 
L 180.585682 216.60114 
L 182.495738 215.99512 
L 184.405794 214.970812 
L 187.270878 213.904992 
L 188.225907 213.813421 
L 189.180935 213.987309 
L 190.135963 215.050887 
L 192.046019 219.334478 
L 193.001047 221.78826 
L 193.956075 221.902583 
L 194.911103 219.246982 
L 195.866131 219.572788 
L 196.821159 189.690016 
L 197.776187 195.967143 
L 198.731215 207.894404 
L 199.686244 200.993138 
L 200.641272 216.192307 
L 202.551328 225.477125 
L 203.506356 217.557385 
L 204.461384 221.791781 
L 205.416412 220.44152 
L 206.37144 222.768641 
L 207.326468 222.732367 
L 209.236524 219.647637 
L 210.191552 217.618404 
L 211.14658 218.18428 
L 212.101609 221.805869 
L 213.056637 221.161269 
L 214.966693 212.441481 
L 215.921721 211.695759 
L 216.876749 211.144428 
L 217.831777 212.559749 
L 218.786805 213.643262 
L 219.741833 214.402735 
L 220.696861 215.325353 
L 221.651889 215.901957 
L 222.606917 216.814486 
L 223.561946 217.979869 
L 224.516974 217.699105 
L 225.472002 215.917958 
L 226.42703 214.936683 
L 227.382058 214.480323 
L 228.337086 214.676364 
L 229.292114 216.024378 
L 231.20217 217.953211 
L 232.157198 218.614871 
L 234.067254 218.794947 
L 235.022282 218.625791 
L 235.977311 218.219694 
L 236.932339 217.607608 
L 237.887367 215.10412 
L 238.842395 210.542127 
L 239.797423 211.307284 
L 240.752451 211.897505 
L 241.707479 213.715502 
L 242.662507 217.473197 
L 243.617535 220.424052 
L 244.572563 222.832087 
L 245.527591 222.160331 
L 246.482619 218.521167 
L 247.437648 216.893395 
L 248.392676 217.153514 
L 249.347704 216.145541 
L 250.302732 214.877083 
L 252.212788 212.821351 
L 253.167816 211.986851 
L 254.122844 211.414452 
L 255.077872 211.019985 
L 256.0329 210.878277 
L 256.987928 211.180534 
L 258.897984 212.793953 
L 259.853013 213.692289 
L 260.808041 214.322222 
L 263.673125 215.092358 
L 264.628153 215.453153 
L 267.493237 217.019425 
L 268.448265 217.325862 
L 270.358321 217.359147 
L 273.223406 216.893784 
L 276.08849 216.102981 
L 279.908602 215.770547 
L 281.818658 216.112387 
L 283.728715 216.106797 
L 286.593799 215.735533 
L 287.548827 215.774147 
L 289.458883 216.140893 
L 290.413911 216.232752 
L 291.368939 216.201968 
L 292.323967 215.986136 
L 293.278995 215.909739 
L 297.099108 216.005452 
L 300.91922 216.041597 
L 301.874248 216.14576 
L 302.829276 216.127707 
L 304.739332 215.800823 
L 306.649388 215.205621 
L 307.604417 214.82924 
L 308.559445 214.765142 
L 309.514473 215.058822 
L 310.469501 215.506391 
L 313.334585 217.688366 
L 314.289613 218.057491 
L 315.244641 217.945228 
L 316.199669 217.549134 
L 320.019782 214.226248 
L 320.97481 213.635566 
L 321.929838 213.489732 
L 322.884866 213.908231 
L 323.839894 214.759339 
L 324.794922 216.17328 
L 325.74995 217.209559 
L 327.660006 218.292398 
L 330.52509 218.549399 
L 331.480119 217.459778 
L 332.435147 215.176955 
L 334.345203 211.681093 
L 335.300231 211.085249 
L 336.255259 211.953175 
L 337.210287 213.171433 
L 340.075371 218.734212 
L 341.030399 220.294474 
L 341.985427 221.399844 
L 342.940456 222.238268 
L 344.850512 223.128561 
L 347.715596 224.541505 
L 349.625652 225.225496 
L 350.58068 225.35195 
L 351.535708 225.268347 
L 352.490736 224.882904 
L 353.445764 224.13931 
L 354.400792 223.61326 
L 357.265877 222.670599 
L 358.220905 215.075275 
L 359.175933 212.8775 
L 360.130961 211.184474 
L 361.085989 214.673645 
L 362.996045 219.330296 
L 363.951073 217.276873 
L 364.906101 209.489754 
L 366.816158 198.19463 
L 367.771186 196.586092 
L 368.726214 200.400263 
L 369.681242 205.802043 
L 370.63627 214.178202 
L 371.591298 220.18698 
L 372.546326 223.071278 
L 373.501354 226.527828 
L 374.456382 229.069514 
L 375.41141 218.736865 
L 376.366438 222.64209 
L 377.321466 219.431396 
L 378.276494 218.943938 
L 379.231523 218.707389 
L 380.186551 219.331261 
L 381.141579 218.998285 
L 382.096607 217.627564 
L 383.051635 215.123287 
L 384.006663 210.947318 
L 384.961691 208.464842 
L 385.916719 207.684706 
L 386.871747 208.394593 
L 387.826775 211.497666 
L 388.781803 213.751782 
L 390.69186 216.883975 
L 393.556944 219.762603 
L 394.511972 220.048462 
L 395.467 219.739406 
L 396.422028 219.131358 
L 400.24214 215.058304 
L 401.197168 214.321783 
L 402.152196 213.969516 
L 404.062253 214.366568 
L 405.017281 214.791571 
L 405.972309 215.439569 
L 408.837393 217.801459 
L 409.792421 217.550008 
L 410.747449 216.125904 
L 411.702477 215.118284 
L 412.657505 214.324082 
L 413.612533 214.114576 
L 415.52259 215.45696 
L 416.477618 216.124127 
L 418.387674 217.915759 
L 419.342702 218.568218 
L 420.29773 218.880477 
L 421.252758 218.477126 
L 422.207786 217.182471 
L 423.162814 216.264756 
L 424.117842 215.645498 
L 425.07287 214.577777 
L 426.027898 213.287908 
L 426.982927 212.360552 
L 427.937955 211.771666 
L 428.892983 212.277285 
L 430.803039 215.969349 
L 431.758067 218.048673 
L 432.713095 219.582682 
L 433.668123 220.253406 
L 434.623151 220.068336 
L 438.443264 214.54892 
L 439.398292 213.718779 
L 440.35332 213.227012 
L 441.308348 213.287887 
L 442.263376 213.882128 
L 443.218404 215.111807 
L 444.173432 216.15736 
L 445.12846 216.99709 
L 446.083488 217.348845 
L 447.038516 216.945823 
L 447.993544 217.089913 
L 448.948572 217.682745 
L 449.9036 216.945124 
L 451.813657 213.255523 
L 452.768685 213.421912 
L 453.723713 214.764149 
L 454.678741 217.958647 
L 455.633769 218.963502 
L 456.588797 217.622062 
L 459.453881 216.003198 
L 460.408909 216.023245 
L 461.363937 215.619374 
L 462.318966 214.931526 
L 464.229022 214.096406 
L 465.18405 214.255068 
L 466.139078 215.063564 
L 469.004162 216.920505 
L 469.95919 217.292526 
L 470.914218 217.340421 
L 472.824274 216.540038 
L 473.779302 216.004747 
L 474.734331 215.61085 
L 477.599415 215.16755 
L 479.509471 215.17526 
L 480.464499 215.438537 
L 482.374555 216.378713 
L 485.239639 217.460552 
L 486.194668 217.407456 
L 487.149696 216.933592 
L 488.104724 216.280892 
L 490.969808 213.483309 
L 491.924836 213.105996 
L 492.879864 213.422461 
L 493.834892 213.90344 
L 494.78992 214.727561 
L 495.744948 215.322647 
L 498.610033 216.058858 
L 500.520089 216.219084 
L 501.475117 216.760351 
L 502.430145 217.862366 
L 503.385173 218.149643 
L 504.340201 217.67437 
L 505.295229 218.896463 
L 506.250257 221.71611 
L 507.205285 221.5407 
L 508.160313 218.533569 
L 509.115341 215.077761 
L 510.07037 207.2761 
L 511.025398 208.195377 
L 511.980426 212.854801 
L 512.935454 216.180585 
L 513.890482 218.298809 
L 514.84551 219.507748 
L 515.800538 218.950876 
L 516.755566 218.719135 
L 517.710594 218.628781 
L 518.665622 217.992106 
L 520.575678 216.507007 
L 522.485735 215.549245 
L 524.395791 215.0266 
L 525.350819 214.957898 
L 526.305847 215.140307 
L 528.215903 215.95086 
L 529.170931 216.216023 
L 530.125959 216.322248 
L 533.946072 215.761669 
L 535.856128 216.051466 
L 537.766184 216.50287 
L 538.721212 216.619524 
L 539.67624 216.595955 
L 542.541324 215.999705 
L 545.406408 215.627171 
L 547.316465 215.085675 
L 548.271493 214.888518 
L 549.226521 214.897597 
L 551.136577 215.510001 
L 553.046633 216.411433 
L 554.001661 216.748416 
L 554.956689 216.813455 
L 558.776802 215.735111 
L 560.686858 215.571503 
L 561.641886 215.659195 
L 562.596914 215.932878 
L 563.551942 216.420995 
L 564.50697 216.704384 
L 565.461998 216.773927 
L 566.417026 216.425224 
L 567.372054 215.51567 
L 568.327082 214.948888 
L 569.28211 214.678754 
L 570.237139 213.899636 
L 571.192167 212.749423 
L 572.147195 213.438598 
L 573.102223 216.045042 
L 575.012279 219.928518 
L 575.967307 220.048802 
L 576.922335 217.807836 
L 577.877363 216.27682 
L 578.832391 214.994423 
L 579.787419 214.489883 
L 580.742447 215.388084 
L 581.697476 215.47963 
L 582.652504 215.020851 
L 584.56256 214.942264 
L 585.517588 215.185374 
L 587.427644 216.260164 
L 588.382672 216.65314 
L 589.3377 216.887665 
L 590.292728 216.851637 
L 591.247756 216.579299 
L 592.202784 215.990397 
L 593.157813 215.642645 
L 594.112841 215.552132 
L 595.067869 215.626277 
L 597.932953 216.788561 
L 598.887981 217.043801 
L 600.798037 217.087888 
L 604.618149 216.742622 
L 606.528206 216.248594 
L 608.438262 215.508576 
L 610.348318 214.453687 
L 612.258374 213.176722 
L 613.213402 212.43747 
L 614.16843 211.999439 
L 615.123458 211.89844 
L 616.078486 212.210703 
L 617.033515 213.067591 
L 617.988543 215.279506 
L 618.943571 219.027834 
L 619.898599 220.699765 
L 621.808655 219.89715 
L 623.718711 217.586873 
L 624.673739 216.446473 
L 626.583795 213.275949 
L 627.538823 212.617011 
L 628.493851 213.085854 
L 629.44888 213.727282 
L 631.358936 215.80245 
L 633.268992 216.978754 
L 634.22402 217.206168 
L 635.179048 217.098996 
L 637.089104 216.159608 
L 638.044132 215.823566 
L 638.99916 215.650475 
L 642.819273 216.186987 
L 644.729329 216.04553 
L 646.639385 215.558868 
L 647.594413 215.409085 
L 648.549441 215.491497 
L 650.459497 216.195881 
L 652.369553 216.762267 
L 653.324582 216.942752 
L 654.27961 216.847415 
L 656.189666 216.054207 
L 658.099722 215.434929 
L 659.05475 215.324549 
L 660.009778 215.466684 
L 660.964806 215.934598 
L 661.919834 216.185209 
L 663.82989 216.21074 
L 664.784919 215.989068 
L 665.739947 215.884397 
L 668.605031 215.992466 
L 671.470115 216.06966 
L 675.290227 215.754046 
L 677.200284 216.137055 
L 679.11034 216.308503 
L 681.020396 216.204657 
L 682.930452 215.837268 
L 683.88548 215.766378 
L 684.840508 215.842058 
L 685.795536 216.125201 
L 686.750564 216.223852 
L 687.705592 216.1525 
L 688.660621 215.924446 
L 689.615649 215.442086 
L 690.570677 215.464754 
L 693.435761 217.110955 
L 694.390789 217.491929 
L 695.345817 217.551804 
L 696.300845 216.686447 
L 697.255873 214.691795 
L 698.210901 211.819914 
L 699.165929 214.428391 
L 700.120957 215.77263 
L 701.075986 218.84572 
L 702.031014 220.113755 
L 702.986042 219.319045 
L 703.94107 219.012319 
L 704.896098 218.454747 
L 705.851126 217.013952 
L 706.806154 214.907691 
L 707.761182 213.28242 
L 708.71621 212.168822 
L 709.671238 212.753777 
L 710.626266 215.50882 
L 711.581294 216.971895 
L 712.536323 217.390191 
L 713.491351 217.633391 
L 715.401407 216.462542 
L 717.311463 215.702965 
L 719.221519 215.781911 
L 721.131575 216.096704 
L 723.041631 215.97829 
L 723.996659 215.749644 
L 724.951688 215.668755 
L 725.906716 215.740159 
L 726.861744 216.011251 
L 727.816772 216.566412 
L 728.7718 216.889586 
L 729.726828 216.989296 
L 730.681856 216.736181 
L 731.636884 215.980791 
L 732.591912 215.420206 
L 734.501968 214.679961 
L 735.456996 214.599994 
L 736.412025 214.774231 
L 740.232137 216.731007 
L 741.187165 217.081408 
L 742.142193 217.219277 
L 743.097221 217.075932 
L 744.052249 216.480851 
L 745.007277 215.346492 
L 745.962305 214.959231 
L 747.872361 215.852856 
L 748.82739 216.772581 
L 749.782418 217.21325 
L 751.692474 216.880231 
L 754.557558 215.524006 
L 756.467614 214.766872 
L 757.422642 214.714089 
L 759.332698 215.320139 
L 760.287727 215.727555 
L 761.242755 216.013421 
L 762.197783 216.105734 
L 763.152811 216.393063 
L 765.062867 217.285693 
L 766.972923 218.328833 
L 767.927951 218.677121 
L 768.882979 218.842829 
L 769.838007 218.754465 
L 770.793035 218.439167 
L 771.748063 217.840837 
L 772.703092 217.10599 
L 773.65812 216.222043 
L 775.568176 213.972098 
L 776.523204 213.51982 
L 777.478232 213.911981 
L 778.43326 214.487176 
L 779.388288 215.484668 
L 780.343316 216.254213 
L 782.253372 217.004316 
L 783.2084 217.0027 
L 784.163429 216.760868 
L 785.118457 216.225817 
L 786.073485 215.95996 
L 789.893597 216.114715 
L 791.803653 216.428348 
L 795.623765 216.29292 
L 798.48885 215.759514 
L 799.443878 215.419065 
L 800.398906 214.921448 
L 801.353934 214.962763 
L 802.308962 215.57239 
L 803.26399 215.903684 
L 805.174046 216.161691 
L 806.129074 215.984156 
L 808.039131 216.003699 
L 809.949187 216.152029 
L 811.859243 216.384203 
L 812.814271 216.327663 
L 813.769299 216.064847 
L 814.724327 215.967089 
L 817.589411 215.98967 
L 821.409524 215.755533 
L 823.31958 215.993032 
L 825.229636 216.334268 
L 826.184664 216.295629 
L 828.09472 215.821539 
L 829.049748 215.709436 
L 830.004776 215.741107 
L 831.914833 216.161568 
L 832.869861 216.26112 
L 833.824889 216.227411 
L 835.734945 215.843839 
L 837.645001 215.720085 
L 839.555057 215.830091 
L 844.330198 216.586657 
L 845.285226 216.484134 
L 848.15031 215.565046 
L 850.060366 215.097707 
L 851.015394 215.176137 
L 851.970422 215.584017 
L 853.880478 216.069718 
L 855.790535 216.497707 
L 857.700591 216.64883 
L 859.610647 216.690615 
L 861.520703 216.378616 
L 864.385787 215.885633 
L 866.295843 215.934362 
L 868.2059 216.083678 
L 870.115956 215.856472 
L 871.070984 215.64937 
L 872.026012 215.662723 
L 873.936068 216.237699 
L 874.891096 216.681299 
L 875.846124 216.879166 
L 876.801152 216.783158 
L 877.75618 216.531889 
L 878.711208 216.010288 
L 879.666237 215.732048 
L 880.621265 215.721113 
L 881.576293 214.611854 
L 882.531321 212.416279 
L 883.486349 212.841489 
L 884.441377 215.893631 
L 886.351433 220.218877 
L 887.306461 220.589432 
L 888.261489 218.495777 
L 891.126573 213.699942 
L 892.081602 213.032814 
L 893.991658 211.538703 
L 894.946686 211.965282 
L 896.856742 215.233476 
L 897.81177 217.299959 
L 900.676854 224.815331 
L 901.631882 226.731041 
L 902.58691 226.066093 
L 903.541939 222.364722 
L 904.496967 218.201828 
L 905.451995 212.97892 
L 906.407023 209.817999 
L 907.362051 209.40098 
L 908.317079 210.135942 
L 909.272107 212.448104 
L 910.227135 211.253904 
L 911.182163 205.85706 
L 912.137191 202.217397 
L 913.092219 199.143679 
L 914.047247 197.452364 
L 915.002275 198.189195 
L 915.957304 202.869235 
L 917.86736 222.953793 
L 918.822388 234.491568 
L 919.777416 232.58266 
L 920.732444 228.520224 
L 921.687472 223.300208 
L 922.6425 219.639431 
L 923.597528 220.207288 
L 925.507584 232.197559 
L 926.462612 239.29624 
L 927.417641 242.313476 
L 928.372669 239.845576 
L 930.282725 231.452308 
L 931.237753 232.068854 
L 932.192781 239.964228 
L 933.147809 245.303354 
L 934.102837 248.926543 
L 935.057865 248.865717 
L 936.012893 242.689306 
L 936.967921 228.07617 
L 937.922949 223.775652 
L 938.877977 220.814657 
L 939.833006 218.837791 
L 940.788034 233.260532 
L 941.743062 194.729961 
L 943.653118 168.529319 
L 944.608146 180.282245 
L 945.563174 209.845098 
L 946.518202 224.155862 
L 947.47323 256.764545 
L 948.428258 231.36712 
L 949.383286 222.511201 
L 950.338314 218.571704 
L 951.293343 223.723915 
L 952.248371 232.192503 
L 953.203399 233.478608 
L 954.158427 225.885789 
L 955.113455 209.04128 
L 956.068483 199.498846 
L 957.023511 197.924201 
L 957.978539 202.227566 
L 958.933567 208.641798 
L 959.888595 213.403137 
L 960.843623 213.419597 
L 961.798651 214.394239 
L 962.753679 218.207379 
L 963.708708 216.51074 
L 964.663736 216.473377 
L 965.618764 215.704539 
L 966.573792 215.789727 
L 967.52882 216.185444 
L 968.483848 217.255907 
L 969.438876 218.577128 
L 970.393904 220.233547 
L 971.348932 224.183153 
L 972.30396 216.13003 
L 973.258988 212.771312 
L 974.214016 208.398343 
L 975.169045 207.424567 
L 976.124073 211.078294 
L 978.034129 215.594342 
L 978.989157 216.861985 
L 979.944185 216.185636 
L 980.899213 215.22231 
L 981.854241 213.39947 
L 982.809269 213.28662 
L 984.719325 217.340703 
L 985.674353 220.338323 
L 987.58441 227.544134 
L 988.539438 226.608019 
L 989.494466 220.292101 
L 990.449494 200.748627 
L 991.404522 196.212094 
L 992.35955 207.481614 
L 993.314578 224.573965 
L 994.269606 228.95518 
L 995.224634 223.319685 
L 996.179662 224.114137 
L 997.13469 186.762083 
L 998.089718 218.484056 
L 999.044747 223.000295 
L 999.999775 231.333524 
L 1000.954803 220.243569 
L 1001.909831 211.474355 
L 1002.864859 207.554184 
L 1003.819887 210.637033 
L 1004.774915 216.470898 
L 1005.729943 220.290325 
L 1006.684971 219.90074 
L 1007.639999 220.200194 
L 1008.595027 218.90779 
L 1009.550055 217.044617 
L 1010.505083 214.689012 
L 1011.460112 212.951407 
L 1013.370168 211.442951 
L 1014.325196 211.178781 
L 1015.280224 212.80342 
L 1016.235252 216.461052 
L 1017.19028 218.750085 
L 1019.100336 221.045711 
L 1020.055364 217.597722 
L 1021.010392 216.115336 
L 1021.96542 214.921495 
L 1022.920449 214.523802 
L 1023.875477 215.659558 
L 1024.830505 216.326508 
L 1025.785533 216.804422 
L 1026.740561 216.723335 
L 1028.650617 214.701859 
L 1029.605645 214.774445 
L 1032.470729 218.995732 
L 1033.425757 219.460469 
L 1034.380785 217.44665 
L 1035.335814 207.020793 
L 1036.290842 208.28044 
L 1037.24587 217.292958 
L 1038.200898 220.519353 
L 1039.155926 220.270432 
L 1040.110954 218.029007 
L 1041.065982 216.202549 
L 1042.976038 212.184995 
L 1043.931066 212.516524 
L 1044.886094 214.953968 
L 1046.796151 221.132151 
L 1047.751179 222.368812 
L 1048.706207 221.499288 
L 1049.661235 220.141563 
L 1053.481347 210.968432 
L 1054.436375 208.132652 
L 1055.391403 206.586944 
L 1056.346431 206.448649 
L 1057.301459 203.912069 
L 1058.256487 210.168371 
L 1060.166544 215.479197 
L 1061.121572 219.647625 
L 1062.0766 224.585431 
L 1063.031628 226.365677 
L 1063.986656 224.036133 
L 1065.896712 215.807155 
L 1066.85174 213.945378 
L 1067.806768 214.050793 
L 1068.761796 213.472443 
L 1069.716824 212.505635 
L 1070.671853 213.07377 
L 1071.626881 214.31751 
L 1072.581909 216.709163 
L 1073.536937 220.094569 
L 1074.491965 220.41362 
L 1075.446993 217.253543 
L 1076.402021 214.721491 
L 1077.357049 211.857895 
L 1078.312077 213.607533 
L 1079.267105 220.491009 
L 1080.222133 219.309289 
L 1081.177161 214.487025 
L 1082.132189 213.204189 
L 1083.087218 215.041861 
L 1084.997274 215.612672 
L 1085.952302 216.373301 
L 1086.90733 216.895845 
L 1087.862358 216.638504 
L 1087.862358 216.638504 
" clip-path="url(#p8181802b67)" style="fill: none; stroke: #f27f19; stroke-width: 1.5; stroke-linecap: square"/>
   </g>
   <g id="patch_8">
    <path d="M 48.982813 261.92 
L 48.982813 148.5 
" style="fill: none; stroke: #000000; stroke-width: 0.8; stroke-linejoin: miter; stroke-linecap: square"/>
   </g>
   <g id="patch_9">
    <path d="M 1137.332813 261.92 
L 1137.332813 148.5 
" style="fill: none; stroke: #000000; stroke-width: 0.8; stroke-linejoin: miter; stroke-linecap: square"/>
   </g>
   <g id="patch_10">
    <path d="M 48.982813 261.92 
L 1137.332813 261.92 
" style="fill: none; stroke: #000000; stroke-width: 0.8; stroke-linejoin: miter; stroke-linecap: square"/>
   </g>
   <g id="patch_11">
    <path d="M 48.982813 148.5 
L 1137.332813 148.5 
" style="fill: none; stroke: #000000; stroke-width: 0.8; stroke-linejoin: miter; stroke-linecap: square"/>
   </g>
  </g>
  <g id="axes_3">
   <g id="patch_12">
    <path d="M 48.982813 403.22 
L 1137.332813 403.22 
L 1137.332813 289.8 
L 48.982813 289.8 
z
" style="fill: #ffffff"/>
   </g>
   <g id="matplotlib.axis_5">
    <g id="xtick_13">
     <g id="line2d_23">
      <g>
       <use xlink:href="#m00eb125d72" x="98.453267" y="403.22" style="stroke: #000000; stroke-width: 0.8"/>
      </g>
     </g>
     <g id="text_23">
      <!-- 0 -->
      <g transform="translate(95.272017 417.818437) scale(0.1 -0.1)">
       <use xlink:href="#DejaVuSans-30"/>
      </g>
     </g>
    </g>
    <g id="xtick_14">
     <g id="line2d_24">
      <g>
       <use xlink:href="#m00eb125d72" x="289.458883" y="403.22" style="stroke: #000000; stroke-width: 0.8"/>
      </g>
     </g>
     <g id="text_24">
      <!-- 200 -->
      <g transform="translate(279.915133 417.818437) scale(0.1 -0.1)">
       <use xlink:href="#DejaVuSans-32"/>
       <use xlink:href="#DejaVuSans-30" transform="translate(63.623047 0)"/>
       <use xlink:href="#DejaVuSans-30" transform="translate(127.246094 0)"/>
      </g>
     </g>
    </g>
    <g id="xtick_15">
     <g id="line2d_25">
      <g>
       <use xlink:href="#m00eb125d72" x="480.464499" y="403.22" style="stroke: #000000; stroke-width: 0.8"/>
      </g>
     </g>
     <g id="text_25">
      <!-- 400 -->
      <g transform="translate(470.920749 417.818437) scale(0.1 -0.1)">
       <use xlink:href="#DejaVuSans-34"/>
       <use xlink:href="#DejaVuSans-30" transform="translate(63.623047 0)"/>
       <use xlink:href="#DejaVuSans-30" transform="translate(127.246094 0)"/>
      </g>
     </g>
    </g>
    <g id="xtick_16">
     <g id="line2d_26">
      <g>
       <use xlink:href="#m00eb125d72" x="671.470115" y="403.22" style="stroke: #000000; stroke-width: 0.8"/>
      </g>
     </g>
     <g id="text_26">
      <!-- 600 -->
      <g transform="translate(661.926365 417.818437) scale(0.1 -0.1)">
       <use xlink:href="#DejaVuSans-36"/>
       <use xlink:href="#DejaVuSans-30" transform="translate(63.623047 0)"/>
       <use xlink:href="#DejaVuSans-30" transform="translate(127.246094 0)"/>
      </g>
     </g>
    </g>
    <g id="xtick_17">
     <g id="line2d_27">
      <g>
       <use xlink:href="#m00eb125d72" x="862.475731" y="403.22" style="stroke: #000000; stroke-width: 0.8"/>
      </g>
     </g>
     <g id="text_27">
      <!-- 800 -->
      <g transform="translate(852.931981 417.818437) scale(0.1 -0.1)">
       <use xlink:href="#DejaVuSans-38"/>
       <use xlink:href="#DejaVuSans-30" transform="translate(63.623047 0)"/>
       <use xlink:href="#DejaVuSans-30" transform="translate(127.246094 0)"/>
      </g>
     </g>
    </g>
    <g id="xtick_18">
     <g id="line2d_28">
      <g>
       <use xlink:href="#m00eb125d72" x="1053.481347" y="403.22" style="stroke: #000000; stroke-width: 0.8"/>
      </g>
     </g>
     <g id="text_28">
      <!-- 1000 -->
      <g transform="translate(1040.756347 417.818437) scale(0.1 -0.1)">
       <use xlink:href="#DejaVuSans-31"/>
       <use xlink:href="#DejaVuSans-30" transform="translate(63.623047 0)"/>
       <use xlink:href="#DejaVuSans-30" transform="translate(127.246094 0)"/>
       <use xlink:href="#DejaVuSans-30" transform="translate(190.869141 0)"/>
      </g>
     </g>
    </g>
   </g>
   <g id="matplotlib.axis_6">
    <g id="ytick_9">
     <g id="line2d_29">
      <g>
       <use xlink:href="#m73026042ce" x="48.982813" y="395.525713" style="stroke: #000000; stroke-width: 0.8"/>
      </g>
     </g>
     <g id="text_29">
      <!-- −50 -->
      <g transform="translate(20.878125 399.324931) scale(0.1 -0.1)">
       <use xlink:href="#DejaVuSans-2212"/>
       <use xlink:href="#DejaVuSans-35" transform="translate(83.789062 0)"/>
       <use xlink:href="#DejaVuSans-30" transform="translate(147.412109 0)"/>
      </g>
     </g>
    </g>
    <g id="ytick_10">
     <g id="line2d_30">
      <g>
       <use xlink:href="#m73026042ce" x="48.982813" y="355.114431" style="stroke: #000000; stroke-width: 0.8"/>
      </g>
     </g>
     <g id="text_30">
      <!-- 0 -->
      <g transform="translate(35.620313 358.913649) scale(0.1 -0.1)">
       <use xlink:href="#DejaVuSans-30"/>
      </g>
     </g>
    </g>
    <g id="ytick_11">
     <g id="line2d_31">
      <g>
       <use xlink:href="#m73026042ce" x="48.982813" y="314.703149" style="stroke: #000000; stroke-width: 0.8"/>
      </g>
     </g>
     <g id="text_31">
      <!-- 50 -->
      <g transform="translate(29.257813 318.502368) scale(0.1 -0.1)">
       <use xlink:href="#DejaVuSans-35"/>
       <use xlink:href="#DejaVuSans-30" transform="translate(63.623047 0)"/>
      </g>
     </g>
    </g>
    <g id="text_32">
     <!-- co-imf1 -->
     <g transform="translate(14.798438 365.417031) rotate(-90) scale(0.1 -0.1)">
      <use xlink:href="#DejaVuSans-63"/>
      <use xlink:href="#DejaVuSans-6f" transform="translate(54.980469 0)"/>
      <use xlink:href="#DejaVuSans-2d" transform="translate(118.037109 0)"/>
      <use xlink:href="#DejaVuSans-69" transform="translate(154.121094 0)"/>
      <use xlink:href="#DejaVuSans-6d" transform="translate(181.904297 0)"/>
      <use xlink:href="#DejaVuSans-66" transform="translate(279.316406 0)"/>
      <use xlink:href="#DejaVuSans-31" transform="translate(314.521484 0)"/>
     </g>
    </g>
   </g>
   <g id="line2d_32">
    <path d="M 98.453267 351.787796 
L 99.408295 351.914952 
L 100.363323 352.414342 
L 101.318351 353.27552 
L 102.273379 354.49954 
L 103.228407 356.05677 
L 105.138464 359.807492 
L 108.958576 367.7545 
L 109.913604 369.381094 
L 110.868632 370.704488 
L 111.82366 371.670667 
L 112.778688 372.231786 
L 113.733716 372.415949 
L 114.688744 372.180861 
L 115.643772 371.539337 
L 116.598801 370.479668 
L 117.553829 368.990958 
L 118.508857 367.068636 
L 119.463885 364.704488 
L 120.418913 361.891463 
L 122.328969 355.132938 
L 127.104109 336.473468 
L 128.059138 333.300576 
L 129.014166 330.573886 
L 129.969194 328.401089 
L 130.924222 326.858798 
L 131.87925 325.977484 
L 132.834278 325.678393 
L 133.789306 325.948028 
L 134.744334 326.720759 
L 135.699362 327.946654 
L 136.65439 329.584976 
L 137.609418 331.582117 
L 139.519474 336.470534 
L 145.249643 352.849479 
L 146.204671 354.93198 
L 147.159699 356.700288 
L 148.114727 358.21191 
L 149.069755 359.451727 
L 150.024783 360.461367 
L 150.979811 361.251672 
L 151.93484 361.835839 
L 152.889868 362.237065 
L 153.844896 362.464991 
L 154.799924 362.539084 
L 156.70998 362.342633 
L 159.575064 361.59673 
L 161.48512 361.133268 
L 163.395176 360.957241 
L 165.305233 361.147481 
L 170.080373 362.125889 
L 171.990429 362.159258 
L 173.900485 361.776864 
L 176.76557 361.104906 
L 177.720598 361.073834 
L 178.675626 361.20891 
L 179.630654 361.545393 
L 180.585682 362.047648 
L 184.405794 364.791472 
L 185.360822 365.103825 
L 186.31585 365.173842 
L 187.270878 364.949405 
L 188.225907 364.428793 
L 189.180935 363.596098 
L 190.135963 362.442186 
L 191.090991 360.960168 
L 193.001047 357.251376 
L 197.776187 346.970724 
L 198.731215 345.362934 
L 199.686244 344.067082 
L 200.641272 343.147216 
L 201.5963 342.572713 
L 202.551328 342.349644 
L 203.506356 342.413703 
L 204.461384 342.748068 
L 205.416412 343.307757 
L 206.37144 344.059512 
L 208.281496 345.996985 
L 211.14658 349.461538 
L 214.011665 352.971226 
L 215.921721 354.959042 
L 217.831777 356.494142 
L 219.741833 357.544834 
L 221.651889 358.219402 
L 223.561946 358.666044 
L 225.472002 358.951121 
L 227.382058 358.91632 
L 228.337086 358.743997 
L 230.247142 358.057117 
L 232.157198 356.988871 
L 234.067254 355.603812 
L 238.842395 351.645987 
L 240.752451 350.519313 
L 241.707479 350.128938 
L 243.617535 349.685939 
L 245.527591 349.585837 
L 247.437648 349.749666 
L 249.347704 350.109877 
L 253.167816 351.148157 
L 256.987928 352.178284 
L 261.763069 353.173352 
L 272.268378 354.955564 
L 277.998546 355.83577 
L 287.548827 357.062478 
L 289.458883 357.257155 
L 291.368939 357.244134 
L 298.054136 356.68928 
L 299.964192 356.770871 
L 301.874248 357.029058 
L 303.784304 357.516092 
L 305.69436 358.204142 
L 309.514473 359.882344 
L 312.379557 361.04472 
L 314.289613 361.529106 
L 316.199669 361.649755 
L 318.109725 361.442336 
L 325.74995 360.069329 
L 327.660006 360.112623 
L 329.570062 360.455405 
L 331.480119 361.079918 
L 335.300231 362.523666 
L 337.210287 363.053343 
L 339.120343 363.354482 
L 341.030399 363.402099 
L 342.940456 363.16217 
L 344.850512 362.602966 
L 346.760568 361.699082 
L 348.670624 360.453292 
L 350.58068 358.883167 
L 352.490736 357.031438 
L 355.355821 353.916507 
L 360.130961 348.62378 
L 362.041017 346.73974 
L 363.951073 345.131595 
L 365.861129 343.89384 
L 366.816158 343.443309 
L 367.771186 343.120544 
L 368.726214 342.937304 
L 369.681242 342.871026 
L 371.591298 343.081875 
L 373.501354 343.640499 
L 375.41141 344.442124 
L 383.051635 348.052516 
L 384.961691 348.553826 
L 386.871747 348.710896 
L 388.781803 348.554182 
L 394.511972 347.732739 
L 396.422028 347.807233 
L 398.332084 348.246767 
L 399.287112 348.631292 
L 400.24214 349.143261 
L 401.197168 349.794972 
L 402.152196 350.585005 
L 404.062253 352.557427 
L 410.747449 360.373554 
L 411.702477 361.192594 
L 412.657505 361.837421 
L 413.612533 362.278307 
L 414.567562 362.481048 
L 415.52259 362.48564 
L 416.477618 362.287556 
L 417.432646 361.937309 
L 419.342702 360.863872 
L 426.027898 356.373106 
L 426.982927 355.992965 
L 427.937955 355.758426 
L 428.892983 355.674142 
L 430.803039 355.922207 
L 432.713095 356.526415 
L 437.488235 358.309806 
L 439.398292 358.794398 
L 441.308348 358.965769 
L 443.218404 358.816674 
L 446.083488 358.256293 
L 449.9036 357.52414 
L 466.139078 355.205141 
L 469.004162 355.232778 
L 475.689359 355.460836 
L 478.554443 355.268342 
L 481.419527 354.740379 
L 486.194668 353.725116 
L 489.059752 353.406147 
L 491.924836 353.342661 
L 494.78992 353.50168 
L 500.520089 354.130079 
L 504.340201 354.482582 
L 511.980426 354.861187 
L 514.84551 355.41402 
L 521.530706 356.828654 
L 523.440763 357.005314 
L 525.350819 356.984673 
L 528.215903 356.650695 
L 531.080987 356.260417 
L 533.946072 356.056266 
L 542.541324 355.625031 
L 546.361437 355.481244 
L 549.226521 355.665668 
L 552.091605 356.160426 
L 558.776802 357.463018 
L 563.551942 358.399306 
L 566.417026 359.244076 
L 569.28211 360.036269 
L 571.192167 360.285397 
L 573.102223 360.175787 
L 574.057251 359.949939 
L 575.012279 359.590845 
L 575.967307 359.093455 
L 577.877363 357.695162 
L 580.742447 355.008546 
L 583.607532 352.332221 
L 585.517588 350.896105 
L 587.427644 349.899861 
L 588.382672 349.587713 
L 589.3377 349.402801 
L 591.247756 349.413415 
L 593.157813 349.818737 
L 595.067869 350.462465 
L 603.663121 353.757216 
L 605.573178 354.203158 
L 608.438262 354.609399 
L 610.348318 354.903825 
L 612.258374 355.433788 
L 617.033515 357.115607 
L 617.988543 357.292048 
L 618.943571 357.349511 
L 619.898599 357.256487 
L 620.853627 356.984438 
L 621.808655 356.527525 
L 623.718711 355.139041 
L 629.44888 350.103738 
L 631.358936 348.976794 
L 633.268992 348.293759 
L 634.22402 348.130401 
L 635.179048 348.080027 
L 638.044132 348.38517 
L 639.954188 348.495095 
L 641.864245 348.372208 
L 643.774301 348.03289 
L 648.549441 347.045171 
L 651.414525 346.837285 
L 660.964806 346.572971 
L 665.739947 346.50139 
L 675.290227 345.741067 
L 677.200284 345.382082 
L 679.11034 344.710156 
L 684.840508 341.924983 
L 685.795536 341.717576 
L 686.750564 341.624572 
L 688.660621 341.790692 
L 690.570677 342.063789 
L 692.480733 342.057769 
L 694.390789 341.660335 
L 699.165929 340.071922 
L 701.075986 339.790782 
L 702.986042 339.801979 
L 704.896098 340.083886 
L 707.761182 340.830868 
L 712.536323 342.142031 
L 714.446379 342.340507 
L 716.356435 342.293041 
L 720.176547 341.998607 
L 722.086603 342.169792 
L 723.996659 342.733335 
L 729.726828 345.00327 
L 731.636884 345.35748 
L 733.54694 345.478582 
L 745.007277 345.7043 
L 748.82739 346.033856 
L 751.692474 346.501065 
L 757.422642 347.697981 
L 760.287727 347.99206 
L 763.152811 348.041649 
L 766.017895 347.883689 
L 769.838007 347.422762 
L 772.703092 347.116876 
L 774.613148 347.124653 
L 776.523204 347.457121 
L 778.43326 348.194123 
L 780.343316 349.279109 
L 783.2084 351.318301 
L 787.028513 354.124188 
L 788.938569 355.253675 
L 790.848625 356.124244 
L 792.758681 356.731455 
L 794.668737 357.126217 
L 802.308962 358.308046 
L 805.174046 359.176395 
L 811.859243 361.472025 
L 814.724327 362.166441 
L 826.184664 364.568982 
L 828.09472 365.12017 
L 830.004776 365.841022 
L 833.824889 367.700935 
L 836.689973 368.989554 
L 838.600029 369.58934 
L 840.510085 369.96551 
L 844.330198 370.394489 
L 847.195282 370.752356 
L 850.060366 371.363852 
L 852.92545 372.308891 
L 858.655619 374.393225 
L 866.295843 376.685483 
L 871.070984 378.718366 
L 872.98104 379.234256 
L 876.801152 380.086941 
L 878.711208 380.852714 
L 879.666237 381.417469 
L 880.621265 382.142454 
L 881.576293 383.037646 
L 883.486349 385.376855 
L 886.351433 389.742528 
L 889.216517 394.066416 
L 891.126573 396.33644 
L 892.081602 397.17321 
L 893.03663 397.761693 
L 893.991658 398.063568 
L 894.946686 398.064545 
L 895.901714 397.750813 
L 896.856742 397.176529 
L 897.81177 396.336483 
L 898.766798 395.26944 
L 900.676854 392.544451 
L 902.58691 389.229316 
L 904.496967 385.486055 
L 907.362051 379.326807 
L 914.047247 364.603774 
L 924.552556 342.457507 
L 927.417641 335.703884 
L 930.282725 328.397349 
L 933.147809 320.523618 
L 937.922949 307.144186 
L 939.833006 302.500684 
L 940.788034 300.489293 
L 941.743062 298.737982 
L 942.69809 297.288165 
L 943.653118 296.179686 
L 944.608146 295.424398 
L 945.563174 295.03505 
L 946.518202 294.955455 
L 947.47323 295.191283 
L 948.428258 295.701568 
L 949.383286 296.468683 
L 950.338314 297.469485 
L 951.293343 298.679815 
L 953.203399 301.64095 
L 955.113455 305.169773 
L 957.978539 311.151029 
L 963.708708 323.726607 
L 965.618764 327.272203 
L 966.573792 328.666077 
L 967.52882 329.734587 
L 968.483848 330.455136 
L 969.438876 330.860849 
L 970.393904 330.925596 
L 971.348932 330.69301 
L 972.30396 330.182823 
L 973.258988 329.496117 
L 978.034129 325.40144 
L 978.989157 324.850694 
L 980.899213 324.137243 
L 982.809269 323.795994 
L 985.674353 323.639171 
L 987.58441 323.725486 
L 989.494466 324.038955 
L 991.404522 324.636637 
L 993.314578 325.63815 
L 994.269606 326.343762 
L 996.179662 328.180081 
L 1002.864859 335.310363 
L 1007.639999 340.056672 
L 1009.550055 342.25198 
L 1013.370168 346.917314 
L 1014.325196 347.877438 
L 1015.280224 348.668179 
L 1016.235252 349.243423 
L 1017.19028 349.550022 
L 1018.145308 349.543522 
L 1019.100336 349.232058 
L 1021.010392 347.989034 
L 1022.920449 346.609125 
L 1023.875477 346.120055 
L 1024.830505 345.895605 
L 1025.785533 346.015222 
L 1026.740561 346.479727 
L 1029.605645 348.775143 
L 1030.560673 349.110029 
L 1031.515701 349.060427 
L 1032.470729 348.627459 
L 1034.380785 347.077039 
L 1035.335814 346.530813 
L 1036.290842 346.514363 
L 1037.24587 347.142628 
L 1038.200898 348.331871 
L 1039.155926 350.039683 
L 1040.110954 352.150255 
L 1043.931066 361.642156 
L 1044.886094 363.260052 
L 1045.841122 364.476891 
L 1046.796151 365.258333 
L 1047.751179 365.627144 
L 1048.706207 365.588078 
L 1049.661235 365.230826 
L 1050.616263 364.615715 
L 1054.436375 361.508191 
L 1055.391403 360.994861 
L 1056.346431 360.764615 
L 1057.301459 360.873405 
L 1058.256487 361.334456 
L 1059.211516 362.051155 
L 1061.121572 364.053783 
L 1063.986656 367.387721 
L 1065.896712 369.266968 
L 1067.806768 370.726809 
L 1068.761796 371.261698 
L 1070.671853 371.946771 
L 1073.536937 372.720635 
L 1076.402021 373.621434 
L 1077.357049 373.700416 
L 1078.312077 373.573714 
L 1079.267105 373.201275 
L 1080.222133 372.603629 
L 1082.132189 370.86261 
L 1084.042246 369.025558 
L 1084.997274 368.300614 
L 1085.952302 367.758966 
L 1086.90733 367.450592 
L 1087.862358 367.348692 
L 1087.862358 367.348692 
" clip-path="url(#p735777f1b0)" style="fill: none; stroke: #f27f19; stroke-width: 1.5; stroke-linecap: square"/>
   </g>
   <g id="patch_13">
    <path d="M 48.982813 403.22 
L 48.982813 289.8 
" style="fill: none; stroke: #000000; stroke-width: 0.8; stroke-linejoin: miter; stroke-linecap: square"/>
   </g>
   <g id="patch_14">
    <path d="M 1137.332813 403.22 
L 1137.332813 289.8 
" style="fill: none; stroke: #000000; stroke-width: 0.8; stroke-linejoin: miter; stroke-linecap: square"/>
   </g>
   <g id="patch_15">
    <path d="M 48.982813 403.22 
L 1137.332813 403.22 
" style="fill: none; stroke: #000000; stroke-width: 0.8; stroke-linejoin: miter; stroke-linecap: square"/>
   </g>
   <g id="patch_16">
    <path d="M 48.982813 289.8 
L 1137.332813 289.8 
" style="fill: none; stroke: #000000; stroke-width: 0.8; stroke-linejoin: miter; stroke-linecap: square"/>
   </g>
  </g>
  <g id="axes_4">
   <g id="patch_17">
    <path d="M 48.982813 544.52 
L 1137.332813 544.52 
L 1137.332813 431.1 
L 48.982813 431.1 
z
" style="fill: #ffffff"/>
   </g>
   <g id="matplotlib.axis_7">
    <g id="xtick_19">
     <g id="line2d_33">
      <g>
       <use xlink:href="#m00eb125d72" x="98.453267" y="544.52" style="stroke: #000000; stroke-width: 0.8"/>
      </g>
     </g>
     <g id="text_33">
      <!-- 0 -->
      <g transform="translate(95.272017 559.118437) scale(0.1 -0.1)">
       <use xlink:href="#DejaVuSans-30"/>
      </g>
     </g>
    </g>
    <g id="xtick_20">
     <g id="line2d_34">
      <g>
       <use xlink:href="#m00eb125d72" x="289.458883" y="544.52" style="stroke: #000000; stroke-width: 0.8"/>
      </g>
     </g>
     <g id="text_34">
      <!-- 200 -->
      <g transform="translate(279.915133 559.118437) scale(0.1 -0.1)">
       <use xlink:href="#DejaVuSans-32"/>
       <use xlink:href="#DejaVuSans-30" transform="translate(63.623047 0)"/>
       <use xlink:href="#DejaVuSans-30" transform="translate(127.246094 0)"/>
      </g>
     </g>
    </g>
    <g id="xtick_21">
     <g id="line2d_35">
      <g>
       <use xlink:href="#m00eb125d72" x="480.464499" y="544.52" style="stroke: #000000; stroke-width: 0.8"/>
      </g>
     </g>
     <g id="text_35">
      <!-- 400 -->
      <g transform="translate(470.920749 559.118437) scale(0.1 -0.1)">
       <use xlink:href="#DejaVuSans-34"/>
       <use xlink:href="#DejaVuSans-30" transform="translate(63.623047 0)"/>
       <use xlink:href="#DejaVuSans-30" transform="translate(127.246094 0)"/>
      </g>
     </g>
    </g>
    <g id="xtick_22">
     <g id="line2d_36">
      <g>
       <use xlink:href="#m00eb125d72" x="671.470115" y="544.52" style="stroke: #000000; stroke-width: 0.8"/>
      </g>
     </g>
     <g id="text_36">
      <!-- 600 -->
      <g transform="translate(661.926365 559.118437) scale(0.1 -0.1)">
       <use xlink:href="#DejaVuSans-36"/>
       <use xlink:href="#DejaVuSans-30" transform="translate(63.623047 0)"/>
       <use xlink:href="#DejaVuSans-30" transform="translate(127.246094 0)"/>
      </g>
     </g>
    </g>
    <g id="xtick_23">
     <g id="line2d_37">
      <g>
       <use xlink:href="#m00eb125d72" x="862.475731" y="544.52" style="stroke: #000000; stroke-width: 0.8"/>
      </g>
     </g>
     <g id="text_37">
      <!-- 800 -->
      <g transform="translate(852.931981 559.118437) scale(0.1 -0.1)">
       <use xlink:href="#DejaVuSans-38"/>
       <use xlink:href="#DejaVuSans-30" transform="translate(63.623047 0)"/>
       <use xlink:href="#DejaVuSans-30" transform="translate(127.246094 0)"/>
      </g>
     </g>
    </g>
    <g id="xtick_24">
     <g id="line2d_38">
      <g>
       <use xlink:href="#m00eb125d72" x="1053.481347" y="544.52" style="stroke: #000000; stroke-width: 0.8"/>
      </g>
     </g>
     <g id="text_38">
      <!-- 1000 -->
      <g transform="translate(1040.756347 559.118437) scale(0.1 -0.1)">
       <use xlink:href="#DejaVuSans-31"/>
       <use xlink:href="#DejaVuSans-30" transform="translate(63.623047 0)"/>
       <use xlink:href="#DejaVuSans-30" transform="translate(127.246094 0)"/>
       <use xlink:href="#DejaVuSans-30" transform="translate(190.869141 0)"/>
      </g>
     </g>
    </g>
   </g>
   <g id="matplotlib.axis_8">
    <g id="ytick_12">
     <g id="line2d_39">
      <g>
       <use xlink:href="#m73026042ce" x="48.982813" y="531.544368" style="stroke: #000000; stroke-width: 0.8"/>
      </g>
     </g>
     <g id="text_39">
      <!-- 60 -->
      <g transform="translate(29.257813 535.343586) scale(0.1 -0.1)">
       <use xlink:href="#DejaVuSans-36"/>
       <use xlink:href="#DejaVuSans-30" transform="translate(63.623047 0)"/>
      </g>
     </g>
    </g>
    <g id="ytick_13">
     <g id="line2d_40">
      <g>
       <use xlink:href="#m73026042ce" x="48.982813" y="507.291952" style="stroke: #000000; stroke-width: 0.8"/>
      </g>
     </g>
     <g id="text_40">
      <!-- 80 -->
      <g transform="translate(29.257813 511.091171) scale(0.1 -0.1)">
       <use xlink:href="#DejaVuSans-38"/>
       <use xlink:href="#DejaVuSans-30" transform="translate(63.623047 0)"/>
      </g>
     </g>
    </g>
    <g id="ytick_14">
     <g id="line2d_41">
      <g>
       <use xlink:href="#m73026042ce" x="48.982813" y="483.039537" style="stroke: #000000; stroke-width: 0.8"/>
      </g>
     </g>
     <g id="text_41">
      <!-- 100 -->
      <g transform="translate(22.895313 486.838756) scale(0.1 -0.1)">
       <use xlink:href="#DejaVuSans-31"/>
       <use xlink:href="#DejaVuSans-30" transform="translate(63.623047 0)"/>
       <use xlink:href="#DejaVuSans-30" transform="translate(127.246094 0)"/>
      </g>
     </g>
    </g>
    <g id="ytick_15">
     <g id="line2d_42">
      <g>
       <use xlink:href="#m73026042ce" x="48.982813" y="458.787122" style="stroke: #000000; stroke-width: 0.8"/>
      </g>
     </g>
     <g id="text_42">
      <!-- 120 -->
      <g transform="translate(22.895313 462.586341) scale(0.1 -0.1)">
       <use xlink:href="#DejaVuSans-31"/>
       <use xlink:href="#DejaVuSans-32" transform="translate(63.623047 0)"/>
       <use xlink:href="#DejaVuSans-30" transform="translate(127.246094 0)"/>
      </g>
     </g>
    </g>
    <g id="ytick_16">
     <g id="line2d_43">
      <g>
       <use xlink:href="#m73026042ce" x="48.982813" y="434.534707" style="stroke: #000000; stroke-width: 0.8"/>
      </g>
     </g>
     <g id="text_43">
      <!-- 140 -->
      <g transform="translate(22.895313 438.333925) scale(0.1 -0.1)">
       <use xlink:href="#DejaVuSans-31"/>
       <use xlink:href="#DejaVuSans-34" transform="translate(63.623047 0)"/>
       <use xlink:href="#DejaVuSans-30" transform="translate(127.246094 0)"/>
      </g>
     </g>
    </g>
    <g id="text_44">
     <!-- co-imf2 -->
     <g transform="translate(16.815625 506.717031) rotate(-90) scale(0.1 -0.1)">
      <use xlink:href="#DejaVuSans-63"/>
      <use xlink:href="#DejaVuSans-6f" transform="translate(54.980469 0)"/>
      <use xlink:href="#DejaVuSans-2d" transform="translate(118.037109 0)"/>
      <use xlink:href="#DejaVuSans-69" transform="translate(154.121094 0)"/>
      <use xlink:href="#DejaVuSans-6d" transform="translate(181.904297 0)"/>
      <use xlink:href="#DejaVuSans-66" transform="translate(279.316406 0)"/>
      <use xlink:href="#DejaVuSans-32" transform="translate(314.521484 0)"/>
     </g>
    </g>
   </g>
   <g id="line2d_44">
    <path d="M 98.453267 462.390441 
L 113.733716 462.128954 
L 129.014166 462.095156 
L 143.339587 462.283378 
L 157.665008 462.700606 
L 171.035401 463.310639 
L 184.405794 464.145866 
L 197.776187 465.204646 
L 212.101609 466.574526 
L 226.42703 468.174227 
L 242.662507 470.230106 
L 261.763069 472.883114 
L 330.52509 482.654477 
L 348.670624 484.876582 
L 365.861129 486.760953 
L 382.096607 488.322811 
L 401.197168 489.934037 
L 426.982927 491.869714 
L 466.139078 494.797777 
L 480.464499 496.133965 
L 492.879864 497.527082 
L 504.340201 499.029506 
L 515.800538 500.746712 
L 527.260875 502.679383 
L 538.721212 504.826967 
L 550.181549 507.188912 
L 561.641886 509.764666 
L 574.057251 512.791817 
L 587.427644 516.286734 
L 611.303346 522.815151 
L 628.493851 527.403081 
L 639.954188 530.253087 
L 650.459497 532.639581 
L 660.009778 534.570584 
L 668.605031 536.076605 
L 676.245255 537.203922 
L 683.88548 538.108927 
L 691.525705 538.773018 
L 699.165929 539.188392 
L 706.806154 539.359327 
L 714.446379 539.291586 
L 722.086603 538.990847 
L 729.726828 538.462786 
L 737.367053 537.713081 
L 745.007277 536.747408 
L 752.647502 535.571445 
L 760.287727 534.190869 
L 768.882979 532.400212 
L 777.478232 530.365859 
L 786.073485 528.095894 
L 794.668737 525.598399 
L 803.26399 522.881458 
L 812.814271 519.615091 
L 822.364552 516.098869 
L 831.914833 512.343881 
L 841.465113 508.361215 
L 851.970422 503.730547 
L 862.475731 498.852555 
L 873.936068 493.277997 
L 889.216517 485.571398 
L 921.687472 469.102192 
L 933.147809 463.566957 
L 942.69809 459.17553 
L 951.293343 455.442864 
L 959.888595 451.959016 
L 967.52882 449.10292 
L 975.169045 446.502062 
L 981.854241 444.456854 
L 988.539438 442.639935 
L 995.224634 441.052075 
L 1001.909831 439.692422 
L 1008.595027 438.560124 
L 1015.280224 437.654331 
L 1021.96542 436.974189 
L 1028.650617 436.518849 
L 1035.335814 436.287457 
L 1042.02101 436.279163 
L 1048.706207 436.493115 
L 1055.391403 436.928462 
L 1062.0766 437.584351 
L 1068.761796 438.459931 
L 1075.446993 439.554351 
L 1082.132189 440.866758 
L 1087.862358 442.164492 
L 1087.862358 442.164492 
" clip-path="url(#p584ce5239f)" style="fill: none; stroke: #f27f19; stroke-width: 1.5; stroke-linecap: square"/>
   </g>
   <g id="patch_18">
    <path d="M 48.982813 544.52 
L 48.982813 431.1 
" style="fill: none; stroke: #000000; stroke-width: 0.8; stroke-linejoin: miter; stroke-linecap: square"/>
   </g>
   <g id="patch_19">
    <path d="M 1137.332813 544.52 
L 1137.332813 431.1 
" style="fill: none; stroke: #000000; stroke-width: 0.8; stroke-linejoin: miter; stroke-linecap: square"/>
   </g>
   <g id="patch_20">
    <path d="M 48.982813 544.52 
L 1137.332813 544.52 
" style="fill: none; stroke: #000000; stroke-width: 0.8; stroke-linejoin: miter; stroke-linecap: square"/>
   </g>
   <g id="patch_21">
    <path d="M 48.982813 431.1 
L 1137.332813 431.1 
" style="fill: none; stroke: #000000; stroke-width: 0.8; stroke-linejoin: miter; stroke-linecap: square"/>
   </g>
  </g>
 </g>
 <defs>
  <clipPath id="p7cefa7b9ba">
   <rect x="48.982813" y="7.2" width="1088.35" height="113.42"/>
  </clipPath>
  <clipPath id="p8181802b67">
   <rect x="48.982813" y="148.5" width="1088.35" height="113.42"/>
  </clipPath>
  <clipPath id="p735777f1b0">
   <rect x="48.982813" y="289.8" width="1088.35" height="113.42"/>
  </clipPath>
  <clipPath id="p584ce5239f">
   <rect x="48.982813" y="431.1" width="1088.35" height="113.42"/>
  </clipPath>
 </defs>
</svg>
