<?xml version="1.0" encoding="utf-8" standalone="no"?>
<!DOCTYPE svg PUBLIC "-//W3C//DTD SVG 1.1//EN"
  "http://www.w3.org/Graphics/SVG/1.1/DTD/svg11.dtd">
<svg xmlns:xlink="http://www.w3.org/1999/xlink" width="1144.567812pt" height="568.398125pt" viewBox="0 0 1144.567812 568.398125" xmlns="http://www.w3.org/2000/svg" version="1.1">
 <metadata>
  <rdf:RDF xmlns:dc="http://purl.org/dc/elements/1.1/" xmlns:cc="http://creativecommons.org/ns#" xmlns:rdf="http://www.w3.org/1999/02/22-rdf-syntax-ns#">
   <cc:Work>
    <dc:type rdf:resource="http://purl.org/dc/dcmitype/StillImage"/>
    <dc:date>2025-04-22T06:12:56.579922</dc:date>
    <dc:format>image/svg+xml</dc:format>
    <dc:creator>
     <cc:Agent>
      <dc:title>Matplotlib v3.10.1, https://matplotlib.org/</dc:title>
     </cc:Agent>
    </dc:creator>
   </cc:Work>
  </rdf:RDF>
 </metadata>
 <defs>
  <style type="text/css">*{stroke-linejoin: round; stroke-linecap: butt}</style>
 </defs>
 <g id="figure_1">
  <g id="patch_1">
   <path d="M 0 568.398125 
L 1144.567812 568.398125 
L 1144.567812 0 
L 0 0 
z
" style="fill: #ffffff"/>
  </g>
  <g id="axes_1">
   <g id="patch_2">
    <path d="M 61.707813 118.947653 
L 1137.367813 118.947653 
L 1137.367813 7.2 
L 61.707813 7.2 
z
" style="fill: #ffffff"/>
   </g>
   <g id="matplotlib.axis_1">
    <g id="xtick_1">
     <g id="line2d_1">
      <defs>
       <path id="mcd0a0fee11" d="M 0 0 
L 0 3.5 
" style="stroke: #000000; stroke-width: 0.8"/>
      </defs>
      <g>
       <use xlink:href="#mcd0a0fee11" x="110.601449" y="118.947653" style="stroke: #000000; stroke-width: 0.8"/>
      </g>
     </g>
     <g id="text_1">
      <!-- 0 -->
      <g transform="translate(107.420199 133.54609) scale(0.1 -0.1)">
       <defs>
        <path id="DejaVuSans-30" d="M 2034 4250 
Q 1547 4250 1301 3770 
Q 1056 3291 1056 2328 
Q 1056 1369 1301 889 
Q 1547 409 2034 409 
Q 2525 409 2770 889 
Q 3016 1369 3016 2328 
Q 3016 3291 2770 3770 
Q 2525 4250 2034 4250 
z
M 2034 4750 
Q 2819 4750 3233 4129 
Q 3647 3509 3647 2328 
Q 3647 1150 3233 529 
Q 2819 -91 2034 -91 
Q 1250 -91 836 529 
Q 422 1150 422 2328 
Q 422 3509 836 4129 
Q 1250 4750 2034 4750 
z
" transform="scale(0.015625)"/>
       </defs>
       <use xlink:href="#DejaVuSans-30"/>
      </g>
     </g>
    </g>
    <g id="xtick_2">
     <g id="line2d_2">
      <g>
       <use xlink:href="#mcd0a0fee11" x="304.239613" y="118.947653" style="stroke: #000000; stroke-width: 0.8"/>
      </g>
     </g>
     <g id="text_2">
      <!-- 200 -->
      <g transform="translate(294.695863 133.54609) scale(0.1 -0.1)">
       <defs>
        <path id="DejaVuSans-32" d="M 1228 531 
L 3431 531 
L 3431 0 
L 469 0 
L 469 531 
Q 828 903 1448 1529 
Q 2069 2156 2228 2338 
Q 2531 2678 2651 2914 
Q 2772 3150 2772 3378 
Q 2772 3750 2511 3984 
Q 2250 4219 1831 4219 
Q 1534 4219 1204 4116 
Q 875 4013 500 3803 
L 500 4441 
Q 881 4594 1212 4672 
Q 1544 4750 1819 4750 
Q 2544 4750 2975 4387 
Q 3406 4025 3406 3419 
Q 3406 3131 3298 2873 
Q 3191 2616 2906 2266 
Q 2828 2175 2409 1742 
Q 1991 1309 1228 531 
z
" transform="scale(0.015625)"/>
       </defs>
       <use xlink:href="#DejaVuSans-32"/>
       <use xlink:href="#DejaVuSans-30" transform="translate(63.623047 0)"/>
       <use xlink:href="#DejaVuSans-30" transform="translate(127.246094 0)"/>
      </g>
     </g>
    </g>
    <g id="xtick_3">
     <g id="line2d_3">
      <g>
       <use xlink:href="#mcd0a0fee11" x="497.877776" y="118.947653" style="stroke: #000000; stroke-width: 0.8"/>
      </g>
     </g>
     <g id="text_3">
      <!-- 400 -->
      <g transform="translate(488.334026 133.54609) scale(0.1 -0.1)">
       <defs>
        <path id="DejaVuSans-34" d="M 2419 4116 
L 825 1625 
L 2419 1625 
L 2419 4116 
z
M 2253 4666 
L 3047 4666 
L 3047 1625 
L 3713 1625 
L 3713 1100 
L 3047 1100 
L 3047 0 
L 2419 0 
L 2419 1100 
L 313 1100 
L 313 1709 
L 2253 4666 
z
" transform="scale(0.015625)"/>
       </defs>
       <use xlink:href="#DejaVuSans-34"/>
       <use xlink:href="#DejaVuSans-30" transform="translate(63.623047 0)"/>
       <use xlink:href="#DejaVuSans-30" transform="translate(127.246094 0)"/>
      </g>
     </g>
    </g>
    <g id="xtick_4">
     <g id="line2d_4">
      <g>
       <use xlink:href="#mcd0a0fee11" x="691.51594" y="118.947653" style="stroke: #000000; stroke-width: 0.8"/>
      </g>
     </g>
     <g id="text_4">
      <!-- 600 -->
      <g transform="translate(681.97219 133.54609) scale(0.1 -0.1)">
       <defs>
        <path id="DejaVuSans-36" d="M 2113 2584 
Q 1688 2584 1439 2293 
Q 1191 2003 1191 1497 
Q 1191 994 1439 701 
Q 1688 409 2113 409 
Q 2538 409 2786 701 
Q 3034 994 3034 1497 
Q 3034 2003 2786 2293 
Q 2538 2584 2113 2584 
z
M 3366 4563 
L 3366 3988 
Q 3128 4100 2886 4159 
Q 2644 4219 2406 4219 
Q 1781 4219 1451 3797 
Q 1122 3375 1075 2522 
Q 1259 2794 1537 2939 
Q 1816 3084 2150 3084 
Q 2853 3084 3261 2657 
Q 3669 2231 3669 1497 
Q 3669 778 3244 343 
Q 2819 -91 2113 -91 
Q 1303 -91 875 529 
Q 447 1150 447 2328 
Q 447 3434 972 4092 
Q 1497 4750 2381 4750 
Q 2619 4750 2861 4703 
Q 3103 4656 3366 4563 
z
" transform="scale(0.015625)"/>
       </defs>
       <use xlink:href="#DejaVuSans-36"/>
       <use xlink:href="#DejaVuSans-30" transform="translate(63.623047 0)"/>
       <use xlink:href="#DejaVuSans-30" transform="translate(127.246094 0)"/>
      </g>
     </g>
    </g>
    <g id="xtick_5">
     <g id="line2d_5">
      <g>
       <use xlink:href="#mcd0a0fee11" x="885.154104" y="118.947653" style="stroke: #000000; stroke-width: 0.8"/>
      </g>
     </g>
     <g id="text_5">
      <!-- 800 -->
      <g transform="translate(875.610354 133.54609) scale(0.1 -0.1)">
       <defs>
        <path id="DejaVuSans-38" d="M 2034 2216 
Q 1584 2216 1326 1975 
Q 1069 1734 1069 1313 
Q 1069 891 1326 650 
Q 1584 409 2034 409 
Q 2484 409 2743 651 
Q 3003 894 3003 1313 
Q 3003 1734 2745 1975 
Q 2488 2216 2034 2216 
z
M 1403 2484 
Q 997 2584 770 2862 
Q 544 3141 544 3541 
Q 544 4100 942 4425 
Q 1341 4750 2034 4750 
Q 2731 4750 3128 4425 
Q 3525 4100 3525 3541 
Q 3525 3141 3298 2862 
Q 3072 2584 2669 2484 
Q 3125 2378 3379 2068 
Q 3634 1759 3634 1313 
Q 3634 634 3220 271 
Q 2806 -91 2034 -91 
Q 1263 -91 848 271 
Q 434 634 434 1313 
Q 434 1759 690 2068 
Q 947 2378 1403 2484 
z
M 1172 3481 
Q 1172 3119 1398 2916 
Q 1625 2713 2034 2713 
Q 2441 2713 2670 2916 
Q 2900 3119 2900 3481 
Q 2900 3844 2670 4047 
Q 2441 4250 2034 4250 
Q 1625 4250 1398 4047 
Q 1172 3844 1172 3481 
z
" transform="scale(0.015625)"/>
       </defs>
       <use xlink:href="#DejaVuSans-38"/>
       <use xlink:href="#DejaVuSans-30" transform="translate(63.623047 0)"/>
       <use xlink:href="#DejaVuSans-30" transform="translate(127.246094 0)"/>
      </g>
     </g>
    </g>
    <g id="xtick_6">
     <g id="line2d_6">
      <g>
       <use xlink:href="#mcd0a0fee11" x="1078.792268" y="118.947653" style="stroke: #000000; stroke-width: 0.8"/>
      </g>
     </g>
     <g id="text_6">
      <!-- 1000 -->
      <g transform="translate(1066.067268 133.54609) scale(0.1 -0.1)">
       <defs>
        <path id="DejaVuSans-31" d="M 794 531 
L 1825 531 
L 1825 4091 
L 703 3866 
L 703 4441 
L 1819 4666 
L 2450 4666 
L 2450 531 
L 3481 531 
L 3481 0 
L 794 0 
L 794 531 
z
" transform="scale(0.015625)"/>
       </defs>
       <use xlink:href="#DejaVuSans-31"/>
       <use xlink:href="#DejaVuSans-30" transform="translate(63.623047 0)"/>
       <use xlink:href="#DejaVuSans-30" transform="translate(127.246094 0)"/>
       <use xlink:href="#DejaVuSans-30" transform="translate(190.869141 0)"/>
      </g>
     </g>
    </g>
   </g>
   <g id="matplotlib.axis_2">
    <g id="ytick_1">
     <g id="line2d_7">
      <defs>
       <path id="m67c515d846" d="M 0 0 
L -3.5 0 
" style="stroke: #000000; stroke-width: 0.8"/>
      </defs>
      <g>
       <use xlink:href="#m67c515d846" x="61.707813" y="113.87607" style="stroke: #000000; stroke-width: 0.8"/>
      </g>
     </g>
     <g id="text_7">
      <!-- 0 -->
      <g transform="translate(48.345313 117.675289) scale(0.1 -0.1)">
       <use xlink:href="#DejaVuSans-30"/>
      </g>
     </g>
    </g>
    <g id="ytick_2">
     <g id="line2d_8">
      <g>
       <use xlink:href="#m67c515d846" x="61.707813" y="70.06551" style="stroke: #000000; stroke-width: 0.8"/>
      </g>
     </g>
     <g id="text_8">
      <!-- 5000 -->
      <g transform="translate(29.257812 73.864729) scale(0.1 -0.1)">
       <defs>
        <path id="DejaVuSans-35" d="M 691 4666 
L 3169 4666 
L 3169 4134 
L 1269 4134 
L 1269 2991 
Q 1406 3038 1543 3061 
Q 1681 3084 1819 3084 
Q 2600 3084 3056 2656 
Q 3513 2228 3513 1497 
Q 3513 744 3044 326 
Q 2575 -91 1722 -91 
Q 1428 -91 1123 -41 
Q 819 9 494 109 
L 494 744 
Q 775 591 1075 516 
Q 1375 441 1709 441 
Q 2250 441 2565 725 
Q 2881 1009 2881 1497 
Q 2881 1984 2565 2268 
Q 2250 2553 1709 2553 
Q 1456 2553 1204 2497 
Q 953 2441 691 2322 
L 691 4666 
z
" transform="scale(0.015625)"/>
       </defs>
       <use xlink:href="#DejaVuSans-35"/>
       <use xlink:href="#DejaVuSans-30" transform="translate(63.623047 0)"/>
       <use xlink:href="#DejaVuSans-30" transform="translate(127.246094 0)"/>
       <use xlink:href="#DejaVuSans-30" transform="translate(190.869141 0)"/>
      </g>
     </g>
    </g>
    <g id="ytick_3">
     <g id="line2d_9">
      <g>
       <use xlink:href="#m67c515d846" x="61.707813" y="26.25495" style="stroke: #000000; stroke-width: 0.8"/>
      </g>
     </g>
     <g id="text_9">
      <!-- 10000 -->
      <g transform="translate(22.895313 30.054168) scale(0.1 -0.1)">
       <use xlink:href="#DejaVuSans-31"/>
       <use xlink:href="#DejaVuSans-30" transform="translate(63.623047 0)"/>
       <use xlink:href="#DejaVuSans-30" transform="translate(127.246094 0)"/>
       <use xlink:href="#DejaVuSans-30" transform="translate(190.869141 0)"/>
       <use xlink:href="#DejaVuSans-30" transform="translate(254.492188 0)"/>
      </g>
     </g>
    </g>
    <g id="text_10">
     <!-- Original Data -->
     <g transform="translate(16.815625 96.166795) rotate(-90) scale(0.1 -0.1)">
      <defs>
       <path id="DejaVuSans-4f" d="M 2522 4238 
Q 1834 4238 1429 3725 
Q 1025 3213 1025 2328 
Q 1025 1447 1429 934 
Q 1834 422 2522 422 
Q 3209 422 3611 934 
Q 4013 1447 4013 2328 
Q 4013 3213 3611 3725 
Q 3209 4238 2522 4238 
z
M 2522 4750 
Q 3503 4750 4090 4092 
Q 4678 3434 4678 2328 
Q 4678 1225 4090 567 
Q 3503 -91 2522 -91 
Q 1538 -91 948 565 
Q 359 1222 359 2328 
Q 359 3434 948 4092 
Q 1538 4750 2522 4750 
z
" transform="scale(0.015625)"/>
       <path id="DejaVuSans-72" d="M 2631 2963 
Q 2534 3019 2420 3045 
Q 2306 3072 2169 3072 
Q 1681 3072 1420 2755 
Q 1159 2438 1159 1844 
L 1159 0 
L 581 0 
L 581 3500 
L 1159 3500 
L 1159 2956 
Q 1341 3275 1631 3429 
Q 1922 3584 2338 3584 
Q 2397 3584 2469 3576 
Q 2541 3569 2628 3553 
L 2631 2963 
z
" transform="scale(0.015625)"/>
       <path id="DejaVuSans-69" d="M 603 3500 
L 1178 3500 
L 1178 0 
L 603 0 
L 603 3500 
z
M 603 4863 
L 1178 4863 
L 1178 4134 
L 603 4134 
L 603 4863 
z
" transform="scale(0.015625)"/>
       <path id="DejaVuSans-67" d="M 2906 1791 
Q 2906 2416 2648 2759 
Q 2391 3103 1925 3103 
Q 1463 3103 1205 2759 
Q 947 2416 947 1791 
Q 947 1169 1205 825 
Q 1463 481 1925 481 
Q 2391 481 2648 825 
Q 2906 1169 2906 1791 
z
M 3481 434 
Q 3481 -459 3084 -895 
Q 2688 -1331 1869 -1331 
Q 1566 -1331 1297 -1286 
Q 1028 -1241 775 -1147 
L 775 -588 
Q 1028 -725 1275 -790 
Q 1522 -856 1778 -856 
Q 2344 -856 2625 -561 
Q 2906 -266 2906 331 
L 2906 616 
Q 2728 306 2450 153 
Q 2172 0 1784 0 
Q 1141 0 747 490 
Q 353 981 353 1791 
Q 353 2603 747 3093 
Q 1141 3584 1784 3584 
Q 2172 3584 2450 3431 
Q 2728 3278 2906 2969 
L 2906 3500 
L 3481 3500 
L 3481 434 
z
" transform="scale(0.015625)"/>
       <path id="DejaVuSans-6e" d="M 3513 2113 
L 3513 0 
L 2938 0 
L 2938 2094 
Q 2938 2591 2744 2837 
Q 2550 3084 2163 3084 
Q 1697 3084 1428 2787 
Q 1159 2491 1159 1978 
L 1159 0 
L 581 0 
L 581 3500 
L 1159 3500 
L 1159 2956 
Q 1366 3272 1645 3428 
Q 1925 3584 2291 3584 
Q 2894 3584 3203 3211 
Q 3513 2838 3513 2113 
z
" transform="scale(0.015625)"/>
       <path id="DejaVuSans-61" d="M 2194 1759 
Q 1497 1759 1228 1600 
Q 959 1441 959 1056 
Q 959 750 1161 570 
Q 1363 391 1709 391 
Q 2188 391 2477 730 
Q 2766 1069 2766 1631 
L 2766 1759 
L 2194 1759 
z
M 3341 1997 
L 3341 0 
L 2766 0 
L 2766 531 
Q 2569 213 2275 61 
Q 1981 -91 1556 -91 
Q 1019 -91 701 211 
Q 384 513 384 1019 
Q 384 1609 779 1909 
Q 1175 2209 1959 2209 
L 2766 2209 
L 2766 2266 
Q 2766 2663 2505 2880 
Q 2244 3097 1772 3097 
Q 1472 3097 1187 3025 
Q 903 2953 641 2809 
L 641 3341 
Q 956 3463 1253 3523 
Q 1550 3584 1831 3584 
Q 2591 3584 2966 3190 
Q 3341 2797 3341 1997 
z
" transform="scale(0.015625)"/>
       <path id="DejaVuSans-6c" d="M 603 4863 
L 1178 4863 
L 1178 0 
L 603 0 
L 603 4863 
z
" transform="scale(0.015625)"/>
       <path id="DejaVuSans-20" transform="scale(0.015625)"/>
       <path id="DejaVuSans-44" d="M 1259 4147 
L 1259 519 
L 2022 519 
Q 2988 519 3436 956 
Q 3884 1394 3884 2338 
Q 3884 3275 3436 3711 
Q 2988 4147 2022 4147 
L 1259 4147 
z
M 628 4666 
L 1925 4666 
Q 3281 4666 3915 4102 
Q 4550 3538 4550 2338 
Q 4550 1131 3912 565 
Q 3275 0 1925 0 
L 628 0 
L 628 4666 
z
" transform="scale(0.015625)"/>
       <path id="DejaVuSans-74" d="M 1172 4494 
L 1172 3500 
L 2356 3500 
L 2356 3053 
L 1172 3053 
L 1172 1153 
Q 1172 725 1289 603 
Q 1406 481 1766 481 
L 2356 481 
L 2356 0 
L 1766 0 
Q 1100 0 847 248 
Q 594 497 594 1153 
L 594 3053 
L 172 3053 
L 172 3500 
L 594 3500 
L 594 4494 
L 1172 4494 
z
" transform="scale(0.015625)"/>
      </defs>
      <use xlink:href="#DejaVuSans-4f"/>
      <use xlink:href="#DejaVuSans-72" transform="translate(78.710938 0)"/>
      <use xlink:href="#DejaVuSans-69" transform="translate(119.824219 0)"/>
      <use xlink:href="#DejaVuSans-67" transform="translate(147.607422 0)"/>
      <use xlink:href="#DejaVuSans-69" transform="translate(211.083984 0)"/>
      <use xlink:href="#DejaVuSans-6e" transform="translate(238.867188 0)"/>
      <use xlink:href="#DejaVuSans-61" transform="translate(302.246094 0)"/>
      <use xlink:href="#DejaVuSans-6c" transform="translate(363.525391 0)"/>
      <use xlink:href="#DejaVuSans-20" transform="translate(391.308594 0)"/>
      <use xlink:href="#DejaVuSans-44" transform="translate(423.095703 0)"/>
      <use xlink:href="#DejaVuSans-61" transform="translate(500.097656 0)"/>
      <use xlink:href="#DejaVuSans-74" transform="translate(561.376953 0)"/>
      <use xlink:href="#DejaVuSans-61" transform="translate(600.585938 0)"/>
     </g>
    </g>
   </g>
   <g id="line2d_10">
    <path d="M 110.601449 96.76698 
L 128.997074 96.438868 
L 134.806219 96.569462 
L 139.647173 96.601334 
L 144.488128 96.502208 
L 189.024905 96.425587 
L 196.770432 96.381893 
L 373.949352 96.005755 
L 471.736624 95.602358 
L 475.609388 95.608451 
L 479.482151 95.693577 
L 480.450342 96.116379 
L 481.418533 96.927515 
L 482.386723 99.419192 
L 483.354914 97.031344 
L 484.323105 96.663688 
L 485.291296 96.546638 
L 486.259487 98.613444 
L 487.227677 98.700504 
L 488.195868 99.634459 
L 489.164059 99.737208 
L 490.13225 98.365808 
L 491.100441 96.46542 
L 492.068632 96.640204 
L 493.036822 96.407339 
L 494.005013 96.519219 
L 494.973204 96.902877 
L 495.941395 97.147153 
L 496.909586 96.812124 
L 497.877776 97.310238 
L 498.845967 98.304571 
L 499.814158 98.993293 
L 500.782349 99.439907 
L 501.75054 98.892178 
L 502.718731 97.142439 
L 503.686921 95.800303 
L 505.623303 95.932119 
L 506.591494 96.363161 
L 507.559685 97.784078 
L 508.527876 96.638565 
L 509.496066 96.631285 
L 510.464257 97.462799 
L 511.432448 97.324058 
L 512.400639 97.551299 
L 513.36883 96.010211 
L 514.33702 94.838381 
L 515.305211 94.627484 
L 516.273402 95.364707 
L 517.241593 92.91376 
L 518.209784 95.518627 
L 519.177975 12.279439 
L 520.146165 104.755214 
L 521.114356 109.099693 
L 522.082547 110.222512 
L 523.050738 110.827209 
L 524.018929 110.895418 
L 524.987119 111.268727 
L 525.95531 111.042519 
L 526.923501 111.054771 
L 527.891692 111.438981 
L 529.828074 111.810424 
L 530.796264 111.782426 
L 531.764455 111.59151 
L 532.732646 111.62788 
L 533.700837 111.377775 
L 536.605409 111.292959 
L 537.5736 111.206104 
L 538.541791 110.867172 
L 539.509982 111.286674 
L 540.478173 111.048837 
L 541.446363 111.029697 
L 542.414554 111.207769 
L 543.382745 111.091804 
L 544.350936 111.183967 
L 546.287317 110.894668 
L 547.255508 108.914283 
L 548.223699 108.790224 
L 550.160081 109.253328 
L 551.128272 110.03564 
L 552.096462 110.306026 
L 553.064653 110.185779 
L 554.032844 110.391281 
L 555.001035 110.259754 
L 564.682943 110.482303 
L 565.651134 110.349864 
L 566.619325 110.010944 
L 567.587515 110.242158 
L 570.492088 110.356664 
L 579.205805 110.368816 
L 581.142187 110.215376 
L 585.01495 110.189695 
L 586.951332 110.145064 
L 593.728668 110.279122 
L 600.506003 110.259933 
L 603.410576 110.290387 
L 606.315148 110.307279 
L 608.25153 110.609706 
L 609.219721 110.495772 
L 610.187912 110.799375 
L 611.156102 109.374986 
L 612.124293 110.261915 
L 615.028866 110.582552 
L 616.965247 110.411495 
L 620.838011 110.212704 
L 637.297254 109.539572 
L 638.265445 109.370286 
L 639.233636 109.456736 
L 640.201827 109.349128 
L 646.010972 109.783767 
L 666.342979 109.740637 
L 669.247551 109.758798 
L 674.088506 109.844363 
L 681.834032 109.807864 
L 683.770414 109.872778 
L 687.643177 109.679054 
L 689.579559 109.264246 
L 690.547749 108.948819 
L 691.51594 108.457052 
L 692.484131 108.211255 
L 694.420513 108.461743 
L 697.325085 109.208977 
L 698.293276 109.654264 
L 699.261467 109.615204 
L 700.229658 109.052065 
L 701.197849 108.963147 
L 703.13423 108.341158 
L 704.102421 107.503493 
L 705.070612 107.635777 
L 706.038803 107.381304 
L 707.006993 104.535213 
L 707.975184 108.119481 
L 709.911566 109.860861 
L 710.879757 110.300667 
L 712.816138 109.160839 
L 713.784329 109.80343 
L 714.75252 110.297606 
L 716.688902 110.507743 
L 718.625283 110.182918 
L 719.593474 109.542203 
L 720.561665 109.339385 
L 721.529856 108.891167 
L 722.498047 106.578745 
L 723.466237 107.770474 
L 725.402619 107.758156 
L 726.37081 107.428027 
L 727.339001 107.871009 
L 728.307191 108.063396 
L 729.275382 108.411377 
L 730.243573 108.540083 
L 732.179955 108.187104 
L 733.148146 107.809202 
L 734.116336 108.111535 
L 737.020909 108.162984 
L 737.9891 108.193541 
L 738.95729 108.039356 
L 739.925481 108.369519 
L 740.893672 109.078015 
L 741.861863 108.369763 
L 742.830054 107.946846 
L 743.798245 107.295194 
L 744.766435 107.02723 
L 745.734626 107.509357 
L 748.639199 105.634524 
L 749.607389 105.553721 
L 750.57558 104.884853 
L 751.543771 105.056083 
L 752.511962 107.161547 
L 753.480153 108.408673 
L 754.448344 108.430864 
L 755.416534 108.128415 
L 756.384725 108.481862 
L 757.352916 106.591711 
L 758.321107 90.630678 
L 759.289298 109.317348 
L 760.257488 110.166527 
L 761.225679 110.845392 
L 762.19387 111.084792 
L 763.162061 110.480083 
L 764.130252 110.774775 
L 767.034824 111.19015 
L 768.971206 111.231569 
L 769.939397 111.085925 
L 771.875778 112.254125 
L 772.843969 112.467811 
L 773.81216 112.334245 
L 776.716732 112.477951 
L 778.653114 112.548301 
L 782.525877 112.526996 
L 784.462259 112.782874 
L 786.398641 112.822615 
L 788.335022 112.804765 
L 792.207785 113.177234 
L 794.144167 113.195867 
L 795.112358 113.29557 
L 796.080549 113.237654 
L 797.04874 113.030476 
L 798.01693 113.033734 
L 798.985121 112.538386 
L 799.953312 112.474999 
L 800.921503 112.636332 
L 801.889694 112.439064 
L 803.826075 112.412785 
L 804.794266 112.50666 
L 805.762457 112.381502 
L 806.730648 112.511583 
L 810.603411 112.66255 
L 816.412556 112.921514 
L 821.25351 112.88988 
L 827.062655 113.03386 
L 828.030846 113.055466 
L 828.999037 112.914695 
L 829.967227 113.089087 
L 848.362853 113.462675 
L 869.663051 113.543506 
L 871.599433 113.581803 
L 875.472196 113.396406 
L 877.408578 112.7624 
L 881.281341 113.109899 
L 886.122295 113.114285 
L 888.058677 113.088043 
L 889.026867 112.727198 
L 889.995058 111.764844 
L 890.963249 111.200589 
L 891.93144 110.893205 
L 892.899631 110.839093 
L 894.836012 111.534191 
L 900.645157 113.082773 
L 904.517921 113.33021 
L 914.199829 113.645584 
L 924.849928 113.753883 
L 950.022889 113.825173 
L 1088.474176 113.776314 
L 1088.474176 113.776314 
" clip-path="url(#p86416694d3)" style="fill: none; stroke: #0070c0; stroke-width: 1.5; stroke-linecap: square"/>
   </g>
   <g id="patch_3">
    <path d="M 61.707813 118.947653 
L 61.707813 7.2 
" style="fill: none; stroke: #000000; stroke-width: 0.8; stroke-linejoin: miter; stroke-linecap: square"/>
   </g>
   <g id="patch_4">
    <path d="M 1137.367813 118.947653 
L 1137.367813 7.2 
" style="fill: none; stroke: #000000; stroke-width: 0.8; stroke-linejoin: miter; stroke-linecap: square"/>
   </g>
   <g id="patch_5">
    <path d="M 61.707813 118.947653 
L 1137.367812 118.947653 
" style="fill: none; stroke: #000000; stroke-width: 0.8; stroke-linejoin: miter; stroke-linecap: square"/>
   </g>
   <g id="patch_6">
    <path d="M 61.707813 7.2 
L 1137.367812 7.2 
" style="fill: none; stroke: #000000; stroke-width: 0.8; stroke-linejoin: miter; stroke-linecap: square"/>
   </g>
  </g>
  <g id="axes_2">
   <g id="patch_7">
    <path d="M 61.707813 260.805102 
L 1137.367813 260.805102 
L 1137.367813 149.057449 
L 61.707813 149.057449 
z
" style="fill: #ffffff"/>
   </g>
   <g id="matplotlib.axis_3">
    <g id="xtick_7">
     <g id="line2d_11">
      <g>
       <use xlink:href="#mcd0a0fee11" x="110.601449" y="260.805102" style="stroke: #000000; stroke-width: 0.8"/>
      </g>
     </g>
     <g id="text_11">
      <!-- 0 -->
      <g transform="translate(107.420199 275.403539) scale(0.1 -0.1)">
       <use xlink:href="#DejaVuSans-30"/>
      </g>
     </g>
    </g>
    <g id="xtick_8">
     <g id="line2d_12">
      <g>
       <use xlink:href="#mcd0a0fee11" x="304.239613" y="260.805102" style="stroke: #000000; stroke-width: 0.8"/>
      </g>
     </g>
     <g id="text_12">
      <!-- 200 -->
      <g transform="translate(294.695863 275.403539) scale(0.1 -0.1)">
       <use xlink:href="#DejaVuSans-32"/>
       <use xlink:href="#DejaVuSans-30" transform="translate(63.623047 0)"/>
       <use xlink:href="#DejaVuSans-30" transform="translate(127.246094 0)"/>
      </g>
     </g>
    </g>
    <g id="xtick_9">
     <g id="line2d_13">
      <g>
       <use xlink:href="#mcd0a0fee11" x="497.877776" y="260.805102" style="stroke: #000000; stroke-width: 0.8"/>
      </g>
     </g>
     <g id="text_13">
      <!-- 400 -->
      <g transform="translate(488.334026 275.403539) scale(0.1 -0.1)">
       <use xlink:href="#DejaVuSans-34"/>
       <use xlink:href="#DejaVuSans-30" transform="translate(63.623047 0)"/>
       <use xlink:href="#DejaVuSans-30" transform="translate(127.246094 0)"/>
      </g>
     </g>
    </g>
    <g id="xtick_10">
     <g id="line2d_14">
      <g>
       <use xlink:href="#mcd0a0fee11" x="691.51594" y="260.805102" style="stroke: #000000; stroke-width: 0.8"/>
      </g>
     </g>
     <g id="text_14">
      <!-- 600 -->
      <g transform="translate(681.97219 275.403539) scale(0.1 -0.1)">
       <use xlink:href="#DejaVuSans-36"/>
       <use xlink:href="#DejaVuSans-30" transform="translate(63.623047 0)"/>
       <use xlink:href="#DejaVuSans-30" transform="translate(127.246094 0)"/>
      </g>
     </g>
    </g>
    <g id="xtick_11">
     <g id="line2d_15">
      <g>
       <use xlink:href="#mcd0a0fee11" x="885.154104" y="260.805102" style="stroke: #000000; stroke-width: 0.8"/>
      </g>
     </g>
     <g id="text_15">
      <!-- 800 -->
      <g transform="translate(875.610354 275.403539) scale(0.1 -0.1)">
       <use xlink:href="#DejaVuSans-38"/>
       <use xlink:href="#DejaVuSans-30" transform="translate(63.623047 0)"/>
       <use xlink:href="#DejaVuSans-30" transform="translate(127.246094 0)"/>
      </g>
     </g>
    </g>
    <g id="xtick_12">
     <g id="line2d_16">
      <g>
       <use xlink:href="#mcd0a0fee11" x="1078.792268" y="260.805102" style="stroke: #000000; stroke-width: 0.8"/>
      </g>
     </g>
     <g id="text_16">
      <!-- 1000 -->
      <g transform="translate(1066.067268 275.403539) scale(0.1 -0.1)">
       <use xlink:href="#DejaVuSans-31"/>
       <use xlink:href="#DejaVuSans-30" transform="translate(63.623047 0)"/>
       <use xlink:href="#DejaVuSans-30" transform="translate(127.246094 0)"/>
       <use xlink:href="#DejaVuSans-30" transform="translate(190.869141 0)"/>
      </g>
     </g>
    </g>
   </g>
   <g id="matplotlib.axis_4">
    <g id="ytick_4">
     <g id="line2d_17">
      <g>
       <use xlink:href="#m67c515d846" x="61.707813" y="246.736227" style="stroke: #000000; stroke-width: 0.8"/>
      </g>
     </g>
     <g id="text_17">
      <!-- 0 -->
      <g transform="translate(48.345313 250.535446) scale(0.1 -0.1)">
       <use xlink:href="#DejaVuSans-30"/>
      </g>
     </g>
    </g>
    <g id="ytick_5">
     <g id="line2d_18">
      <g>
       <use xlink:href="#m67c515d846" x="61.707813" y="222.817858" style="stroke: #000000; stroke-width: 0.8"/>
      </g>
     </g>
     <g id="text_18">
      <!-- 2500 -->
      <g transform="translate(29.257812 226.617077) scale(0.1 -0.1)">
       <use xlink:href="#DejaVuSans-32"/>
       <use xlink:href="#DejaVuSans-35" transform="translate(63.623047 0)"/>
       <use xlink:href="#DejaVuSans-30" transform="translate(127.246094 0)"/>
       <use xlink:href="#DejaVuSans-30" transform="translate(190.869141 0)"/>
      </g>
     </g>
    </g>
    <g id="ytick_6">
     <g id="line2d_19">
      <g>
       <use xlink:href="#m67c515d846" x="61.707813" y="198.89949" style="stroke: #000000; stroke-width: 0.8"/>
      </g>
     </g>
     <g id="text_19">
      <!-- 5000 -->
      <g transform="translate(29.257812 202.698709) scale(0.1 -0.1)">
       <use xlink:href="#DejaVuSans-35"/>
       <use xlink:href="#DejaVuSans-30" transform="translate(63.623047 0)"/>
       <use xlink:href="#DejaVuSans-30" transform="translate(127.246094 0)"/>
       <use xlink:href="#DejaVuSans-30" transform="translate(190.869141 0)"/>
      </g>
     </g>
    </g>
    <g id="ytick_7">
     <g id="line2d_20">
      <g>
       <use xlink:href="#m67c515d846" x="61.707813" y="174.981122" style="stroke: #000000; stroke-width: 0.8"/>
      </g>
     </g>
     <g id="text_20">
      <!-- 7500 -->
      <g transform="translate(29.257812 178.780341) scale(0.1 -0.1)">
       <defs>
        <path id="DejaVuSans-37" d="M 525 4666 
L 3525 4666 
L 3525 4397 
L 1831 0 
L 1172 0 
L 2766 4134 
L 525 4134 
L 525 4666 
z
" transform="scale(0.015625)"/>
       </defs>
       <use xlink:href="#DejaVuSans-37"/>
       <use xlink:href="#DejaVuSans-35" transform="translate(63.623047 0)"/>
       <use xlink:href="#DejaVuSans-30" transform="translate(127.246094 0)"/>
       <use xlink:href="#DejaVuSans-30" transform="translate(190.869141 0)"/>
      </g>
     </g>
    </g>
    <g id="ytick_8">
     <g id="line2d_21">
      <g>
       <use xlink:href="#m67c515d846" x="61.707813" y="151.062754" style="stroke: #000000; stroke-width: 0.8"/>
      </g>
     </g>
     <g id="text_21">
      <!-- 10000 -->
      <g transform="translate(22.895313 154.861972) scale(0.1 -0.1)">
       <use xlink:href="#DejaVuSans-31"/>
       <use xlink:href="#DejaVuSans-30" transform="translate(63.623047 0)"/>
       <use xlink:href="#DejaVuSans-30" transform="translate(127.246094 0)"/>
       <use xlink:href="#DejaVuSans-30" transform="translate(190.869141 0)"/>
       <use xlink:href="#DejaVuSans-30" transform="translate(254.492188 0)"/>
      </g>
     </g>
    </g>
    <g id="text_22">
     <!-- co-imf0 -->
     <g transform="translate(16.815625 223.838307) rotate(-90) scale(0.1 -0.1)">
      <defs>
       <path id="DejaVuSans-63" d="M 3122 3366 
L 3122 2828 
Q 2878 2963 2633 3030 
Q 2388 3097 2138 3097 
Q 1578 3097 1268 2742 
Q 959 2388 959 1747 
Q 959 1106 1268 751 
Q 1578 397 2138 397 
Q 2388 397 2633 464 
Q 2878 531 3122 666 
L 3122 134 
Q 2881 22 2623 -34 
Q 2366 -91 2075 -91 
Q 1284 -91 818 406 
Q 353 903 353 1747 
Q 353 2603 823 3093 
Q 1294 3584 2113 3584 
Q 2378 3584 2631 3529 
Q 2884 3475 3122 3366 
z
" transform="scale(0.015625)"/>
       <path id="DejaVuSans-6f" d="M 1959 3097 
Q 1497 3097 1228 2736 
Q 959 2375 959 1747 
Q 959 1119 1226 758 
Q 1494 397 1959 397 
Q 2419 397 2687 759 
Q 2956 1122 2956 1747 
Q 2956 2369 2687 2733 
Q 2419 3097 1959 3097 
z
M 1959 3584 
Q 2709 3584 3137 3096 
Q 3566 2609 3566 1747 
Q 3566 888 3137 398 
Q 2709 -91 1959 -91 
Q 1206 -91 779 398 
Q 353 888 353 1747 
Q 353 2609 779 3096 
Q 1206 3584 1959 3584 
z
" transform="scale(0.015625)"/>
       <path id="DejaVuSans-2d" d="M 313 2009 
L 1997 2009 
L 1997 1497 
L 313 1497 
L 313 2009 
z
" transform="scale(0.015625)"/>
       <path id="DejaVuSans-6d" d="M 3328 2828 
Q 3544 3216 3844 3400 
Q 4144 3584 4550 3584 
Q 5097 3584 5394 3201 
Q 5691 2819 5691 2113 
L 5691 0 
L 5113 0 
L 5113 2094 
Q 5113 2597 4934 2840 
Q 4756 3084 4391 3084 
Q 3944 3084 3684 2787 
Q 3425 2491 3425 1978 
L 3425 0 
L 2847 0 
L 2847 2094 
Q 2847 2600 2669 2842 
Q 2491 3084 2119 3084 
Q 1678 3084 1418 2786 
Q 1159 2488 1159 1978 
L 1159 0 
L 581 0 
L 581 3500 
L 1159 3500 
L 1159 2956 
Q 1356 3278 1631 3431 
Q 1906 3584 2284 3584 
Q 2666 3584 2933 3390 
Q 3200 3197 3328 2828 
z
" transform="scale(0.015625)"/>
       <path id="DejaVuSans-66" d="M 2375 4863 
L 2375 4384 
L 1825 4384 
Q 1516 4384 1395 4259 
Q 1275 4134 1275 3809 
L 1275 3500 
L 2222 3500 
L 2222 3053 
L 1275 3053 
L 1275 0 
L 697 0 
L 697 3053 
L 147 3053 
L 147 3500 
L 697 3500 
L 697 3744 
Q 697 4328 969 4595 
Q 1241 4863 1831 4863 
L 2375 4863 
z
" transform="scale(0.015625)"/>
      </defs>
      <use xlink:href="#DejaVuSans-63"/>
      <use xlink:href="#DejaVuSans-6f" transform="translate(54.980469 0)"/>
      <use xlink:href="#DejaVuSans-2d" transform="translate(118.037109 0)"/>
      <use xlink:href="#DejaVuSans-69" transform="translate(154.121094 0)"/>
      <use xlink:href="#DejaVuSans-6d" transform="translate(181.904297 0)"/>
      <use xlink:href="#DejaVuSans-66" transform="translate(279.316406 0)"/>
      <use xlink:href="#DejaVuSans-30" transform="translate(314.521484 0)"/>
     </g>
    </g>
   </g>
   <g id="line2d_22">
    <path d="M 110.601449 246.785739 
L 135.77441 246.753617 
L 139.647173 246.758145 
L 143.519937 246.71335 
L 149.329082 246.744333 
L 164.820135 246.724946 
L 174.502043 246.737654 
L 240.339019 246.738206 
L 247.116354 246.721262 
L 306.175994 246.736227 
L 449.468236 246.838104 
L 454.30919 246.847058 
L 463.991098 246.860722 
L 469.800243 247.293647 
L 472.704815 247.763532 
L 475.609388 248.220072 
L 477.545769 248.191589 
L 479.482151 248.019103 
L 480.450342 248.281807 
L 481.418533 248.962174 
L 482.386723 251.511955 
L 483.354914 248.795913 
L 484.323105 248.347459 
L 485.291296 248.197119 
L 486.259487 250.380908 
L 487.227677 250.284537 
L 488.195868 250.923433 
L 489.164059 250.426789 
L 490.13225 248.146396 
L 491.100441 245.178175 
L 492.068632 244.439589 
L 493.036822 243.283307 
L 494.005013 242.602997 
L 495.941395 242.220203 
L 496.909586 241.627041 
L 497.877776 242.130823 
L 499.814158 244.413988 
L 500.782349 245.360335 
L 501.75054 245.362107 
L 502.718731 244.180468 
L 503.686921 243.558718 
L 505.623303 245.65799 
L 506.591494 247.167632 
L 507.559685 249.744873 
L 508.527876 249.471582 
L 509.496066 250.350358 
L 510.464257 252.016412 
L 511.432448 252.455251 
L 512.400639 253.086831 
L 514.33702 250.115362 
L 515.305211 249.412931 
L 516.273402 249.385736 
L 517.241593 245.505589 
L 518.209784 246.817845 
L 519.177975 154.136888 
L 520.146165 253.115165 
L 521.114356 255.725663 
L 522.082547 254.741203 
L 523.050738 253.175439 
L 524.018929 251.070189 
L 524.987119 249.407297 
L 525.95531 247.260846 
L 526.923501 245.607875 
L 528.859883 243.795996 
L 530.796264 242.901096 
L 531.764455 242.567556 
L 533.700837 242.781998 
L 534.669028 243.296312 
L 538.541791 246.053326 
L 539.509982 247.5063 
L 540.478173 248.248605 
L 541.446363 249.207106 
L 542.414554 250.333522 
L 543.382745 251.066475 
L 544.350936 251.948144 
L 545.319127 252.504908 
L 546.287317 252.911881 
L 547.255508 251.232417 
L 548.223699 251.463829 
L 549.19189 251.967665 
L 550.160081 252.319131 
L 551.128272 253.138794 
L 552.096462 253.247437 
L 553.064653 252.769768 
L 554.032844 252.479357 
L 556.937416 249.902423 
L 558.873798 247.757435 
L 561.778371 244.29061 
L 563.714752 242.464216 
L 566.619325 240.234079 
L 568.555706 240.454548 
L 570.492088 241.072484 
L 572.42847 242.137606 
L 575.333042 244.188164 
L 578.237614 246.294194 
L 579.205805 246.861763 
L 582.110378 247.993559 
L 584.046759 248.459114 
L 585.983141 248.567099 
L 587.919523 248.479825 
L 590.824095 248.048959 
L 594.696858 247.283944 
L 600.506003 246.588345 
L 602.442385 246.474379 
L 606.315148 246.558343 
L 608.25153 246.986379 
L 609.219721 246.91159 
L 610.187912 247.278461 
L 611.156102 245.736076 
L 612.124293 246.697556 
L 615.028866 246.949154 
L 619.86982 246.71326 
L 625.678965 246.744023 
L 629.551728 246.735885 
L 631.48811 246.63556 
L 635.360873 246.856756 
L 637.297254 246.748464 
L 638.265445 246.612894 
L 639.233636 246.732626 
L 640.201827 246.611525 
L 645.042781 246.827045 
L 649.883735 246.677075 
L 659.565643 246.714003 
L 673.120315 246.686206 
L 676.993078 246.615117 
L 680.865841 246.882138 
L 683.770414 247.207524 
L 687.643177 247.048782 
L 689.579559 246.580934 
L 690.547749 246.242634 
L 691.51594 245.731156 
L 692.484131 245.514827 
L 694.420513 245.983196 
L 696.356894 246.717412 
L 698.293276 247.917769 
L 699.261467 248.054007 
L 700.229658 247.61592 
L 701.197849 247.689754 
L 703.13423 247.303243 
L 704.102421 246.487846 
L 705.070612 246.685048 
L 706.038803 246.40381 
L 707.006993 243.226744 
L 707.975184 246.99708 
L 709.911566 248.458326 
L 710.879757 248.680137 
L 712.816138 246.932098 
L 714.75252 247.815956 
L 715.720711 247.82069 
L 716.688902 247.977257 
L 717.657092 247.831643 
L 718.625283 247.847954 
L 719.593474 247.335198 
L 720.561665 247.326992 
L 721.529856 247.063455 
L 722.498047 244.761872 
L 723.466237 246.268596 
L 725.402619 246.566528 
L 726.37081 246.3064 
L 727.339001 246.846594 
L 728.307191 247.071603 
L 729.275382 247.418138 
L 730.243573 247.481058 
L 732.179955 246.845366 
L 733.148146 246.294944 
L 734.116336 246.503727 
L 737.020909 246.450104 
L 737.9891 246.547877 
L 738.95729 246.479275 
L 739.925481 246.954497 
L 740.893672 247.847762 
L 741.861863 247.187505 
L 742.830054 246.836246 
L 743.798245 246.250205 
L 744.766435 246.104037 
L 745.734626 246.811014 
L 746.702817 246.331379 
L 747.671008 246.004533 
L 748.639199 245.505814 
L 749.607389 245.673759 
L 750.57558 245.176108 
L 751.543771 245.554623 
L 752.511962 247.994856 
L 753.480153 249.438629 
L 754.448344 249.473933 
L 755.416534 249.068585 
L 756.384725 249.282577 
L 757.352916 246.934909 
L 758.321107 229.100934 
L 759.289298 248.974839 
L 760.257488 249.265348 
L 761.225679 249.296394 
L 762.19387 248.795608 
L 763.162061 247.352633 
L 765.098443 246.322247 
L 766.066633 245.745875 
L 769.939397 244.037026 
L 770.907587 244.433438 
L 771.875778 245.00892 
L 772.843969 245.205636 
L 773.81216 245.086374 
L 774.780351 245.187658 
L 780.589496 246.440985 
L 781.557686 246.583754 
L 782.525877 246.857345 
L 783.494068 247.250369 
L 785.43045 247.736782 
L 792.207785 248.81139 
L 796.080549 248.611934 
L 797.04874 248.23475 
L 798.01693 248.065426 
L 798.985121 247.332555 
L 799.953312 247.059672 
L 800.921503 247.025743 
L 801.889694 246.600267 
L 803.826075 246.173631 
L 804.794266 246.098694 
L 805.762457 245.808181 
L 810.603411 245.891366 
L 813.507984 246.416222 
L 815.444365 246.779272 
L 819.317128 247.009541 
L 825.126273 246.906832 
L 828.030846 246.795006 
L 828.999037 246.579766 
L 829.967227 246.71023 
L 834.808182 246.681338 
L 859.012952 246.736218 
L 869.663051 246.827685 
L 871.599433 246.943573 
L 875.472196 246.852518 
L 877.408578 246.208866 
L 883.217722 246.952851 
L 888.058677 247.518419 
L 889.026867 247.272405 
L 889.995058 246.359115 
L 890.963249 245.85932 
L 891.93144 245.610994 
L 892.899631 245.602751 
L 893.867822 246.031817 
L 895.804203 246.560439 
L 897.740585 246.949986 
L 899.676966 247.276213 
L 901.613348 247.271784 
L 913.231638 246.65993 
L 920.008974 246.648401 
L 924.849928 246.735476 
L 953.895652 246.73631 
L 1088.474176 246.754252 
L 1088.474176 246.754252 
" clip-path="url(#p81c669151f)" style="fill: none; stroke: #f27f19; stroke-width: 1.5; stroke-linecap: square"/>
   </g>
   <g id="patch_8">
    <path d="M 61.707813 260.805102 
L 61.707813 149.057449 
" style="fill: none; stroke: #000000; stroke-width: 0.8; stroke-linejoin: miter; stroke-linecap: square"/>
   </g>
   <g id="patch_9">
    <path d="M 1137.367813 260.805102 
L 1137.367813 149.057449 
" style="fill: none; stroke: #000000; stroke-width: 0.8; stroke-linejoin: miter; stroke-linecap: square"/>
   </g>
   <g id="patch_10">
    <path d="M 61.707813 260.805102 
L 1137.367812 260.805102 
" style="fill: none; stroke: #000000; stroke-width: 0.8; stroke-linejoin: miter; stroke-linecap: square"/>
   </g>
   <g id="patch_11">
    <path d="M 61.707813 149.057449 
L 1137.367812 149.057449 
" style="fill: none; stroke: #000000; stroke-width: 0.8; stroke-linejoin: miter; stroke-linecap: square"/>
   </g>
  </g>
  <g id="axes_3">
   <g id="patch_12">
    <path d="M 61.707813 402.662551 
L 1137.367813 402.662551 
L 1137.367813 290.914898 
L 61.707813 290.914898 
z
" style="fill: #ffffff"/>
   </g>
   <g id="matplotlib.axis_5">
    <g id="xtick_13">
     <g id="line2d_23">
      <g>
       <use xlink:href="#mcd0a0fee11" x="110.601449" y="402.662551" style="stroke: #000000; stroke-width: 0.8"/>
      </g>
     </g>
     <g id="text_23">
      <!-- 0 -->
      <g transform="translate(107.420199 417.260988) scale(0.1 -0.1)">
       <use xlink:href="#DejaVuSans-30"/>
      </g>
     </g>
    </g>
    <g id="xtick_14">
     <g id="line2d_24">
      <g>
       <use xlink:href="#mcd0a0fee11" x="304.239613" y="402.662551" style="stroke: #000000; stroke-width: 0.8"/>
      </g>
     </g>
     <g id="text_24">
      <!-- 200 -->
      <g transform="translate(294.695863 417.260988) scale(0.1 -0.1)">
       <use xlink:href="#DejaVuSans-32"/>
       <use xlink:href="#DejaVuSans-30" transform="translate(63.623047 0)"/>
       <use xlink:href="#DejaVuSans-30" transform="translate(127.246094 0)"/>
      </g>
     </g>
    </g>
    <g id="xtick_15">
     <g id="line2d_25">
      <g>
       <use xlink:href="#mcd0a0fee11" x="497.877776" y="402.662551" style="stroke: #000000; stroke-width: 0.8"/>
      </g>
     </g>
     <g id="text_25">
      <!-- 400 -->
      <g transform="translate(488.334026 417.260988) scale(0.1 -0.1)">
       <use xlink:href="#DejaVuSans-34"/>
       <use xlink:href="#DejaVuSans-30" transform="translate(63.623047 0)"/>
       <use xlink:href="#DejaVuSans-30" transform="translate(127.246094 0)"/>
      </g>
     </g>
    </g>
    <g id="xtick_16">
     <g id="line2d_26">
      <g>
       <use xlink:href="#mcd0a0fee11" x="691.51594" y="402.662551" style="stroke: #000000; stroke-width: 0.8"/>
      </g>
     </g>
     <g id="text_26">
      <!-- 600 -->
      <g transform="translate(681.97219 417.260988) scale(0.1 -0.1)">
       <use xlink:href="#DejaVuSans-36"/>
       <use xlink:href="#DejaVuSans-30" transform="translate(63.623047 0)"/>
       <use xlink:href="#DejaVuSans-30" transform="translate(127.246094 0)"/>
      </g>
     </g>
    </g>
    <g id="xtick_17">
     <g id="line2d_27">
      <g>
       <use xlink:href="#mcd0a0fee11" x="885.154104" y="402.662551" style="stroke: #000000; stroke-width: 0.8"/>
      </g>
     </g>
     <g id="text_27">
      <!-- 800 -->
      <g transform="translate(875.610354 417.260988) scale(0.1 -0.1)">
       <use xlink:href="#DejaVuSans-38"/>
       <use xlink:href="#DejaVuSans-30" transform="translate(63.623047 0)"/>
       <use xlink:href="#DejaVuSans-30" transform="translate(127.246094 0)"/>
      </g>
     </g>
    </g>
    <g id="xtick_18">
     <g id="line2d_28">
      <g>
       <use xlink:href="#mcd0a0fee11" x="1078.792268" y="402.662551" style="stroke: #000000; stroke-width: 0.8"/>
      </g>
     </g>
     <g id="text_28">
      <!-- 1000 -->
      <g transform="translate(1066.067268 417.260988) scale(0.1 -0.1)">
       <use xlink:href="#DejaVuSans-31"/>
       <use xlink:href="#DejaVuSans-30" transform="translate(63.623047 0)"/>
       <use xlink:href="#DejaVuSans-30" transform="translate(127.246094 0)"/>
       <use xlink:href="#DejaVuSans-30" transform="translate(190.869141 0)"/>
      </g>
     </g>
    </g>
   </g>
   <g id="matplotlib.axis_6">
    <g id="ytick_9">
     <g id="line2d_29">
      <g>
       <use xlink:href="#m67c515d846" x="61.707813" y="389.499101" style="stroke: #000000; stroke-width: 0.8"/>
      </g>
     </g>
     <g id="text_29">
      <!-- −1000 -->
      <g transform="translate(20.878125 393.29832) scale(0.1 -0.1)">
       <defs>
        <path id="DejaVuSans-2212" d="M 678 2272 
L 4684 2272 
L 4684 1741 
L 678 1741 
L 678 2272 
z
" transform="scale(0.015625)"/>
       </defs>
       <use xlink:href="#DejaVuSans-2212"/>
       <use xlink:href="#DejaVuSans-31" transform="translate(83.789062 0)"/>
       <use xlink:href="#DejaVuSans-30" transform="translate(147.412109 0)"/>
       <use xlink:href="#DejaVuSans-30" transform="translate(211.035156 0)"/>
       <use xlink:href="#DejaVuSans-30" transform="translate(274.658203 0)"/>
      </g>
     </g>
    </g>
    <g id="ytick_10">
     <g id="line2d_30">
      <g>
       <use xlink:href="#m67c515d846" x="61.707813" y="347.921728" style="stroke: #000000; stroke-width: 0.8"/>
      </g>
     </g>
     <g id="text_30">
      <!-- 0 -->
      <g transform="translate(48.345313 351.720947) scale(0.1 -0.1)">
       <use xlink:href="#DejaVuSans-30"/>
      </g>
     </g>
    </g>
    <g id="ytick_11">
     <g id="line2d_31">
      <g>
       <use xlink:href="#m67c515d846" x="61.707813" y="306.344355" style="stroke: #000000; stroke-width: 0.8"/>
      </g>
     </g>
     <g id="text_31">
      <!-- 1000 -->
      <g transform="translate(29.257812 310.143574) scale(0.1 -0.1)">
       <use xlink:href="#DejaVuSans-31"/>
       <use xlink:href="#DejaVuSans-30" transform="translate(63.623047 0)"/>
       <use xlink:href="#DejaVuSans-30" transform="translate(127.246094 0)"/>
       <use xlink:href="#DejaVuSans-30" transform="translate(190.869141 0)"/>
      </g>
     </g>
    </g>
    <g id="text_32">
     <!-- co-imf1 -->
     <g transform="translate(14.798438 365.695756) rotate(-90) scale(0.1 -0.1)">
      <use xlink:href="#DejaVuSans-63"/>
      <use xlink:href="#DejaVuSans-6f" transform="translate(54.980469 0)"/>
      <use xlink:href="#DejaVuSans-2d" transform="translate(118.037109 0)"/>
      <use xlink:href="#DejaVuSans-69" transform="translate(154.121094 0)"/>
      <use xlink:href="#DejaVuSans-6d" transform="translate(181.904297 0)"/>
      <use xlink:href="#DejaVuSans-66" transform="translate(279.316406 0)"/>
      <use xlink:href="#DejaVuSans-31" transform="translate(314.521484 0)"/>
     </g>
    </g>
   </g>
   <g id="line2d_32">
    <path d="M 110.601449 340.924013 
L 113.506021 340.488716 
L 119.315166 339.493039 
L 122.219739 339.227014 
L 126.092502 339.12016 
L 129.965265 339.277062 
L 137.710792 339.725382 
L 141.583555 339.543771 
L 148.360891 339.102523 
L 152.233654 339.089983 
L 168.692898 339.561318 
L 176.438425 340.146705 
L 193.865859 341.57789 
L 198.706813 342.00484 
L 206.45234 342.995124 
L 214.197867 343.771831 
L 238.402637 346.911843 
L 246.148164 348.152874 
L 262.607407 350.921365 
L 266.480171 351.667108 
L 303.271422 357.268972 
L 311.985139 358.276189 
L 315.857903 358.73499 
L 321.667047 359.451329 
L 330.380765 360.376048 
L 338.126291 361.131014 
L 354.585535 362.172137 
L 372.981161 362.511072 
L 385.567641 362.337475 
L 391.376786 361.939623 
L 397.185931 361.58548 
L 401.058695 361.377598 
L 405.899649 360.802118 
L 412.676984 359.864646 
L 418.486129 358.589037 
L 424.295274 357.216144 
L 431.07261 355.445924 
L 435.913564 353.895566 
L 439.786327 352.473954 
L 442.6909 351.475869 
L 446.563663 350.151943 
L 455.27738 346.590051 
L 459.150144 345.277625 
L 462.054716 343.971071 
L 463.991098 342.906324 
L 465.927479 341.626056 
L 467.863861 339.99317 
L 469.800243 337.919335 
L 471.736624 335.389619 
L 473.673006 332.76237 
L 474.641197 331.630201 
L 475.609388 330.730717 
L 476.577578 330.101322 
L 477.545769 329.78698 
L 478.51396 329.753689 
L 479.482151 329.967047 
L 482.386723 330.887752 
L 483.354914 330.825437 
L 486.259487 329.815097 
L 487.227677 330.095883 
L 488.195868 331.196223 
L 489.164059 333.283498 
L 490.13225 336.123966 
L 494.005013 349.170984 
L 494.973204 351.354962 
L 495.941395 352.656037 
L 496.909586 353.061033 
L 497.877776 352.649905 
L 498.845967 351.450868 
L 499.814158 349.536495 
L 500.782349 346.951197 
L 501.75054 343.750603 
L 502.718731 339.987364 
L 504.655112 331.013033 
L 509.496066 306.54165 
L 510.464257 302.642155 
L 511.432448 299.471307 
L 512.400639 297.199071 
L 513.36883 295.994337 
L 514.33702 296.026845 
L 515.305211 297.472445 
L 516.273402 300.482723 
L 517.241593 305.108969 
L 518.209784 311.161191 
L 519.177975 318.344354 
L 521.114356 335.081264 
L 524.987119 370.428626 
L 525.95531 378.08579 
L 526.923501 384.731558 
L 527.891692 390.095926 
L 528.859883 393.986953 
L 529.828074 396.432579 
L 530.796264 397.583112 
L 531.764455 397.541005 
L 532.732646 396.44769 
L 533.700837 394.430966 
L 534.669028 391.614544 
L 535.637218 388.128753 
L 537.5736 379.659426 
L 543.382745 351.435672 
L 545.319127 343.967356 
L 546.287317 340.862615 
L 547.255508 338.233403 
L 548.223699 336.113087 
L 549.19189 334.541527 
L 550.160081 333.556002 
L 551.128272 333.194736 
L 552.096462 333.499366 
L 553.064653 334.503632 
L 554.032844 336.24525 
L 555.001035 338.75992 
L 555.969226 341.978566 
L 557.905607 350.005912 
L 562.746561 372.108609 
L 563.714752 375.648037 
L 564.682943 378.533243 
L 565.651134 380.619842 
L 566.619325 381.766315 
L 567.587515 382.00957 
L 568.555706 381.415998 
L 569.523897 380.114443 
L 570.492088 378.183634 
L 571.460279 375.742329 
L 573.39666 369.721314 
L 578.237614 352.861331 
L 579.205805 349.97871 
L 580.173996 347.45177 
L 581.142187 345.281591 
L 582.110378 343.488335 
L 583.078569 342.012509 
L 584.046759 340.854134 
L 585.01495 340.03262 
L 585.983141 339.555729 
L 586.951332 339.424887 
L 587.919523 339.615606 
L 588.887713 340.036404 
L 590.824095 341.308296 
L 593.728668 343.337051 
L 595.665049 344.391762 
L 597.601431 345.155837 
L 599.537812 345.692583 
L 601.474194 346.013794 
L 603.410576 346.069191 
L 605.346957 345.829016 
L 607.283339 345.336847 
L 610.187912 344.564137 
L 612.124293 344.457089 
L 616.965247 344.888444 
L 618.901629 344.61638 
L 622.774392 343.912013 
L 626.647155 343.701645 
L 630.519919 343.47054 
L 633.424491 343.085654 
L 637.297254 342.481195 
L 639.233636 342.480303 
L 641.170018 342.958486 
L 644.07459 344.230832 
L 646.979163 345.496361 
L 648.915544 346.169206 
L 651.820117 346.875822 
L 657.629262 348.086456 
L 662.470216 349.199754 
L 665.374788 349.580735 
L 667.31117 349.827539 
L 669.247551 350.314058 
L 671.183933 351.049291 
L 674.088506 352.234932 
L 676.024887 352.735221 
L 677.961269 352.775353 
L 679.89765 352.466237 
L 682.802223 351.87278 
L 684.738605 351.757662 
L 686.674986 351.991368 
L 690.547749 352.63752 
L 691.51594 352.660702 
L 692.484131 352.56366 
L 693.452322 352.333138 
L 695.388704 351.492903 
L 697.325085 350.304217 
L 702.166039 346.997427 
L 703.13423 346.492584 
L 704.102421 346.127081 
L 705.070612 345.957771 
L 706.038803 346.026525 
L 707.006993 346.37628 
L 707.975184 347.041119 
L 708.943375 347.942149 
L 713.784329 353.283086 
L 714.75252 353.934476 
L 715.720711 354.25305 
L 716.688902 354.204366 
L 717.657092 353.812362 
L 718.625283 353.170984 
L 720.561665 351.349931 
L 723.466237 348.326568 
L 724.434428 347.491033 
L 725.402619 346.817126 
L 726.37081 346.291464 
L 727.339001 345.948542 
L 728.307191 345.778372 
L 729.275382 345.810458 
L 730.243573 346.026556 
L 732.179955 346.847394 
L 734.116336 347.67385 
L 735.084527 347.899307 
L 736.052718 347.905267 
L 737.020909 347.641476 
L 737.9891 347.176159 
L 739.925481 345.850621 
L 743.798245 342.939666 
L 744.766435 342.067897 
L 745.734626 341.041483 
L 747.671008 338.470412 
L 750.57558 334.395997 
L 751.543771 333.288247 
L 752.511962 332.394155 
L 753.480153 331.752933 
L 754.448344 331.415741 
L 755.416534 331.448917 
L 756.384725 331.898996 
L 757.352916 332.831571 
L 758.321107 334.292235 
L 759.289298 336.288257 
L 760.257488 338.744703 
L 762.19387 344.514137 
L 765.098443 353.574412 
L 766.066633 356.234222 
L 767.034824 358.523577 
L 768.003015 360.338176 
L 768.971206 361.699805 
L 769.939397 362.606073 
L 770.907587 363.122858 
L 771.875778 363.267331 
L 772.843969 363.096932 
L 773.81216 362.652047 
L 774.780351 361.972349 
L 776.716732 360.085672 
L 779.621305 356.571156 
L 783.494068 351.778765 
L 786.398641 348.565991 
L 788.335022 346.785793 
L 790.271404 345.405971 
L 791.239595 344.895723 
L 792.207785 344.521732 
L 793.175976 344.295005 
L 794.144167 344.22707 
L 795.112358 344.329368 
L 796.080549 344.578645 
L 798.01693 345.466115 
L 799.953312 346.685845 
L 803.826075 349.305596 
L 805.762457 350.311314 
L 806.730648 350.645026 
L 807.698839 350.830554 
L 808.667029 350.841496 
L 809.63522 350.670449 
L 810.603411 350.304153 
L 811.571602 349.795272 
L 813.507984 348.459572 
L 816.412556 346.346427 
L 817.380747 345.786234 
L 818.348938 345.368379 
L 819.317128 345.092807 
L 821.25351 344.958729 
L 823.189892 345.175347 
L 827.062655 345.891459 
L 831.903609 346.880856 
L 833.839991 347.083414 
L 842.553708 347.688356 
L 847.394662 348.216155 
L 851.267425 348.356902 
L 857.07657 348.570096 
L 861.917524 348.930875 
L 866.758479 349.537383 
L 868.69486 349.468977 
L 881.281341 348.247875 
L 883.217722 347.690537 
L 885.154104 346.841764 
L 888.058677 345.055483 
L 889.995058 343.870963 
L 891.93144 343.033747 
L 892.899631 342.833248 
L 893.867822 342.825774 
L 894.836012 342.977148 
L 896.772394 343.704055 
L 898.708776 344.799789 
L 904.517921 348.405486 
L 907.422493 349.772 
L 909.358875 350.475422 
L 911.295256 350.998311 
L 913.231638 351.340476 
L 916.13621 351.561615 
L 919.040783 351.551126 
L 931.627263 350.90313 
L 937.436408 350.674862 
L 947.118317 350.108546 
L 954.863843 349.529409 
L 990.686903 346.98974 
L 996.496048 346.557791 
L 1002.305193 346.19913 
L 1011.018911 345.671109 
L 1022.6372 344.967688 
L 1030.382727 344.605123 
L 1041.032826 344.060582 
L 1071.046741 342.77959 
L 1074.919505 342.309606 
L 1077.824077 342.21341 
L 1083.633222 342.349244 
L 1088.474176 342.395392 
L 1088.474176 342.395392 
" clip-path="url(#pd7e2417f54)" style="fill: none; stroke: #f27f19; stroke-width: 1.5; stroke-linecap: square"/>
   </g>
   <g id="patch_13">
    <path d="M 61.707813 402.662551 
L 61.707813 290.914898 
" style="fill: none; stroke: #000000; stroke-width: 0.8; stroke-linejoin: miter; stroke-linecap: square"/>
   </g>
   <g id="patch_14">
    <path d="M 1137.367813 402.662551 
L 1137.367813 290.914898 
" style="fill: none; stroke: #000000; stroke-width: 0.8; stroke-linejoin: miter; stroke-linecap: square"/>
   </g>
   <g id="patch_15">
    <path d="M 61.707813 402.662551 
L 1137.367812 402.662551 
" style="fill: none; stroke: #000000; stroke-width: 0.8; stroke-linejoin: miter; stroke-linecap: square"/>
   </g>
   <g id="patch_16">
    <path d="M 61.707813 290.914898 
L 1137.367812 290.914898 
" style="fill: none; stroke: #000000; stroke-width: 0.8; stroke-linejoin: miter; stroke-linecap: square"/>
   </g>
  </g>
  <g id="axes_4">
   <g id="patch_17">
    <path d="M 61.707813 544.52 
L 1137.367813 544.52 
L 1137.367813 432.772347 
L 61.707813 432.772347 
z
" style="fill: #ffffff"/>
   </g>
   <g id="matplotlib.axis_7">
    <g id="xtick_19">
     <g id="line2d_33">
      <g>
       <use xlink:href="#mcd0a0fee11" x="110.601449" y="544.52" style="stroke: #000000; stroke-width: 0.8"/>
      </g>
     </g>
     <g id="text_33">
      <!-- 0 -->
      <g transform="translate(107.420199 559.118437) scale(0.1 -0.1)">
       <use xlink:href="#DejaVuSans-30"/>
      </g>
     </g>
    </g>
    <g id="xtick_20">
     <g id="line2d_34">
      <g>
       <use xlink:href="#mcd0a0fee11" x="304.239613" y="544.52" style="stroke: #000000; stroke-width: 0.8"/>
      </g>
     </g>
     <g id="text_34">
      <!-- 200 -->
      <g transform="translate(294.695863 559.118437) scale(0.1 -0.1)">
       <use xlink:href="#DejaVuSans-32"/>
       <use xlink:href="#DejaVuSans-30" transform="translate(63.623047 0)"/>
       <use xlink:href="#DejaVuSans-30" transform="translate(127.246094 0)"/>
      </g>
     </g>
    </g>
    <g id="xtick_21">
     <g id="line2d_35">
      <g>
       <use xlink:href="#mcd0a0fee11" x="497.877776" y="544.52" style="stroke: #000000; stroke-width: 0.8"/>
      </g>
     </g>
     <g id="text_35">
      <!-- 400 -->
      <g transform="translate(488.334026 559.118437) scale(0.1 -0.1)">
       <use xlink:href="#DejaVuSans-34"/>
       <use xlink:href="#DejaVuSans-30" transform="translate(63.623047 0)"/>
       <use xlink:href="#DejaVuSans-30" transform="translate(127.246094 0)"/>
      </g>
     </g>
    </g>
    <g id="xtick_22">
     <g id="line2d_36">
      <g>
       <use xlink:href="#mcd0a0fee11" x="691.51594" y="544.52" style="stroke: #000000; stroke-width: 0.8"/>
      </g>
     </g>
     <g id="text_36">
      <!-- 600 -->
      <g transform="translate(681.97219 559.118437) scale(0.1 -0.1)">
       <use xlink:href="#DejaVuSans-36"/>
       <use xlink:href="#DejaVuSans-30" transform="translate(63.623047 0)"/>
       <use xlink:href="#DejaVuSans-30" transform="translate(127.246094 0)"/>
      </g>
     </g>
    </g>
    <g id="xtick_23">
     <g id="line2d_37">
      <g>
       <use xlink:href="#mcd0a0fee11" x="885.154104" y="544.52" style="stroke: #000000; stroke-width: 0.8"/>
      </g>
     </g>
     <g id="text_37">
      <!-- 800 -->
      <g transform="translate(875.610354 559.118437) scale(0.1 -0.1)">
       <use xlink:href="#DejaVuSans-38"/>
       <use xlink:href="#DejaVuSans-30" transform="translate(63.623047 0)"/>
       <use xlink:href="#DejaVuSans-30" transform="translate(127.246094 0)"/>
      </g>
     </g>
    </g>
    <g id="xtick_24">
     <g id="line2d_38">
      <g>
       <use xlink:href="#mcd0a0fee11" x="1078.792268" y="544.52" style="stroke: #000000; stroke-width: 0.8"/>
      </g>
     </g>
     <g id="text_38">
      <!-- 1000 -->
      <g transform="translate(1066.067268 559.118437) scale(0.1 -0.1)">
       <use xlink:href="#DejaVuSans-31"/>
       <use xlink:href="#DejaVuSans-30" transform="translate(63.623047 0)"/>
       <use xlink:href="#DejaVuSans-30" transform="translate(127.246094 0)"/>
       <use xlink:href="#DejaVuSans-30" transform="translate(190.869141 0)"/>
      </g>
     </g>
    </g>
   </g>
   <g id="matplotlib.axis_8">
    <g id="ytick_12">
     <g id="line2d_39">
      <g>
       <use xlink:href="#m67c515d846" x="61.707813" y="534.599246" style="stroke: #000000; stroke-width: 0.8"/>
      </g>
     </g>
     <g id="text_39">
      <!-- 0 -->
      <g transform="translate(48.345313 538.398465) scale(0.1 -0.1)">
       <use xlink:href="#DejaVuSans-30"/>
      </g>
     </g>
    </g>
    <g id="ytick_13">
     <g id="line2d_40">
      <g>
       <use xlink:href="#m67c515d846" x="61.707813" y="494.136257" style="stroke: #000000; stroke-width: 0.8"/>
      </g>
     </g>
     <g id="text_40">
      <!-- 1000 -->
      <g transform="translate(29.257812 497.935475) scale(0.1 -0.1)">
       <use xlink:href="#DejaVuSans-31"/>
       <use xlink:href="#DejaVuSans-30" transform="translate(63.623047 0)"/>
       <use xlink:href="#DejaVuSans-30" transform="translate(127.246094 0)"/>
       <use xlink:href="#DejaVuSans-30" transform="translate(190.869141 0)"/>
      </g>
     </g>
    </g>
    <g id="ytick_14">
     <g id="line2d_41">
      <g>
       <use xlink:href="#m67c515d846" x="61.707813" y="453.673267" style="stroke: #000000; stroke-width: 0.8"/>
      </g>
     </g>
     <g id="text_41">
      <!-- 2000 -->
      <g transform="translate(29.257812 457.472486) scale(0.1 -0.1)">
       <use xlink:href="#DejaVuSans-32"/>
       <use xlink:href="#DejaVuSans-30" transform="translate(63.623047 0)"/>
       <use xlink:href="#DejaVuSans-30" transform="translate(127.246094 0)"/>
       <use xlink:href="#DejaVuSans-30" transform="translate(190.869141 0)"/>
      </g>
     </g>
    </g>
    <g id="text_42">
     <!-- co-imf2 -->
     <g transform="translate(23.178125 507.553205) rotate(-90) scale(0.1 -0.1)">
      <use xlink:href="#DejaVuSans-63"/>
      <use xlink:href="#DejaVuSans-6f" transform="translate(54.980469 0)"/>
      <use xlink:href="#DejaVuSans-2d" transform="translate(118.037109 0)"/>
      <use xlink:href="#DejaVuSans-69" transform="translate(154.121094 0)"/>
      <use xlink:href="#DejaVuSans-6d" transform="translate(181.904297 0)"/>
      <use xlink:href="#DejaVuSans-66" transform="translate(279.316406 0)"/>
      <use xlink:href="#DejaVuSans-32" transform="translate(314.521484 0)"/>
     </g>
    </g>
   </g>
   <g id="line2d_42">
    <path d="M 110.601449 462.19109 
L 124.15612 462.595727 
L 136.742601 462.75851 
L 148.360891 462.694996 
L 159.01099 462.432036 
L 169.661089 461.957072 
L 180.311188 461.26748 
L 190.961287 460.36344 
L 202.579577 459.14355 
L 215.166057 457.58791 
L 229.68892 455.554309 
L 247.116354 452.880435 
L 304.239613 443.919694 
L 317.794284 442.103014 
L 330.380765 440.63725 
L 341.999055 439.517748 
L 352.649154 438.721148 
L 362.331062 438.207165 
L 372.01297 437.909852 
L 380.726687 437.862116 
L 388.472214 438.034139 
L 396.21774 438.442558 
L 402.995076 439.019905 
L 409.772412 439.824857 
L 416.549748 440.868241 
L 423.327083 442.154486 
L 430.104419 443.687921 
L 436.881755 445.472872 
L 443.659091 447.513668 
L 450.436426 449.814635 
L 457.213762 452.380101 
L 463.991098 455.214394 
L 470.768434 458.319826 
L 477.545769 461.678907 
L 485.291296 465.791587 
L 494.005013 470.711002 
L 504.655112 477.018832 
L 537.5736 496.755992 
L 545.319127 501.061926 
L 552.096462 504.611036 
L 558.873798 507.908814 
L 564.682943 510.501238 
L 570.492088 512.849553 
L 576.301233 514.933349 
L 581.142187 516.454169 
L 585.983141 517.770688 
L 590.824095 518.884234 
L 595.665049 519.797652 
L 600.506003 520.513785 
L 605.346957 521.035474 
L 610.187912 521.365564 
L 615.028866 521.506897 
L 620.838011 521.43134 
L 626.647155 521.092979 
L 632.4563 520.497843 
L 638.265445 519.661896 
L 645.042781 518.439471 
L 653.756498 516.610743 
L 676.024887 511.790184 
L 683.770414 510.377896 
L 690.547749 509.343594 
L 697.325085 508.530896 
L 703.13423 508.032075 
L 708.943375 507.734535 
L 714.75252 507.65601 
L 720.561665 507.814232 
L 726.37081 508.226935 
L 731.211764 508.778042 
L 736.052718 509.526395 
L 741.861863 510.674307 
L 747.671008 512.066022 
L 754.448344 513.93862 
L 762.19387 516.315822 
L 775.748542 520.761298 
L 787.366831 524.476987 
L 795.112358 526.711612 
L 801.889694 528.429896 
L 807.698839 529.696116 
L 813.507984 530.747012 
L 819.317128 531.56465 
L 825.126273 532.136835 
L 830.935418 532.4675 
L 836.744563 532.585128 
L 843.521899 532.509468 
L 852.235616 532.182228 
L 892.899631 530.320518 
L 902.581539 530.253909 
L 912.263447 530.413409 
L 922.913546 530.804199 
L 935.500027 531.487726 
L 952.927461 532.677819 
L 1000.368812 536.025546 
L 1023.605391 537.412472 
L 1042.969208 538.34835 
L 1060.396642 538.972126 
L 1076.855886 539.334435 
L 1088.474176 539.440561 
L 1088.474176 539.440561 
" clip-path="url(#p8c33c030dc)" style="fill: none; stroke: #f27f19; stroke-width: 1.5; stroke-linecap: square"/>
   </g>
   <g id="patch_18">
    <path d="M 61.707813 544.52 
L 61.707813 432.772347 
" style="fill: none; stroke: #000000; stroke-width: 0.8; stroke-linejoin: miter; stroke-linecap: square"/>
   </g>
   <g id="patch_19">
    <path d="M 1137.367813 544.52 
L 1137.367813 432.772347 
" style="fill: none; stroke: #000000; stroke-width: 0.8; stroke-linejoin: miter; stroke-linecap: square"/>
   </g>
   <g id="patch_20">
    <path d="M 61.707813 544.52 
L 1137.367812 544.52 
" style="fill: none; stroke: #000000; stroke-width: 0.8; stroke-linejoin: miter; stroke-linecap: square"/>
   </g>
   <g id="patch_21">
    <path d="M 61.707813 432.772347 
L 1137.367812 432.772347 
" style="fill: none; stroke: #000000; stroke-width: 0.8; stroke-linejoin: miter; stroke-linecap: square"/>
   </g>
  </g>
 </g>
 <defs>
  <clipPath id="p86416694d3">
   <rect x="61.707813" y="7.2" width="1075.66" height="111.747653"/>
  </clipPath>
  <clipPath id="p81c669151f">
   <rect x="61.707813" y="149.057449" width="1075.66" height="111.747653"/>
  </clipPath>
  <clipPath id="pd7e2417f54">
   <rect x="61.707813" y="290.914898" width="1075.66" height="111.747653"/>
  </clipPath>
  <clipPath id="p8c33c030dc">
   <rect x="61.707813" y="432.772347" width="1075.66" height="111.747653"/>
  </clipPath>
 </defs>
</svg>
