<?xml version="1.0" encoding="utf-8" standalone="no"?>
<!DOCTYPE svg PUBLIC "-//W3C//DTD SVG 1.1//EN"
  "http://www.w3.org/Graphics/SVG/1.1/DTD/svg11.dtd">
<svg xmlns:xlink="http://www.w3.org/1999/xlink" width="604.85pt" height="267.142752pt" viewBox="0 0 604.85 267.142752" xmlns="http://www.w3.org/2000/svg" version="1.1">
 <metadata>
  <rdf:RDF xmlns:dc="http://purl.org/dc/elements/1.1/" xmlns:cc="http://creativecommons.org/ns#" xmlns:rdf="http://www.w3.org/1999/02/22-rdf-syntax-ns#">
   <cc:Work>
    <dc:type rdf:resource="http://purl.org/dc/dcmitype/StillImage"/>
    <dc:date>2025-08-01T08:05:12.528132</dc:date>
    <dc:format>image/svg+xml</dc:format>
    <dc:creator>
     <cc:Agent>
      <dc:title>Matplotlib v3.10.1, https://matplotlib.org/</dc:title>
     </cc:Agent>
    </dc:creator>
   </cc:Work>
  </rdf:RDF>
 </metadata>
 <defs>
  <style type="text/css">*{stroke-linejoin: round; stroke-linecap: butt}</style>
 </defs>
 <g id="figure_1">
  <g id="patch_1">
   <path d="M 0 267.142752 
L 604.85 267.142752 
L 604.85 0 
L 0 0 
z
" style="fill: #ffffff"/>
  </g>
  <g id="axes_1">
   <g id="patch_2">
    <path d="M 39.65 218.158125 
L 597.65 218.158125 
L 597.65 22.318125 
L 39.65 22.318125 
z
" style="fill: #ffffff"/>
   </g>
   <g id="matplotlib.axis_1">
    <g id="xtick_1">
     <g id="line2d_1">
      <defs>
       <path id="med6e3a8b2b" d="M 0 0 
L 0 3.5 
" style="stroke: #000000; stroke-width: 0.8"/>
      </defs>
      <g>
       <use xlink:href="#med6e3a8b2b" x="64.756529" y="218.158125" style="stroke: #000000; stroke-width: 0.8"/>
      </g>
     </g>
     <g id="text_1">
      <!-- 2020 -->
      <g transform="translate(41.676339 244.463565) rotate(-30) scale(0.1 -0.1)">
       <defs>
        <path id="DejaVuSans-32" d="M 1228 531 
L 3431 531 
L 3431 0 
L 469 0 
L 469 531 
Q 828 903 1448 1529 
Q 2069 2156 2228 2338 
Q 2531 2678 2651 2914 
Q 2772 3150 2772 3378 
Q 2772 3750 2511 3984 
Q 2250 4219 1831 4219 
Q 1534 4219 1204 4116 
Q 875 4013 500 3803 
L 500 4441 
Q 881 4594 1212 4672 
Q 1544 4750 1819 4750 
Q 2544 4750 2975 4387 
Q 3406 4025 3406 3419 
Q 3406 3131 3298 2873 
Q 3191 2616 2906 2266 
Q 2828 2175 2409 1742 
Q 1991 1309 1228 531 
z
" transform="scale(0.015625)"/>
        <path id="DejaVuSans-30" d="M 2034 4250 
Q 1547 4250 1301 3770 
Q 1056 3291 1056 2328 
Q 1056 1369 1301 889 
Q 1547 409 2034 409 
Q 2525 409 2770 889 
Q 3016 1369 3016 2328 
Q 3016 3291 2770 3770 
Q 2525 4250 2034 4250 
z
M 2034 4750 
Q 2819 4750 3233 4129 
Q 3647 3509 3647 2328 
Q 3647 1150 3233 529 
Q 2819 -91 2034 -91 
Q 1250 -91 836 529 
Q 422 1150 422 2328 
Q 422 3509 836 4129 
Q 1250 4750 2034 4750 
z
" transform="scale(0.015625)"/>
       </defs>
       <use xlink:href="#DejaVuSans-32"/>
       <use xlink:href="#DejaVuSans-30" transform="translate(63.623047 0)"/>
       <use xlink:href="#DejaVuSans-32" transform="translate(127.246094 0)"/>
       <use xlink:href="#DejaVuSans-30" transform="translate(190.869141 0)"/>
      </g>
     </g>
    </g>
    <g id="xtick_2">
     <g id="line2d_2">
      <g>
       <use xlink:href="#med6e3a8b2b" x="158.857805" y="218.158125" style="stroke: #000000; stroke-width: 0.8"/>
      </g>
     </g>
     <g id="text_2">
      <!-- 2021 -->
      <g transform="translate(135.777615 244.463565) rotate(-30) scale(0.1 -0.1)">
       <defs>
        <path id="DejaVuSans-31" d="M 794 531 
L 1825 531 
L 1825 4091 
L 703 3866 
L 703 4441 
L 1819 4666 
L 2450 4666 
L 2450 531 
L 3481 531 
L 3481 0 
L 794 0 
L 794 531 
z
" transform="scale(0.015625)"/>
       </defs>
       <use xlink:href="#DejaVuSans-32"/>
       <use xlink:href="#DejaVuSans-30" transform="translate(63.623047 0)"/>
       <use xlink:href="#DejaVuSans-32" transform="translate(127.246094 0)"/>
       <use xlink:href="#DejaVuSans-31" transform="translate(190.869141 0)"/>
      </g>
     </g>
    </g>
    <g id="xtick_3">
     <g id="line2d_3">
      <g>
       <use xlink:href="#med6e3a8b2b" x="252.701974" y="218.158125" style="stroke: #000000; stroke-width: 0.8"/>
      </g>
     </g>
     <g id="text_3">
      <!-- 2022 -->
      <g transform="translate(229.621784 244.463565) rotate(-30) scale(0.1 -0.1)">
       <use xlink:href="#DejaVuSans-32"/>
       <use xlink:href="#DejaVuSans-30" transform="translate(63.623047 0)"/>
       <use xlink:href="#DejaVuSans-32" transform="translate(127.246094 0)"/>
       <use xlink:href="#DejaVuSans-32" transform="translate(190.869141 0)"/>
      </g>
     </g>
    </g>
    <g id="xtick_4">
     <g id="line2d_4">
      <g>
       <use xlink:href="#med6e3a8b2b" x="346.546143" y="218.158125" style="stroke: #000000; stroke-width: 0.8"/>
      </g>
     </g>
     <g id="text_4">
      <!-- 2023 -->
      <g transform="translate(323.465953 244.463565) rotate(-30) scale(0.1 -0.1)">
       <defs>
        <path id="DejaVuSans-33" d="M 2597 2516 
Q 3050 2419 3304 2112 
Q 3559 1806 3559 1356 
Q 3559 666 3084 287 
Q 2609 -91 1734 -91 
Q 1441 -91 1130 -33 
Q 819 25 488 141 
L 488 750 
Q 750 597 1062 519 
Q 1375 441 1716 441 
Q 2309 441 2620 675 
Q 2931 909 2931 1356 
Q 2931 1769 2642 2001 
Q 2353 2234 1838 2234 
L 1294 2234 
L 1294 2753 
L 1863 2753 
Q 2328 2753 2575 2939 
Q 2822 3125 2822 3475 
Q 2822 3834 2567 4026 
Q 2313 4219 1838 4219 
Q 1578 4219 1281 4162 
Q 984 4106 628 3988 
L 628 4550 
Q 988 4650 1302 4700 
Q 1616 4750 1894 4750 
Q 2613 4750 3031 4423 
Q 3450 4097 3450 3541 
Q 3450 3153 3228 2886 
Q 3006 2619 2597 2516 
z
" transform="scale(0.015625)"/>
       </defs>
       <use xlink:href="#DejaVuSans-32"/>
       <use xlink:href="#DejaVuSans-30" transform="translate(63.623047 0)"/>
       <use xlink:href="#DejaVuSans-32" transform="translate(127.246094 0)"/>
       <use xlink:href="#DejaVuSans-33" transform="translate(190.869141 0)"/>
      </g>
     </g>
    </g>
    <g id="xtick_5">
     <g id="line2d_5">
      <g>
       <use xlink:href="#med6e3a8b2b" x="440.390312" y="218.158125" style="stroke: #000000; stroke-width: 0.8"/>
      </g>
     </g>
     <g id="text_5">
      <!-- 2024 -->
      <g transform="translate(417.310122 244.463565) rotate(-30) scale(0.1 -0.1)">
       <defs>
        <path id="DejaVuSans-34" d="M 2419 4116 
L 825 1625 
L 2419 1625 
L 2419 4116 
z
M 2253 4666 
L 3047 4666 
L 3047 1625 
L 3713 1625 
L 3713 1100 
L 3047 1100 
L 3047 0 
L 2419 0 
L 2419 1100 
L 313 1100 
L 313 1709 
L 2253 4666 
z
" transform="scale(0.015625)"/>
       </defs>
       <use xlink:href="#DejaVuSans-32"/>
       <use xlink:href="#DejaVuSans-30" transform="translate(63.623047 0)"/>
       <use xlink:href="#DejaVuSans-32" transform="translate(127.246094 0)"/>
       <use xlink:href="#DejaVuSans-34" transform="translate(190.869141 0)"/>
      </g>
     </g>
    </g>
    <g id="xtick_6">
     <g id="line2d_6">
      <g>
       <use xlink:href="#med6e3a8b2b" x="534.491589" y="218.158125" style="stroke: #000000; stroke-width: 0.8"/>
      </g>
     </g>
     <g id="text_6">
      <!-- 2025 -->
      <g transform="translate(511.411398 244.463565) rotate(-30) scale(0.1 -0.1)">
       <defs>
        <path id="DejaVuSans-35" d="M 691 4666 
L 3169 4666 
L 3169 4134 
L 1269 4134 
L 1269 2991 
Q 1406 3038 1543 3061 
Q 1681 3084 1819 3084 
Q 2600 3084 3056 2656 
Q 3513 2228 3513 1497 
Q 3513 744 3044 326 
Q 2575 -91 1722 -91 
Q 1428 -91 1123 -41 
Q 819 9 494 109 
L 494 744 
Q 775 591 1075 516 
Q 1375 441 1709 441 
Q 2250 441 2565 725 
Q 2881 1009 2881 1497 
Q 2881 1984 2565 2268 
Q 2250 2553 1709 2553 
Q 1456 2553 1204 2497 
Q 953 2441 691 2322 
L 691 4666 
z
" transform="scale(0.015625)"/>
       </defs>
       <use xlink:href="#DejaVuSans-32"/>
       <use xlink:href="#DejaVuSans-30" transform="translate(63.623047 0)"/>
       <use xlink:href="#DejaVuSans-32" transform="translate(127.246094 0)"/>
       <use xlink:href="#DejaVuSans-35" transform="translate(190.869141 0)"/>
      </g>
     </g>
    </g>
    <g id="text_7">
     <!-- Time -->
     <g transform="translate(306.416406 257.863065) scale(0.1 -0.1)">
      <defs>
       <path id="DejaVuSans-54" d="M -19 4666 
L 3928 4666 
L 3928 4134 
L 2272 4134 
L 2272 0 
L 1638 0 
L 1638 4134 
L -19 4134 
L -19 4666 
z
" transform="scale(0.015625)"/>
       <path id="DejaVuSans-69" d="M 603 3500 
L 1178 3500 
L 1178 0 
L 603 0 
L 603 3500 
z
M 603 4863 
L 1178 4863 
L 1178 4134 
L 603 4134 
L 603 4863 
z
" transform="scale(0.015625)"/>
       <path id="DejaVuSans-6d" d="M 3328 2828 
Q 3544 3216 3844 3400 
Q 4144 3584 4550 3584 
Q 5097 3584 5394 3201 
Q 5691 2819 5691 2113 
L 5691 0 
L 5113 0 
L 5113 2094 
Q 5113 2597 4934 2840 
Q 4756 3084 4391 3084 
Q 3944 3084 3684 2787 
Q 3425 2491 3425 1978 
L 3425 0 
L 2847 0 
L 2847 2094 
Q 2847 2600 2669 2842 
Q 2491 3084 2119 3084 
Q 1678 3084 1418 2786 
Q 1159 2488 1159 1978 
L 1159 0 
L 581 0 
L 581 3500 
L 1159 3500 
L 1159 2956 
Q 1356 3278 1631 3431 
Q 1906 3584 2284 3584 
Q 2666 3584 2933 3390 
Q 3200 3197 3328 2828 
z
" transform="scale(0.015625)"/>
       <path id="DejaVuSans-65" d="M 3597 1894 
L 3597 1613 
L 953 1613 
Q 991 1019 1311 708 
Q 1631 397 2203 397 
Q 2534 397 2845 478 
Q 3156 559 3463 722 
L 3463 178 
Q 3153 47 2828 -22 
Q 2503 -91 2169 -91 
Q 1331 -91 842 396 
Q 353 884 353 1716 
Q 353 2575 817 3079 
Q 1281 3584 2069 3584 
Q 2775 3584 3186 3129 
Q 3597 2675 3597 1894 
z
M 3022 2063 
Q 3016 2534 2758 2815 
Q 2500 3097 2075 3097 
Q 1594 3097 1305 2825 
Q 1016 2553 972 2059 
L 3022 2063 
z
" transform="scale(0.015625)"/>
      </defs>
      <use xlink:href="#DejaVuSans-54"/>
      <use xlink:href="#DejaVuSans-69" transform="translate(57.958984 0)"/>
      <use xlink:href="#DejaVuSans-6d" transform="translate(85.742188 0)"/>
      <use xlink:href="#DejaVuSans-65" transform="translate(183.154297 0)"/>
     </g>
    </g>
   </g>
   <g id="matplotlib.axis_2">
    <g id="ytick_1">
     <g id="line2d_7">
      <defs>
       <path id="me361380208" d="M 0 0 
L -3.5 0 
" style="stroke: #000000; stroke-width: 0.8"/>
      </defs>
      <g>
       <use xlink:href="#me361380208" x="39.65" y="214.9248" style="stroke: #000000; stroke-width: 0.8"/>
      </g>
     </g>
     <g id="text_8">
      <!-- 500 -->
      <g transform="translate(13.5625 218.724019) scale(0.1 -0.1)">
       <use xlink:href="#DejaVuSans-35"/>
       <use xlink:href="#DejaVuSans-30" transform="translate(63.623047 0)"/>
       <use xlink:href="#DejaVuSans-30" transform="translate(127.246094 0)"/>
      </g>
     </g>
    </g>
    <g id="ytick_2">
     <g id="line2d_8">
      <g>
       <use xlink:href="#me361380208" x="39.65" y="184.545516" style="stroke: #000000; stroke-width: 0.8"/>
      </g>
     </g>
     <g id="text_9">
      <!-- 1000 -->
      <g transform="translate(7.2 188.344735) scale(0.1 -0.1)">
       <use xlink:href="#DejaVuSans-31"/>
       <use xlink:href="#DejaVuSans-30" transform="translate(63.623047 0)"/>
       <use xlink:href="#DejaVuSans-30" transform="translate(127.246094 0)"/>
       <use xlink:href="#DejaVuSans-30" transform="translate(190.869141 0)"/>
      </g>
     </g>
    </g>
    <g id="ytick_3">
     <g id="line2d_9">
      <g>
       <use xlink:href="#me361380208" x="39.65" y="154.166232" style="stroke: #000000; stroke-width: 0.8"/>
      </g>
     </g>
     <g id="text_10">
      <!-- 1500 -->
      <g transform="translate(7.2 157.965451) scale(0.1 -0.1)">
       <use xlink:href="#DejaVuSans-31"/>
       <use xlink:href="#DejaVuSans-35" transform="translate(63.623047 0)"/>
       <use xlink:href="#DejaVuSans-30" transform="translate(127.246094 0)"/>
       <use xlink:href="#DejaVuSans-30" transform="translate(190.869141 0)"/>
      </g>
     </g>
    </g>
    <g id="ytick_4">
     <g id="line2d_10">
      <g>
       <use xlink:href="#me361380208" x="39.65" y="123.786948" style="stroke: #000000; stroke-width: 0.8"/>
      </g>
     </g>
     <g id="text_11">
      <!-- 2000 -->
      <g transform="translate(7.2 127.586167) scale(0.1 -0.1)">
       <use xlink:href="#DejaVuSans-32"/>
       <use xlink:href="#DejaVuSans-30" transform="translate(63.623047 0)"/>
       <use xlink:href="#DejaVuSans-30" transform="translate(127.246094 0)"/>
       <use xlink:href="#DejaVuSans-30" transform="translate(190.869141 0)"/>
      </g>
     </g>
    </g>
    <g id="ytick_5">
     <g id="line2d_11">
      <g>
       <use xlink:href="#me361380208" x="39.65" y="93.407664" style="stroke: #000000; stroke-width: 0.8"/>
      </g>
     </g>
     <g id="text_12">
      <!-- 2500 -->
      <g transform="translate(7.2 97.206883) scale(0.1 -0.1)">
       <use xlink:href="#DejaVuSans-32"/>
       <use xlink:href="#DejaVuSans-35" transform="translate(63.623047 0)"/>
       <use xlink:href="#DejaVuSans-30" transform="translate(127.246094 0)"/>
       <use xlink:href="#DejaVuSans-30" transform="translate(190.869141 0)"/>
      </g>
     </g>
    </g>
    <g id="ytick_6">
     <g id="line2d_12">
      <g>
       <use xlink:href="#me361380208" x="39.65" y="63.028381" style="stroke: #000000; stroke-width: 0.8"/>
      </g>
     </g>
     <g id="text_13">
      <!-- 3000 -->
      <g transform="translate(7.2 66.827599) scale(0.1 -0.1)">
       <use xlink:href="#DejaVuSans-33"/>
       <use xlink:href="#DejaVuSans-30" transform="translate(63.623047 0)"/>
       <use xlink:href="#DejaVuSans-30" transform="translate(127.246094 0)"/>
       <use xlink:href="#DejaVuSans-30" transform="translate(190.869141 0)"/>
      </g>
     </g>
    </g>
    <g id="ytick_7">
     <g id="line2d_13">
      <g>
       <use xlink:href="#me361380208" x="39.65" y="32.649097" style="stroke: #000000; stroke-width: 0.8"/>
      </g>
     </g>
     <g id="text_14">
      <!-- 3500 -->
      <g transform="translate(7.2 36.448316) scale(0.1 -0.1)">
       <use xlink:href="#DejaVuSans-33"/>
       <use xlink:href="#DejaVuSans-35" transform="translate(63.623047 0)"/>
       <use xlink:href="#DejaVuSans-30" transform="translate(127.246094 0)"/>
       <use xlink:href="#DejaVuSans-30" transform="translate(190.869141 0)"/>
      </g>
     </g>
    </g>
   </g>
   <g id="line2d_14">
    <path d="M 65.013636 196.301638 
L 65.270744 195.738389 
L 66.042066 196.583258 
L 66.299173 197.709748 
L 66.55628 197.991377 
L 67.070495 196.301638 
L 67.841817 196.301638 
L 68.098924 197.42813 
L 68.356031 197.146507 
L 68.870246 197.146508 
L 70.155783 197.709754 
L 70.669997 197.146507 
L 71.441319 197.146508 
L 71.698426 198.83624 
L 71.955534 199.117867 
L 72.212641 198.55462 
L 73.24107 199.681115 
L 73.498178 199.399484 
L 73.755285 199.399484 
L 74.012392 199.681116 
L 74.2695 200.244367 
L 75.297929 200.244362 
L 75.555036 199.962744 
L 75.812143 200.244362 
L 76.840573 199.117869 
L 77.09768 199.962738 
L 77.354787 199.681108 
L 77.611895 199.96274 
L 77.869002 197.709758 
L 79.154539 199.68112 
L 79.411646 198.836251 
L 79.668753 199.681113 
L 80.440075 201.652484 
L 80.697182 200.525978 
L 80.95429 198.83625 
L 81.211397 200.244365 
L 81.468504 200.807606 
L 82.496934 201.652477 
L 83.011148 202.778972 
L 83.268256 203.060593 
L 84.039577 205.031956 
L 84.810899 205.031958 
L 85.068007 204.187088 
L 85.839329 205.876822 
L 86.096436 208.129809 
L 86.610651 209.256307 
L 86.867758 204.187086 
L 87.63908 205.031958 
L 87.896187 205.876831 
L 88.153294 200.244362 
L 88.410402 202.778977 
L 88.667509 199.962744 
L 89.438831 201.934107 
L 89.695938 200.807601 
L 89.953046 198.554615 
L 90.210153 199.681113 
L 91.238582 198.554623 
L 91.49569 197.709753 
L 91.752797 198.554618 
L 92.009904 197.991377 
L 92.267011 198.836247 
L 93.038333 198.554624 
L 93.295441 199.681117 
L 93.552548 197.428132 
L 93.809655 196.301636 
L 94.066763 199.399493 
L 94.838085 198.554618 
L 95.095192 197.991374 
L 95.352299 197.709755 
L 95.609407 199.681118 
L 96.637836 196.301639 
L 96.894943 197.991377 
L 97.15205 195.738391 
L 97.666265 195.738391 
L 98.437587 197.709751 
L 98.694694 197.991371 
L 98.951802 197.146511 
L 99.208909 200.244361 
L 99.466016 194.893518 
L 100.237338 194.611896 
L 100.494445 195.175147 
L 100.751553 194.611901 
L 102.294197 194.048642 
L 102.551304 193.20378 
L 102.808411 193.00222 
L 103.065519 193.288023 
L 104.093948 193.573823 
L 104.351055 193.859631 
L 104.608162 194.431236 
L 104.86527 194.431234 
L 105.636592 195.002838 
L 105.893699 195.57444 
L 106.150806 197.575061 
L 106.407914 197.003458 
L 106.665021 197.860861 
L 107.436343 197.57506 
L 107.69345 199.289874 
L 107.950558 200.147288 
L 108.207665 200.147288 
L 108.464772 200.718893 
L 109.236094 200.147288 
L 109.493201 199.575676 
L 109.750309 200.433086 
L 110.007416 199.861481 
L 110.264523 200.147282 
L 111.035845 200.433091 
L 111.292953 199.861481 
L 113.092704 199.861486 
L 113.349811 200.147288 
L 113.606918 200.147282 
L 113.864026 200.433089 
L 115.149562 201.004689 
L 115.663777 202.433701 
L 116.435099 202.719506 
L 116.692206 202.147901 
L 116.949313 202.147901 
L 117.206421 202.433704 
L 118.749065 202.433701 
L 119.006172 202.719512 
L 120.034601 203.005306 
L 120.291709 204.148516 
L 120.548816 202.719506 
L 120.805923 202.147905 
L 121.06303 203.005304 
L 121.834352 202.147902 
L 122.09146 203.576917 
L 122.348567 203.291112 
L 122.605674 203.862717 
L 122.862782 203.862717 
L 123.891211 204.148519 
L 124.148318 203.862714 
L 125.433855 204.148519 
L 125.690962 203.862716 
L 125.948069 202.147902 
L 126.205177 203.576911 
L 126.462284 203.862714 
L 127.233606 204.148521 
L 127.490713 203.862716 
L 128.004928 205.291734 
L 129.033357 205.291732 
L 129.290464 204.720129 
L 129.547572 205.291734 
L 129.804679 205.291732 
L 130.061786 206.149135 
L 131.090216 205.005931 
L 131.347323 205.291732 
L 131.861538 206.43494 
L 132.63286 205.577533 
L 132.889967 206.72074 
L 133.147074 207.006543 
L 133.404181 207.006548 
L 133.661289 207.57815 
L 134.432611 206.43494 
L 134.689718 206.720741 
L 134.946825 206.720741 
L 135.203933 207.006543 
L 135.46104 207.006545 
L 136.489469 206.720741 
L 136.746577 206.149136 
L 137.260791 206.149138 
L 138.032113 206.720743 
L 138.28922 206.720743 
L 138.546328 206.434937 
L 138.803435 207.006543 
L 139.060542 207.006543 
L 139.831864 207.292345 
L 140.346079 206.720743 
L 140.603186 206.720743 
L 140.860294 206.43494 
L 141.888723 206.720742 
L 143.431367 206.434942 
L 143.945581 205.863339 
L 144.459796 203.862718 
L 145.231118 204.434319 
L 145.488225 204.148524 
L 145.745332 203.005312 
L 146.00244 203.576917 
L 146.259547 204.720124 
L 147.287976 203.576911 
L 147.545084 204.148516 
L 147.802191 203.862718 
L 148.059298 204.434321 
L 148.83062 205.005929 
L 149.087728 204.434324 
L 149.601942 204.434324 
L 149.859049 204.720126 
L 150.630371 204.434324 
L 150.887479 204.720127 
L 151.144586 204.434324 
L 151.401693 204.434324 
L 151.658801 205.005929 
L 152.430123 204.148519 
L 152.68723 201.862104 
L 153.201445 202.71951 
L 153.458552 203.576917 
L 154.486981 203.229364 
L 154.744088 202.652998 
L 155.258303 203.229369 
L 156.029625 202.941182 
L 156.286732 202.076637 
L 156.54384 203.229365 
L 157.829376 200.923904 
L 158.086483 195.160242 
L 158.343591 196.889342 
L 159.629127 198.61844 
L 159.886235 199.194805 
L 160.143342 199.194807 
L 160.657557 201.212085 
L 161.428878 200.635721 
L 161.685986 200.059351 
L 161.943093 201.212088 
L 162.457308 197.177526 
L 163.742844 199.482991 
L 163.999952 199.194806 
L 164.257059 199.194808 
L 165.028381 199.771173 
L 165.285488 198.61844 
L 165.542595 199.194807 
L 165.799703 199.48299 
L 166.05681 199.48299 
L 167.085239 200.347537 
L 167.342347 200.059356 
L 167.599454 200.059356 
L 167.856561 200.347538 
L 168.627883 200.059356 
L 168.884991 200.347538 
L 169.142098 200.347538 
L 169.399205 199.194806 
L 170.427634 199.194808 
L 170.684742 199.771174 
L 170.941849 199.48299 
L 171.198956 200.347539 
L 171.456064 198.61844 
L 172.227386 199.194806 
L 172.484493 194.58388 
L 172.7416 195.160244 
L 172.998708 187.379303 
L 173.255815 187.091121 
L 174.027137 186.514756 
L 174.284244 183.921099 
L 174.798459 191.12568 
L 175.055566 193.142962 
L 175.826888 189.396584 
L 176.083995 190.837497 
L 176.341103 191.413863 
L 176.855317 188.24385 
L 177.626639 188.53203 
L 177.883746 188.820217 
L 178.140854 186.226569 
L 178.397961 189.108399 
L 179.42639 187.955666 
L 179.940605 192.854778 
L 180.197712 192.566598 
L 180.45482 194.007513 
L 181.483249 194.007513 
L 181.740356 195.736605 
L 181.997463 193.431141 
L 183.025893 193.719331 
L 183.283 194.872057 
L 183.540107 193.431146 
L 184.054322 187.091117 
L 184.825644 187.667484 
L 185.339859 190.549312 
L 185.596966 188.820216 
L 185.854073 189.396579 
L 186.625395 189.684764 
L 186.882502 192.278411 
L 187.13961 192.278412 
L 187.396717 191.702047 
L 187.653824 190.549316 
L 188.425146 189.97295 
L 188.939361 192.278411 
L 189.196468 191.413862 
L 189.453576 191.99023 
L 190.224897 190.549318 
L 190.482005 191.413867 
L 190.739112 191.125684 
L 190.996219 191.413866 
L 191.253327 191.125684 
L 192.024649 191.413857 
L 192.281756 192.566595 
L 193.8244 193.142963 
L 194.081507 194.583874 
L 194.338614 193.431142 
L 194.595722 193.177679 
L 194.852829 191.430425 
L 195.624151 191.430426 
L 195.881258 192.595262 
L 196.395473 190.848007 
L 196.65258 192.012843 
L 197.423902 191.721635 
L 197.938117 192.595261 
L 198.452331 192.012843 
L 199.223653 192.304052 
L 199.480761 191.721634 
L 199.737868 187.062292 
L 200.252083 172.79305 
L 201.023405 174.540306 
L 201.280512 176.578764 
L 201.537619 176.869975 
L 201.794727 173.666681 
L 202.051834 173.084259 
L 202.823156 174.831522 
L 203.080263 174.540306 
L 203.594478 169.880962 
L 203.851585 170.754582 
L 204.622907 170.754592 
L 204.880014 172.501841 
L 205.137122 172.501843 
L 205.394229 171.628214 
L 205.651336 172.501841 
L 206.422658 172.210634 
L 206.679765 171.91942 
L 206.936873 165.51282 
L 207.19398 166.677669 
L 207.451087 167.260074 
L 208.479517 165.512831 
L 208.736624 168.716119 
L 208.993731 169.589758 
L 209.250839 169.007341 
L 210.022161 170.172174 
L 210.793482 173.666681 
L 211.05059 171.628219 
L 211.821912 171.919428 
L 212.079019 171.628219 
L 212.336126 172.210641 
L 212.593234 164.639198 
L 212.850341 164.930415 
L 213.621663 166.095243 
L 213.87877 163.183164 
L 214.135878 164.930412 
L 214.392985 165.221624 
L 214.650092 166.677661 
L 215.421414 165.512825 
L 215.678521 161.144691 
L 216.192736 160.853484 
L 216.449843 163.47436 
L 217.73538 163.474365 
L 218.249595 173.666684 
L 219.020916 170.172169 
L 219.278024 173.957881 
L 219.535131 169.880965 
L 219.792238 171.337 
L 220.820668 169.007338 
L 221.334882 166.677666 
L 221.59199 169.589758 
L 221.849097 166.968878 
L 222.877526 166.677669 
L 223.391741 166.677666 
L 223.648848 166.095243 
L 224.42017 165.804034 
L 224.677277 164.930407 
L 224.934385 164.930417 
L 225.191492 164.347995 
L 225.448599 165.51283 
L 226.219921 163.183156 
L 226.477029 165.512835 
L 226.734136 164.639208 
L 226.991243 164.639198 
L 227.24835 164.930413 
L 228.019672 167.842497 
L 228.27678 163.765572 
L 228.533887 164.056778 
L 228.790994 163.474363 
L 229.048102 164.930402 
L 229.819424 166.968875 
L 230.076531 168.133709 
L 230.333638 168.133714 
L 230.590746 169.298537 
L 230.847853 169.880967 
L 231.619175 170.754587 
L 231.876282 171.919423 
L 232.133389 171.919425 
L 232.390497 175.996348 
L 232.647604 172.793052 
L 233.418926 171.337 
L 233.676033 173.37547 
L 234.190248 174.249102 
L 234.447355 170.172169 
L 235.218677 172.79305 
L 235.475784 172.79305 
L 235.732892 171.919428 
L 235.989999 173.084259 
L 236.247106 176.287562 
L 237.275536 175.122721 
L 237.532643 178.034814 
L 238.046858 175.413935 
L 239.075287 175.41394 
L 239.332394 175.705144 
L 239.589501 175.705149 
L 239.846609 174.540304 
L 240.617931 174.831512 
L 241.132145 175.996346 
L 241.389253 175.996348 
L 241.64636 174.249097 
L 242.417682 171.337012 
L 242.674789 169.298545 
L 242.931897 172.501846 
L 243.189004 171.33701 
L 243.446111 173.957883 
L 244.217433 177.452403 
L 244.47454 175.122719 
L 244.731648 176.578771 
L 244.988755 175.705139 
L 245.245862 176.287557 
L 246.017184 176.578766 
L 246.531399 175.996348 
L 246.788506 177.161182 
L 247.045614 176.578764 
L 247.816935 177.452396 
L 248.074043 176.869973 
L 248.33115 177.452391 
L 248.588257 177.161182 
L 248.845365 178.034809 
L 249.616687 178.326018 
L 249.873794 177.452398 
L 250.130901 175.122721 
L 250.388009 174.540313 
L 250.645116 175.122726 
L 251.673545 174.831515 
L 252.18776 172.79305 
L 253.216189 173.666677 
L 253.473296 173.666682 
L 253.730404 175.705139 
L 253.987511 175.41393 
L 254.244618 178.034811 
L 255.01594 178.034821 
L 255.530155 181.529319 
L 257.329906 181.529316 
L 257.587013 179.782068 
L 257.844121 181.529319 
L 258.615443 181.529314 
L 258.87255 183.858991 
L 259.129657 184.1502 
L 259.386765 177.743602 
L 259.643872 174.540313 
L 260.415194 175.413928 
L 260.929408 177.743604 
L 261.186516 171.628216 
L 261.443623 172.501841 
L 262.214945 173.084259 
L 262.472052 172.501846 
L 262.72916 173.084263 
L 262.986267 171.045796 
L 263.243374 171.045791 
L 264.271803 174.249095 
L 264.528911 173.957896 
L 265.043125 177.743602 
L 265.814447 175.413933 
L 266.071555 178.034809 
L 266.328662 178.32603 
L 266.842877 181.238115 
L 267.871306 181.238115 
L 268.128413 182.111742 
L 268.642628 181.238112 
L 269.41395 182.402955 
L 269.671057 178.617232 
L 269.928164 182.985359 
L 270.185272 182.985364 
L 270.442379 178.034816 
L 271.213701 175.413926 
L 271.470808 170.754582 
L 271.985023 168.716122 
L 272.24213 166.677666 
L 273.013452 166.095241 
L 273.270559 164.347992 
L 273.527667 163.765572 
L 273.784774 163.765576 
L 274.041881 162.600733 
L 274.813203 162.891947 
L 275.070311 164.056785 
L 275.327418 162.600738 
L 275.841632 157.067765 
L 276.612954 158.232601 
L 276.870062 156.194146 
L 277.127169 152.408419 
L 277.384276 143.380949 
L 277.641384 151.243586 
L 278.412706 146.584247 
L 278.669813 147.457862 
L 278.92692 142.798528 
L 279.184028 146.293038 
L 280.212457 145.128195 
L 280.726671 146.584249 
L 280.983779 144.254568 
L 281.240886 146.001832 
L 282.012208 146.875451 
L 282.269315 146.584245 
L 282.526423 147.166658 
L 282.78353 145.419414 
L 285.61171 147.457872 
L 285.868818 148.040292 
L 286.125925 155.320516 
L 286.383032 151.534805 
L 286.64014 152.408429 
L 287.668569 152.11722 
L 287.925676 147.749076 
L 288.182783 147.749081 
L 288.439891 144.545782 
L 289.211213 141.342488 
L 289.46832 143.380944 
L 289.725427 146.875444 
L 290.239642 141.342478 
L 291.010964 145.710613 
L 291.268071 144.545782 
L 291.782286 137.556764 
L 292.039393 139.886428 
L 292.810715 139.595229 
L 293.067822 138.493075 
L 293.32493 138.49308 
L 293.582037 135.550626 
L 293.839144 137.021856 
L 294.867574 140.847048 
L 295.124681 137.610346 
L 295.381788 138.198829 
L 295.638896 138.198832 
L 296.410217 139.081577 
L 296.667325 137.610338 
L 296.924432 137.316102 
L 297.181539 129.959967 
L 297.438647 128.194496 
L 298.209969 127.606008 
L 298.467076 128.488743 
L 298.724183 128.488741 
L 298.981291 127.606006 
L 299.238398 125.25205 
L 300.00972 127.017516 
L 300.266827 132.313933 
L 300.781042 125.840537 
L 301.038149 133.490912 
L 301.809471 132.90242 
L 302.323686 130.842705 
L 302.580793 131.431198 
L 302.8379 131.136946 
L 303.609222 136.139118 
L 303.86633 136.433359 
L 304.123437 134.079402 
L 304.380544 136.43337 
L 304.637651 137.316096 
L 305.408973 134.373647 
L 305.666081 134.373652 
L 305.923188 133.490907 
L 306.180295 132.019685 
L 306.437403 134.667889 
L 307.208725 134.079404 
L 307.465832 133.49091 
L 307.980047 130.548456 
L 308.237154 135.256383 
L 309.265583 136.43336 
L 309.52269 137.316103 
L 309.779798 136.727613 
L 310.036905 137.021854 
L 310.808227 136.433357 
L 311.065334 137.021854 
L 311.836656 128.19451 
L 312.607978 122.309607 
L 312.865085 122.309603 
L 313.3793 126.42902 
L 313.636407 125.840536 
L 314.407729 128.194497 
L 314.921944 124.663559 
L 315.179051 118.778655 
L 315.436159 125.84054 
L 316.207481 122.898093 
L 316.464588 121.132616 
L 316.721695 122.898093 
L 316.978802 120.544136 
L 317.23591 120.54412 
L 318.007232 118.778643 
L 318.778554 111.128273 
L 319.035661 110.539782 
L 319.806983 109.951298 
L 320.06409 112.893754 
L 320.578305 107.597325 
L 320.835412 104.654867 
L 321.606734 101.123938 
L 321.863841 106.420352 
L 322.378056 105.243368 
L 322.635163 104.066377 
L 323.406485 109.9513 
L 323.663593 104.654878 
L 323.9207 104.066377 
L 324.177807 104.066377 
L 324.434915 104.654879 
L 325.206236 108.18581 
L 325.463344 104.65489 
L 325.720451 107.008829 
L 325.977558 104.654883 
L 326.234666 98.18148 
L 327.005988 98.769974 
L 327.263095 98.181485 
L 327.520202 89.354133 
L 327.77731 92.885073 
L 328.034417 91.119602 
L 329.062846 89.354129 
L 329.319953 87.588676 
L 329.577061 87.588664 
L 329.834168 85.234685 
L 330.60549 82.880741 
L 330.862597 79.349781 
L 331.119705 82.880758 
L 331.376812 89.942621 
L 331.633919 89.942621 
L 332.405241 89.354147 
L 332.662349 86.411682 
L 332.919456 86.411686 
L 333.176563 88.177148 
L 333.43367 92.296581 
L 334.204992 92.296578 
L 334.4621 89.942609 
L 334.719207 82.292257 
L 334.976314 78.172818 
L 335.233422 78.761304 
L 336.004744 79.349781 
L 336.518958 83.469235 
L 337.033173 78.761301 
L 337.804495 81.115253 
L 338.061602 79.349805 
L 338.318709 76.407333 
L 338.575817 63.460566 
L 338.832924 71.110921 
L 339.604246 72.876405 
L 339.861353 72.28792 
L 340.375568 76.40735 
L 340.632675 96.416013 
L 341.403997 108.185828 
L 341.661104 94.062052 
L 341.918212 92.296585 
L 342.432426 94.65056 
L 343.203748 95.23904 
L 343.460856 95.239046 
L 343.717963 92.885071 
L 343.97507 92.296581 
L 344.232178 92.885077 
L 345.0035 89.942642 
L 345.260607 87.588664 
L 345.517714 79.349802 
L 345.774821 88.177146 
L 346.031929 84.057738 
L 346.803251 88.765636 
L 347.060358 84.057715 
L 347.317465 81.703751 
L 347.574573 83.469236 
L 347.83168 79.938284 
L 348.603002 79.93828 
L 348.860109 84.057722 
L 349.117217 85.234695 
L 349.374324 88.765635 
L 349.631431 85.234685 
L 350.402753 82.880744 
L 350.65986 87.000174 
L 350.916968 84.646208 
L 351.174075 84.646214 
L 351.431182 82.880723 
L 352.459612 84.057714 
L 352.716719 88.177166 
L 352.973826 88.765646 
L 353.230934 83.46923 
L 354.002255 81.115272 
L 354.259363 78.172814 
L 354.51647 78.172812 
L 354.773577 70.522431 
L 355.030685 69.345462 
L 355.802007 69.933954 
L 356.059114 73.464902 
L 356.573329 69.93394 
L 356.830436 71.699411 
L 357.601758 71.699417 
L 358.115972 68.168476 
L 358.37308 64.637528 
L 358.630187 69.933942 
L 359.401509 69.933945 
L 359.658616 66.403009 
L 359.915724 65.814532 
L 360.172831 66.99149 
L 361.20126 73.464883 
L 361.458368 71.699419 
L 361.715475 74.641875 
L 361.972582 74.641859 
L 362.229689 71.110926 
L 363.001011 80.52678 
L 363.258119 79.349804 
L 363.515226 79.938282 
L 363.772333 75.818852 
L 364.029441 78.172823 
L 364.800763 79.349792 
L 365.05787 76.407353 
L 365.572085 76.407341 
L 365.829192 79.938272 
L 366.600514 76.407349 
L 366.857621 77.584322 
L 367.628943 73.464891 
L 368.400265 74.05338 
L 368.657372 73.464884 
L 368.91448 70.522431 
L 369.171587 71.699417 
L 369.428694 75.81886 
L 370.200016 73.464896 
L 370.457123 73.464888 
L 370.714231 75.818851 
L 370.971338 80.526773 
L 371.999767 86.411688 
L 372.256875 79.349804 
L 373.028197 84.057723 
L 373.799518 83.469231 
L 374.056626 85.823193 
L 376.113484 81.115275 
L 376.370592 74.641882 
L 376.627699 77.584322 
L 377.913235 74.053395 
L 378.170343 68.756973 
L 378.42745 68.168475 
L 379.198772 72.287897 
L 379.455879 71.110921 
L 379.712987 72.287915 
L 379.970094 72.287918 
L 380.227201 75.230373 
L 380.998523 69.345469 
L 381.255631 71.699431 
L 381.512738 71.69942 
L 382.798274 74.641879 
L 383.312489 76.995842 
L 383.569596 79.938289 
L 383.826704 85.234694 
L 384.598026 82.629278 
L 385.11224 86.191492 
L 386.397777 86.191496 
L 386.654884 82.035561 
L 386.911991 85.597783 
L 387.169099 87.378908 
L 387.426206 82.629269 
L 388.197528 83.816684 
L 388.454635 81.441871 
L 388.711743 82.629269 
L 389.225957 87.972589 
L 389.997279 92.12852 
L 390.254386 90.347404 
L 390.511494 93.315925 
L 390.768601 91.534814 
L 391.025708 90.941115 
L 391.79703 90.347409 
L 392.054138 90.941108 
L 393.596782 90.94111 
L 393.853889 91.534817 
L 394.110996 90.941117 
L 394.368103 89.160019 
L 394.625211 82.629265 
L 395.396533 86.191494 
L 395.65364 84.410382 
L 395.910747 80.848147 
L 396.167855 80.254443 
L 396.424962 80.254456 
L 397.196284 80.848159 
L 397.967606 80.848152 
L 398.224713 78.473338 
L 398.996035 74.911124 
L 400.024464 82.629276 
L 400.795786 83.222973 
L 401.052894 82.035558 
L 401.567108 73.130007 
L 401.824216 74.911119 
L 402.595537 73.723702 
L 402.852645 81.441851 
L 403.109752 79.660756 
L 403.366859 76.098517 
L 403.623967 79.067047 
L 404.395289 76.098528 
L 404.652396 73.723718 
L 404.909503 72.536317 
L 405.423718 68.380382 
L 406.19504 71.942596 
L 406.452147 70.755199 
L 406.709254 72.536315 
L 406.966362 71.348898 
L 407.223469 73.130009 
L 407.994791 73.130005 
L 408.251898 72.536308 
L 408.509006 73.130012 
L 409.02322 73.130007 
L 409.794542 73.723719 
L 410.05165 76.098531 
L 410.308757 76.692228 
L 410.565864 78.473345 
L 410.822971 73.130005 
L 411.594293 74.317416 
L 411.851401 69.567778 
L 412.108508 67.192974 
L 412.365615 70.161494 
L 412.622723 76.692234 
L 413.394045 74.317419 
L 413.651152 72.536308 
L 413.908259 73.130012 
L 414.165367 73.130007 
L 414.422474 74.317419 
L 415.193796 72.53631 
L 415.450903 71.3489 
L 415.70801 69.567796 
L 416.222225 70.161492 
L 416.993547 69.567786 
L 417.250654 70.16149 
L 417.507762 70.161486 
L 417.764869 73.130012 
L 418.021976 71.94261 
L 418.793298 82.035564 
L 419.307513 72.536303 
L 419.56462 75.50483 
L 420.850157 78.473334 
L 421.107264 77.285932 
L 421.621479 78.473337 
L 422.392801 79.067046 
L 422.649908 81.44186 
L 423.164122 72.536311 
L 423.42123 76.098527 
L 424.192552 77.879639 
L 424.449659 73.723713 
L 424.706766 73.130015 
L 424.963874 75.50483 
L 425.220981 76.09853 
L 425.992303 73.130006 
L 426.24941 77.879639 
L 426.506518 73.723715 
L 427.020732 72.536308 
L 427.792054 72.53631 
L 428.049161 71.9426 
L 428.306269 70.755197 
L 428.563376 73.130012 
L 428.820483 73.130009 
L 429.591805 72.536308 
L 429.848913 72.536308 
L 430.10602 73.130007 
L 430.363127 73.130009 
L 430.620235 73.723708 
L 431.391556 73.130002 
L 431.648664 75.50482 
L 431.905771 74.911117 
L 432.162878 77.285931 
L 432.419986 73.130012 
L 433.191308 73.130005 
L 433.448415 74.317412 
L 433.705522 74.317417 
L 433.96263 74.911123 
L 434.219737 73.723719 
L 434.991059 76.098522 
L 435.248166 79.067052 
L 435.762381 73.723715 
L 436.019488 75.504818 
L 436.79081 82.035573 
L 437.047917 83.222971 
L 437.305025 77.879638 
L 437.562132 77.879637 
L 437.819239 74.911116 
L 439.104776 74.911116 
L 439.61899 72.536315 
L 440.64742 71.348898 
L 440.904527 75.504823 
L 441.161634 77.285931 
L 441.418742 74.911112 
L 442.190064 79.660744 
L 442.447171 78.473353 
L 442.704278 80.254466 
L 442.961386 79.660753 
L 443.218493 84.410381 
L 443.989815 88.566305 
L 444.246922 88.566299 
L 444.504029 86.785198 
L 444.761137 87.972606 
L 445.018244 86.785196 
L 445.789566 86.785191 
L 446.303781 83.81667 
L 446.817995 87.378898 
L 447.589317 88.566304 
L 447.846424 86.785198 
L 448.360639 87.972606 
L 449.389068 87.972594 
L 449.646176 89.753705 
L 449.903283 90.347416 
L 451.18882 90.347404 
L 451.445927 92.722226 
L 451.960141 83.222973 
L 452.217249 83.222974 
L 452.988571 80.84817 
L 453.245678 82.035557 
L 453.502785 79.660752 
L 453.759893 81.441873 
L 454.017 82.035561 
L 454.788322 85.004082 
L 455.045429 87.972608 
L 455.302537 86.785195 
L 455.816751 82.03557 
L 456.588073 82.629281 
L 456.84518 82.03557 
L 457.359395 83.222972 
L 457.616502 81.441853 
L 458.902039 78.473341 
L 459.159146 77.285938 
L 459.416254 73.130007 
L 460.187575 73.723708 
L 460.444683 75.504824 
L 460.70179 73.130012 
L 460.958897 72.536308 
L 461.216005 73.130012 
L 461.987327 72.536308 
L 462.244434 71.942604 
L 462.501541 73.130012 
L 462.758649 71.942607 
L 463.787078 72.53631 
L 464.044185 71.942607 
L 464.5584 73.130012 
L 464.815507 73.130007 
L 467.643688 86.785195 
L 468.157902 79.067038 
L 468.415009 78.473337 
L 469.186331 77.285933 
L 469.443439 73.130021 
L 469.700546 71.348901 
L 469.957653 71.348907 
L 470.214761 70.755198 
L 470.986083 71.942613 
L 471.24319 68.974093 
L 471.757405 71.942597 
L 472.014512 74.317419 
L 472.785834 70.755197 
L 473.300048 73.130007 
L 474.585585 76.098529 
L 475.0998 79.067038 
L 475.356907 78.473348 
L 475.614014 78.473337 
L 476.385336 79.06704 
L 476.642443 76.692231 
L 476.899551 79.067047 
L 478.185087 74.317411 
L 478.699302 76.195598 
L 478.956409 76.195598 
L 479.213517 78.594298 
L 479.984839 83.991379 
L 480.241946 75.595926 
L 480.75616 78.594307 
L 481.013268 77.994625 
L 481.78459 77.994624 
L 482.041697 79.193984 
L 482.298804 77.994621 
L 482.555912 80.993003 
L 482.813019 82.192354 
L 484.098555 86.390086 
L 484.355663 83.391705 
L 484.61277 82.192362 
L 485.384092 83.391712 
L 485.641199 80.393327 
L 485.898307 82.792025 
L 486.155414 80.393335 
L 486.412521 83.391708 
L 487.183843 77.394946 
L 487.440951 80.993006 
L 487.698058 79.193976 
L 487.955165 79.793651 
L 488.212272 79.793658 
L 488.983594 77.394952 
L 489.240702 75.595929 
L 489.497809 71.997875 
L 489.754916 70.798523 
L 490.012024 68.999501 
L 490.783346 68.99949 
L 491.040453 69.59917 
L 491.554668 75.595921 
L 491.811775 74.39657 
L 492.583097 69.599166 
L 492.840204 72.597547 
L 493.097311 72.597555 
L 493.354419 74.396578 
L 493.611526 72.597555 
L 494.382848 76.195597 
L 494.897063 73.19722 
L 496.182599 82.792037 
L 496.439706 80.393334 
L 496.696814 80.993009 
L 496.953921 78.5943 
L 497.211028 79.193978 
L 497.98235 75.595922 
L 498.239458 74.99625 
L 498.496565 76.795283 
L 498.753672 73.796906 
L 499.01078 72.597555 
L 499.782102 76.79528 
L 500.296316 70.198845 
L 500.553423 73.19723 
L 500.810531 71.398204 
L 501.581853 75.595933 
L 501.83896 74.996253 
L 502.096067 71.997872 
L 502.353175 71.398204 
L 502.610282 74.396577 
L 503.381604 71.398204 
L 503.638711 73.197223 
L 503.895819 71.3982 
L 504.152926 71.398204 
L 504.410033 71.997867 
L 505.181355 70.198844 
L 505.438462 67.800152 
L 506.209784 50.40955 
L 507.238214 56.406305 
L 507.495321 56.406316 
L 507.752428 58.805018 
L 508.009536 58.205343 
L 508.780857 58.205334 
L 509.295072 45.612152 
L 509.552179 47.411182 
L 509.809287 52.208587 
L 510.580609 51.608912 
L 511.351931 57.605656 
L 511.609038 56.406305 
L 512.38036 57.005991 
L 512.637467 56.406309 
L 512.894574 57.005984 
L 513.151682 57.005984 
L 513.408789 53.407935 
L 514.180111 54.607289 
L 514.437218 53.407936 
L 514.694326 47.411182 
L 514.951433 48.610528 
L 515.20854 45.012479 
L 516.23697 43.213451 
L 516.494077 38.416045 
L 516.751184 31.219943 
L 517.008291 31.819616 
L 517.779613 35.417664 
L 518.036721 31.219948 
L 518.293828 38.416043 
L 518.550935 38.416049 
L 518.808043 46.211832 
L 519.579365 51.009231 
L 519.836472 48.010853 
L 520.093579 47.411181 
L 520.350687 56.406313 
L 520.607794 56.406313 
L 521.379116 58.205332 
L 521.636223 57.00598 
L 521.89333 57.605659 
L 522.150438 67.200467 
L 522.407545 68.999491 
L 523.178867 72.597543 
L 523.693082 67.800143 
L 523.950189 71.997879 
L 524.207296 70.198853 
L 524.978618 69.599172 
L 525.235725 68.399822 
L 526.007047 73.197231 
L 526.778369 73.796898 
L 527.035477 68.999498 
L 527.292584 70.798522 
L 527.549691 63.002738 
L 527.806799 65.401438 
L 528.578121 63.002742 
L 528.835228 68.399823 
L 529.092335 64.801772 
L 529.60655 68.999489 
L 530.377872 68.9995 
L 530.634979 69.599178 
L 530.892086 74.396582 
L 531.406301 78.594307 
L 532.177623 78.594305 
L 532.43473 74.396579 
L 533.206052 77.394949 
L 533.977374 76.195608 
L 534.748696 71.398201 
L 535.005803 75.595932 
L 536.034233 73.796906 
L 536.29134 74.39657 
L 536.548447 72.597545 
L 536.805555 76.79528 
L 537.576876 76.195601 
L 537.833984 75.595925 
L 538.091091 76.795283 
L 538.348198 74.396568 
L 538.605306 77.394948 
L 539.376628 75.59593 
L 539.633735 77.39495 
L 539.890842 80.393332 
L 540.14795 70.198854 
L 540.405057 76.795282 
L 541.947701 80.993002 
L 542.204808 76.1956 
L 543.233237 72.597554 
L 543.490345 74.996255 
L 543.747452 71.398191 
L 544.004559 71.398196 
L 544.775881 70.798523 
L 545.032989 65.401443 
L 545.290096 63.002741 
L 545.547203 66.600793 
L 545.80431 73.197224 
L 546.575632 75.595923 
L 547.089847 82.792034 
L 547.346954 98.383587 
L 547.604062 91.787169 
L 548.375384 94.785542 
L 548.632491 94.185865 
L 549.403813 114.574838 
L 550.175135 110.976782 
L 550.432242 101.381978 
L 550.689349 104.380355 
L 550.946457 101.981647 
L 551.203564 103.180993 
L 551.974886 100.182623 
L 552.231993 101.381976 
L 552.489101 106.179378 
L 552.746208 98.383597 
L 553.003315 99.582949 
L 553.774637 100.782302 
L 554.031744 99.582951 
L 554.288852 112.176133 
L 554.803066 117.573213 
L 555.831496 138.561851 
L 556.34571 125.368988 
L 559.430998 124.169637 
L 559.688105 123.569961 
L 560.20232 112.176132 
L 560.973642 115.17451 
L 561.230749 113.975149 
L 561.744964 128.067533 
L 562.773393 127.76769 
L 563.0305 129.566719 
L 563.287608 129.866558 
L 563.544715 124.169637 
L 563.801822 121.171266 
L 564.573144 119.971913 
L 564.830252 122.370617 
L 565.601574 114.574824 
L 566.372895 116.973533 
L 566.630003 113.375486 
L 566.88711 107.378719 
L 567.401325 102.581326 
L 568.686861 101.981648 
L 568.943969 96.584567 
L 569.201076 99.582939 
L 569.972398 95.38521 
L 570.229505 94.785535 
L 570.486612 90.587809 
L 570.74372 88.788786 
L 571.000827 89.988137 
L 571.772149 89.388461 
L 572.029256 89.388466 
L 572.286364 92.986521 
L 572.286364 92.986521 
" clip-path="url(#p227fd7dd0f)" style="fill: none; stroke: #0070c0; stroke-width: 1.5; stroke-linecap: square"/>
   </g>
   <g id="patch_3">
    <path d="M 39.65 218.158125 
L 39.65 22.318125 
" style="fill: none; stroke: #000000; stroke-width: 0.8; stroke-linejoin: miter; stroke-linecap: square"/>
   </g>
   <g id="patch_4">
    <path d="M 597.65 218.158125 
L 597.65 22.318125 
" style="fill: none; stroke: #000000; stroke-width: 0.8; stroke-linejoin: miter; stroke-linecap: square"/>
   </g>
   <g id="patch_5">
    <path d="M 39.65 218.158125 
L 597.65 218.158125 
" style="fill: none; stroke: #000000; stroke-width: 0.8; stroke-linejoin: miter; stroke-linecap: square"/>
   </g>
   <g id="patch_6">
    <path d="M 39.65 22.318125 
L 597.65 22.318125 
" style="fill: none; stroke: #000000; stroke-width: 0.8; stroke-linejoin: miter; stroke-linecap: square"/>
   </g>
   <g id="text_15">
    <!-- Original Dataset -->
    <g transform="translate(269.76875 16.318125) scale(0.12 -0.12)">
     <defs>
      <path id="DejaVuSans-4f" d="M 2522 4238 
Q 1834 4238 1429 3725 
Q 1025 3213 1025 2328 
Q 1025 1447 1429 934 
Q 1834 422 2522 422 
Q 3209 422 3611 934 
Q 4013 1447 4013 2328 
Q 4013 3213 3611 3725 
Q 3209 4238 2522 4238 
z
M 2522 4750 
Q 3503 4750 4090 4092 
Q 4678 3434 4678 2328 
Q 4678 1225 4090 567 
Q 3503 -91 2522 -91 
Q 1538 -91 948 565 
Q 359 1222 359 2328 
Q 359 3434 948 4092 
Q 1538 4750 2522 4750 
z
" transform="scale(0.015625)"/>
      <path id="DejaVuSans-72" d="M 2631 2963 
Q 2534 3019 2420 3045 
Q 2306 3072 2169 3072 
Q 1681 3072 1420 2755 
Q 1159 2438 1159 1844 
L 1159 0 
L 581 0 
L 581 3500 
L 1159 3500 
L 1159 2956 
Q 1341 3275 1631 3429 
Q 1922 3584 2338 3584 
Q 2397 3584 2469 3576 
Q 2541 3569 2628 3553 
L 2631 2963 
z
" transform="scale(0.015625)"/>
      <path id="DejaVuSans-67" d="M 2906 1791 
Q 2906 2416 2648 2759 
Q 2391 3103 1925 3103 
Q 1463 3103 1205 2759 
Q 947 2416 947 1791 
Q 947 1169 1205 825 
Q 1463 481 1925 481 
Q 2391 481 2648 825 
Q 2906 1169 2906 1791 
z
M 3481 434 
Q 3481 -459 3084 -895 
Q 2688 -1331 1869 -1331 
Q 1566 -1331 1297 -1286 
Q 1028 -1241 775 -1147 
L 775 -588 
Q 1028 -725 1275 -790 
Q 1522 -856 1778 -856 
Q 2344 -856 2625 -561 
Q 2906 -266 2906 331 
L 2906 616 
Q 2728 306 2450 153 
Q 2172 0 1784 0 
Q 1141 0 747 490 
Q 353 981 353 1791 
Q 353 2603 747 3093 
Q 1141 3584 1784 3584 
Q 2172 3584 2450 3431 
Q 2728 3278 2906 2969 
L 2906 3500 
L 3481 3500 
L 3481 434 
z
" transform="scale(0.015625)"/>
      <path id="DejaVuSans-6e" d="M 3513 2113 
L 3513 0 
L 2938 0 
L 2938 2094 
Q 2938 2591 2744 2837 
Q 2550 3084 2163 3084 
Q 1697 3084 1428 2787 
Q 1159 2491 1159 1978 
L 1159 0 
L 581 0 
L 581 3500 
L 1159 3500 
L 1159 2956 
Q 1366 3272 1645 3428 
Q 1925 3584 2291 3584 
Q 2894 3584 3203 3211 
Q 3513 2838 3513 2113 
z
" transform="scale(0.015625)"/>
      <path id="DejaVuSans-61" d="M 2194 1759 
Q 1497 1759 1228 1600 
Q 959 1441 959 1056 
Q 959 750 1161 570 
Q 1363 391 1709 391 
Q 2188 391 2477 730 
Q 2766 1069 2766 1631 
L 2766 1759 
L 2194 1759 
z
M 3341 1997 
L 3341 0 
L 2766 0 
L 2766 531 
Q 2569 213 2275 61 
Q 1981 -91 1556 -91 
Q 1019 -91 701 211 
Q 384 513 384 1019 
Q 384 1609 779 1909 
Q 1175 2209 1959 2209 
L 2766 2209 
L 2766 2266 
Q 2766 2663 2505 2880 
Q 2244 3097 1772 3097 
Q 1472 3097 1187 3025 
Q 903 2953 641 2809 
L 641 3341 
Q 956 3463 1253 3523 
Q 1550 3584 1831 3584 
Q 2591 3584 2966 3190 
Q 3341 2797 3341 1997 
z
" transform="scale(0.015625)"/>
      <path id="DejaVuSans-6c" d="M 603 4863 
L 1178 4863 
L 1178 0 
L 603 0 
L 603 4863 
z
" transform="scale(0.015625)"/>
      <path id="DejaVuSans-20" transform="scale(0.015625)"/>
      <path id="DejaVuSans-44" d="M 1259 4147 
L 1259 519 
L 2022 519 
Q 2988 519 3436 956 
Q 3884 1394 3884 2338 
Q 3884 3275 3436 3711 
Q 2988 4147 2022 4147 
L 1259 4147 
z
M 628 4666 
L 1925 4666 
Q 3281 4666 3915 4102 
Q 4550 3538 4550 2338 
Q 4550 1131 3912 565 
Q 3275 0 1925 0 
L 628 0 
L 628 4666 
z
" transform="scale(0.015625)"/>
      <path id="DejaVuSans-74" d="M 1172 4494 
L 1172 3500 
L 2356 3500 
L 2356 3053 
L 1172 3053 
L 1172 1153 
Q 1172 725 1289 603 
Q 1406 481 1766 481 
L 2356 481 
L 2356 0 
L 1766 0 
Q 1100 0 847 248 
Q 594 497 594 1153 
L 594 3053 
L 172 3053 
L 172 3500 
L 594 3500 
L 594 4494 
L 1172 4494 
z
" transform="scale(0.015625)"/>
      <path id="DejaVuSans-73" d="M 2834 3397 
L 2834 2853 
Q 2591 2978 2328 3040 
Q 2066 3103 1784 3103 
Q 1356 3103 1142 2972 
Q 928 2841 928 2578 
Q 928 2378 1081 2264 
Q 1234 2150 1697 2047 
L 1894 2003 
Q 2506 1872 2764 1633 
Q 3022 1394 3022 966 
Q 3022 478 2636 193 
Q 2250 -91 1575 -91 
Q 1294 -91 989 -36 
Q 684 19 347 128 
L 347 722 
Q 666 556 975 473 
Q 1284 391 1588 391 
Q 1994 391 2212 530 
Q 2431 669 2431 922 
Q 2431 1156 2273 1281 
Q 2116 1406 1581 1522 
L 1381 1569 
Q 847 1681 609 1914 
Q 372 2147 372 2553 
Q 372 3047 722 3315 
Q 1072 3584 1716 3584 
Q 2034 3584 2315 3537 
Q 2597 3491 2834 3397 
z
" transform="scale(0.015625)"/>
     </defs>
     <use xlink:href="#DejaVuSans-4f"/>
     <use xlink:href="#DejaVuSans-72" transform="translate(78.710938 0)"/>
     <use xlink:href="#DejaVuSans-69" transform="translate(119.824219 0)"/>
     <use xlink:href="#DejaVuSans-67" transform="translate(147.607422 0)"/>
     <use xlink:href="#DejaVuSans-69" transform="translate(211.083984 0)"/>
     <use xlink:href="#DejaVuSans-6e" transform="translate(238.867188 0)"/>
     <use xlink:href="#DejaVuSans-61" transform="translate(302.246094 0)"/>
     <use xlink:href="#DejaVuSans-6c" transform="translate(363.525391 0)"/>
     <use xlink:href="#DejaVuSans-20" transform="translate(391.308594 0)"/>
     <use xlink:href="#DejaVuSans-44" transform="translate(423.095703 0)"/>
     <use xlink:href="#DejaVuSans-61" transform="translate(500.097656 0)"/>
     <use xlink:href="#DejaVuSans-74" transform="translate(561.376953 0)"/>
     <use xlink:href="#DejaVuSans-61" transform="translate(600.585938 0)"/>
     <use xlink:href="#DejaVuSans-73" transform="translate(661.865234 0)"/>
     <use xlink:href="#DejaVuSans-65" transform="translate(713.964844 0)"/>
     <use xlink:href="#DejaVuSans-74" transform="translate(775.488281 0)"/>
    </g>
   </g>
   <g id="legend_1">
    <g id="patch_7">
     <path d="M 46.65 44.99625 
L 143.484375 44.99625 
Q 145.484375 44.99625 145.484375 42.99625 
L 145.484375 29.318125 
Q 145.484375 27.318125 143.484375 27.318125 
L 46.65 27.318125 
Q 44.65 27.318125 44.65 29.318125 
L 44.65 42.99625 
Q 44.65 44.99625 46.65 44.99625 
z
" style="fill: #ffffff; opacity: 0.8; stroke: #cccccc; stroke-linejoin: miter"/>
    </g>
    <g id="line2d_15">
     <path d="M 48.65 35.416562 
L 58.65 35.416562 
L 68.65 35.416562 
" style="fill: none; stroke: #0070c0; stroke-width: 1.5; stroke-linecap: square"/>
    </g>
    <g id="text_16">
     <!-- Original data -->
     <g transform="translate(76.65 38.916562) scale(0.1 -0.1)">
      <defs>
       <path id="DejaVuSans-64" d="M 2906 2969 
L 2906 4863 
L 3481 4863 
L 3481 0 
L 2906 0 
L 2906 525 
Q 2725 213 2448 61 
Q 2172 -91 1784 -91 
Q 1150 -91 751 415 
Q 353 922 353 1747 
Q 353 2572 751 3078 
Q 1150 3584 1784 3584 
Q 2172 3584 2448 3432 
Q 2725 3281 2906 2969 
z
M 947 1747 
Q 947 1113 1208 752 
Q 1469 391 1925 391 
Q 2381 391 2643 752 
Q 2906 1113 2906 1747 
Q 2906 2381 2643 2742 
Q 2381 3103 1925 3103 
Q 1469 3103 1208 2742 
Q 947 2381 947 1747 
z
" transform="scale(0.015625)"/>
      </defs>
      <use xlink:href="#DejaVuSans-4f"/>
      <use xlink:href="#DejaVuSans-72" transform="translate(78.710938 0)"/>
      <use xlink:href="#DejaVuSans-69" transform="translate(119.824219 0)"/>
      <use xlink:href="#DejaVuSans-67" transform="translate(147.607422 0)"/>
      <use xlink:href="#DejaVuSans-69" transform="translate(211.083984 0)"/>
      <use xlink:href="#DejaVuSans-6e" transform="translate(238.867188 0)"/>
      <use xlink:href="#DejaVuSans-61" transform="translate(302.246094 0)"/>
      <use xlink:href="#DejaVuSans-6c" transform="translate(363.525391 0)"/>
      <use xlink:href="#DejaVuSans-20" transform="translate(391.308594 0)"/>
      <use xlink:href="#DejaVuSans-64" transform="translate(423.095703 0)"/>
      <use xlink:href="#DejaVuSans-61" transform="translate(486.572266 0)"/>
      <use xlink:href="#DejaVuSans-74" transform="translate(547.851562 0)"/>
      <use xlink:href="#DejaVuSans-61" transform="translate(587.060547 0)"/>
     </g>
    </g>
   </g>
  </g>
 </g>
 <defs>
  <clipPath id="p227fd7dd0f">
   <rect x="39.65" y="22.318125" width="558" height="195.84"/>
  </clipPath>
 </defs>
</svg>
