<?xml version="1.0" encoding="utf-8" standalone="no"?>
<!DOCTYPE svg PUBLIC "-//W3C//DTD SVG 1.1//EN"
  "http://www.w3.org/Graphics/SVG/1.1/DTD/svg11.dtd">
<svg xmlns:xlink="http://www.w3.org/1999/xlink" width="1144.505312pt" height="568.398125pt" viewBox="0 0 1144.505312 568.398125" xmlns="http://www.w3.org/2000/svg" version="1.1">
 <metadata>
  <rdf:RDF xmlns:dc="http://purl.org/dc/elements/1.1/" xmlns:cc="http://creativecommons.org/ns#" xmlns:rdf="http://www.w3.org/1999/02/22-rdf-syntax-ns#">
   <cc:Work>
    <dc:type rdf:resource="http://purl.org/dc/dcmitype/StillImage"/>
    <dc:date>2025-04-15T09:04:26.295584</dc:date>
    <dc:format>image/svg+xml</dc:format>
    <dc:creator>
     <cc:Agent>
      <dc:title>Matplotlib v3.10.1, https://matplotlib.org/</dc:title>
     </cc:Agent>
    </dc:creator>
   </cc:Work>
  </rdf:RDF>
 </metadata>
 <defs>
  <style type="text/css">*{stroke-linejoin: round; stroke-linecap: butt}</style>
 </defs>
 <g id="figure_1">
  <g id="patch_1">
   <path d="M 0 568.398125 
L 1144.505312 568.398125 
L 1144.505312 0 
L 0 0 
z
" style="fill: #ffffff"/>
  </g>
  <g id="axes_1">
   <g id="patch_2">
    <path d="M 55.345313 120.62 
L 1137.305313 120.62 
L 1137.305313 7.2 
L 55.345313 7.2 
z
" style="fill: #ffffff"/>
   </g>
   <g id="matplotlib.axis_1">
    <g id="xtick_1">
     <g id="line2d_1">
      <defs>
       <path id="mec52677648" d="M 0 0 
L 0 3.5 
" style="stroke: #000000; stroke-width: 0.8"/>
      </defs>
      <g>
       <use xlink:href="#mec52677648" x="104.525313" y="120.62" style="stroke: #000000; stroke-width: 0.8"/>
      </g>
     </g>
     <g id="text_1">
      <!-- 0 -->
      <g transform="translate(101.344063 135.218437) scale(0.1 -0.1)">
       <defs>
        <path id="DejaVuSans-30" d="M 2034 4250 
Q 1547 4250 1301 3770 
Q 1056 3291 1056 2328 
Q 1056 1369 1301 889 
Q 1547 409 2034 409 
Q 2525 409 2770 889 
Q 3016 1369 3016 2328 
Q 3016 3291 2770 3770 
Q 2525 4250 2034 4250 
z
M 2034 4750 
Q 2819 4750 3233 4129 
Q 3647 3509 3647 2328 
Q 3647 1150 3233 529 
Q 2819 -91 2034 -91 
Q 1250 -91 836 529 
Q 422 1150 422 2328 
Q 422 3509 836 4129 
Q 1250 4750 2034 4750 
z
" transform="scale(0.015625)"/>
       </defs>
       <use xlink:href="#DejaVuSans-30"/>
      </g>
     </g>
    </g>
    <g id="xtick_2">
     <g id="line2d_2">
      <g>
       <use xlink:href="#mec52677648" x="339.836317" y="120.62" style="stroke: #000000; stroke-width: 0.8"/>
      </g>
     </g>
     <g id="text_2">
      <!-- 100 -->
      <g transform="translate(330.292567 135.218437) scale(0.1 -0.1)">
       <defs>
        <path id="DejaVuSans-31" d="M 794 531 
L 1825 531 
L 1825 4091 
L 703 3866 
L 703 4441 
L 1819 4666 
L 2450 4666 
L 2450 531 
L 3481 531 
L 3481 0 
L 794 0 
L 794 531 
z
" transform="scale(0.015625)"/>
       </defs>
       <use xlink:href="#DejaVuSans-31"/>
       <use xlink:href="#DejaVuSans-30" transform="translate(63.623047 0)"/>
       <use xlink:href="#DejaVuSans-30" transform="translate(127.246094 0)"/>
      </g>
     </g>
    </g>
    <g id="xtick_3">
     <g id="line2d_3">
      <g>
       <use xlink:href="#mec52677648" x="575.147322" y="120.62" style="stroke: #000000; stroke-width: 0.8"/>
      </g>
     </g>
     <g id="text_3">
      <!-- 200 -->
      <g transform="translate(565.603572 135.218437) scale(0.1 -0.1)">
       <defs>
        <path id="DejaVuSans-32" d="M 1228 531 
L 3431 531 
L 3431 0 
L 469 0 
L 469 531 
Q 828 903 1448 1529 
Q 2069 2156 2228 2338 
Q 2531 2678 2651 2914 
Q 2772 3150 2772 3378 
Q 2772 3750 2511 3984 
Q 2250 4219 1831 4219 
Q 1534 4219 1204 4116 
Q 875 4013 500 3803 
L 500 4441 
Q 881 4594 1212 4672 
Q 1544 4750 1819 4750 
Q 2544 4750 2975 4387 
Q 3406 4025 3406 3419 
Q 3406 3131 3298 2873 
Q 3191 2616 2906 2266 
Q 2828 2175 2409 1742 
Q 1991 1309 1228 531 
z
" transform="scale(0.015625)"/>
       </defs>
       <use xlink:href="#DejaVuSans-32"/>
       <use xlink:href="#DejaVuSans-30" transform="translate(63.623047 0)"/>
       <use xlink:href="#DejaVuSans-30" transform="translate(127.246094 0)"/>
      </g>
     </g>
    </g>
    <g id="xtick_4">
     <g id="line2d_4">
      <g>
       <use xlink:href="#mec52677648" x="810.458327" y="120.62" style="stroke: #000000; stroke-width: 0.8"/>
      </g>
     </g>
     <g id="text_4">
      <!-- 300 -->
      <g transform="translate(800.914577 135.218437) scale(0.1 -0.1)">
       <defs>
        <path id="DejaVuSans-33" d="M 2597 2516 
Q 3050 2419 3304 2112 
Q 3559 1806 3559 1356 
Q 3559 666 3084 287 
Q 2609 -91 1734 -91 
Q 1441 -91 1130 -33 
Q 819 25 488 141 
L 488 750 
Q 750 597 1062 519 
Q 1375 441 1716 441 
Q 2309 441 2620 675 
Q 2931 909 2931 1356 
Q 2931 1769 2642 2001 
Q 2353 2234 1838 2234 
L 1294 2234 
L 1294 2753 
L 1863 2753 
Q 2328 2753 2575 2939 
Q 2822 3125 2822 3475 
Q 2822 3834 2567 4026 
Q 2313 4219 1838 4219 
Q 1578 4219 1281 4162 
Q 984 4106 628 3988 
L 628 4550 
Q 988 4650 1302 4700 
Q 1616 4750 1894 4750 
Q 2613 4750 3031 4423 
Q 3450 4097 3450 3541 
Q 3450 3153 3228 2886 
Q 3006 2619 2597 2516 
z
" transform="scale(0.015625)"/>
       </defs>
       <use xlink:href="#DejaVuSans-33"/>
       <use xlink:href="#DejaVuSans-30" transform="translate(63.623047 0)"/>
       <use xlink:href="#DejaVuSans-30" transform="translate(127.246094 0)"/>
      </g>
     </g>
    </g>
    <g id="xtick_5">
     <g id="line2d_5">
      <g>
       <use xlink:href="#mec52677648" x="1045.769332" y="120.62" style="stroke: #000000; stroke-width: 0.8"/>
      </g>
     </g>
     <g id="text_5">
      <!-- 400 -->
      <g transform="translate(1036.225582 135.218437) scale(0.1 -0.1)">
       <defs>
        <path id="DejaVuSans-34" d="M 2419 4116 
L 825 1625 
L 2419 1625 
L 2419 4116 
z
M 2253 4666 
L 3047 4666 
L 3047 1625 
L 3713 1625 
L 3713 1100 
L 3047 1100 
L 3047 0 
L 2419 0 
L 2419 1100 
L 313 1100 
L 313 1709 
L 2253 4666 
z
" transform="scale(0.015625)"/>
       </defs>
       <use xlink:href="#DejaVuSans-34"/>
       <use xlink:href="#DejaVuSans-30" transform="translate(63.623047 0)"/>
       <use xlink:href="#DejaVuSans-30" transform="translate(127.246094 0)"/>
      </g>
     </g>
    </g>
   </g>
   <g id="matplotlib.axis_2">
    <g id="ytick_1">
     <g id="line2d_6">
      <defs>
       <path id="m87401c6561" d="M 0 0 
L -3.5 0 
" style="stroke: #000000; stroke-width: 0.8"/>
      </defs>
      <g>
       <use xlink:href="#m87401c6561" x="55.345313" y="98.372799" style="stroke: #000000; stroke-width: 0.8"/>
      </g>
     </g>
     <g id="text_6">
      <!-- 750 -->
      <g transform="translate(29.257813 102.172018) scale(0.1 -0.1)">
       <defs>
        <path id="DejaVuSans-37" d="M 525 4666 
L 3525 4666 
L 3525 4397 
L 1831 0 
L 1172 0 
L 2766 4134 
L 525 4134 
L 525 4666 
z
" transform="scale(0.015625)"/>
        <path id="DejaVuSans-35" d="M 691 4666 
L 3169 4666 
L 3169 4134 
L 1269 4134 
L 1269 2991 
Q 1406 3038 1543 3061 
Q 1681 3084 1819 3084 
Q 2600 3084 3056 2656 
Q 3513 2228 3513 1497 
Q 3513 744 3044 326 
Q 2575 -91 1722 -91 
Q 1428 -91 1123 -41 
Q 819 9 494 109 
L 494 744 
Q 775 591 1075 516 
Q 1375 441 1709 441 
Q 2250 441 2565 725 
Q 2881 1009 2881 1497 
Q 2881 1984 2565 2268 
Q 2250 2553 1709 2553 
Q 1456 2553 1204 2497 
Q 953 2441 691 2322 
L 691 4666 
z
" transform="scale(0.015625)"/>
       </defs>
       <use xlink:href="#DejaVuSans-37"/>
       <use xlink:href="#DejaVuSans-35" transform="translate(63.623047 0)"/>
       <use xlink:href="#DejaVuSans-30" transform="translate(127.246094 0)"/>
      </g>
     </g>
    </g>
    <g id="ytick_2">
     <g id="line2d_7">
      <g>
       <use xlink:href="#m87401c6561" x="55.345313" y="71.190972" style="stroke: #000000; stroke-width: 0.8"/>
      </g>
     </g>
     <g id="text_7">
      <!-- 1000 -->
      <g transform="translate(22.895313 74.99019) scale(0.1 -0.1)">
       <use xlink:href="#DejaVuSans-31"/>
       <use xlink:href="#DejaVuSans-30" transform="translate(63.623047 0)"/>
       <use xlink:href="#DejaVuSans-30" transform="translate(127.246094 0)"/>
       <use xlink:href="#DejaVuSans-30" transform="translate(190.869141 0)"/>
      </g>
     </g>
    </g>
    <g id="ytick_3">
     <g id="line2d_8">
      <g>
       <use xlink:href="#m87401c6561" x="55.345313" y="44.009144" style="stroke: #000000; stroke-width: 0.8"/>
      </g>
     </g>
     <g id="text_8">
      <!-- 1250 -->
      <g transform="translate(22.895313 47.808363) scale(0.1 -0.1)">
       <use xlink:href="#DejaVuSans-31"/>
       <use xlink:href="#DejaVuSans-32" transform="translate(63.623047 0)"/>
       <use xlink:href="#DejaVuSans-35" transform="translate(127.246094 0)"/>
       <use xlink:href="#DejaVuSans-30" transform="translate(190.869141 0)"/>
      </g>
     </g>
    </g>
    <g id="ytick_4">
     <g id="line2d_9">
      <g>
       <use xlink:href="#m87401c6561" x="55.345313" y="16.827317" style="stroke: #000000; stroke-width: 0.8"/>
      </g>
     </g>
     <g id="text_9">
      <!-- 1500 -->
      <g transform="translate(22.895313 20.626535) scale(0.1 -0.1)">
       <use xlink:href="#DejaVuSans-31"/>
       <use xlink:href="#DejaVuSans-35" transform="translate(63.623047 0)"/>
       <use xlink:href="#DejaVuSans-30" transform="translate(127.246094 0)"/>
       <use xlink:href="#DejaVuSans-30" transform="translate(190.869141 0)"/>
      </g>
     </g>
    </g>
    <g id="text_10">
     <!-- Original Data -->
     <g transform="translate(16.815625 97.002969) rotate(-90) scale(0.1 -0.1)">
      <defs>
       <path id="DejaVuSans-4f" d="M 2522 4238 
Q 1834 4238 1429 3725 
Q 1025 3213 1025 2328 
Q 1025 1447 1429 934 
Q 1834 422 2522 422 
Q 3209 422 3611 934 
Q 4013 1447 4013 2328 
Q 4013 3213 3611 3725 
Q 3209 4238 2522 4238 
z
M 2522 4750 
Q 3503 4750 4090 4092 
Q 4678 3434 4678 2328 
Q 4678 1225 4090 567 
Q 3503 -91 2522 -91 
Q 1538 -91 948 565 
Q 359 1222 359 2328 
Q 359 3434 948 4092 
Q 1538 4750 2522 4750 
z
" transform="scale(0.015625)"/>
       <path id="DejaVuSans-72" d="M 2631 2963 
Q 2534 3019 2420 3045 
Q 2306 3072 2169 3072 
Q 1681 3072 1420 2755 
Q 1159 2438 1159 1844 
L 1159 0 
L 581 0 
L 581 3500 
L 1159 3500 
L 1159 2956 
Q 1341 3275 1631 3429 
Q 1922 3584 2338 3584 
Q 2397 3584 2469 3576 
Q 2541 3569 2628 3553 
L 2631 2963 
z
" transform="scale(0.015625)"/>
       <path id="DejaVuSans-69" d="M 603 3500 
L 1178 3500 
L 1178 0 
L 603 0 
L 603 3500 
z
M 603 4863 
L 1178 4863 
L 1178 4134 
L 603 4134 
L 603 4863 
z
" transform="scale(0.015625)"/>
       <path id="DejaVuSans-67" d="M 2906 1791 
Q 2906 2416 2648 2759 
Q 2391 3103 1925 3103 
Q 1463 3103 1205 2759 
Q 947 2416 947 1791 
Q 947 1169 1205 825 
Q 1463 481 1925 481 
Q 2391 481 2648 825 
Q 2906 1169 2906 1791 
z
M 3481 434 
Q 3481 -459 3084 -895 
Q 2688 -1331 1869 -1331 
Q 1566 -1331 1297 -1286 
Q 1028 -1241 775 -1147 
L 775 -588 
Q 1028 -725 1275 -790 
Q 1522 -856 1778 -856 
Q 2344 -856 2625 -561 
Q 2906 -266 2906 331 
L 2906 616 
Q 2728 306 2450 153 
Q 2172 0 1784 0 
Q 1141 0 747 490 
Q 353 981 353 1791 
Q 353 2603 747 3093 
Q 1141 3584 1784 3584 
Q 2172 3584 2450 3431 
Q 2728 3278 2906 2969 
L 2906 3500 
L 3481 3500 
L 3481 434 
z
" transform="scale(0.015625)"/>
       <path id="DejaVuSans-6e" d="M 3513 2113 
L 3513 0 
L 2938 0 
L 2938 2094 
Q 2938 2591 2744 2837 
Q 2550 3084 2163 3084 
Q 1697 3084 1428 2787 
Q 1159 2491 1159 1978 
L 1159 0 
L 581 0 
L 581 3500 
L 1159 3500 
L 1159 2956 
Q 1366 3272 1645 3428 
Q 1925 3584 2291 3584 
Q 2894 3584 3203 3211 
Q 3513 2838 3513 2113 
z
" transform="scale(0.015625)"/>
       <path id="DejaVuSans-61" d="M 2194 1759 
Q 1497 1759 1228 1600 
Q 959 1441 959 1056 
Q 959 750 1161 570 
Q 1363 391 1709 391 
Q 2188 391 2477 730 
Q 2766 1069 2766 1631 
L 2766 1759 
L 2194 1759 
z
M 3341 1997 
L 3341 0 
L 2766 0 
L 2766 531 
Q 2569 213 2275 61 
Q 1981 -91 1556 -91 
Q 1019 -91 701 211 
Q 384 513 384 1019 
Q 384 1609 779 1909 
Q 1175 2209 1959 2209 
L 2766 2209 
L 2766 2266 
Q 2766 2663 2505 2880 
Q 2244 3097 1772 3097 
Q 1472 3097 1187 3025 
Q 903 2953 641 2809 
L 641 3341 
Q 956 3463 1253 3523 
Q 1550 3584 1831 3584 
Q 2591 3584 2966 3190 
Q 3341 2797 3341 1997 
z
" transform="scale(0.015625)"/>
       <path id="DejaVuSans-6c" d="M 603 4863 
L 1178 4863 
L 1178 0 
L 603 0 
L 603 4863 
z
" transform="scale(0.015625)"/>
       <path id="DejaVuSans-20" transform="scale(0.015625)"/>
       <path id="DejaVuSans-44" d="M 1259 4147 
L 1259 519 
L 2022 519 
Q 2988 519 3436 956 
Q 3884 1394 3884 2338 
Q 3884 3275 3436 3711 
Q 2988 4147 2022 4147 
L 1259 4147 
z
M 628 4666 
L 1925 4666 
Q 3281 4666 3915 4102 
Q 4550 3538 4550 2338 
Q 4550 1131 3912 565 
Q 3275 0 1925 0 
L 628 0 
L 628 4666 
z
" transform="scale(0.015625)"/>
       <path id="DejaVuSans-74" d="M 1172 4494 
L 1172 3500 
L 2356 3500 
L 2356 3053 
L 1172 3053 
L 1172 1153 
Q 1172 725 1289 603 
Q 1406 481 1766 481 
L 2356 481 
L 2356 0 
L 1766 0 
Q 1100 0 847 248 
Q 594 497 594 1153 
L 594 3053 
L 172 3053 
L 172 3500 
L 594 3500 
L 594 4494 
L 1172 4494 
z
" transform="scale(0.015625)"/>
      </defs>
      <use xlink:href="#DejaVuSans-4f"/>
      <use xlink:href="#DejaVuSans-72" transform="translate(78.710938 0)"/>
      <use xlink:href="#DejaVuSans-69" transform="translate(119.824219 0)"/>
      <use xlink:href="#DejaVuSans-67" transform="translate(147.607422 0)"/>
      <use xlink:href="#DejaVuSans-69" transform="translate(211.083984 0)"/>
      <use xlink:href="#DejaVuSans-6e" transform="translate(238.867188 0)"/>
      <use xlink:href="#DejaVuSans-61" transform="translate(302.246094 0)"/>
      <use xlink:href="#DejaVuSans-6c" transform="translate(363.525391 0)"/>
      <use xlink:href="#DejaVuSans-20" transform="translate(391.308594 0)"/>
      <use xlink:href="#DejaVuSans-44" transform="translate(423.095703 0)"/>
      <use xlink:href="#DejaVuSans-61" transform="translate(500.097656 0)"/>
      <use xlink:href="#DejaVuSans-74" transform="translate(561.376953 0)"/>
      <use xlink:href="#DejaVuSans-61" transform="translate(600.585938 0)"/>
     </g>
    </g>
   </g>
   <g id="line2d_10">
    <path d="M 104.525313 89.225872 
L 106.878423 91.338515 
L 109.231533 92.296608 
L 113.937753 92.713866 
L 116.290863 92.205396 
L 118.643973 92.043884 
L 120.997083 92.190763 
L 125.703303 91.939595 
L 128.056413 92.086206 
L 130.409523 92.5199 
L 132.762633 93.279565 
L 137.468853 95.55507 
L 139.821963 96.547642 
L 142.175073 97.352775 
L 144.528183 97.822914 
L 146.881293 99.167413 
L 151.587513 103.741296 
L 153.940624 106.450435 
L 156.293734 108.633719 
L 160.999954 111.562697 
L 163.353064 112.667401 
L 165.706174 113.945449 
L 168.059284 115.464545 
L 170.412394 115.278169 
L 172.765504 113.367399 
L 175.118614 111.209442 
L 177.471724 108.693045 
L 179.824834 106.395145 
L 182.177944 104.72551 
L 184.531054 103.304789 
L 186.884164 102.403605 
L 189.237274 101.774882 
L 191.590384 101.459884 
L 196.296604 101.224666 
L 203.355935 101.257932 
L 205.709045 101.161986 
L 208.062155 100.654259 
L 210.415265 99.653538 
L 212.768375 98.525386 
L 215.121485 97.164452 
L 217.474595 95.515292 
L 219.827705 93.611003 
L 222.180815 92.839896 
L 224.533925 93.343337 
L 226.887035 93.978558 
L 229.240145 95.099829 
L 231.593255 94.997766 
L 233.946365 93.384157 
L 238.652585 91.269069 
L 241.005695 89.680521 
L 243.358805 87.761881 
L 245.711915 86.853773 
L 248.065025 87.028218 
L 250.418135 87.749484 
L 252.771246 89.391797 
L 255.124356 90.500012 
L 257.477466 90.990754 
L 262.183686 92.612631 
L 264.536796 92.676681 
L 266.889906 91.993682 
L 269.243016 91.060488 
L 271.596126 89.705066 
L 273.949236 88.993315 
L 276.302346 89.075992 
L 281.008566 88.940606 
L 283.361676 89.576248 
L 285.714786 90.820157 
L 288.067896 91.681397 
L 290.421006 92.202524 
L 292.774116 93.078189 
L 297.480336 95.093282 
L 304.539667 97.888741 
L 306.892777 98.615997 
L 313.952107 100.179222 
L 316.305217 100.019712 
L 321.011437 98.286012 
L 325.717657 96.082133 
L 328.070767 94.943006 
L 330.423877 93.414975 
L 332.776987 91.534357 
L 335.130097 90.545765 
L 337.483207 90.49584 
L 339.836317 89.683595 
L 344.542537 86.973913 
L 353.954978 80.431604 
L 358.661198 76.011096 
L 361.014308 73.641509 
L 363.367418 72.014009 
L 365.720528 71.253415 
L 368.073638 69.687833 
L 370.426748 67.457662 
L 372.779858 61.92621 
L 375.132968 52.438533 
L 379.839188 35.511083 
L 382.192298 31.901561 
L 384.545408 34.446688 
L 386.898518 37.275758 
L 389.251628 41.8233 
L 391.604738 45.755752 
L 393.957848 48.948748 
L 396.310958 51.861924 
L 398.664068 54.360263 
L 401.017179 54.743875 
L 403.370289 52.884101 
L 405.723399 45.799048 
L 408.076509 33.80109 
L 410.429619 24.722269 
L 412.782729 18.703866 
L 415.135839 14.936936 
L 417.488949 13.800501 
L 419.842059 14.394694 
L 422.195169 16.622457 
L 424.548279 22.205026 
L 426.901389 25.499736 
L 429.254499 26.396283 
L 431.607609 22.143209 
L 433.960719 18.485284 
L 436.313829 14.153086 
L 438.666939 12.355455 
L 441.020049 14.183566 
L 443.373159 18.468037 
L 445.726269 26.553152 
L 448.079379 33.874991 
L 450.43249 40.452381 
L 452.7856 43.111222 
L 455.13871 40.316118 
L 457.49182 37.240432 
L 459.84493 33.478467 
L 462.19804 32.586889 
L 464.55115 36.082128 
L 466.90426 38.147378 
L 469.25737 40.028596 
L 471.61048 40.811006 
L 473.96359 39.547834 
L 476.3167 37.652846 
L 478.66981 34.532092 
L 481.02292 32.206056 
L 483.37603 30.897301 
L 485.72914 30.782933 
L 488.08225 32.548015 
L 490.43536 35.218941 
L 495.14158 42.92662 
L 497.49469 46.37394 
L 499.847801 49.100424 
L 502.200911 50.582106 
L 504.554021 50.753721 
L 506.907131 49.192303 
L 509.260241 48.681724 
L 511.613351 49.224875 
L 513.966461 51.316673 
L 516.319571 55.771782 
L 518.672681 60.805615 
L 521.025791 65.329052 
L 523.378901 69.321252 
L 525.732011 71.695396 
L 528.085121 73.24085 
L 530.438231 73.363992 
L 532.791341 72.796245 
L 535.144451 71.530955 
L 539.850671 68.496068 
L 542.203781 65.829376 
L 544.556891 62.280885 
L 546.910001 61.765453 
L 549.263112 64.525752 
L 551.616222 61.906825 
L 553.969332 54.350357 
L 556.322442 47.630941 
L 558.675552 47.837154 
L 561.028662 50.825903 
L 563.381772 50.620913 
L 565.734882 51.071727 
L 568.087992 53.877952 
L 570.441102 54.52782 
L 572.794212 54.561006 
L 575.147322 54.272169 
L 577.500432 53.437843 
L 579.853542 52.06401 
L 582.206652 50.170728 
L 584.559762 49.79099 
L 586.912872 51.136912 
L 591.619092 53.268531 
L 593.972202 53.894614 
L 596.325312 53.659499 
L 598.678423 53.195405 
L 601.031533 52.206905 
L 605.737753 49.864361 
L 608.090863 49.482593 
L 610.443973 50.152055 
L 612.797083 50.256375 
L 615.150193 50.015211 
L 617.503303 49.147289 
L 619.856413 47.304894 
L 624.562633 44.019948 
L 626.915743 43.011924 
L 629.268853 42.883361 
L 631.621963 44.281748 
L 633.975073 47.574464 
L 636.328183 50.483969 
L 638.681293 53.179133 
L 641.034403 54.236043 
L 643.387513 52.981959 
L 645.740624 52.610996 
L 648.093734 52.676267 
L 650.446844 53.04494 
L 652.799954 54.319889 
L 655.153064 54.72194 
L 657.506174 54.353951 
L 659.859284 53.797714 
L 662.212394 52.700563 
L 664.565504 52.195424 
L 669.271724 52.507764 
L 673.977944 53.37851 
L 681.037274 54.853164 
L 685.743494 55.532714 
L 688.096604 55.675746 
L 690.449714 55.638538 
L 692.802824 55.751753 
L 695.155935 56.01114 
L 697.509045 56.008027 
L 704.568375 55.253504 
L 706.921485 55.60431 
L 709.274595 56.709626 
L 713.980815 58.612202 
L 716.333925 59.29919 
L 718.687035 59.532045 
L 721.040145 58.737926 
L 723.393255 56.681913 
L 725.746365 55.321557 
L 728.099475 54.554971 
L 730.452585 53.649547 
L 732.805695 53.010515 
L 735.158805 52.724522 
L 737.511915 52.821248 
L 739.865025 53.122053 
L 742.218135 53.668444 
L 744.571246 53.914602 
L 746.924356 53.779232 
L 749.277466 54.106949 
L 751.630576 54.867609 
L 753.983686 53.119877 
L 756.336796 48.794829 
L 758.689906 44.900247 
L 761.043016 42.253614 
L 763.396126 43.434369 
L 765.749236 46.999735 
L 768.102346 48.042929 
L 770.455456 45.993818 
L 772.808566 45.454239 
L 775.161676 45.128335 
L 777.514786 45.194224 
L 779.867896 46.173988 
L 782.221006 46.814576 
L 784.574116 47.273879 
L 786.927226 48.124189 
L 789.280336 49.186702 
L 791.633446 50.721787 
L 793.986557 52.822193 
L 796.339667 53.858051 
L 798.692777 53.779363 
L 801.045887 53.47399 
L 803.398997 52.551509 
L 805.752107 52.045716 
L 808.105217 52.087304 
L 810.458327 53.758198 
L 812.811437 57.516563 
L 817.517657 63.911407 
L 819.870767 64.556238 
L 822.223877 61.973044 
L 824.576987 59.157641 
L 826.930097 55.379182 
L 829.283207 52.727388 
L 831.636317 51.806646 
L 833.989427 50.570866 
L 836.342537 49.707181 
L 843.401868 47.821849 
L 848.108088 46.28101 
L 850.461198 45.576876 
L 852.814308 44.273904 
L 855.167418 42.334137 
L 857.520528 41.18456 
L 859.873638 40.773535 
L 862.226748 40.481857 
L 866.932968 40.64106 
L 871.639188 40.34793 
L 873.992298 40.024004 
L 876.345408 40.04575 
L 881.051628 40.672306 
L 883.404738 40.925463 
L 885.757848 40.463113 
L 888.110958 39.136542 
L 890.464068 39.47547 
L 892.817179 41.467681 
L 897.523399 44.496061 
L 899.876509 45.443868 
L 906.935839 45.390443 
L 911.642059 44.858973 
L 913.995169 44.916025 
L 916.348279 45.41156 
L 918.701389 46.110385 
L 923.407609 48.229289 
L 932.820049 52.640141 
L 935.173159 53.689502 
L 937.526269 54.603736 
L 939.879379 55.366918 
L 942.23249 55.941969 
L 944.5856 56.284437 
L 946.93871 56.449083 
L 956.35115 56.219554 
L 958.70426 56.091395 
L 961.05737 56.151827 
L 963.41048 56.434969 
L 965.76359 56.902047 
L 968.1167 57.629503 
L 970.46981 57.784712 
L 972.82292 57.31623 
L 975.17603 56.71047 
L 979.88225 54.866379 
L 982.23536 54.092499 
L 984.58847 54.05659 
L 986.94158 54.959666 
L 989.29469 55.211301 
L 991.647801 54.939185 
L 994.000911 55.095948 
L 996.354021 55.41523 
L 1001.060241 55.609019 
L 1003.413351 54.771613 
L 1005.766461 52.904757 
L 1008.119571 51.954971 
L 1010.472681 51.822396 
L 1012.825791 51.475837 
L 1015.178901 51.292399 
L 1017.532011 51.827463 
L 1019.885121 53.054203 
L 1022.238231 53.965451 
L 1024.591341 54.615504 
L 1031.650671 57.161567 
L 1041.063112 60.373986 
L 1045.769332 62.522685 
L 1048.122442 63.757148 
L 1050.475552 64.793684 
L 1055.181772 66.400731 
L 1057.534882 67.096482 
L 1059.887992 66.93687 
L 1062.241102 65.85447 
L 1064.594212 65.320074 
L 1066.947322 65.230522 
L 1069.300432 65.401462 
L 1074.006652 66.831274 
L 1076.359762 67.462504 
L 1081.065982 68.958876 
L 1083.419092 69.498071 
L 1085.772202 69.785217 
L 1088.125313 69.925527 
L 1088.125313 69.925527 
" clip-path="url(#pd749ce76ad)" style="fill: none; stroke: #0070c0; stroke-width: 1.5; stroke-linecap: square"/>
   </g>
   <g id="patch_3">
    <path d="M 55.345313 120.62 
L 55.345313 7.2 
" style="fill: none; stroke: #000000; stroke-width: 0.8; stroke-linejoin: miter; stroke-linecap: square"/>
   </g>
   <g id="patch_4">
    <path d="M 1137.305313 120.62 
L 1137.305313 7.2 
" style="fill: none; stroke: #000000; stroke-width: 0.8; stroke-linejoin: miter; stroke-linecap: square"/>
   </g>
   <g id="patch_5">
    <path d="M 55.345313 120.62 
L 1137.305312 120.62 
" style="fill: none; stroke: #000000; stroke-width: 0.8; stroke-linejoin: miter; stroke-linecap: square"/>
   </g>
   <g id="patch_6">
    <path d="M 55.345313 7.2 
L 1137.305312 7.2 
" style="fill: none; stroke: #000000; stroke-width: 0.8; stroke-linejoin: miter; stroke-linecap: square"/>
   </g>
  </g>
  <g id="axes_2">
   <g id="patch_7">
    <path d="M 55.345313 261.92 
L 1137.305313 261.92 
L 1137.305313 148.5 
L 55.345313 148.5 
z
" style="fill: #ffffff"/>
   </g>
   <g id="matplotlib.axis_3">
    <g id="xtick_6">
     <g id="line2d_11">
      <g>
       <use xlink:href="#mec52677648" x="104.525313" y="261.92" style="stroke: #000000; stroke-width: 0.8"/>
      </g>
     </g>
     <g id="text_11">
      <!-- 0 -->
      <g transform="translate(101.344063 276.518437) scale(0.1 -0.1)">
       <use xlink:href="#DejaVuSans-30"/>
      </g>
     </g>
    </g>
    <g id="xtick_7">
     <g id="line2d_12">
      <g>
       <use xlink:href="#mec52677648" x="339.836317" y="261.92" style="stroke: #000000; stroke-width: 0.8"/>
      </g>
     </g>
     <g id="text_12">
      <!-- 100 -->
      <g transform="translate(330.292567 276.518437) scale(0.1 -0.1)">
       <use xlink:href="#DejaVuSans-31"/>
       <use xlink:href="#DejaVuSans-30" transform="translate(63.623047 0)"/>
       <use xlink:href="#DejaVuSans-30" transform="translate(127.246094 0)"/>
      </g>
     </g>
    </g>
    <g id="xtick_8">
     <g id="line2d_13">
      <g>
       <use xlink:href="#mec52677648" x="575.147322" y="261.92" style="stroke: #000000; stroke-width: 0.8"/>
      </g>
     </g>
     <g id="text_13">
      <!-- 200 -->
      <g transform="translate(565.603572 276.518437) scale(0.1 -0.1)">
       <use xlink:href="#DejaVuSans-32"/>
       <use xlink:href="#DejaVuSans-30" transform="translate(63.623047 0)"/>
       <use xlink:href="#DejaVuSans-30" transform="translate(127.246094 0)"/>
      </g>
     </g>
    </g>
    <g id="xtick_9">
     <g id="line2d_14">
      <g>
       <use xlink:href="#mec52677648" x="810.458327" y="261.92" style="stroke: #000000; stroke-width: 0.8"/>
      </g>
     </g>
     <g id="text_14">
      <!-- 300 -->
      <g transform="translate(800.914577 276.518437) scale(0.1 -0.1)">
       <use xlink:href="#DejaVuSans-33"/>
       <use xlink:href="#DejaVuSans-30" transform="translate(63.623047 0)"/>
       <use xlink:href="#DejaVuSans-30" transform="translate(127.246094 0)"/>
      </g>
     </g>
    </g>
    <g id="xtick_10">
     <g id="line2d_15">
      <g>
       <use xlink:href="#mec52677648" x="1045.769332" y="261.92" style="stroke: #000000; stroke-width: 0.8"/>
      </g>
     </g>
     <g id="text_15">
      <!-- 400 -->
      <g transform="translate(1036.225582 276.518437) scale(0.1 -0.1)">
       <use xlink:href="#DejaVuSans-34"/>
       <use xlink:href="#DejaVuSans-30" transform="translate(63.623047 0)"/>
       <use xlink:href="#DejaVuSans-30" transform="translate(127.246094 0)"/>
      </g>
     </g>
    </g>
   </g>
   <g id="matplotlib.axis_4">
    <g id="ytick_5">
     <g id="line2d_16">
      <g>
       <use xlink:href="#m87401c6561" x="55.345313" y="259.977836" style="stroke: #000000; stroke-width: 0.8"/>
      </g>
     </g>
     <g id="text_16">
      <!-- −200 -->
      <g transform="translate(20.878125 263.777055) scale(0.1 -0.1)">
       <defs>
        <path id="DejaVuSans-2212" d="M 678 2272 
L 4684 2272 
L 4684 1741 
L 678 1741 
L 678 2272 
z
" transform="scale(0.015625)"/>
       </defs>
       <use xlink:href="#DejaVuSans-2212"/>
       <use xlink:href="#DejaVuSans-32" transform="translate(83.789062 0)"/>
       <use xlink:href="#DejaVuSans-30" transform="translate(147.412109 0)"/>
       <use xlink:href="#DejaVuSans-30" transform="translate(211.035156 0)"/>
      </g>
     </g>
    </g>
    <g id="ytick_6">
     <g id="line2d_17">
      <g>
       <use xlink:href="#m87401c6561" x="55.345313" y="230.413083" style="stroke: #000000; stroke-width: 0.8"/>
      </g>
     </g>
     <g id="text_17">
      <!-- −100 -->
      <g transform="translate(20.878125 234.212302) scale(0.1 -0.1)">
       <use xlink:href="#DejaVuSans-2212"/>
       <use xlink:href="#DejaVuSans-31" transform="translate(83.789062 0)"/>
       <use xlink:href="#DejaVuSans-30" transform="translate(147.412109 0)"/>
       <use xlink:href="#DejaVuSans-30" transform="translate(211.035156 0)"/>
      </g>
     </g>
    </g>
    <g id="ytick_7">
     <g id="line2d_18">
      <g>
       <use xlink:href="#m87401c6561" x="55.345313" y="200.848331" style="stroke: #000000; stroke-width: 0.8"/>
      </g>
     </g>
     <g id="text_18">
      <!-- 0 -->
      <g transform="translate(41.982813 204.647549) scale(0.1 -0.1)">
       <use xlink:href="#DejaVuSans-30"/>
      </g>
     </g>
    </g>
    <g id="ytick_8">
     <g id="line2d_19">
      <g>
       <use xlink:href="#m87401c6561" x="55.345313" y="171.283578" style="stroke: #000000; stroke-width: 0.8"/>
      </g>
     </g>
     <g id="text_19">
      <!-- 100 -->
      <g transform="translate(29.257813 175.082797) scale(0.1 -0.1)">
       <use xlink:href="#DejaVuSans-31"/>
       <use xlink:href="#DejaVuSans-30" transform="translate(63.623047 0)"/>
       <use xlink:href="#DejaVuSans-30" transform="translate(127.246094 0)"/>
      </g>
     </g>
    </g>
    <g id="text_20">
     <!-- co-imf0 -->
     <g transform="translate(14.798438 224.117031) rotate(-90) scale(0.1 -0.1)">
      <defs>
       <path id="DejaVuSans-63" d="M 3122 3366 
L 3122 2828 
Q 2878 2963 2633 3030 
Q 2388 3097 2138 3097 
Q 1578 3097 1268 2742 
Q 959 2388 959 1747 
Q 959 1106 1268 751 
Q 1578 397 2138 397 
Q 2388 397 2633 464 
Q 2878 531 3122 666 
L 3122 134 
Q 2881 22 2623 -34 
Q 2366 -91 2075 -91 
Q 1284 -91 818 406 
Q 353 903 353 1747 
Q 353 2603 823 3093 
Q 1294 3584 2113 3584 
Q 2378 3584 2631 3529 
Q 2884 3475 3122 3366 
z
" transform="scale(0.015625)"/>
       <path id="DejaVuSans-6f" d="M 1959 3097 
Q 1497 3097 1228 2736 
Q 959 2375 959 1747 
Q 959 1119 1226 758 
Q 1494 397 1959 397 
Q 2419 397 2687 759 
Q 2956 1122 2956 1747 
Q 2956 2369 2687 2733 
Q 2419 3097 1959 3097 
z
M 1959 3584 
Q 2709 3584 3137 3096 
Q 3566 2609 3566 1747 
Q 3566 888 3137 398 
Q 2709 -91 1959 -91 
Q 1206 -91 779 398 
Q 353 888 353 1747 
Q 353 2609 779 3096 
Q 1206 3584 1959 3584 
z
" transform="scale(0.015625)"/>
       <path id="DejaVuSans-2d" d="M 313 2009 
L 1997 2009 
L 1997 1497 
L 313 1497 
L 313 2009 
z
" transform="scale(0.015625)"/>
       <path id="DejaVuSans-6d" d="M 3328 2828 
Q 3544 3216 3844 3400 
Q 4144 3584 4550 3584 
Q 5097 3584 5394 3201 
Q 5691 2819 5691 2113 
L 5691 0 
L 5113 0 
L 5113 2094 
Q 5113 2597 4934 2840 
Q 4756 3084 4391 3084 
Q 3944 3084 3684 2787 
Q 3425 2491 3425 1978 
L 3425 0 
L 2847 0 
L 2847 2094 
Q 2847 2600 2669 2842 
Q 2491 3084 2119 3084 
Q 1678 3084 1418 2786 
Q 1159 2488 1159 1978 
L 1159 0 
L 581 0 
L 581 3500 
L 1159 3500 
L 1159 2956 
Q 1356 3278 1631 3431 
Q 1906 3584 2284 3584 
Q 2666 3584 2933 3390 
Q 3200 3197 3328 2828 
z
" transform="scale(0.015625)"/>
       <path id="DejaVuSans-66" d="M 2375 4863 
L 2375 4384 
L 1825 4384 
Q 1516 4384 1395 4259 
Q 1275 4134 1275 3809 
L 1275 3500 
L 2222 3500 
L 2222 3053 
L 1275 3053 
L 1275 0 
L 697 0 
L 697 3053 
L 147 3053 
L 147 3500 
L 697 3500 
L 697 3744 
Q 697 4328 969 4595 
Q 1241 4863 1831 4863 
L 2375 4863 
z
" transform="scale(0.015625)"/>
      </defs>
      <use xlink:href="#DejaVuSans-63"/>
      <use xlink:href="#DejaVuSans-6f" transform="translate(54.980469 0)"/>
      <use xlink:href="#DejaVuSans-2d" transform="translate(118.037109 0)"/>
      <use xlink:href="#DejaVuSans-69" transform="translate(154.121094 0)"/>
      <use xlink:href="#DejaVuSans-6d" transform="translate(181.904297 0)"/>
      <use xlink:href="#DejaVuSans-66" transform="translate(279.316406 0)"/>
      <use xlink:href="#DejaVuSans-30" transform="translate(314.521484 0)"/>
     </g>
    </g>
   </g>
   <g id="line2d_20">
    <path d="M 104.525313 203.861974 
L 106.878423 209.773038 
L 109.231533 212.128598 
L 111.584643 212.155425 
L 113.937753 211.563455 
L 116.290863 208.723166 
L 118.643973 206.472792 
L 120.997083 204.711578 
L 123.350193 201.989671 
L 125.703303 198.822205 
L 128.056413 196.247176 
L 130.409523 194.253563 
L 132.762633 193.002633 
L 135.115743 192.819799 
L 137.468853 192.294944 
L 139.821963 191.513285 
L 142.175073 190.254486 
L 144.528183 188.163568 
L 146.881293 188.569042 
L 149.234403 191.553126 
L 151.587513 195.021994 
L 153.940624 199.725119 
L 156.293734 203.266757 
L 158.646844 205.243733 
L 160.999954 207.394734 
L 163.353064 209.030689 
L 165.706174 211.555858 
L 168.059284 215.19135 
L 170.412394 214.653108 
L 172.765504 209.885872 
L 175.118614 204.830503 
L 177.471724 199.176363 
L 179.824834 194.428649 
L 182.177944 191.668923 
L 184.531054 189.821543 
L 186.884164 189.580979 
L 189.237274 190.239199 
L 191.590384 191.867184 
L 193.943494 193.973474 
L 196.296604 196.381141 
L 201.002824 201.627381 
L 203.355935 204.052524 
L 205.709045 206.103034 
L 208.062155 206.884202 
L 210.415265 206.138943 
L 212.768375 204.911029 
L 215.121485 202.901541 
L 217.474595 200.003786 
L 219.827705 196.317499 
L 222.180815 195.64414 
L 224.533925 198.388181 
L 226.887035 201.448737 
L 229.240145 205.809105 
L 231.593255 206.791963 
L 233.946365 203.624753 
L 236.299475 201.784942 
L 238.652585 200.127862 
L 241.005695 196.831221 
L 243.358805 192.556787 
L 245.711915 190.945623 
L 248.065025 192.185699 
L 250.418135 194.815241 
L 252.771246 199.84361 
L 255.124356 203.306482 
L 257.477466 204.969749 
L 259.830576 207.397757 
L 262.183686 209.654443 
L 264.536796 209.763411 
L 266.889906 207.696493 
L 269.243016 204.800968 
L 271.596126 200.601543 
L 273.949236 197.990575 
L 276.302346 197.371635 
L 281.008566 194.837512 
L 283.361676 195.256925 
L 285.714786 197.18736 
L 288.067896 197.978822 
L 290.421006 197.75741 
L 292.774116 198.462186 
L 295.127226 199.614127 
L 299.833446 201.614649 
L 304.539667 203.763735 
L 306.892777 204.564283 
L 309.245887 205.0446 
L 311.598997 205.76938 
L 313.952107 206.691812 
L 316.305217 206.132701 
L 318.658327 204.048624 
L 325.717657 198.578783 
L 328.070767 197.295538 
L 330.423877 195.414069 
L 332.776987 193.056569 
L 335.130097 193.59448 
L 337.483207 197.159882 
L 339.836317 199.073624 
L 342.189427 199.881507 
L 344.542537 201.161316 
L 346.895647 202.079217 
L 349.248757 203.406081 
L 351.601868 205.21374 
L 353.954978 206.290606 
L 358.661198 207.170339 
L 361.014308 207.391015 
L 363.367418 209.723671 
L 365.720528 214.466811 
L 368.073638 217.042083 
L 370.426748 217.792761 
L 372.779858 209.511108 
L 375.132968 190.379427 
L 379.839188 157.279472 
L 382.192298 153.655455 
L 386.898518 179.982429 
L 389.251628 197.858316 
L 391.604738 213.824869 
L 393.957848 227.530753 
L 396.310958 240.215893 
L 398.664068 251.504384 
L 401.017179 256.764545 
L 403.370289 255.637169 
L 405.723399 240.015963 
L 408.076509 210.742139 
L 410.429619 189.119427 
L 412.782729 175.528176 
L 415.135839 167.772286 
L 417.488949 166.882193 
L 419.842059 170.412156 
L 422.195169 178.099095 
L 424.548279 194.624735 
L 426.901389 204.64667 
L 429.254499 207.863518 
L 431.607609 196.796201 
L 433.960719 187.048248 
L 436.313829 175.16983 
L 438.666939 169.886316 
L 441.020049 174.164694 
L 443.373159 184.827757 
L 445.726269 205.531469 
L 448.079379 223.866975 
L 450.43249 239.886657 
L 452.7856 244.96043 
L 455.13871 234.914431 
L 457.49182 223.820104 
L 459.84493 210.575661 
L 462.19804 204.883547 
L 464.55115 210.872415 
L 466.90426 212.778894 
L 469.25737 214.008282 
L 471.61048 212.112173 
L 473.96359 204.545282 
L 476.3167 195.185078 
L 478.66981 182.448305 
L 481.02292 171.851059 
L 483.37603 164.029598 
L 485.72914 159.472621 
L 488.08225 160.069045 
L 490.43536 163.186619 
L 495.14158 176.104118 
L 497.49469 181.616103 
L 499.847801 185.289302 
L 502.200911 185.71572 
L 504.554021 182.765748 
L 506.907131 175.307235 
L 509.260241 170.94445 
L 511.613351 169.713256 
L 513.966461 172.989417 
L 516.319571 183.017706 
L 518.672681 194.97528 
L 521.025791 205.930281 
L 523.378901 215.854886 
L 525.732011 221.823414 
L 528.085121 226.01545 
L 530.438231 226.844055 
L 532.791341 226.3018 
L 535.144451 224.340532 
L 537.497561 222.029617 
L 539.850671 220.125825 
L 542.203781 215.301639 
L 544.556891 208.258434 
L 546.910001 209.568051 
L 549.263112 219.819342 
L 551.616222 215.404527 
L 553.969332 197.45312 
L 556.322442 181.600758 
L 558.675552 184.331762 
L 561.028662 194.322842 
L 563.381772 195.272767 
L 565.734882 197.678263 
L 568.087992 206.123207 
L 570.441102 208.358482 
L 572.794212 208.553923 
L 575.147322 207.54336 
L 577.500432 204.786182 
L 579.853542 200.446 
L 582.206652 194.657225 
L 584.559762 193.088538 
L 586.912872 196.421147 
L 589.265982 199.112823 
L 591.619092 202.430664 
L 593.972202 204.636493 
L 596.325312 204.7495 
L 598.678423 204.435528 
L 601.031533 202.876974 
L 603.384643 201.093589 
L 605.737753 199.146575 
L 608.090863 199.515846 
L 610.443973 202.740242 
L 612.797083 204.356754 
L 615.150193 204.91233 
L 617.503303 203.595289 
L 624.562633 191.207233 
L 626.915743 188.302784 
L 629.268853 187.43571 
L 631.621963 190.453342 
L 633.975073 198.373936 
L 636.328183 205.079482 
L 638.681293 211.072753 
L 641.034403 212.539434 
L 643.387513 207.702957 
L 645.740624 205.293824 
L 648.093734 204.149757 
L 650.446844 203.919978 
L 652.799954 206.274734 
L 655.153064 206.347529 
L 657.506174 204.438104 
L 659.859284 202.116952 
L 662.212394 198.427313 
L 664.565504 196.450677 
L 669.271724 196.390985 
L 671.624834 197.135964 
L 673.977944 198.172989 
L 678.684164 200.511821 
L 681.037274 201.450566 
L 683.390384 202.190151 
L 685.743494 202.565804 
L 688.096604 202.444449 
L 690.449714 201.715232 
L 692.802824 201.340288 
L 695.155935 201.310489 
L 697.509045 200.573936 
L 704.568375 196.679071 
L 706.921485 197.205797 
L 709.274595 199.908271 
L 711.627705 202.307924 
L 713.980815 204.868549 
L 716.333925 206.853391 
L 718.687035 207.768878 
L 721.040145 206.040388 
L 723.393255 201.038843 
L 725.746365 198.064913 
L 728.099475 196.840663 
L 730.452585 195.361992 
L 732.805695 194.723247 
L 735.158805 195.164217 
L 737.511915 196.758317 
L 739.865025 199.033141 
L 742.218135 202.099591 
L 744.571246 204.487586 
L 746.924356 205.979815 
L 749.277466 208.88575 
L 751.630576 213.13075 
L 753.983686 210.622436 
L 756.336796 201.123632 
L 758.689906 192.708342 
L 761.043016 187.534121 
L 763.396126 192.524401 
L 765.749236 203.677796 
L 768.102346 207.601651 
L 770.455456 202.678218 
L 775.161676 200.206978 
L 777.514786 199.569508 
L 779.867896 200.946199 
L 782.221006 201.043503 
L 784.574116 200.323478 
L 786.927226 200.410916 
L 789.280336 200.878761 
L 791.633446 202.471547 
L 793.986557 205.499737 
L 796.339667 205.574676 
L 798.692777 202.611073 
L 801.045887 199.103652 
L 803.398997 194.042785 
L 805.752107 190.30806 
L 808.105217 188.316489 
L 810.458327 191.057638 
L 812.811437 199.839023 
L 817.517657 215.653828 
L 819.870767 217.378707 
L 824.576987 204.34023 
L 826.930097 195.678448 
L 829.283207 190.505213 
L 831.636317 190.433337 
L 833.989427 189.818069 
L 836.342537 190.474311 
L 838.695647 191.925105 
L 843.401868 195.299026 
L 845.754978 196.499972 
L 850.461198 199.256134 
L 852.814308 198.821378 
L 855.167418 196.441367 
L 857.520528 195.980368 
L 862.226748 198.567467 
L 864.579858 200.735758 
L 866.932968 202.297497 
L 869.286078 203.077687 
L 871.639188 203.431357 
L 873.992298 202.923374 
L 876.345408 202.932706 
L 878.698518 203.44474 
L 881.051628 203.386968 
L 883.404738 203.007771 
L 885.757848 200.498164 
L 888.110958 195.511844 
L 890.464068 195.003587 
L 892.817179 198.995328 
L 897.523399 204.402318 
L 899.876509 205.629771 
L 902.229619 204.339498 
L 904.582729 203.296552 
L 906.935839 201.836898 
L 911.642059 198.030903 
L 913.995169 196.902305 
L 916.348279 196.841031 
L 918.701389 197.18394 
L 923.407609 199.414696 
L 928.113829 201.679726 
L 935.173159 204.23862 
L 937.526269 204.717167 
L 939.879379 204.843078 
L 942.23249 204.542003 
L 944.5856 203.718377 
L 946.93871 202.565926 
L 949.29182 201.028416 
L 951.64493 199.690788 
L 956.35115 197.610653 
L 958.70426 196.810838 
L 961.05737 196.792602 
L 963.41048 197.653773 
L 965.76359 199.224781 
L 968.1167 201.709778 
L 970.46981 202.791651 
L 972.82292 202.305227 
L 975.17603 201.546461 
L 977.52914 199.913439 
L 979.88225 198.505324 
L 982.23536 197.448183 
L 984.58847 198.410333 
L 986.94158 201.91628 
L 989.29469 203.630394 
L 991.647801 203.879701 
L 994.000911 205.226693 
L 996.354021 206.928608 
L 998.707131 208.0365 
L 1001.060241 208.763497 
L 1003.413351 206.913955 
L 1005.766461 202.082859 
L 1008.119571 199.539598 
L 1010.472681 198.988973 
L 1012.825791 197.603254 
L 1015.178901 196.38369 
L 1017.532011 196.85247 
L 1019.885121 198.929899 
L 1022.238231 199.93338 
L 1024.591341 200.014725 
L 1026.944451 200.500946 
L 1029.297561 200.858453 
L 1031.650671 200.952839 
L 1038.710001 200.523861 
L 1041.063112 200.69838 
L 1043.416222 201.315112 
L 1045.769332 202.197444 
L 1048.122442 203.48758 
L 1050.475552 204.34154 
L 1057.534882 205.471782 
L 1059.887992 203.586747 
L 1062.241102 199.323889 
L 1064.594212 196.675789 
L 1066.947322 195.361349 
L 1069.300432 194.871666 
L 1071.653542 196.106946 
L 1076.359762 198.273196 
L 1081.065982 201.400391 
L 1083.419092 202.55428 
L 1085.772202 203.128767 
L 1088.125313 203.394148 
L 1088.125313 203.394148 
" clip-path="url(#p36a7b14e31)" style="fill: none; stroke: #f27f19; stroke-width: 1.5; stroke-linecap: square"/>
   </g>
   <g id="patch_8">
    <path d="M 55.345313 261.92 
L 55.345313 148.5 
" style="fill: none; stroke: #000000; stroke-width: 0.8; stroke-linejoin: miter; stroke-linecap: square"/>
   </g>
   <g id="patch_9">
    <path d="M 1137.305313 261.92 
L 1137.305313 148.5 
" style="fill: none; stroke: #000000; stroke-width: 0.8; stroke-linejoin: miter; stroke-linecap: square"/>
   </g>
   <g id="patch_10">
    <path d="M 55.345313 261.92 
L 1137.305312 261.92 
" style="fill: none; stroke: #000000; stroke-width: 0.8; stroke-linejoin: miter; stroke-linecap: square"/>
   </g>
   <g id="patch_11">
    <path d="M 55.345313 148.5 
L 1137.305312 148.5 
" style="fill: none; stroke: #000000; stroke-width: 0.8; stroke-linejoin: miter; stroke-linecap: square"/>
   </g>
  </g>
  <g id="axes_3">
   <g id="patch_12">
    <path d="M 55.345313 403.22 
L 1137.305313 403.22 
L 1137.305313 289.8 
L 55.345313 289.8 
z
" style="fill: #ffffff"/>
   </g>
   <g id="matplotlib.axis_5">
    <g id="xtick_11">
     <g id="line2d_21">
      <g>
       <use xlink:href="#mec52677648" x="104.525313" y="403.22" style="stroke: #000000; stroke-width: 0.8"/>
      </g>
     </g>
     <g id="text_21">
      <!-- 0 -->
      <g transform="translate(101.344063 417.818437) scale(0.1 -0.1)">
       <use xlink:href="#DejaVuSans-30"/>
      </g>
     </g>
    </g>
    <g id="xtick_12">
     <g id="line2d_22">
      <g>
       <use xlink:href="#mec52677648" x="339.836317" y="403.22" style="stroke: #000000; stroke-width: 0.8"/>
      </g>
     </g>
     <g id="text_22">
      <!-- 100 -->
      <g transform="translate(330.292567 417.818437) scale(0.1 -0.1)">
       <use xlink:href="#DejaVuSans-31"/>
       <use xlink:href="#DejaVuSans-30" transform="translate(63.623047 0)"/>
       <use xlink:href="#DejaVuSans-30" transform="translate(127.246094 0)"/>
      </g>
     </g>
    </g>
    <g id="xtick_13">
     <g id="line2d_23">
      <g>
       <use xlink:href="#mec52677648" x="575.147322" y="403.22" style="stroke: #000000; stroke-width: 0.8"/>
      </g>
     </g>
     <g id="text_23">
      <!-- 200 -->
      <g transform="translate(565.603572 417.818437) scale(0.1 -0.1)">
       <use xlink:href="#DejaVuSans-32"/>
       <use xlink:href="#DejaVuSans-30" transform="translate(63.623047 0)"/>
       <use xlink:href="#DejaVuSans-30" transform="translate(127.246094 0)"/>
      </g>
     </g>
    </g>
    <g id="xtick_14">
     <g id="line2d_24">
      <g>
       <use xlink:href="#mec52677648" x="810.458327" y="403.22" style="stroke: #000000; stroke-width: 0.8"/>
      </g>
     </g>
     <g id="text_24">
      <!-- 300 -->
      <g transform="translate(800.914577 417.818437) scale(0.1 -0.1)">
       <use xlink:href="#DejaVuSans-33"/>
       <use xlink:href="#DejaVuSans-30" transform="translate(63.623047 0)"/>
       <use xlink:href="#DejaVuSans-30" transform="translate(127.246094 0)"/>
      </g>
     </g>
    </g>
    <g id="xtick_15">
     <g id="line2d_25">
      <g>
       <use xlink:href="#mec52677648" x="1045.769332" y="403.22" style="stroke: #000000; stroke-width: 0.8"/>
      </g>
     </g>
     <g id="text_25">
      <!-- 400 -->
      <g transform="translate(1036.225582 417.818437) scale(0.1 -0.1)">
       <use xlink:href="#DejaVuSans-34"/>
       <use xlink:href="#DejaVuSans-30" transform="translate(63.623047 0)"/>
       <use xlink:href="#DejaVuSans-30" transform="translate(127.246094 0)"/>
      </g>
     </g>
    </g>
   </g>
   <g id="matplotlib.axis_6">
    <g id="ytick_9">
     <g id="line2d_26">
      <g>
       <use xlink:href="#m87401c6561" x="55.345313" y="400.621495" style="stroke: #000000; stroke-width: 0.8"/>
      </g>
     </g>
     <g id="text_26">
      <!-- −200 -->
      <g transform="translate(20.878125 404.420714) scale(0.1 -0.1)">
       <use xlink:href="#DejaVuSans-2212"/>
       <use xlink:href="#DejaVuSans-32" transform="translate(83.789062 0)"/>
       <use xlink:href="#DejaVuSans-30" transform="translate(147.412109 0)"/>
       <use xlink:href="#DejaVuSans-30" transform="translate(211.035156 0)"/>
      </g>
     </g>
    </g>
    <g id="ytick_10">
     <g id="line2d_27">
      <g>
       <use xlink:href="#m87401c6561" x="55.345313" y="358.041148" style="stroke: #000000; stroke-width: 0.8"/>
      </g>
     </g>
     <g id="text_27">
      <!-- 0 -->
      <g transform="translate(41.982813 361.840367) scale(0.1 -0.1)">
       <use xlink:href="#DejaVuSans-30"/>
      </g>
     </g>
    </g>
    <g id="ytick_11">
     <g id="line2d_28">
      <g>
       <use xlink:href="#m87401c6561" x="55.345313" y="315.460801" style="stroke: #000000; stroke-width: 0.8"/>
      </g>
     </g>
     <g id="text_28">
      <!-- 200 -->
      <g transform="translate(29.257813 319.26002) scale(0.1 -0.1)">
       <use xlink:href="#DejaVuSans-32"/>
       <use xlink:href="#DejaVuSans-30" transform="translate(63.623047 0)"/>
       <use xlink:href="#DejaVuSans-30" transform="translate(127.246094 0)"/>
      </g>
     </g>
    </g>
    <g id="text_29">
     <!-- co-imf1 -->
     <g transform="translate(14.798438 365.417031) rotate(-90) scale(0.1 -0.1)">
      <use xlink:href="#DejaVuSans-63"/>
      <use xlink:href="#DejaVuSans-6f" transform="translate(54.980469 0)"/>
      <use xlink:href="#DejaVuSans-2d" transform="translate(118.037109 0)"/>
      <use xlink:href="#DejaVuSans-69" transform="translate(154.121094 0)"/>
      <use xlink:href="#DejaVuSans-6d" transform="translate(181.904297 0)"/>
      <use xlink:href="#DejaVuSans-66" transform="translate(279.316406 0)"/>
      <use xlink:href="#DejaVuSans-31" transform="translate(314.521484 0)"/>
     </g>
    </g>
   </g>
   <g id="line2d_29">
    <path d="M 104.525313 329.805129 
L 106.878423 329.35531 
L 109.231533 329.226665 
L 111.584643 329.406171 
L 113.937753 329.8997 
L 116.290863 330.707453 
L 118.643973 331.792415 
L 120.997083 333.151571 
L 123.350193 334.750905 
L 125.703303 336.574692 
L 128.056413 338.586532 
L 132.762633 343.067075 
L 139.821963 350.414652 
L 146.881293 357.735845 
L 151.587513 362.199863 
L 153.940624 364.22711 
L 156.293734 366.082204 
L 158.646844 367.738144 
L 160.999954 369.168574 
L 163.353064 370.346794 
L 165.706174 371.244843 
L 168.059284 371.835972 
L 170.412394 372.113707 
L 172.765504 372.080695 
L 175.118614 371.791503 
L 177.471724 371.251882 
L 179.824834 370.507529 
L 182.177944 369.581869 
L 186.884164 367.311377 
L 191.590384 364.668712 
L 201.002824 359.19867 
L 205.709045 356.855415 
L 208.062155 355.869328 
L 212.768375 354.319529 
L 217.474595 353.231846 
L 222.180815 352.478081 
L 226.887035 351.942892 
L 231.593255 351.57233 
L 236.299475 351.403014 
L 241.005695 351.481839 
L 245.711915 351.845289 
L 250.418135 352.525741 
L 255.124356 353.559584 
L 259.830576 354.985155 
L 264.536796 356.83295 
L 269.243016 359.133542 
L 273.949236 361.918314 
L 278.655456 365.208775 
L 283.361676 368.981337 
L 288.067896 373.161633 
L 302.186557 386.360185 
L 306.892777 390.273359 
L 309.245887 392.019972 
L 311.598997 393.59093 
L 313.952107 394.959812 
L 316.305217 396.10594 
L 318.658327 397.003353 
L 321.011437 397.642674 
L 323.364547 398.00108 
L 325.717657 398.064545 
L 328.070767 397.814781 
L 330.423877 397.233237 
L 332.776987 396.302628 
L 335.130097 395.031808 
L 337.483207 393.416589 
L 339.836317 391.495366 
L 342.189427 389.271408 
L 344.542537 386.771177 
L 346.895647 384.009847 
L 349.248757 381.010208 
L 353.954978 374.386959 
L 358.661198 367.126072 
L 365.720528 355.549826 
L 375.132968 339.938254 
L 379.839188 332.516867 
L 384.545408 325.613674 
L 389.251628 319.309501 
L 393.957848 313.653213 
L 396.310958 311.083739 
L 398.664068 308.69486 
L 401.017179 306.492943 
L 403.370289 304.484316 
L 405.723399 302.667162 
L 408.076509 301.046962 
L 410.429619 299.618191 
L 412.782729 298.383188 
L 415.135839 297.338986 
L 417.488949 296.48534 
L 419.842059 295.821144 
L 422.195169 295.345547 
L 424.548279 295.057291 
L 426.901389 294.955455 
L 429.254499 295.040895 
L 431.607609 295.311793 
L 433.960719 295.780817 
L 436.313829 296.446683 
L 438.666939 297.309495 
L 441.020049 298.369435 
L 443.373159 299.624802 
L 445.726269 301.075273 
L 448.079379 302.720117 
L 450.43249 304.55861 
L 452.7856 306.590294 
L 455.13871 308.814489 
L 457.49182 311.228285 
L 459.84493 313.830835 
L 464.55115 319.531366 
L 469.25737 325.755276 
L 476.3167 335.676868 
L 488.08225 352.373888 
L 492.78847 358.750494 
L 497.49469 364.800615 
L 502.200911 370.441954 
L 506.907131 375.516276 
L 509.260241 377.788841 
L 511.613351 379.856751 
L 513.966461 381.698526 
L 516.319571 383.293012 
L 518.672681 384.618917 
L 521.025791 385.655032 
L 523.378901 386.380714 
L 525.732011 386.774807 
L 528.085121 386.813561 
L 530.438231 386.477507 
L 532.791341 385.764102 
L 535.144451 384.695125 
L 537.497561 383.346613 
L 539.850671 381.74594 
L 542.203781 379.960617 
L 546.910001 376.023712 
L 553.969332 369.988179 
L 556.322442 368.147043 
L 558.675552 366.475989 
L 561.028662 365.016901 
L 563.381772 363.806764 
L 565.734882 362.82501 
L 568.087992 362.099186 
L 570.441102 361.615965 
L 572.794212 361.387883 
L 575.147322 361.39191 
L 579.853542 361.847149 
L 584.559762 362.344828 
L 586.912872 362.399988 
L 589.265982 362.24856 
L 591.619092 361.876552 
L 593.972202 361.325535 
L 596.325312 360.593469 
L 598.678423 359.719158 
L 603.384643 357.609279 
L 615.150193 351.806483 
L 617.503303 350.868943 
L 619.856413 350.094357 
L 622.209523 349.528245 
L 624.562633 349.208079 
L 626.915743 349.152257 
L 629.268853 349.355204 
L 631.621963 349.754534 
L 633.975073 350.336373 
L 638.681293 351.854252 
L 648.093734 355.278466 
L 652.799954 356.702575 
L 657.506174 357.844144 
L 662.212394 358.703886 
L 666.918614 359.284814 
L 671.624834 359.60728 
L 683.390384 360.140833 
L 688.096604 360.667939 
L 692.802824 361.492149 
L 702.215265 363.312695 
L 706.921485 363.929164 
L 711.627705 364.226583 
L 716.333925 364.135495 
L 721.040145 363.605009 
L 725.746365 362.656488 
L 730.452585 361.340771 
L 735.158805 359.696968 
L 739.865025 357.726834 
L 744.571246 355.400106 
L 749.277466 352.669655 
L 761.043016 345.027966 
L 763.396126 343.791538 
L 765.749236 342.788241 
L 768.102346 342.054206 
L 770.455456 341.637915 
L 772.808566 341.549355 
L 775.161676 341.828982 
L 777.514786 342.472402 
L 779.867896 343.456234 
L 782.221006 344.6985 
L 784.574116 346.175536 
L 786.927226 347.837817 
L 791.633446 351.563649 
L 803.398997 361.536524 
L 805.752107 363.300924 
L 808.105217 364.88209 
L 810.458327 366.24562 
L 812.811437 367.346997 
L 815.164547 368.149205 
L 817.517657 368.61134 
L 819.870767 368.697006 
L 822.223877 368.366854 
L 824.576987 367.644162 
L 826.930097 366.546688 
L 829.283207 365.142525 
L 831.636317 363.453621 
L 833.989427 361.538276 
L 838.695647 357.188731 
L 852.814308 343.173091 
L 855.167418 341.13795 
L 857.520528 339.266348 
L 859.873638 337.594397 
L 862.226748 336.116342 
L 864.579858 334.857372 
L 866.932968 333.822515 
L 869.286078 333.0267 
L 871.639188 332.503246 
L 873.992298 332.266666 
L 876.345408 332.331817 
L 878.698518 332.693256 
L 881.051628 333.282002 
L 883.404738 334.07183 
L 888.110958 336.00044 
L 899.876509 341.099437 
L 904.582729 342.889733 
L 913.995169 346.303654 
L 918.701389 348.403573 
L 923.407609 350.900557 
L 930.466939 355.088989 
L 939.879379 360.73537 
L 944.5856 363.255851 
L 946.93871 364.362018 
L 949.29182 365.334824 
L 951.64493 366.157572 
L 953.99804 366.807308 
L 956.35115 367.276498 
L 958.70426 367.545581 
L 961.05737 367.619255 
L 963.41048 367.493921 
L 965.76359 367.215798 
L 970.46981 366.247531 
L 975.17603 364.905888 
L 982.23536 362.516474 
L 991.647801 359.235927 
L 996.354021 357.810521 
L 1001.060241 356.701359 
L 1003.413351 356.307958 
L 1005.766461 356.044619 
L 1008.119571 355.928309 
L 1010.472681 355.976105 
L 1012.825791 356.205138 
L 1015.178901 356.632839 
L 1017.532011 357.250589 
L 1019.885121 358.063281 
L 1022.238231 359.030582 
L 1026.944451 361.390371 
L 1031.650671 364.167956 
L 1048.122442 374.550104 
L 1052.828662 377.083757 
L 1057.534882 379.242054 
L 1062.241102 381.025372 
L 1066.947322 382.44366 
L 1071.653542 383.521595 
L 1076.359762 384.286765 
L 1081.065982 384.74836 
L 1085.772202 384.904775 
L 1088.125313 384.879799 
L 1088.125313 384.879799 
" clip-path="url(#p47713199a0)" style="fill: none; stroke: #f27f19; stroke-width: 1.5; stroke-linecap: square"/>
   </g>
   <g id="patch_13">
    <path d="M 55.345313 403.22 
L 55.345313 289.8 
" style="fill: none; stroke: #000000; stroke-width: 0.8; stroke-linejoin: miter; stroke-linecap: square"/>
   </g>
   <g id="patch_14">
    <path d="M 1137.305313 403.22 
L 1137.305313 289.8 
" style="fill: none; stroke: #000000; stroke-width: 0.8; stroke-linejoin: miter; stroke-linecap: square"/>
   </g>
   <g id="patch_15">
    <path d="M 55.345313 403.22 
L 1137.305312 403.22 
" style="fill: none; stroke: #000000; stroke-width: 0.8; stroke-linejoin: miter; stroke-linecap: square"/>
   </g>
   <g id="patch_16">
    <path d="M 55.345313 289.8 
L 1137.305312 289.8 
" style="fill: none; stroke: #000000; stroke-width: 0.8; stroke-linejoin: miter; stroke-linecap: square"/>
   </g>
  </g>
  <g id="axes_4">
   <g id="patch_17">
    <path d="M 55.345313 544.52 
L 1137.305313 544.52 
L 1137.305313 431.1 
L 55.345313 431.1 
z
" style="fill: #ffffff"/>
   </g>
   <g id="matplotlib.axis_7">
    <g id="xtick_16">
     <g id="line2d_30">
      <g>
       <use xlink:href="#mec52677648" x="104.525313" y="544.52" style="stroke: #000000; stroke-width: 0.8"/>
      </g>
     </g>
     <g id="text_30">
      <!-- 0 -->
      <g transform="translate(101.344063 559.118437) scale(0.1 -0.1)">
       <use xlink:href="#DejaVuSans-30"/>
      </g>
     </g>
    </g>
    <g id="xtick_17">
     <g id="line2d_31">
      <g>
       <use xlink:href="#mec52677648" x="339.836317" y="544.52" style="stroke: #000000; stroke-width: 0.8"/>
      </g>
     </g>
     <g id="text_31">
      <!-- 100 -->
      <g transform="translate(330.292567 559.118437) scale(0.1 -0.1)">
       <use xlink:href="#DejaVuSans-31"/>
       <use xlink:href="#DejaVuSans-30" transform="translate(63.623047 0)"/>
       <use xlink:href="#DejaVuSans-30" transform="translate(127.246094 0)"/>
      </g>
     </g>
    </g>
    <g id="xtick_18">
     <g id="line2d_32">
      <g>
       <use xlink:href="#mec52677648" x="575.147322" y="544.52" style="stroke: #000000; stroke-width: 0.8"/>
      </g>
     </g>
     <g id="text_32">
      <!-- 200 -->
      <g transform="translate(565.603572 559.118437) scale(0.1 -0.1)">
       <use xlink:href="#DejaVuSans-32"/>
       <use xlink:href="#DejaVuSans-30" transform="translate(63.623047 0)"/>
       <use xlink:href="#DejaVuSans-30" transform="translate(127.246094 0)"/>
      </g>
     </g>
    </g>
    <g id="xtick_19">
     <g id="line2d_33">
      <g>
       <use xlink:href="#mec52677648" x="810.458327" y="544.52" style="stroke: #000000; stroke-width: 0.8"/>
      </g>
     </g>
     <g id="text_33">
      <!-- 300 -->
      <g transform="translate(800.914577 559.118437) scale(0.1 -0.1)">
       <use xlink:href="#DejaVuSans-33"/>
       <use xlink:href="#DejaVuSans-30" transform="translate(63.623047 0)"/>
       <use xlink:href="#DejaVuSans-30" transform="translate(127.246094 0)"/>
      </g>
     </g>
    </g>
    <g id="xtick_20">
     <g id="line2d_34">
      <g>
       <use xlink:href="#mec52677648" x="1045.769332" y="544.52" style="stroke: #000000; stroke-width: 0.8"/>
      </g>
     </g>
     <g id="text_34">
      <!-- 400 -->
      <g transform="translate(1036.225582 559.118437) scale(0.1 -0.1)">
       <use xlink:href="#DejaVuSans-34"/>
       <use xlink:href="#DejaVuSans-30" transform="translate(63.623047 0)"/>
       <use xlink:href="#DejaVuSans-30" transform="translate(127.246094 0)"/>
      </g>
     </g>
    </g>
   </g>
   <g id="matplotlib.axis_8">
    <g id="ytick_12">
     <g id="line2d_35">
      <g>
       <use xlink:href="#m87401c6561" x="55.345313" y="518.705948" style="stroke: #000000; stroke-width: 0.8"/>
      </g>
     </g>
     <g id="text_35">
      <!-- 800 -->
      <g transform="translate(29.257813 522.505167) scale(0.1 -0.1)">
       <defs>
        <path id="DejaVuSans-38" d="M 2034 2216 
Q 1584 2216 1326 1975 
Q 1069 1734 1069 1313 
Q 1069 891 1326 650 
Q 1584 409 2034 409 
Q 2484 409 2743 651 
Q 3003 894 3003 1313 
Q 3003 1734 2745 1975 
Q 2488 2216 2034 2216 
z
M 1403 2484 
Q 997 2584 770 2862 
Q 544 3141 544 3541 
Q 544 4100 942 4425 
Q 1341 4750 2034 4750 
Q 2731 4750 3128 4425 
Q 3525 4100 3525 3541 
Q 3525 3141 3298 2862 
Q 3072 2584 2669 2484 
Q 3125 2378 3379 2068 
Q 3634 1759 3634 1313 
Q 3634 634 3220 271 
Q 2806 -91 2034 -91 
Q 1263 -91 848 271 
Q 434 634 434 1313 
Q 434 1759 690 2068 
Q 947 2378 1403 2484 
z
M 1172 3481 
Q 1172 3119 1398 2916 
Q 1625 2713 2034 2713 
Q 2441 2713 2670 2916 
Q 2900 3119 2900 3481 
Q 2900 3844 2670 4047 
Q 2441 4250 2034 4250 
Q 1625 4250 1398 4047 
Q 1172 3844 1172 3481 
z
" transform="scale(0.015625)"/>
       </defs>
       <use xlink:href="#DejaVuSans-38"/>
       <use xlink:href="#DejaVuSans-30" transform="translate(63.623047 0)"/>
       <use xlink:href="#DejaVuSans-30" transform="translate(127.246094 0)"/>
      </g>
     </g>
    </g>
    <g id="ytick_13">
     <g id="line2d_36">
      <g>
       <use xlink:href="#m87401c6561" x="55.345313" y="477.639274" style="stroke: #000000; stroke-width: 0.8"/>
      </g>
     </g>
     <g id="text_36">
      <!-- 1000 -->
      <g transform="translate(22.895313 481.438493) scale(0.1 -0.1)">
       <use xlink:href="#DejaVuSans-31"/>
       <use xlink:href="#DejaVuSans-30" transform="translate(63.623047 0)"/>
       <use xlink:href="#DejaVuSans-30" transform="translate(127.246094 0)"/>
       <use xlink:href="#DejaVuSans-30" transform="translate(190.869141 0)"/>
      </g>
     </g>
    </g>
    <g id="ytick_14">
     <g id="line2d_37">
      <g>
       <use xlink:href="#m87401c6561" x="55.345313" y="436.572599" style="stroke: #000000; stroke-width: 0.8"/>
      </g>
     </g>
     <g id="text_37">
      <!-- 1200 -->
      <g transform="translate(22.895313 440.371818) scale(0.1 -0.1)">
       <use xlink:href="#DejaVuSans-31"/>
       <use xlink:href="#DejaVuSans-32" transform="translate(63.623047 0)"/>
       <use xlink:href="#DejaVuSans-30" transform="translate(127.246094 0)"/>
       <use xlink:href="#DejaVuSans-30" transform="translate(190.869141 0)"/>
      </g>
     </g>
    </g>
    <g id="text_38">
     <!-- co-imf2 -->
     <g transform="translate(16.815625 506.717031) rotate(-90) scale(0.1 -0.1)">
      <use xlink:href="#DejaVuSans-63"/>
      <use xlink:href="#DejaVuSans-6f" transform="translate(54.980469 0)"/>
      <use xlink:href="#DejaVuSans-2d" transform="translate(118.037109 0)"/>
      <use xlink:href="#DejaVuSans-69" transform="translate(154.121094 0)"/>
      <use xlink:href="#DejaVuSans-6d" transform="translate(181.904297 0)"/>
      <use xlink:href="#DejaVuSans-66" transform="translate(279.316406 0)"/>
      <use xlink:href="#DejaVuSans-32" transform="translate(314.521484 0)"/>
     </g>
    </g>
   </g>
   <g id="line2d_38">
    <path d="M 104.525313 536.837718 
L 111.584643 537.7298 
L 118.643973 538.429675 
L 125.703303 538.933941 
L 132.762633 539.244723 
L 139.821963 539.364545 
L 146.881293 539.295931 
L 153.940624 539.041404 
L 160.999954 538.603488 
L 168.059284 537.984707 
L 175.118614 537.187585 
L 182.177944 536.214645 
L 189.237274 535.068412 
L 196.296604 533.751408 
L 205.709045 531.734123 
L 215.121485 529.423717 
L 224.533925 526.829123 
L 233.946365 523.972324 
L 243.358805 520.879171 
L 252.771246 517.575522 
L 264.536796 513.188941 
L 276.302346 508.562659 
L 290.421006 502.763814 
L 309.245887 494.751594 
L 356.308088 474.564777 
L 370.426748 468.812265 
L 382.192298 464.237086 
L 393.957848 459.912964 
L 403.370289 456.667406 
L 412.782729 453.63906 
L 422.195169 450.852385 
L 431.607609 448.325443 
L 441.020049 446.062628 
L 450.43249 444.0573 
L 459.84493 442.301431 
L 469.25737 440.78689 
L 478.66981 439.505542 
L 488.08225 438.449255 
L 497.49469 437.609894 
L 506.907131 436.979326 
L 516.319571 436.549419 
L 525.732011 436.312038 
L 535.144451 436.25905 
L 546.910001 436.439685 
L 558.675552 436.871299 
L 572.794212 437.653843 
L 589.265982 438.814775 
L 638.681293 442.489496 
L 657.506174 443.539102 
L 673.977944 444.248815 
L 690.449714 444.756436 
L 706.921485 445.054708 
L 725.746365 445.151485 
L 746.924356 445.004452 
L 770.455456 444.603248 
L 803.398997 443.793804 
L 855.167418 442.505692 
L 878.698518 442.143104 
L 899.876509 442.034078 
L 921.054499 442.135003 
L 944.5856 442.465395 
L 970.46981 443.056991 
L 998.707131 443.926113 
L 1031.650671 445.162913 
L 1078.712872 447.178204 
L 1088.125313 447.596763 
L 1088.125313 447.596763 
" clip-path="url(#p0aad19797f)" style="fill: none; stroke: #f27f19; stroke-width: 1.5; stroke-linecap: square"/>
   </g>
   <g id="patch_18">
    <path d="M 55.345313 544.52 
L 55.345313 431.1 
" style="fill: none; stroke: #000000; stroke-width: 0.8; stroke-linejoin: miter; stroke-linecap: square"/>
   </g>
   <g id="patch_19">
    <path d="M 1137.305313 544.52 
L 1137.305313 431.1 
" style="fill: none; stroke: #000000; stroke-width: 0.8; stroke-linejoin: miter; stroke-linecap: square"/>
   </g>
   <g id="patch_20">
    <path d="M 55.345313 544.52 
L 1137.305312 544.52 
" style="fill: none; stroke: #000000; stroke-width: 0.8; stroke-linejoin: miter; stroke-linecap: square"/>
   </g>
   <g id="patch_21">
    <path d="M 55.345313 431.1 
L 1137.305312 431.1 
" style="fill: none; stroke: #000000; stroke-width: 0.8; stroke-linejoin: miter; stroke-linecap: square"/>
   </g>
  </g>
 </g>
 <defs>
  <clipPath id="pd749ce76ad">
   <rect x="55.345313" y="7.2" width="1081.96" height="113.42"/>
  </clipPath>
  <clipPath id="p36a7b14e31">
   <rect x="55.345313" y="148.5" width="1081.96" height="113.42"/>
  </clipPath>
  <clipPath id="p47713199a0">
   <rect x="55.345313" y="289.8" width="1081.96" height="113.42"/>
  </clipPath>
  <clipPath id="p0aad19797f">
   <rect x="55.345313" y="431.1" width="1081.96" height="113.42"/>
  </clipPath>
 </defs>
</svg>
