<?xml version="1.0" encoding="utf-8" standalone="no"?>
<!DOCTYPE svg PUBLIC "-//W3C//DTD SVG 1.1//EN"
  "http://www.w3.org/Graphics/SVG/1.1/DTD/svg11.dtd">
<svg xmlns:xlink="http://www.w3.org/1999/xlink" width="1144.505312pt" height="570.428238pt" viewBox="0 0 1144.505312 570.428238" xmlns="http://www.w3.org/2000/svg" version="1.1">
 <metadata>
  <rdf:RDF xmlns:dc="http://purl.org/dc/elements/1.1/" xmlns:cc="http://creativecommons.org/ns#" xmlns:rdf="http://www.w3.org/1999/02/22-rdf-syntax-ns#">
   <cc:Work>
    <dc:type rdf:resource="http://purl.org/dc/dcmitype/StillImage"/>
    <dc:date>2025-04-14T14:59:21.586366</dc:date>
    <dc:format>image/svg+xml</dc:format>
    <dc:creator>
     <cc:Agent>
      <dc:title>Matplotlib v3.10.1, https://matplotlib.org/</dc:title>
     </cc:Agent>
    </dc:creator>
   </cc:Work>
  </rdf:RDF>
 </metadata>
 <defs>
  <style type="text/css">*{stroke-linejoin: round; stroke-linecap: butt}</style>
 </defs>
 <g id="figure_1">
  <g id="patch_1">
   <path d="M 0 570.428238 
L 1144.505312 570.428238 
L 1144.505312 0 
L 0 0 
z
" style="fill: #ffffff"/>
  </g>
  <g id="axes_1">
   <g id="patch_2">
    <path d="M 55.345313 122.650113 
L 1137.305313 122.650113 
L 1137.305313 9.230113 
L 55.345313 9.230113 
z
" style="fill: #ffffff"/>
   </g>
   <g id="matplotlib.axis_1">
    <g id="xtick_1">
     <g id="line2d_1">
      <defs>
       <path id="ma9eda4b908" d="M 0 0 
L 0 3.5 
" style="stroke: #000000; stroke-width: 0.8"/>
      </defs>
      <g>
       <use xlink:href="#ma9eda4b908" x="104.525313" y="122.650113" style="stroke: #000000; stroke-width: 0.8"/>
      </g>
     </g>
     <g id="text_1">
      <!-- 0 -->
      <g transform="translate(101.344063 137.248551) scale(0.1 -0.1)">
       <defs>
        <path id="DejaVuSans-30" d="M 2034 4250 
Q 1547 4250 1301 3770 
Q 1056 3291 1056 2328 
Q 1056 1369 1301 889 
Q 1547 409 2034 409 
Q 2525 409 2770 889 
Q 3016 1369 3016 2328 
Q 3016 3291 2770 3770 
Q 2525 4250 2034 4250 
z
M 2034 4750 
Q 2819 4750 3233 4129 
Q 3647 3509 3647 2328 
Q 3647 1150 3233 529 
Q 2819 -91 2034 -91 
Q 1250 -91 836 529 
Q 422 1150 422 2328 
Q 422 3509 836 4129 
Q 1250 4750 2034 4750 
z
" transform="scale(0.015625)"/>
       </defs>
       <use xlink:href="#DejaVuSans-30"/>
      </g>
     </g>
    </g>
    <g id="xtick_2">
     <g id="line2d_2">
      <g>
       <use xlink:href="#ma9eda4b908" x="306.08269" y="122.650113" style="stroke: #000000; stroke-width: 0.8"/>
      </g>
     </g>
     <g id="text_2">
      <!-- 100 -->
      <g transform="translate(296.53894 137.248551) scale(0.1 -0.1)">
       <defs>
        <path id="DejaVuSans-31" d="M 794 531 
L 1825 531 
L 1825 4091 
L 703 3866 
L 703 4441 
L 1819 4666 
L 2450 4666 
L 2450 531 
L 3481 531 
L 3481 0 
L 794 0 
L 794 531 
z
" transform="scale(0.015625)"/>
       </defs>
       <use xlink:href="#DejaVuSans-31"/>
       <use xlink:href="#DejaVuSans-30" transform="translate(63.623047 0)"/>
       <use xlink:href="#DejaVuSans-30" transform="translate(127.246094 0)"/>
      </g>
     </g>
    </g>
    <g id="xtick_3">
     <g id="line2d_3">
      <g>
       <use xlink:href="#ma9eda4b908" x="507.640067" y="122.650113" style="stroke: #000000; stroke-width: 0.8"/>
      </g>
     </g>
     <g id="text_3">
      <!-- 200 -->
      <g transform="translate(498.096317 137.248551) scale(0.1 -0.1)">
       <defs>
        <path id="DejaVuSans-32" d="M 1228 531 
L 3431 531 
L 3431 0 
L 469 0 
L 469 531 
Q 828 903 1448 1529 
Q 2069 2156 2228 2338 
Q 2531 2678 2651 2914 
Q 2772 3150 2772 3378 
Q 2772 3750 2511 3984 
Q 2250 4219 1831 4219 
Q 1534 4219 1204 4116 
Q 875 4013 500 3803 
L 500 4441 
Q 881 4594 1212 4672 
Q 1544 4750 1819 4750 
Q 2544 4750 2975 4387 
Q 3406 4025 3406 3419 
Q 3406 3131 3298 2873 
Q 3191 2616 2906 2266 
Q 2828 2175 2409 1742 
Q 1991 1309 1228 531 
z
" transform="scale(0.015625)"/>
       </defs>
       <use xlink:href="#DejaVuSans-32"/>
       <use xlink:href="#DejaVuSans-30" transform="translate(63.623047 0)"/>
       <use xlink:href="#DejaVuSans-30" transform="translate(127.246094 0)"/>
      </g>
     </g>
    </g>
    <g id="xtick_4">
     <g id="line2d_4">
      <g>
       <use xlink:href="#ma9eda4b908" x="709.197444" y="122.650113" style="stroke: #000000; stroke-width: 0.8"/>
      </g>
     </g>
     <g id="text_4">
      <!-- 300 -->
      <g transform="translate(699.653694 137.248551) scale(0.1 -0.1)">
       <defs>
        <path id="DejaVuSans-33" d="M 2597 2516 
Q 3050 2419 3304 2112 
Q 3559 1806 3559 1356 
Q 3559 666 3084 287 
Q 2609 -91 1734 -91 
Q 1441 -91 1130 -33 
Q 819 25 488 141 
L 488 750 
Q 750 597 1062 519 
Q 1375 441 1716 441 
Q 2309 441 2620 675 
Q 2931 909 2931 1356 
Q 2931 1769 2642 2001 
Q 2353 2234 1838 2234 
L 1294 2234 
L 1294 2753 
L 1863 2753 
Q 2328 2753 2575 2939 
Q 2822 3125 2822 3475 
Q 2822 3834 2567 4026 
Q 2313 4219 1838 4219 
Q 1578 4219 1281 4162 
Q 984 4106 628 3988 
L 628 4550 
Q 988 4650 1302 4700 
Q 1616 4750 1894 4750 
Q 2613 4750 3031 4423 
Q 3450 4097 3450 3541 
Q 3450 3153 3228 2886 
Q 3006 2619 2597 2516 
z
" transform="scale(0.015625)"/>
       </defs>
       <use xlink:href="#DejaVuSans-33"/>
       <use xlink:href="#DejaVuSans-30" transform="translate(63.623047 0)"/>
       <use xlink:href="#DejaVuSans-30" transform="translate(127.246094 0)"/>
      </g>
     </g>
    </g>
    <g id="xtick_5">
     <g id="line2d_5">
      <g>
       <use xlink:href="#ma9eda4b908" x="910.754821" y="122.650113" style="stroke: #000000; stroke-width: 0.8"/>
      </g>
     </g>
     <g id="text_5">
      <!-- 400 -->
      <g transform="translate(901.211071 137.248551) scale(0.1 -0.1)">
       <defs>
        <path id="DejaVuSans-34" d="M 2419 4116 
L 825 1625 
L 2419 1625 
L 2419 4116 
z
M 2253 4666 
L 3047 4666 
L 3047 1625 
L 3713 1625 
L 3713 1100 
L 3047 1100 
L 3047 0 
L 2419 0 
L 2419 1100 
L 313 1100 
L 313 1709 
L 2253 4666 
z
" transform="scale(0.015625)"/>
       </defs>
       <use xlink:href="#DejaVuSans-34"/>
       <use xlink:href="#DejaVuSans-30" transform="translate(63.623047 0)"/>
       <use xlink:href="#DejaVuSans-30" transform="translate(127.246094 0)"/>
      </g>
     </g>
    </g>
    <g id="xtick_6">
     <g id="line2d_6">
      <g>
       <use xlink:href="#ma9eda4b908" x="1112.312198" y="122.650113" style="stroke: #000000; stroke-width: 0.8"/>
      </g>
     </g>
     <g id="text_6">
      <!-- 500 -->
      <g transform="translate(1102.768448 137.248551) scale(0.1 -0.1)">
       <defs>
        <path id="DejaVuSans-35" d="M 691 4666 
L 3169 4666 
L 3169 4134 
L 1269 4134 
L 1269 2991 
Q 1406 3038 1543 3061 
Q 1681 3084 1819 3084 
Q 2600 3084 3056 2656 
Q 3513 2228 3513 1497 
Q 3513 744 3044 326 
Q 2575 -91 1722 -91 
Q 1428 -91 1123 -41 
Q 819 9 494 109 
L 494 744 
Q 775 591 1075 516 
Q 1375 441 1709 441 
Q 2250 441 2565 725 
Q 2881 1009 2881 1497 
Q 2881 1984 2565 2268 
Q 2250 2553 1709 2553 
Q 1456 2553 1204 2497 
Q 953 2441 691 2322 
L 691 4666 
z
" transform="scale(0.015625)"/>
       </defs>
       <use xlink:href="#DejaVuSans-35"/>
       <use xlink:href="#DejaVuSans-30" transform="translate(63.623047 0)"/>
       <use xlink:href="#DejaVuSans-30" transform="translate(127.246094 0)"/>
      </g>
     </g>
    </g>
   </g>
   <g id="matplotlib.axis_2">
    <g id="ytick_1">
     <g id="line2d_7">
      <defs>
       <path id="mee641cda77" d="M 0 0 
L -3.5 0 
" style="stroke: #000000; stroke-width: 0.8"/>
      </defs>
      <g>
       <use xlink:href="#mee641cda77" x="55.345313" y="104.886586" style="stroke: #000000; stroke-width: 0.8"/>
      </g>
     </g>
     <g id="text_7">
      <!-- 800 -->
      <g transform="translate(29.257813 108.685804) scale(0.1 -0.1)">
       <defs>
        <path id="DejaVuSans-38" d="M 2034 2216 
Q 1584 2216 1326 1975 
Q 1069 1734 1069 1313 
Q 1069 891 1326 650 
Q 1584 409 2034 409 
Q 2484 409 2743 651 
Q 3003 894 3003 1313 
Q 3003 1734 2745 1975 
Q 2488 2216 2034 2216 
z
M 1403 2484 
Q 997 2584 770 2862 
Q 544 3141 544 3541 
Q 544 4100 942 4425 
Q 1341 4750 2034 4750 
Q 2731 4750 3128 4425 
Q 3525 4100 3525 3541 
Q 3525 3141 3298 2862 
Q 3072 2584 2669 2484 
Q 3125 2378 3379 2068 
Q 3634 1759 3634 1313 
Q 3634 634 3220 271 
Q 2806 -91 2034 -91 
Q 1263 -91 848 271 
Q 434 634 434 1313 
Q 434 1759 690 2068 
Q 947 2378 1403 2484 
z
M 1172 3481 
Q 1172 3119 1398 2916 
Q 1625 2713 2034 2713 
Q 2441 2713 2670 2916 
Q 2900 3119 2900 3481 
Q 2900 3844 2670 4047 
Q 2441 4250 2034 4250 
Q 1625 4250 1398 4047 
Q 1172 3844 1172 3481 
z
" transform="scale(0.015625)"/>
       </defs>
       <use xlink:href="#DejaVuSans-38"/>
       <use xlink:href="#DejaVuSans-30" transform="translate(63.623047 0)"/>
       <use xlink:href="#DejaVuSans-30" transform="translate(127.246094 0)"/>
      </g>
     </g>
    </g>
    <g id="ytick_2">
     <g id="line2d_8">
      <g>
       <use xlink:href="#mee641cda77" x="55.345313" y="81.414744" style="stroke: #000000; stroke-width: 0.8"/>
      </g>
     </g>
     <g id="text_8">
      <!-- 1000 -->
      <g transform="translate(22.895313 85.213963) scale(0.1 -0.1)">
       <use xlink:href="#DejaVuSans-31"/>
       <use xlink:href="#DejaVuSans-30" transform="translate(63.623047 0)"/>
       <use xlink:href="#DejaVuSans-30" transform="translate(127.246094 0)"/>
       <use xlink:href="#DejaVuSans-30" transform="translate(190.869141 0)"/>
      </g>
     </g>
    </g>
    <g id="ytick_3">
     <g id="line2d_9">
      <g>
       <use xlink:href="#mee641cda77" x="55.345313" y="57.942902" style="stroke: #000000; stroke-width: 0.8"/>
      </g>
     </g>
     <g id="text_9">
      <!-- 1200 -->
      <g transform="translate(22.895313 61.742121) scale(0.1 -0.1)">
       <use xlink:href="#DejaVuSans-31"/>
       <use xlink:href="#DejaVuSans-32" transform="translate(63.623047 0)"/>
       <use xlink:href="#DejaVuSans-30" transform="translate(127.246094 0)"/>
       <use xlink:href="#DejaVuSans-30" transform="translate(190.869141 0)"/>
      </g>
     </g>
    </g>
    <g id="ytick_4">
     <g id="line2d_10">
      <g>
       <use xlink:href="#mee641cda77" x="55.345313" y="34.47106" style="stroke: #000000; stroke-width: 0.8"/>
      </g>
     </g>
     <g id="text_10">
      <!-- 1400 -->
      <g transform="translate(22.895313 38.270279) scale(0.1 -0.1)">
       <use xlink:href="#DejaVuSans-31"/>
       <use xlink:href="#DejaVuSans-34" transform="translate(63.623047 0)"/>
       <use xlink:href="#DejaVuSans-30" transform="translate(127.246094 0)"/>
       <use xlink:href="#DejaVuSans-30" transform="translate(190.869141 0)"/>
      </g>
     </g>
    </g>
    <g id="ytick_5">
     <g id="line2d_11">
      <g>
       <use xlink:href="#mee641cda77" x="55.345313" y="10.999219" style="stroke: #000000; stroke-width: 0.8"/>
      </g>
     </g>
     <g id="text_11">
      <!-- 1600 -->
      <g transform="translate(22.895313 14.798437) scale(0.1 -0.1)">
       <defs>
        <path id="DejaVuSans-36" d="M 2113 2584 
Q 1688 2584 1439 2293 
Q 1191 2003 1191 1497 
Q 1191 994 1439 701 
Q 1688 409 2113 409 
Q 2538 409 2786 701 
Q 3034 994 3034 1497 
Q 3034 2003 2786 2293 
Q 2538 2584 2113 2584 
z
M 3366 4563 
L 3366 3988 
Q 3128 4100 2886 4159 
Q 2644 4219 2406 4219 
Q 1781 4219 1451 3797 
Q 1122 3375 1075 2522 
Q 1259 2794 1537 2939 
Q 1816 3084 2150 3084 
Q 2853 3084 3261 2657 
Q 3669 2231 3669 1497 
Q 3669 778 3244 343 
Q 2819 -91 2113 -91 
Q 1303 -91 875 529 
Q 447 1150 447 2328 
Q 447 3434 972 4092 
Q 1497 4750 2381 4750 
Q 2619 4750 2861 4703 
Q 3103 4656 3366 4563 
z
" transform="scale(0.015625)"/>
       </defs>
       <use xlink:href="#DejaVuSans-31"/>
       <use xlink:href="#DejaVuSans-36" transform="translate(63.623047 0)"/>
       <use xlink:href="#DejaVuSans-30" transform="translate(127.246094 0)"/>
       <use xlink:href="#DejaVuSans-30" transform="translate(190.869141 0)"/>
      </g>
     </g>
    </g>
    <g id="text_12">
     <!-- Original Data -->
     <g transform="translate(16.815625 99.033082) rotate(-90) scale(0.1 -0.1)">
      <defs>
       <path id="DejaVuSans-4f" d="M 2522 4238 
Q 1834 4238 1429 3725 
Q 1025 3213 1025 2328 
Q 1025 1447 1429 934 
Q 1834 422 2522 422 
Q 3209 422 3611 934 
Q 4013 1447 4013 2328 
Q 4013 3213 3611 3725 
Q 3209 4238 2522 4238 
z
M 2522 4750 
Q 3503 4750 4090 4092 
Q 4678 3434 4678 2328 
Q 4678 1225 4090 567 
Q 3503 -91 2522 -91 
Q 1538 -91 948 565 
Q 359 1222 359 2328 
Q 359 3434 948 4092 
Q 1538 4750 2522 4750 
z
" transform="scale(0.015625)"/>
       <path id="DejaVuSans-72" d="M 2631 2963 
Q 2534 3019 2420 3045 
Q 2306 3072 2169 3072 
Q 1681 3072 1420 2755 
Q 1159 2438 1159 1844 
L 1159 0 
L 581 0 
L 581 3500 
L 1159 3500 
L 1159 2956 
Q 1341 3275 1631 3429 
Q 1922 3584 2338 3584 
Q 2397 3584 2469 3576 
Q 2541 3569 2628 3553 
L 2631 2963 
z
" transform="scale(0.015625)"/>
       <path id="DejaVuSans-69" d="M 603 3500 
L 1178 3500 
L 1178 0 
L 603 0 
L 603 3500 
z
M 603 4863 
L 1178 4863 
L 1178 4134 
L 603 4134 
L 603 4863 
z
" transform="scale(0.015625)"/>
       <path id="DejaVuSans-67" d="M 2906 1791 
Q 2906 2416 2648 2759 
Q 2391 3103 1925 3103 
Q 1463 3103 1205 2759 
Q 947 2416 947 1791 
Q 947 1169 1205 825 
Q 1463 481 1925 481 
Q 2391 481 2648 825 
Q 2906 1169 2906 1791 
z
M 3481 434 
Q 3481 -459 3084 -895 
Q 2688 -1331 1869 -1331 
Q 1566 -1331 1297 -1286 
Q 1028 -1241 775 -1147 
L 775 -588 
Q 1028 -725 1275 -790 
Q 1522 -856 1778 -856 
Q 2344 -856 2625 -561 
Q 2906 -266 2906 331 
L 2906 616 
Q 2728 306 2450 153 
Q 2172 0 1784 0 
Q 1141 0 747 490 
Q 353 981 353 1791 
Q 353 2603 747 3093 
Q 1141 3584 1784 3584 
Q 2172 3584 2450 3431 
Q 2728 3278 2906 2969 
L 2906 3500 
L 3481 3500 
L 3481 434 
z
" transform="scale(0.015625)"/>
       <path id="DejaVuSans-6e" d="M 3513 2113 
L 3513 0 
L 2938 0 
L 2938 2094 
Q 2938 2591 2744 2837 
Q 2550 3084 2163 3084 
Q 1697 3084 1428 2787 
Q 1159 2491 1159 1978 
L 1159 0 
L 581 0 
L 581 3500 
L 1159 3500 
L 1159 2956 
Q 1366 3272 1645 3428 
Q 1925 3584 2291 3584 
Q 2894 3584 3203 3211 
Q 3513 2838 3513 2113 
z
" transform="scale(0.015625)"/>
       <path id="DejaVuSans-61" d="M 2194 1759 
Q 1497 1759 1228 1600 
Q 959 1441 959 1056 
Q 959 750 1161 570 
Q 1363 391 1709 391 
Q 2188 391 2477 730 
Q 2766 1069 2766 1631 
L 2766 1759 
L 2194 1759 
z
M 3341 1997 
L 3341 0 
L 2766 0 
L 2766 531 
Q 2569 213 2275 61 
Q 1981 -91 1556 -91 
Q 1019 -91 701 211 
Q 384 513 384 1019 
Q 384 1609 779 1909 
Q 1175 2209 1959 2209 
L 2766 2209 
L 2766 2266 
Q 2766 2663 2505 2880 
Q 2244 3097 1772 3097 
Q 1472 3097 1187 3025 
Q 903 2953 641 2809 
L 641 3341 
Q 956 3463 1253 3523 
Q 1550 3584 1831 3584 
Q 2591 3584 2966 3190 
Q 3341 2797 3341 1997 
z
" transform="scale(0.015625)"/>
       <path id="DejaVuSans-6c" d="M 603 4863 
L 1178 4863 
L 1178 0 
L 603 0 
L 603 4863 
z
" transform="scale(0.015625)"/>
       <path id="DejaVuSans-20" transform="scale(0.015625)"/>
       <path id="DejaVuSans-44" d="M 1259 4147 
L 1259 519 
L 2022 519 
Q 2988 519 3436 956 
Q 3884 1394 3884 2338 
Q 3884 3275 3436 3711 
Q 2988 4147 2022 4147 
L 1259 4147 
z
M 628 4666 
L 1925 4666 
Q 3281 4666 3915 4102 
Q 4550 3538 4550 2338 
Q 4550 1131 3912 565 
Q 3275 0 1925 0 
L 628 0 
L 628 4666 
z
" transform="scale(0.015625)"/>
       <path id="DejaVuSans-74" d="M 1172 4494 
L 1172 3500 
L 2356 3500 
L 2356 3053 
L 1172 3053 
L 1172 1153 
Q 1172 725 1289 603 
Q 1406 481 1766 481 
L 2356 481 
L 2356 0 
L 1766 0 
Q 1100 0 847 248 
Q 594 497 594 1153 
L 594 3053 
L 172 3053 
L 172 3500 
L 594 3500 
L 594 4494 
L 1172 4494 
z
" transform="scale(0.015625)"/>
      </defs>
      <use xlink:href="#DejaVuSans-4f"/>
      <use xlink:href="#DejaVuSans-72" transform="translate(78.710938 0)"/>
      <use xlink:href="#DejaVuSans-69" transform="translate(119.824219 0)"/>
      <use xlink:href="#DejaVuSans-67" transform="translate(147.607422 0)"/>
      <use xlink:href="#DejaVuSans-69" transform="translate(211.083984 0)"/>
      <use xlink:href="#DejaVuSans-6e" transform="translate(238.867188 0)"/>
      <use xlink:href="#DejaVuSans-61" transform="translate(302.246094 0)"/>
      <use xlink:href="#DejaVuSans-6c" transform="translate(363.525391 0)"/>
      <use xlink:href="#DejaVuSans-20" transform="translate(391.308594 0)"/>
      <use xlink:href="#DejaVuSans-44" transform="translate(423.095703 0)"/>
      <use xlink:href="#DejaVuSans-61" transform="translate(500.097656 0)"/>
      <use xlink:href="#DejaVuSans-74" transform="translate(561.376953 0)"/>
      <use xlink:href="#DejaVuSans-61" transform="translate(600.585938 0)"/>
     </g>
    </g>
   </g>
   <g id="line2d_12">
    <path d="M 104.525313 61.135935 
L 106.540886 61.478087 
L 108.55646 61.366447 
L 110.572034 61.034322 
L 112.587608 60.243411 
L 114.603181 58.743712 
L 116.618755 57.930806 
L 120.649903 57.555482 
L 122.665476 57.647185 
L 124.68105 59.343583 
L 126.696624 62.762499 
L 128.712198 65.369599 
L 130.727772 67.356061 
L 132.743345 70.144769 
L 134.758919 73.285159 
L 138.790067 78.885722 
L 140.80564 80.561009 
L 142.821214 80.964363 
L 146.852362 82.361782 
L 148.867935 82.479452 
L 158.945804 81.276807 
L 160.961378 80.845519 
L 162.976952 80.198823 
L 164.992526 79.899568 
L 167.008099 79.934076 
L 171.039247 79.502597 
L 173.054821 79.120759 
L 175.070394 78.531279 
L 177.085968 78.315501 
L 183.13269 78.905753 
L 185.148263 79.941926 
L 187.163837 81.738528 
L 189.179411 81.583187 
L 191.194985 79.382789 
L 193.210558 76.833798 
L 195.226132 73.483612 
L 197.241706 73.559871 
L 199.25728 77.711534 
L 201.272853 80.538055 
L 203.288427 83.004255 
L 205.304001 86.906115 
L 207.319575 91.078887 
L 209.335149 97.278699 
L 211.350722 105.570596 
L 213.366296 112.268202 
L 215.38187 117.468598 
L 217.397444 117.494659 
L 219.413017 111.457196 
L 223.444165 101.753801 
L 225.459739 98.245869 
L 227.475313 97.554611 
L 229.490886 95.782575 
L 231.50646 93.672177 
L 233.522034 91.87673 
L 235.537608 89.867748 
L 237.553181 89.192239 
L 241.584329 90.655239 
L 243.599903 91.687854 
L 249.646624 95.496921 
L 255.693345 100.016644 
L 259.724493 103.199149 
L 261.740067 104.498066 
L 263.75564 105.452587 
L 265.771214 105.747375 
L 267.786788 105.237128 
L 269.802362 104.968935 
L 271.817935 104.85696 
L 273.833509 104.377215 
L 275.849083 103.714115 
L 277.864657 102.017881 
L 279.880231 99.155171 
L 281.895804 97.150906 
L 283.911378 95.907384 
L 285.926952 96.881838 
L 287.942526 100.663937 
L 289.958099 102.390141 
L 291.973673 102.300911 
L 293.989247 101.717372 
L 296.004821 99.574423 
L 298.020394 97.808398 
L 300.035968 96.407314 
L 302.051542 94.776377 
L 304.067116 93.342935 
L 312.129411 87.117271 
L 316.160558 83.974238 
L 318.176132 83.073675 
L 320.191706 82.913204 
L 322.20728 81.632105 
L 324.222853 79.036459 
L 326.238427 75.998199 
L 328.254001 71.975519 
L 330.269575 69.558532 
L 332.285149 68.940504 
L 334.300722 70.126725 
L 336.316296 73.687845 
L 338.33187 75.498752 
L 340.347444 75.470582 
L 342.363017 76.467731 
L 344.378591 77.601133 
L 346.394165 77.806475 
L 352.440886 76.660281 
L 354.45646 76.230662 
L 356.472034 75.941328 
L 358.487608 75.864989 
L 360.503181 76.105947 
L 362.518755 75.384585 
L 364.534329 73.655615 
L 366.549903 72.353226 
L 368.565476 71.244778 
L 370.58105 70.985544 
L 372.596624 71.910835 
L 378.643345 73.906826 
L 380.658919 74.199099 
L 382.674493 74.955501 
L 384.690067 76.103299 
L 386.70564 76.776791 
L 388.721214 77.055293 
L 390.736788 77.58743 
L 392.752362 78.238824 
L 394.767935 78.51213 
L 396.783509 78.465257 
L 398.799083 78.083254 
L 400.814657 77.251807 
L 402.830231 76.632329 
L 406.861378 75.919657 
L 410.892526 75.762102 
L 412.908099 75.587585 
L 414.923673 75.294926 
L 416.939247 74.802346 
L 418.954821 74.452352 
L 420.970394 74.21691 
L 425.001542 73.444262 
L 427.017116 73.64645 
L 429.03269 74.503958 
L 431.048263 74.724057 
L 433.063837 74.386222 
L 437.094985 73.923106 
L 439.110558 75.60416 
L 441.126132 79.51867 
L 443.141706 82.332209 
L 445.15728 84.422696 
L 447.172853 84.295202 
L 449.188427 81.087962 
L 451.204001 79.413247 
L 453.219575 78.852019 
L 455.235149 79.004729 
L 457.250722 80.845809 
L 459.266296 81.172062 
L 461.28187 80.077238 
L 463.297444 80.247 
L 465.313017 81.156687 
L 467.328591 81.206741 
L 469.344165 80.699557 
L 471.359739 80.902844 
L 473.375313 81.646377 
L 477.40646 82.484711 
L 479.422034 82.681059 
L 481.437608 82.560588 
L 483.453181 82.241794 
L 485.468755 81.638037 
L 487.484329 80.89571 
L 491.515476 79.232268 
L 493.53105 78.62951 
L 495.546624 78.320199 
L 497.562198 78.4238 
L 499.577772 78.906592 
L 507.640067 82.75882 
L 509.65564 83.398128 
L 511.671214 83.68267 
L 513.686788 83.481513 
L 515.702362 83.051573 
L 519.733509 81.526682 
L 523.764657 79.819485 
L 531.826952 76.057729 
L 533.842526 74.701116 
L 535.858099 73.048816 
L 537.873673 71.005834 
L 539.889247 68.778002 
L 541.904821 66.321829 
L 543.920394 64.127447 
L 545.935968 62.273916 
L 547.951542 60.618498 
L 549.967116 59.333342 
L 551.98269 57.837069 
L 553.998263 56.131585 
L 556.013837 54.72478 
L 558.029411 53.514724 
L 560.044985 50.100934 
L 562.060558 44.320861 
L 564.076132 39.912313 
L 566.091706 36.488731 
L 568.10728 32.080737 
L 570.122853 27.307011 
L 572.138427 21.912805 
L 574.154001 15.654097 
L 576.169575 14.385568 
L 578.185149 18.527617 
L 580.200722 20.896972 
L 582.216296 22.617544 
L 584.23187 25.059948 
L 586.247444 27.004768 
L 588.263017 28.688877 
L 590.278591 29.876504 
L 592.294165 32.255219 
L 594.309739 35.874235 
L 596.325313 36.915201 
L 598.340886 35.474557 
L 600.35646 32.728836 
L 602.372034 27.784302 
L 604.387608 24.001696 
L 606.403181 21.548676 
L 608.418755 20.704609 
L 610.434329 22.496238 
L 612.449903 24.532513 
L 614.465476 27.239047 
L 616.48105 29.301667 
L 618.496624 30.203821 
L 620.512198 31.749897 
L 626.558919 37.089766 
L 628.574493 39.546509 
L 630.590067 42.640024 
L 632.60564 45.295704 
L 634.621214 47.561598 
L 636.636788 49.567192 
L 638.652362 51.054987 
L 640.667935 51.318137 
L 642.683509 50.175585 
L 644.699083 48.721031 
L 646.714657 46.760686 
L 648.730231 45.456278 
L 650.745804 45.115465 
L 652.761378 45.437177 
L 654.776952 46.882923 
L 656.792526 47.491164 
L 658.808099 47.252837 
L 660.823673 45.175435 
L 662.839247 40.622182 
L 664.854821 38.80156 
L 666.870394 39.607463 
L 668.885968 39.241675 
L 670.901542 38.685639 
L 674.93269 38.284064 
L 676.948263 38.600759 
L 678.963837 39.479963 
L 680.979411 40.053374 
L 682.994985 40.390546 
L 685.010558 40.437336 
L 687.026132 39.984667 
L 689.041706 39.246079 
L 695.088427 35.881822 
L 697.104001 35.038188 
L 699.119575 34.594647 
L 701.135149 34.586918 
L 703.150722 35.165313 
L 705.166296 36.338132 
L 707.18187 38.209429 
L 709.197444 39.755645 
L 711.213017 40.940112 
L 713.228591 41.866982 
L 715.244165 42.2435 
L 717.259739 43.935676 
L 719.275313 46.996163 
L 721.290886 48.699639 
L 723.30646 49.306 
L 725.322034 50.206539 
L 727.337608 50.930022 
L 731.368755 51.882566 
L 737.415476 52.993002 
L 739.43105 53.226251 
L 741.446624 53.327111 
L 747.493345 53.144939 
L 749.508919 52.906204 
L 751.524493 52.522596 
L 753.540067 53.018681 
L 761.602362 58.682609 
L 765.633509 59.908093 
L 767.649083 60.319425 
L 769.664657 60.293355 
L 771.680231 59.846557 
L 773.695804 60.573618 
L 775.711378 62.572937 
L 777.726952 63.579173 
L 779.742526 63.863695 
L 781.758099 64.778592 
L 783.773673 65.98637 
L 785.789247 65.989184 
L 787.804821 64.832438 
L 789.820394 63.307231 
L 791.835968 61.084685 
L 793.851542 59.520536 
L 795.867116 58.79086 
L 797.88269 59.315411 
L 799.898263 61.603291 
L 801.913837 62.555247 
L 803.929411 62.268565 
L 805.944985 62.108802 
L 807.960558 61.425349 
L 809.976132 61.830768 
L 811.991706 63.507813 
L 816.022853 66.425464 
L 824.085149 73.425199 
L 826.100722 74.826202 
L 828.116296 75.847861 
L 830.13187 76.325237 
L 832.147444 76.129003 
L 834.163017 75.341553 
L 840.209739 70.834662 
L 842.225313 69.782306 
L 844.240886 69.428107 
L 846.25646 69.60722 
L 848.272034 70.376405 
L 850.287608 70.917304 
L 854.318755 71.30761 
L 856.334329 71.160148 
L 858.349903 69.960008 
L 860.365476 67.555286 
L 864.396624 63.116023 
L 866.412198 61.863997 
L 872.458919 62.251846 
L 876.490067 63.047767 
L 878.50564 62.964965 
L 880.521214 62.256376 
L 882.536788 62.089455 
L 884.552362 62.466843 
L 886.567935 62.122291 
L 888.583509 61.247199 
L 890.599083 59.390598 
L 892.614657 56.26005 
L 894.630231 56.277202 
L 896.645804 59.612598 
L 898.661378 62.539251 
L 900.676952 65.996586 
L 902.692526 68.485844 
L 906.723673 70.137886 
L 908.739247 70.256425 
L 910.754821 70.101452 
L 912.770394 69.780116 
L 914.785968 68.834171 
L 916.801542 67.370158 
L 918.817116 65.648698 
L 920.83269 63.63372 
L 922.848263 61.804781 
L 926.879411 58.767005 
L 928.894985 57.466901 
L 930.910558 56.476272 
L 934.941706 55.282274 
L 936.95728 54.857674 
L 938.972853 54.883664 
L 940.988427 55.34396 
L 943.004001 55.626531 
L 945.019575 55.751588 
L 947.035149 55.211554 
L 949.050722 53.793144 
L 951.066296 51.404592 
L 961.144165 33.104181 
L 963.159739 29.058867 
L 965.175313 24.68051 
L 967.190886 23.721282 
L 969.20646 26.467372 
L 971.222034 27.884154 
L 973.237608 28.673593 
L 975.253181 28.579376 
L 977.268755 26.570017 
L 979.284329 25.148229 
L 981.299903 23.943598 
L 983.315476 25.115625 
L 987.346624 33.68221 
L 989.362198 36.141198 
L 991.377772 31.191668 
L 993.393345 27.465202 
L 995.408919 28.095172 
L 997.424493 34.018925 
L 999.440067 37.174545 
L 1001.45564 38.54351 
L 1003.471214 38.658168 
L 1005.486788 35.912936 
L 1007.502362 35.450781 
L 1009.517935 37.079956 
L 1011.533509 36.764121 
L 1013.549083 35.348406 
L 1015.564657 34.965061 
L 1017.580231 35.173603 
L 1019.595804 36.679603 
L 1021.611378 39.941937 
L 1023.626952 42.386737 
L 1025.642526 44.188599 
L 1027.658099 44.193696 
L 1029.673673 41.681374 
L 1033.704821 37.454812 
L 1035.720394 36.178396 
L 1037.735968 36.381918 
L 1039.751542 37.886786 
L 1041.767116 41.259156 
L 1043.78269 42.047987 
L 1047.813837 38.243536 
L 1049.829411 35.466525 
L 1051.844985 33.553508 
L 1053.860558 32.895226 
L 1055.876132 32.522477 
L 1059.90728 33.430827 
L 1063.938427 34.035852 
L 1065.954001 34.032721 
L 1067.969575 34.353874 
L 1069.985149 34.9374 
L 1072.000722 35.249098 
L 1074.016296 35.358435 
L 1076.03187 35.265451 
L 1078.047444 34.856953 
L 1080.063017 34.122279 
L 1082.078591 32.99898 
L 1084.094165 32.093436 
L 1086.109739 31.448201 
L 1088.125313 31.521758 
L 1088.125313 31.521758 
" clip-path="url(#pc471bc8848)" style="fill: none; stroke: #0070c0; stroke-width: 1.5; stroke-linecap: square"/>
   </g>
   <g id="patch_3">
    <path d="M 55.345313 122.650113 
L 55.345313 9.230113 
" style="fill: none; stroke: #000000; stroke-width: 0.8; stroke-linejoin: miter; stroke-linecap: square"/>
   </g>
   <g id="patch_4">
    <path d="M 1137.305313 122.650113 
L 1137.305313 9.230113 
" style="fill: none; stroke: #000000; stroke-width: 0.8; stroke-linejoin: miter; stroke-linecap: square"/>
   </g>
   <g id="patch_5">
    <path d="M 55.345312 122.650113 
L 1137.305312 122.650113 
" style="fill: none; stroke: #000000; stroke-width: 0.8; stroke-linejoin: miter; stroke-linecap: square"/>
   </g>
   <g id="patch_6">
    <path d="M 55.345312 9.230113 
L 1137.305312 9.230113 
" style="fill: none; stroke: #000000; stroke-width: 0.8; stroke-linejoin: miter; stroke-linecap: square"/>
   </g>
  </g>
  <g id="axes_2">
   <g id="patch_7">
    <path d="M 55.345313 263.950113 
L 1137.305313 263.950113 
L 1137.305313 150.530113 
L 55.345313 150.530113 
z
" style="fill: #ffffff"/>
   </g>
   <g id="matplotlib.axis_3">
    <g id="xtick_7">
     <g id="line2d_13">
      <g>
       <use xlink:href="#ma9eda4b908" x="104.525313" y="263.950113" style="stroke: #000000; stroke-width: 0.8"/>
      </g>
     </g>
     <g id="text_13">
      <!-- 0 -->
      <g transform="translate(101.344063 278.548551) scale(0.1 -0.1)">
       <use xlink:href="#DejaVuSans-30"/>
      </g>
     </g>
    </g>
    <g id="xtick_8">
     <g id="line2d_14">
      <g>
       <use xlink:href="#ma9eda4b908" x="306.08269" y="263.950113" style="stroke: #000000; stroke-width: 0.8"/>
      </g>
     </g>
     <g id="text_14">
      <!-- 100 -->
      <g transform="translate(296.53894 278.548551) scale(0.1 -0.1)">
       <use xlink:href="#DejaVuSans-31"/>
       <use xlink:href="#DejaVuSans-30" transform="translate(63.623047 0)"/>
       <use xlink:href="#DejaVuSans-30" transform="translate(127.246094 0)"/>
      </g>
     </g>
    </g>
    <g id="xtick_9">
     <g id="line2d_15">
      <g>
       <use xlink:href="#ma9eda4b908" x="507.640067" y="263.950113" style="stroke: #000000; stroke-width: 0.8"/>
      </g>
     </g>
     <g id="text_15">
      <!-- 200 -->
      <g transform="translate(498.096317 278.548551) scale(0.1 -0.1)">
       <use xlink:href="#DejaVuSans-32"/>
       <use xlink:href="#DejaVuSans-30" transform="translate(63.623047 0)"/>
       <use xlink:href="#DejaVuSans-30" transform="translate(127.246094 0)"/>
      </g>
     </g>
    </g>
    <g id="xtick_10">
     <g id="line2d_16">
      <g>
       <use xlink:href="#ma9eda4b908" x="709.197444" y="263.950113" style="stroke: #000000; stroke-width: 0.8"/>
      </g>
     </g>
     <g id="text_16">
      <!-- 300 -->
      <g transform="translate(699.653694 278.548551) scale(0.1 -0.1)">
       <use xlink:href="#DejaVuSans-33"/>
       <use xlink:href="#DejaVuSans-30" transform="translate(63.623047 0)"/>
       <use xlink:href="#DejaVuSans-30" transform="translate(127.246094 0)"/>
      </g>
     </g>
    </g>
    <g id="xtick_11">
     <g id="line2d_17">
      <g>
       <use xlink:href="#ma9eda4b908" x="910.754821" y="263.950113" style="stroke: #000000; stroke-width: 0.8"/>
      </g>
     </g>
     <g id="text_17">
      <!-- 400 -->
      <g transform="translate(901.211071 278.548551) scale(0.1 -0.1)">
       <use xlink:href="#DejaVuSans-34"/>
       <use xlink:href="#DejaVuSans-30" transform="translate(63.623047 0)"/>
       <use xlink:href="#DejaVuSans-30" transform="translate(127.246094 0)"/>
      </g>
     </g>
    </g>
    <g id="xtick_12">
     <g id="line2d_18">
      <g>
       <use xlink:href="#ma9eda4b908" x="1112.312198" y="263.950113" style="stroke: #000000; stroke-width: 0.8"/>
      </g>
     </g>
     <g id="text_18">
      <!-- 500 -->
      <g transform="translate(1102.768448 278.548551) scale(0.1 -0.1)">
       <use xlink:href="#DejaVuSans-35"/>
       <use xlink:href="#DejaVuSans-30" transform="translate(63.623047 0)"/>
       <use xlink:href="#DejaVuSans-30" transform="translate(127.246094 0)"/>
      </g>
     </g>
    </g>
   </g>
   <g id="matplotlib.axis_4">
    <g id="ytick_6">
     <g id="line2d_19">
      <g>
       <use xlink:href="#mee641cda77" x="55.345313" y="237.430847" style="stroke: #000000; stroke-width: 0.8"/>
      </g>
     </g>
     <g id="text_19">
      <!-- −50 -->
      <g transform="translate(27.240625 241.230066) scale(0.1 -0.1)">
       <defs>
        <path id="DejaVuSans-2212" d="M 678 2272 
L 4684 2272 
L 4684 1741 
L 678 1741 
L 678 2272 
z
" transform="scale(0.015625)"/>
       </defs>
       <use xlink:href="#DejaVuSans-2212"/>
       <use xlink:href="#DejaVuSans-35" transform="translate(83.789062 0)"/>
       <use xlink:href="#DejaVuSans-30" transform="translate(147.412109 0)"/>
      </g>
     </g>
    </g>
    <g id="ytick_7">
     <g id="line2d_20">
      <g>
       <use xlink:href="#mee641cda77" x="55.345313" y="203.450054" style="stroke: #000000; stroke-width: 0.8"/>
      </g>
     </g>
     <g id="text_20">
      <!-- 0 -->
      <g transform="translate(41.982813 207.249273) scale(0.1 -0.1)">
       <use xlink:href="#DejaVuSans-30"/>
      </g>
     </g>
    </g>
    <g id="ytick_8">
     <g id="line2d_21">
      <g>
       <use xlink:href="#mee641cda77" x="55.345313" y="169.469261" style="stroke: #000000; stroke-width: 0.8"/>
      </g>
     </g>
     <g id="text_21">
      <!-- 50 -->
      <g transform="translate(35.620313 173.26848) scale(0.1 -0.1)">
       <use xlink:href="#DejaVuSans-35"/>
       <use xlink:href="#DejaVuSans-30" transform="translate(63.623047 0)"/>
      </g>
     </g>
    </g>
    <g id="text_22">
     <!-- co-imf0 -->
     <g transform="translate(21.160938 226.147144) rotate(-90) scale(0.1 -0.1)">
      <defs>
       <path id="DejaVuSans-63" d="M 3122 3366 
L 3122 2828 
Q 2878 2963 2633 3030 
Q 2388 3097 2138 3097 
Q 1578 3097 1268 2742 
Q 959 2388 959 1747 
Q 959 1106 1268 751 
Q 1578 397 2138 397 
Q 2388 397 2633 464 
Q 2878 531 3122 666 
L 3122 134 
Q 2881 22 2623 -34 
Q 2366 -91 2075 -91 
Q 1284 -91 818 406 
Q 353 903 353 1747 
Q 353 2603 823 3093 
Q 1294 3584 2113 3584 
Q 2378 3584 2631 3529 
Q 2884 3475 3122 3366 
z
" transform="scale(0.015625)"/>
       <path id="DejaVuSans-6f" d="M 1959 3097 
Q 1497 3097 1228 2736 
Q 959 2375 959 1747 
Q 959 1119 1226 758 
Q 1494 397 1959 397 
Q 2419 397 2687 759 
Q 2956 1122 2956 1747 
Q 2956 2369 2687 2733 
Q 2419 3097 1959 3097 
z
M 1959 3584 
Q 2709 3584 3137 3096 
Q 3566 2609 3566 1747 
Q 3566 888 3137 398 
Q 2709 -91 1959 -91 
Q 1206 -91 779 398 
Q 353 888 353 1747 
Q 353 2609 779 3096 
Q 1206 3584 1959 3584 
z
" transform="scale(0.015625)"/>
       <path id="DejaVuSans-2d" d="M 313 2009 
L 1997 2009 
L 1997 1497 
L 313 1497 
L 313 2009 
z
" transform="scale(0.015625)"/>
       <path id="DejaVuSans-6d" d="M 3328 2828 
Q 3544 3216 3844 3400 
Q 4144 3584 4550 3584 
Q 5097 3584 5394 3201 
Q 5691 2819 5691 2113 
L 5691 0 
L 5113 0 
L 5113 2094 
Q 5113 2597 4934 2840 
Q 4756 3084 4391 3084 
Q 3944 3084 3684 2787 
Q 3425 2491 3425 1978 
L 3425 0 
L 2847 0 
L 2847 2094 
Q 2847 2600 2669 2842 
Q 2491 3084 2119 3084 
Q 1678 3084 1418 2786 
Q 1159 2488 1159 1978 
L 1159 0 
L 581 0 
L 581 3500 
L 1159 3500 
L 1159 2956 
Q 1356 3278 1631 3431 
Q 1906 3584 2284 3584 
Q 2666 3584 2933 3390 
Q 3200 3197 3328 2828 
z
" transform="scale(0.015625)"/>
       <path id="DejaVuSans-66" d="M 2375 4863 
L 2375 4384 
L 1825 4384 
Q 1516 4384 1395 4259 
Q 1275 4134 1275 3809 
L 1275 3500 
L 2222 3500 
L 2222 3053 
L 1275 3053 
L 1275 0 
L 697 0 
L 697 3053 
L 147 3053 
L 147 3500 
L 697 3500 
L 697 3744 
Q 697 4328 969 4595 
Q 1241 4863 1831 4863 
L 2375 4863 
z
" transform="scale(0.015625)"/>
      </defs>
      <use xlink:href="#DejaVuSans-63"/>
      <use xlink:href="#DejaVuSans-6f" transform="translate(54.980469 0)"/>
      <use xlink:href="#DejaVuSans-2d" transform="translate(118.037109 0)"/>
      <use xlink:href="#DejaVuSans-69" transform="translate(154.121094 0)"/>
      <use xlink:href="#DejaVuSans-6d" transform="translate(181.904297 0)"/>
      <use xlink:href="#DejaVuSans-66" transform="translate(279.316406 0)"/>
      <use xlink:href="#DejaVuSans-30" transform="translate(314.521484 0)"/>
     </g>
    </g>
   </g>
   <g id="line2d_22">
    <path d="M 104.525313 227.569855 
L 106.540886 229.916839 
L 108.55646 229.455402 
L 110.572034 227.196438 
L 112.587608 221.405238 
L 114.603181 211.009316 
L 116.618755 203.437327 
L 118.634329 198.401746 
L 122.665476 185.761207 
L 124.68105 187.171315 
L 126.696624 196.76186 
L 128.712198 200.066508 
L 130.727772 198.07381 
L 132.743345 200.092037 
L 134.758919 203.605475 
L 138.790067 209.165488 
L 140.80564 208.548067 
L 142.821214 203.87065 
L 144.836788 202.873626 
L 146.852362 205.044538 
L 148.867935 204.772807 
L 150.883509 203.335049 
L 152.899083 203.119187 
L 154.914657 203.500449 
L 156.930231 204.034322 
L 158.945804 205.04782 
L 160.961378 204.878015 
L 162.976952 203.386714 
L 164.992526 203.026712 
L 167.008099 203.519862 
L 169.023673 201.807039 
L 171.039247 198.096956 
L 173.054821 193.567264 
L 175.070394 187.586616 
L 177.085968 184.283436 
L 179.101542 184.062798 
L 181.117116 184.487454 
L 183.13269 186.667516 
L 185.148263 194.910528 
L 187.163837 209.627417 
L 189.179411 215.2078 
L 191.194985 211.539588 
L 193.210558 205.335228 
L 195.226132 193.25355 
L 197.241706 195.082099 
L 199.25728 212.831321 
L 201.272853 214.253487 
L 203.288427 202.577283 
L 205.304001 194.060214 
L 207.319575 183.256516 
L 209.335149 184.822323 
L 211.350722 201.872891 
L 213.366296 216.478661 
L 215.38187 232.43484 
L 217.397444 229.38025 
L 219.413017 202.493456 
L 221.428591 187.56047 
L 223.444165 179.973451 
L 225.459739 180.767083 
L 227.475313 197.24448 
L 229.490886 206.036185 
L 231.50646 208.980464 
L 233.522034 209.663781 
L 235.537608 203.279028 
L 237.553181 201.482346 
L 239.568755 203.823277 
L 243.599903 203.967039 
L 245.615476 203.989218 
L 247.63105 203.426138 
L 249.646624 203.29021 
L 251.662198 203.476412 
L 255.693345 203.440997 
L 257.708919 203.61744 
L 259.724493 203.969443 
L 261.740067 203.908435 
L 263.75564 203.429722 
L 265.771214 202.091329 
L 267.786788 199.678103 
L 269.802362 201.279937 
L 271.817935 207.173739 
L 273.833509 211.599073 
L 275.849083 215.539955 
L 277.864657 212.775723 
L 279.880231 201.622871 
L 281.895804 193.531149 
L 283.911378 187.017843 
L 285.926952 190.721532 
L 287.942526 207.822665 
L 289.958099 214.509883 
L 291.973673 212.503112 
L 293.989247 209.610841 
L 296.004821 201.079349 
L 298.020394 197.150143 
L 302.051542 199.702735 
L 304.067116 203.413638 
L 306.08269 205.096816 
L 310.113837 203.402882 
L 312.129411 201.368473 
L 314.144985 198.855913 
L 316.160558 195.953803 
L 318.176132 198.804503 
L 320.191706 208.234297 
L 322.20728 212.721679 
L 324.222853 211.918177 
L 326.238427 208.138658 
L 328.254001 198.226163 
L 330.269575 193.365943 
L 332.285149 193.542631 
L 334.300722 198.541077 
L 336.316296 211.325244 
L 338.33187 212.845618 
L 340.347444 202.770741 
L 342.363017 200.923027 
L 344.378591 203.942253 
L 346.394165 203.809992 
L 348.409739 203.334055 
L 350.425313 203.36187 
L 352.440886 203.176426 
L 354.45646 203.208566 
L 356.472034 203.460766 
L 358.487608 205.403476 
L 360.503181 209.277435 
L 362.518755 208.590783 
L 364.534329 203.225526 
L 366.549903 199.739445 
L 368.565476 196.928824 
L 370.58105 197.741076 
L 372.596624 203.628635 
L 374.612198 206.680471 
L 376.627772 207.682733 
L 378.643345 207.131894 
L 380.658919 203.37333 
L 382.674493 202.266144 
L 384.690067 203.645277 
L 386.70564 202.689464 
L 388.721214 200.377052 
L 390.736788 200.797207 
L 392.752362 203.567725 
L 394.767935 205.103171 
L 396.783509 206.009484 
L 398.799083 205.685036 
L 400.814657 203.389346 
L 402.830231 202.31777 
L 404.845804 202.235866 
L 406.861378 202.399792 
L 408.876952 203.462262 
L 410.892526 204.158289 
L 412.908099 204.510326 
L 414.923673 204.375246 
L 416.939247 203.426021 
L 418.954821 203.157625 
L 420.970394 203.498274 
L 425.001542 203.433485 
L 427.017116 205.733002 
L 429.03269 210.533887 
L 431.048263 209.70182 
L 435.079411 196.274778 
L 437.094985 187.242377 
L 439.110558 189.20226 
L 441.126132 203.991477 
L 443.141706 213.349394 
L 445.15728 220.048067 
L 447.172853 216.122145 
L 449.188427 197.290834 
L 451.204001 188.335108 
L 453.219575 187.255592 
L 455.235149 190.595387 
L 457.250722 203.618341 
L 459.266296 208.079578 
L 461.28187 204.040825 
L 463.297444 206.279217 
L 465.313017 211.471143 
L 467.328591 210.46611 
L 469.344165 204.577984 
L 471.359739 202.680534 
L 473.375313 203.714738 
L 475.390886 203.44847 
L 477.40646 203.393736 
L 479.422034 203.513539 
L 483.453181 203.450054 
L 521.749083 203.450054 
L 523.764657 203.197731 
L 525.780231 202.667114 
L 527.795804 202.759078 
L 529.811378 203.480703 
L 531.826952 203.654905 
L 533.842526 203.416275 
L 553.998263 203.450054 
L 556.013837 207.791392 
L 558.029411 216.920927 
L 560.044985 215.33864 
L 562.060558 202.922716 
L 564.076132 199.213127 
L 566.091706 201.820828 
L 568.10728 198.308507 
L 570.122853 191.513381 
L 572.138427 178.081907 
L 574.154001 155.685568 
L 576.169575 158.204408 
L 578.185149 186.986776 
L 580.200722 202.541248 
L 582.216296 210.976138 
L 584.23187 221.727162 
L 586.247444 228.224707 
L 588.263017 232.047429 
L 590.278591 232.540878 
L 592.294165 240.396023 
L 594.309739 256.48103 
L 596.325313 258.794659 
L 598.340886 248.538662 
L 600.35646 231.717677 
L 602.372034 203.498574 
L 604.387608 182.352767 
L 606.403181 169.166047 
L 608.418755 164.905763 
L 610.434329 175.139939 
L 612.449903 186.239455 
L 614.465476 200.289387 
L 616.48105 208.901004 
L 618.496624 208.829983 
L 620.512198 210.207651 
L 622.527772 209.967395 
L 624.543345 207.438409 
L 626.558919 203.49764 
L 628.574493 202.040607 
L 630.590067 203.63905 
L 632.60564 203.746354 
L 634.621214 203.354564 
L 636.636788 205.135447 
L 638.652362 208.679713 
L 640.667935 207.824522 
L 642.683509 202.497786 
L 644.699083 196.783179 
L 646.714657 189.310973 
L 648.730231 185.600501 
L 650.745804 186.58179 
L 652.761378 191.89443 
L 654.776952 203.518216 
L 656.792526 211.500628 
L 658.808099 215.887981 
L 660.823673 211.116384 
L 662.839247 193.9366 
L 664.854821 191.881571 
L 666.870394 204.372306 
L 668.885968 208.097761 
L 670.901542 207.908286 
L 672.917116 207.480946 
L 674.93269 203.389671 
L 676.948263 202.128714 
L 678.963837 203.667938 
L 680.979411 203.682362 
L 682.994985 203.375187 
L 687.026132 203.450054 
L 699.119575 203.450054 
L 701.135149 203.333933 
L 703.150722 203.089738 
L 705.166296 204.433103 
L 707.18187 207.501205 
L 709.197444 207.938683 
L 711.213017 205.85656 
L 713.228591 201.84747 
L 715.244165 194.819342 
L 717.259739 195.274454 
L 719.275313 203.842457 
L 721.290886 205.847449 
L 723.30646 203.036054 
L 725.322034 203.049429 
L 727.337608 203.579166 
L 729.353181 203.450054 
L 737.415476 203.364624 
L 739.43105 203.184969 
L 741.446624 203.216106 
L 743.462198 203.460431 
L 745.477772 203.519412 
L 747.493345 203.438617 
L 749.508919 201.848552 
L 751.524493 198.522471 
L 753.540067 199.097796 
L 755.55564 203.643106 
L 759.586788 210.576942 
L 761.602362 211.6026 
L 763.617935 209.137174 
L 765.633509 206.419949 
L 767.649083 202.549286 
L 769.664657 196.922623 
L 771.680231 189.824991 
L 773.695804 190.440774 
L 775.711378 199.667262 
L 777.726952 203.993478 
L 779.742526 205.131965 
L 781.758099 210.75248 
L 783.773673 218.869469 
L 785.789247 220.639843 
L 787.804821 216.252894 
L 789.820394 209.919947 
L 791.835968 199.608537 
L 793.851542 192.65875 
L 795.867116 189.857906 
L 797.88269 194.013214 
L 799.898263 207.829787 
L 801.913837 213.081978 
L 805.944985 207.256082 
L 807.960558 200.167522 
L 809.976132 198.084567 
L 811.991706 201.955965 
L 814.00728 203.013069 
L 816.022853 203.266712 
L 818.038427 203.788851 
L 820.054001 203.418642 
L 822.069575 203.363171 
L 824.085149 203.478054 
L 832.147444 203.450054 
L 840.209739 203.450054 
L 842.225313 203.58191 
L 844.240886 203.859193 
L 846.25646 203.811136 
L 848.272034 203.434038 
L 850.287608 202.899208 
L 852.303181 202.090631 
L 854.318755 203.105205 
L 856.334329 206.140519 
L 858.349903 206.142577 
L 860.365476 203.287192 
L 862.38105 201.175523 
L 864.396624 198.868767 
L 866.412198 199.638267 
L 868.427772 204.304378 
L 870.443345 206.050781 
L 874.474493 205.077571 
L 876.490067 203.460507 
L 878.50564 200.484924 
L 880.521214 196.10435 
L 882.536788 197.786153 
L 884.552362 206.162888 
L 886.567935 210.001803 
L 888.583509 210.60168 
L 890.599083 204.188923 
L 892.614657 187.991512 
L 894.630231 186.654969 
L 896.645804 200.135483 
L 900.676952 219.01978 
L 902.692526 223.801234 
L 904.708099 220.480888 
L 906.723673 218.368151 
L 908.739247 215.30206 
L 910.754821 213.161766 
L 912.770394 213.375082 
L 914.785968 211.933087 
L 916.801542 209.665604 
L 918.817116 207.018861 
L 920.83269 203.452297 
L 922.848263 201.892783 
L 924.863837 202.49673 
L 926.879411 202.788141 
L 928.894985 203.398174 
L 930.910558 203.73295 
L 932.926132 203.403405 
L 934.941706 202.172255 
L 936.95728 199.65549 
L 938.972853 200.087053 
L 943.004001 207.027853 
L 945.019575 211.293643 
L 947.035149 214.430038 
L 949.050722 215.877522 
L 951.066296 214.537212 
L 953.08187 209.46716 
L 955.097444 205.943268 
L 957.113017 203.637135 
L 961.144165 197.273537 
L 963.159739 190.551581 
L 965.175313 179.827928 
L 967.190886 185.97907 
L 969.20646 209.930183 
L 971.222034 222.997487 
L 973.237608 228.598079 
L 975.253181 226.003699 
L 977.268755 209.078275 
L 981.299903 180.400802 
L 983.315476 180.368093 
L 985.33105 199.136408 
L 987.346624 219.740957 
L 989.362198 231.22973 
L 991.377772 200.308403 
L 993.393345 177.284034 
L 995.408919 179.013389 
L 997.424493 210.63304 
L 999.440067 225.911846 
L 1001.45564 230.067143 
L 1003.471214 226.591993 
L 1005.486788 206.079123 
L 1007.502362 198.718521 
L 1009.517935 203.473032 
L 1011.533509 197.223458 
L 1013.549083 185.041245 
L 1015.564657 179.526568 
L 1017.580231 178.330707 
L 1019.595804 185.437769 
L 1021.611378 203.688895 
L 1023.626952 217.480426 
L 1025.642526 227.837091 
L 1027.658099 227.8462 
L 1029.673673 213.130849 
L 1033.704821 188.801767 
L 1035.720394 181.770109 
L 1037.735968 183.590918 
L 1039.751542 193.513193 
L 1041.767116 214.907302 
L 1043.78269 222.31431 
L 1045.798263 214.995292 
L 1047.813837 208.523489 
L 1049.829411 197.088255 
L 1051.844985 190.66286 
L 1053.860558 191.297836 
L 1055.876132 192.594139 
L 1057.891706 197.595151 
L 1059.90728 201.299913 
L 1061.922853 203.227296 
L 1063.938427 203.986 
L 1065.954001 202.100324 
L 1067.969575 202.044944 
L 1069.985149 203.587557 
L 1072.000722 203.786428 
L 1074.016296 203.394587 
L 1088.125313 203.450054 
L 1088.125313 203.450054 
" clip-path="url(#p8abd7def9b)" style="fill: none; stroke: #f27f19; stroke-width: 1.5; stroke-linecap: square"/>
   </g>
   <g id="patch_8">
    <path d="M 55.345313 263.950113 
L 55.345313 150.530113 
" style="fill: none; stroke: #000000; stroke-width: 0.8; stroke-linejoin: miter; stroke-linecap: square"/>
   </g>
   <g id="patch_9">
    <path d="M 1137.305313 263.950113 
L 1137.305313 150.530113 
" style="fill: none; stroke: #000000; stroke-width: 0.8; stroke-linejoin: miter; stroke-linecap: square"/>
   </g>
   <g id="patch_10">
    <path d="M 55.345312 263.950113 
L 1137.305312 263.950113 
" style="fill: none; stroke: #000000; stroke-width: 0.8; stroke-linejoin: miter; stroke-linecap: square"/>
   </g>
   <g id="patch_11">
    <path d="M 55.345312 150.530113 
L 1137.305312 150.530113 
" style="fill: none; stroke: #000000; stroke-width: 0.8; stroke-linejoin: miter; stroke-linecap: square"/>
   </g>
  </g>
  <g id="axes_3">
   <g id="patch_12">
    <path d="M 55.345313 405.250113 
L 1137.305313 405.250113 
L 1137.305313 291.830113 
L 55.345313 291.830113 
z
" style="fill: #ffffff"/>
   </g>
   <g id="matplotlib.axis_5">
    <g id="xtick_13">
     <g id="line2d_23">
      <g>
       <use xlink:href="#ma9eda4b908" x="104.525313" y="405.250113" style="stroke: #000000; stroke-width: 0.8"/>
      </g>
     </g>
     <g id="text_23">
      <!-- 0 -->
      <g transform="translate(101.344063 419.848551) scale(0.1 -0.1)">
       <use xlink:href="#DejaVuSans-30"/>
      </g>
     </g>
    </g>
    <g id="xtick_14">
     <g id="line2d_24">
      <g>
       <use xlink:href="#ma9eda4b908" x="306.08269" y="405.250113" style="stroke: #000000; stroke-width: 0.8"/>
      </g>
     </g>
     <g id="text_24">
      <!-- 100 -->
      <g transform="translate(296.53894 419.848551) scale(0.1 -0.1)">
       <use xlink:href="#DejaVuSans-31"/>
       <use xlink:href="#DejaVuSans-30" transform="translate(63.623047 0)"/>
       <use xlink:href="#DejaVuSans-30" transform="translate(127.246094 0)"/>
      </g>
     </g>
    </g>
    <g id="xtick_15">
     <g id="line2d_25">
      <g>
       <use xlink:href="#ma9eda4b908" x="507.640067" y="405.250113" style="stroke: #000000; stroke-width: 0.8"/>
      </g>
     </g>
     <g id="text_25">
      <!-- 200 -->
      <g transform="translate(498.096317 419.848551) scale(0.1 -0.1)">
       <use xlink:href="#DejaVuSans-32"/>
       <use xlink:href="#DejaVuSans-30" transform="translate(63.623047 0)"/>
       <use xlink:href="#DejaVuSans-30" transform="translate(127.246094 0)"/>
      </g>
     </g>
    </g>
    <g id="xtick_16">
     <g id="line2d_26">
      <g>
       <use xlink:href="#ma9eda4b908" x="709.197444" y="405.250113" style="stroke: #000000; stroke-width: 0.8"/>
      </g>
     </g>
     <g id="text_26">
      <!-- 300 -->
      <g transform="translate(699.653694 419.848551) scale(0.1 -0.1)">
       <use xlink:href="#DejaVuSans-33"/>
       <use xlink:href="#DejaVuSans-30" transform="translate(63.623047 0)"/>
       <use xlink:href="#DejaVuSans-30" transform="translate(127.246094 0)"/>
      </g>
     </g>
    </g>
    <g id="xtick_17">
     <g id="line2d_27">
      <g>
       <use xlink:href="#ma9eda4b908" x="910.754821" y="405.250113" style="stroke: #000000; stroke-width: 0.8"/>
      </g>
     </g>
     <g id="text_27">
      <!-- 400 -->
      <g transform="translate(901.211071 419.848551) scale(0.1 -0.1)">
       <use xlink:href="#DejaVuSans-34"/>
       <use xlink:href="#DejaVuSans-30" transform="translate(63.623047 0)"/>
       <use xlink:href="#DejaVuSans-30" transform="translate(127.246094 0)"/>
      </g>
     </g>
    </g>
    <g id="xtick_18">
     <g id="line2d_28">
      <g>
       <use xlink:href="#ma9eda4b908" x="1112.312198" y="405.250113" style="stroke: #000000; stroke-width: 0.8"/>
      </g>
     </g>
     <g id="text_28">
      <!-- 500 -->
      <g transform="translate(1102.768448 419.848551) scale(0.1 -0.1)">
       <use xlink:href="#DejaVuSans-35"/>
       <use xlink:href="#DejaVuSans-30" transform="translate(63.623047 0)"/>
       <use xlink:href="#DejaVuSans-30" transform="translate(127.246094 0)"/>
      </g>
     </g>
    </g>
   </g>
   <g id="matplotlib.axis_6">
    <g id="ytick_9">
     <g id="line2d_29">
      <g>
       <use xlink:href="#mee641cda77" x="55.345313" y="382.055495" style="stroke: #000000; stroke-width: 0.8"/>
      </g>
     </g>
     <g id="text_29">
      <!-- −100 -->
      <g transform="translate(20.878125 385.854714) scale(0.1 -0.1)">
       <use xlink:href="#DejaVuSans-2212"/>
       <use xlink:href="#DejaVuSans-31" transform="translate(83.789062 0)"/>
       <use xlink:href="#DejaVuSans-30" transform="translate(147.412109 0)"/>
       <use xlink:href="#DejaVuSans-30" transform="translate(211.035156 0)"/>
      </g>
     </g>
    </g>
    <g id="ytick_10">
     <g id="line2d_30">
      <g>
       <use xlink:href="#mee641cda77" x="55.345313" y="350.785956" style="stroke: #000000; stroke-width: 0.8"/>
      </g>
     </g>
     <g id="text_30">
      <!-- 0 -->
      <g transform="translate(41.982813 354.585175) scale(0.1 -0.1)">
       <use xlink:href="#DejaVuSans-30"/>
      </g>
     </g>
    </g>
    <g id="ytick_11">
     <g id="line2d_31">
      <g>
       <use xlink:href="#mee641cda77" x="55.345313" y="319.516416" style="stroke: #000000; stroke-width: 0.8"/>
      </g>
     </g>
     <g id="text_31">
      <!-- 100 -->
      <g transform="translate(29.257813 323.315635) scale(0.1 -0.1)">
       <use xlink:href="#DejaVuSans-31"/>
       <use xlink:href="#DejaVuSans-30" transform="translate(63.623047 0)"/>
       <use xlink:href="#DejaVuSans-30" transform="translate(127.246094 0)"/>
      </g>
     </g>
    </g>
    <g id="text_32">
     <!-- co-imf1 -->
     <g transform="translate(14.798438 367.447144) rotate(-90) scale(0.1 -0.1)">
      <use xlink:href="#DejaVuSans-63"/>
      <use xlink:href="#DejaVuSans-6f" transform="translate(54.980469 0)"/>
      <use xlink:href="#DejaVuSans-2d" transform="translate(118.037109 0)"/>
      <use xlink:href="#DejaVuSans-69" transform="translate(154.121094 0)"/>
      <use xlink:href="#DejaVuSans-6d" transform="translate(181.904297 0)"/>
      <use xlink:href="#DejaVuSans-66" transform="translate(279.316406 0)"/>
      <use xlink:href="#DejaVuSans-31" transform="translate(314.521484 0)"/>
     </g>
    </g>
   </g>
   <g id="line2d_32">
    <path d="M 104.525313 325.385986 
L 108.55646 325.223493 
L 110.572034 325.295983 
L 112.587608 325.688297 
L 114.603181 326.229386 
L 116.618755 327.221319 
L 118.634329 328.635436 
L 120.649903 330.590053 
L 122.665476 333.157938 
L 124.68105 336.400104 
L 126.696624 340.39623 
L 128.712198 345.051419 
L 132.743345 356.017437 
L 134.758919 361.796874 
L 136.774493 367.205919 
L 138.790067 372.028943 
L 140.80564 375.619245 
L 142.821214 377.629788 
L 144.836788 378.600113 
L 146.852362 378.210468 
L 148.867935 377.265976 
L 150.883509 375.82732 
L 152.899083 373.804329 
L 154.914657 371.437058 
L 158.945804 366.254008 
L 162.976952 360.736234 
L 164.992526 358.335886 
L 167.008099 356.393355 
L 169.023673 354.877355 
L 173.054821 353.175862 
L 175.070394 352.42026 
L 177.085968 351.402809 
L 179.101542 349.957868 
L 181.117116 348.186951 
L 183.13269 345.8644 
L 185.148263 342.794617 
L 187.163837 338.760516 
L 189.179411 333.720555 
L 193.210558 321.478492 
L 195.226132 316.047447 
L 197.241706 313.352197 
L 199.25728 314.200942 
L 201.272853 319.04578 
L 203.288427 328.975975 
L 205.304001 341.300729 
L 209.335149 369.292732 
L 211.350722 381.643857 
L 213.366296 390.911265 
L 215.38187 395.611529 
L 217.397444 395.319614 
L 219.413017 389.888815 
L 221.428591 381.796471 
L 225.459739 359.890115 
L 227.475313 349.001391 
L 229.490886 338.844866 
L 231.50646 330.558681 
L 233.522034 324.238794 
L 235.537608 320.692664 
L 237.553181 318.682499 
L 239.568755 318.620704 
L 241.584329 319.672121 
L 243.599903 321.675647 
L 245.615476 324.306831 
L 247.63105 327.224907 
L 251.662198 334.128543 
L 255.693345 342.077992 
L 259.724493 350.623879 
L 261.740067 354.467698 
L 263.75564 357.723292 
L 265.771214 359.753608 
L 267.786788 360.26646 
L 269.802362 359.704647 
L 271.817935 357.706762 
L 277.864657 351.283258 
L 279.880231 350.236394 
L 281.895804 350.164338 
L 283.911378 351.483684 
L 285.926952 354.096973 
L 287.942526 358.105738 
L 289.958099 361.500719 
L 291.973673 364.124808 
L 293.989247 365.898866 
L 296.004821 366.165742 
L 298.020394 365.365868 
L 300.035968 363.178065 
L 302.051542 360.421157 
L 304.067116 357.091785 
L 306.08269 354.320375 
L 308.098263 352.436465 
L 310.113837 350.984615 
L 314.144985 349.668476 
L 316.160558 348.931441 
L 318.176132 347.417472 
L 320.191706 344.821728 
L 322.20728 341.480916 
L 326.238427 332.726583 
L 328.254001 328.566819 
L 330.269575 326.300874 
L 332.285149 326.444623 
L 334.300722 329.10703 
L 336.316296 334.441193 
L 338.33187 340.217224 
L 340.347444 346.347234 
L 342.363017 351.339945 
L 344.378591 354.372765 
L 346.394165 356.300203 
L 348.409739 356.797224 
L 350.425313 356.987792 
L 352.440886 357.009969 
L 354.45646 356.849069 
L 356.472034 356.882906 
L 358.487608 356.629616 
L 360.503181 356.257308 
L 362.518755 355.34445 
L 364.534329 353.825634 
L 366.549903 352.505856 
L 368.565476 351.320063 
L 370.58105 350.659041 
L 372.596624 350.748893 
L 374.612198 351.458207 
L 376.627772 353.014347 
L 378.643345 355.048673 
L 382.674493 360.159774 
L 384.690067 362.532404 
L 386.70564 364.657519 
L 388.721214 366.29782 
L 390.736788 367.30159 
L 392.752362 367.488157 
L 394.767935 367.183579 
L 396.783509 366.264865 
L 398.799083 364.970513 
L 406.861378 358.55447 
L 410.892526 355.98964 
L 414.923673 353.158007 
L 422.985968 346.409748 
L 425.001542 344.43252 
L 427.017116 343.004424 
L 429.03269 342.157566 
L 431.048263 342.193501 
L 433.063837 343.356811 
L 435.079411 345.090488 
L 439.110558 350.197731 
L 441.126132 352.886767 
L 443.141706 355.150763 
L 445.15728 356.724563 
L 447.172853 357.293282 
L 449.188427 356.533774 
L 451.204001 355.336582 
L 457.250722 349.72786 
L 459.266296 347.820915 
L 461.28187 346.086612 
L 463.297444 344.888783 
L 465.313017 344.365789 
L 467.328591 344.472793 
L 469.344165 345.417803 
L 471.359739 346.502491 
L 475.390886 348.983611 
L 477.40646 349.964242 
L 479.422034 350.501752 
L 481.437608 350.40578 
L 483.453181 349.856514 
L 485.468755 348.684469 
L 487.484329 347.27361 
L 489.499903 345.608623 
L 491.515476 344.3722 
L 493.53105 343.725874 
L 495.546624 343.987646 
L 497.562198 345.473326 
L 499.577772 348.090579 
L 503.608919 356.258654 
L 507.640067 364.840713 
L 509.65564 368.443831 
L 511.671214 371.207992 
L 513.686788 372.78151 
L 515.702362 373.844774 
L 521.749083 374.823676 
L 523.764657 375.088116 
L 525.780231 375.502496 
L 529.811378 375.98532 
L 531.826952 375.810771 
L 533.842526 375.192349 
L 535.858099 373.72377 
L 537.873673 371.231486 
L 539.889247 368.307856 
L 541.904821 364.798143 
L 543.920394 362.007347 
L 545.935968 360.139852 
L 547.951542 358.809082 
L 549.967116 358.467452 
L 551.98269 357.559655 
L 553.998263 356.084505 
L 556.013837 353.391501 
L 558.029411 348.997193 
L 560.044985 343.631049 
L 562.060558 336.909754 
L 566.091706 322.351915 
L 568.10728 315.047314 
L 570.122853 308.218652 
L 572.138427 302.723897 
L 574.154001 298.977964 
L 576.169575 296.985568 
L 578.185149 297.240186 
L 580.200722 298.766471 
L 582.216296 301.742272 
L 584.23187 305.471799 
L 586.247444 309.723092 
L 592.294165 323.603757 
L 594.309739 327.439931 
L 596.325313 330.625693 
L 598.340886 332.867502 
L 600.35646 334.539812 
L 602.372034 335.487513 
L 604.387608 336.168683 
L 608.418755 337.157908 
L 610.434329 337.943905 
L 612.449903 338.885392 
L 614.465476 340.15946 
L 616.48105 342.126729 
L 618.496624 344.906051 
L 620.512198 348.646034 
L 622.527772 353.539146 
L 624.543345 359.352121 
L 628.574493 373.359015 
L 630.590067 380.714609 
L 632.60564 387.515835 
L 634.621214 393.436703 
L 636.636788 397.595357 
L 638.652362 399.496459 
L 640.667935 400.094659 
L 642.683509 398.943148 
L 644.699083 397.079521 
L 648.730231 392.121676 
L 650.745804 389.979265 
L 654.776952 385.182643 
L 656.792526 382.20559 
L 658.808099 378.585248 
L 660.823673 374.239921 
L 664.854821 363.990099 
L 666.870394 359.284429 
L 668.885968 355.46201 
L 670.901542 352.90894 
L 672.917116 351.475505 
L 674.93269 351.536637 
L 676.948263 351.743555 
L 678.963837 352.146995 
L 680.979411 352.426166 
L 682.994985 352.215582 
L 685.010558 351.050026 
L 687.026132 348.58544 
L 689.041706 345.359137 
L 695.088427 332.647494 
L 697.104001 329.166325 
L 699.119575 326.76141 
L 701.135149 325.582602 
L 703.150722 326.036824 
L 705.166296 327.356439 
L 707.18187 329.754695 
L 709.197444 332.507396 
L 711.213017 335.464838 
L 719.275313 347.976192 
L 721.290886 350.468708 
L 723.30646 352.257862 
L 725.322034 353.533995 
L 727.337608 354.102717 
L 729.353181 354.420513 
L 733.384329 354.418751 
L 735.399903 354.388425 
L 737.415476 354.118681 
L 739.43105 353.699801 
L 741.446624 352.826663 
L 747.493345 348.819845 
L 749.508919 347.760665 
L 751.524493 347.106508 
L 753.540067 346.994456 
L 755.55564 347.592199 
L 757.571214 348.57567 
L 761.602362 351.611277 
L 765.633509 354.8901 
L 767.649083 356.582854 
L 769.664657 357.920556 
L 771.680231 358.817632 
L 773.695804 359.298093 
L 775.711378 359.212417 
L 777.726952 358.742384 
L 779.742526 357.82423 
L 781.758099 356.532737 
L 783.773673 354.883392 
L 785.789247 352.955191 
L 793.851542 344.250958 
L 795.867116 342.55302 
L 797.88269 341.017111 
L 799.898263 339.756785 
L 801.913837 338.901765 
L 803.929411 338.487024 
L 805.944985 338.522715 
L 807.960558 339.07147 
L 809.976132 340.249516 
L 811.991706 342.108997 
L 814.00728 344.583091 
L 816.022853 347.730172 
L 818.038427 351.422855 
L 822.069575 359.776007 
L 824.085149 363.655056 
L 826.100722 366.852001 
L 828.116296 369.072085 
L 830.13187 369.890445 
L 832.147444 368.964237 
L 834.163017 366.514648 
L 840.209739 353.77335 
L 842.225313 350.772423 
L 844.240886 349.618715 
L 846.25646 350.089557 
L 848.272034 352.337835 
L 850.287608 354.104219 
L 852.303181 355.210875 
L 854.318755 355.368752 
L 856.334329 353.819433 
L 858.349903 350.914522 
L 862.38105 341.607683 
L 864.396624 337.228013 
L 866.412198 334.045519 
L 868.427772 332.708859 
L 870.443345 332.569374 
L 872.458919 334.21532 
L 874.474493 336.270673 
L 876.490067 338.777036 
L 878.50564 340.752072 
L 880.521214 341.759155 
L 882.536788 341.472904 
L 884.552362 339.609083 
L 888.583509 336.441793 
L 890.599083 335.582631 
L 892.614657 335.878937 
L 894.630231 337.770835 
L 896.645804 341.731395 
L 898.661378 346.621053 
L 902.692526 358.56728 
L 904.708099 363.838305 
L 906.723673 368.387424 
L 908.739247 371.627898 
L 910.754821 373.74807 
L 912.770394 374.374998 
L 914.785968 374.130687 
L 916.801542 372.915376 
L 918.817116 371.216266 
L 920.83269 369.184074 
L 922.848263 366.747973 
L 924.863837 364.118817 
L 926.879411 361.744834 
L 928.894985 359.779467 
L 930.910558 358.781308 
L 932.926132 359.0309 
L 934.941706 359.948711 
L 938.972853 363.516694 
L 940.988427 364.972476 
L 943.004001 365.997177 
L 945.019575 366.219024 
L 947.035149 365.188448 
L 949.050722 362.592603 
L 951.066296 358.690595 
L 953.08187 353.187356 
L 955.097444 347.031425 
L 959.128591 333.418119 
L 961.144165 326.971372 
L 963.159739 321.065451 
L 965.175313 316.095427 
L 967.190886 312.451308 
L 969.20646 310.467944 
L 971.222034 309.926517 
L 973.237608 311.123142 
L 975.253181 313.707967 
L 977.268755 317.753957 
L 979.284329 322.259469 
L 983.315476 331.728093 
L 985.33105 335.797635 
L 987.346624 339.348226 
L 989.362198 342.009606 
L 991.377772 344.403562 
L 993.393345 346.3812 
L 995.408919 348.534719 
L 999.440067 353.560354 
L 1003.471214 359.437481 
L 1009.517935 368.886416 
L 1011.533509 371.833392 
L 1013.549083 374.532245 
L 1015.564657 376.866234 
L 1017.580231 378.741825 
L 1019.595804 380.205292 
L 1021.611378 381.171501 
L 1023.626952 381.961336 
L 1027.658099 383.097095 
L 1029.673673 383.641891 
L 1033.704821 384.353408 
L 1035.720394 384.497539 
L 1037.735968 384.457899 
L 1039.751542 384.103618 
L 1041.767116 383.391904 
L 1043.78269 382.176516 
L 1045.798263 380.380646 
L 1047.813837 378.397984 
L 1053.860558 371.674049 
L 1055.876132 369.84299 
L 1057.891706 368.555349 
L 1059.90728 367.61775 
L 1061.922853 367.196784 
L 1063.938427 367.150875 
L 1067.969575 367.852508 
L 1069.985149 368.107001 
L 1072.000722 368.209316 
L 1074.016296 367.998992 
L 1076.03187 367.026672 
L 1078.047444 365.132612 
L 1080.063017 362.371744 
L 1082.078591 358.525084 
L 1084.094165 355.217978 
L 1086.109739 352.564731 
L 1088.125313 351.787863 
L 1088.125313 351.787863 
" clip-path="url(#p0947282ecc)" style="fill: none; stroke: #f27f19; stroke-width: 1.5; stroke-linecap: square"/>
   </g>
   <g id="patch_13">
    <path d="M 55.345313 405.250113 
L 55.345313 291.830113 
" style="fill: none; stroke: #000000; stroke-width: 0.8; stroke-linejoin: miter; stroke-linecap: square"/>
   </g>
   <g id="patch_14">
    <path d="M 1137.305313 405.250113 
L 1137.305313 291.830113 
" style="fill: none; stroke: #000000; stroke-width: 0.8; stroke-linejoin: miter; stroke-linecap: square"/>
   </g>
   <g id="patch_15">
    <path d="M 55.345312 405.250113 
L 1137.305312 405.250113 
" style="fill: none; stroke: #000000; stroke-width: 0.8; stroke-linejoin: miter; stroke-linecap: square"/>
   </g>
   <g id="patch_16">
    <path d="M 55.345312 291.830113 
L 1137.305312 291.830113 
" style="fill: none; stroke: #000000; stroke-width: 0.8; stroke-linejoin: miter; stroke-linecap: square"/>
   </g>
  </g>
  <g id="axes_4">
   <g id="patch_17">
    <path d="M 55.345313 546.550113 
L 1137.305313 546.550113 
L 1137.305313 433.130113 
L 55.345313 433.130113 
z
" style="fill: #ffffff"/>
   </g>
   <g id="matplotlib.axis_7">
    <g id="xtick_19">
     <g id="line2d_33">
      <g>
       <use xlink:href="#ma9eda4b908" x="104.525313" y="546.550113" style="stroke: #000000; stroke-width: 0.8"/>
      </g>
     </g>
     <g id="text_33">
      <!-- 0 -->
      <g transform="translate(101.344063 561.148551) scale(0.1 -0.1)">
       <use xlink:href="#DejaVuSans-30"/>
      </g>
     </g>
    </g>
    <g id="xtick_20">
     <g id="line2d_34">
      <g>
       <use xlink:href="#ma9eda4b908" x="306.08269" y="546.550113" style="stroke: #000000; stroke-width: 0.8"/>
      </g>
     </g>
     <g id="text_34">
      <!-- 100 -->
      <g transform="translate(296.53894 561.148551) scale(0.1 -0.1)">
       <use xlink:href="#DejaVuSans-31"/>
       <use xlink:href="#DejaVuSans-30" transform="translate(63.623047 0)"/>
       <use xlink:href="#DejaVuSans-30" transform="translate(127.246094 0)"/>
      </g>
     </g>
    </g>
    <g id="xtick_21">
     <g id="line2d_35">
      <g>
       <use xlink:href="#ma9eda4b908" x="507.640067" y="546.550113" style="stroke: #000000; stroke-width: 0.8"/>
      </g>
     </g>
     <g id="text_35">
      <!-- 200 -->
      <g transform="translate(498.096317 561.148551) scale(0.1 -0.1)">
       <use xlink:href="#DejaVuSans-32"/>
       <use xlink:href="#DejaVuSans-30" transform="translate(63.623047 0)"/>
       <use xlink:href="#DejaVuSans-30" transform="translate(127.246094 0)"/>
      </g>
     </g>
    </g>
    <g id="xtick_22">
     <g id="line2d_36">
      <g>
       <use xlink:href="#ma9eda4b908" x="709.197444" y="546.550113" style="stroke: #000000; stroke-width: 0.8"/>
      </g>
     </g>
     <g id="text_36">
      <!-- 300 -->
      <g transform="translate(699.653694 561.148551) scale(0.1 -0.1)">
       <use xlink:href="#DejaVuSans-33"/>
       <use xlink:href="#DejaVuSans-30" transform="translate(63.623047 0)"/>
       <use xlink:href="#DejaVuSans-30" transform="translate(127.246094 0)"/>
      </g>
     </g>
    </g>
    <g id="xtick_23">
     <g id="line2d_37">
      <g>
       <use xlink:href="#ma9eda4b908" x="910.754821" y="546.550113" style="stroke: #000000; stroke-width: 0.8"/>
      </g>
     </g>
     <g id="text_37">
      <!-- 400 -->
      <g transform="translate(901.211071 561.148551) scale(0.1 -0.1)">
       <use xlink:href="#DejaVuSans-34"/>
       <use xlink:href="#DejaVuSans-30" transform="translate(63.623047 0)"/>
       <use xlink:href="#DejaVuSans-30" transform="translate(127.246094 0)"/>
      </g>
     </g>
    </g>
    <g id="xtick_24">
     <g id="line2d_38">
      <g>
       <use xlink:href="#ma9eda4b908" x="1112.312198" y="546.550113" style="stroke: #000000; stroke-width: 0.8"/>
      </g>
     </g>
     <g id="text_38">
      <!-- 500 -->
      <g transform="translate(1102.768448 561.148551) scale(0.1 -0.1)">
       <use xlink:href="#DejaVuSans-35"/>
       <use xlink:href="#DejaVuSans-30" transform="translate(63.623047 0)"/>
       <use xlink:href="#DejaVuSans-30" transform="translate(127.246094 0)"/>
      </g>
     </g>
    </g>
   </g>
   <g id="matplotlib.axis_8">
    <g id="ytick_12">
     <g id="line2d_39">
      <g>
       <use xlink:href="#mee641cda77" x="55.345313" y="543.557317" style="stroke: #000000; stroke-width: 0.8"/>
      </g>
     </g>
     <g id="text_39">
      <!-- 800 -->
      <g transform="translate(29.257813 547.356536) scale(0.1 -0.1)">
       <use xlink:href="#DejaVuSans-38"/>
       <use xlink:href="#DejaVuSans-30" transform="translate(63.623047 0)"/>
       <use xlink:href="#DejaVuSans-30" transform="translate(127.246094 0)"/>
      </g>
     </g>
    </g>
    <g id="ytick_13">
     <g id="line2d_40">
      <g>
       <use xlink:href="#mee641cda77" x="55.345313" y="511.834314" style="stroke: #000000; stroke-width: 0.8"/>
      </g>
     </g>
     <g id="text_40">
      <!-- 1000 -->
      <g transform="translate(22.895313 515.633532) scale(0.1 -0.1)">
       <use xlink:href="#DejaVuSans-31"/>
       <use xlink:href="#DejaVuSans-30" transform="translate(63.623047 0)"/>
       <use xlink:href="#DejaVuSans-30" transform="translate(127.246094 0)"/>
       <use xlink:href="#DejaVuSans-30" transform="translate(190.869141 0)"/>
      </g>
     </g>
    </g>
    <g id="ytick_14">
     <g id="line2d_41">
      <g>
       <use xlink:href="#mee641cda77" x="55.345313" y="480.11131" style="stroke: #000000; stroke-width: 0.8"/>
      </g>
     </g>
     <g id="text_41">
      <!-- 1200 -->
      <g transform="translate(22.895313 483.910529) scale(0.1 -0.1)">
       <use xlink:href="#DejaVuSans-31"/>
       <use xlink:href="#DejaVuSans-32" transform="translate(63.623047 0)"/>
       <use xlink:href="#DejaVuSans-30" transform="translate(127.246094 0)"/>
       <use xlink:href="#DejaVuSans-30" transform="translate(190.869141 0)"/>
      </g>
     </g>
    </g>
    <g id="ytick_15">
     <g id="line2d_42">
      <g>
       <use xlink:href="#mee641cda77" x="55.345313" y="448.388307" style="stroke: #000000; stroke-width: 0.8"/>
      </g>
     </g>
     <g id="text_42">
      <!-- 1400 -->
      <g transform="translate(22.895313 452.187526) scale(0.1 -0.1)">
       <use xlink:href="#DejaVuSans-31"/>
       <use xlink:href="#DejaVuSans-34" transform="translate(63.623047 0)"/>
       <use xlink:href="#DejaVuSans-30" transform="translate(127.246094 0)"/>
       <use xlink:href="#DejaVuSans-30" transform="translate(190.869141 0)"/>
      </g>
     </g>
    </g>
    <g id="text_43">
     <!-- co-imf2 -->
     <g transform="translate(16.815625 508.747144) rotate(-90) scale(0.1 -0.1)">
      <use xlink:href="#DejaVuSans-63"/>
      <use xlink:href="#DejaVuSans-6f" transform="translate(54.980469 0)"/>
      <use xlink:href="#DejaVuSans-2d" transform="translate(118.037109 0)"/>
      <use xlink:href="#DejaVuSans-69" transform="translate(154.121094 0)"/>
      <use xlink:href="#DejaVuSans-6d" transform="translate(181.904297 0)"/>
      <use xlink:href="#DejaVuSans-66" transform="translate(279.316406 0)"/>
      <use xlink:href="#DejaVuSans-32" transform="translate(314.521484 0)"/>
     </g>
    </g>
   </g>
   <g id="line2d_43">
    <path d="M 104.525313 491.681659 
L 108.55646 491.635563 
L 112.587608 491.760791 
L 116.618755 492.051115 
L 120.649903 492.499996 
L 126.696624 493.456312 
L 132.743345 494.732605 
L 138.790067 496.306809 
L 144.836788 498.156857 
L 150.883509 500.260684 
L 156.930231 502.598998 
L 162.976952 505.15845 
L 171.039247 508.860125 
L 179.101542 512.813013 
L 191.194985 519.021327 
L 205.304001 526.258969 
L 213.366296 530.139491 
L 219.413017 532.826023 
L 225.459739 535.258027 
L 231.50646 537.370223 
L 235.537608 538.563605 
L 239.568755 539.566219 
L 243.599903 540.364348 
L 247.63105 540.944275 
L 251.662198 541.292284 
L 255.693345 541.394659 
L 259.724493 541.237682 
L 263.75564 540.808063 
L 267.786788 540.102426 
L 271.817935 539.137624 
L 275.849083 537.935094 
L 279.880231 536.516323 
L 283.911378 534.902795 
L 289.958099 532.166969 
L 296.004821 529.129633 
L 304.067116 524.765536 
L 324.222853 513.620294 
L 330.269575 510.583837 
L 336.316296 507.844054 
L 340.347444 506.210663 
L 344.378591 504.745802 
L 348.409739 503.448634 
L 352.440886 502.315219 
L 356.472034 501.34162 
L 360.503181 500.523895 
L 366.549903 499.580955 
L 372.596624 498.966574 
L 378.643345 498.665535 
L 384.690067 498.651753 
L 390.736788 498.903143 
L 396.783509 499.398947 
L 402.830231 500.118406 
L 408.876952 501.040764 
L 416.939247 502.546424 
L 425.001542 504.288585 
L 443.141706 508.549847 
L 453.219575 510.769315 
L 459.266296 511.929859 
L 465.313017 512.87014 
L 469.344165 513.327467 
L 473.375313 513.616771 
L 477.40646 513.710369 
L 481.437608 513.580581 
L 485.468755 513.202082 
L 489.499903 512.559512 
L 493.53105 511.651207 
L 497.562198 510.486786 
L 501.593345 509.076362 
L 505.624493 507.430047 
L 509.65564 505.557953 
L 513.686788 503.470359 
L 517.717935 501.181407 
L 523.764657 497.409863 
L 529.811378 493.289836 
L 535.858099 488.900653 
L 543.920394 482.777876 
L 562.060558 468.862443 
L 568.10728 464.486141 
L 574.154001 460.383898 
L 578.185149 457.843684 
L 582.216296 455.488817 
L 586.247444 453.344392 
L 590.278591 451.428176 
L 594.309739 449.75018 
L 598.340886 448.310523 
L 602.372034 447.099747 
L 606.403181 446.107977 
L 610.434329 445.325338 
L 614.465476 444.741956 
L 618.496624 444.347956 
L 622.527772 444.133462 
L 626.558919 444.088601 
L 630.590067 444.203497 
L 636.636788 444.653786 
L 642.683509 445.407984 
L 648.730231 446.433519 
L 654.776952 447.699708 
L 660.823673 449.169354 
L 668.885968 451.3793 
L 678.963837 454.416771 
L 709.197444 463.754823 
L 727.337608 468.920597 
L 751.524493 475.802027 
L 789.820394 486.991292 
L 799.898263 489.630826 
L 807.960558 491.526248 
L 816.022853 493.168624 
L 822.069575 494.200546 
L 828.116296 495.034825 
L 834.163017 495.647794 
L 840.209739 496.019611 
L 846.25646 496.145014 
L 852.303181 496.024645 
L 858.349903 495.659222 
L 864.396624 495.049463 
L 870.443345 494.196085 
L 876.490067 493.099807 
L 882.536788 491.761467 
L 888.583509 490.184158 
L 894.630231 488.381783 
L 900.676952 486.374648 
L 908.739247 483.415237 
L 916.801542 480.176761 
L 924.863837 476.714152 
L 936.95728 471.236851 
L 965.175313 458.265991 
L 973.237608 454.80255 
L 981.299903 451.565192 
L 989.362198 448.61389 
L 995.408919 446.61627 
L 1001.45564 444.81386 
L 1007.502362 443.214283 
L 1013.549083 441.82516 
L 1019.595804 440.654116 
L 1025.642526 439.708773 
L 1031.689247 438.996754 
L 1037.735968 438.525682 
L 1043.78269 438.30318 
L 1049.829411 438.336207 
L 1055.876132 438.621686 
L 1061.922853 439.147441 
L 1067.969575 439.900839 
L 1074.016296 440.869242 
L 1080.063017 442.040015 
L 1086.109739 443.400523 
L 1088.125313 443.894004 
L 1088.125313 443.894004 
" clip-path="url(#p9f40350856)" style="fill: none; stroke: #f27f19; stroke-width: 1.5; stroke-linecap: square"/>
   </g>
   <g id="patch_18">
    <path d="M 55.345313 546.550113 
L 55.345313 433.130113 
" style="fill: none; stroke: #000000; stroke-width: 0.8; stroke-linejoin: miter; stroke-linecap: square"/>
   </g>
   <g id="patch_19">
    <path d="M 1137.305313 546.550113 
L 1137.305313 433.130113 
" style="fill: none; stroke: #000000; stroke-width: 0.8; stroke-linejoin: miter; stroke-linecap: square"/>
   </g>
   <g id="patch_20">
    <path d="M 55.345312 546.550113 
L 1137.305312 546.550113 
" style="fill: none; stroke: #000000; stroke-width: 0.8; stroke-linejoin: miter; stroke-linecap: square"/>
   </g>
   <g id="patch_21">
    <path d="M 55.345312 433.130113 
L 1137.305312 433.130113 
" style="fill: none; stroke: #000000; stroke-width: 0.8; stroke-linejoin: miter; stroke-linecap: square"/>
   </g>
  </g>
 </g>
 <defs>
  <clipPath id="pc471bc8848">
   <rect x="55.345313" y="9.230113" width="1081.96" height="113.42"/>
  </clipPath>
  <clipPath id="p8abd7def9b">
   <rect x="55.345313" y="150.530113" width="1081.96" height="113.42"/>
  </clipPath>
  <clipPath id="p0947282ecc">
   <rect x="55.345313" y="291.830113" width="1081.96" height="113.42"/>
  </clipPath>
  <clipPath id="p9f40350856">
   <rect x="55.345313" y="433.130113" width="1081.96" height="113.42"/>
  </clipPath>
 </defs>
</svg>
