<?xml version="1.0" encoding="utf-8" standalone="no"?>
<!DOCTYPE svg PUBLIC "-//W3C//DTD SVG 1.1//EN"
  "http://www.w3.org/Graphics/SVG/1.1/DTD/svg11.dtd">
<svg xmlns:xlink="http://www.w3.org/1999/xlink" width="604.85pt" height="261.631033pt" viewBox="0 0 604.85 261.631033" xmlns="http://www.w3.org/2000/svg" version="1.1">
 <metadata>
  <rdf:RDF xmlns:dc="http://purl.org/dc/elements/1.1/" xmlns:cc="http://creativecommons.org/ns#" xmlns:rdf="http://www.w3.org/1999/02/22-rdf-syntax-ns#">
   <cc:Work>
    <dc:type rdf:resource="http://purl.org/dc/dcmitype/StillImage"/>
    <dc:date>2025-04-15T02:22:31.352336</dc:date>
    <dc:format>image/svg+xml</dc:format>
    <dc:creator>
     <cc:Agent>
      <dc:title>Matplotlib v3.10.1, https://matplotlib.org/</dc:title>
     </cc:Agent>
    </dc:creator>
   </cc:Work>
  </rdf:RDF>
 </metadata>
 <defs>
  <style type="text/css">*{stroke-linejoin: round; stroke-linecap: butt}</style>
 </defs>
 <g id="figure_1">
  <g id="patch_1">
   <path d="M 0 261.631033 
L 604.85 261.631033 
L 604.85 0 
L 0 0 
z
" style="fill: #ffffff"/>
  </g>
  <g id="axes_1">
   <g id="patch_2">
    <path d="M 39.65 218.158125 
L 597.65 218.158125 
L 597.65 22.318125 
L 39.65 22.318125 
z
" style="fill: #ffffff"/>
   </g>
   <g id="matplotlib.axis_1">
    <g id="xtick_1">
     <g id="line2d_1">
      <defs>
       <path id="m08183b20c7" d="M 0 0 
L 0 3.5 
" style="stroke: #000000; stroke-width: 0.8"/>
      </defs>
      <g>
       <use xlink:href="#m08183b20c7" x="98.46019" y="218.158125" style="stroke: #000000; stroke-width: 0.8"/>
      </g>
     </g>
     <g id="text_1">
      <!-- 2023-11 -->
      <g transform="translate(61.235369 252.629971) rotate(-30) scale(0.1 -0.1)">
       <defs>
        <path id="DejaVuSans-32" d="M 1228 531 
L 3431 531 
L 3431 0 
L 469 0 
L 469 531 
Q 828 903 1448 1529 
Q 2069 2156 2228 2338 
Q 2531 2678 2651 2914 
Q 2772 3150 2772 3378 
Q 2772 3750 2511 3984 
Q 2250 4219 1831 4219 
Q 1534 4219 1204 4116 
Q 875 4013 500 3803 
L 500 4441 
Q 881 4594 1212 4672 
Q 1544 4750 1819 4750 
Q 2544 4750 2975 4387 
Q 3406 4025 3406 3419 
Q 3406 3131 3298 2873 
Q 3191 2616 2906 2266 
Q 2828 2175 2409 1742 
Q 1991 1309 1228 531 
z
" transform="scale(0.015625)"/>
        <path id="DejaVuSans-30" d="M 2034 4250 
Q 1547 4250 1301 3770 
Q 1056 3291 1056 2328 
Q 1056 1369 1301 889 
Q 1547 409 2034 409 
Q 2525 409 2770 889 
Q 3016 1369 3016 2328 
Q 3016 3291 2770 3770 
Q 2525 4250 2034 4250 
z
M 2034 4750 
Q 2819 4750 3233 4129 
Q 3647 3509 3647 2328 
Q 3647 1150 3233 529 
Q 2819 -91 2034 -91 
Q 1250 -91 836 529 
Q 422 1150 422 2328 
Q 422 3509 836 4129 
Q 1250 4750 2034 4750 
z
" transform="scale(0.015625)"/>
        <path id="DejaVuSans-33" d="M 2597 2516 
Q 3050 2419 3304 2112 
Q 3559 1806 3559 1356 
Q 3559 666 3084 287 
Q 2609 -91 1734 -91 
Q 1441 -91 1130 -33 
Q 819 25 488 141 
L 488 750 
Q 750 597 1062 519 
Q 1375 441 1716 441 
Q 2309 441 2620 675 
Q 2931 909 2931 1356 
Q 2931 1769 2642 2001 
Q 2353 2234 1838 2234 
L 1294 2234 
L 1294 2753 
L 1863 2753 
Q 2328 2753 2575 2939 
Q 2822 3125 2822 3475 
Q 2822 3834 2567 4026 
Q 2313 4219 1838 4219 
Q 1578 4219 1281 4162 
Q 984 4106 628 3988 
L 628 4550 
Q 988 4650 1302 4700 
Q 1616 4750 1894 4750 
Q 2613 4750 3031 4423 
Q 3450 4097 3450 3541 
Q 3450 3153 3228 2886 
Q 3006 2619 2597 2516 
z
" transform="scale(0.015625)"/>
        <path id="DejaVuSans-2d" d="M 313 2009 
L 1997 2009 
L 1997 1497 
L 313 1497 
L 313 2009 
z
" transform="scale(0.015625)"/>
        <path id="DejaVuSans-31" d="M 794 531 
L 1825 531 
L 1825 4091 
L 703 3866 
L 703 4441 
L 1819 4666 
L 2450 4666 
L 2450 531 
L 3481 531 
L 3481 0 
L 794 0 
L 794 531 
z
" transform="scale(0.015625)"/>
       </defs>
       <use xlink:href="#DejaVuSans-32"/>
       <use xlink:href="#DejaVuSans-30" transform="translate(63.623047 0)"/>
       <use xlink:href="#DejaVuSans-32" transform="translate(127.246094 0)"/>
       <use xlink:href="#DejaVuSans-33" transform="translate(190.869141 0)"/>
       <use xlink:href="#DejaVuSans-2d" transform="translate(254.492188 0)"/>
       <use xlink:href="#DejaVuSans-31" transform="translate(290.576172 0)"/>
       <use xlink:href="#DejaVuSans-31" transform="translate(354.199219 0)"/>
      </g>
     </g>
    </g>
    <g id="xtick_2">
     <g id="line2d_2">
      <g>
       <use xlink:href="#m08183b20c7" x="166.468182" y="218.158125" style="stroke: #000000; stroke-width: 0.8"/>
      </g>
     </g>
     <g id="text_2">
      <!-- 2024-01 -->
      <g transform="translate(129.243361 252.629971) rotate(-30) scale(0.1 -0.1)">
       <defs>
        <path id="DejaVuSans-34" d="M 2419 4116 
L 825 1625 
L 2419 1625 
L 2419 4116 
z
M 2253 4666 
L 3047 4666 
L 3047 1625 
L 3713 1625 
L 3713 1100 
L 3047 1100 
L 3047 0 
L 2419 0 
L 2419 1100 
L 313 1100 
L 313 1709 
L 2253 4666 
z
" transform="scale(0.015625)"/>
       </defs>
       <use xlink:href="#DejaVuSans-32"/>
       <use xlink:href="#DejaVuSans-30" transform="translate(63.623047 0)"/>
       <use xlink:href="#DejaVuSans-32" transform="translate(127.246094 0)"/>
       <use xlink:href="#DejaVuSans-34" transform="translate(190.869141 0)"/>
       <use xlink:href="#DejaVuSans-2d" transform="translate(254.492188 0)"/>
       <use xlink:href="#DejaVuSans-30" transform="translate(290.576172 0)"/>
       <use xlink:href="#DejaVuSans-31" transform="translate(354.199219 0)"/>
      </g>
     </g>
    </g>
    <g id="xtick_3">
     <g id="line2d_3">
      <g>
       <use xlink:href="#m08183b20c7" x="233.361289" y="218.158125" style="stroke: #000000; stroke-width: 0.8"/>
      </g>
     </g>
     <g id="text_3">
      <!-- 2024-03 -->
      <g transform="translate(196.136468 252.629971) rotate(-30) scale(0.1 -0.1)">
       <use xlink:href="#DejaVuSans-32"/>
       <use xlink:href="#DejaVuSans-30" transform="translate(63.623047 0)"/>
       <use xlink:href="#DejaVuSans-32" transform="translate(127.246094 0)"/>
       <use xlink:href="#DejaVuSans-34" transform="translate(190.869141 0)"/>
       <use xlink:href="#DejaVuSans-2d" transform="translate(254.492188 0)"/>
       <use xlink:href="#DejaVuSans-30" transform="translate(290.576172 0)"/>
       <use xlink:href="#DejaVuSans-33" transform="translate(354.199219 0)"/>
      </g>
     </g>
    </g>
    <g id="xtick_4">
     <g id="line2d_4">
      <g>
       <use xlink:href="#m08183b20c7" x="301.369281" y="218.158125" style="stroke: #000000; stroke-width: 0.8"/>
      </g>
     </g>
     <g id="text_4">
      <!-- 2024-05 -->
      <g transform="translate(264.14446 252.629971) rotate(-30) scale(0.1 -0.1)">
       <defs>
        <path id="DejaVuSans-35" d="M 691 4666 
L 3169 4666 
L 3169 4134 
L 1269 4134 
L 1269 2991 
Q 1406 3038 1543 3061 
Q 1681 3084 1819 3084 
Q 2600 3084 3056 2656 
Q 3513 2228 3513 1497 
Q 3513 744 3044 326 
Q 2575 -91 1722 -91 
Q 1428 -91 1123 -41 
Q 819 9 494 109 
L 494 744 
Q 775 591 1075 516 
Q 1375 441 1709 441 
Q 2250 441 2565 725 
Q 2881 1009 2881 1497 
Q 2881 1984 2565 2268 
Q 2250 2553 1709 2553 
Q 1456 2553 1204 2497 
Q 953 2441 691 2322 
L 691 4666 
z
" transform="scale(0.015625)"/>
       </defs>
       <use xlink:href="#DejaVuSans-32"/>
       <use xlink:href="#DejaVuSans-30" transform="translate(63.623047 0)"/>
       <use xlink:href="#DejaVuSans-32" transform="translate(127.246094 0)"/>
       <use xlink:href="#DejaVuSans-34" transform="translate(190.869141 0)"/>
       <use xlink:href="#DejaVuSans-2d" transform="translate(254.492188 0)"/>
       <use xlink:href="#DejaVuSans-30" transform="translate(290.576172 0)"/>
       <use xlink:href="#DejaVuSans-35" transform="translate(354.199219 0)"/>
      </g>
     </g>
    </g>
    <g id="xtick_5">
     <g id="line2d_5">
      <g>
       <use xlink:href="#m08183b20c7" x="369.377273" y="218.158125" style="stroke: #000000; stroke-width: 0.8"/>
      </g>
     </g>
     <g id="text_5">
      <!-- 2024-07 -->
      <g transform="translate(332.152452 252.629971) rotate(-30) scale(0.1 -0.1)">
       <defs>
        <path id="DejaVuSans-37" d="M 525 4666 
L 3525 4666 
L 3525 4397 
L 1831 0 
L 1172 0 
L 2766 4134 
L 525 4134 
L 525 4666 
z
" transform="scale(0.015625)"/>
       </defs>
       <use xlink:href="#DejaVuSans-32"/>
       <use xlink:href="#DejaVuSans-30" transform="translate(63.623047 0)"/>
       <use xlink:href="#DejaVuSans-32" transform="translate(127.246094 0)"/>
       <use xlink:href="#DejaVuSans-34" transform="translate(190.869141 0)"/>
       <use xlink:href="#DejaVuSans-2d" transform="translate(254.492188 0)"/>
       <use xlink:href="#DejaVuSans-30" transform="translate(290.576172 0)"/>
       <use xlink:href="#DejaVuSans-37" transform="translate(354.199219 0)"/>
      </g>
     </g>
    </g>
    <g id="xtick_6">
     <g id="line2d_6">
      <g>
       <use xlink:href="#m08183b20c7" x="438.50015" y="218.158125" style="stroke: #000000; stroke-width: 0.8"/>
      </g>
     </g>
     <g id="text_6">
      <!-- 2024-09 -->
      <g transform="translate(401.275329 252.629971) rotate(-30) scale(0.1 -0.1)">
       <defs>
        <path id="DejaVuSans-39" d="M 703 97 
L 703 672 
Q 941 559 1184 500 
Q 1428 441 1663 441 
Q 2288 441 2617 861 
Q 2947 1281 2994 2138 
Q 2813 1869 2534 1725 
Q 2256 1581 1919 1581 
Q 1219 1581 811 2004 
Q 403 2428 403 3163 
Q 403 3881 828 4315 
Q 1253 4750 1959 4750 
Q 2769 4750 3195 4129 
Q 3622 3509 3622 2328 
Q 3622 1225 3098 567 
Q 2575 -91 1691 -91 
Q 1453 -91 1209 -44 
Q 966 3 703 97 
z
M 1959 2075 
Q 2384 2075 2632 2365 
Q 2881 2656 2881 3163 
Q 2881 3666 2632 3958 
Q 2384 4250 1959 4250 
Q 1534 4250 1286 3958 
Q 1038 3666 1038 3163 
Q 1038 2656 1286 2365 
Q 1534 2075 1959 2075 
z
" transform="scale(0.015625)"/>
       </defs>
       <use xlink:href="#DejaVuSans-32"/>
       <use xlink:href="#DejaVuSans-30" transform="translate(63.623047 0)"/>
       <use xlink:href="#DejaVuSans-32" transform="translate(127.246094 0)"/>
       <use xlink:href="#DejaVuSans-34" transform="translate(190.869141 0)"/>
       <use xlink:href="#DejaVuSans-2d" transform="translate(254.492188 0)"/>
       <use xlink:href="#DejaVuSans-30" transform="translate(290.576172 0)"/>
       <use xlink:href="#DejaVuSans-39" transform="translate(354.199219 0)"/>
      </g>
     </g>
    </g>
    <g id="xtick_7">
     <g id="line2d_7">
      <g>
       <use xlink:href="#m08183b20c7" x="506.508142" y="218.158125" style="stroke: #000000; stroke-width: 0.8"/>
      </g>
     </g>
     <g id="text_7">
      <!-- 2024-11 -->
      <g transform="translate(469.283321 252.629971) rotate(-30) scale(0.1 -0.1)">
       <use xlink:href="#DejaVuSans-32"/>
       <use xlink:href="#DejaVuSans-30" transform="translate(63.623047 0)"/>
       <use xlink:href="#DejaVuSans-32" transform="translate(127.246094 0)"/>
       <use xlink:href="#DejaVuSans-34" transform="translate(190.869141 0)"/>
       <use xlink:href="#DejaVuSans-2d" transform="translate(254.492188 0)"/>
       <use xlink:href="#DejaVuSans-31" transform="translate(290.576172 0)"/>
       <use xlink:href="#DejaVuSans-31" transform="translate(354.199219 0)"/>
      </g>
     </g>
    </g>
    <g id="xtick_8">
     <g id="line2d_8">
      <g>
       <use xlink:href="#m08183b20c7" x="574.516134" y="218.158125" style="stroke: #000000; stroke-width: 0.8"/>
      </g>
     </g>
     <g id="text_8">
      <!-- 2025-01 -->
      <g transform="translate(537.291313 252.629971) rotate(-30) scale(0.1 -0.1)">
       <use xlink:href="#DejaVuSans-32"/>
       <use xlink:href="#DejaVuSans-30" transform="translate(63.623047 0)"/>
       <use xlink:href="#DejaVuSans-32" transform="translate(127.246094 0)"/>
       <use xlink:href="#DejaVuSans-35" transform="translate(190.869141 0)"/>
       <use xlink:href="#DejaVuSans-2d" transform="translate(254.492188 0)"/>
       <use xlink:href="#DejaVuSans-30" transform="translate(290.576172 0)"/>
       <use xlink:href="#DejaVuSans-31" transform="translate(354.199219 0)"/>
      </g>
     </g>
    </g>
   </g>
   <g id="matplotlib.axis_2">
    <g id="ytick_1">
     <g id="line2d_9">
      <defs>
       <path id="m77bd39a200" d="M 0 0 
L -3.5 0 
" style="stroke: #000000; stroke-width: 0.8"/>
      </defs>
      <g>
       <use xlink:href="#m77bd39a200" x="39.65" y="210.601572" style="stroke: #000000; stroke-width: 0.8"/>
      </g>
     </g>
     <g id="text_9">
      <!-- 0 -->
      <g transform="translate(26.2875 214.400791) scale(0.1 -0.1)">
       <use xlink:href="#DejaVuSans-30"/>
      </g>
     </g>
    </g>
    <g id="ytick_2">
     <g id="line2d_10">
      <g>
       <use xlink:href="#m77bd39a200" x="39.65" y="187.60043" style="stroke: #000000; stroke-width: 0.8"/>
      </g>
     </g>
     <g id="text_10">
      <!-- 200 -->
      <g transform="translate(13.5625 191.399649) scale(0.1 -0.1)">
       <use xlink:href="#DejaVuSans-32"/>
       <use xlink:href="#DejaVuSans-30" transform="translate(63.623047 0)"/>
       <use xlink:href="#DejaVuSans-30" transform="translate(127.246094 0)"/>
      </g>
     </g>
    </g>
    <g id="ytick_3">
     <g id="line2d_11">
      <g>
       <use xlink:href="#m77bd39a200" x="39.65" y="164.599289" style="stroke: #000000; stroke-width: 0.8"/>
      </g>
     </g>
     <g id="text_11">
      <!-- 400 -->
      <g transform="translate(13.5625 168.398507) scale(0.1 -0.1)">
       <use xlink:href="#DejaVuSans-34"/>
       <use xlink:href="#DejaVuSans-30" transform="translate(63.623047 0)"/>
       <use xlink:href="#DejaVuSans-30" transform="translate(127.246094 0)"/>
      </g>
     </g>
    </g>
    <g id="ytick_4">
     <g id="line2d_12">
      <g>
       <use xlink:href="#m77bd39a200" x="39.65" y="141.598147" style="stroke: #000000; stroke-width: 0.8"/>
      </g>
     </g>
     <g id="text_12">
      <!-- 600 -->
      <g transform="translate(13.5625 145.397366) scale(0.1 -0.1)">
       <defs>
        <path id="DejaVuSans-36" d="M 2113 2584 
Q 1688 2584 1439 2293 
Q 1191 2003 1191 1497 
Q 1191 994 1439 701 
Q 1688 409 2113 409 
Q 2538 409 2786 701 
Q 3034 994 3034 1497 
Q 3034 2003 2786 2293 
Q 2538 2584 2113 2584 
z
M 3366 4563 
L 3366 3988 
Q 3128 4100 2886 4159 
Q 2644 4219 2406 4219 
Q 1781 4219 1451 3797 
Q 1122 3375 1075 2522 
Q 1259 2794 1537 2939 
Q 1816 3084 2150 3084 
Q 2853 3084 3261 2657 
Q 3669 2231 3669 1497 
Q 3669 778 3244 343 
Q 2819 -91 2113 -91 
Q 1303 -91 875 529 
Q 447 1150 447 2328 
Q 447 3434 972 4092 
Q 1497 4750 2381 4750 
Q 2619 4750 2861 4703 
Q 3103 4656 3366 4563 
z
" transform="scale(0.015625)"/>
       </defs>
       <use xlink:href="#DejaVuSans-36"/>
       <use xlink:href="#DejaVuSans-30" transform="translate(63.623047 0)"/>
       <use xlink:href="#DejaVuSans-30" transform="translate(127.246094 0)"/>
      </g>
     </g>
    </g>
    <g id="ytick_5">
     <g id="line2d_13">
      <g>
       <use xlink:href="#m77bd39a200" x="39.65" y="118.597005" style="stroke: #000000; stroke-width: 0.8"/>
      </g>
     </g>
     <g id="text_13">
      <!-- 800 -->
      <g transform="translate(13.5625 122.396224) scale(0.1 -0.1)">
       <defs>
        <path id="DejaVuSans-38" d="M 2034 2216 
Q 1584 2216 1326 1975 
Q 1069 1734 1069 1313 
Q 1069 891 1326 650 
Q 1584 409 2034 409 
Q 2484 409 2743 651 
Q 3003 894 3003 1313 
Q 3003 1734 2745 1975 
Q 2488 2216 2034 2216 
z
M 1403 2484 
Q 997 2584 770 2862 
Q 544 3141 544 3541 
Q 544 4100 942 4425 
Q 1341 4750 2034 4750 
Q 2731 4750 3128 4425 
Q 3525 4100 3525 3541 
Q 3525 3141 3298 2862 
Q 3072 2584 2669 2484 
Q 3125 2378 3379 2068 
Q 3634 1759 3634 1313 
Q 3634 634 3220 271 
Q 2806 -91 2034 -91 
Q 1263 -91 848 271 
Q 434 634 434 1313 
Q 434 1759 690 2068 
Q 947 2378 1403 2484 
z
M 1172 3481 
Q 1172 3119 1398 2916 
Q 1625 2713 2034 2713 
Q 2441 2713 2670 2916 
Q 2900 3119 2900 3481 
Q 2900 3844 2670 4047 
Q 2441 4250 2034 4250 
Q 1625 4250 1398 4047 
Q 1172 3844 1172 3481 
z
" transform="scale(0.015625)"/>
       </defs>
       <use xlink:href="#DejaVuSans-38"/>
       <use xlink:href="#DejaVuSans-30" transform="translate(63.623047 0)"/>
       <use xlink:href="#DejaVuSans-30" transform="translate(127.246094 0)"/>
      </g>
     </g>
    </g>
    <g id="ytick_6">
     <g id="line2d_14">
      <g>
       <use xlink:href="#m77bd39a200" x="39.65" y="95.595863" style="stroke: #000000; stroke-width: 0.8"/>
      </g>
     </g>
     <g id="text_14">
      <!-- 1000 -->
      <g transform="translate(7.2 99.395082) scale(0.1 -0.1)">
       <use xlink:href="#DejaVuSans-31"/>
       <use xlink:href="#DejaVuSans-30" transform="translate(63.623047 0)"/>
       <use xlink:href="#DejaVuSans-30" transform="translate(127.246094 0)"/>
       <use xlink:href="#DejaVuSans-30" transform="translate(190.869141 0)"/>
      </g>
     </g>
    </g>
    <g id="ytick_7">
     <g id="line2d_15">
      <g>
       <use xlink:href="#m77bd39a200" x="39.65" y="72.594722" style="stroke: #000000; stroke-width: 0.8"/>
      </g>
     </g>
     <g id="text_15">
      <!-- 1200 -->
      <g transform="translate(7.2 76.39394) scale(0.1 -0.1)">
       <use xlink:href="#DejaVuSans-31"/>
       <use xlink:href="#DejaVuSans-32" transform="translate(63.623047 0)"/>
       <use xlink:href="#DejaVuSans-30" transform="translate(127.246094 0)"/>
       <use xlink:href="#DejaVuSans-30" transform="translate(190.869141 0)"/>
      </g>
     </g>
    </g>
    <g id="ytick_8">
     <g id="line2d_16">
      <g>
       <use xlink:href="#m77bd39a200" x="39.65" y="49.59358" style="stroke: #000000; stroke-width: 0.8"/>
      </g>
     </g>
     <g id="text_16">
      <!-- 1400 -->
      <g transform="translate(7.2 53.392799) scale(0.1 -0.1)">
       <use xlink:href="#DejaVuSans-31"/>
       <use xlink:href="#DejaVuSans-34" transform="translate(63.623047 0)"/>
       <use xlink:href="#DejaVuSans-30" transform="translate(127.246094 0)"/>
       <use xlink:href="#DejaVuSans-30" transform="translate(190.869141 0)"/>
      </g>
     </g>
    </g>
    <g id="ytick_9">
     <g id="line2d_17">
      <g>
       <use xlink:href="#m77bd39a200" x="39.65" y="26.592438" style="stroke: #000000; stroke-width: 0.8"/>
      </g>
     </g>
     <g id="text_17">
      <!-- 1600 -->
      <g transform="translate(7.2 30.391657) scale(0.1 -0.1)">
       <use xlink:href="#DejaVuSans-31"/>
       <use xlink:href="#DejaVuSans-36" transform="translate(63.623047 0)"/>
       <use xlink:href="#DejaVuSans-30" transform="translate(127.246094 0)"/>
       <use xlink:href="#DejaVuSans-30" transform="translate(190.869141 0)"/>
      </g>
     </g>
    </g>
   </g>
   <g id="line2d_18">
    <path d="M 65.013636 51.089902 
L 66.128521 44.466589 
L 67.243407 36.739376 
L 68.358292 35.635483 
L 69.473177 35.63549 
L 72.817832 31.219943 
L 73.932717 42.258804 
L 75.047602 47.226303 
L 76.162488 54.401571 
L 77.277373 64.888493 
L 80.622028 65.440439 
L 81.736913 67.09627 
L 82.851798 54.401568 
L 83.966683 49.986015 
L 85.081568 58.265171 
L 88.426224 61.576831 
L 89.541109 63.784601 
L 90.655994 59.920995 
L 91.770879 63.232658 
L 92.885764 65.440432 
L 96.23042 59.369056 
L 97.345305 53.849625 
L 99.575075 53.849618 
L 100.68996 54.95351 
L 104.034615 56.05739 
L 105.1495 54.401565 
L 106.264386 61.576829 
L 108.494156 72.063756 
L 111.838811 75.37542 
L 112.953696 74.271535 
L 114.068581 71.511817 
L 115.183467 70.959865 
L 116.298352 72.615699 
L 119.643007 75.927362 
L 120.757892 72.615706 
L 121.872777 73.719581 
L 122.987662 88.070123 
L 124.102547 89.725952 
L 127.447203 91.381776 
L 128.562088 97.453156 
L 129.676973 98.005101 
L 130.791858 99.66093 
L 131.906743 94.141497 
L 135.251399 95.797324 
L 136.366284 99.10899 
L 137.481169 96.901214 
L 138.596054 85.86234 
L 139.710939 89.174001 
L 143.055594 81.446794 
L 144.17048 86.966229 
L 145.285365 91.381773 
L 146.40025 73.719588 
L 147.515135 72.615707 
L 150.85979 65.992385 
L 151.974675 79.239025 
L 153.08956 71.511807 
L 154.204446 75.927355 
L 155.319331 75.375421 
L 160.893756 79.23902 
L 162.008641 76.479299 
L 163.123526 79.790961 
L 167.583067 81.44679 
L 168.697952 70.959875 
L 169.812837 68.752096 
L 170.927722 67.648215 
L 174.272378 69.304042 
L 176.502148 80.342915 
L 177.617033 78.135136 
L 178.731918 76.479306 
L 182.076573 77.583193 
L 183.191459 74.271531 
L 184.306344 73.167643 
L 185.421229 71.511809 
L 186.536114 70.407932 
L 189.880769 71.511819 
L 190.995654 72.615701 
L 192.110539 73.16765 
L 193.225425 77.031252 
L 194.34031 68.752101 
L 197.684965 64.888488 
L 198.79985 64.888488 
L 199.914735 65.440437 
L 201.02962 66.544319 
L 202.144505 65.440435 
L 205.489161 68.752095 
L 206.604046 74.823473 
L 207.718931 75.375417 
L 213.293357 80.342913 
L 214.408242 74.82347 
L 216.638012 75.927358 
L 217.752897 73.719588 
L 221.097552 78.135131 
L 222.212438 77.031246 
L 224.442208 80.34291 
L 225.557093 75.927355 
L 228.901748 74.823477 
L 230.016633 74.823473 
L 231.131518 75.927364 
L 232.246404 74.271526 
L 233.361289 77.031247 
L 236.705944 75.927357 
L 237.820829 76.479302 
L 238.935714 78.687076 
L 240.050599 79.239028 
L 241.165485 78.135129 
L 246.73991 79.790972 
L 247.854795 78.135129 
L 248.96968 78.135134 
L 252.314336 80.342908 
L 253.429221 79.790965 
L 255.658991 79.790972 
L 256.773876 78.135133 
L 260.118531 78.687076 
L 262.348302 78.687073 
L 263.463187 79.239027 
L 267.922727 80.894854 
L 269.037612 86.414284 
L 270.152498 85.310407 
L 271.267383 82.550686 
L 272.382268 79.239025 
L 284.646004 79.239025 
L 285.760889 78.687074 
L 286.875774 75.927364 
L 287.990659 74.823473 
L 291.335315 75.375419 
L 292.4502 77.031249 
L 293.565085 77.583198 
L 294.67997 77.583186 
L 295.794855 74.823481 
L 299.13951 78.135131 
L 300.254396 77.031247 
L 302.484166 75.375419 
L 303.599051 77.031253 
L 306.943706 75.927364 
L 308.058591 62.680725 
L 309.173477 65.992375 
L 314.747902 65.440434 
L 315.862787 71.511816 
L 316.977672 70.407922 
L 318.092557 72.615697 
L 319.207443 65.44043 
L 322.552098 67.096264 
L 323.666983 70.407932 
L 324.781868 67.096264 
L 330.356294 71.51181 
L 331.471179 72.615699 
L 332.586064 68.200146 
L 333.700949 70.959867 
L 334.815834 74.271525 
L 338.16049 78.687074 
L 339.275375 76.4793 
L 340.39026 77.031251 
L 341.505145 77.19495 
L 342.62003 76.044893 
L 345.964685 73.744779 
L 348.194456 76.044893 
L 349.309341 81.795178 
L 350.424226 81.795178 
L 355.998651 88.695521 
L 357.113536 94.445806 
L 358.228422 89.845578 
L 361.573077 77.769979 
L 362.687962 77.769979 
L 363.802847 78.345007 
L 364.917732 74.319807 
L 366.032617 72.019693 
L 369.377273 73.16975 
L 370.492158 70.294608 
L 371.607043 70.869636 
L 372.721928 72.019693 
L 373.836813 72.594722 
L 377.181469 67.994493 
L 378.296354 68.569522 
L 379.411239 69.719579 
L 381.641009 61.669179 
L 384.985664 61.669179 
L 386.100549 63.969294 
L 387.215435 62.819236 
L 388.33032 65.119351 
L 389.445205 62.244208 
L 392.78986 63.394265 
L 393.904745 61.094151 
L 395.01963 62.819236 
L 396.134515 63.969294 
L 397.249401 64.544322 
L 400.594056 63.394265 
L 401.708941 62.819236 
L 402.823826 63.394265 
L 403.938711 58.219008 
L 405.053596 62.819236 
L 408.398252 66.844436 
L 409.513137 70.869636 
L 410.628022 66.844436 
L 412.857792 66.844436 
L 416.202448 69.14455 
L 417.317333 67.419465 
L 418.432218 69.14455 
L 419.547103 66.269408 
L 420.661988 68.569522 
L 424.006643 69.14455 
L 425.121528 70.869636 
L 426.236414 72.019693 
L 427.351299 72.594722 
L 428.466184 73.744779 
L 431.810839 75.469864 
L 432.925724 74.319807 
L 434.040609 74.894836 
L 435.155495 77.19495 
L 436.27038 81.22015 
L 439.615035 78.345007 
L 440.72992 78.345007 
L 441.844805 80.645121 
L 444.074575 79.495064 
L 447.419231 80.645121 
L 448.534116 80.645121 
L 449.649001 77.769979 
L 450.763886 80.070093 
L 451.878771 79.495064 
L 456.338312 81.795178 
L 458.568082 81.795178 
L 459.682967 80.645121 
L 463.027622 81.795178 
L 464.142507 77.769979 
L 465.257393 75.469864 
L 466.372278 77.19495 
L 467.487163 78.345007 
L 470.831818 79.495064 
L 473.061588 80.645121 
L 475.291359 80.645121 
L 478.636014 77.769979 
L 479.750899 79.495064 
L 480.865784 80.645121 
L 481.980669 76.044893 
L 483.095554 76.044893 
L 486.44021 73.744779 
L 487.555095 74.319807 
L 488.66998 74.319807 
L 489.784865 73.744779 
L 490.89975 76.044893 
L 494.244406 78.345007 
L 495.359291 77.769979 
L 496.474176 79.495064 
L 498.703946 80.645121 
L 502.048601 81.22015 
L 503.163487 82.945236 
L 504.278372 82.370207 
L 505.393257 84.670321 
L 506.508142 85.24535 
L 509.852797 86.395407 
L 510.967682 88.120492 
L 512.082567 86.970435 
L 513.197453 88.695521 
L 514.312338 91.570664 
L 517.656993 91.570664 
L 518.771878 92.145692 
L 519.886763 89.845578 
L 521.001648 86.395407 
L 522.116533 89.845578 
L 525.461189 91.570664 
L 526.576074 92.720721 
L 527.690959 90.420607 
L 528.805844 90.995635 
L 529.920729 93.295749 
L 533.265385 92.145692 
L 534.38027 93.295749 
L 536.61004 93.870778 
L 537.724925 95.020835 
L 541.06958 95.595863 
L 542.184466 99.621063 
L 543.299351 100.196092 
L 544.414236 95.020835 
L 545.529121 97.320949 
L 548.873776 97.895978 
L 549.988661 97.895978 
L 551.103546 99.046035 
L 553.333317 100.196092 
L 556.677972 100.196092 
L 557.792857 103.071235 
L 558.907742 107.096434 
L 560.022627 107.096434 
L 561.137512 99.621063 
L 564.482168 98.471006 
L 565.597053 99.621063 
L 568.941708 100.77112 
L 572.286364 100.77112 
L 572.286364 100.77112 
" clip-path="url(#p9c01d6deb4)" style="fill: none; stroke: #0070c0; stroke-width: 1.5; stroke-linecap: square"/>
   </g>
   <g id="line2d_19">
    <path d="M 410.628022 189.397592 
L 411.742907 190.26424 
L 412.857792 191.038447 
L 416.202448 191.764386 
L 417.317333 192.422865 
L 418.432218 192.985595 
L 419.547103 193.456727 
L 420.661988 193.86812 
L 424.006643 194.248098 
L 425.121528 194.595404 
L 426.236414 194.928364 
L 427.351299 195.257711 
L 428.466184 195.601217 
L 431.810839 195.976609 
L 432.925724 196.389297 
L 434.040609 196.846027 
L 435.155495 197.342748 
L 436.27038 197.864729 
L 439.615035 198.398631 
L 440.72992 198.929357 
L 441.844805 199.439085 
L 442.95969 199.91381 
L 444.074575 200.335914 
L 447.419231 200.700933 
L 448.534116 200.999398 
L 449.649001 201.212435 
L 450.763886 201.334209 
L 451.878771 201.379908 
L 456.338312 201.356636 
L 457.453197 201.25566 
L 458.568082 201.083564 
L 459.682967 200.817064 
L 463.027622 200.462203 
L 464.142507 200.071855 
L 465.257393 199.662347 
L 466.372278 199.243181 
L 467.487163 198.821754 
L 470.831818 198.453191 
L 471.946703 198.159973 
L 473.061588 197.840144 
L 474.176474 197.478909 
L 475.291359 197.151744 
L 478.636014 196.872114 
L 479.750899 196.612845 
L 480.865784 196.361623 
L 481.980669 196.078741 
L 483.095554 195.76201 
L 486.44021 195.531458 
L 487.555095 195.414288 
L 488.66998 195.330748 
L 489.784865 195.274894 
L 490.89975 195.304411 
L 494.244406 195.448177 
L 495.359291 195.654053 
L 496.474176 195.907554 
L 497.589061 196.244734 
L 498.703946 196.670111 
L 502.048601 197.167882 
L 503.163487 197.72268 
L 504.278372 198.326676 
L 505.393257 198.971405 
L 506.508142 199.649971 
L 509.852797 200.350819 
L 510.967682 201.057681 
L 512.082567 201.760121 
L 513.197453 202.43947 
L 514.312338 203.086471 
L 517.656993 203.705755 
L 518.771878 204.293371 
L 519.886763 204.804619 
L 521.001648 205.225708 
L 522.116533 205.642739 
L 525.461189 206.074543 
L 526.576074 206.488183 
L 527.690959 206.880652 
L 528.805844 207.225295 
L 529.920729 207.527372 
L 533.265385 207.802317 
L 534.38027 208.048851 
L 536.61004 208.271358 
L 537.724925 208.468398 
L 541.06958 208.642542 
L 542.184466 208.797579 
L 543.299351 208.911191 
L 544.414236 208.98027 
L 545.529121 209.024984 
L 548.873776 209.047942 
L 549.988661 209.091773 
L 551.103546 209.166024 
L 552.218432 209.210312 
L 553.333317 209.219558 
L 556.677972 209.223154 
L 557.792857 209.228228 
L 558.907742 209.240471 
L 560.022627 209.256307 
L 561.137512 209.192133 
L 564.482168 209.030954 
L 565.597053 208.901098 
L 568.941708 208.826182 
L 572.286364 208.761813 
" clip-path="url(#p9c01d6deb4)" style="fill: none; stroke: #f27f19; stroke-width: 1.5; stroke-linecap: square"/>
   </g>
   <g id="patch_3">
    <path d="M 39.65 218.158125 
L 39.65 22.318125 
" style="fill: none; stroke: #000000; stroke-width: 0.8; stroke-linejoin: miter; stroke-linecap: square"/>
   </g>
   <g id="patch_4">
    <path d="M 597.65 218.158125 
L 597.65 22.318125 
" style="fill: none; stroke: #000000; stroke-width: 0.8; stroke-linejoin: miter; stroke-linecap: square"/>
   </g>
   <g id="patch_5">
    <path d="M 39.65 218.158125 
L 597.65 218.158125 
" style="fill: none; stroke: #000000; stroke-width: 0.8; stroke-linejoin: miter; stroke-linecap: square"/>
   </g>
   <g id="patch_6">
    <path d="M 39.65 22.318125 
L 597.65 22.318125 
" style="fill: none; stroke: #000000; stroke-width: 0.8; stroke-linejoin: miter; stroke-linecap: square"/>
   </g>
   <g id="text_18">
    <!-- Respective LSTM forecasting results -->
    <g transform="translate(210.521562 16.318125) scale(0.12 -0.12)">
     <defs>
      <path id="DejaVuSans-52" d="M 2841 2188 
Q 3044 2119 3236 1894 
Q 3428 1669 3622 1275 
L 4263 0 
L 3584 0 
L 2988 1197 
Q 2756 1666 2539 1819 
Q 2322 1972 1947 1972 
L 1259 1972 
L 1259 0 
L 628 0 
L 628 4666 
L 2053 4666 
Q 2853 4666 3247 4331 
Q 3641 3997 3641 3322 
Q 3641 2881 3436 2590 
Q 3231 2300 2841 2188 
z
M 1259 4147 
L 1259 2491 
L 2053 2491 
Q 2509 2491 2742 2702 
Q 2975 2913 2975 3322 
Q 2975 3731 2742 3939 
Q 2509 4147 2053 4147 
L 1259 4147 
z
" transform="scale(0.015625)"/>
      <path id="DejaVuSans-65" d="M 3597 1894 
L 3597 1613 
L 953 1613 
Q 991 1019 1311 708 
Q 1631 397 2203 397 
Q 2534 397 2845 478 
Q 3156 559 3463 722 
L 3463 178 
Q 3153 47 2828 -22 
Q 2503 -91 2169 -91 
Q 1331 -91 842 396 
Q 353 884 353 1716 
Q 353 2575 817 3079 
Q 1281 3584 2069 3584 
Q 2775 3584 3186 3129 
Q 3597 2675 3597 1894 
z
M 3022 2063 
Q 3016 2534 2758 2815 
Q 2500 3097 2075 3097 
Q 1594 3097 1305 2825 
Q 1016 2553 972 2059 
L 3022 2063 
z
" transform="scale(0.015625)"/>
      <path id="DejaVuSans-73" d="M 2834 3397 
L 2834 2853 
Q 2591 2978 2328 3040 
Q 2066 3103 1784 3103 
Q 1356 3103 1142 2972 
Q 928 2841 928 2578 
Q 928 2378 1081 2264 
Q 1234 2150 1697 2047 
L 1894 2003 
Q 2506 1872 2764 1633 
Q 3022 1394 3022 966 
Q 3022 478 2636 193 
Q 2250 -91 1575 -91 
Q 1294 -91 989 -36 
Q 684 19 347 128 
L 347 722 
Q 666 556 975 473 
Q 1284 391 1588 391 
Q 1994 391 2212 530 
Q 2431 669 2431 922 
Q 2431 1156 2273 1281 
Q 2116 1406 1581 1522 
L 1381 1569 
Q 847 1681 609 1914 
Q 372 2147 372 2553 
Q 372 3047 722 3315 
Q 1072 3584 1716 3584 
Q 2034 3584 2315 3537 
Q 2597 3491 2834 3397 
z
" transform="scale(0.015625)"/>
      <path id="DejaVuSans-70" d="M 1159 525 
L 1159 -1331 
L 581 -1331 
L 581 3500 
L 1159 3500 
L 1159 2969 
Q 1341 3281 1617 3432 
Q 1894 3584 2278 3584 
Q 2916 3584 3314 3078 
Q 3713 2572 3713 1747 
Q 3713 922 3314 415 
Q 2916 -91 2278 -91 
Q 1894 -91 1617 61 
Q 1341 213 1159 525 
z
M 3116 1747 
Q 3116 2381 2855 2742 
Q 2594 3103 2138 3103 
Q 1681 3103 1420 2742 
Q 1159 2381 1159 1747 
Q 1159 1113 1420 752 
Q 1681 391 2138 391 
Q 2594 391 2855 752 
Q 3116 1113 3116 1747 
z
" transform="scale(0.015625)"/>
      <path id="DejaVuSans-63" d="M 3122 3366 
L 3122 2828 
Q 2878 2963 2633 3030 
Q 2388 3097 2138 3097 
Q 1578 3097 1268 2742 
Q 959 2388 959 1747 
Q 959 1106 1268 751 
Q 1578 397 2138 397 
Q 2388 397 2633 464 
Q 2878 531 3122 666 
L 3122 134 
Q 2881 22 2623 -34 
Q 2366 -91 2075 -91 
Q 1284 -91 818 406 
Q 353 903 353 1747 
Q 353 2603 823 3093 
Q 1294 3584 2113 3584 
Q 2378 3584 2631 3529 
Q 2884 3475 3122 3366 
z
" transform="scale(0.015625)"/>
      <path id="DejaVuSans-74" d="M 1172 4494 
L 1172 3500 
L 2356 3500 
L 2356 3053 
L 1172 3053 
L 1172 1153 
Q 1172 725 1289 603 
Q 1406 481 1766 481 
L 2356 481 
L 2356 0 
L 1766 0 
Q 1100 0 847 248 
Q 594 497 594 1153 
L 594 3053 
L 172 3053 
L 172 3500 
L 594 3500 
L 594 4494 
L 1172 4494 
z
" transform="scale(0.015625)"/>
      <path id="DejaVuSans-69" d="M 603 3500 
L 1178 3500 
L 1178 0 
L 603 0 
L 603 3500 
z
M 603 4863 
L 1178 4863 
L 1178 4134 
L 603 4134 
L 603 4863 
z
" transform="scale(0.015625)"/>
      <path id="DejaVuSans-76" d="M 191 3500 
L 800 3500 
L 1894 563 
L 2988 3500 
L 3597 3500 
L 2284 0 
L 1503 0 
L 191 3500 
z
" transform="scale(0.015625)"/>
      <path id="DejaVuSans-20" transform="scale(0.015625)"/>
      <path id="DejaVuSans-4c" d="M 628 4666 
L 1259 4666 
L 1259 531 
L 3531 531 
L 3531 0 
L 628 0 
L 628 4666 
z
" transform="scale(0.015625)"/>
      <path id="DejaVuSans-53" d="M 3425 4513 
L 3425 3897 
Q 3066 4069 2747 4153 
Q 2428 4238 2131 4238 
Q 1616 4238 1336 4038 
Q 1056 3838 1056 3469 
Q 1056 3159 1242 3001 
Q 1428 2844 1947 2747 
L 2328 2669 
Q 3034 2534 3370 2195 
Q 3706 1856 3706 1288 
Q 3706 609 3251 259 
Q 2797 -91 1919 -91 
Q 1588 -91 1214 -16 
Q 841 59 441 206 
L 441 856 
Q 825 641 1194 531 
Q 1563 422 1919 422 
Q 2459 422 2753 634 
Q 3047 847 3047 1241 
Q 3047 1584 2836 1778 
Q 2625 1972 2144 2069 
L 1759 2144 
Q 1053 2284 737 2584 
Q 422 2884 422 3419 
Q 422 4038 858 4394 
Q 1294 4750 2059 4750 
Q 2388 4750 2728 4690 
Q 3069 4631 3425 4513 
z
" transform="scale(0.015625)"/>
      <path id="DejaVuSans-54" d="M -19 4666 
L 3928 4666 
L 3928 4134 
L 2272 4134 
L 2272 0 
L 1638 0 
L 1638 4134 
L -19 4134 
L -19 4666 
z
" transform="scale(0.015625)"/>
      <path id="DejaVuSans-4d" d="M 628 4666 
L 1569 4666 
L 2759 1491 
L 3956 4666 
L 4897 4666 
L 4897 0 
L 4281 0 
L 4281 4097 
L 3078 897 
L 2444 897 
L 1241 4097 
L 1241 0 
L 628 0 
L 628 4666 
z
" transform="scale(0.015625)"/>
      <path id="DejaVuSans-66" d="M 2375 4863 
L 2375 4384 
L 1825 4384 
Q 1516 4384 1395 4259 
Q 1275 4134 1275 3809 
L 1275 3500 
L 2222 3500 
L 2222 3053 
L 1275 3053 
L 1275 0 
L 697 0 
L 697 3053 
L 147 3053 
L 147 3500 
L 697 3500 
L 697 3744 
Q 697 4328 969 4595 
Q 1241 4863 1831 4863 
L 2375 4863 
z
" transform="scale(0.015625)"/>
      <path id="DejaVuSans-6f" d="M 1959 3097 
Q 1497 3097 1228 2736 
Q 959 2375 959 1747 
Q 959 1119 1226 758 
Q 1494 397 1959 397 
Q 2419 397 2687 759 
Q 2956 1122 2956 1747 
Q 2956 2369 2687 2733 
Q 2419 3097 1959 3097 
z
M 1959 3584 
Q 2709 3584 3137 3096 
Q 3566 2609 3566 1747 
Q 3566 888 3137 398 
Q 2709 -91 1959 -91 
Q 1206 -91 779 398 
Q 353 888 353 1747 
Q 353 2609 779 3096 
Q 1206 3584 1959 3584 
z
" transform="scale(0.015625)"/>
      <path id="DejaVuSans-72" d="M 2631 2963 
Q 2534 3019 2420 3045 
Q 2306 3072 2169 3072 
Q 1681 3072 1420 2755 
Q 1159 2438 1159 1844 
L 1159 0 
L 581 0 
L 581 3500 
L 1159 3500 
L 1159 2956 
Q 1341 3275 1631 3429 
Q 1922 3584 2338 3584 
Q 2397 3584 2469 3576 
Q 2541 3569 2628 3553 
L 2631 2963 
z
" transform="scale(0.015625)"/>
      <path id="DejaVuSans-61" d="M 2194 1759 
Q 1497 1759 1228 1600 
Q 959 1441 959 1056 
Q 959 750 1161 570 
Q 1363 391 1709 391 
Q 2188 391 2477 730 
Q 2766 1069 2766 1631 
L 2766 1759 
L 2194 1759 
z
M 3341 1997 
L 3341 0 
L 2766 0 
L 2766 531 
Q 2569 213 2275 61 
Q 1981 -91 1556 -91 
Q 1019 -91 701 211 
Q 384 513 384 1019 
Q 384 1609 779 1909 
Q 1175 2209 1959 2209 
L 2766 2209 
L 2766 2266 
Q 2766 2663 2505 2880 
Q 2244 3097 1772 3097 
Q 1472 3097 1187 3025 
Q 903 2953 641 2809 
L 641 3341 
Q 956 3463 1253 3523 
Q 1550 3584 1831 3584 
Q 2591 3584 2966 3190 
Q 3341 2797 3341 1997 
z
" transform="scale(0.015625)"/>
      <path id="DejaVuSans-6e" d="M 3513 2113 
L 3513 0 
L 2938 0 
L 2938 2094 
Q 2938 2591 2744 2837 
Q 2550 3084 2163 3084 
Q 1697 3084 1428 2787 
Q 1159 2491 1159 1978 
L 1159 0 
L 581 0 
L 581 3500 
L 1159 3500 
L 1159 2956 
Q 1366 3272 1645 3428 
Q 1925 3584 2291 3584 
Q 2894 3584 3203 3211 
Q 3513 2838 3513 2113 
z
" transform="scale(0.015625)"/>
      <path id="DejaVuSans-67" d="M 2906 1791 
Q 2906 2416 2648 2759 
Q 2391 3103 1925 3103 
Q 1463 3103 1205 2759 
Q 947 2416 947 1791 
Q 947 1169 1205 825 
Q 1463 481 1925 481 
Q 2391 481 2648 825 
Q 2906 1169 2906 1791 
z
M 3481 434 
Q 3481 -459 3084 -895 
Q 2688 -1331 1869 -1331 
Q 1566 -1331 1297 -1286 
Q 1028 -1241 775 -1147 
L 775 -588 
Q 1028 -725 1275 -790 
Q 1522 -856 1778 -856 
Q 2344 -856 2625 -561 
Q 2906 -266 2906 331 
L 2906 616 
Q 2728 306 2450 153 
Q 2172 0 1784 0 
Q 1141 0 747 490 
Q 353 981 353 1791 
Q 353 2603 747 3093 
Q 1141 3584 1784 3584 
Q 2172 3584 2450 3431 
Q 2728 3278 2906 2969 
L 2906 3500 
L 3481 3500 
L 3481 434 
z
" transform="scale(0.015625)"/>
      <path id="DejaVuSans-75" d="M 544 1381 
L 544 3500 
L 1119 3500 
L 1119 1403 
Q 1119 906 1312 657 
Q 1506 409 1894 409 
Q 2359 409 2629 706 
Q 2900 1003 2900 1516 
L 2900 3500 
L 3475 3500 
L 3475 0 
L 2900 0 
L 2900 538 
Q 2691 219 2414 64 
Q 2138 -91 1772 -91 
Q 1169 -91 856 284 
Q 544 659 544 1381 
z
M 1991 3584 
L 1991 3584 
z
" transform="scale(0.015625)"/>
      <path id="DejaVuSans-6c" d="M 603 4863 
L 1178 4863 
L 1178 0 
L 603 0 
L 603 4863 
z
" transform="scale(0.015625)"/>
     </defs>
     <use xlink:href="#DejaVuSans-52"/>
     <use xlink:href="#DejaVuSans-65" transform="translate(64.982422 0)"/>
     <use xlink:href="#DejaVuSans-73" transform="translate(126.505859 0)"/>
     <use xlink:href="#DejaVuSans-70" transform="translate(178.605469 0)"/>
     <use xlink:href="#DejaVuSans-65" transform="translate(242.082031 0)"/>
     <use xlink:href="#DejaVuSans-63" transform="translate(303.605469 0)"/>
     <use xlink:href="#DejaVuSans-74" transform="translate(358.585938 0)"/>
     <use xlink:href="#DejaVuSans-69" transform="translate(397.794922 0)"/>
     <use xlink:href="#DejaVuSans-76" transform="translate(425.578125 0)"/>
     <use xlink:href="#DejaVuSans-65" transform="translate(484.757812 0)"/>
     <use xlink:href="#DejaVuSans-20" transform="translate(546.28125 0)"/>
     <use xlink:href="#DejaVuSans-4c" transform="translate(578.068359 0)"/>
     <use xlink:href="#DejaVuSans-53" transform="translate(633.78125 0)"/>
     <use xlink:href="#DejaVuSans-54" transform="translate(697.257812 0)"/>
     <use xlink:href="#DejaVuSans-4d" transform="translate(758.341797 0)"/>
     <use xlink:href="#DejaVuSans-20" transform="translate(844.621094 0)"/>
     <use xlink:href="#DejaVuSans-66" transform="translate(876.408203 0)"/>
     <use xlink:href="#DejaVuSans-6f" transform="translate(911.613281 0)"/>
     <use xlink:href="#DejaVuSans-72" transform="translate(972.794922 0)"/>
     <use xlink:href="#DejaVuSans-65" transform="translate(1011.658203 0)"/>
     <use xlink:href="#DejaVuSans-63" transform="translate(1073.181641 0)"/>
     <use xlink:href="#DejaVuSans-61" transform="translate(1128.162109 0)"/>
     <use xlink:href="#DejaVuSans-73" transform="translate(1189.441406 0)"/>
     <use xlink:href="#DejaVuSans-74" transform="translate(1241.541016 0)"/>
     <use xlink:href="#DejaVuSans-69" transform="translate(1280.75 0)"/>
     <use xlink:href="#DejaVuSans-6e" transform="translate(1308.533203 0)"/>
     <use xlink:href="#DejaVuSans-67" transform="translate(1371.912109 0)"/>
     <use xlink:href="#DejaVuSans-20" transform="translate(1435.388672 0)"/>
     <use xlink:href="#DejaVuSans-72" transform="translate(1467.175781 0)"/>
     <use xlink:href="#DejaVuSans-65" transform="translate(1506.039062 0)"/>
     <use xlink:href="#DejaVuSans-73" transform="translate(1567.5625 0)"/>
     <use xlink:href="#DejaVuSans-75" transform="translate(1619.662109 0)"/>
     <use xlink:href="#DejaVuSans-6c" transform="translate(1683.041016 0)"/>
     <use xlink:href="#DejaVuSans-74" transform="translate(1710.824219 0)"/>
     <use xlink:href="#DejaVuSans-73" transform="translate(1750.033203 0)"/>
    </g>
   </g>
   <g id="legend_1">
    <g id="patch_7">
     <path d="M 475.179688 59.674375 
L 590.65 59.674375 
Q 592.65 59.674375 592.65 57.674375 
L 592.65 29.318125 
Q 592.65 27.318125 590.65 27.318125 
L 475.179688 27.318125 
Q 473.179688 27.318125 473.179688 29.318125 
L 473.179688 57.674375 
Q 473.179688 59.674375 475.179688 59.674375 
z
" style="fill: #ffffff; opacity: 0.8; stroke: #cccccc; stroke-linejoin: miter"/>
    </g>
    <g id="line2d_20">
     <path d="M 477.179688 35.416562 
L 487.179688 35.416562 
L 497.179688 35.416562 
" style="fill: none; stroke: #0070c0; stroke-width: 1.5; stroke-linecap: square"/>
    </g>
    <g id="text_19">
     <!-- Original data -->
     <g transform="translate(505.179688 38.916562) scale(0.1 -0.1)">
      <defs>
       <path id="DejaVuSans-4f" d="M 2522 4238 
Q 1834 4238 1429 3725 
Q 1025 3213 1025 2328 
Q 1025 1447 1429 934 
Q 1834 422 2522 422 
Q 3209 422 3611 934 
Q 4013 1447 4013 2328 
Q 4013 3213 3611 3725 
Q 3209 4238 2522 4238 
z
M 2522 4750 
Q 3503 4750 4090 4092 
Q 4678 3434 4678 2328 
Q 4678 1225 4090 567 
Q 3503 -91 2522 -91 
Q 1538 -91 948 565 
Q 359 1222 359 2328 
Q 359 3434 948 4092 
Q 1538 4750 2522 4750 
z
" transform="scale(0.015625)"/>
       <path id="DejaVuSans-64" d="M 2906 2969 
L 2906 4863 
L 3481 4863 
L 3481 0 
L 2906 0 
L 2906 525 
Q 2725 213 2448 61 
Q 2172 -91 1784 -91 
Q 1150 -91 751 415 
Q 353 922 353 1747 
Q 353 2572 751 3078 
Q 1150 3584 1784 3584 
Q 2172 3584 2448 3432 
Q 2725 3281 2906 2969 
z
M 947 1747 
Q 947 1113 1208 752 
Q 1469 391 1925 391 
Q 2381 391 2643 752 
Q 2906 1113 2906 1747 
Q 2906 2381 2643 2742 
Q 2381 3103 1925 3103 
Q 1469 3103 1208 2742 
Q 947 2381 947 1747 
z
" transform="scale(0.015625)"/>
      </defs>
      <use xlink:href="#DejaVuSans-4f"/>
      <use xlink:href="#DejaVuSans-72" transform="translate(78.710938 0)"/>
      <use xlink:href="#DejaVuSans-69" transform="translate(119.824219 0)"/>
      <use xlink:href="#DejaVuSans-67" transform="translate(147.607422 0)"/>
      <use xlink:href="#DejaVuSans-69" transform="translate(211.083984 0)"/>
      <use xlink:href="#DejaVuSans-6e" transform="translate(238.867188 0)"/>
      <use xlink:href="#DejaVuSans-61" transform="translate(302.246094 0)"/>
      <use xlink:href="#DejaVuSans-6c" transform="translate(363.525391 0)"/>
      <use xlink:href="#DejaVuSans-20" transform="translate(391.308594 0)"/>
      <use xlink:href="#DejaVuSans-64" transform="translate(423.095703 0)"/>
      <use xlink:href="#DejaVuSans-61" transform="translate(486.572266 0)"/>
      <use xlink:href="#DejaVuSans-74" transform="translate(547.851562 0)"/>
      <use xlink:href="#DejaVuSans-61" transform="translate(587.060547 0)"/>
     </g>
    </g>
    <g id="line2d_21">
     <path d="M 477.179688 50.094687 
L 487.179688 50.094687 
L 497.179688 50.094687 
" style="fill: none; stroke: #f27f19; stroke-width: 1.5; stroke-linecap: square"/>
    </g>
    <g id="text_20">
     <!-- Forecasting data -->
     <g transform="translate(505.179688 53.594687) scale(0.1 -0.1)">
      <defs>
       <path id="DejaVuSans-46" d="M 628 4666 
L 3309 4666 
L 3309 4134 
L 1259 4134 
L 1259 2759 
L 3109 2759 
L 3109 2228 
L 1259 2228 
L 1259 0 
L 628 0 
L 628 4666 
z
" transform="scale(0.015625)"/>
      </defs>
      <use xlink:href="#DejaVuSans-46"/>
      <use xlink:href="#DejaVuSans-6f" transform="translate(53.894531 0)"/>
      <use xlink:href="#DejaVuSans-72" transform="translate(115.076172 0)"/>
      <use xlink:href="#DejaVuSans-65" transform="translate(153.939453 0)"/>
      <use xlink:href="#DejaVuSans-63" transform="translate(215.462891 0)"/>
      <use xlink:href="#DejaVuSans-61" transform="translate(270.443359 0)"/>
      <use xlink:href="#DejaVuSans-73" transform="translate(331.722656 0)"/>
      <use xlink:href="#DejaVuSans-74" transform="translate(383.822266 0)"/>
      <use xlink:href="#DejaVuSans-69" transform="translate(423.03125 0)"/>
      <use xlink:href="#DejaVuSans-6e" transform="translate(450.814453 0)"/>
      <use xlink:href="#DejaVuSans-67" transform="translate(514.193359 0)"/>
      <use xlink:href="#DejaVuSans-20" transform="translate(577.669922 0)"/>
      <use xlink:href="#DejaVuSans-64" transform="translate(609.457031 0)"/>
      <use xlink:href="#DejaVuSans-61" transform="translate(672.933594 0)"/>
      <use xlink:href="#DejaVuSans-74" transform="translate(734.212891 0)"/>
      <use xlink:href="#DejaVuSans-61" transform="translate(773.421875 0)"/>
     </g>
    </g>
   </g>
  </g>
 </g>
 <defs>
  <clipPath id="p9c01d6deb4">
   <rect x="39.65" y="22.318125" width="558" height="195.84"/>
  </clipPath>
 </defs>
</svg>
