<?xml version="1.0" encoding="utf-8" standalone="no"?>
<!DOCTYPE svg PUBLIC "-//W3C//DTD SVG 1.1//EN"
  "http://www.w3.org/Graphics/SVG/1.1/DTD/svg11.dtd">
<svg xmlns:xlink="http://www.w3.org/1999/xlink" width="1144.532813pt" height="424.398125pt" viewBox="0 0 1144.532813 424.398125" xmlns="http://www.w3.org/2000/svg" version="1.1">
 <metadata>
  <rdf:RDF xmlns:dc="http://purl.org/dc/elements/1.1/" xmlns:cc="http://creativecommons.org/ns#" xmlns:rdf="http://www.w3.org/1999/02/22-rdf-syntax-ns#">
   <cc:Work>
    <dc:type rdf:resource="http://purl.org/dc/dcmitype/StillImage"/>
    <dc:date>2025-04-14T01:22:22.645164</dc:date>
    <dc:format>image/svg+xml</dc:format>
    <dc:creator>
     <cc:Agent>
      <dc:title>Matplotlib v3.10.1, https://matplotlib.org/</dc:title>
     </cc:Agent>
    </dc:creator>
   </cc:Work>
  </rdf:RDF>
 </metadata>
 <defs>
  <style type="text/css">*{stroke-linejoin: round; stroke-linecap: butt}</style>
 </defs>
 <g id="figure_1">
  <g id="patch_1">
   <path d="M 0 424.398125 
L 1144.532813 424.398125 
L 1144.532813 0 
L 0 0 
z
" style="fill: #ffffff"/>
  </g>
  <g id="axes_1">
   <g id="patch_2">
    <path d="M 48.982813 84.62 
L 1137.332813 84.62 
L 1137.332813 7.2 
L 48.982813 7.2 
z
" style="fill: #ffffff"/>
   </g>
   <g id="matplotlib.axis_1">
    <g id="xtick_1">
     <g id="line2d_1">
      <defs>
       <path id="m438fa58460" d="M 0 0 
L 0 3.5 
" style="stroke: #000000; stroke-width: 0.8"/>
      </defs>
      <g>
       <use xlink:href="#m438fa58460" x="98.453267" y="84.62" style="stroke: #000000; stroke-width: 0.8"/>
      </g>
     </g>
     <g id="text_1">
      <!-- 0 -->
      <g transform="translate(95.272017 99.218437) scale(0.1 -0.1)">
       <defs>
        <path id="DejaVuSans-30" d="M 2034 4250 
Q 1547 4250 1301 3770 
Q 1056 3291 1056 2328 
Q 1056 1369 1301 889 
Q 1547 409 2034 409 
Q 2525 409 2770 889 
Q 3016 1369 3016 2328 
Q 3016 3291 2770 3770 
Q 2525 4250 2034 4250 
z
M 2034 4750 
Q 2819 4750 3233 4129 
Q 3647 3509 3647 2328 
Q 3647 1150 3233 529 
Q 2819 -91 2034 -91 
Q 1250 -91 836 529 
Q 422 1150 422 2328 
Q 422 3509 836 4129 
Q 1250 4750 2034 4750 
z
" transform="scale(0.015625)"/>
       </defs>
       <use xlink:href="#DejaVuSans-30"/>
      </g>
     </g>
    </g>
    <g id="xtick_2">
     <g id="line2d_2">
      <g>
       <use xlink:href="#m438fa58460" x="301.201032" y="84.62" style="stroke: #000000; stroke-width: 0.8"/>
      </g>
     </g>
     <g id="text_2">
      <!-- 100 -->
      <g transform="translate(291.657282 99.218437) scale(0.1 -0.1)">
       <defs>
        <path id="DejaVuSans-31" d="M 794 531 
L 1825 531 
L 1825 4091 
L 703 3866 
L 703 4441 
L 1819 4666 
L 2450 4666 
L 2450 531 
L 3481 531 
L 3481 0 
L 794 0 
L 794 531 
z
" transform="scale(0.015625)"/>
       </defs>
       <use xlink:href="#DejaVuSans-31"/>
       <use xlink:href="#DejaVuSans-30" transform="translate(63.623047 0)"/>
       <use xlink:href="#DejaVuSans-30" transform="translate(127.246094 0)"/>
      </g>
     </g>
    </g>
    <g id="xtick_3">
     <g id="line2d_3">
      <g>
       <use xlink:href="#m438fa58460" x="503.948796" y="84.62" style="stroke: #000000; stroke-width: 0.8"/>
      </g>
     </g>
     <g id="text_3">
      <!-- 200 -->
      <g transform="translate(494.405046 99.218437) scale(0.1 -0.1)">
       <defs>
        <path id="DejaVuSans-32" d="M 1228 531 
L 3431 531 
L 3431 0 
L 469 0 
L 469 531 
Q 828 903 1448 1529 
Q 2069 2156 2228 2338 
Q 2531 2678 2651 2914 
Q 2772 3150 2772 3378 
Q 2772 3750 2511 3984 
Q 2250 4219 1831 4219 
Q 1534 4219 1204 4116 
Q 875 4013 500 3803 
L 500 4441 
Q 881 4594 1212 4672 
Q 1544 4750 1819 4750 
Q 2544 4750 2975 4387 
Q 3406 4025 3406 3419 
Q 3406 3131 3298 2873 
Q 3191 2616 2906 2266 
Q 2828 2175 2409 1742 
Q 1991 1309 1228 531 
z
" transform="scale(0.015625)"/>
       </defs>
       <use xlink:href="#DejaVuSans-32"/>
       <use xlink:href="#DejaVuSans-30" transform="translate(63.623047 0)"/>
       <use xlink:href="#DejaVuSans-30" transform="translate(127.246094 0)"/>
      </g>
     </g>
    </g>
    <g id="xtick_4">
     <g id="line2d_4">
      <g>
       <use xlink:href="#m438fa58460" x="706.696561" y="84.62" style="stroke: #000000; stroke-width: 0.8"/>
      </g>
     </g>
     <g id="text_4">
      <!-- 300 -->
      <g transform="translate(697.152811 99.218437) scale(0.1 -0.1)">
       <defs>
        <path id="DejaVuSans-33" d="M 2597 2516 
Q 3050 2419 3304 2112 
Q 3559 1806 3559 1356 
Q 3559 666 3084 287 
Q 2609 -91 1734 -91 
Q 1441 -91 1130 -33 
Q 819 25 488 141 
L 488 750 
Q 750 597 1062 519 
Q 1375 441 1716 441 
Q 2309 441 2620 675 
Q 2931 909 2931 1356 
Q 2931 1769 2642 2001 
Q 2353 2234 1838 2234 
L 1294 2234 
L 1294 2753 
L 1863 2753 
Q 2328 2753 2575 2939 
Q 2822 3125 2822 3475 
Q 2822 3834 2567 4026 
Q 2313 4219 1838 4219 
Q 1578 4219 1281 4162 
Q 984 4106 628 3988 
L 628 4550 
Q 988 4650 1302 4700 
Q 1616 4750 1894 4750 
Q 2613 4750 3031 4423 
Q 3450 4097 3450 3541 
Q 3450 3153 3228 2886 
Q 3006 2619 2597 2516 
z
" transform="scale(0.015625)"/>
       </defs>
       <use xlink:href="#DejaVuSans-33"/>
       <use xlink:href="#DejaVuSans-30" transform="translate(63.623047 0)"/>
       <use xlink:href="#DejaVuSans-30" transform="translate(127.246094 0)"/>
      </g>
     </g>
    </g>
    <g id="xtick_5">
     <g id="line2d_5">
      <g>
       <use xlink:href="#m438fa58460" x="909.444325" y="84.62" style="stroke: #000000; stroke-width: 0.8"/>
      </g>
     </g>
     <g id="text_5">
      <!-- 400 -->
      <g transform="translate(899.900575 99.218437) scale(0.1 -0.1)">
       <defs>
        <path id="DejaVuSans-34" d="M 2419 4116 
L 825 1625 
L 2419 1625 
L 2419 4116 
z
M 2253 4666 
L 3047 4666 
L 3047 1625 
L 3713 1625 
L 3713 1100 
L 3047 1100 
L 3047 0 
L 2419 0 
L 2419 1100 
L 313 1100 
L 313 1709 
L 2253 4666 
z
" transform="scale(0.015625)"/>
       </defs>
       <use xlink:href="#DejaVuSans-34"/>
       <use xlink:href="#DejaVuSans-30" transform="translate(63.623047 0)"/>
       <use xlink:href="#DejaVuSans-30" transform="translate(127.246094 0)"/>
      </g>
     </g>
    </g>
    <g id="xtick_6">
     <g id="line2d_6">
      <g>
       <use xlink:href="#m438fa58460" x="1112.19209" y="84.62" style="stroke: #000000; stroke-width: 0.8"/>
      </g>
     </g>
     <g id="text_6">
      <!-- 500 -->
      <g transform="translate(1102.64834 99.218437) scale(0.1 -0.1)">
       <defs>
        <path id="DejaVuSans-35" d="M 691 4666 
L 3169 4666 
L 3169 4134 
L 1269 4134 
L 1269 2991 
Q 1406 3038 1543 3061 
Q 1681 3084 1819 3084 
Q 2600 3084 3056 2656 
Q 3513 2228 3513 1497 
Q 3513 744 3044 326 
Q 2575 -91 1722 -91 
Q 1428 -91 1123 -41 
Q 819 9 494 109 
L 494 744 
Q 775 591 1075 516 
Q 1375 441 1709 441 
Q 2250 441 2565 725 
Q 2881 1009 2881 1497 
Q 2881 1984 2565 2268 
Q 2250 2553 1709 2553 
Q 1456 2553 1204 2497 
Q 953 2441 691 2322 
L 691 4666 
z
" transform="scale(0.015625)"/>
       </defs>
       <use xlink:href="#DejaVuSans-35"/>
       <use xlink:href="#DejaVuSans-30" transform="translate(63.623047 0)"/>
       <use xlink:href="#DejaVuSans-30" transform="translate(127.246094 0)"/>
      </g>
     </g>
    </g>
   </g>
   <g id="matplotlib.axis_2">
    <g id="ytick_1">
     <g id="line2d_7">
      <defs>
       <path id="m42577dcc2a" d="M 0 0 
L -3.5 0 
" style="stroke: #000000; stroke-width: 0.8"/>
      </defs>
      <g>
       <use xlink:href="#m42577dcc2a" x="48.982813" y="58.701941" style="stroke: #000000; stroke-width: 0.8"/>
      </g>
     </g>
     <g id="text_7">
      <!-- 200 -->
      <g transform="translate(22.895313 62.50116) scale(0.1 -0.1)">
       <use xlink:href="#DejaVuSans-32"/>
       <use xlink:href="#DejaVuSans-30" transform="translate(63.623047 0)"/>
       <use xlink:href="#DejaVuSans-30" transform="translate(127.246094 0)"/>
      </g>
     </g>
    </g>
    <g id="ytick_2">
     <g id="line2d_8">
      <g>
       <use xlink:href="#m42577dcc2a" x="48.982813" y="13.609063" style="stroke: #000000; stroke-width: 0.8"/>
      </g>
     </g>
     <g id="text_8">
      <!-- 400 -->
      <g transform="translate(22.895313 17.408282) scale(0.1 -0.1)">
       <use xlink:href="#DejaVuSans-34"/>
       <use xlink:href="#DejaVuSans-30" transform="translate(63.623047 0)"/>
       <use xlink:href="#DejaVuSans-30" transform="translate(127.246094 0)"/>
      </g>
     </g>
    </g>
    <g id="text_9">
     <!-- Original data -->
     <g transform="translate(14.798438 78.327187) rotate(-90) scale(0.1 -0.1)">
      <defs>
       <path id="DejaVuSans-4f" d="M 2522 4238 
Q 1834 4238 1429 3725 
Q 1025 3213 1025 2328 
Q 1025 1447 1429 934 
Q 1834 422 2522 422 
Q 3209 422 3611 934 
Q 4013 1447 4013 2328 
Q 4013 3213 3611 3725 
Q 3209 4238 2522 4238 
z
M 2522 4750 
Q 3503 4750 4090 4092 
Q 4678 3434 4678 2328 
Q 4678 1225 4090 567 
Q 3503 -91 2522 -91 
Q 1538 -91 948 565 
Q 359 1222 359 2328 
Q 359 3434 948 4092 
Q 1538 4750 2522 4750 
z
" transform="scale(0.015625)"/>
       <path id="DejaVuSans-72" d="M 2631 2963 
Q 2534 3019 2420 3045 
Q 2306 3072 2169 3072 
Q 1681 3072 1420 2755 
Q 1159 2438 1159 1844 
L 1159 0 
L 581 0 
L 581 3500 
L 1159 3500 
L 1159 2956 
Q 1341 3275 1631 3429 
Q 1922 3584 2338 3584 
Q 2397 3584 2469 3576 
Q 2541 3569 2628 3553 
L 2631 2963 
z
" transform="scale(0.015625)"/>
       <path id="DejaVuSans-69" d="M 603 3500 
L 1178 3500 
L 1178 0 
L 603 0 
L 603 3500 
z
M 603 4863 
L 1178 4863 
L 1178 4134 
L 603 4134 
L 603 4863 
z
" transform="scale(0.015625)"/>
       <path id="DejaVuSans-67" d="M 2906 1791 
Q 2906 2416 2648 2759 
Q 2391 3103 1925 3103 
Q 1463 3103 1205 2759 
Q 947 2416 947 1791 
Q 947 1169 1205 825 
Q 1463 481 1925 481 
Q 2391 481 2648 825 
Q 2906 1169 2906 1791 
z
M 3481 434 
Q 3481 -459 3084 -895 
Q 2688 -1331 1869 -1331 
Q 1566 -1331 1297 -1286 
Q 1028 -1241 775 -1147 
L 775 -588 
Q 1028 -725 1275 -790 
Q 1522 -856 1778 -856 
Q 2344 -856 2625 -561 
Q 2906 -266 2906 331 
L 2906 616 
Q 2728 306 2450 153 
Q 2172 0 1784 0 
Q 1141 0 747 490 
Q 353 981 353 1791 
Q 353 2603 747 3093 
Q 1141 3584 1784 3584 
Q 2172 3584 2450 3431 
Q 2728 3278 2906 2969 
L 2906 3500 
L 3481 3500 
L 3481 434 
z
" transform="scale(0.015625)"/>
       <path id="DejaVuSans-6e" d="M 3513 2113 
L 3513 0 
L 2938 0 
L 2938 2094 
Q 2938 2591 2744 2837 
Q 2550 3084 2163 3084 
Q 1697 3084 1428 2787 
Q 1159 2491 1159 1978 
L 1159 0 
L 581 0 
L 581 3500 
L 1159 3500 
L 1159 2956 
Q 1366 3272 1645 3428 
Q 1925 3584 2291 3584 
Q 2894 3584 3203 3211 
Q 3513 2838 3513 2113 
z
" transform="scale(0.015625)"/>
       <path id="DejaVuSans-61" d="M 2194 1759 
Q 1497 1759 1228 1600 
Q 959 1441 959 1056 
Q 959 750 1161 570 
Q 1363 391 1709 391 
Q 2188 391 2477 730 
Q 2766 1069 2766 1631 
L 2766 1759 
L 2194 1759 
z
M 3341 1997 
L 3341 0 
L 2766 0 
L 2766 531 
Q 2569 213 2275 61 
Q 1981 -91 1556 -91 
Q 1019 -91 701 211 
Q 384 513 384 1019 
Q 384 1609 779 1909 
Q 1175 2209 1959 2209 
L 2766 2209 
L 2766 2266 
Q 2766 2663 2505 2880 
Q 2244 3097 1772 3097 
Q 1472 3097 1187 3025 
Q 903 2953 641 2809 
L 641 3341 
Q 956 3463 1253 3523 
Q 1550 3584 1831 3584 
Q 2591 3584 2966 3190 
Q 3341 2797 3341 1997 
z
" transform="scale(0.015625)"/>
       <path id="DejaVuSans-6c" d="M 603 4863 
L 1178 4863 
L 1178 0 
L 603 0 
L 603 4863 
z
" transform="scale(0.015625)"/>
       <path id="DejaVuSans-20" transform="scale(0.015625)"/>
       <path id="DejaVuSans-64" d="M 2906 2969 
L 2906 4863 
L 3481 4863 
L 3481 0 
L 2906 0 
L 2906 525 
Q 2725 213 2448 61 
Q 2172 -91 1784 -91 
Q 1150 -91 751 415 
Q 353 922 353 1747 
Q 353 2572 751 3078 
Q 1150 3584 1784 3584 
Q 2172 3584 2448 3432 
Q 2725 3281 2906 2969 
z
M 947 1747 
Q 947 1113 1208 752 
Q 1469 391 1925 391 
Q 2381 391 2643 752 
Q 2906 1113 2906 1747 
Q 2906 2381 2643 2742 
Q 2381 3103 1925 3103 
Q 1469 3103 1208 2742 
Q 947 2381 947 1747 
z
" transform="scale(0.015625)"/>
       <path id="DejaVuSans-74" d="M 1172 4494 
L 1172 3500 
L 2356 3500 
L 2356 3053 
L 1172 3053 
L 1172 1153 
Q 1172 725 1289 603 
Q 1406 481 1766 481 
L 2356 481 
L 2356 0 
L 1766 0 
Q 1100 0 847 248 
Q 594 497 594 1153 
L 594 3053 
L 172 3053 
L 172 3500 
L 594 3500 
L 594 4494 
L 1172 4494 
z
" transform="scale(0.015625)"/>
      </defs>
      <use xlink:href="#DejaVuSans-4f"/>
      <use xlink:href="#DejaVuSans-72" transform="translate(78.710938 0)"/>
      <use xlink:href="#DejaVuSans-69" transform="translate(119.824219 0)"/>
      <use xlink:href="#DejaVuSans-67" transform="translate(147.607422 0)"/>
      <use xlink:href="#DejaVuSans-69" transform="translate(211.083984 0)"/>
      <use xlink:href="#DejaVuSans-6e" transform="translate(238.867188 0)"/>
      <use xlink:href="#DejaVuSans-61" transform="translate(302.246094 0)"/>
      <use xlink:href="#DejaVuSans-6c" transform="translate(363.525391 0)"/>
      <use xlink:href="#DejaVuSans-20" transform="translate(391.308594 0)"/>
      <use xlink:href="#DejaVuSans-64" transform="translate(423.095703 0)"/>
      <use xlink:href="#DejaVuSans-61" transform="translate(486.572266 0)"/>
      <use xlink:href="#DejaVuSans-74" transform="translate(547.851562 0)"/>
      <use xlink:href="#DejaVuSans-61" transform="translate(587.060547 0)"/>
     </g>
    </g>
   </g>
   <g id="line2d_9">
    <path d="M 98.453267 63.143125 
L 106.563178 61.564415 
L 110.618133 63.143125 
L 112.645611 62.748448 
L 116.700566 62.748448 
L 118.728043 63.537794 
L 120.755521 63.143118 
L 122.782999 63.143124 
L 124.810476 63.537794 
L 126.837954 63.537796 
L 128.865432 64.327154 
L 130.892909 63.5378 
L 132.920387 63.932473 
L 134.947865 64.919169 
L 136.975342 64.327154 
L 139.00282 63.932475 
L 141.030298 64.32715 
L 143.057775 64.32715 
L 145.085253 62.353766 
L 147.112731 63.932473 
L 149.140208 64.327154 
L 151.167686 63.932477 
L 153.195163 63.932473 
L 155.222641 64.327151 
L 157.250119 64.524486 
L 159.277596 64.919167 
L 161.305074 64.919162 
L 163.332552 65.116505 
L 165.360029 65.511182 
L 167.387507 65.511182 
L 169.414985 64.919167 
L 171.442462 65.116506 
L 173.46994 65.1165 
L 175.497418 65.313845 
L 177.524895 65.313841 
L 179.552373 66.300536 
L 183.607328 70.2473 
L 185.634806 69.655287 
L 187.662283 69.655288 
L 189.689761 67.879245 
L 191.717239 67.287224 
L 193.744716 68.865934 
L 195.772194 71.43133 
L 197.799672 71.036655 
L 199.827149 71.431331 
L 201.854627 73.996729 
L 205.909582 77.548819 
L 207.93706 80.311554 
L 209.964538 79.719541 
L 211.992015 81.100909 
L 214.019493 79.127527 
L 216.04697 80.706234 
L 218.074448 78.338172 
L 220.101926 76.167451 
L 222.129403 75.772773 
L 224.156881 76.759468 
L 226.184359 76.56213 
L 228.211836 76.956802 
L 230.239314 73.799391 
L 232.266792 73.404716 
L 234.294269 71.826011 
L 236.321747 70.059947 
L 238.349225 72.092171 
L 240.376702 73.3115 
L 242.40418 72.498611 
L 244.431658 72.905059 
L 246.459135 73.921167 
L 248.486613 73.311501 
L 250.51409 73.311499 
L 252.541568 74.12439 
L 254.569046 75.343722 
L 256.596523 75.343726 
L 258.624001 74.73406 
L 264.706434 74.124388 
L 266.733912 73.514727 
L 268.761389 73.311498 
L 272.816345 73.717943 
L 274.843822 73.717943 
L 276.8713 73.311498 
L 278.898777 73.717945 
L 280.926255 74.327611 
L 282.953733 75.343725 
L 284.98121 75.1405 
L 287.008688 75.343722 
L 289.036166 74.937282 
L 291.063643 73.717943 
L 297.146076 73.717945 
L 299.173554 72.498612 
L 301.201032 73.311502 
L 303.228509 72.09217 
L 305.255987 71.482505 
L 307.283465 71.076061 
L 309.310942 70.059948 
L 311.33842 69.247059 
L 313.365897 70.466395 
L 315.393375 71.076061 
L 317.420853 71.279281 
L 319.44833 70.872835 
L 321.475808 70.872839 
L 325.530763 71.279283 
L 327.558241 70.872839 
L 333.640674 71.482503 
L 335.668152 71.27928 
L 337.695629 70.872839 
L 339.723107 71.076058 
L 341.750584 71.076061 
L 343.778062 70.872839 
L 345.80554 71.279283 
L 347.833017 71.076061 
L 349.860495 71.07606 
L 351.887973 70.263172 
L 353.91545 70.872838 
L 355.942928 70.669616 
L 357.970406 70.872839 
L 359.997883 70.466394 
L 362.025361 70.872838 
L 364.052839 70.669616 
L 366.080316 70.872838 
L 368.107794 70.669616 
L 370.135272 70.26317 
L 372.162749 70.263171 
L 374.190227 70.669615 
L 376.217704 70.263169 
L 378.245182 70.059945 
L 380.27266 65.182619 
L 382.300137 52.989292 
L 384.327615 60.711731 
L 386.355093 63.55684 
L 388.38257 63.556845 
L 390.410048 66.19873 
L 392.437526 61.931065 
L 394.465003 63.353615 
L 396.492481 63.760065 
L 398.519959 61.931067 
L 400.547436 62.743954 
L 402.574914 62.337509 
L 404.602391 60.711728 
L 406.629869 61.524617 
L 408.657347 61.931061 
L 410.684824 61.524621 
L 412.712302 62.337509 
L 414.73978 59.085951 
L 416.767257 54.208628 
L 418.794735 53.395736 
L 420.822213 54.615064 
L 422.84969 53.802179 
L 424.877168 57.053734 
L 426.904646 56.240841 
L 428.932123 57.053731 
L 430.959601 56.240844 
L 437.042034 56.240848 
L 439.069511 59.4924 
L 441.096989 62.337511 
L 443.124467 59.085955 
L 445.151944 57.866616 
L 447.179422 59.085953 
L 449.2069 58.679505 
L 451.234377 59.085949 
L 453.261855 59.085953 
L 455.289333 60.305284 
L 457.31681 61.931067 
L 459.344288 63.150398 
L 461.371766 63.150394 
L 463.399243 61.524621 
L 465.426721 61.524623 
L 467.454198 62.33751 
L 471.509154 61.524623 
L 473.536631 62.337505 
L 475.564109 61.524622 
L 477.591587 61.524621 
L 479.619064 61.931066 
L 481.646542 61.524618 
L 483.67402 59.085955 
L 485.701497 57.053732 
L 487.728975 58.273067 
L 489.756453 57.866622 
L 491.78393 58.67951 
L 495.838886 57.866621 
L 497.866363 57.866622 
L 499.893841 58.679511 
L 501.921318 57.866621 
L 505.976274 57.866621 
L 510.031229 58.679509 
L 512.058707 58.273061 
L 514.086184 58.67951 
L 516.113662 58.67951 
L 518.14114 59.085954 
L 520.168617 57.053734 
L 522.196095 56.64729 
L 524.223573 56.647288 
L 526.25105 57.460177 
L 528.278528 56.240845 
L 530.306005 56.240843 
L 532.333483 57.053732 
L 534.360961 57.053733 
L 536.388438 56.240845 
L 538.415916 56.647288 
L 542.470871 55.021512 
L 544.498349 55.427957 
L 548.553304 55.427955 
L 550.580782 57.053731 
L 554.635737 54.615068 
L 556.663215 55.021511 
L 558.690693 54.615066 
L 560.71817 53.395729 
L 562.745648 44.860406 
L 564.773125 48.5184 
L 568.828081 48.518406 
L 570.855558 46.892631 
L 572.883036 47.705514 
L 574.910514 45.673288 
L 576.937991 45.266844 
L 578.965469 43.234629 
L 580.992947 31.854191 
L 583.020424 39.170185 
L 585.047902 19.254428 
L 587.07538 28.196188 
L 589.102857 33.886407 
L 591.130335 22.912413 
L 593.157813 26.976854 
L 595.18529 24.538186 
L 597.212768 13.157758 
L 599.240245 16.002856 
L 603.295201 12.75131 
L 605.322678 14.783527 
L 607.350156 15.596425 
L 609.377634 15.596428 
L 611.405111 21.693079 
L 613.432589 20.067311 
L 615.460067 20.473755 
L 617.487544 20.473744 
L 619.515022 23.725304 
L 621.5425 20.880205 
L 623.569977 28.196188 
L 625.597455 33.479972 
L 627.624932 37.95086 
L 629.65241 42.828181 
L 631.679888 39.576631 
L 633.707365 37.950855 
L 635.734843 32.667079 
L 637.762321 34.699299 
L 639.789798 34.292857 
L 641.817276 33.073522 
L 643.844754 32.260634 
L 645.872231 31.854191 
L 647.899709 32.667087 
L 649.927187 27.789745 
L 651.954664 29.009076 
L 653.982142 24.944647 
L 656.00962 28.602639 
L 658.037097 29.009083 
L 662.092052 29.009089 
L 664.11953 28.60264 
L 666.147008 20.880191 
L 668.174485 24.538187 
L 670.201963 23.31886 
L 672.229441 22.505972 
L 674.256918 10.719091 
L 676.284396 11.125542 
L 678.311874 16.409304 
L 680.339351 14.377079 
L 682.366829 21.286644 
L 684.394307 21.69308 
L 686.421784 17.222199 
L 688.449262 17.62864 
L 690.476739 18.847975 
L 692.504217 19.660866 
L 694.531695 20.067315 
L 696.559172 22.50598 
L 698.58665 21.286641 
L 700.614128 24.131745 
L 702.641605 22.912412 
L 704.669083 26.570411 
L 706.696561 26.570411 
L 710.751516 27.383303 
L 712.778994 30.228412 
L 714.806471 27.789749 
L 716.833949 23.725301 
L 718.861427 23.85707 
L 720.888904 23.857066 
L 722.916382 23.037196 
L 724.943859 20.987505 
L 726.971337 17.708013 
L 728.998815 19.34776 
L 731.026292 18.527887 
L 733.05377 19.347754 
L 735.081248 19.347762 
L 737.108725 20.987507 
L 739.136203 21.397437 
L 741.163681 20.167636 
L 745.218636 21.807376 
L 747.246114 23.037191 
L 749.273591 21.80738 
L 751.301069 23.447131 
L 753.328546 22.62725 
L 755.356024 23.037199 
L 757.383502 23.85706 
L 759.410979 23.037199 
L 761.438457 22.627258 
L 763.465935 24.676934 
L 765.493412 25.086872 
L 769.548368 26.726629 
L 771.575845 29.186249 
L 773.603323 30.006125 
L 775.630801 31.645866 
L 779.685756 29.186243 
L 781.713234 30.416055 
L 783.740711 30.416058 
L 785.768189 30.006129 
L 787.795666 27.95644 
L 789.823144 27.956436 
L 791.850622 25.496813 
L 793.878099 26.726628 
L 795.905577 26.726626 
L 797.933055 28.776312 
L 801.98801 30.416064 
L 804.015488 27.956441 
L 806.042965 29.186249 
L 810.097921 30.006128 
L 812.125398 30.826 
L 814.152876 32.055811 
L 816.180353 32.465746 
L 818.207831 34.105497 
L 820.235309 31.645878 
L 822.262786 32.055812 
L 824.290264 33.285623 
L 826.317742 32.055813 
L 828.345219 34.51543 
L 830.372697 36.155185 
L 832.400175 34.515436 
L 834.427652 35.33531 
L 836.45513 34.515433 
L 838.482608 34.925369 
L 840.510085 33.695556 
L 842.537563 31.23593 
L 844.565041 34.105495 
L 846.592518 34.105498 
L 848.619996 32.875689 
L 850.647473 30.826001 
L 852.674951 34.105495 
L 856.729906 34.105495 
L 858.757384 33.28562 
L 860.784862 32.875687 
L 862.812339 33.695561 
L 864.839817 33.695558 
L 866.867295 34.105495 
L 868.894772 34.105498 
L 870.92225 33.695562 
L 872.949728 34.515435 
L 874.977205 33.285624 
L 877.004683 34.515432 
L 879.03216 34.51543 
L 881.059638 29.596189 
L 883.087116 30.006129 
L 885.114593 27.956444 
L 887.142071 27.546501 
L 889.169549 30.006128 
L 891.197026 30.826 
L 893.224504 32.055809 
L 895.251982 32.875687 
L 897.279459 34.105495 
L 899.306937 34.105495 
L 901.334415 33.285616 
L 903.361892 32.875686 
L 905.38937 31.645868 
L 909.444325 34.105499 
L 911.471803 34.515436 
L 915.526758 33.695558 
L 917.554236 34.105495 
L 919.581713 33.695558 
L 921.609191 34.105499 
L 923.636669 34.105495 
L 925.664146 33.695562 
L 927.691624 34.515436 
L 929.719102 34.105499 
L 931.746579 34.515436 
L 933.774057 34.515436 
L 935.801535 34.925369 
L 937.829012 34.105499 
L 941.883967 34.105496 
L 943.911445 34.515433 
L 945.938923 34.105499 
L 947.9664 35.33531 
L 949.993878 34.515436 
L 952.021356 35.335311 
L 954.048833 35.335308 
L 956.076311 35.745245 
L 958.103789 35.745248 
L 960.131266 35.335311 
L 962.158744 35.335307 
L 964.186222 34.925369 
L 966.213699 34.105499 
L 968.241177 34.515436 
L 970.268655 35.335307 
L 972.296132 35.745247 
L 974.32361 34.515433 
L 976.351087 34.925373 
L 978.378565 34.515435 
L 980.406043 32.465746 
L 982.43352 32.055815 
L 984.460998 32.875683 
L 986.488476 33.285621 
L 988.515953 34.105499 
L 990.543431 34.515432 
L 992.570909 34.105499 
L 998.653342 35.335307 
L 1000.680819 34.515433 
L 1002.708297 34.105499 
L 1006.763252 34.925364 
L 1008.79073 30.416056 
L 1010.818207 32.875688 
L 1012.845685 30.416059 
L 1014.873163 31.645866 
L 1016.90064 32.055807 
L 1018.928118 24.267001 
L 1020.955596 27.136562 
L 1022.983073 26.726626 
L 1025.010551 29.596185 
L 1027.038029 27.136568 
L 1029.065506 13.608631 
L 1031.092984 22.627251 
L 1033.120462 23.85707 
L 1035.147939 24.676945 
L 1037.175417 24.676946 
L 1039.202894 27.956435 
L 1041.230372 32.055804 
L 1043.25785 29.186252 
L 1045.285327 30.006117 
L 1047.312805 30.416063 
L 1049.340283 27.546504 
L 1051.36776 29.186254 
L 1053.395238 30.416064 
L 1055.422716 28.776309 
L 1057.450193 28.366379 
L 1059.477671 30.825995 
L 1061.505149 29.59619 
L 1063.532626 29.186246 
L 1065.560104 29.596191 
L 1067.587582 30.416065 
L 1069.615059 30.826003 
L 1071.642537 32.465746 
L 1073.670014 33.695558 
L 1079.752447 34.925374 
L 1081.779925 34.925374 
L 1083.807403 35.335308 
L 1085.83488 35.335307 
L 1087.862358 33.695559 
L 1087.862358 33.695559 
" clip-path="url(#p76328ecf7a)" style="fill: none; stroke: #0070c0; stroke-width: 1.5; stroke-linecap: square"/>
   </g>
   <g id="patch_3">
    <path d="M 48.982813 84.62 
L 48.982813 7.2 
" style="fill: none; stroke: #000000; stroke-width: 0.8; stroke-linejoin: miter; stroke-linecap: square"/>
   </g>
   <g id="patch_4">
    <path d="M 1137.332813 84.62 
L 1137.332813 7.2 
" style="fill: none; stroke: #000000; stroke-width: 0.8; stroke-linejoin: miter; stroke-linecap: square"/>
   </g>
   <g id="patch_5">
    <path d="M 48.982813 84.62 
L 1137.332813 84.62 
" style="fill: none; stroke: #000000; stroke-width: 0.8; stroke-linejoin: miter; stroke-linecap: square"/>
   </g>
   <g id="patch_6">
    <path d="M 48.982813 7.2 
L 1137.332813 7.2 
" style="fill: none; stroke: #000000; stroke-width: 0.8; stroke-linejoin: miter; stroke-linecap: square"/>
   </g>
  </g>
  <g id="axes_2">
   <g id="patch_7">
    <path d="M 48.982813 189.92 
L 1137.332813 189.92 
L 1137.332813 112.5 
L 48.982813 112.5 
z
" style="fill: #ffffff"/>
   </g>
   <g id="matplotlib.axis_3">
    <g id="xtick_7">
     <g id="line2d_10">
      <g>
       <use xlink:href="#m438fa58460" x="98.453267" y="189.92" style="stroke: #000000; stroke-width: 0.8"/>
      </g>
     </g>
     <g id="text_10">
      <!-- 0 -->
      <g transform="translate(95.272017 204.518437) scale(0.1 -0.1)">
       <use xlink:href="#DejaVuSans-30"/>
      </g>
     </g>
    </g>
    <g id="xtick_8">
     <g id="line2d_11">
      <g>
       <use xlink:href="#m438fa58460" x="301.201032" y="189.92" style="stroke: #000000; stroke-width: 0.8"/>
      </g>
     </g>
     <g id="text_11">
      <!-- 100 -->
      <g transform="translate(291.657282 204.518437) scale(0.1 -0.1)">
       <use xlink:href="#DejaVuSans-31"/>
       <use xlink:href="#DejaVuSans-30" transform="translate(63.623047 0)"/>
       <use xlink:href="#DejaVuSans-30" transform="translate(127.246094 0)"/>
      </g>
     </g>
    </g>
    <g id="xtick_9">
     <g id="line2d_12">
      <g>
       <use xlink:href="#m438fa58460" x="503.948796" y="189.92" style="stroke: #000000; stroke-width: 0.8"/>
      </g>
     </g>
     <g id="text_12">
      <!-- 200 -->
      <g transform="translate(494.405046 204.518437) scale(0.1 -0.1)">
       <use xlink:href="#DejaVuSans-32"/>
       <use xlink:href="#DejaVuSans-30" transform="translate(63.623047 0)"/>
       <use xlink:href="#DejaVuSans-30" transform="translate(127.246094 0)"/>
      </g>
     </g>
    </g>
    <g id="xtick_10">
     <g id="line2d_13">
      <g>
       <use xlink:href="#m438fa58460" x="706.696561" y="189.92" style="stroke: #000000; stroke-width: 0.8"/>
      </g>
     </g>
     <g id="text_13">
      <!-- 300 -->
      <g transform="translate(697.152811 204.518437) scale(0.1 -0.1)">
       <use xlink:href="#DejaVuSans-33"/>
       <use xlink:href="#DejaVuSans-30" transform="translate(63.623047 0)"/>
       <use xlink:href="#DejaVuSans-30" transform="translate(127.246094 0)"/>
      </g>
     </g>
    </g>
    <g id="xtick_11">
     <g id="line2d_14">
      <g>
       <use xlink:href="#m438fa58460" x="909.444325" y="189.92" style="stroke: #000000; stroke-width: 0.8"/>
      </g>
     </g>
     <g id="text_14">
      <!-- 400 -->
      <g transform="translate(899.900575 204.518437) scale(0.1 -0.1)">
       <use xlink:href="#DejaVuSans-34"/>
       <use xlink:href="#DejaVuSans-30" transform="translate(63.623047 0)"/>
       <use xlink:href="#DejaVuSans-30" transform="translate(127.246094 0)"/>
      </g>
     </g>
    </g>
    <g id="xtick_12">
     <g id="line2d_15">
      <g>
       <use xlink:href="#m438fa58460" x="1112.19209" y="189.92" style="stroke: #000000; stroke-width: 0.8"/>
      </g>
     </g>
     <g id="text_15">
      <!-- 500 -->
      <g transform="translate(1102.64834 204.518437) scale(0.1 -0.1)">
       <use xlink:href="#DejaVuSans-35"/>
       <use xlink:href="#DejaVuSans-30" transform="translate(63.623047 0)"/>
       <use xlink:href="#DejaVuSans-30" transform="translate(127.246094 0)"/>
      </g>
     </g>
    </g>
   </g>
   <g id="matplotlib.axis_4">
    <g id="ytick_3">
     <g id="line2d_16">
      <g>
       <use xlink:href="#m42577dcc2a" x="48.982813" y="187.166092" style="stroke: #000000; stroke-width: 0.8"/>
      </g>
     </g>
     <g id="text_16">
      <!-- −25 -->
      <g transform="translate(20.878125 190.965311) scale(0.1 -0.1)">
       <defs>
        <path id="DejaVuSans-2212" d="M 678 2272 
L 4684 2272 
L 4684 1741 
L 678 1741 
L 678 2272 
z
" transform="scale(0.015625)"/>
       </defs>
       <use xlink:href="#DejaVuSans-2212"/>
       <use xlink:href="#DejaVuSans-32" transform="translate(83.789062 0)"/>
       <use xlink:href="#DejaVuSans-35" transform="translate(147.412109 0)"/>
      </g>
     </g>
    </g>
    <g id="ytick_4">
     <g id="line2d_17">
      <g>
       <use xlink:href="#m42577dcc2a" x="48.982813" y="156.634021" style="stroke: #000000; stroke-width: 0.8"/>
      </g>
     </g>
     <g id="text_17">
      <!-- 0 -->
      <g transform="translate(35.620313 160.433239) scale(0.1 -0.1)">
       <use xlink:href="#DejaVuSans-30"/>
      </g>
     </g>
    </g>
    <g id="ytick_5">
     <g id="line2d_18">
      <g>
       <use xlink:href="#m42577dcc2a" x="48.982813" y="126.101949" style="stroke: #000000; stroke-width: 0.8"/>
      </g>
     </g>
     <g id="text_18">
      <!-- 25 -->
      <g transform="translate(29.257813 129.901167) scale(0.1 -0.1)">
       <use xlink:href="#DejaVuSans-32"/>
       <use xlink:href="#DejaVuSans-35" transform="translate(63.623047 0)"/>
      </g>
     </g>
    </g>
    <g id="text_19">
     <!-- Co-IMF0 -->
     <g transform="translate(14.798438 171.504531) rotate(-90) scale(0.1 -0.1)">
      <defs>
       <path id="DejaVuSans-43" d="M 4122 4306 
L 4122 3641 
Q 3803 3938 3442 4084 
Q 3081 4231 2675 4231 
Q 1875 4231 1450 3742 
Q 1025 3253 1025 2328 
Q 1025 1406 1450 917 
Q 1875 428 2675 428 
Q 3081 428 3442 575 
Q 3803 722 4122 1019 
L 4122 359 
Q 3791 134 3420 21 
Q 3050 -91 2638 -91 
Q 1578 -91 968 557 
Q 359 1206 359 2328 
Q 359 3453 968 4101 
Q 1578 4750 2638 4750 
Q 3056 4750 3426 4639 
Q 3797 4528 4122 4306 
z
" transform="scale(0.015625)"/>
       <path id="DejaVuSans-6f" d="M 1959 3097 
Q 1497 3097 1228 2736 
Q 959 2375 959 1747 
Q 959 1119 1226 758 
Q 1494 397 1959 397 
Q 2419 397 2687 759 
Q 2956 1122 2956 1747 
Q 2956 2369 2687 2733 
Q 2419 3097 1959 3097 
z
M 1959 3584 
Q 2709 3584 3137 3096 
Q 3566 2609 3566 1747 
Q 3566 888 3137 398 
Q 2709 -91 1959 -91 
Q 1206 -91 779 398 
Q 353 888 353 1747 
Q 353 2609 779 3096 
Q 1206 3584 1959 3584 
z
" transform="scale(0.015625)"/>
       <path id="DejaVuSans-2d" d="M 313 2009 
L 1997 2009 
L 1997 1497 
L 313 1497 
L 313 2009 
z
" transform="scale(0.015625)"/>
       <path id="DejaVuSans-49" d="M 628 4666 
L 1259 4666 
L 1259 0 
L 628 0 
L 628 4666 
z
" transform="scale(0.015625)"/>
       <path id="DejaVuSans-4d" d="M 628 4666 
L 1569 4666 
L 2759 1491 
L 3956 4666 
L 4897 4666 
L 4897 0 
L 4281 0 
L 4281 4097 
L 3078 897 
L 2444 897 
L 1241 4097 
L 1241 0 
L 628 0 
L 628 4666 
z
" transform="scale(0.015625)"/>
       <path id="DejaVuSans-46" d="M 628 4666 
L 3309 4666 
L 3309 4134 
L 1259 4134 
L 1259 2759 
L 3109 2759 
L 3109 2228 
L 1259 2228 
L 1259 0 
L 628 0 
L 628 4666 
z
" transform="scale(0.015625)"/>
      </defs>
      <use xlink:href="#DejaVuSans-43"/>
      <use xlink:href="#DejaVuSans-6f" transform="translate(69.824219 0)"/>
      <use xlink:href="#DejaVuSans-2d" transform="translate(132.880859 0)"/>
      <use xlink:href="#DejaVuSans-49" transform="translate(168.964844 0)"/>
      <use xlink:href="#DejaVuSans-4d" transform="translate(198.457031 0)"/>
      <use xlink:href="#DejaVuSans-46" transform="translate(284.736328 0)"/>
      <use xlink:href="#DejaVuSans-30" transform="translate(342.255859 0)"/>
     </g>
    </g>
   </g>
   <g id="line2d_19">
    <path d="M 98.453267 156.634021 
L 141.030298 156.630259 
L 143.057775 156.350741 
L 145.085253 155.837184 
L 147.112731 155.931542 
L 149.140208 156.663952 
L 153.195163 157.531712 
L 155.222641 157.864657 
L 157.250119 157.989381 
L 159.277596 158.293542 
L 161.305074 158.747434 
L 163.332552 158.852111 
L 165.360029 158.641041 
L 167.387507 157.945349 
L 169.414985 156.625301 
L 171.442462 154.938036 
L 173.46994 152.784455 
L 175.497418 152.155425 
L 177.524895 153.265109 
L 179.552373 155.078278 
L 181.579851 158.16487 
L 183.607328 159.750918 
L 185.634806 159.595175 
L 187.662283 158.378212 
L 189.689761 155.279956 
L 191.717239 154.011878 
L 193.744716 154.668254 
L 195.772194 154.234644 
L 197.799672 153.458754 
L 199.827149 153.273741 
L 201.854627 153.360173 
L 203.882105 155.465173 
L 205.909582 159.882755 
L 207.93706 161.717857 
L 209.964538 161.110093 
L 211.992015 160.182285 
L 218.074448 153.20674 
L 220.101926 151.255712 
L 222.129403 150.075651 
L 224.156881 153.035424 
L 226.184359 160.807097 
L 228.211836 162.090579 
L 230.239314 157.071406 
L 232.266792 154.574382 
L 234.294269 152.472253 
L 236.321747 152.716866 
L 238.349225 156.781855 
L 240.376702 158.463958 
L 242.40418 158.415224 
L 244.431658 158.182004 
L 246.459135 156.621663 
L 248.486613 155.961491 
L 250.51409 156.243173 
L 252.541568 156.304799 
L 254.569046 156.623265 
L 256.596523 156.758674 
L 258.624001 156.613466 
L 270.788867 156.634021 
L 272.816345 156.464109 
L 274.843822 156.106795 
L 276.8713 156.168723 
L 278.898777 156.65466 
L 282.953733 157.253611 
L 284.98121 157.176656 
L 287.008688 156.616691 
L 291.063643 155.862444 
L 293.091121 155.773511 
L 301.201032 157.11667 
L 303.228509 157.767699 
L 305.255987 157.61954 
L 307.283465 156.597631 
L 309.310942 156.05843 
L 311.33842 155.828307 
L 313.365897 155.932031 
L 315.393375 156.650501 
L 317.420853 157.079511 
L 319.44833 157.285162 
L 321.475808 157.201902 
L 323.503286 156.619764 
L 325.530763 156.454 
L 327.558241 156.663705 
L 355.942928 156.634021 
L 357.970406 154.091107 
L 359.997883 148.743532 
L 362.025361 146.630445 
L 364.052839 147.510295 
L 366.080316 149.963508 
L 370.135272 161.016477 
L 372.162749 166.947452 
L 374.190227 172.338022 
L 376.217704 176.446311 
L 378.245182 172.271582 
L 380.27266 158.437797 
L 382.300137 120.248444 
L 384.327615 148.776082 
L 386.355093 156.043781 
L 388.38257 168.913988 
L 390.410048 168.225735 
L 392.437526 155.950272 
L 394.465003 152.372533 
L 396.492481 156.561258 
L 400.547436 156.958802 
L 402.574914 156.587395 
L 404.602391 154.521564 
L 406.629869 155.25642 
L 408.657347 158.634587 
L 410.684824 160.812159 
L 412.712302 162.514743 
L 414.73978 158.890761 
L 416.767257 149.315015 
L 418.794735 147.320383 
L 422.84969 157.818419 
L 424.877168 165.273605 
L 426.904646 167.017213 
L 428.932123 161.480148 
L 430.959601 156.98192 
L 432.987079 151.356199 
L 435.014556 150.069902 
L 437.042034 154.713619 
L 439.069511 158.061914 
L 441.096989 161.713335 
L 443.124467 161.551204 
L 445.151944 156.108222 
L 447.179422 153.35032 
L 449.2069 152.178431 
L 451.234377 152.610933 
L 453.261855 156.191706 
L 455.289333 158.478567 
L 457.31681 159.849402 
L 459.344288 160.301205 
L 463.399243 157.408625 
L 467.454198 153.828204 
L 469.481676 152.523439 
L 471.509154 153.002259 
L 473.536631 155.71071 
L 475.564109 157.5511 
L 477.591587 158.853221 
L 479.619064 159.061239 
L 481.646542 157.456919 
L 485.701497 154.813905 
L 487.728975 154.829723 
L 489.756453 156.712329 
L 491.78393 157.172632 
L 493.811408 156.538721 
L 518.14114 156.634021 
L 520.168617 156.471296 
L 522.196095 156.129098 
L 524.223573 156.188406 
L 526.25105 156.653787 
L 528.278528 157.432282 
L 530.306005 158.67926 
L 532.333483 159.563395 
L 534.360961 160.06184 
L 536.388438 159.183192 
L 538.415916 156.586139 
L 542.470871 152.047991 
L 544.498349 150.784789 
L 546.525827 151.005256 
L 548.553304 152.781028 
L 550.580782 156.656493 
L 552.60826 160.004529 
L 554.635737 162.908254 
L 556.663215 162.79033 
L 558.690693 158.720388 
L 560.71817 154.078623 
L 562.745648 147.962617 
L 564.773125 151.282802 
L 566.800603 156.42914 
L 568.828081 160.769308 
L 570.855558 162.713535 
L 572.883036 164.325354 
L 574.910514 163.82142 
L 576.937991 166.582003 
L 578.965469 172.649979 
L 580.992947 143.395755 
L 583.020424 186.400909 
L 585.047902 116.019091 
L 587.07538 149.392024 
L 589.102857 173.415804 
L 591.130335 161.679694 
L 593.157813 173.580176 
L 595.18529 166.782353 
L 597.212768 138.486663 
L 599.240245 156.05371 
L 601.267723 155.456034 
L 603.295201 157.712779 
L 605.322678 156.829463 
L 607.350156 155.309251 
L 609.377634 156.454679 
L 611.405111 161.317338 
L 613.432589 159.621761 
L 615.460067 151.95232 
L 617.487544 147.372029 
L 619.515022 144.310728 
L 621.5425 138.707525 
L 623.569977 149.458345 
L 625.597455 158.687333 
L 627.624932 173.996102 
L 629.65241 176.979012 
L 631.679888 165.927822 
L 633.707365 157.165229 
L 635.734843 147.384437 
L 637.762321 142.990688 
L 639.789798 147.26109 
L 641.817276 152.921253 
L 643.844754 162.737522 
L 645.872231 166.649732 
L 647.899709 163.308682 
L 649.927187 158.477528 
L 651.954664 149.282993 
L 653.982142 147.455395 
L 656.00962 154.119288 
L 658.037097 159.931248 
L 660.064575 165.007807 
L 662.092052 167.990017 
L 664.11953 166.737042 
L 666.147008 150.749704 
L 668.174485 162.499594 
L 670.201963 162.560975 
L 672.229441 168.052677 
L 674.256918 139.159605 
L 676.284396 137.669607 
L 678.311874 152.723831 
L 680.339351 156.567417 
L 682.366829 165.613719 
L 684.394307 165.516459 
L 686.421784 161.253563 
L 688.449262 155.219221 
L 690.476739 152.437066 
L 692.504217 155.527223 
L 694.531695 156.160331 
L 696.559172 156.493823 
L 698.58665 156.953141 
L 700.614128 156.594711 
L 702.641605 156.563106 
L 704.669083 156.656667 
L 706.696561 158.131734 
L 708.724038 161.28053 
L 710.751516 161.642867 
L 714.806471 156.882275 
L 716.833949 153.550958 
L 720.888904 146.358423 
L 722.916382 143.395851 
L 724.943859 141.432753 
L 726.971337 141.968086 
L 728.998815 145.553074 
L 731.026292 149.590386 
L 733.05377 154.565301 
L 735.081248 158.824161 
L 739.136203 164.797485 
L 741.163681 167.268555 
L 743.191158 169.259432 
L 745.218636 170.777896 
L 747.246114 171.570344 
L 749.273591 171.607195 
L 751.301069 170.988674 
L 753.328546 169.637388 
L 755.356024 166.393512 
L 757.383502 161.1203 
L 759.410979 157.545143 
L 761.438457 155.644552 
L 763.465935 153.382894 
L 765.493412 151.577363 
L 767.52089 151.678934 
L 769.548368 153.730477 
L 773.603323 157.451001 
L 775.630801 157.977613 
L 777.658278 156.545497 
L 779.685756 156.260352 
L 781.713234 156.717254 
L 783.740711 157.385626 
L 785.768189 158.823894 
L 787.795666 158.493236 
L 789.823144 156.283239 
L 791.850622 155.000809 
L 793.878099 154.184842 
L 795.905577 155.987685 
L 797.933055 161.150818 
L 799.960532 161.765424 
L 801.98801 158.023358 
L 804.015488 154.864999 
L 806.042965 150.722113 
L 808.070443 149.757487 
L 810.097921 152.900954 
L 812.125398 155.443183 
L 814.152876 158.526253 
L 816.180353 160.662179 
L 818.207831 161.069862 
L 820.235309 159.522287 
L 822.262786 155.185405 
L 824.290264 154.27571 
L 826.317742 156.857726 
L 828.345219 157.21567 
L 830.372697 156.504832 
L 836.45513 156.634021 
L 866.867295 156.634021 
L 868.894772 156.340942 
L 870.92225 155.724617 
L 872.949728 156.458314 
L 874.977205 158.614783 
L 877.004683 159.529786 
L 879.03216 159.438938 
L 881.059638 156.43133 
L 883.087116 149.700047 
L 885.114593 148.099928 
L 887.142071 151.556582 
L 889.169549 154.255038 
L 893.224504 161.800618 
L 895.251982 164.939875 
L 897.279459 165.300808 
L 901.334415 158.809642 
L 903.361892 154.811397 
L 905.38937 152.828951 
L 909.444325 154.641992 
L 911.471803 156.589159 
L 913.49928 157.362661 
L 915.526758 156.527966 
L 917.554236 156.49017 
L 919.581713 156.68038 
L 925.664146 156.634021 
L 960.131266 156.634021 
L 962.158744 156.143643 
L 964.186222 155.112412 
L 966.213699 155.282686 
L 968.241177 156.667354 
L 970.268655 157.535204 
L 972.296132 158.20221 
L 974.32361 158.43717 
L 976.351087 157.911076 
L 978.378565 157.200332 
L 980.406043 156.126254 
L 982.43352 155.78428 
L 984.460998 156.331938 
L 988.515953 156.605638 
L 990.543431 156.702778 
L 998.653342 156.44098 
L 1000.680819 156.642583 
L 1002.708297 157.30212 
L 1004.735774 158.52007 
L 1006.763252 156.824998 
L 1008.79073 151.996155 
L 1010.818207 153.44332 
L 1012.845685 161.039223 
L 1014.873163 163.101877 
L 1016.90064 160.987754 
L 1018.928118 145.053584 
L 1020.955596 151.404838 
L 1022.983073 170.433464 
L 1025.010551 175.462341 
L 1027.038029 160.363152 
L 1029.065506 127.146569 
L 1031.092984 150.742896 
L 1033.120462 154.024675 
L 1035.147939 167.620537 
L 1037.175417 170.914303 
L 1039.202894 174.621781 
L 1041.230372 173.138548 
L 1043.25785 167.484868 
L 1045.285327 156.62933 
L 1047.312805 149.918575 
L 1049.340283 147.755039 
L 1051.36776 146.140278 
L 1053.395238 147.468737 
L 1055.422716 150.028439 
L 1057.450193 153.904806 
L 1059.477671 156.25922 
L 1061.505149 156.477749 
L 1063.532626 156.139256 
L 1065.560104 154.263138 
L 1067.587582 153.771992 
L 1069.615059 154.822379 
L 1071.642537 155.543336 
L 1073.670014 156.606943 
L 1075.697492 157.108193 
L 1077.72497 156.819198 
L 1079.752447 157.440663 
L 1081.779925 158.79452 
L 1083.807403 159.088787 
L 1085.83488 158.504417 
L 1087.862358 158.32898 
L 1087.862358 158.32898 
" clip-path="url(#pad2ba5beb7)" style="fill: none; stroke: #f27f19; stroke-width: 1.5; stroke-linecap: square"/>
   </g>
   <g id="patch_8">
    <path d="M 48.982813 189.92 
L 48.982813 112.5 
" style="fill: none; stroke: #000000; stroke-width: 0.8; stroke-linejoin: miter; stroke-linecap: square"/>
   </g>
   <g id="patch_9">
    <path d="M 1137.332813 189.92 
L 1137.332813 112.5 
" style="fill: none; stroke: #000000; stroke-width: 0.8; stroke-linejoin: miter; stroke-linecap: square"/>
   </g>
   <g id="patch_10">
    <path d="M 48.982813 189.92 
L 1137.332813 189.92 
" style="fill: none; stroke: #000000; stroke-width: 0.8; stroke-linejoin: miter; stroke-linecap: square"/>
   </g>
   <g id="patch_11">
    <path d="M 48.982813 112.5 
L 1137.332813 112.5 
" style="fill: none; stroke: #000000; stroke-width: 0.8; stroke-linejoin: miter; stroke-linecap: square"/>
   </g>
  </g>
  <g id="axes_3">
   <g id="patch_12">
    <path d="M 48.982813 295.22 
L 1137.332813 295.22 
L 1137.332813 217.8 
L 48.982813 217.8 
z
" style="fill: #ffffff"/>
   </g>
   <g id="matplotlib.axis_5">
    <g id="xtick_13">
     <g id="line2d_20">
      <g>
       <use xlink:href="#m438fa58460" x="98.453267" y="295.22" style="stroke: #000000; stroke-width: 0.8"/>
      </g>
     </g>
     <g id="text_20">
      <!-- 0 -->
      <g transform="translate(95.272017 309.818437) scale(0.1 -0.1)">
       <use xlink:href="#DejaVuSans-30"/>
      </g>
     </g>
    </g>
    <g id="xtick_14">
     <g id="line2d_21">
      <g>
       <use xlink:href="#m438fa58460" x="301.201032" y="295.22" style="stroke: #000000; stroke-width: 0.8"/>
      </g>
     </g>
     <g id="text_21">
      <!-- 100 -->
      <g transform="translate(291.657282 309.818437) scale(0.1 -0.1)">
       <use xlink:href="#DejaVuSans-31"/>
       <use xlink:href="#DejaVuSans-30" transform="translate(63.623047 0)"/>
       <use xlink:href="#DejaVuSans-30" transform="translate(127.246094 0)"/>
      </g>
     </g>
    </g>
    <g id="xtick_15">
     <g id="line2d_22">
      <g>
       <use xlink:href="#m438fa58460" x="503.948796" y="295.22" style="stroke: #000000; stroke-width: 0.8"/>
      </g>
     </g>
     <g id="text_22">
      <!-- 200 -->
      <g transform="translate(494.405046 309.818437) scale(0.1 -0.1)">
       <use xlink:href="#DejaVuSans-32"/>
       <use xlink:href="#DejaVuSans-30" transform="translate(63.623047 0)"/>
       <use xlink:href="#DejaVuSans-30" transform="translate(127.246094 0)"/>
      </g>
     </g>
    </g>
    <g id="xtick_16">
     <g id="line2d_23">
      <g>
       <use xlink:href="#m438fa58460" x="706.696561" y="295.22" style="stroke: #000000; stroke-width: 0.8"/>
      </g>
     </g>
     <g id="text_23">
      <!-- 300 -->
      <g transform="translate(697.152811 309.818437) scale(0.1 -0.1)">
       <use xlink:href="#DejaVuSans-33"/>
       <use xlink:href="#DejaVuSans-30" transform="translate(63.623047 0)"/>
       <use xlink:href="#DejaVuSans-30" transform="translate(127.246094 0)"/>
      </g>
     </g>
    </g>
    <g id="xtick_17">
     <g id="line2d_24">
      <g>
       <use xlink:href="#m438fa58460" x="909.444325" y="295.22" style="stroke: #000000; stroke-width: 0.8"/>
      </g>
     </g>
     <g id="text_24">
      <!-- 400 -->
      <g transform="translate(899.900575 309.818437) scale(0.1 -0.1)">
       <use xlink:href="#DejaVuSans-34"/>
       <use xlink:href="#DejaVuSans-30" transform="translate(63.623047 0)"/>
       <use xlink:href="#DejaVuSans-30" transform="translate(127.246094 0)"/>
      </g>
     </g>
    </g>
    <g id="xtick_18">
     <g id="line2d_25">
      <g>
       <use xlink:href="#m438fa58460" x="1112.19209" y="295.22" style="stroke: #000000; stroke-width: 0.8"/>
      </g>
     </g>
     <g id="text_25">
      <!-- 500 -->
      <g transform="translate(1102.64834 309.818437) scale(0.1 -0.1)">
       <use xlink:href="#DejaVuSans-35"/>
       <use xlink:href="#DejaVuSans-30" transform="translate(63.623047 0)"/>
       <use xlink:href="#DejaVuSans-30" transform="translate(127.246094 0)"/>
      </g>
     </g>
    </g>
   </g>
   <g id="matplotlib.axis_6">
    <g id="ytick_6">
     <g id="line2d_26">
      <g>
       <use xlink:href="#m42577dcc2a" x="48.982813" y="285.320039" style="stroke: #000000; stroke-width: 0.8"/>
      </g>
     </g>
     <g id="text_26">
      <!-- −50 -->
      <g transform="translate(20.878125 289.119258) scale(0.1 -0.1)">
       <use xlink:href="#DejaVuSans-2212"/>
       <use xlink:href="#DejaVuSans-35" transform="translate(83.789062 0)"/>
       <use xlink:href="#DejaVuSans-30" transform="translate(147.412109 0)"/>
      </g>
     </g>
    </g>
    <g id="ytick_7">
     <g id="line2d_27">
      <g>
       <use xlink:href="#m42577dcc2a" x="48.982813" y="259.976563" style="stroke: #000000; stroke-width: 0.8"/>
      </g>
     </g>
     <g id="text_27">
      <!-- 0 -->
      <g transform="translate(35.620313 263.775782) scale(0.1 -0.1)">
       <use xlink:href="#DejaVuSans-30"/>
      </g>
     </g>
    </g>
    <g id="ytick_8">
     <g id="line2d_28">
      <g>
       <use xlink:href="#m42577dcc2a" x="48.982813" y="234.633088" style="stroke: #000000; stroke-width: 0.8"/>
      </g>
     </g>
     <g id="text_28">
      <!-- 50 -->
      <g transform="translate(29.257813 238.432306) scale(0.1 -0.1)">
       <use xlink:href="#DejaVuSans-35"/>
       <use xlink:href="#DejaVuSans-30" transform="translate(63.623047 0)"/>
      </g>
     </g>
    </g>
    <g id="text_29">
     <!-- Co-IMF1 -->
     <g transform="translate(14.798438 276.804531) rotate(-90) scale(0.1 -0.1)">
      <use xlink:href="#DejaVuSans-43"/>
      <use xlink:href="#DejaVuSans-6f" transform="translate(69.824219 0)"/>
      <use xlink:href="#DejaVuSans-2d" transform="translate(132.880859 0)"/>
      <use xlink:href="#DejaVuSans-49" transform="translate(168.964844 0)"/>
      <use xlink:href="#DejaVuSans-4d" transform="translate(198.457031 0)"/>
      <use xlink:href="#DejaVuSans-46" transform="translate(284.736328 0)"/>
      <use xlink:href="#DejaVuSans-31" transform="translate(342.255859 0)"/>
     </g>
    </g>
   </g>
   <g id="line2d_29">
    <path d="M 98.453267 258.804541 
L 100.480745 258.559821 
L 104.5357 258.453761 
L 106.563178 258.610177 
L 110.618133 259.403684 
L 114.673088 260.318647 
L 122.782999 261.248048 
L 126.837954 261.700585 
L 130.892909 262.311043 
L 132.920387 262.472033 
L 134.947865 262.411463 
L 136.975342 262.070564 
L 139.00282 261.546491 
L 143.057775 260.057934 
L 147.112731 258.787343 
L 151.167686 257.89455 
L 165.360029 255.927986 
L 169.414985 255.762756 
L 173.46994 255.88017 
L 177.524895 256.258046 
L 183.607328 256.794855 
L 187.662283 256.757275 
L 189.689761 256.593029 
L 191.717239 256.728748 
L 193.744716 257.193726 
L 195.772194 258.187243 
L 197.799672 259.859686 
L 199.827149 261.813422 
L 205.909582 268.726935 
L 207.93706 270.50796 
L 209.964538 271.635397 
L 211.992015 272.201624 
L 214.019493 271.998548 
L 216.04697 271.313948 
L 218.074448 270.099938 
L 220.101926 268.452185 
L 222.129403 266.424442 
L 224.156881 264.147928 
L 230.239314 256.818692 
L 232.266792 254.795852 
L 234.294269 253.281658 
L 236.321747 252.364606 
L 238.349225 252.218071 
L 240.376702 252.556582 
L 242.40418 253.478612 
L 244.431658 254.61497 
L 248.486613 257.080265 
L 252.541568 258.766499 
L 254.569046 259.34348 
L 256.596523 259.713491 
L 258.624001 259.843847 
L 260.651479 259.860541 
L 264.706434 259.653789 
L 268.761389 259.667454 
L 270.788867 259.795806 
L 272.816345 260.141233 
L 276.8713 261.44509 
L 280.926255 263.040736 
L 282.953733 263.663756 
L 284.98121 264.150447 
L 287.008688 264.4138 
L 289.036166 264.405592 
L 291.063643 264.067663 
L 293.091121 263.545698 
L 295.118599 262.81094 
L 299.173554 260.983177 
L 305.255987 257.777672 
L 307.283465 256.691769 
L 309.310942 255.918091 
L 311.33842 255.511253 
L 313.365897 255.385963 
L 317.420853 255.978537 
L 321.475808 256.86383 
L 323.503286 257.341457 
L 325.530763 257.68823 
L 329.585719 257.893379 
L 333.640674 257.702269 
L 339.723107 257.710525 
L 341.750584 257.901829 
L 345.80554 258.583175 
L 347.833017 258.807189 
L 349.860495 258.882352 
L 351.887973 258.715695 
L 353.91545 259.328532 
L 355.942928 260.764757 
L 357.970406 262.743084 
L 359.997883 265.106846 
L 362.025361 267.037285 
L 364.052839 268.283824 
L 366.080316 268.814756 
L 368.107794 268.273437 
L 370.135272 266.88347 
L 372.162749 264.475933 
L 374.190227 261.388702 
L 376.217704 257.606584 
L 378.245182 254.302919 
L 380.27266 251.676898 
L 382.300137 250.51602 
L 384.327615 251.329828 
L 386.355093 253.328436 
L 390.410048 259.10211 
L 392.437526 261.342201 
L 394.465003 262.83572 
L 396.492481 262.99315 
L 400.547436 262.801471 
L 402.574914 263.095181 
L 404.602391 263.854894 
L 406.629869 264.254933 
L 408.657347 264.442566 
L 410.684824 263.849284 
L 412.712302 262.286348 
L 414.73978 260.130526 
L 416.767257 257.429491 
L 418.794735 255.13876 
L 420.822213 253.480964 
L 422.84969 252.595604 
L 424.877168 252.84102 
L 426.904646 253.745984 
L 428.932123 255.429403 
L 435.014556 260.94958 
L 437.042034 262.075112 
L 439.069511 262.815787 
L 441.096989 262.930197 
L 443.124467 262.826088 
L 447.179422 262.118983 
L 451.234377 261.88719 
L 455.289333 262.317136 
L 459.344288 263.269315 
L 463.399243 264.253199 
L 465.426721 264.531733 
L 467.454198 264.599464 
L 469.481676 264.378519 
L 471.509154 263.746701 
L 473.536631 262.646013 
L 475.564109 261.266453 
L 477.591587 259.562048 
L 483.67402 254.053746 
L 485.701497 252.705924 
L 487.728975 251.745072 
L 489.756453 251.336875 
L 491.78393 251.292214 
L 495.838886 252.006451 
L 497.866363 252.252469 
L 501.921318 253.022823 
L 503.948796 253.587816 
L 505.976274 254.322985 
L 508.003751 255.202499 
L 512.058707 257.302444 
L 514.086184 258.207902 
L 516.113662 258.938912 
L 518.14114 259.406816 
L 520.168617 259.744544 
L 526.25105 260.286088 
L 528.278528 260.616584 
L 530.306005 261.134259 
L 532.333483 261.986293 
L 534.360961 263.231978 
L 536.388438 264.73683 
L 540.443394 268.466594 
L 544.498349 272.352526 
L 546.525827 274.016034 
L 548.553304 275.425914 
L 550.580782 276.466615 
L 552.60826 276.869563 
L 554.635737 276.526576 
L 556.663215 275.660182 
L 560.71817 272.55593 
L 562.745648 270.883004 
L 564.773125 269.831432 
L 566.800603 269.654405 
L 568.828081 269.843456 
L 570.855558 270.35151 
L 572.883036 269.793674 
L 574.910514 267.869453 
L 576.937991 264.670011 
L 583.020424 250.660266 
L 585.047902 246.836801 
L 587.07538 244.399954 
L 589.102857 242.225051 
L 591.130335 239.882153 
L 593.157813 236.401885 
L 597.212768 227.445703 
L 599.240245 223.515394 
L 601.267723 221.319091 
L 603.295201 221.487024 
L 605.322678 224.377377 
L 609.377634 234.603828 
L 611.405111 239.720583 
L 613.432589 244.439139 
L 615.460067 248.462216 
L 619.515022 257.260493 
L 621.5425 262.470829 
L 627.624932 281.219729 
L 629.65241 286.255971 
L 631.679888 289.622998 
L 633.707365 291.550364 
L 635.734843 291.700909 
L 637.762321 290.606326 
L 639.789798 288.177393 
L 641.817276 285.289261 
L 643.844754 282.114879 
L 645.872231 279.57501 
L 647.899709 278.104651 
L 649.927187 277.151596 
L 651.954664 276.980554 
L 656.00962 276.939098 
L 658.037097 276.499887 
L 660.064575 275.352187 
L 662.092052 273.40591 
L 664.11953 270.357618 
L 666.147008 266.732706 
L 670.201963 258.222966 
L 672.229441 254.417497 
L 674.256918 251.485297 
L 676.284396 249.817264 
L 678.311874 249.343391 
L 680.339351 250.211955 
L 682.366829 251.417288 
L 686.421784 254.486988 
L 688.449262 255.742857 
L 690.476739 256.845923 
L 692.504217 257.546969 
L 694.531695 258.474115 
L 696.559172 259.574269 
L 698.58665 261.152826 
L 702.641605 265.471786 
L 704.669083 267.539323 
L 706.696561 269.313563 
L 708.724038 270.61453 
L 710.751516 271.160094 
L 712.778994 270.748748 
L 714.806471 269.708853 
L 716.833949 267.871799 
L 718.861427 265.653143 
L 722.916382 260.368799 
L 726.971337 255.120759 
L 728.998815 252.913489 
L 731.026292 250.931155 
L 733.05377 249.308075 
L 735.081248 247.88589 
L 737.108725 246.702388 
L 739.136203 245.793803 
L 741.163681 245.147138 
L 743.191158 244.745437 
L 745.218636 244.591452 
L 747.246114 244.683185 
L 749.273591 245.016641 
L 751.301069 245.622649 
L 753.328546 246.501669 
L 755.356024 247.673728 
L 757.383502 249.149622 
L 759.410979 250.827612 
L 763.465935 254.65607 
L 769.548368 260.662169 
L 771.575845 262.357011 
L 773.603323 263.673399 
L 775.630801 264.459329 
L 777.658278 264.575201 
L 779.685756 264.036843 
L 781.713234 262.720821 
L 783.740711 261.060506 
L 785.768189 259.028128 
L 787.795666 257.170551 
L 789.823144 255.644211 
L 791.850622 254.525104 
L 793.878099 254.062521 
L 795.905577 254.067703 
L 797.933055 254.69193 
L 799.960532 255.534664 
L 808.070443 259.685748 
L 812.125398 260.840862 
L 816.180353 261.430277 
L 820.235309 261.950897 
L 822.262786 262.420241 
L 824.290264 263.140903 
L 830.372697 266.394495 
L 832.400175 266.902888 
L 834.427652 266.661782 
L 836.45513 265.734604 
L 840.510085 262.282518 
L 842.537563 260.726346 
L 844.565041 259.597672 
L 846.592518 259.19741 
L 848.619996 259.145545 
L 852.674951 260.129777 
L 854.702429 260.517871 
L 856.729906 260.767198 
L 860.784862 260.713025 
L 862.812339 260.752577 
L 864.839817 261.048199 
L 866.867295 261.688727 
L 868.894772 262.075589 
L 870.92225 262.261106 
L 872.949728 261.814573 
L 874.977205 260.557543 
L 877.004683 258.951028 
L 881.059638 254.834408 
L 883.087116 253.078575 
L 885.114593 251.872115 
L 887.142071 251.477832 
L 889.169549 251.637579 
L 891.197026 252.563197 
L 893.224504 253.696217 
L 897.279459 256.332441 
L 901.334415 258.430342 
L 903.361892 259.263035 
L 905.38937 259.857707 
L 907.416848 260.165542 
L 909.444325 260.34957 
L 913.49928 260.440401 
L 919.581713 260.910431 
L 923.636669 261.336034 
L 927.691624 262.048314 
L 931.746579 262.750852 
L 933.774057 262.942855 
L 941.883967 262.997433 
L 943.911445 263.249114 
L 945.938923 263.644954 
L 954.048833 266.015021 
L 958.103789 266.484805 
L 964.186222 266.757805 
L 966.213699 266.692639 
L 970.268655 266.25461 
L 972.296132 265.934333 
L 974.32361 265.481834 
L 978.378565 264.368275 
L 980.406043 263.887689 
L 982.43352 263.692417 
L 984.460998 263.858224 
L 986.488476 264.262772 
L 990.543431 265.837498 
L 994.598386 267.653415 
L 996.625864 268.432393 
L 998.653342 268.841635 
L 1000.680819 268.775038 
L 1002.708297 268.38184 
L 1004.735774 267.540907 
L 1006.763252 266.453003 
L 1010.818207 263.640387 
L 1012.845685 262.112526 
L 1014.873163 260.371381 
L 1016.90064 258.473018 
L 1018.928118 256.095906 
L 1022.983073 250.211144 
L 1025.010551 247.11189 
L 1027.038029 244.526058 
L 1029.065506 242.624817 
L 1031.092984 242.02065 
L 1033.120462 243.048689 
L 1035.147939 245.065417 
L 1043.25785 257.481076 
L 1045.285327 260.013637 
L 1047.312805 262.091204 
L 1049.340283 263.48391 
L 1051.36776 264.19934 
L 1053.395238 264.098006 
L 1055.422716 263.652712 
L 1057.450193 262.824125 
L 1059.477671 262.261739 
L 1061.505149 262.136292 
L 1063.532626 262.420262 
L 1065.560104 263.391775 
L 1067.587582 264.699871 
L 1071.642537 268.171534 
L 1073.670014 269.728173 
L 1075.697492 271.067321 
L 1077.72497 271.997015 
L 1079.752447 272.531767 
L 1081.779925 272.539308 
L 1083.807403 272.194993 
L 1087.862358 270.732905 
L 1087.862358 270.732905 
" clip-path="url(#p192352df4d)" style="fill: none; stroke: #f27f19; stroke-width: 1.5; stroke-linecap: square"/>
   </g>
   <g id="patch_13">
    <path d="M 48.982813 295.22 
L 48.982813 217.8 
" style="fill: none; stroke: #000000; stroke-width: 0.8; stroke-linejoin: miter; stroke-linecap: square"/>
   </g>
   <g id="patch_14">
    <path d="M 1137.332813 295.22 
L 1137.332813 217.8 
" style="fill: none; stroke: #000000; stroke-width: 0.8; stroke-linejoin: miter; stroke-linecap: square"/>
   </g>
   <g id="patch_15">
    <path d="M 48.982813 295.22 
L 1137.332813 295.22 
" style="fill: none; stroke: #000000; stroke-width: 0.8; stroke-linejoin: miter; stroke-linecap: square"/>
   </g>
   <g id="patch_16">
    <path d="M 48.982813 217.8 
L 1137.332813 217.8 
" style="fill: none; stroke: #000000; stroke-width: 0.8; stroke-linejoin: miter; stroke-linecap: square"/>
   </g>
  </g>
  <g id="axes_4">
   <g id="patch_17">
    <path d="M 48.982813 400.52 
L 1137.332813 400.52 
L 1137.332813 323.1 
L 48.982813 323.1 
z
" style="fill: #ffffff"/>
   </g>
   <g id="matplotlib.axis_7">
    <g id="xtick_19">
     <g id="line2d_30">
      <g>
       <use xlink:href="#m438fa58460" x="98.453267" y="400.52" style="stroke: #000000; stroke-width: 0.8"/>
      </g>
     </g>
     <g id="text_30">
      <!-- 0 -->
      <g transform="translate(95.272017 415.118437) scale(0.1 -0.1)">
       <use xlink:href="#DejaVuSans-30"/>
      </g>
     </g>
    </g>
    <g id="xtick_20">
     <g id="line2d_31">
      <g>
       <use xlink:href="#m438fa58460" x="301.201032" y="400.52" style="stroke: #000000; stroke-width: 0.8"/>
      </g>
     </g>
     <g id="text_31">
      <!-- 100 -->
      <g transform="translate(291.657282 415.118437) scale(0.1 -0.1)">
       <use xlink:href="#DejaVuSans-31"/>
       <use xlink:href="#DejaVuSans-30" transform="translate(63.623047 0)"/>
       <use xlink:href="#DejaVuSans-30" transform="translate(127.246094 0)"/>
      </g>
     </g>
    </g>
    <g id="xtick_21">
     <g id="line2d_32">
      <g>
       <use xlink:href="#m438fa58460" x="503.948796" y="400.52" style="stroke: #000000; stroke-width: 0.8"/>
      </g>
     </g>
     <g id="text_32">
      <!-- 200 -->
      <g transform="translate(494.405046 415.118437) scale(0.1 -0.1)">
       <use xlink:href="#DejaVuSans-32"/>
       <use xlink:href="#DejaVuSans-30" transform="translate(63.623047 0)"/>
       <use xlink:href="#DejaVuSans-30" transform="translate(127.246094 0)"/>
      </g>
     </g>
    </g>
    <g id="xtick_22">
     <g id="line2d_33">
      <g>
       <use xlink:href="#m438fa58460" x="706.696561" y="400.52" style="stroke: #000000; stroke-width: 0.8"/>
      </g>
     </g>
     <g id="text_33">
      <!-- 300 -->
      <g transform="translate(697.152811 415.118437) scale(0.1 -0.1)">
       <use xlink:href="#DejaVuSans-33"/>
       <use xlink:href="#DejaVuSans-30" transform="translate(63.623047 0)"/>
       <use xlink:href="#DejaVuSans-30" transform="translate(127.246094 0)"/>
      </g>
     </g>
    </g>
    <g id="xtick_23">
     <g id="line2d_34">
      <g>
       <use xlink:href="#m438fa58460" x="909.444325" y="400.52" style="stroke: #000000; stroke-width: 0.8"/>
      </g>
     </g>
     <g id="text_34">
      <!-- 400 -->
      <g transform="translate(899.900575 415.118437) scale(0.1 -0.1)">
       <use xlink:href="#DejaVuSans-34"/>
       <use xlink:href="#DejaVuSans-30" transform="translate(63.623047 0)"/>
       <use xlink:href="#DejaVuSans-30" transform="translate(127.246094 0)"/>
      </g>
     </g>
    </g>
    <g id="xtick_24">
     <g id="line2d_35">
      <g>
       <use xlink:href="#m438fa58460" x="1112.19209" y="400.52" style="stroke: #000000; stroke-width: 0.8"/>
      </g>
     </g>
     <g id="text_35">
      <!-- 500 -->
      <g transform="translate(1102.64834 415.118437) scale(0.1 -0.1)">
       <use xlink:href="#DejaVuSans-35"/>
       <use xlink:href="#DejaVuSans-30" transform="translate(63.623047 0)"/>
       <use xlink:href="#DejaVuSans-30" transform="translate(127.246094 0)"/>
      </g>
     </g>
    </g>
   </g>
   <g id="matplotlib.axis_8">
    <g id="ytick_9">
     <g id="line2d_36">
      <g>
       <use xlink:href="#m42577dcc2a" x="48.982813" y="375.528734" style="stroke: #000000; stroke-width: 0.8"/>
      </g>
     </g>
     <g id="text_36">
      <!-- 200 -->
      <g transform="translate(22.895313 379.327953) scale(0.1 -0.1)">
       <use xlink:href="#DejaVuSans-32"/>
       <use xlink:href="#DejaVuSans-30" transform="translate(63.623047 0)"/>
       <use xlink:href="#DejaVuSans-30" transform="translate(127.246094 0)"/>
      </g>
     </g>
    </g>
    <g id="ytick_10">
     <g id="line2d_37">
      <g>
       <use xlink:href="#m42577dcc2a" x="48.982813" y="346.626317" style="stroke: #000000; stroke-width: 0.8"/>
      </g>
     </g>
     <g id="text_37">
      <!-- 300 -->
      <g transform="translate(22.895313 350.425535) scale(0.1 -0.1)">
       <use xlink:href="#DejaVuSans-33"/>
       <use xlink:href="#DejaVuSans-30" transform="translate(63.623047 0)"/>
       <use xlink:href="#DejaVuSans-30" transform="translate(127.246094 0)"/>
      </g>
     </g>
    </g>
    <g id="text_38">
     <!-- Co-IMF2 -->
     <g transform="translate(14.798438 382.104531) rotate(-90) scale(0.1 -0.1)">
      <use xlink:href="#DejaVuSans-43"/>
      <use xlink:href="#DejaVuSans-6f" transform="translate(69.824219 0)"/>
      <use xlink:href="#DejaVuSans-2d" transform="translate(132.880859 0)"/>
      <use xlink:href="#DejaVuSans-49" transform="translate(168.964844 0)"/>
      <use xlink:href="#DejaVuSans-4d" transform="translate(198.457031 0)"/>
      <use xlink:href="#DejaVuSans-46" transform="translate(284.736328 0)"/>
      <use xlink:href="#DejaVuSans-32" transform="translate(342.255859 0)"/>
     </g>
    </g>
   </g>
   <g id="line2d_38">
    <path d="M 98.453267 381.10656 
L 112.645611 380.813613 
L 122.782999 380.837695 
L 130.892909 381.105072 
L 136.975342 381.491187 
L 143.057775 382.048928 
L 151.167686 383.05246 
L 159.277596 384.339105 
L 167.387507 385.875727 
L 177.524895 388.072168 
L 199.827149 393.068497 
L 207.93706 394.590501 
L 214.019493 395.518356 
L 220.101926 396.219671 
L 226.184359 396.68875 
L 232.266792 396.942431 
L 238.349225 396.998986 
L 244.431658 396.876689 
L 252.541568 396.467047 
L 260.651479 395.829505 
L 282.953733 393.884165 
L 291.063643 393.445039 
L 301.201032 393.126085 
L 315.393375 392.950199 
L 333.640674 392.749792 
L 341.750584 392.37638 
L 347.833017 391.859079 
L 353.91545 391.072953 
L 359.997883 389.987253 
L 366.080316 388.628508 
L 372.162749 387.045477 
L 380.27266 384.672576 
L 402.574914 377.802862 
L 408.657347 376.315773 
L 414.73978 375.140416 
L 418.794735 374.552722 
L 422.84969 374.137613 
L 426.904646 373.908704 
L 430.959601 373.872843 
L 435.014556 374.009811 
L 441.096989 374.480286 
L 447.179422 375.187832 
L 457.31681 376.646525 
L 467.454198 378.089518 
L 475.564109 378.99003 
L 481.646542 379.429051 
L 487.728975 379.604601 
L 491.78393 379.548207 
L 495.838886 379.33514 
L 499.893841 378.955393 
L 503.948796 378.409846 
L 510.031229 377.302341 
L 516.113662 375.87653 
L 522.196095 374.1623 
L 528.278528 372.189334 
L 534.360961 369.987319 
L 540.443394 367.585937 
L 548.553304 364.125275 
L 558.690693 359.483491 
L 576.937991 350.738566 
L 589.102857 345.056812 
L 597.212768 341.515408 
L 603.295201 339.053592 
L 609.377634 336.799503 
L 615.460067 334.77994 
L 621.5425 333.005409 
L 627.624932 331.468578 
L 633.707365 330.160586 
L 639.789798 329.072573 
L 645.872231 328.195676 
L 651.954664 327.521037 
L 658.037097 327.039793 
L 664.11953 326.743084 
L 670.201963 326.622038 
L 678.311874 326.714809 
L 686.421784 327.061583 
L 694.531695 327.619672 
L 704.669083 328.549391 
L 716.833949 329.895395 
L 767.52089 335.781485 
L 787.795666 337.819057 
L 806.042965 339.435055 
L 824.290264 340.813322 
L 840.510085 341.813871 
L 854.702429 342.487352 
L 868.894772 342.95973 
L 883.087116 343.235407 
L 899.306937 343.317525 
L 915.526758 343.173876 
L 933.774057 342.777932 
L 954.048833 342.094556 
L 976.351087 341.111163 
L 1039.202894 338.131762 
L 1057.450193 337.612583 
L 1073.670014 337.367636 
L 1087.862358 337.338825 
L 1087.862358 337.338825 
" clip-path="url(#ped9a414e99)" style="fill: none; stroke: #f27f19; stroke-width: 1.5; stroke-linecap: square"/>
   </g>
   <g id="patch_18">
    <path d="M 48.982813 400.52 
L 48.982813 323.1 
" style="fill: none; stroke: #000000; stroke-width: 0.8; stroke-linejoin: miter; stroke-linecap: square"/>
   </g>
   <g id="patch_19">
    <path d="M 1137.332813 400.52 
L 1137.332813 323.1 
" style="fill: none; stroke: #000000; stroke-width: 0.8; stroke-linejoin: miter; stroke-linecap: square"/>
   </g>
   <g id="patch_20">
    <path d="M 48.982813 400.52 
L 1137.332813 400.52 
" style="fill: none; stroke: #000000; stroke-width: 0.8; stroke-linejoin: miter; stroke-linecap: square"/>
   </g>
   <g id="patch_21">
    <path d="M 48.982813 323.1 
L 1137.332813 323.1 
" style="fill: none; stroke: #000000; stroke-width: 0.8; stroke-linejoin: miter; stroke-linecap: square"/>
   </g>
  </g>
 </g>
 <defs>
  <clipPath id="p76328ecf7a">
   <rect x="48.982813" y="7.2" width="1088.35" height="77.42"/>
  </clipPath>
  <clipPath id="pad2ba5beb7">
   <rect x="48.982813" y="112.5" width="1088.35" height="77.42"/>
  </clipPath>
  <clipPath id="p192352df4d">
   <rect x="48.982813" y="217.8" width="1088.35" height="77.42"/>
  </clipPath>
  <clipPath id="ped9a414e99">
   <rect x="48.982813" y="323.1" width="1088.35" height="77.42"/>
  </clipPath>
 </defs>
</svg>
